<svg width="16" height="16" viewBox="0 0 16 16" fill="none" xmlns="http://www.w3.org/2000/svg">
<path fill-rule="evenodd" clip-rule="evenodd" d="M6.56988 1.51435C7.3914 1.17149 8.27348 0.999512 9.21766 0.999512C10.1618 0.999512 11.0439 1.17149 11.8654 1.51435C12.6902 1.85859 13.4061 2.32276 14.0147 2.90645C14.6231 3.4901 15.1064 4.17615 15.4646 4.96582C15.8213 5.75201 16 6.59578 16 7.49887C16 9.30454 15.3431 10.8355 14.0243 12.1005C12.7052 13.3658 11.106 13.9982 9.21766 13.9982C8.28587 13.9982 7.41628 13.8323 6.6074 13.5014C5.84761 13.1907 5.17446 12.7722 4.58693 12.2458L5.46351 11.405C5.94051 11.8279 6.48555 12.1655 7.09763 12.4179C7.7594 12.6909 8.46656 12.8269 9.21766 12.8269C10.7463 12.8269 12.0562 12.3071 13.1387 11.2688C14.2214 10.2302 14.7658 8.97083 14.7658 7.49887C14.7658 6.02692 14.2214 4.7675 13.1387 3.72899C12.0562 2.69068 10.7463 2.17087 9.21766 2.17087C7.68905 2.17087 6.37913 2.69068 5.29666 3.72899C4.21398 4.7675 3.66958 6.02692 3.66958 7.49887V7.98824L5.23048 6.49102L6.10491 7.31505L3.05245 10.243L0 7.31505L0.873702 6.4917L2.43533 8.01014V7.49887C2.43533 6.59578 2.61407 5.75201 2.97071 4.96582C3.32892 4.17615 3.8122 3.4901 4.42067 2.90645C5.02919 2.32276 5.74508 1.85859 6.56988 1.51435Z" fill="#C8C8C8"/>
</svg>
