<svg width="20" height="21" viewBox="0 0 20 21" fill="none" xmlns="http://www.w3.org/2000/svg">
<path fill-rule="evenodd" clip-rule="evenodd" d="M10 18.8369C14.4183 18.8369 18 15.2323 18 10.7857C18 6.33906 14.4183 2.73438 10 2.73438C5.58172 2.73438 2 6.33906 2 10.7857C2 15.2323 5.58172 18.8369 10 18.8369ZM9.06982 5.61682C9.32227 5.37475 9.63089 5.2519 9.98129 5.2519C10.3233 5.2519 10.6232 5.35923 10.8519 5.59336C11.0815 5.82842 11.1836 6.13823 11.1836 6.49054C11.1836 6.84577 11.0526 7.15426 10.7974 7.39977L10.7952 7.40192L10.7952 7.40191C10.5442 7.63785 10.2349 7.75405 9.88408 7.75405C9.71949 7.75405 9.56174 7.72921 9.41306 7.67673L9.40228 7.67292L9.40237 7.67269C9.25775 7.61453 9.12885 7.53144 9.01808 7.42343L9.01786 7.42322C8.77877 7.18958 8.66963 6.88086 8.66963 6.52786C8.66963 6.16989 8.80686 5.86101 9.06982 5.61682ZM9.02953 8.64214C9.37593 8.47378 9.6949 8.37415 9.97521 8.37415C10.2128 8.37415 10.4375 8.40745 10.6068 8.5133C10.757 8.60482 10.8745 8.73055 10.954 8.8876L10.9558 8.89108L10.9557 8.89109C11.0732 9.13159 11.1168 9.47835 11.1168 9.89266V14.8569C11.1223 14.9912 11.1482 15.0737 11.1761 15.1218C11.2005 15.1639 11.2309 15.1885 11.2777 15.2036L11.282 15.205L11.282 15.205C11.3268 15.2203 11.3885 15.2362 11.4697 15.2513C11.5664 15.2693 11.6568 15.2924 11.7396 15.3217C11.8252 15.3467 11.9105 15.3815 11.9829 15.4334L11.9921 15.44L11.992 15.4402C12.1477 15.5621 12.1982 15.7428 12.1982 15.9132C12.1982 16.0938 12.1622 16.2757 12.0511 16.4199L11.9453 16.557L11.7776 16.5162C11.7246 16.5032 11.6211 16.4926 11.4516 16.4926H9.51347C9.18945 16.4926 8.90883 16.4562 8.69984 16.359C8.59197 16.3088 8.49247 16.2374 8.42001 16.1363C8.34558 16.0324 8.31118 15.9129 8.31118 15.7889C8.31118 15.6038 8.35106 15.421 8.46545 15.2746L8.58205 15.1254L8.76068 15.1864C8.83733 15.2125 8.89708 15.2219 8.94238 15.2219C9.06905 15.2219 9.12072 15.1844 9.15061 15.1447C9.19081 15.0913 9.23222 14.9787 9.22862 14.7609L9.22854 14.7564H9.22858V10.5893C9.22858 10.3051 9.18522 10.1813 9.15817 10.1439L9.15171 10.135L9.1519 10.1349C9.14462 10.1239 9.11183 10.0802 8.95453 10.0802C8.82644 10.0802 8.71753 10.0962 8.6253 10.1245L8.60181 10.1317L8.57742 10.1345C8.44983 10.149 8.33594 10.0992 8.25635 10.0114C8.18801 9.93606 8.15253 9.84221 8.13155 9.76169L8.13109 9.75992L8.1311 9.75992C8.08596 9.58168 8.10886 9.40019 8.22155 9.24469C8.30509 9.12575 8.42256 9.01728 8.56085 8.91674C8.70488 8.81084 8.86131 8.71941 9.02953 8.64214Z" fill="#C8C8C8"/>
</svg>
