<svg width="16" height="16" viewBox="0 0 16 16" fill="none" xmlns="http://www.w3.org/2000/svg">
<path d="M7.9502 14.85C4.4627 14.85 0.700195 12.6625 0.700195 7.8625C0.700195 3.0625 4.4627 0.875 7.9502 0.875C9.8877 0.875 11.6752 1.5125 13.0002 2.675C14.4377 3.95 15.2002 5.75 15.2002 7.8625C15.2002 9.975 14.4377 11.7625 13.0002 13.0375C11.6752 14.2 9.8752 14.85 7.9502 14.85Z" fill="url(#paint0_radial_1982_39110)"/>
<path d="M13.9365 3.70898C14.6027 4.78398 14.9502 6.06398 14.9502 7.48773C14.9502 9.60023 14.1877 11.3877 12.7502 12.6627C11.4252 13.8252 9.62523 14.4752 7.70023 14.4752C5.44273 14.4752 3.07523 13.5565 1.67773 11.6077C3.02273 13.8152 5.55273 14.8502 7.95023 14.8502C9.87523 14.8502 11.6752 14.2002 13.0002 13.0377C14.4377 11.7627 15.2002 9.97523 15.2002 7.86273C15.2002 6.27023 14.7665 4.85523 13.9365 3.70898Z" fill="#E38A00"/>
<path d="M11.125 11H4.875C4.59875 11 4.375 10.7763 4.375 10.5C4.375 10.2237 4.59875 10 4.875 10H11.125C11.4012 10 11.625 10.2237 11.625 10.5C11.625 10.7763 11.4012 11 11.125 11Z" fill="#422B0D"/>
<path d="M5.58398 5.74219C5.06023 5.74219 4.58398 6.18469 4.58398 6.91969C4.58398 7.65469 5.06023 8.09594 5.58398 8.09594C6.10773 8.09594 6.58398 7.65344 6.58398 6.91969C6.58398 6.18594 6.10773 5.74219 5.58398 5.74219Z" fill="#422B0D"/>
<path d="M5.5348 6.23327C5.3573 6.14827 5.14355 6.22327 5.0573 6.40077C4.99105 6.53952 5.02105 6.70577 5.1323 6.81327C5.3098 6.89827 5.52355 6.82327 5.6098 6.64577C5.67605 6.50702 5.64605 6.34077 5.5348 6.23327Z" fill="#896024"/>
<path d="M10.375 5.74219C9.85125 5.74219 9.375 6.18469 9.375 6.91969C9.375 7.65469 9.85125 8.09594 10.375 8.09594C10.8988 8.09594 11.375 7.65344 11.375 6.91969C11.375 6.18594 10.9013 5.74219 10.375 5.74219Z" fill="#422B0D"/>
<path d="M10.3287 6.23327C10.1512 6.14827 9.93749 6.22327 9.85124 6.40077C9.78499 6.53952 9.81499 6.70577 9.92624 6.81327C10.1037 6.89827 10.3175 6.82327 10.4037 6.64577C10.47 6.50702 10.44 6.34077 10.3287 6.23327Z" fill="#896024"/>
<defs>
<radialGradient id="paint0_radial_1982_39110" cx="0" cy="0" r="1" gradientUnits="userSpaceOnUse" gradientTransform="translate(7.9502 7.8625) scale(7.11996)">
<stop stop-color="#FFDE1E"/>
<stop offset="0.53" stop-color="#FFDD16"/>
<stop offset="0.795" stop-color="#FEC114"/>
<stop offset="0.955" stop-color="#FEA311"/>
<stop offset="1" stop-color="#F49400"/>
</radialGradient>
</defs>
</svg>
