<svg width="20" height="22" viewBox="0 0 20 22" fill="none" xmlns="http://www.w3.org/2000/svg">
<path fill-rule="evenodd" clip-rule="evenodd" d="M18 11.0713C18 15.5284 14.4183 19.1415 10 19.1415C5.58172 19.1415 2 15.5284 2 11.0713C2 6.6143 5.58172 3.00116 10 3.00116C14.4183 3.00116 18 6.6143 18 11.0713ZM9.98129 5.52309C9.63089 5.52309 9.32227 5.64623 9.06982 5.88886C8.80686 6.13363 8.66963 6.44323 8.66963 6.80204C8.66963 7.15587 8.77877 7.46531 9.01786 7.6995L9.01808 7.69971C9.12885 7.80797 9.25775 7.89126 9.40237 7.94956L9.40228 7.94979L9.41306 7.9536C9.56174 8.00621 9.71949 8.03111 9.88408 8.03111C10.2349 8.03111 10.5442 7.91463 10.7952 7.67814L10.7952 7.67815L10.7974 7.67599C11.0526 7.42991 11.1836 7.12069 11.1836 6.76463C11.1836 6.41149 11.0815 6.10096 10.8519 5.86534C10.6232 5.63067 10.3233 5.52309 9.98129 5.52309ZM9.97521 8.65266C9.6949 8.65266 9.37593 8.75252 9.02953 8.92128C8.86131 8.99873 8.70488 9.09037 8.56085 9.19653C8.42256 9.2973 8.30509 9.40603 8.22155 9.52524C8.10886 9.68111 8.08596 9.86303 8.1311 10.0417L8.13109 10.0417L8.13155 10.0435C8.15253 10.1242 8.18801 10.2182 8.25635 10.2938C8.33594 10.3817 8.44983 10.4317 8.57742 10.4171L8.60181 10.4143L8.6253 10.4071C8.71753 10.3787 8.82644 10.3627 8.95453 10.3627C9.11183 10.3627 9.14462 10.4065 9.1519 10.4175L9.15171 10.4177L9.15817 10.4266C9.18522 10.4641 9.22858 10.5882 9.22858 10.873V15.0499H9.22854L9.22862 15.0544C9.23222 15.2727 9.19081 15.3856 9.15061 15.4391C9.12072 15.4789 9.06905 15.5165 8.94238 15.5165C8.89708 15.5165 8.83733 15.5071 8.76068 15.4809L8.58205 15.4198L8.46545 15.5693C8.35106 15.7161 8.31118 15.8993 8.31118 16.0848C8.31118 16.2091 8.34558 16.3289 8.42001 16.433C8.49247 16.5344 8.59197 16.6059 8.69984 16.6562C8.90883 16.7537 9.18945 16.7902 9.51347 16.7902H11.4516C11.6211 16.7902 11.7246 16.8008 11.7776 16.8138L11.9453 16.8547L12.0511 16.7173C12.1622 16.5728 12.1982 16.3905 12.1982 16.2094C12.1982 16.0386 12.1477 15.8575 11.992 15.7353L11.9921 15.7351L11.9829 15.7285C11.9105 15.6765 11.8252 15.6416 11.7396 15.6165C11.6568 15.5871 11.5664 15.564 11.4697 15.5459C11.3885 15.5308 11.3268 15.5149 11.282 15.4996L11.282 15.4996L11.2777 15.4982C11.2309 15.483 11.2005 15.4583 11.1761 15.4161C11.1482 15.3679 11.1223 15.2853 11.1168 15.1506V10.1747C11.1168 9.75945 11.0732 9.41188 10.9557 9.17081L10.9558 9.1708L10.954 9.16731C10.8745 9.00989 10.757 8.88387 10.6068 8.79214C10.4375 8.68604 10.2128 8.65266 9.97521 8.65266Z" fill="#6694EE"/>
</svg>
