<svg width="20" height="20" viewBox="0 0 20 20" fill="none" xmlns="http://www.w3.org/2000/svg">
<path d="M9.55469 5.57769L11.1016 4.03081C11.7565 3.43388 12.6162 3.11225 13.5022 3.13276C14.3881 3.15327 15.232 3.51434 15.8586 4.14095C16.4852 4.76755 16.8463 5.61149 16.8668 6.49741C16.8873 7.38332 16.5657 8.24307 15.9687 8.898L13.7578 11.1011C13.4392 11.421 13.0605 11.6747 12.6436 11.8479C12.2266 12.0211 11.7796 12.1102 11.3281 12.1102C10.8767 12.1102 10.4296 12.0211 10.0127 11.8479C9.59573 11.6747 9.21708 11.421 8.89844 11.1011" stroke="#323232" stroke-width="1.2" stroke-linecap="round" stroke-linejoin="round"/>
<path d="M10.4453 14.4222L8.89844 15.969C8.24351 16.566 7.38376 16.8876 6.49784 16.8671C5.61193 16.8466 4.76798 16.4855 4.14138 15.8589C3.51478 15.2323 3.1537 14.3884 3.13319 13.5024C3.11268 12.6165 3.43432 11.7568 4.03125 11.1018L6.24219 8.89872C6.56083 8.57889 6.93948 8.32511 7.35643 8.15195C7.77337 7.97879 8.2204 7.88965 8.67187 7.88965C9.12335 7.88965 9.57038 7.97879 9.98732 8.15195C10.4043 8.32511 10.7829 8.57889 11.1016 8.89872" stroke="#323232" stroke-width="1.2" stroke-linecap="round" stroke-linejoin="round"/>
</svg>
