<svg width="16" height="16" viewBox="0 0 16 16" fill="none" xmlns="http://www.w3.org/2000/svg">
<path d="M2.1665 4.7915C2.1665 3.55407 2.1665 2.93535 2.55093 2.55093C2.93535 2.1665 3.55407 2.1665 4.7915 2.1665C6.02894 2.1665 6.64766 2.1665 7.03208 2.55093C7.4165 2.93535 7.4165 3.55407 7.4165 4.7915C7.4165 6.02894 7.4165 6.64766 7.03208 7.03208C6.64766 7.4165 6.02894 7.4165 4.7915 7.4165C3.55407 7.4165 2.93535 7.4165 2.55093 7.03208C2.1665 6.64766 2.1665 6.02894 2.1665 4.7915Z" fill="#A9A9A9"/>
<path d="M8.5835 11.2085C8.5835 9.97106 8.5835 9.35234 8.96792 8.96792C9.35234 8.5835 9.97106 8.5835 11.2085 8.5835C12.4459 8.5835 13.0647 8.5835 13.4491 8.96792C13.8335 9.35234 13.8335 9.97106 13.8335 11.2085C13.8335 12.4459 13.8335 13.0647 13.4491 13.4491C13.0647 13.8335 12.4459 13.8335 11.2085 13.8335C9.97106 13.8335 9.35234 13.8335 8.96792 13.4491C8.5835 13.0647 8.5835 12.4459 8.5835 11.2085Z" fill="#A9A9A9"/>
<path d="M2.1665 11.2085C2.1665 9.97106 2.1665 9.35234 2.55093 8.96792C2.93535 8.5835 3.55407 8.5835 4.7915 8.5835C6.02894 8.5835 6.64766 8.5835 7.03208 8.96792C7.4165 9.35234 7.4165 9.97106 7.4165 11.2085C7.4165 12.4459 7.4165 13.0647 7.03208 13.4491C6.64766 13.8335 6.02894 13.8335 4.7915 13.8335C3.55407 13.8335 2.93535 13.8335 2.55093 13.4491C2.1665 13.0647 2.1665 12.4459 2.1665 11.2085Z" fill="#A9A9A9"/>
<path d="M8.5835 4.7915C8.5835 3.55407 8.5835 2.93535 8.96792 2.55093C9.35234 2.1665 9.97106 2.1665 11.2085 2.1665C12.4459 2.1665 13.0647 2.1665 13.4491 2.55093C13.8335 2.93535 13.8335 3.55407 13.8335 4.7915C13.8335 6.02894 13.8335 6.64766 13.4491 7.03208C13.0647 7.4165 12.4459 7.4165 11.2085 7.4165C9.97106 7.4165 9.35234 7.4165 8.96792 7.03208C8.5835 6.64766 8.5835 6.02894 8.5835 4.7915Z" fill="#A9A9A9"/>
</svg>
