<svg width="20" height="21" viewBox="0 0 20 21" fill="none" xmlns="http://www.w3.org/2000/svg">
<path d="M17.0783 11.7867L16.7553 11.6115C16.3709 11.4034 16.1412 11.0299 16.1412 10.6131C16.1412 10.1963 16.3709 9.82278 16.7553 9.61469L17.0783 9.43945C17.9601 8.961 18.2616 7.90496 17.7526 7.07719L17.1385 6.0788C16.6306 5.25276 15.5013 4.96915 14.6219 5.44586L14.2989 5.62053C13.9145 5.8292 13.4546 5.8292 13.0707 5.62053C12.6863 5.41186 12.4567 5.0389 12.4567 4.62213V4.27223C12.4567 3.3188 11.6301 2.54291 10.6144 2.54291H9.38622C8.37052 2.54291 7.54395 3.3188 7.54395 4.27223V4.62271C7.54395 5.03947 7.31428 5.41243 6.92987 5.6211C6.54545 5.8292 6.08611 5.82978 5.70169 5.6211L5.37868 5.44586C4.4993 4.96915 3.37 5.25276 2.86153 6.0788L2.24744 7.07719C1.73836 7.90496 2.03988 8.96158 2.92171 9.43945L3.24534 9.61469C3.62976 9.82278 3.85942 10.1963 3.85942 10.6131C3.85942 11.0299 3.62976 11.4034 3.24534 11.6115L2.92233 11.7867C2.0405 12.2646 1.73898 13.3212 2.24806 14.149L2.86215 15.1474C3.37061 15.9734 4.49992 16.257 5.37868 15.7803L5.70169 15.6056C6.08611 15.3964 6.54545 15.3975 6.92987 15.6056C7.31428 15.8143 7.54395 16.1873 7.54395 16.604V16.9539C7.54395 17.9074 8.37052 18.6833 9.38622 18.6833H10.6144C11.6301 18.6833 12.4567 17.9074 12.4567 16.9539V16.6035C12.4567 16.1867 12.6863 15.8137 13.0707 15.6051C13.4546 15.397 13.9145 15.3964 14.2989 15.6051L14.6219 15.7803C15.5013 16.2564 16.6306 15.9728 17.1385 15.1474L17.7526 14.149C18.2616 13.3212 17.9601 12.2646 17.0783 11.7867ZM10.0003 13.4953C8.30727 13.4953 6.92987 12.2023 6.92987 10.6131C6.92987 9.02384 8.30727 7.73088 10.0003 7.73088C11.6933 7.73088 13.0707 9.02384 13.0707 10.6131C13.0707 12.2023 11.6933 13.4953 10.0003 13.4953Z" fill="#8987FF"/>
</svg>
