<svg width="16" height="16" viewBox="0 0 16 16" fill="none" xmlns="http://www.w3.org/2000/svg">
<path d="M7.9502 14.85C4.4627 14.85 0.700195 12.6625 0.700195 7.8625C0.700195 3.0625 4.4627 0.875 7.9502 0.875C9.8877 0.875 11.6752 1.5125 13.0002 2.675C14.4377 3.95 15.2002 5.75 15.2002 7.8625C15.2002 9.975 14.4377 11.7625 13.0002 13.0375C11.6752 14.2 9.8752 14.85 7.9502 14.85Z" fill="url(#paint0_radial_1982_39132)"/>
<path d="M13.9365 3.70898C14.6027 4.78398 14.9502 6.06398 14.9502 7.48773C14.9502 9.60023 14.1877 11.3877 12.7502 12.6627C11.4252 13.8252 9.62523 14.4752 7.70023 14.4752C5.44273 14.4752 3.07523 13.5565 1.67773 11.6077C3.02273 13.8152 5.55273 14.8502 7.95023 14.8502C9.87523 14.8502 11.6752 14.2002 13.0002 13.0377C14.4377 11.7627 15.2002 9.97523 15.2002 7.86273C15.2002 6.27023 14.7665 4.85523 13.9365 3.70898Z" fill="#E38A00"/>
<path d="M5.5 5.11719C4.97625 5.11719 4.5 5.55969 4.5 6.29469C4.5 7.02969 4.97625 7.47094 5.5 7.47094C6.025 7.47094 6.5 7.02844 6.5 6.29469C6.5 5.56094 6.03 5.11719 5.5 5.11719Z" fill="#422B0D"/>
<path d="M5.45619 5.60827C5.27869 5.52327 5.06494 5.59827 4.97869 5.77577C4.91244 5.91452 4.94244 6.08077 5.05369 6.18827C5.23119 6.27327 5.44494 6.19827 5.53119 6.02077C5.59744 5.88202 5.56744 5.71577 5.45619 5.60827Z" fill="#896024"/>
<path d="M10.2998 5.11719C9.77605 5.11719 9.2998 5.55969 9.2998 6.29469C9.2998 7.02969 9.77605 7.47094 10.2998 7.47094C10.8236 7.47094 11.2998 7.02844 11.2998 6.29469C11.2998 5.56094 10.8236 5.11719 10.2998 5.11719Z" fill="#422B0D"/>
<path d="M10.2501 5.60827C10.0726 5.52327 9.85888 5.59827 9.77263 5.77577C9.70638 5.91452 9.73638 6.08077 9.84763 6.18827C10.0251 6.27327 10.2389 6.19827 10.3251 6.02077C10.3914 5.88202 10.3614 5.71577 10.2501 5.60827Z" fill="#896024"/>
<path d="M5.00004 11.4918C5.88379 10.8318 6.91254 10.3918 8.00004 10.2081C9.08129 10.0043 10.195 10.0618 11.25 10.3743C11.4263 10.4281 11.5638 10.2181 11.42 10.1131C10.4788 9.42807 9.18379 9.11307 7.83879 9.35557C6.49379 9.59807 5.39129 10.3368 4.75004 11.3068C4.64879 11.4543 4.85004 11.6043 5.00004 11.4918Z" fill="#422B0D"/>
<defs>
<radialGradient id="paint0_radial_1982_39132" cx="0" cy="0" r="1" gradientUnits="userSpaceOnUse" gradientTransform="translate(7.9502 7.8625) scale(7.11996)">
<stop stop-color="#FFDE1E"/>
<stop offset="0.53" stop-color="#FFDD16"/>
<stop offset="0.795" stop-color="#FEC114"/>
<stop offset="0.955" stop-color="#FEA311"/>
<stop offset="1" stop-color="#F49400"/>
</radialGradient>
</defs>
</svg>
