<svg width="16" height="16" viewBox="0 0 16 16" fill="none" xmlns="http://www.w3.org/2000/svg">
<path d="M7.9502 14.85C4.4627 14.85 0.700195 12.6625 0.700195 7.8625C0.700195 3.0625 4.4627 0.875 7.9502 0.875C9.8877 0.875 11.6752 1.5125 13.0002 2.675C14.4377 3.95 15.2002 5.75 15.2002 7.8625C15.2002 9.975 14.4377 11.7625 13.0002 13.0375C11.6752 14.2 9.8752 14.85 7.9502 14.85Z" fill="url(#paint0_radial_1982_39103)"/>
<path opacity="0.8" d="M3.40625 11.458C4.61437 11.458 5.59375 10.4786 5.59375 9.27051C5.59375 8.06239 4.61437 7.08301 3.40625 7.08301C2.19813 7.08301 1.21875 8.06239 1.21875 9.27051C1.21875 10.4786 2.19813 11.458 3.40625 11.458Z" fill="url(#paint1_radial_1982_39103)"/>
<path d="M6.26865 7.38723L6.2499 7.35973L6.22365 7.32598C6.21365 7.31223 6.20365 7.30098 6.19115 7.28973L6.11365 7.21223C6.0824 7.18098 6.0449 7.14723 6.00615 7.11348C5.92365 7.04223 5.83115 6.98473 5.73115 6.93973C5.63365 6.89598 5.5274 6.87473 5.42115 6.87473H5.3749C5.3624 6.87223 5.35115 6.87223 5.33865 6.87473C5.31615 6.87723 5.29365 6.88098 5.27115 6.88598C5.21865 6.89848 5.16865 6.91473 5.11865 6.93473C5.01865 6.97973 4.92615 7.03723 4.84365 7.10848C4.77615 7.16598 4.71365 7.22723 4.6549 7.29223L4.58365 7.37223L4.54615 7.41473C4.3974 7.58973 4.1349 7.61223 3.9599 7.46348C3.82615 7.34973 3.7774 7.16473 3.83865 6.99973L3.8524 6.95973C3.8649 6.92098 3.8799 6.88348 3.89615 6.84598C3.95615 6.70973 4.0324 6.58223 4.1249 6.46598C4.34365 6.17723 4.65115 5.96723 4.9999 5.86723C5.07115 5.84848 5.14365 5.83473 5.2174 5.82473C5.2549 5.82473 5.3099 5.81348 5.32615 5.81348H5.42115C5.56365 5.81598 5.7049 5.83598 5.8424 5.87223C5.97365 5.90848 6.0999 5.96098 6.2174 6.02848C6.41115 6.14098 6.58115 6.29223 6.7174 6.47098C6.7699 6.53848 6.8174 6.60848 6.85865 6.68348C6.8924 6.74223 6.9224 6.80223 6.94865 6.86348C6.95865 6.88348 6.9674 6.90473 6.97365 6.92598C6.97365 6.94223 6.98365 6.95598 6.9874 6.96723L6.9999 6.99973C7.07115 7.22098 6.9499 7.45848 6.72865 7.52973C6.56115 7.58223 6.3774 7.52473 6.26865 7.38723Z" fill="#422B0D"/>
<path d="M11.6849 7.38734L11.6624 7.35984L11.6362 7.32609C11.6262 7.31234 11.6162 7.30109 11.6037 7.28984L11.5262 7.21234C11.4949 7.18109 11.4574 7.14734 11.4187 7.11359C11.3362 7.04234 11.2437 6.98484 11.1437 6.93984C11.0474 6.89734 10.9424 6.87484 10.8374 6.87484H10.7862C10.7737 6.87234 10.7624 6.87234 10.7499 6.87484C10.7274 6.87734 10.7049 6.88109 10.6824 6.88609C10.6299 6.89859 10.5799 6.91484 10.5299 6.93484C10.4287 6.98109 10.3337 7.04109 10.2499 7.11359C10.1824 7.17109 10.1199 7.23234 10.0599 7.29734L9.99993 7.37484L9.96243 7.41734C9.82243 7.59984 9.56118 7.63359 9.37868 7.49234C9.22868 7.37734 9.17493 7.17484 9.24993 6.99984L9.26368 6.95984C9.27618 6.92109 9.29118 6.88359 9.30743 6.84609C9.36618 6.70859 9.44368 6.57984 9.53493 6.46109C9.75368 6.17234 10.0612 5.96234 10.4099 5.86234C10.4812 5.84359 10.5537 5.82984 10.6274 5.81984C10.6649 5.81984 10.7187 5.80859 10.7362 5.80859H10.8312C10.9737 5.81109 11.1149 5.83109 11.2524 5.86734C11.3837 5.90359 11.5099 5.95609 11.6274 6.02359C11.8212 6.13609 11.9912 6.28734 12.1274 6.46609C12.1799 6.53359 12.2274 6.60359 12.2687 6.67859C12.3024 6.73734 12.3324 6.79734 12.3587 6.85859C12.3687 6.87859 12.3774 6.89984 12.3837 6.92109L12.3974 6.96234L12.4087 6.99609C12.4799 7.21734 12.3587 7.45359 12.1374 7.52484C11.9712 7.57859 11.7899 7.52359 11.6812 7.38734H11.6849Z" fill="#422B0D"/>
<path d="M9.10733 10.6165C9.32108 10.4277 9.45483 10.1665 9.48233 9.88274C9.50608 9.43274 9.39108 9.27774 9.24357 9.08149C8.90482 8.62524 7.94358 8.73399 7.94358 8.73399C7.69358 8.74399 7.38858 8.86649 7.42483 9.16399C7.47358 9.33274 7.61108 9.46149 7.78358 9.50024C8.15858 9.59149 8.70483 9.50024 8.71983 9.88649C8.73733 10.319 8.07233 10.1365 8.01983 10.599C7.96733 11.0615 8.71983 10.9977 8.71983 11.3127C8.71983 11.554 8.46983 11.5952 8.21108 11.6502C7.98733 11.6965 7.55733 11.7665 7.52233 12.0252C7.48733 12.284 7.63608 12.5965 8.24108 12.5052C9.19233 12.3615 9.51233 11.8402 9.51233 11.5202C9.51858 11.174 9.36983 10.8427 9.10733 10.6165Z" fill="#422B0D"/>
<path d="M5.8974 4.07656C6.18615 4.07656 6.2724 3.68531 5.96365 3.62031C5.72365 3.57531 5.4774 3.56781 5.2349 3.59906C4.57865 3.67281 3.9749 3.99531 3.5474 4.50031C3.35115 4.74031 3.6724 4.99281 3.88365 4.81406C4.45365 4.35031 5.1624 4.09031 5.8974 4.07656Z" fill="#422B0D"/>
<path d="M9.99986 4.16176C9.71361 4.19426 9.59111 3.80926 9.88861 3.71426C10.1249 3.64676 10.3711 3.61676 10.6174 3.62551C11.2786 3.63426 11.9111 3.89676 12.3849 4.35801C12.6036 4.57801 12.3099 4.85801 12.0811 4.70301C11.4674 4.29426 10.7349 4.10301 9.99986 4.16176Z" fill="#422B0D"/>
<path d="M13.9365 3.70898C14.6027 4.78398 14.9502 6.06398 14.9502 7.48773C14.9502 9.60023 14.1877 11.3877 12.7502 12.6627C11.4252 13.8252 9.62523 14.4752 7.70023 14.4752C5.44273 14.4752 3.07523 13.5565 1.67773 11.6077C3.02273 13.8152 5.55273 14.8502 7.95023 14.8502C9.87523 14.8502 11.6752 14.2002 13.0002 13.0377C14.4377 11.7627 15.2002 9.97523 15.2002 7.86273C15.2002 6.27023 14.7665 4.85523 13.9365 3.70898Z" fill="#E38A00"/>
<path opacity="0.8" d="M12.5786 11.457C13.7867 11.457 14.7661 10.4777 14.7661 9.26953C14.7661 8.06141 13.7867 7.08203 12.5786 7.08203C11.3705 7.08203 10.3911 8.06141 10.3911 9.26953C10.3911 10.4777 11.3705 11.457 12.5786 11.457Z" fill="url(#paint2_radial_1982_39103)"/>
<defs>
<radialGradient id="paint0_radial_1982_39103" cx="0" cy="0" r="1" gradientUnits="userSpaceOnUse" gradientTransform="translate(7.9502 7.8625) scale(7.11996)">
<stop stop-color="#FFDE1E"/>
<stop offset="0.53" stop-color="#FFDD16"/>
<stop offset="0.795" stop-color="#FEC114"/>
<stop offset="0.955" stop-color="#FEA311"/>
<stop offset="1" stop-color="#F49400"/>
</radialGradient>
<radialGradient id="paint1_radial_1982_39103" cx="0" cy="0" r="1" gradientUnits="userSpaceOnUse" gradientTransform="translate(3.40632 9.27035) scale(2.37975 2.26065)">
<stop stop-color="#FF4D26"/>
<stop offset="0.9" stop-color="#FF4D26" stop-opacity="0"/>
</radialGradient>
<radialGradient id="paint2_radial_1982_39103" cx="0" cy="0" r="1" gradientUnits="userSpaceOnUse" gradientTransform="translate(12.5787 9.26937) scale(2.37975 2.26065)">
<stop stop-color="#FF4D26"/>
<stop offset="0.9" stop-color="#FF4D26" stop-opacity="0"/>
</radialGradient>
</defs>
</svg>
