<svg width="16" height="16" viewBox="0 0 16 16" fill="none" xmlns="http://www.w3.org/2000/svg">
<path d="M7.9502 14.85C4.4627 14.85 0.700195 12.6625 0.700195 7.8625C0.700195 3.0625 4.4627 0.875 7.9502 0.875C9.8877 0.875 11.6752 1.5125 13.0002 2.675C14.4377 3.95 15.2002 5.75 15.2002 7.8625C15.2002 9.975 14.4377 11.7625 13.0002 13.0375C11.6752 14.2 9.8752 14.85 7.9502 14.85Z" fill="url(#paint0_radial_1982_38896)"/>
<path d="M13.9365 3.70898C14.6027 4.78398 14.9502 6.06398 14.9502 7.48773C14.9502 9.60023 14.1877 11.3877 12.7502 12.6627C11.4252 13.8252 9.62523 14.4752 7.70023 14.4752C5.44273 14.4752 3.07523 13.5565 1.67773 11.6077C3.02273 13.8152 5.55273 14.8502 7.95023 14.8502C9.87523 14.8502 11.6752 14.2002 13.0002 13.0377C14.4377 11.7627 15.2002 9.97523 15.2002 7.86273C15.2002 6.27023 14.7665 4.85523 13.9365 3.70898Z" fill="#E38A00"/>
<path d="M3.89835 7.00646L5.42085 6.71146L3.8521 6.06021L3.7996 6.03146C3.54335 5.89646 3.44585 5.58021 3.58085 5.32396C3.61335 5.26271 3.6571 5.20896 3.7096 5.16521C3.9596 4.97396 4.3021 4.95896 4.56835 5.12771L7.22835 6.75271C7.29585 6.76646 7.3396 6.83271 7.32585 6.90021C7.31335 6.95896 7.26085 7.00146 7.20085 7.00021L4.3371 8.07396C4.3171 8.08146 4.2971 8.08896 4.2771 8.09396C3.9021 8.19896 3.48585 7.98271 3.4271 7.62146C3.38335 7.34646 3.59585 7.09021 3.89835 7.00646Z" fill="#422B0D"/>
<path d="M11.851 6.97521L10.3285 6.68021L11.8972 6.02896L11.9497 6.00021C12.206 5.86521 12.3035 5.54896 12.1685 5.29271C12.136 5.23146 12.0922 5.17771 12.0397 5.13396C11.7897 4.94271 11.4472 4.92771 11.181 5.09646L8.52096 6.72146C8.45596 6.74521 8.42346 6.81771 8.44721 6.88146C8.46346 6.92521 8.50221 6.95646 8.54846 6.96271L11.4122 8.03771C11.4322 8.04521 11.4522 8.05271 11.4722 8.05771C11.8472 8.16271 12.2635 7.94646 12.3222 7.58521C12.366 7.31521 12.1535 7.05896 11.851 6.97521Z" fill="#422B0D"/>
<path d="M12.7585 8.95293C12.5835 8.63668 12.2035 8.49793 11.866 8.62543C10.5835 8.99918 9.25352 9.18543 7.91727 9.17918C6.58102 9.18543 5.25102 8.99918 3.96852 8.62543C3.63227 8.49793 3.25227 8.63543 3.07727 8.95043C2.90727 9.26418 3.02977 9.62793 3.17352 9.94168C3.97602 11.7042 5.74477 12.7592 7.90727 12.7654H7.92727C10.0898 12.7654 11.8585 11.7042 12.6623 9.94168C12.8048 9.62543 12.9285 9.26668 12.7585 8.95293Z" fill="#422B0D"/>
<path d="M9.91863 12.2676C9.87238 12.2251 9.82488 12.1864 9.77738 12.1426C9.26738 11.6939 8.60738 11.4526 7.92738 11.4664C7.22738 11.4551 6.54613 11.6876 5.99988 12.1251C5.95238 12.1639 5.90238 12.2014 5.85613 12.2501C5.80988 12.2989 5.78488 12.3339 5.75488 12.3751C6.44238 12.6439 7.17488 12.7814 7.91363 12.7776H7.93363C8.64113 12.7776 9.34238 12.6514 10.0049 12.4026C9.97988 12.3551 9.95113 12.3101 9.91863 12.2676Z" fill="#ED7770"/>
<path d="M11.8658 8.62498C10.5833 8.99873 9.25328 9.18498 7.91703 9.17873C6.58078 9.18498 5.25078 8.99873 3.96828 8.62498C3.63203 8.49748 3.25203 8.63498 3.07703 8.94998C3.05203 8.99748 3.03203 9.04748 3.01953 9.09873C3.06078 9.11998 3.10828 9.14123 3.16453 9.16373C4.66953 9.91748 6.33328 10.3 8.01578 10.28C9.62953 10.2987 11.2245 9.94748 12.682 9.25498C12.7408 9.22998 12.7895 9.20623 12.8333 9.18373C12.8233 9.10248 12.797 9.02248 12.7583 8.94998C12.5833 8.63498 12.2033 8.49623 11.8658 8.62498Z" fill="white"/>
<path d="M12.7635 8.95418C12.586 8.63793 12.2048 8.49793 11.8648 8.62543C10.5823 8.99918 9.25227 9.18543 7.91727 9.17918C6.58102 9.18543 5.25102 8.99918 3.96852 8.62543C3.63227 8.49793 3.25227 8.63543 3.07727 8.95043C2.90727 9.26418 3.02977 9.62793 3.17352 9.94168C3.23727 10.0829 3.30852 10.2217 3.38727 10.3554C3.38727 10.3554 3.12477 9.38293 3.35227 9.10043C3.42977 8.98043 3.55977 8.90543 3.70227 8.89793C3.76102 8.89793 3.81852 8.90793 3.87477 8.92543C5.17977 9.30918 6.53352 9.50293 7.89477 9.50043H7.93852C9.29977 9.50293 10.6535 9.30918 11.9585 8.92543C12.0148 8.90793 12.0723 8.89793 12.131 8.89793C12.2735 8.90543 12.4048 8.98043 12.4823 9.10043C12.7135 9.38293 12.4473 10.3592 12.4473 10.3592C12.5248 10.2254 12.6023 10.0879 12.6673 9.94543C12.8098 9.63168 12.9335 9.26918 12.7635 8.95418Z" fill="#E38A00"/>
<defs>
<radialGradient id="paint0_radial_1982_38896" cx="0" cy="0" r="1" gradientUnits="userSpaceOnUse" gradientTransform="translate(7.9502 7.8625) scale(7.11996)">
<stop stop-color="#FFDE1E"/>
<stop offset="0.53" stop-color="#FFDD16"/>
<stop offset="0.795" stop-color="#FEC114"/>
<stop offset="0.955" stop-color="#FEA311"/>
<stop offset="1" stop-color="#F49400"/>
</radialGradient>
</defs>
</svg>
