<svg width="40" height="40" viewBox="0 0 40 40" fill="none" xmlns="http://www.w3.org/2000/svg">
<g clip-path="url(#clip0_6403_25978)">
<rect width="40" height="40" rx="20" fill="#79B2D0"/>
<g clip-path="url(#clip1_6403_25978)">
<path d="M25.6351 34.5168C25.781 34.6826 27.5518 36.47 29.7626 35.7338C31.9733 34.9965 33.5209 32.2331 33.5209 32.2331C33.5209 32.2331 29.6521 29.5061 29.431 29.6543C29.2099 29.8024 28.3621 31.6428 28.3621 31.6428L26.3724 30.4634C26.3724 30.4634 22.9093 31.4218 25.6351 34.5168Z" fill="url(#paint0_radial_6403_25978)"/>
<path d="M25.562 32.9511C25.562 32.9511 26.6917 31.7739 27.692 31.2455L26.3722 30.4629C26.3722 30.4629 25.2525 30.7735 24.7871 31.6103C25.1242 32.1574 25.562 32.9511 25.562 32.9511Z" fill="#C1E2F3" fill-opacity="0.24"/>
<path d="M24.3661 39.1926C24.3661 39.1926 23.8477 44.8466 22.0824 45.669C21.0102 46.1687 19.7467 46.1344 19.2283 44.336C18.8801 43.1256 19.1697 42.2601 19.3488 39.9819C19.5865 36.9598 24.3661 39.1926 24.3661 39.1926Z" fill="url(#paint1_radial_6403_25978)"/>
<path d="M19.3487 39.9824C19.2039 41.8272 18.9872 42.7447 19.0944 43.671C20.076 41.2425 23.1103 40.5207 24.2433 40.1968C24.3306 39.5933 24.366 39.1931 24.366 39.1931C24.366 39.1931 19.5863 36.9592 19.3487 39.9824Z" fill="#C1E2F3" fill-opacity="0.24"/>
<path d="M20.6366 39.9622C20.6366 39.9622 20.1182 45.6162 18.3529 46.4386C17.2807 46.9382 16.0173 46.9039 15.4988 45.1055C15.1506 43.8951 15.4402 43.0296 15.6193 40.7514C15.857 37.7293 20.6366 39.9622 20.6366 39.9622Z" fill="url(#paint2_radial_6403_25978)"/>
<path d="M15.6192 40.7519C15.4744 42.5968 15.2577 43.5142 15.3649 44.4405C16.3465 42.012 19.3819 41.2902 20.5138 40.9663C20.6011 40.3628 20.6365 39.9627 20.6365 39.9627C20.6365 39.9627 15.8568 37.7287 15.6192 40.7519Z" fill="#C1E2F3" fill-opacity="0.24"/>
<path d="M14.1524 36.1395C14.1546 36.1959 14.1568 36.2511 14.1624 36.3075C14.1624 36.3208 14.1635 36.3329 14.1646 36.3451C14.1679 36.4081 14.1734 36.47 14.1789 36.533C14.1823 36.5805 14.1878 36.6281 14.1922 36.6756C14.1977 36.7253 14.2044 36.7751 14.2099 36.8248C14.2154 36.8779 14.2232 36.9309 14.232 36.984C14.2397 37.0293 14.2453 37.0724 14.2541 37.1177C14.2552 37.1255 14.2563 37.1321 14.2574 37.1409C14.2674 37.1984 14.2784 37.257 14.2895 37.3145C14.2928 37.3289 14.295 37.3432 14.2994 37.3587C14.3094 37.4107 14.3204 37.4626 14.3326 37.5146C14.3801 37.7191 14.4365 37.9224 14.5028 38.1236C14.5426 38.2452 14.5868 38.3657 14.6366 38.4862C14.6388 38.4928 14.641 38.4984 14.6443 38.505C14.6697 38.5669 14.6963 38.6288 14.7239 38.6907C14.7493 38.7482 14.7758 38.8045 14.8046 38.862C14.8068 38.8675 14.809 38.8731 14.8134 38.8786C14.861 38.977 14.9118 39.0731 14.966 39.1682C16.068 41.1137 19.9158 40.9368 19.9158 40.9368C19.9158 40.9368 23.8068 40.572 25.1045 38.4652C25.7942 37.3443 26.0429 36.0455 26.0739 34.8241C26.1292 32.5271 25.4096 30.5032 25.3897 30.4424H25.3886C25.3001 30.386 25.2106 30.3329 25.1222 30.2832C25.0348 30.2323 24.9464 30.1837 24.8569 30.1373C24.8116 30.1141 24.7684 30.0909 24.7231 30.0688C24.5905 30.0024 24.4567 29.9416 24.3241 29.883C24.1903 29.8256 24.0577 29.7725 23.925 29.7239C23.8377 29.6907 23.7493 29.6609 23.6609 29.631C23.5724 29.6023 23.484 29.5746 23.3967 29.5492C23.3513 29.5371 23.3082 29.5238 23.264 29.5127C22.9578 29.4298 22.6528 29.3679 22.351 29.3237C22.3068 29.3171 22.2648 29.3127 22.2205 29.3071C22.1343 29.2961 22.0492 29.2861 21.9641 29.2795C21.7088 29.2552 21.4545 29.2441 21.2058 29.2441C21.1318 29.2441 21.0577 29.2452 20.9836 29.2475C20.9582 29.2475 20.9328 29.2486 20.9085 29.2486C20.8344 29.2519 20.7603 29.2563 20.6863 29.2596C20.6023 29.264 20.5183 29.2718 20.4354 29.2795C20.3514 29.2873 20.2674 29.295 20.1844 29.3049H20.1833C17.389 29.6332 15.2501 31.1852 15.0544 31.3322C15.0445 31.3388 15.04 31.3421 15.04 31.3421C15.04 31.3421 15.04 31.3433 15.0389 31.3455C15.0378 31.3488 15.0356 31.3554 15.0301 31.3654C14.9494 31.5566 14.41 32.8853 14.2154 34.5687C14.2099 34.6251 14.2033 34.6793 14.1966 34.7356C14.1911 34.8075 14.1834 34.8805 14.1767 34.9534C14.1657 35.0838 14.1579 35.2154 14.1524 35.3491C14.1425 35.6078 14.1414 35.8731 14.1524 36.1406V36.1395Z" fill="url(#paint3_radial_6403_25978)"/>
<path d="M14.1523 36.1386C14.1545 36.195 14.1567 36.2503 14.1622 36.3066C14.1622 36.3199 14.1634 36.3321 14.1645 36.3442C14.1678 36.4072 14.1733 36.4691 14.1788 36.5321C14.1821 36.5797 14.1877 36.6272 14.1921 36.6747C14.1976 36.7245 14.2042 36.7742 14.2098 36.824C14.2153 36.877 14.223 36.9301 14.2319 36.9831C14.2396 37.0285 14.2451 37.0716 14.254 37.1169C14.2551 37.1246 14.2562 37.1313 14.2573 37.1401C14.2673 37.1976 14.2783 37.2562 14.2894 37.3136C14.2927 37.328 14.2949 37.3424 14.2993 37.3579C14.3093 37.4098 14.3203 37.4618 14.3325 37.5137C14.38 37.7182 14.4364 37.9216 14.5027 38.1228C14.5425 38.2444 14.5878 38.3649 14.6365 38.4853C14.6387 38.492 14.6409 38.4975 14.6442 38.5041C14.6696 38.566 14.6961 38.6279 14.7238 38.6898C14.7492 38.7473 14.7757 38.8037 14.8045 38.8612C14.8067 38.8667 14.8089 38.8722 14.8133 38.8778C14.8155 35.8778 17.1899 33.6991 21.0498 32.7893C23.9293 32.1106 25.2447 33.0447 26.0727 34.8221C26.1279 32.5252 25.4083 30.5012 25.3884 30.4404H25.3873C25.2989 30.384 25.2094 30.331 25.1209 30.2812C25.0336 30.2304 24.9452 30.1818 24.8557 30.1353C24.8103 30.1121 24.7672 30.0889 24.7219 30.0668C24.5893 30.0005 24.4555 29.9375 24.3229 29.8811C24.1891 29.8236 24.0565 29.7706 23.9238 29.7219C23.8365 29.6888 23.7481 29.6589 23.6596 29.6291C23.5712 29.6003 23.4828 29.5727 23.3954 29.5473C23.3501 29.5351 23.307 29.5218 23.2628 29.5108C22.9566 29.4268 22.6515 29.366 22.3498 29.3218C22.3055 29.3151 22.2635 29.3107 22.2193 29.3052C22.1331 29.2941 22.048 29.2842 21.9629 29.2776C21.7075 29.2532 21.4533 29.2422 21.2046 29.2422C21.1305 29.2422 21.0565 29.2433 20.9824 29.2455C20.957 29.2455 20.9316 29.2466 20.9072 29.2466C20.8332 29.2499 20.7591 29.2543 20.6851 29.2577C20.6011 29.2621 20.5171 29.2698 20.4341 29.2776C20.3501 29.2853 20.2661 29.293 20.1832 29.303H20.1821C17.4264 29.8181 15.2521 31.2009 15.0532 31.3302C15.0432 31.3369 15.0388 31.3402 15.0388 31.3402C15.0388 31.3402 15.0388 31.3413 15.0377 31.3435C15.0366 31.3468 15.0344 31.3535 15.0289 31.3634C14.9614 31.5381 14.5292 32.691 14.2639 34.1954C14.2451 34.317 14.2286 34.4408 14.2142 34.5679C14.2087 34.6243 14.202 34.6784 14.1954 34.7348C14.1899 34.8067 14.1821 34.8796 14.1755 34.9526C14.1645 35.083 14.1567 35.2145 14.1512 35.3483C14.1412 35.6069 14.1401 35.8722 14.1512 36.1397L14.1523 36.1386Z" fill="#C1E2F3" fill-opacity="0.16"/>
<path d="M20.2197 34.9397L19.2614 41.0558L18.807 40.9972L17.3502 40.8104L10.2161 39.8951L11.3944 34.0742L20.2197 34.9397Z" fill="#FF573F"/>
<path d="M19.8328 35.1412C19.8328 35.1412 19.038 39.6533 18.807 40.9963L17.3501 40.8095L18.377 34.9941L19.8328 35.1412Z" fill="white"/>
<path d="M19.372 35.8242L18.5706 40.9089" stroke="#417794" stroke-width="0.110538" stroke-linecap="round" stroke-linejoin="round"/>
<path d="M18.9574 35.7969L18.156 40.8816" stroke="#417794" stroke-width="0.110538" stroke-linecap="round" stroke-linejoin="round"/>
<path d="M18.5429 35.7695L17.7415 40.8543" stroke="#417794" stroke-width="0.110538" stroke-linecap="round" stroke-linejoin="round"/>
<path d="M12.4082 39.2506C12.4082 39.2506 12.5187 40.7428 13.9557 40.9639C13.9557 40.9639 14.3426 41.6459 15.0058 41.2038C15.0058 41.2038 15.5773 41.4801 15.9642 40.9274C16.2958 41.0933 16.6838 40.7771 16.7192 40.6323C16.8297 40.1902 16.2218 37.9794 15.8901 38.0899L12.4082 39.2506Z" fill="#0078B8"/>
<path d="M15.3186 39.9883C15.3186 40.0623 15.669 40.6515 15.8901 40.9091" stroke="#0F4F72" stroke-width="0.110538" stroke-linecap="round" stroke-linejoin="round"/>
<path d="M17.294 33.2956C16.8176 34.6022 15.9145 36.4482 16.1665 37.5392C16.4981 38.9762 15.5033 39.363 14.0663 39.5841C12.8261 39.7754 10.6993 39.8958 12.4657 34.7017C12.7454 33.8771 13.1422 32.964 13.6794 31.957C13.9005 32.0123 17.5482 32.6203 17.5482 32.6203C17.5482 32.6203 17.4454 32.88 17.294 33.2956Z" fill="url(#paint4_radial_6403_25978)"/>
<path d="M17.5481 32.6203C17.5481 32.6203 17.4453 32.88 17.2939 33.2956C15.2191 33.5941 13.3819 34.296 12.4656 34.7017C12.7452 33.8771 13.1421 32.964 13.6793 31.957C13.9004 32.0123 17.5481 32.6203 17.5481 32.6203Z" fill="#C1E2F3" fill-opacity="0.24"/>
<path d="M24.7497 31.61C17.0784 33.3631 11.8699 32.9066 8.8345 30.1808C5.9351 27.5754 4.23945 20.6779 7.14217 15.8208C9.77849 11.4093 17.8455 10.6952 19.2217 10.5239C20.5979 10.3525 25.8385 9.94354 29.1734 12.6705C34.2593 16.8289 34.1653 22.7725 32.977 25.8389C31.8838 28.6587 30.0798 30.3013 24.7508 31.6089L24.7497 31.61Z" fill="url(#paint5_radial_6403_25978)"/>
<path d="M14.6465 26.0674C14.8643 27.6812 16.445 28.7556 18.1539 28.4705L28.9844 26.661C30.4954 26.4089 31.54 25.0018 31.3399 23.5151L30.397 16.5158C30.197 15.0291 28.8164 13.948 27.2932 14.105L16.3698 15.2247C14.6465 15.4016 13.4063 16.8552 13.623 18.469L14.6454 26.0685L14.6465 26.0674Z" fill="#004367"/>
<path d="M28.6793 26.4085C29.966 26.1952 30.8624 24.9936 30.6922 23.728L29.7471 16.7044C29.5769 15.4388 28.3952 14.518 27.0975 14.6539L16.1476 15.8057C14.6841 15.9594 13.6285 17.1996 13.812 18.5692L14.8345 26.1631C15.0191 27.5316 16.3654 28.4479 17.8168 28.207L28.6804 26.4085H28.6793Z" fill="#0078B8"/>
<path d="M27.6656 14.9142C28.6096 14.9683 29.3767 15.7311 29.5392 16.3578C29.715 17.0398 29.6033 18.038 28.771 17.5704C28.2482 17.2764 27.8933 16.2539 26.3259 15.8383C25.1078 15.5155 26.107 14.8247 27.6667 14.9142H27.6656Z" fill="white"/>
<path d="M24.9636 20.4535C25.1537 21.9424 26.0377 23.0556 26.9386 22.9416C27.8394 22.8265 28.4166 21.5265 28.2265 20.0376C28.0365 18.5487 27.1524 17.4355 26.2516 17.5495C25.3508 17.6646 24.7736 18.9646 24.9635 20.4525L24.9636 20.4535Z" fill="url(#paint6_linear_6403_25978)"/>
<path d="M17.4546 21.6207C17.6488 23.1421 18.5521 24.2796 19.4726 24.163C20.393 24.0454 20.9828 22.7171 20.7886 21.1957C20.5944 19.6744 19.6911 18.5369 18.7706 18.6534C17.8502 18.771 17.2604 20.0994 17.4545 21.6196L17.4546 21.6207Z" fill="url(#paint7_linear_6403_25978)"/>
<path d="M7.14212 15.8205C4.2394 20.6775 5.93505 27.5751 8.83555 30.1793C10.2217 31.424 12.061 32.1945 14.3801 32.4984C14.3923 32.4697 14.3978 32.4531 14.3978 32.4531C14.3978 32.4531 9.20254 27.2578 8.42877 22.0626C7.81529 17.9417 9.77402 14.1691 10.6108 12.7852C9.18706 13.5258 7.92472 14.5095 7.14212 15.8205Z" fill="#C1E2F3" fill-opacity="0.24"/>
<path d="M6.37387 23.0673C6.59383 24.6546 7.56546 25.6163 8.51608 25.771H8.51719C8.86649 25.8926 9.21689 25.9313 9.5275 25.8993C10.6307 25.7887 11.3845 24.2788 11.2088 22.5268C11.0341 20.7736 9.99618 19.4428 8.89302 19.5533C8.58683 19.5842 8.26516 19.7268 7.92471 19.8882C6.76296 20.4409 6.16495 21.5595 6.37276 23.0662L6.37387 23.0673Z" fill="#0078B8"/>
<path d="M23.1025 23.9425C23.1025 23.9425 24.1792 23.4595 25.1199 23.5556C25.1199 23.5556 25.3498 24.8633 24.3185 24.9374C23.1213 25.0225 23.1025 23.9425 23.1025 23.9425Z" fill="url(#paint8_linear_6403_25978)"/>
<path d="M13.4869 9.44504C13.4924 9.66612 13.3398 11.7431 13.3398 11.7431C13.3398 11.7431 16.8063 12.9071 19.7842 12.2859C22.5852 11.7011 23.4573 10.4598 23.4573 10.4598L22.8306 8.12523C22.8306 8.12523 21.261 7.05522 17.3866 7.69744C13.5123 8.33967 13.488 9.44504 13.488 9.44504H13.4869Z" fill="#303051"/>
<path d="M11.3059 9.98314L11.1423 9.38734C11.1423 9.38734 17.5115 7.90835 17.6154 7.90614C17.7304 7.90393 25.3066 7.4043 25.3066 7.4043L25.3188 7.92935L19.3807 9.89029L11.3059 9.98314Z" fill="#303051"/>
<path d="M11.1423 9.3874C11.1423 9.3874 17.454 7.38446 17.6033 7.38115C17.7525 7.37783 25.3066 7.40436 25.3066 7.40436L19.3685 9.3653L11.1423 9.38851V9.3874Z" fill="#3C3C68"/>
<path d="M11.3062 9.98242C11.3062 9.98242 11.808 13.0388 11.5173 14.8151" stroke="#3C3C68" stroke-width="0.110538" stroke-miterlimit="10"/>
<path d="M10.7832 16.1586C10.7832 16.1586 10.7976 13.8738 11.6598 13.7799C12.522 13.6859 12.1815 16.2371 12.1815 16.2371L10.7832 16.1586Z" fill="#3C3C68"/>
<path d="M30.7298 28.6438C30.7298 28.0634 30.6469 25.0789 31.3377 25.0513C32.0286 25.0237 32.0839 26.129 32.1944 28.5609C32.1944 28.5609 32.8853 27.87 33.1616 29.0859C33.1616 29.0859 33.8668 28.8372 34.0039 29.832C34.0039 29.832 34.4626 30.1426 34.1277 31.0203C33.6856 32.181 33.0135 33.0929 31.4284 32.8718C28.8772 32.8398 28.9048 30.44 29.0153 29.8044C29.1259 29.1688 30.2755 28.5465 30.7287 28.6438H30.7298Z" fill="#0078B8"/>
<path d="M33.134 29.1406C33.134 29.1406 31.5997 30.6749 31.9866 31.1303C31.9866 31.1303 32.442 31.5448 32.7394 31.2751" stroke="#0F4F72" stroke-width="0.110538" stroke-linecap="round" stroke-linejoin="round"/>
<path d="M34.0049 29.832C34.0049 29.832 32.4574 30.9374 32.789 31.3663C33.1206 31.7952 33.4942 31.5454 33.8115 31.2005" stroke="#0F4F72" stroke-width="0.110538" stroke-linecap="round" stroke-linejoin="round"/>
<path d="M30.785 28.6719C30.785 28.6719 32.0562 29.1417 31.9456 29.764C31.8218 30.0536 31.1442 30.289 30.3152 30.0403C30.481 30.2747 30.3837 30.9114 30.3837 30.9114" stroke="#0F4F72" stroke-width="0.110538" stroke-linecap="round" stroke-linejoin="round"/>
<path d="M32.1943 28.5605C32.1943 28.5605 31.8307 28.911 31.7334 29.2149" stroke="#0F4F72" stroke-width="0.110538" stroke-linecap="round" stroke-linejoin="round"/>
<path d="M31.2416 30.1914C31.2416 30.1914 31.214 30.9784 31.9325 31.0204" stroke="#0F4F72" stroke-width="0.110538" stroke-linecap="round" stroke-linejoin="round"/>
<path d="M27.6069 34.0567C27.6622 33.8356 28.0115 32.213 28.3619 31.6426" stroke="#417794" stroke-width="0.110538" stroke-linecap="round" stroke-linejoin="round"/>
</g>
</g>
<defs>
<radialGradient id="paint0_radial_6403_25978" cx="0" cy="0" r="1" gradientUnits="userSpaceOnUse" gradientTransform="translate(29.0706 33.6325) rotate(90.3933) scale(2.2784 3.24956)">
<stop offset="0.653021" stop-color="white"/>
<stop offset="1" stop-color="#ECF3F8"/>
</radialGradient>
<radialGradient id="paint1_radial_6403_25978" cx="0" cy="0" r="1" gradientUnits="userSpaceOnUse" gradientTransform="translate(21.7155 42.1718) rotate(96.5273) scale(3.3654 2.36401)">
<stop offset="0.598774" stop-color="white"/>
<stop offset="1" stop-color="#ECF3F8"/>
</radialGradient>
<radialGradient id="paint2_radial_6403_25978" cx="0" cy="0" r="1" gradientUnits="userSpaceOnUse" gradientTransform="translate(18.0169 42.9732) rotate(110.898) scale(3.25383 2.33564)">
<stop offset="0.608371" stop-color="white"/>
<stop offset="1" stop-color="#ECF3F8"/>
</radialGradient>
<radialGradient id="paint3_radial_6403_25978" cx="0" cy="0" r="1" gradientUnits="userSpaceOnUse" gradientTransform="translate(20.1107 35.0926) rotate(90) scale(5.84843 5.96619)">
<stop offset="0.751143" stop-color="white"/>
<stop offset="1" stop-color="#ECF3F8"/>
</radialGradient>
<radialGradient id="paint4_radial_6403_25978" cx="0" cy="0" r="1" gradientUnits="userSpaceOnUse" gradientTransform="translate(14.3692 35.292) rotate(108.435) scale(4.19461 3.13849)">
<stop offset="0.75451" stop-color="white"/>
<stop offset="1" stop-color="#ECF3F8"/>
</radialGradient>
<radialGradient id="paint5_radial_6403_25978" cx="0" cy="0" r="1" gradientUnits="userSpaceOnUse" gradientTransform="translate(21.4435 21.529) rotate(99.0018) scale(11.3035 14.2292)">
<stop offset="0.747899" stop-color="white"/>
<stop offset="1" stop-color="#ECF3F8"/>
</radialGradient>
<linearGradient id="paint6_linear_6403_25978" x1="26.9153" y1="22.7702" x2="26.2627" y2="17.6485" gradientUnits="userSpaceOnUse">
<stop stop-color="white"/>
<stop offset="1" stop-color="#66FFFF"/>
</linearGradient>
<linearGradient id="paint7_linear_6403_25978" x1="19.449" y1="23.9883" x2="18.8209" y2="19.0592" gradientUnits="userSpaceOnUse">
<stop stop-color="white"/>
<stop offset="1" stop-color="#66FFFF"/>
</linearGradient>
<linearGradient id="paint8_linear_6403_25978" x1="24.1217" y1="23.2461" x2="24.1217" y2="26.192" gradientUnits="userSpaceOnUse">
<stop stop-color="#66FFFF"/>
<stop offset="1" stop-color="white"/>
</linearGradient>
<clipPath id="clip0_6403_25978">
<rect width="40" height="40" rx="20" fill="white"/>
</clipPath>
<clipPath id="clip1_6403_25978">
<rect width="40" height="40" fill="white"/>
</clipPath>
</defs>
</svg>
