<svg width="20" height="20" viewBox="0 0 20 20" fill="none" xmlns="http://www.w3.org/2000/svg">
<path d="M2.82129 11.0075C2.82129 12.0697 2.27856 12.9311 1.60915 12.9311C0.939741 12.9311 0.397678 12.0697 0.397678 11.0075C0.397678 9.94542 0.940408 9.08398 1.60982 9.08398C2.27923 9.08398 2.82196 9.94542 2.82196 11.0075H2.82129Z" fill="#0078B8"/>
<path d="M17.1642 11.0075C17.1642 12.0697 17.7069 12.9311 18.3763 12.9311C19.0457 12.9311 19.5885 12.0697 19.5885 11.0075C19.5885 9.94542 19.0457 9.08398 18.3763 9.08398C17.7069 9.08398 17.1642 9.94542 17.1642 11.0075Z" fill="#0078B8"/>
<path d="M17.6615 14.5487C16.8108 15.96 14.0986 17.6301 9.9927 17.6301C5.88683 17.6301 3.17455 15.96 2.32389 14.5487C1.89933 13.8443 1.51546 12.3937 1.54805 10.8192C1.58055 9.24872 2.02607 7.6127 3.19385 6.49758C5.44677 4.34687 8.74512 4.3769 9.82667 4.38675C9.88977 4.38733 9.94533 4.38783 9.9927 4.38783C10.0401 4.38783 10.0956 4.38733 10.1587 4.38675C11.2404 4.3769 14.5392 4.34687 16.7915 6.49756C17.9593 7.61268 18.4048 9.24871 18.4373 10.8192C18.4699 12.3937 18.0861 13.8443 17.6615 14.5487Z" fill="white" stroke="#0078B8" stroke-width="0.5"/>
<path d="M13.2619 6.91602H6.6351C5.65266 6.91602 4.85623 7.71244 4.85623 8.69489V13.3201C4.85623 14.3025 5.65266 15.099 6.6351 15.099H13.2619C14.2443 15.099 15.0407 14.3025 15.0407 13.3201V8.69489C15.0407 7.71244 14.2443 6.91602 13.2619 6.91602Z" fill="#0078B8"/>
<path d="M6.83498 7.25H13.4618C14.2965 7.25 14.9739 7.92741 14.9739 8.76218V13.3874C14.9739 14.2221 14.2965 14.8996 13.4618 14.8996H6.83498C6.00022 14.8996 5.32281 14.2221 5.32281 13.3874V8.76218C5.32281 7.92741 6.00022 7.25 6.83498 7.25Z" fill="#0078B8"/>
<path d="M8.85438 11.0086C8.85438 11.942 8.39633 12.6988 7.8316 12.6988C7.26686 12.6988 6.80881 11.942 6.80881 11.0086C6.80881 10.0751 7.26686 9.31836 7.8316 9.31836C8.39633 9.31836 8.85438 10.0751 8.85438 11.0086Z" fill="url(#paint0_linear_6632_23580)"/>
<path d="M13.0883 11.0086C13.0883 11.942 12.6303 12.6988 12.0655 12.6988C11.5008 12.6988 11.0428 11.942 11.0428 11.0086C11.0428 10.0751 11.5008 9.31836 12.0655 9.31836C12.6303 9.31836 13.0883 10.0751 13.0883 11.0086Z" fill="url(#paint1_linear_6632_23580)"/>
<path d="M9.40601 12.8123C9.40601 12.8123 9.98224 12.7556 10.5376 12.8123C10.5376 12.8123 10.6126 13.2989 10.0038 13.3426C9.29703 13.3928 9.40601 12.8123 9.40601 12.8123Z" fill="url(#paint2_linear_6632_23580)"/>
<path d="M9.40601 12.8123C9.40601 12.8123 9.98224 12.7556 10.5376 12.8123C10.5376 12.8123 10.6126 13.2989 10.0038 13.3426C9.29703 13.3928 9.40601 12.8123 9.40601 12.8123Z" fill="white"/>
<path d="M4.16031 11.5136C4.06563 11.2095 4.02562 10.8842 4.05096 10.5508" stroke="white" stroke-width="0.400047" stroke-linecap="round" stroke-linejoin="round"/>
<path d="M7.09921 2.83594L6.59915 4.69149C6.59915 4.69149 8.27134 5.61359 9.98288 5.61359C11.6944 5.61359 13.3666 4.69149 13.3666 4.69149L12.8665 2.83594H7.09921Z" fill="#0078B8"/>
<path d="M9.94321 1.75781L6.20944 2.41322V2.77993L9.94321 3.48201L13.677 2.77993V2.41322L9.94321 1.75781Z" fill="#0078B8"/>
<path d="M9.94321 1.39062L6.20944 2.41274L9.94321 3.11483L13.677 2.41274L9.94321 1.39062Z" fill="#0078B8"/>
<path d="M6.27045 2.74219C6.27045 2.74219 5.39369 4.39705 4.57626 5.1178" stroke="#0078B8" stroke-width="0.2" stroke-miterlimit="10"/>
<path d="M3.68815 5.45129C3.68815 5.45129 4.54892 4.37449 5.03831 4.6852C5.5277 4.9959 4.39557 6.06403 4.39557 6.06403L3.68815 5.45129Z" fill="#0078B8"/>
<defs>
<linearGradient id="paint0_linear_6632_23580" x1="7.81806" y1="12.5915" x2="7.84551" y2="9.56726" gradientUnits="userSpaceOnUse">
<stop stop-color="white"/>
<stop offset="1" stop-color="#66FFFF"/>
</linearGradient>
<linearGradient id="paint1_linear_6632_23580" x1="12.052" y1="12.5915" x2="12.0795" y2="9.56726" gradientUnits="userSpaceOnUse">
<stop stop-color="white"/>
<stop offset="1" stop-color="#66FFFF"/>
</linearGradient>
<linearGradient id="paint2_linear_6632_23580" x1="9.96984" y1="12.6688" x2="9.96984" y2="13.8441" gradientUnits="userSpaceOnUse">
<stop stop-color="#66FFFF"/>
<stop offset="1" stop-color="white"/>
</linearGradient>
</defs>
</svg>
