<svg width="20" height="20" viewBox="0 0 20 20" fill="none" xmlns="http://www.w3.org/2000/svg">
<path d="M11.8485 8.60938V7.28125C12.2652 7.09896 12.6913 6.96224 13.1269 6.87109C13.5625 6.77995 14.0202 6.73438 14.5 6.73438C14.8283 6.73438 15.1503 6.76042 15.4659 6.8125C15.7816 6.86458 16.0909 6.92969 16.3939 7.00781V8.25781C16.0909 8.14062 15.7847 8.05273 15.4754 7.99414C15.166 7.93555 14.8409 7.90625 14.5 7.90625C14.0202 7.90625 13.5593 7.9681 13.1174 8.0918C12.6755 8.21549 12.2525 8.38802 11.8485 8.60938ZM11.8485 12.9062V11.5781C12.2652 11.3958 12.6913 11.2591 13.1269 11.168C13.5625 11.0768 14.0202 11.0312 14.5 11.0312C14.8283 11.0312 15.1503 11.0573 15.4659 11.1094C15.7816 11.1615 16.0909 11.2266 16.3939 11.3047V12.5547C16.0909 12.4375 15.7847 12.3496 15.4754 12.291C15.166 12.2324 14.8409 12.2031 14.5 12.2031C14.0202 12.2031 13.5593 12.2617 13.1174 12.3789C12.6755 12.4961 12.2525 12.6719 11.8485 12.9062ZM11.8485 10.7578V9.42969C12.2652 9.2474 12.6913 9.11068 13.1269 9.01953C13.5625 8.92839 14.0202 8.88281 14.5 8.88281C14.8283 8.88281 15.1503 8.90885 15.4659 8.96094C15.7816 9.01302 16.0909 9.07812 16.3939 9.15625V10.4062C16.0909 10.2891 15.7847 10.2012 15.4754 10.1426C15.166 10.084 14.8409 10.0547 14.5 10.0547C14.0202 10.0547 13.5593 10.1165 13.1174 10.2402C12.6755 10.3639 12.2525 10.5365 11.8485 10.7578ZM11.0909 14.1953C11.6465 13.9219 12.2052 13.7168 12.767 13.5801C13.3289 13.4434 13.9066 13.375 14.5 13.375C14.9545 13.375 15.3996 13.4141 15.8352 13.4922C16.2708 13.5703 16.7096 13.6875 17.1515 13.8438V6.10938C16.7348 5.92708 16.3024 5.79036 15.8542 5.69922C15.4059 5.60807 14.9545 5.5625 14.5 5.5625C13.9066 5.5625 13.3194 5.64062 12.7386 5.79688C12.1578 5.95312 11.6086 6.1875 11.0909 6.5V14.1953ZM10.3333 16.5C9.72727 16.0052 9.07071 15.6211 8.36364 15.3477C7.65657 15.0742 6.92424 14.9375 6.16667 14.9375C5.63636 14.9375 5.11553 15.0091 4.60417 15.1523C4.0928 15.2956 3.60354 15.4974 3.13636 15.7578C2.87121 15.901 2.61553 15.8945 2.36932 15.7383C2.12311 15.582 2 15.3542 2 15.0547V5.64062C2 5.4974 2.03472 5.36068 2.10417 5.23047C2.17361 5.10026 2.27778 5.0026 2.41667 4.9375C3.0101 4.63802 3.61932 4.4069 4.24432 4.24414C4.86932 4.08138 5.5101 4 6.16667 4C6.89899 4 7.61553 4.09766 8.31629 4.29297C9.01705 4.48828 9.68939 4.78125 10.3333 5.17188C10.9773 4.78125 11.6496 4.48828 12.3504 4.29297C13.0511 4.09766 13.7677 4 14.5 4C15.1566 4 15.7973 4.08138 16.4223 4.24414C17.0473 4.4069 17.6566 4.63802 18.25 4.9375C18.3889 5.0026 18.4931 5.10026 18.5625 5.23047C18.6319 5.36068 18.6667 5.4974 18.6667 5.64062V15.0547C18.6667 15.3542 18.5436 15.582 18.2973 15.7383C18.0511 15.8945 17.7955 15.901 17.5303 15.7578C17.0631 15.4974 16.5739 15.2956 16.0625 15.1523C15.5511 15.0091 15.0303 14.9375 14.5 14.9375C13.7424 14.9375 13.0101 15.0742 12.303 15.3477C11.596 15.6211 10.9394 16.0052 10.3333 16.5Z" fill="#C8C8C8"/>
</svg>
