<svg width="16" height="16" viewBox="0 0 16 16" fill="none" xmlns="http://www.w3.org/2000/svg">
<path d="M11.605 5.69026L11.8754 5.41992C12.3233 4.97201 13.0495 4.97201 13.4974 5.41992C13.9453 5.86783 13.9453 6.59405 13.4974 7.04196L13.2271 7.3123M11.605 5.69026C11.605 5.69026 11.6388 6.26473 12.1457 6.77162C12.6526 7.27851 13.2271 7.3123 13.2271 7.3123M11.605 5.69026L9.11966 8.17562C8.95132 8.34396 8.86715 8.42813 8.79476 8.52094C8.70937 8.63041 8.63616 8.74887 8.57643 8.8742C8.5258 8.98045 8.48816 9.09337 8.41287 9.31922L8.17184 10.0423L8.09386 10.2763M13.2271 7.3123L10.7417 9.79766C10.5734 9.966 10.4892 10.0502 10.3964 10.1226C10.2869 10.2079 10.1685 10.2812 10.0431 10.3409C9.93687 10.3915 9.82394 10.4292 9.59809 10.5044L8.875 10.7455L8.64106 10.8235M8.64106 10.8235L8.40712 10.9014C8.29598 10.9385 8.17344 10.9096 8.0906 10.8267C8.00776 10.7439 7.97883 10.6213 8.01588 10.5102L8.09386 10.2763M8.64106 10.8235L8.09386 10.2763" stroke="white"/>
<path d="M5.6665 8.58398H7.12484" stroke="white" stroke-linecap="round"/>
<path d="M5.6665 6.25H9.45817" stroke="white" stroke-linecap="round"/>
<path d="M5.6665 10.916H6.5415" stroke="white" stroke-linecap="round"/>
<path d="M12.5666 2.84943C11.8832 2.16602 10.7832 2.16602 8.58333 2.16602H7.41667C5.21678 2.16602 4.11684 2.16602 3.43342 2.84943C2.75 3.53285 2.75 4.63279 2.75 6.83268V9.16602C2.75 11.3659 2.75 12.4658 3.43342 13.1493C4.11684 13.8327 5.21678 13.8327 7.41667 13.8327H8.58333C10.7832 13.8327 11.8832 13.8327 12.5666 13.1493C13.1167 12.5991 13.224 11.7791 13.2449 10.3327" stroke="white" stroke-linecap="round"/>
</svg>
