<svg width="16" height="17" viewBox="0 0 16 17" fill="none" xmlns="http://www.w3.org/2000/svg">
<rect width="16" height="16" transform="matrix(-1 0 0 1 16 0.5)" fill="white"/>
<path fill-rule="evenodd" clip-rule="evenodd" d="M5.59451 10.1921L2 6.34582L5.59451 2.49951L6.36101 3.3197L4.08289 5.75741H9.60087C10.8145 5.75741 11.8475 6.17698 12.7125 7.01599C13.573 7.85069 14 8.88254 14 10.1285C14 11.3744 13.573 12.4062 12.7125 13.2409C11.8475 14.0799 10.8145 14.4995 9.60087 14.4995H4.25906V13.3227H9.60087C10.4804 13.3227 11.2522 13.022 11.905 12.4211C12.5645 11.814 12.9002 11.0444 12.9002 10.1285C12.9002 9.21255 12.5645 8.44289 11.905 7.83581C11.2522 7.23491 10.4804 6.93423 9.60087 6.93423H4.08289L6.36101 9.37193L5.59451 10.1921Z" fill="#555555"/>
</svg>
