<svg width="20" height="20" viewBox="0 0 20 20" fill="none" xmlns="http://www.w3.org/2000/svg">
<path fill-rule="evenodd" clip-rule="evenodd" d="M9.99451 18.75C13.8853 18.75 17.183 16.2105 18.3205 12.6986C18.7474 12.6109 19.1385 12.3947 19.4335 12.0686C20.0506 11.4118 20.0227 10.5787 19.9803 9.31216L19.9795 9.28835V9.27786C19.9367 8.02936 19.9046 7.16905 19.2301 6.51857C18.8323 6.12876 18.1934 5.92617 17.687 5.82655C16.2048 3.10042 13.3158 1.25 9.99451 1.25C6.68305 1.25 3.80124 3.08953 2.31519 5.80246C1.80712 5.90132 1.16194 6.10401 0.761306 6.49659C0.0974945 7.16806 0.0653746 8.02837 0.022548 9.26638L0.0217512 9.29018C-0.0206524 10.5568 -0.0485404 11.3898 0.568587 12.0467C0.861947 12.371 1.24515 12.5917 1.6625 12.6798C2.79426 16.2014 6.09676 18.75 9.99451 18.75ZM4.23029 10.987C3.84485 7.51423 6.40374 4.45068 10.0012 4.45068H10.0226C13.6093 4.45068 16.1682 7.51423 15.7935 10.987C15.6543 12.2984 14.5194 13.3056 13.1703 13.3056H6.85342C5.49367 13.3056 4.36948 12.2984 4.23029 10.987ZM12.7721 7.70336C12.7507 7.70336 12.7293 7.70074 12.7079 7.69812C12.6864 7.69549 12.665 7.69287 12.6436 7.69287C12.2475 7.69287 11.9263 8.00762 11.9263 8.39581V9.49743C11.9263 9.88562 12.2475 10.2004 12.6436 10.2004C12.6864 10.2004 12.7293 10.2004 12.7721 10.1899C13.1147 10.1164 13.3717 9.82267 13.361 9.46595V8.42728C13.361 8.08106 13.1254 7.7768 12.7721 7.70336ZM7.22737 7.70336C7.2702 7.69287 7.31302 7.69287 7.35585 7.69287C7.752 7.69287 8.0732 8.00762 8.0732 8.39581V9.49743C8.0732 9.88562 7.752 10.2004 7.35585 10.2004C7.33444 10.2004 7.31302 10.1977 7.29161 10.1951C7.2702 10.1925 7.24878 10.1899 7.22737 10.1899C6.87405 10.1164 6.63851 9.81218 6.63851 9.46595V8.42728C6.6278 8.08106 6.88476 7.7768 7.22737 7.70336Z" fill="url(#paint0_linear_3413_25398)"/>
<defs>
<linearGradient id="paint0_linear_3413_25398" x1="0.625" y1="9.375" x2="20" y2="9.375" gradientUnits="userSpaceOnUse">
<stop stop-color="#2F78F8"/>
<stop offset="0.535" stop-color="#6A31F8"/>
<stop offset="1" stop-color="#3077F8"/>
</linearGradient>
</defs>
</svg>
