<svg width="16" height="17" viewBox="0 0 16 17" fill="none" xmlns="http://www.w3.org/2000/svg">
<rect width="16" height="16" transform="translate(0 0.5)" fill="white"/>
<path fill-rule="evenodd" clip-rule="evenodd" d="M10.4055 10.1921L14 6.34582L10.4055 2.49951L9.63899 3.3197L11.9171 5.75741H6.39913C5.18546 5.75741 4.15251 6.17698 3.28752 7.01599C2.42698 7.85069 2 8.88254 2 10.1285C2 11.3744 2.42698 12.4062 3.28752 13.2409C4.15251 14.0799 5.18546 14.4995 6.39913 14.4995H11.7409V13.3227H6.39913C5.51957 13.3227 4.74779 13.022 4.09498 12.4211C3.43546 11.814 3.09978 11.0444 3.09978 10.1285C3.09978 9.21255 3.43546 8.44289 4.09498 7.83581C4.74779 7.23491 5.51957 6.93423 6.39913 6.93423H11.9171L9.63899 9.37193L10.4055 10.1921Z" fill="#555555"/>
</svg>
