<svg width="16" height="16" viewBox="0 0 16 16" fill="none" xmlns="http://www.w3.org/2000/svg">
<path d="M7.9502 14.85C4.4627 14.85 0.700195 12.6625 0.700195 7.8625C0.700195 3.0625 4.4627 0.875 7.9502 0.875C9.8877 0.875 11.6752 1.5125 13.0002 2.675C14.4377 3.95 15.2002 5.75 15.2002 7.8625C15.2002 9.975 14.4377 11.7625 13.0002 13.0375C11.6752 14.2 9.8752 14.85 7.9502 14.85Z" fill="url(#paint0_radial_1982_39141)"/>
<path d="M13.9365 3.70898C14.6027 4.78398 14.9502 6.06398 14.9502 7.48773C14.9502 9.60023 14.1877 11.3877 12.7502 12.6627C11.4252 13.8252 9.62523 14.4752 7.70023 14.4752C5.44273 14.4752 3.07523 13.5565 1.67773 11.6077C3.02273 13.8152 5.55273 14.8502 7.95023 14.8502C9.87523 14.8502 11.6752 14.2002 13.0002 13.0377C14.4377 11.7627 15.2002 9.97523 15.2002 7.86273C15.2002 6.27023 14.7665 4.85523 13.9365 3.70898Z" fill="#E38A00"/>
<path d="M10.4874 11.3376C10.4387 11.3363 10.3924 11.3238 10.3499 11.3001C9.63368 10.8951 8.82243 10.6876 7.99993 10.7001C7.17743 10.6938 6.36868 10.9001 5.64993 11.3001C5.61243 11.3238 5.56868 11.3363 5.52493 11.3376C5.42493 11.3338 5.33368 11.2763 5.28743 11.1876C5.24868 11.0963 5.26368 10.9901 5.32493 10.9126C6.61993 9.43508 8.86743 9.28758 10.3449 10.5826C10.4624 10.6851 10.5724 10.7951 10.6749 10.9126C10.7674 11.0226 10.7524 11.1851 10.6437 11.2776C10.5999 11.3138 10.5449 11.3351 10.4874 11.3376Z" fill="#35220B"/>
<path d="M9.23786 6.26287C9.24786 6.26412 9.25661 6.26787 9.26286 6.27537C9.27661 6.27662 9.28661 6.28662 9.28786 6.30037C9.30036 6.30037 9.30036 6.30037 9.31286 6.31287C9.34161 6.32787 9.37036 6.34037 9.40036 6.35037L9.51286 6.38787C9.61536 6.42162 9.71911 6.44662 9.82536 6.46287C9.88786 6.47537 9.95036 6.47537 10.0129 6.48787C10.0791 6.49787 10.1454 6.50287 10.2129 6.50037H10.4129C10.4766 6.49787 10.5391 6.49037 10.6004 6.47537C10.7254 6.45037 10.8254 6.42537 10.9129 6.40037C11.0004 6.37537 11.0629 6.33787 11.1129 6.32537C11.1404 6.31912 11.1666 6.30662 11.1879 6.28787L11.2504 6.26287C11.4304 6.16912 11.6516 6.23662 11.7504 6.41287C11.8216 6.54537 11.8066 6.70787 11.7129 6.82537C11.7029 6.83662 11.6941 6.84912 11.6879 6.86287C11.6666 6.89537 11.6416 6.92537 11.6129 6.95037C11.5179 7.04537 11.4129 7.12912 11.3004 7.20037C11.1454 7.26662 10.9866 7.32537 10.8254 7.37537C10.7304 7.40162 10.6354 7.42287 10.5379 7.43787C10.4879 7.43787 10.4379 7.45037 10.3754 7.45037H10.2254C10.1254 7.44787 10.0254 7.44037 9.92536 7.42537C9.82786 7.41162 9.73161 7.39037 9.63786 7.36287C9.46536 7.31787 9.30161 7.24537 9.15036 7.15037C9.07536 7.11287 9.02536 7.06287 8.96286 7.02537C8.91411 6.98662 8.86786 6.94537 8.82536 6.90037L8.77536 6.85037C8.76286 6.83787 8.76286 6.82537 8.75036 6.82537L8.72536 6.80037C8.60161 6.63412 8.63411 6.39912 8.80036 6.27537C8.93286 6.19037 9.10161 6.18537 9.23786 6.26287Z" fill="#35220B"/>
<path d="M4.63766 6.26239C4.64766 6.26364 4.65641 6.26739 4.66266 6.27489C4.67641 6.27614 4.68641 6.28614 4.68766 6.29989C4.70016 6.29989 4.70016 6.29989 4.71266 6.31239C4.74141 6.32739 4.77016 6.33989 4.80016 6.34989L4.91266 6.38739C5.01516 6.42114 5.11891 6.44614 5.22516 6.46239C5.28766 6.47489 5.35016 6.47489 5.41266 6.48739C5.47891 6.49864 5.54516 6.50239 5.61266 6.49989H5.81266C5.87641 6.49739 5.93891 6.48989 6.00016 6.47489C6.12516 6.44989 6.22516 6.42489 6.31266 6.39989C6.40016 6.37489 6.46266 6.33739 6.51266 6.32489C6.54016 6.31864 6.56641 6.30614 6.58766 6.28739L6.65016 6.26239C6.83016 6.16864 7.05141 6.23614 7.15016 6.41239C7.22141 6.54489 7.20641 6.70739 7.11266 6.82489C7.10266 6.83614 7.09391 6.84864 7.08766 6.86239C7.06641 6.89489 7.04141 6.92489 7.01266 6.94989C6.92016 7.04739 6.81516 7.13114 6.70016 7.19989C6.54516 7.29489 6.37641 7.36739 6.20016 7.41239C6.10516 7.43864 6.01016 7.45989 5.91266 7.47489C5.86266 7.47489 5.81266 7.48739 5.75016 7.48739H5.60016C5.50016 7.48489 5.40016 7.47739 5.30016 7.46239C5.20266 7.44864 5.10641 7.42739 5.01266 7.39989C4.83766 7.35239 4.66891 7.28114 4.51266 7.18739C4.45016 7.14989 4.38766 7.09989 4.32516 7.06239C4.27641 7.02364 4.23016 6.98239 4.18766 6.93739L4.13766 6.88739C4.12516 6.87489 4.12516 6.86239 4.11266 6.86239L4.08766 6.83739C3.96391 6.67114 3.99641 6.43614 4.16266 6.31239C4.29516 6.19989 4.48391 6.17989 4.63766 6.26239Z" fill="#35220B"/>
<path d="M9.44029 4.73626L9.42779 4.75126C9.24529 5.00126 8.83029 4.81626 8.97404 4.50126C9.09529 4.25001 9.25404 4.01876 9.44404 3.81501C9.95279 3.26251 10.654 2.92626 11.4028 2.87501C11.5453 2.86251 11.6715 2.97001 11.684 3.11251C11.6953 3.24876 11.599 3.37126 11.4628 3.39126C10.6565 3.59876 9.94279 4.07251 9.44029 4.73626Z" fill="#422B0D"/>
<path d="M6.8027 4.86148L6.81395 4.87648C6.9977 5.12648 7.4127 4.94148 7.26895 4.62648C7.1477 4.37523 6.9877 4.14398 6.7977 3.94023C6.28895 3.38773 5.58895 3.05148 4.8402 3.00023C4.6977 2.98648 4.5702 3.09148 4.55645 3.23398C4.5427 3.37273 4.64145 3.49648 4.77895 3.51648C5.58645 3.72398 6.29895 4.19773 6.8027 4.86148Z" fill="#422B0D"/>
<path d="M0.721279 11.5002C0.821279 11.3802 0.836279 11.2115 0.758779 11.0752C0.588779 10.7852 0.540029 10.439 0.625029 10.1127C0.758779 9.55648 1.24128 9.15523 1.81253 9.12523H1.88753C2.10128 9.12648 2.31128 9.18023 2.50003 9.28148C2.70003 9.39648 2.87753 9.55023 3.02003 9.73148C3.46003 9.54898 5.33253 8.85648 5.81628 8.67773H5.82378L4.54128 11.3965C5.12128 11.8252 5.24378 12.644 4.81503 13.224C4.58628 13.534 4.23128 13.7265 3.84628 13.7502H3.77003C3.46503 13.7527 3.16878 13.6465 2.93378 13.4502C2.86378 13.3927 2.77503 13.3615 2.68378 13.3627C2.60878 13.364 2.53503 13.3852 2.47128 13.4252C2.25253 13.5702 1.99503 13.649 1.73253 13.6502C1.63128 13.6502 1.53128 13.6377 1.43378 13.6127C0.870029 13.4852 0.458779 13.0015 0.420029 12.4252C0.395029 12.089 0.503779 11.7565 0.721279 11.5002Z" fill="white"/>
<path d="M5.81996 8.6748L3.89746 11.2111L4.54121 11.3961L5.81996 8.6748Z" fill="#92CBEB"/>
<path d="M3.95628 11.1677C3.90878 11.1702 3.87253 11.209 3.87503 11.2565C3.87628 11.2877 3.89503 11.3152 3.92253 11.329C4.18003 11.4415 4.36628 11.6715 4.42253 11.9465C4.47503 12.2365 4.39753 12.6115 4.17253 12.8215C3.94753 13.0315 3.57503 13.0715 3.28878 12.9965C3.00253 12.9215 2.66378 12.6215 2.44253 12.3977C2.40503 12.359 2.34253 12.3577 2.30253 12.3952C2.28628 12.4102 2.27628 12.4302 2.27378 12.4527C2.26128 12.5727 2.27128 12.694 2.30628 12.809C2.32378 12.9227 1.74253 13.3602 1.08378 13.0077C0.147529 12.5002 0.888779 11.4377 0.782529 11.3965C0.767529 11.434 0.747529 11.469 0.721279 11.5002C0.503779 11.7565 0.395029 12.089 0.420029 12.4252C0.458779 13.0015 0.870029 13.4852 1.43378 13.6127C1.53128 13.6377 1.63128 13.6502 1.73253 13.6502C1.99503 13.649 2.25253 13.5702 2.47128 13.4252C2.53503 13.3852 2.60878 13.364 2.68378 13.3627C2.77503 13.3615 2.86378 13.3927 2.93378 13.4502C3.16878 13.6465 3.46503 13.7527 3.77003 13.7502H3.84628C4.56628 13.7052 5.11378 13.0852 5.06753 12.3652C5.04378 11.9802 4.85003 11.6265 4.54128 11.3965L4.61753 11.2327C4.40253 11.1702 4.17878 11.149 3.95628 11.1677Z" fill="#92CBEB"/>
<path d="M0.625173 10.1123C0.541423 10.4385 0.591423 10.7848 0.762673 11.0748C0.815173 11.1735 0.823923 11.2898 0.786423 11.3948C0.943923 11.2773 1.05017 11.1035 1.08517 10.9098C1.09767 10.6985 1.07392 10.4873 1.01267 10.2848C0.956423 10.1135 0.966423 9.92852 1.04142 9.76477C1.17767 9.43852 1.58517 9.24852 1.62017 9.23477C1.70517 9.19977 1.72267 9.16102 1.71892 9.13477C1.18642 9.20102 0.750173 9.59102 0.625173 10.1123Z" fill="#92CBEB"/>
<path d="M15.2788 11.5002C15.1788 11.3802 15.1638 11.2115 15.2413 11.0752C15.4125 10.7852 15.4625 10.439 15.3788 10.1127C15.245 9.55648 14.7625 9.15523 14.1913 9.12523H14.1163C13.9013 9.12523 13.6888 9.17898 13.5 9.28148C13.3 9.39648 13.1225 9.55023 12.98 9.73148C12.54 9.54898 10.6675 8.85648 10.1838 8.67773H10.1763L11.4588 11.3965C10.8788 11.8252 10.7563 12.644 11.185 13.224C11.4138 13.534 11.7688 13.7265 12.1538 13.7502H12.23C12.535 13.7527 12.8313 13.6465 13.0663 13.4502C13.1363 13.3927 13.225 13.3615 13.3163 13.3627C13.3913 13.364 13.465 13.3852 13.5288 13.4252C13.7475 13.5702 14.005 13.649 14.2675 13.6502C14.3688 13.6502 14.4688 13.6377 14.5663 13.6127C15.13 13.4852 15.5413 13.0015 15.58 12.4252C15.605 12.089 15.4963 11.7565 15.2788 11.5002Z" fill="white"/>
<path d="M10.1802 8.6748L12.1014 11.2111L11.4589 11.3961L10.1802 8.6748Z" fill="#92CBEB"/>
<path d="M12.0436 11.1671C12.0911 11.1696 12.1274 11.2083 12.1249 11.2558C12.1236 11.2871 12.1049 11.3146 12.0774 11.3283C11.8199 11.4408 11.6336 11.6708 11.5774 11.9458C11.5249 12.2358 11.6024 12.6108 11.8274 12.8208C12.0524 13.0308 12.4249 13.0708 12.7111 12.9958C12.9974 12.9208 13.3361 12.6208 13.5574 12.3971C13.5949 12.3583 13.6574 12.3571 13.6974 12.3946C13.7136 12.4096 13.7236 12.4296 13.7261 12.4521C13.7386 12.5721 13.7286 12.6933 13.6936 12.8083C13.6761 12.9221 14.2574 13.3596 14.9161 13.0071C15.8549 12.5071 15.1136 11.4433 15.2199 11.4021C15.2349 11.4396 15.2549 11.4746 15.2811 11.5058C15.4986 11.7621 15.6074 12.0946 15.5824 12.4308C15.5436 13.0071 15.1324 13.4908 14.5686 13.6183C14.4711 13.6433 14.3711 13.6558 14.2699 13.6558C14.0074 13.6546 13.7499 13.5758 13.5311 13.4308C13.4674 13.3908 13.3936 13.3696 13.3186 13.3683C13.2274 13.3671 13.1386 13.3983 13.0686 13.4558C12.8336 13.6521 12.5374 13.7583 12.2324 13.7558H12.1561C11.4361 13.7108 10.8886 13.0908 10.9349 12.3708C10.9586 11.9858 11.1524 11.6321 11.4611 11.4021L11.3849 11.2383C11.5986 11.1746 11.8211 11.1508 12.0436 11.1671Z" fill="#92CBEB"/>
<path d="M15.375 10.1123C15.4587 10.4385 15.4087 10.7848 15.2375 11.0748C15.185 11.1735 15.1762 11.2898 15.2137 11.3948C15.0562 11.2773 14.95 11.1035 14.915 10.9098C14.9025 10.6985 14.9262 10.4873 14.9875 10.2848C15.0437 10.1135 15.0337 9.92852 14.9587 9.76477C14.8225 9.43852 14.415 9.24852 14.38 9.23477C14.295 9.19977 14.2775 9.16102 14.2812 9.13477C14.8137 9.20102 15.25 9.59102 15.375 10.1123Z" fill="#92CBEB"/>
<defs>
<radialGradient id="paint0_radial_1982_39141" cx="0" cy="0" r="1" gradientUnits="userSpaceOnUse" gradientTransform="translate(7.9502 7.8625) scale(7.11996)">
<stop stop-color="#FFDE1E"/>
<stop offset="0.53" stop-color="#FFDD16"/>
<stop offset="0.795" stop-color="#FEC114"/>
<stop offset="0.955" stop-color="#FEA311"/>
<stop offset="1" stop-color="#F49400"/>
</radialGradient>
</defs>
</svg>
