<svg width="24" height="24" viewBox="0 0 24 24" fill="none" xmlns="http://www.w3.org/2000/svg">
<path d="M21.6682 5.67798C21.4947 5.0601 21.2306 4.57376 20.8284 4.17157C19.6569 3 17.7712 3 14 3H10C6.22876 3 4.34315 3 3.17157 4.17157C2 5.34315 2 7.22876 2 11V13C2 16.7712 2 18.6569 3.17157 19.8284C3.6229 20.2798 4.18019 20.5572 4.91042 20.7278" stroke="#555555" stroke-width="1.5" stroke-linecap="round"/>
<path d="M9 15C9 12.1716 9 10.7574 9.87868 9.87868C10.7574 9 12.1716 9 15 9H16.5C19.3284 9 20.7426 9 21.6213 9.87868C22.5 10.7574 22.5 12.1716 22.5 15C22.5 17.8284 22.5 19.2426 21.6213 20.1213C20.7426 21 19.3284 21 16.5 21H15C12.1716 21 10.7574 21 9.87868 20.1213C9 19.2426 9 17.8284 9 15Z" stroke="#555555" stroke-width="1.5"/>
</svg>
