<svg width="16" height="14" viewBox="0 0 16 14" fill="none" xmlns="http://www.w3.org/2000/svg">
<g id="Vector">
<path d="M11.9107 2.91009C11.6667 3.15417 11.6667 3.54701 11.6667 4.33268V12.166C11.6667 12.9517 11.6667 13.3445 11.9107 13.5886C12.1548 13.8327 13.5477 13.8327 14.3333 13.8327C15.119 13.8327 15.5118 13.8327 15.7559 13.5886C16 13.3445 16 12.9517 16 12.166V4.33268C16 3.54701 16 3.15417 15.7559 2.91009C15.5118 2.66602 15.119 2.66602 14.3333 2.66602C13.5477 2.66602 12.1548 2.66602 11.9107 2.91009Z" fill="#555555"/>
<path d="M5.83333 1.83268C5.83333 1.04701 5.83333 0.654171 6.07741 0.410093C6.32149 0.166016 7.71433 0.166016 8.5 0.166016C9.28567 0.166016 9.67851 0.166016 9.92259 0.410093C10.1667 0.654171 10.1667 1.04701 10.1667 1.83268V12.166C10.1667 12.9517 10.1667 13.3445 9.92259 13.5886C9.67851 13.8327 9.28567 13.8327 8.5 13.8327C7.71433 13.8327 6.32149 13.8327 6.07741 13.5886C5.83333 13.3445 5.83333 12.9517 5.83333 12.166V1.83268Z" fill="#555555"/>
<path d="M0.244078 5.74343C-1.49012e-08 5.9875 0 6.38034 0 7.16602V12.166C0 12.9517 -1.49012e-08 13.3445 0.244078 13.5886C0.488155 13.8327 1.88099 13.8327 2.66667 13.8327C3.45234 13.8327 3.84518 13.8327 4.08926 13.5886C4.33333 13.3445 4.33333 12.9517 4.33333 12.166V7.16602C4.33333 6.38034 4.33333 5.9875 4.08926 5.74343C3.84518 5.49935 3.45234 5.49935 2.66667 5.49935C1.88099 5.49935 0.488155 5.49935 0.244078 5.74343Z" fill="#555555"/>
</g>
</svg>
