<svg width="16" height="16" viewBox="0 0 16 16" fill="none" xmlns="http://www.w3.org/2000/svg">
<g clip-path="url(#clip0_1982_39108)">
<path d="M7.9502 14.85C4.4627 14.85 0.700195 12.6625 0.700195 7.8625C0.700195 3.0625 4.4627 0.875 7.9502 0.875C9.8877 0.875 11.6752 1.5125 13.0002 2.675C14.4377 3.95 15.2002 5.75 15.2002 7.8625C15.2002 9.975 14.4377 11.7625 13.0002 13.0375C11.6752 14.2 9.8752 14.85 7.9502 14.85Z" fill="url(#paint0_radial_1982_39108)"/>
<path d="M7.9502 14.85C4.4627 14.85 0.700195 12.6625 0.700195 7.8625C0.700195 3.0625 4.4627 0.875 7.9502 0.875C9.8877 0.875 11.6752 1.5125 13.0002 2.675C14.4377 3.95 15.2002 5.75 15.2002 7.8625C15.2002 9.975 14.4377 11.7625 13.0002 13.0375C11.6752 14.2 9.8752 14.85 7.9502 14.85Z" fill="url(#paint1_radial_1982_39108)"/>
<path d="M13.9365 3.70898C14.6027 4.78398 14.9502 6.06398 14.9502 7.48773C14.9502 9.60023 14.1877 11.3877 12.7502 12.6627C11.4252 13.8252 9.62523 14.4752 7.70023 14.4752C5.44273 14.4752 3.07523 13.5565 1.67773 11.6077C3.02273 13.8152 5.55273 14.8502 7.95023 14.8502C9.87523 14.8502 11.6752 14.2002 13.0002 13.0377C14.4377 11.7627 15.2002 9.97523 15.2002 7.86273C15.2002 6.27023 14.7665 4.85523 13.9365 3.70898Z" fill="#E38A00"/>
<path d="M0.794638 9.38744C0.567138 9.66369 1.05089 10.3974 1.13714 10.7712C1.34464 11.6737 1.13714 11.8962 1.12089 12.6987C1.10714 13.5812 1.37089 14.3237 2.04339 14.7974C2.67589 15.2462 3.43839 15.4762 4.41339 15.1887C5.38839 14.9012 5.98089 14.5837 6.03089 14.1037C6.05839 13.9049 5.95339 13.7099 5.77089 13.6249C5.86839 13.5787 5.94589 13.4999 5.98964 13.4012C6.22214 12.8462 5.75839 12.7287 5.75839 12.7287C5.82214 12.6524 5.87589 12.5687 5.91839 12.4787C6.05714 12.2024 6.03464 11.8274 5.63464 11.7049C5.45089 11.6487 5.40089 11.6787 5.40089 11.6787C5.59089 11.4837 5.81839 11.3274 6.06964 11.2224C6.74214 10.9337 7.53964 10.7587 7.73839 10.5899C8.02714 10.3399 8.04464 9.85869 7.53464 9.71494C6.80214 9.49994 5.45464 9.99994 4.63464 10.5212C3.81464 11.0424 3.06214 11.3237 2.81214 11.2287C2.56214 11.1337 2.40714 10.9787 2.31214 10.6037C2.13589 9.90619 1.99964 9.63619 1.70089 9.37494C1.45339 9.16244 0.969638 9.17494 0.794638 9.38744Z" fill="url(#paint2_radial_1982_39108)"/>
<path d="M8.02352 10.0475C7.93977 8.90246 5.68477 9.60996 4.53352 10.3637C3.10227 11.3012 2.89227 11.135 2.75227 11.0475C2.58352 10.9425 2.47727 10.855 2.39477 10.53C2.20852 9.79496 2.15727 9.52496 1.82227 9.23246C1.54227 8.97371 0.698516 8.97996 0.642266 9.38996C0.581016 9.83121 0.831016 9.91371 0.999766 10.7625C1.20852 11.6225 1.12477 12.5725 1.12477 12.5725C1.12477 12.5725 1.51477 11.6662 1.13977 10.2537C1.06352 9.87246 0.701016 9.28871 1.31352 9.35496C1.90602 9.41871 1.94477 9.93496 2.12977 10.6487C2.23227 11.0525 2.33727 11.29 2.74477 11.4025C3.14977 11.5137 4.08602 10.9937 4.75852 10.5662C5.58227 10.0425 6.80352 9.58496 7.44477 9.77246C7.72227 9.83246 7.90727 10.1912 7.61602 10.445C7.15352 10.8812 5.37477 11.0775 4.30352 12.2362C4.30352 12.2362 4.43352 12.2837 4.62852 12.1875C4.82477 12.0912 5.55727 11.7287 5.55727 11.7287C5.77602 11.8212 5.88102 12.185 5.76227 12.3787C5.56977 12.6925 4.82102 13.1262 4.44727 13.1075C4.44727 13.1075 4.44102 13.2987 4.81602 13.2475C4.93477 13.2312 5.42602 13.1237 5.76977 12.8575C6.02602 13.0425 5.95352 13.3575 5.76102 13.585C5.56977 13.8112 5.10227 14.1037 4.62102 14.155C4.62102 14.155 4.57352 14.3375 4.89727 14.3337C5.22102 14.33 5.57227 14.165 5.83102 13.9637C5.86977 14.025 5.90602 14.1587 5.86227 14.3425C5.79477 14.6262 5.41352 14.9137 4.67727 15.0737C3.99852 15.2212 3.23352 15.325 1.75727 14.5587C1.75727 14.5587 2.30852 15.275 3.74727 15.4025C5.12727 15.525 6.73852 14.9137 6.09227 13.6875C6.09227 13.6875 6.23227 13.48 6.24977 13.195C6.26227 13 6.20102 12.7337 6.05727 12.6125C6.19227 12.215 6.14977 11.94 6.06352 11.7775C6.00602 11.67 5.86102 11.565 5.86102 11.565C5.86102 11.565 6.14727 11.3062 6.99102 11.0887C7.53227 10.9475 8.07477 10.7475 8.02352 10.0475Z" fill="#E38A00"/>
<path d="M2.32953 10.2666C2.32953 10.2666 2.93328 11.2491 4.26328 10.5366C4.26328 10.5366 3.44703 11.3929 2.81203 11.2291C2.17703 11.0654 2.32953 10.2666 2.32953 10.2666Z" fill="#E38A00"/>
<path d="M6.12459 11.9422C6.12459 11.9422 6.43209 11.2822 6.99209 11.0859C6.99209 11.0859 6.08209 11.1634 5.73584 11.5372L6.12459 11.9422Z" fill="#E38A00"/>
<path d="M9.60867 8.91393C9.56867 8.90643 9.53117 8.89018 9.49992 8.86393C8.93617 8.41143 8.26367 8.11643 7.54992 8.00643C6.83617 7.88268 6.10367 7.95018 5.42492 8.20143C5.38742 8.21643 5.34742 8.22143 5.30742 8.21518C5.21992 8.20018 5.14867 8.13518 5.12492 8.04893C5.10117 7.96393 5.12992 7.87393 5.19742 7.81768C6.52242 6.71768 8.48742 6.90018 9.58742 8.22518C9.67742 8.33393 9.75992 8.44893 9.83492 8.56768C9.88242 8.64143 9.88242 8.73643 9.83492 8.81018C9.78617 8.88643 9.69742 8.92643 9.60867 8.91393Z" fill="#422B0D"/>
<path d="M10.0962 3.88867C10.6199 3.88867 11.0962 4.33117 11.0962 5.06617C11.0962 5.80117 10.6199 6.24242 10.0962 6.24242C9.57244 6.24242 9.09619 5.79992 9.09619 5.06617C9.09619 4.33242 9.57244 3.88867 10.0962 3.88867Z" fill="#422B0D"/>
<path d="M5.76758 2.75C5.24383 2.75 4.76758 3.1925 4.76758 3.92625C4.76758 4.66 5.24383 5.10375 5.76758 5.10375C6.29258 5.10375 6.76758 4.66125 6.76758 3.92625C6.76758 3.19125 6.29258 2.75 5.76758 2.75Z" fill="#422B0D"/>
<path d="M4.96618 1.32873C4.90993 1.23623 4.90243 1.12123 4.94618 1.02248C4.99368 0.923728 5.08743 0.856228 5.19618 0.842478C5.87743 0.736228 6.57243 0.897478 7.13743 1.29123C7.34868 1.43623 7.53618 1.61123 7.69493 1.81248C7.70493 1.82498 7.71368 1.83873 7.72243 1.85373C7.80743 1.98623 7.77868 2.16123 7.65618 2.25998C7.52493 2.36873 7.33243 2.36498 7.20618 2.24998L7.25868 2.16498L7.19493 2.23998C6.64743 1.78248 5.96243 1.52123 5.24993 1.49998C5.13118 1.49998 5.02118 1.43748 4.96118 1.33498L4.96618 1.32873Z" fill="#422B0D"/>
<path d="M11.6248 3.56543C11.7173 3.51418 11.7798 3.42043 11.7923 3.31543C11.7998 3.20668 11.7536 3.10168 11.6673 3.03543C11.1261 2.60418 10.4386 2.39793 9.74985 2.46293C9.49485 2.48418 9.24485 2.54418 9.00735 2.64043L8.96235 2.66168C8.8236 2.73543 8.76235 2.90168 8.81985 3.04793C8.8811 3.20668 9.04735 3.29668 9.2136 3.26043V3.16043L9.2311 3.25793C9.9311 3.12793 10.6548 3.23668 11.2861 3.56668C11.3898 3.62543 11.5161 3.62543 11.6198 3.56668L11.6248 3.56543Z" fill="#422B0D"/>
<path d="M5.74503 3.14326C5.61628 3.05326 5.42253 3.08201 5.29753 3.26201C5.17253 3.44326 5.21378 3.63326 5.34253 3.72326C5.47128 3.81326 5.66503 3.78451 5.79003 3.60451C5.91503 3.42326 5.87378 3.23326 5.74503 3.14326Z" fill="#896024"/>
<path d="M10.0712 4.21358C9.94245 4.12358 9.7487 4.15233 9.6237 4.33233C9.4987 4.51358 9.53995 4.70358 9.6687 4.79358C9.79745 4.88358 9.9912 4.85483 10.1162 4.67483C10.2424 4.49358 10.2012 4.30358 10.0712 4.21358Z" fill="#896024"/>
</g>
<defs>
<radialGradient id="paint0_radial_1982_39108" cx="0" cy="0" r="1" gradientUnits="userSpaceOnUse" gradientTransform="translate(7.9502 7.8625) scale(7.11996)">
<stop stop-color="#FFDE1E"/>
<stop offset="0.53" stop-color="#FFDD16"/>
<stop offset="0.795" stop-color="#FEC114"/>
<stop offset="0.955" stop-color="#FEA311"/>
<stop offset="1" stop-color="#F49400"/>
</radialGradient>
<radialGradient id="paint1_radial_1982_39108" cx="0" cy="0" r="1" gradientUnits="userSpaceOnUse" gradientTransform="translate(7.9502 7.8625) scale(7.11996)">
<stop stop-color="#FFDE1E"/>
<stop offset="0.53" stop-color="#FFDD16"/>
<stop offset="0.795" stop-color="#FEC114"/>
<stop offset="0.955" stop-color="#FEA311"/>
<stop offset="1" stop-color="#F49400"/>
</radialGradient>
<radialGradient id="paint2_radial_1982_39108" cx="0" cy="0" r="1" gradientUnits="userSpaceOnUse" gradientTransform="translate(5.18089 10.4392) scale(7.42899 6.98325)">
<stop offset="0.27" stop-color="#FFF176"/>
<stop offset="1" stop-color="#FFC400"/>
</radialGradient>
<clipPath id="clip0_1982_39108">
<rect width="16" height="16" fill="white"/>
</clipPath>
</defs>
</svg>
