<svg width="16" height="20" viewBox="0 0 16 20" fill="none" xmlns="http://www.w3.org/2000/svg">
<path d="M7.91016 16.668C4.04297 16.668 0.878906 13.5215 0.878906 9.63672C0.878906 5.75195 4.04297 2.60547 7.91016 2.60547C11.7949 2.60547 14.959 5.75195 14.959 9.63672C14.959 13.5215 11.7949 16.668 7.91016 16.668ZM7.92773 12.8359C9.31641 12.8359 10.2656 11.9395 10.2656 10.6914C10.2656 9.51367 9.43945 8.66992 8.31445 8.66992C7.75195 8.66992 7.29492 8.89844 7.08398 9.19727H7.03125L7.17188 7.70312H9.91406V6.5957H6.08203L5.74805 10.1641H6.96094C7.13672 9.83008 7.45312 9.6543 7.91016 9.6543C8.52539 9.67188 8.98242 10.0938 8.98242 10.7266C8.98242 11.3418 8.54297 11.7812 7.92773 11.7812C7.40039 11.7812 6.97852 11.4648 6.96094 10.9902H5.64258C5.66016 12.0801 6.60938 12.8359 7.92773 12.8359Z" fill="black"/>
</svg>
