<svg width="16" height="16" viewBox="0 0 16 16" fill="none" xmlns="http://www.w3.org/2000/svg">
<path fill-rule="evenodd" clip-rule="evenodd" d="M8.43256 2H10.5209L2 10.519V8.43115L8.43256 2ZM2 11.7515L11.7537 2H12.9476C13.1969 2 13.4249 2.09121 13.6 2.24207L2.24234 13.5973C2.09131 13.4221 2 13.194 2 12.9446V11.7515ZM3.12774 13.9446H5.2162L13.9476 5.21505V3.12705L3.12774 13.9446ZM8.53948 13.9446H6.44901L13.9476 6.44759V8.53761L8.53948 13.9446ZM8.77207 14.9446H12.9476C14.0522 14.9446 14.9476 14.0492 14.9476 12.9446V5.44781L15 5.39547L14.9476 5.34312V3C14.9476 2.74093 14.8984 2.49336 14.8087 2.26616L14.9048 2.17012L14.5831 1.84849C14.221 1.33524 13.6235 1 12.9476 1H3C1.89543 1 1 1.89543 1 3V12.9446C1 14.0492 1.89543 14.9446 3 14.9446H8.65891L8.71549 15.0012L8.77207 14.9446ZM9.77229 13.9446L13.9476 9.77015V11.4687L11.4712 13.9446H9.77229ZM12.704 13.9446L13.9476 12.7012V12.9446C13.9476 13.4969 13.4999 13.9446 12.9476 13.9446H12.704ZM3.87703 2H3C2.44772 2 2 2.44772 2 3V3.87662L3.87703 2ZM2 5.10915L5.10984 2H7.19975L2 7.19861V5.10915Z" fill="#555555"/>
</svg>
