<svg width="100" height="100" viewBox="0 0 100 100" fill="none" xmlns="http://www.w3.org/2000/svg">
<path d="M86.5011 82.6773L83.4181 82.3633L80.8774 84.019L82.3904 85.9601L85.5591 86.16L87.5002 84.4472L86.5011 82.6773ZM84.303 85.0467C83.8177 85.0467 83.4181 84.8754 83.1326 84.647C83.3895 84.3615 83.8748 84.1617 84.4457 84.1617C84.931 84.1617 85.3307 84.333 85.6162 84.5614C85.3878 84.8468 84.8739 85.0467 84.303 85.0467Z" fill="#0078B8"/>
<path d="M80.8774 83.9902L81.1344 86.1312L82.4475 87.4444L82.3619 85.9314L80.8774 83.9902Z" fill="#00527D"/>
<path d="M82.4475 87.4446L85.559 87.6444L85.5305 86.1315L82.3618 85.9316L82.4475 87.4446Z" fill="#0D7AB5"/>
<path d="M87.4714 84.4189L87.3858 85.8748L85.5588 87.6447L85.5303 86.1317L87.4714 84.4189Z" fill="#1B97D9"/>
<path d="M85.8162 84.1333C85.8162 84.3046 85.7591 84.4473 85.6449 84.5615C85.388 84.3331 84.9598 84.1618 84.4745 84.1618C83.9036 84.1618 83.4183 84.3331 83.1614 84.6471C82.9616 84.4758 82.8474 84.276 82.8759 84.0477C82.8759 83.5338 83.561 83.1056 84.3889 83.1342C85.1596 83.1627 85.8162 83.5909 85.8162 84.1333Z" fill="#00527D"/>
<path d="M32.1343 90.0064C30.0688 90.848 28.0797 89.8024 28.0797 89.8024L16.3492 95.5146C16.3237 95.9227 16.0687 98.6257 12.8811 99.3143C9.97397 99.9263 8.80093 98.2177 8.80093 98.2177L9.41295 97.8607L12.4986 96.0502L11.4785 94.9026L7.70439 96.6877C7.70439 96.6877 7.52588 96.2797 7.52588 95.6931C7.52588 95.4381 7.55138 95.1321 7.65338 94.8261C7.9849 93.8571 9.15794 92.4035 11.2235 92.072C13.2891 91.7405 14.2836 92.5565 14.2836 92.5565L26.8046 87.2268C26.8046 87.2268 26.8301 86.4873 27.4167 85.9008C27.9777 85.2887 28.9977 84.4727 30.4003 84.6002C31.1908 84.6512 31.7773 84.9062 32.1088 85.1102C32.3894 85.2632 32.5169 85.3907 32.5169 85.3907L29.4057 87.0738L30.5278 88.3234L33.4094 86.8188C33.4094 86.8188 33.6389 86.9463 33.8174 87.3543C33.8429 87.4308 33.8684 87.5073 33.8939 87.5838C34.0979 88.1959 34.1999 89.1649 32.1343 90.0064Z" fill="#D2E9FF"/>
<path d="M32.0322 90.3381C29.9666 91.1796 28.0795 89.8281 28.0795 89.8281L16.3491 95.5403C16.3236 95.9483 16.0686 98.6514 12.8809 99.34C9.97383 99.952 8.80078 98.2434 8.80078 98.2434L9.4128 97.8864C9.97383 98.2689 11.2999 98.9064 13.289 98.2179C15.9921 97.2744 15.737 94.6988 15.737 94.6988L28.156 89.0121C28.156 89.0121 29.9411 90.3891 32.1852 89.2926C33.5112 88.655 33.8427 87.8645 33.8682 87.3545C33.8938 87.431 33.9193 87.5075 33.9448 87.584C34.0978 88.196 34.0978 89.4711 32.0322 90.3381Z" fill="#AED8FC"/>
<path d="M12.8807 95.7698L12.4727 96.1013L11.4527 94.9537L7.67851 96.7388C7.67851 96.7388 7.5 96.3308 7.5 95.7443L11.5037 94.1377L12.8807 95.7698Z" fill="#AED8FC"/>
<path d="M32.5422 85.4163L29.4311 87.0993L29.2271 86.6913L32.1342 85.1357C32.3892 85.2632 32.5422 85.4163 32.5422 85.4163Z" fill="#AED8FC"/>
<path d="M67.1016 93.398C66.9589 94.0831 66.6449 94.5684 66.1311 94.7683C65.9312 94.8539 65.6743 94.911 65.4174 94.8824C64.5325 94.7968 64.0186 93.7977 64.247 92.1134C64.4754 90.4292 65.4745 90.0866 66.1882 90.2294C66.2453 90.2579 66.3024 90.2579 66.3594 90.2865C67.1873 90.6861 67.2729 92.4845 67.1016 93.398Z" fill="#0078B8"/>
<path d="M67.1018 93.3987C66.9591 94.0838 66.6451 94.5691 66.1312 94.7689C65.2463 94.6547 64.9323 93.5414 65.1321 92.0855C65.2748 91.0579 65.5603 90.4869 66.3596 90.2871C67.1874 90.6868 67.2731 92.4852 67.1018 93.3987Z" fill="#00527D"/>
<path d="M72.4684 92.7701C72.4969 92.9128 72.4398 93.0556 72.3827 93.1697C72.24 93.4838 71.9545 93.7121 71.9545 93.7121L65.9883 93.4552C65.9883 93.4552 65.2176 92.4561 66.2167 91.7139H66.4736L72.1258 91.9137C72.1258 91.9422 72.4113 92.2563 72.4684 92.7701Z" fill="#0078B8"/>
<path d="M72.3827 93.1981C72.24 93.5121 71.9545 93.7404 71.9545 93.7404L65.9883 93.4835C65.9883 93.4835 65.2176 92.4844 66.2167 91.7422H66.4736C66.4451 91.9135 66.4451 92.3417 66.8733 92.6557C67.2729 92.9697 70.6985 93.141 72.3827 93.1981Z" fill="#00527D"/>
<path d="M64.8472 89.0893C64.6474 89.0893 64.419 89.0322 64.2192 88.9466C63.534 88.6326 63.0202 86.8056 63.0202 85.3783C63.0202 84.6075 63.1344 83.9224 63.3628 83.38C63.1058 83.3515 62.8489 83.38 62.592 83.4657C60.8792 84.0366 61.2503 86.406 61.2503 86.406C61.2789 86.6058 61.1361 86.8056 60.9363 86.8342C60.7365 86.8627 60.5367 86.72 60.5081 86.5201C60.3368 85.4925 60.5081 83.38 62.3351 82.752C62.8204 82.5807 63.3057 82.5522 63.7339 82.6664C63.9908 82.3238 64.3048 82.0669 64.6759 81.8956C65.675 81.4103 66.6171 81.3247 67.4449 81.6387C67.7304 81.182 68.1015 80.8394 68.5297 80.6681C69.3004 80.3541 70.0426 80.3541 70.6992 80.6681C71.8696 81.2105 72.4405 82.4951 72.6118 83.0375C73.0685 84.3221 72.8687 85.4354 72.8687 85.4925C72.8402 85.6923 72.6404 85.835 72.4405 85.7779C72.2407 85.7494 72.098 85.5496 72.1551 85.3497C72.1551 85.3497 72.3263 84.3792 71.9267 83.2659C71.8125 82.9233 71.3272 81.7529 70.4137 81.3247C69.9284 81.0963 69.4146 81.1249 68.8151 81.3532C68.5011 81.4674 68.2727 81.6958 68.1015 81.9813C68.8437 82.4666 69.4146 83.3229 69.7572 84.3792C70.1568 85.6638 69.9855 86.8627 69.329 87.3194C68.9008 87.6049 68.3869 87.5478 67.9016 87.1482C67.1309 86.5201 66.7027 84.6361 66.9596 83.0375C66.9882 82.7806 67.0738 82.5236 67.1309 82.2953C66.5029 82.0955 65.7892 82.1811 64.9899 82.5522C64.7615 82.6664 64.5903 82.8091 64.419 82.9804C65.2754 83.5799 65.9034 84.8644 66.1032 86.463C66.2745 87.9189 65.8748 88.5755 65.5037 88.8324C65.3325 89.0322 65.1041 89.0893 64.8472 89.0893ZM64.0479 83.637C63.848 84.0937 63.7624 84.6075 63.7624 85.0357C63.6768 86.6629 64.2762 88.1187 64.5332 88.2615C64.6474 88.3186 64.9043 88.4042 65.1041 88.2615C65.3896 88.0331 65.5037 87.4051 65.4181 86.5772C65.2754 85.521 64.8472 84.2079 64.0479 83.637ZM67.816 82.6949C67.7589 82.8662 67.7304 83.066 67.7018 83.2088C67.4734 84.6075 67.9016 86.2347 68.3869 86.6343C68.6153 86.8056 68.7866 86.8627 68.9293 86.7771C69.2148 86.5772 69.4431 85.8065 69.072 84.6646C68.8151 83.7797 68.3584 83.0946 67.816 82.6949Z" fill="#3C3C68"/>
<path d="M79.8056 59.0624C79.2421 59.0624 78.5847 58.9736 77.9273 58.7516C75.955 58.0412 75.3915 57.5527 73.2783 55.6435C72.8087 55.1995 72.2452 54.7111 71.5878 54.1338C68.5354 51.4254 65.3892 53.4234 65.2483 53.5122C64.8257 53.7786 64.2621 53.6898 63.9804 53.2902C63.6986 52.8906 63.7926 52.3578 64.2152 52.0914C65.7648 51.0701 69.5685 49.9601 72.8087 52.8906C73.4662 53.4678 74.0297 54.0006 74.4992 54.4002C76.5185 56.2651 76.8942 56.5759 78.5377 57.1531C80.8857 57.9524 82.1536 56.3539 82.2945 56.1763C82.5762 55.7767 83.1397 55.6879 83.5624 55.9543C83.985 56.2207 84.0789 56.7535 83.7972 57.1531C83.2806 57.9524 81.8249 59.0624 79.8056 59.0624Z" fill="#3C3C68"/>
<path d="M26.7363 78.1941C23.7977 78.1941 22.1058 76.1671 21.616 74.9311C21.3934 74.4367 21.616 73.8929 22.0168 73.6457C22.462 73.3985 22.9518 73.6457 23.1744 74.0906C23.2189 74.1895 24.421 76.7604 27.6713 76.1671C29.5413 75.821 30.1646 74.8817 30.877 73.8434C31.5003 72.9041 32.2127 71.8164 33.771 71.322C35.9972 70.5804 38.2234 72.4097 38.3125 72.5085C38.6687 72.8052 38.7577 73.4479 38.4906 73.8434C38.2234 74.2389 37.6891 74.3378 37.2884 74.0412C37.2439 74.0412 35.641 72.7063 34.2608 73.1513C33.2813 73.4973 32.836 74.1401 32.2572 74.9805C31.5003 76.1671 30.5208 77.6008 27.9384 78.0952C27.5377 78.1941 27.137 78.1941 26.7363 78.1941Z" fill="#3C3C68"/>
<path d="M29.8358 82.5901C27.1885 83.8255 24.8553 83.0161 23.8681 82.2919C23.5092 81.9937 23.4194 81.4824 23.7335 81.1416C24.0476 80.8008 24.5861 80.7156 24.945 81.0138C25.0348 81.0564 27.1436 82.5475 29.8807 80.673C31.4511 79.608 31.6306 78.6282 31.8101 77.4779C31.9896 76.4555 32.2139 75.3479 33.3805 74.2828C35.0856 72.7492 37.8227 73.2178 37.9573 73.2604C38.406 73.3456 38.7201 73.7716 38.6303 74.1976C38.5406 74.6236 38.0919 74.9218 37.6432 74.8366C37.5983 74.8366 35.624 74.4958 34.5472 75.4757C33.7844 76.1573 33.6498 76.8815 33.5152 77.7761C33.2908 79.0116 33.0216 80.5452 30.8678 82.0363C30.5537 82.2067 30.1948 82.4197 29.8358 82.5901Z" fill="#FF573F"/>
<path d="M22.4761 72.109C22.2412 72.0216 22.1238 71.8906 22.0651 71.7158L21.5368 69.7937C21.4781 69.4879 21.7129 69.1822 22.1238 69.1385C22.5348 69.0948 22.9457 69.2695 23.0044 69.5753L23.5328 71.4974C23.5915 71.8032 23.3567 72.109 22.9457 72.1527C22.7696 72.1527 22.5935 72.1527 22.4761 72.109Z" fill="#FFC121"/>
<path d="M20.8229 74.1533C20.7777 74.1533 20.7777 74.1533 20.7326 74.0992L17.8438 72.4768C17.573 72.3146 17.4376 71.936 17.5279 71.5574C17.6633 71.233 17.9792 71.0707 18.2952 71.1789L21.184 72.8013C21.4548 72.9635 21.5902 73.3421 21.4999 73.7206C21.4097 74.0992 21.0937 74.2074 20.8229 74.1533Z" fill="#FFC121"/>
<path d="M17.7654 77.1069C17.6449 77.058 17.5646 76.9116 17.5244 76.7652C17.4441 76.4236 17.5646 76.082 17.8457 75.9844L19.8538 75.2035C20.135 75.1059 20.4161 75.2523 20.4964 75.5939C20.5767 75.9356 20.4562 76.2772 20.1751 76.3748L18.167 77.1557C18.0064 77.2045 17.8859 77.2045 17.7654 77.1069Z" fill="#FFC121"/>
<path d="M84.5456 54.0054C84.4361 54.0595 84.29 54.0054 84.1805 53.9513C83.9615 53.735 83.8884 53.3025 84.0345 52.9781L85.0932 50.3288C85.2393 50.0044 85.5313 49.8962 85.7504 50.1125C85.9694 50.3288 86.0424 50.7613 85.8964 51.0857L84.8377 53.735C84.7646 53.8432 84.6551 53.9513 84.5456 54.0054Z" fill="#FFC121"/>
<path d="M85.4875 56.024C85.2608 56.024 85.034 55.869 84.9887 55.6752C84.898 55.4039 85.0794 55.1326 85.3968 55.055L89.2512 54.0473C89.5686 53.9698 89.886 54.1248 89.9767 54.3961C90.0674 54.6674 89.886 54.9388 89.5686 55.0163L85.7142 56.024C85.6235 56.024 85.5782 56.0628 85.4875 56.024Z" fill="#FFC121"/>
<path d="M86.9227 58.7441C86.882 58.7441 86.8412 58.7441 86.7597 58.7131L85.3326 58.2794C85.0472 58.1865 84.9249 57.9696 85.0472 57.7527C85.1695 57.5359 85.455 57.4429 85.7404 57.5359L87.1674 57.9696C87.4528 58.0626 87.5751 58.2794 87.4528 58.4963C87.3712 58.6822 87.1266 58.7751 86.9227 58.7441Z" fill="#FFC121"/>
<path d="M62.506 77.3167C62.506 77.3167 62.4265 83.5904 61.1176 88.4648C61.0792 88.6072 61.0382 88.7496 60.9998 88.892C60.9533 89.0536 60.904 89.2124 60.8547 89.3712C60.8109 89.5109 60.7643 89.6505 60.7178 89.7874C60.6301 90.0558 60.5343 90.3187 60.4302 90.5706C60.4193 90.6008 60.4083 90.6309 60.3946 90.661C60.3481 90.776 60.2988 90.8856 60.2522 90.9978C60.1427 91.2525 60.025 91.4935 59.899 91.7235C59.6854 92.1288 59.4499 92.493 59.198 92.8079C59.1432 92.8736 59.0884 92.9366 59.0336 92.9996C58.9953 93.0434 58.9542 93.09 58.9132 93.1311L58.8611 93.1831C58.8036 93.2433 58.7461 93.2981 58.6859 93.3501C58.6256 93.4022 58.5654 93.4542 58.5051 93.5007H58.5024C58.4394 93.55 58.3792 93.5966 58.3162 93.6377C58.2532 93.6815 58.1875 93.7198 58.1218 93.7581C57.9985 93.8266 57.8726 93.8951 57.7466 93.9581C57.6836 93.9882 57.6179 94.021 57.5522 94.0512C57.4892 94.0813 57.4235 94.1087 57.3577 94.1388C56.8237 94.377 56.2706 94.5468 55.7202 94.6207C55.6517 94.629 55.586 94.6399 55.5203 94.6481C55.4984 94.6481 55.4737 94.6536 55.4518 94.6536C53.6499 94.8042 51.9001 93.9088 50.8157 91.017C50.4515 90.0449 50.2516 89.1521 50.1502 88.1855C49.9449 86.2494 50.1229 84.0149 50.1229 80.2386C50.1229 72.7299 62.506 77.3167 62.506 77.3167Z" fill="url(#paint0_radial_2098_16462)"/>
<path d="M62.5061 77.32C62.5061 77.32 61.8736 81.6165 53.1106 82.7804C51.1253 83.3281 50.7939 88.542 50.9281 91.3078C50.887 91.212 50.8514 91.1188 50.8158 91.0203C49.7205 88.0984 50.123 85.9049 50.123 80.2446C50.123 72.7331 62.5061 77.3227 62.5061 77.3227V77.32Z" fill="#C1E2F3" fill-opacity="0.24"/>
<path d="M61.1177 88.4649C61.0794 88.6073 61.0383 88.7497 61 88.8921C60.9534 89.0536 60.9041 89.2125 60.8549 89.3713C60.811 89.5109 60.7645 89.6506 60.7179 89.7875C60.6276 90.0559 60.5317 90.3188 60.4304 90.5707C60.4194 90.6008 60.4085 90.631 60.3948 90.6611C60.3482 90.7761 60.299 90.8856 60.2524 90.9979C60.1401 91.2498 60.0224 91.4936 59.8991 91.7236C59.6856 92.1289 59.45 92.4931 59.1981 92.808C59.1433 92.8737 59.0886 92.9367 59.0338 92.9997C58.9955 93.0435 58.9544 93.0901 58.9133 93.1311L58.8613 93.1832C58.8038 93.2434 58.7463 93.2982 58.686 93.3502C58.6258 93.4022 58.5655 93.4543 58.5053 93.5008H58.5026C58.4396 93.5501 58.3793 93.5967 58.3163 93.6377C58.2534 93.6815 58.1876 93.7199 58.1219 93.7582C57.9987 93.8267 57.8727 93.8951 57.7468 93.9581C57.6838 93.9883 57.618 94.0211 57.5523 94.0512C57.4893 94.0814 57.4236 94.1087 57.3579 94.1389C56.8321 94.3634 56.279 94.5332 55.7203 94.6208C55.6519 94.629 55.5861 94.64 55.5204 94.6482C55.4985 94.6482 55.4739 94.6537 55.452 94.6537C53.6501 94.8043 51.9002 93.9088 50.8158 91.0171C50.4516 90.0449 50.2517 89.1522 50.1504 88.1855C54.31 91.1513 59.0146 89.5904 61.1177 88.4649Z" fill="#0078B8"/>
<path d="M50.0818 88.306C49.9777 89.2261 49.7806 90.0859 49.43 91.017C47.9239 95.0343 45.1335 95.1986 42.7045 94.0594C42.5073 93.9663 42.3129 93.8649 42.1239 93.7581C42.0582 93.7198 41.9925 93.6815 41.9295 93.6377C41.8665 93.5966 41.8063 93.55 41.7433 93.5035H41.7406C41.6803 93.4542 41.6201 93.4022 41.5598 93.3501C41.4996 93.2981 41.4421 93.2433 41.3846 93.1831L41.3325 93.1311C41.2915 93.09 41.2504 93.0434 41.2121 92.9996C41.1573 92.9366 41.1025 92.8736 41.0477 92.8079C40.7958 92.493 40.5603 92.1288 40.3467 91.7235C40.2865 91.6085 40.2262 91.4907 40.166 91.3702C40.166 91.3648 40.166 91.362 40.1605 91.3593C40.103 91.2415 40.0482 91.1211 39.9935 90.9978C39.9469 90.8856 39.8976 90.776 39.8511 90.661C39.8374 90.6309 39.8264 90.6008 39.8155 90.5706C39.7141 90.3187 39.6183 90.0558 39.5279 89.7874C39.4266 89.4944 39.3335 89.196 39.2459 88.892C39.2075 88.7496 39.1665 88.6072 39.1281 88.4648C37.8219 83.5904 37.7397 77.3167 37.7397 77.3167C37.7397 77.3167 50.1229 72.7299 50.1229 80.2386C50.1229 84.0943 50.3091 86.3425 50.0818 88.306Z" fill="url(#paint1_radial_2098_16462)"/>
<path d="M37.7397 77.32C37.7397 77.32 39.1446 81.8904 47.4283 82.9858C49.0028 83.8073 49.4519 88.542 49.3178 91.3078C49.3588 91.212 49.3944 91.1188 49.43 91.0203C50.5254 88.0984 50.1229 85.9049 50.1229 80.2446C50.1229 72.7331 37.7397 77.3227 37.7397 77.3227V77.32Z" fill="#C1E2F3" fill-opacity="0.24"/>
<path d="M50.0816 88.3066C49.9775 89.2267 49.7804 90.0866 49.4298 91.0177C47.9237 95.0349 45.1333 95.1992 42.7043 94.0601C42.5071 93.9669 42.3127 93.8656 42.1238 93.7588C42.058 93.7205 41.9923 93.6821 41.9293 93.6383C41.8663 93.5973 41.8061 93.5507 41.7431 93.5042H41.7404C41.6801 93.4549 41.6199 93.4028 41.5596 93.3508C41.4994 93.2988 41.4419 93.244 41.3844 93.1838L41.3324 93.1317C41.2913 93.0907 41.2502 93.0441 41.2119 93.0003C41.1571 92.9373 41.1023 92.8743 41.0476 92.8086C40.7956 92.4937 40.5601 92.1295 40.3465 91.7242C40.2863 91.6092 40.226 91.4914 40.1658 91.3709C40.1658 91.3654 40.1658 91.3627 40.1603 91.36C40.1028 91.2422 40.048 91.1217 39.9933 90.9985C39.9467 90.8862 39.8974 90.7767 39.8509 90.6617C39.8372 90.6316 39.8262 90.6014 39.8153 90.5713C39.7139 90.3194 39.6181 90.0565 39.5277 89.7881C39.4264 89.4951 39.3333 89.1966 39.2457 88.8927C39.2073 88.7503 39.1663 88.6079 39.1279 88.4655C41.2365 89.5937 45.9165 91.2915 50.0816 88.3066Z" fill="#0078B8"/>
<path fill-rule="evenodd" clip-rule="evenodd" d="M50.1201 81.21C50.2237 81.21 50.3076 81.2939 50.3076 81.3975V87.9696C50.3076 88.0732 50.2237 88.1571 50.1201 88.1571C50.0166 88.1571 49.9326 88.0732 49.9326 87.9696V81.3975C49.9326 81.2939 50.0166 81.21 50.1201 81.21Z" fill="#417794"/>
<path d="M63.76 75.4196C63.4615 76.0686 63.1137 76.704 62.7112 77.3174C59.6688 81.9453 50.0488 81.7016 50.0488 81.7016C50.0488 81.7016 40.4287 81.9453 37.3836 77.3174C36.9673 76.6848 36.6114 76.0303 36.3101 75.3621C32.7995 67.6425 36.2882 57.9568 36.2882 57.9568C36.4334 57.8801 36.5758 57.8061 36.7209 57.7322C48.2195 51.8857 60.7176 56.6286 63.3191 57.7404C63.6395 57.8746 63.8093 57.9568 63.8093 57.9568C63.8093 57.9568 67.3117 67.6891 63.76 75.4196Z" fill="url(#paint2_radial_2098_16462)"/>
<path d="M63.76 75.4198C61.9253 76.4111 60.7094 77.1861 59.2033 77.3696C53.1103 81.3403 51.4207 77.3477 51.2153 77.3477C56.1089 75.962 55.1833 72.4487 55.3695 69.1324C55.0491 66.9417 60.1097 65.3863 60.8463 64.9783C62.6947 63.9514 62.3524 63.2668 62.4894 62.3083C60.2986 63.7925 47.0639 65.526 37.8436 62.2399C38.164 65.4794 39.9659 66.1421 43.5258 67.4428C46.5381 69.0393 43.1781 77.2381 47.1077 78.3499C46.9023 78.3499 44.6897 79.993 41.4036 77.575C38.8486 77.6653 37.9121 76.685 36.3101 75.3623C32.7995 67.6427 36.2882 57.957 36.2882 57.957C36.4334 57.8803 36.5758 57.8064 36.7209 57.7324L50.0871 58.543L63.3191 57.7406C63.6395 57.8748 63.8093 57.957 63.8093 57.957C63.8093 57.957 67.3117 67.6893 63.76 75.4198Z" fill="#C1E2F3" fill-opacity="0.16"/>
<path d="M50.1447 76.4794C50.1447 76.4794 50.1885 76.9121 49.838 77.2544C49.5642 77.52 49.0494 77.7336 48.0909 77.6432C48.0909 77.6432 48.2717 78.4867 46.2178 78.3497C44.164 78.2128 41.4722 76.9805 40.9245 75.6113C40.1687 73.7218 41.9514 70.1345 42.4306 69.8607C42.9098 69.5868 44.531 68.7434 46.7217 69.7018C48.3675 70.422 47.6117 71.5503 47.6117 71.5503C47.6117 71.5503 48.6715 71.8707 49.6409 72.3499C50.8156 72.9304 51.8562 73.7437 50.6924 74.4941C50.6924 74.4941 52.1985 75.9317 50.1447 76.4794Z" fill="#0078B8"/>
<path fill-rule="evenodd" clip-rule="evenodd" d="M45.9675 71.1403C45.9925 71.0398 46.0943 70.9786 46.1948 71.0036L47.6571 71.3679C47.7576 71.3929 47.8187 71.4946 47.7937 71.5951C47.7687 71.6956 47.6669 71.7568 47.5665 71.7317L46.1041 71.3675C46.0037 71.3425 45.9425 71.2408 45.9675 71.1403Z" fill="#0F4F72"/>
<path fill-rule="evenodd" clip-rule="evenodd" d="M46.4958 73.1861C46.5258 73.087 46.6304 73.0309 46.7295 73.0608C48.2325 73.5144 50.5675 74.2477 50.7581 74.3188C50.8552 74.355 50.9045 74.463 50.8683 74.56C50.8321 74.657 50.7241 74.7063 50.627 74.6701C50.4507 74.6043 48.1305 73.8753 46.6212 73.4198C46.522 73.3899 46.4659 73.2852 46.4958 73.1861Z" fill="#0F4F72"/>
<path fill-rule="evenodd" clip-rule="evenodd" d="M45.7719 75.0458C45.8092 74.9492 45.9178 74.9011 46.0144 74.9384C47.0123 75.3237 48.023 75.6529 48.7849 75.886C49.1657 76.0024 49.4839 76.0948 49.7067 76.1579C49.8182 76.1895 49.9057 76.2138 49.9654 76.2301L50.0333 76.2487L50.0506 76.2533L50.0562 76.2548L50.0079 76.436L49.9595 76.6171L49.9533 76.6155L49.9354 76.6106L49.8661 76.5918C49.8056 76.5751 49.717 76.5506 49.6045 76.5187C49.3795 76.455 49.0588 76.3619 48.6752 76.2446C47.9084 76.01 46.8886 75.6779 45.8793 75.2882C45.7827 75.251 45.7346 75.1424 45.7719 75.0458ZM50.1891 76.4843C50.1624 76.5844 50.0596 76.6438 49.9595 76.6171L50.0079 76.436L50.0562 76.2548C50.1562 76.2815 50.2157 76.3842 50.1891 76.4843Z" fill="#0F4F72"/>
<path fill-rule="evenodd" clip-rule="evenodd" d="M44.8125 76.7787C44.8485 76.6816 44.9563 76.632 45.0534 76.668C45.4738 76.8236 46.2386 77.0211 46.9078 77.1814C47.2404 77.2611 47.5462 77.3308 47.7688 77.3806C47.8801 77.4054 47.9705 77.4253 48.0331 77.439L48.1052 77.4547L48.1301 77.4601C48.2314 77.4817 48.296 77.5814 48.2743 77.6827C48.2526 77.7839 48.1529 77.8484 48.0517 77.8268L48.026 77.8212L47.9531 77.8054C47.89 77.7916 47.7989 77.7716 47.6869 77.7465C47.463 77.6964 47.1554 77.6263 46.8205 77.5461C46.1548 77.3867 45.3682 77.1844 44.9232 77.0196C44.8261 76.9837 44.7765 76.8758 44.8125 76.7787Z" fill="#0F4F72"/>
<path d="M50.145 76.4791C50.145 76.4791 50.1888 76.9118 49.8383 77.2541C47.8064 77.3691 48.0117 72.5413 49.6411 72.3496C50.8159 72.9302 51.8565 73.7435 50.6926 74.4938C50.6926 74.4938 52.1988 75.9315 50.145 76.4791Z" fill="#0F4F72"/>
<path d="M57.7411 69.8626C57.2618 69.5888 55.6407 68.7453 53.45 69.7038C51.8042 70.424 52.56 71.5522 52.56 71.5522C52.56 71.5522 47.357 73.1268 49.4793 74.496C49.4793 74.496 47.9731 75.9337 50.0269 76.4814C50.0269 76.4814 49.89 77.8506 52.0808 77.6452C52.0808 77.6452 51.8973 78.4886 53.9511 78.3517C56.0049 78.2148 58.6968 76.9825 59.2444 75.6133C60.0002 73.7238 58.2175 70.1365 57.7383 69.8626H57.7411Z" fill="#0078B8"/>
<path fill-rule="evenodd" clip-rule="evenodd" d="M54.2289 71.1409C54.2535 71.2415 54.192 71.343 54.0915 71.3677L52.6072 71.7319C52.5067 71.7566 52.4051 71.6951 52.3804 71.5945C52.3558 71.4939 52.4173 71.3924 52.5179 71.3677L54.0021 71.0035C54.1027 70.9788 54.2042 71.0403 54.2289 71.1409Z" fill="#0F4F72"/>
<path fill-rule="evenodd" clip-rule="evenodd" d="M53.6787 73.1851C53.7087 73.2843 53.6526 73.3889 53.5534 73.4188C52.0441 73.8744 49.7239 74.6034 49.5475 74.6692C49.4505 74.7054 49.3425 74.6561 49.3063 74.5591C49.2701 74.462 49.3194 74.354 49.4164 74.3178C49.607 74.2467 51.9421 73.5134 53.4451 73.0598C53.5442 73.0299 53.6488 73.086 53.6787 73.1851Z" fill="#0F4F72"/>
<path fill-rule="evenodd" clip-rule="evenodd" d="M54.4025 75.0448C54.4398 75.1414 54.3918 75.25 54.2951 75.2873C53.2859 75.6769 52.266 76.0091 51.4992 76.2436C51.1156 76.3609 50.7949 76.454 50.5699 76.5177C50.4575 76.5496 50.3689 76.5742 50.3083 76.5908L50.2391 76.6097L50.2211 76.6145L50.215 76.6161L50.1666 76.435L50.1182 76.2538L50.1239 76.2523L50.1412 76.2477L50.2091 76.2292C50.2687 76.2128 50.3563 76.1885 50.4677 76.1569C50.6906 76.0938 51.0088 76.0015 51.3895 75.885C52.1514 75.652 53.1621 75.3227 54.1601 74.9374C54.2567 74.9001 54.3652 74.9482 54.4025 75.0448ZM49.9854 76.4833C49.9587 76.3833 50.0182 76.2805 50.1182 76.2538L50.1666 76.435L50.215 76.6161C50.1149 76.6428 50.0121 76.5834 49.9854 76.4833Z" fill="#0F4F72"/>
<path fill-rule="evenodd" clip-rule="evenodd" d="M55.362 76.7777C55.3979 76.8748 55.3484 76.9827 55.2513 77.0187C54.8063 77.1834 54.0197 77.3857 53.354 77.5451C53.0191 77.6253 52.7115 77.6955 52.4876 77.7455C52.3756 77.7706 52.2845 77.7906 52.2214 77.8044L52.1485 77.8202L52.1233 77.8257C52.022 77.8474 51.9219 77.783 51.9002 77.6817C51.8785 77.5804 51.943 77.4808 52.0443 77.4591L52.0693 77.4537L52.1414 77.438C52.2039 77.4244 52.2944 77.4045 52.4057 77.3796C52.6283 77.3298 52.9341 77.2601 53.2667 77.1804C53.9359 77.0202 54.7006 76.8226 55.1211 76.667C55.2182 76.631 55.326 76.6806 55.362 76.7777Z" fill="#0F4F72"/>
<path d="M55.5066 69.2226C55.8709 67.3523 60.5727 66.5746 61.6681 65.6161C65.2143 62.5135 64.8173 61.9193 64.1792 59.0439C64.1792 59.0439 66.0879 59.5369 67.2134 62.0562C68.0814 63.995 68.6976 68.4449 66.5972 71.4572C64.5763 74.3544 60.4659 76.1043 59.5677 76.296C57.4235 76.7533 54.822 73.1933 55.5066 69.2226Z" fill="url(#paint3_radial_2098_16462)"/>
<path d="M20.6685 34.2392C20.6685 38.6015 18.4394 42.1395 15.6901 42.1395C12.9407 42.1395 10.7144 38.6015 10.7144 34.2392C10.7144 29.8769 12.9434 26.3389 15.6928 26.3389C18.4422 26.3389 20.6712 29.8769 20.6712 34.2392H20.6685Z" fill="#0078B8"/>
<path d="M44.5392 69.6328C44.1749 67.7625 39.4731 66.9847 38.3777 66.0263C34.8315 62.9237 35.2286 62.3294 35.8666 59.4541C35.8666 59.4541 33.9579 59.947 32.8324 62.4664C31.9644 64.4052 31.3482 68.8551 33.4486 71.8673C35.4695 74.7646 39.5799 76.5144 40.4781 76.7061C42.6223 77.1634 45.2238 73.6035 44.5392 69.6328Z" fill="url(#paint4_radial_2098_16462)"/>
<path d="M79.5771 34.2392C79.5771 38.6015 81.8062 42.1395 84.5556 42.1395C87.305 42.1395 89.534 38.6015 89.534 34.2392C89.534 29.8769 87.305 26.3389 84.5556 26.3389C81.8062 26.3389 79.5771 29.8769 79.5771 34.2392Z" fill="#0078B8"/>
<path d="M50.1229 62.4667C67.2024 62.4667 78.7557 55.5249 82.4991 49.3141C86.2426 43.1034 88.8933 24.6547 78.7557 14.9744C68.6181 5.29413 53.5596 6.02529 50.1229 6.02529C46.6862 6.02529 31.6304 5.29413 21.49 14.9744C11.3552 24.6547 14.0032 43.1034 17.7466 49.3141C21.49 55.5249 33.0434 62.4667 50.1229 62.4667Z" fill="url(#paint5_radial_2098_16462)"/>
<path d="M36.3325 21.9521H63.5495C67.5832 21.9521 70.8556 25.2273 70.8556 29.2582V48.2546C70.8556 52.2883 67.5805 55.5607 63.5495 55.5607H36.3325C32.2988 55.5607 29.0264 52.2856 29.0264 48.2546V29.2582C29.0264 25.2246 32.3015 21.9521 36.3325 21.9521Z" fill="#004367"/>
<path d="M63.5494 23.0498H36.3323C32.9022 23.0498 30.1216 25.8304 30.1216 29.2605V48.2569C30.1216 51.687 32.9022 54.4676 36.3323 54.4676H63.5494C66.9795 54.4676 69.7601 51.687 69.7601 48.2569V29.2605C69.7601 25.8304 66.9795 23.0498 63.5494 23.0498Z" fill="#0078B8"/>
<path d="M35.6779 24.679C33.3639 25.0432 31.6606 27.1135 31.4142 28.699C31.1485 30.4215 31.6688 32.8559 33.6049 31.5004C34.8235 30.6488 35.4451 28.0391 39.2077 26.6288C42.1296 25.5334 39.498 24.0766 35.6751 24.679H35.6779Z" fill="white"/>
<path d="M41.1736 46.2662C38.8569 46.2662 36.1514 44.5437 36.1514 39.694C36.1514 38.5356 36.3102 37.4183 36.6224 36.3777C36.7538 35.9423 37.2111 35.6986 37.6465 35.8273C38.0819 35.9588 38.3284 36.4161 38.197 36.8515C37.9313 37.7387 37.7944 38.6944 37.7944 39.694C37.7944 42.7363 39.0897 44.6231 41.1736 44.6231C43.2576 44.6231 44.5528 42.7336 44.5528 39.694C44.5528 38.6944 44.4186 37.7387 44.1503 36.8515C44.0188 36.4161 44.2653 35.9588 44.7007 35.8273C45.1361 35.6986 45.5934 35.9423 45.7249 36.3777C46.037 37.4183 46.1959 38.5356 46.1959 39.694C46.1959 44.5464 43.4903 46.2662 41.1736 46.2662Z" fill="url(#paint6_linear_2098_16462)"/>
<path d="M58.6311 46.2662C56.3144 46.2662 53.6089 44.5437 53.6089 39.694C53.6089 38.5356 53.7677 37.4183 54.0799 36.3777C54.2113 35.9423 54.6687 35.6986 55.1041 35.8273C55.5395 35.9588 55.7859 36.4161 55.6545 36.8515C55.3889 37.7387 55.2519 38.6944 55.2519 39.694C55.2519 42.7363 56.5472 44.6231 58.6311 44.6231C60.7151 44.6231 62.0103 42.7336 62.0103 39.694C62.0103 38.6944 61.8762 37.7387 61.6078 36.8515C61.4764 36.4161 61.7228 35.9588 62.1582 35.8273C62.5936 35.6986 63.0509 35.9423 63.1824 36.3777C63.4946 37.4183 63.6534 38.5356 63.6534 39.694C63.6534 44.5464 60.9478 46.2662 58.6311 46.2662Z" fill="url(#paint7_linear_2098_16462)"/>
<path d="M47.5654 47.5557C47.5654 47.5557 49.6357 49.2617 52.3138 47.5557" stroke="#66F3FF" stroke-width="1.53351" stroke-linecap="round" stroke-linejoin="round"/>
<defs>
<radialGradient id="paint0_radial_2098_16462" cx="0" cy="0" r="1" gradientUnits="userSpaceOnUse" gradientTransform="translate(56.1298 85.3572) rotate(102.653) scale(8.96777 6.37669)">
<stop offset="0.634942" stop-color="white"/>
<stop offset="1" stop-color="#ECF3F8"/>
</radialGradient>
<radialGradient id="paint1_radial_2098_16462" cx="0" cy="0" r="1" gradientUnits="userSpaceOnUse" gradientTransform="translate(44.5228 85.3572) rotate(87.7974) scale(9.29258 6.60771)">
<stop offset="0.643588" stop-color="white"/>
<stop offset="1" stop-color="#ECF3F8"/>
</radialGradient>
<radialGradient id="paint2_radial_2098_16462" cx="0" cy="0" r="1" gradientUnits="userSpaceOnUse" gradientTransform="translate(50.0478 68.2874) rotate(89.9554) scale(13.499 15.3979)">
<stop offset="0.747066" stop-color="white"/>
<stop offset="1" stop-color="#ECF3F8"/>
</radialGradient>
<radialGradient id="paint3_radial_2098_16462" cx="0" cy="0" r="1" gradientUnits="userSpaceOnUse" gradientTransform="translate(62.7371 67.8579) rotate(133.21) scale(8.08517 5.95402)">
<stop offset="0.626314" stop-color="white"/>
<stop offset="1" stop-color="#ECF3F8"/>
</radialGradient>
<radialGradient id="paint4_radial_2098_16462" cx="0" cy="0" r="1" gradientUnits="userSpaceOnUse" gradientTransform="translate(38.2726 68.2144) rotate(54.7276) scale(8.96777 6.60398)">
<stop offset="0.697777" stop-color="white"/>
<stop offset="1" stop-color="#ECF3F8"/>
</radialGradient>
<radialGradient id="paint5_radial_2098_16462" cx="0" cy="0" r="1" gradientUnits="userSpaceOnUse" gradientTransform="translate(50.1234 34.2397) rotate(90.1316) scale(29.5525 37.3948)">
<stop offset="0.836294" stop-color="white"/>
<stop offset="1" stop-color="#ECF3F8"/>
</radialGradient>
<linearGradient id="paint6_linear_2098_16462" x1="41.1736" y1="45.65" x2="41.1736" y2="35.6302" gradientUnits="userSpaceOnUse">
<stop stop-color="white"/>
<stop offset="1" stop-color="#66FFFF"/>
</linearGradient>
<linearGradient id="paint7_linear_2098_16462" x1="58.6311" y1="6.01147" x2="58.6311" y2="6.01147" gradientUnits="userSpaceOnUse">
<stop stop-color="white"/>
<stop offset="1" stop-color="#66FFFF"/>
</linearGradient>
</defs>
</svg>
