<svg width="16" height="16" viewBox="0 0 16 16" fill="none" xmlns="http://www.w3.org/2000/svg">
<path d="M7.9502 14.85C4.4627 14.85 0.700195 12.6625 0.700195 7.8625C0.700195 3.0625 4.4627 0.875 7.9502 0.875C9.8877 0.875 11.6752 1.5125 13.0002 2.675C14.4377 3.95 15.2002 5.75 15.2002 7.8625C15.2002 9.975 14.4377 11.7625 13.0002 13.0375C11.6752 14.2 9.8752 14.85 7.9502 14.85Z" fill="url(#paint0_radial_1982_38891)"/>
<path d="M13.9365 3.70898C14.6027 4.78398 14.9502 6.06398 14.9502 7.48773C14.9502 9.60023 14.1877 11.3877 12.7502 12.6627C11.4252 13.8252 9.62523 14.4752 7.70023 14.4752C5.44273 14.4752 3.07523 13.5565 1.67773 11.6077C3.02273 13.8152 5.55273 14.8502 7.95023 14.8502C9.87523 14.8502 11.6752 14.2002 13.0002 13.0377C14.4377 11.7627 15.2002 9.97523 15.2002 7.86273C15.2002 6.27023 14.7665 4.85523 13.9365 3.70898Z" fill="#E38A00"/>
<path d="M12.7123 9.02623C12.5373 8.71123 12.1573 8.57248 11.8198 8.70123C10.6948 9.05123 9.31983 9.17998 7.93483 9.18123C6.59858 9.18623 5.26858 8.99998 3.98608 8.62498C3.64858 8.49623 3.26858 8.63498 3.09358 8.94998C2.92358 9.26373 3.04733 9.62748 3.18983 9.94123C3.99983 11.7062 5.76233 12.7612 7.92483 12.7675H7.94483C10.1073 12.7675 11.8123 11.78 12.6161 10.0175C12.7586 9.70373 12.8823 9.33998 12.7123 9.02623Z" fill="white"/>
<path d="M6.12471 7.11168L6.10596 7.08668L6.05221 7.01793L5.98596 6.94668C5.95846 6.91543 5.92596 6.88543 5.89471 6.85293C5.86346 6.82043 5.82471 6.78918 5.78971 6.76293C5.75721 6.73793 5.72221 6.71418 5.68471 6.69543C5.65971 6.68168 5.63221 6.67043 5.60346 6.66418C5.59471 6.66293 5.58596 6.66293 5.57721 6.66418C5.57721 6.66418 5.56971 6.66418 5.56596 6.66418H5.55596C5.57096 6.66418 5.52221 6.66418 5.58971 6.66418H5.52096C5.50221 6.66418 5.51471 6.66418 5.52096 6.66418H5.53096C5.53096 6.66418 5.54096 6.66418 5.53096 6.66418H5.51721C5.48846 6.67043 5.46096 6.68043 5.43471 6.69543C5.39846 6.71543 5.36221 6.73793 5.32971 6.76293C5.29346 6.79043 5.25846 6.82043 5.22596 6.85293C5.15971 6.91668 5.10096 6.97793 5.06346 7.02668L4.99846 7.10168L4.96971 7.13543C4.78971 7.33668 4.48596 7.36918 4.26721 7.21168C4.12721 7.11418 4.05596 6.94543 4.08346 6.77668C4.08346 6.77668 4.09221 6.72668 4.11596 6.63793C4.15346 6.51168 4.20596 6.38918 4.27221 6.27418C4.37846 6.08668 4.52221 5.92293 4.69471 5.79293C4.80846 5.70543 4.93471 5.63543 5.06971 5.58668C5.10721 5.57168 5.14596 5.56043 5.18471 5.55043C5.22596 5.53793 5.26721 5.52918 5.30971 5.52168L5.38596 5.51043L5.44971 5.50293H5.51846H5.61721H5.68096C5.72346 5.50293 5.76471 5.51418 5.80596 5.52043C5.88596 5.53418 5.96596 5.55543 6.04221 5.58418C6.17721 5.63293 6.30346 5.70293 6.41721 5.79043C6.58971 5.92043 6.73346 6.08418 6.83971 6.27168C6.87846 6.33668 6.91221 6.40543 6.93971 6.47543C6.96346 6.53168 6.98346 6.58793 6.99971 6.64668C7.00846 6.67668 7.01596 6.70668 7.01971 6.73668V6.76793C7.05721 7.02293 6.87971 7.26043 6.62471 7.29793C6.61846 7.29918 6.61221 7.29918 6.60596 7.30043C6.42346 7.32668 6.24096 7.25418 6.12471 7.11168Z" fill="#422B0D"/>
<path d="M11.0571 7.11168L11.0371 7.08668L10.9834 7.01793L10.9171 6.94668C10.8896 6.91543 10.8571 6.88543 10.8259 6.85293C10.7946 6.82043 10.7559 6.78918 10.7209 6.76293C10.6884 6.73793 10.6534 6.71418 10.6159 6.69543C10.5909 6.68168 10.5634 6.67043 10.5346 6.66418C10.5259 6.66293 10.5171 6.66293 10.5084 6.66418C10.5084 6.66418 10.5009 6.66418 10.4971 6.66418H10.4871C10.5021 6.66418 10.4534 6.66418 10.5209 6.66418H10.4521C10.4334 6.66418 10.4459 6.66418 10.4521 6.66418H10.4621C10.4621 6.66418 10.4721 6.66418 10.4621 6.66418H10.4484C10.4196 6.67043 10.3921 6.68043 10.3659 6.69543C10.3296 6.71418 10.2946 6.73793 10.2621 6.76293C10.2246 6.79043 10.1896 6.82043 10.1571 6.85293C10.0909 6.91668 10.0321 6.97793 9.99462 7.02668L9.92962 7.10168L9.90212 7.13543C9.72087 7.33668 9.41837 7.36918 9.19837 7.21168C9.05837 7.11418 8.98712 6.94543 9.01462 6.77668C9.01462 6.77668 9.02337 6.72668 9.04837 6.63793C9.08587 6.51043 9.13712 6.38793 9.20462 6.27418C9.31087 6.08668 9.45337 5.92293 9.62587 5.79293C9.73962 5.70543 9.86587 5.63543 10.0009 5.58668C10.0384 5.57168 10.0771 5.56043 10.1159 5.55043C10.1571 5.53793 10.1984 5.52918 10.2409 5.52168L10.3184 5.51043L10.3809 5.50293H10.4496H10.5484H10.6121C10.6546 5.50293 10.6959 5.51418 10.7371 5.52043C10.8184 5.53418 10.8971 5.55543 10.9734 5.58418C11.1084 5.63293 11.2346 5.70293 11.3484 5.79043C11.5209 5.92043 11.6646 6.08418 11.7709 6.27168C11.8096 6.33668 11.8434 6.40543 11.8709 6.47543C11.8946 6.53043 11.9146 6.58668 11.9309 6.64418C11.9396 6.67418 11.9471 6.70418 11.9509 6.73418V6.76543C11.9909 7.02043 11.8159 7.25918 11.5609 7.29918C11.5571 7.29918 11.5534 7.30043 11.5496 7.30043C11.3634 7.33168 11.1746 7.25918 11.0571 7.11168Z" fill="#422B0D"/>
<path d="M12.6115 9.47887C12.6002 9.48637 11.8365 10.0576 10.4002 10.4276V9.01512C10.2365 9.04012 10.069 9.06137 9.90021 9.08012V10.5401C9.31896 10.6551 8.72771 10.7189 8.13521 10.7314V9.17887H7.93771C7.83646 9.17887 7.73646 9.17887 7.63521 9.17887V10.7314C7.68896 10.7326 7.68896 10.7339 7.63521 10.7339L7.63272 10.7314C7.05397 10.7214 6.47771 10.6664 5.90771 10.5651V9.04137C5.73771 9.01887 5.57146 8.99262 5.40771 8.96387V10.4601C3.93021 10.1089 3.18771 9.54762 3.17771 9.53887C3.13646 9.50637 3.08521 9.48762 3.03271 9.48637C3.06771 9.64387 3.12021 9.79762 3.19021 9.94387C3.23396 10.0401 3.28146 10.1326 3.33146 10.2251C3.98521 10.5714 4.68396 10.8239 5.40771 10.9751V10.9776V12.2076C5.57021 12.2864 5.73771 12.3576 5.90771 12.4189V11.0751C6.47771 11.1701 7.05522 11.2226 7.63272 11.2314L7.63521 11.2339C7.63397 11.2339 7.63397 11.2339 7.63272 11.2339V12.7601C7.72897 12.7601 7.82646 12.7701 7.92521 12.7701H7.94522C8.00897 12.7701 8.07021 12.7701 8.13271 12.7701V11.2314H8.12521H8.13271C8.72521 11.2201 9.31646 11.1601 9.90021 11.0526V12.4539C10.0702 12.3964 10.2377 12.3289 10.4002 12.2526V10.9464C11.1627 10.7714 11.8965 10.4851 12.5765 10.0976C12.589 10.0701 12.604 10.0451 12.6165 10.0176C12.7077 9.83262 12.7677 9.63387 12.7915 9.42887C12.7277 9.42137 12.6627 9.44012 12.6115 9.47887Z" fill="#B3B3B3"/>
<path d="M12.7635 8.95418C12.586 8.63793 12.2048 8.49793 11.8648 8.62543C10.5823 8.99918 9.25227 9.18543 7.91727 9.17918C6.58102 9.18543 5.25102 8.99918 3.96852 8.62543C3.63227 8.49793 3.25227 8.63543 3.07727 8.95043C2.90727 9.26418 3.02977 9.62793 3.17352 9.94168C3.23727 10.0829 3.30852 10.2217 3.38727 10.3554C3.38727 10.3554 3.12477 9.38293 3.35227 9.10043C3.42977 8.98043 3.55977 8.90543 3.70227 8.89793C3.76102 8.89793 3.81852 8.90793 3.87477 8.92543C5.17977 9.30918 6.53352 9.50293 7.89477 9.50043H7.93852C9.29977 9.50293 10.6535 9.30918 11.9585 8.92543C12.0148 8.90793 12.0723 8.89793 12.131 8.89793C12.2735 8.90543 12.4048 8.98043 12.4823 9.10043C12.7135 9.38293 12.4473 10.3592 12.4473 10.3592C12.5248 10.2254 12.6023 10.0879 12.6673 9.94543C12.8098 9.63168 12.9335 9.26918 12.7635 8.95418Z" fill="#E38A00"/>
<defs>
<radialGradient id="paint0_radial_1982_38891" cx="0" cy="0" r="1" gradientUnits="userSpaceOnUse" gradientTransform="translate(7.9502 7.8625) scale(7.11996)">
<stop stop-color="#FFDE1E"/>
<stop offset="0.53" stop-color="#FFDD16"/>
<stop offset="0.795" stop-color="#FEC114"/>
<stop offset="0.955" stop-color="#FEA311"/>
<stop offset="1" stop-color="#F49400"/>
</radialGradient>
</defs>
</svg>
