<svg width="16" height="16" viewBox="0 0 16 16" fill="none" xmlns="http://www.w3.org/2000/svg">
<g id="courseware_icon_switch">
<g id="Subtract">
<path d="M10.3335 1.33398C12.7267 1.33398 14.6668 3.27408 14.6668 5.66732C14.6668 6.30893 14.5274 6.91798 14.2771 7.4658C14.1669 7.70719 14.1256 7.97803 14.1942 8.23439L14.2792 8.55175C14.4515 9.19597 13.8622 9.78535 13.2179 9.61298L12.9964 9.55371C12.9989 9.48077 13.0002 9.40753 13.0002 9.33398C13.0002 5.91957 10.2982 3.13623 6.91583 3.00546C7.70888 1.98885 8.94492 1.33398 10.3335 1.33398Z" fill="black"/>
<path fill-rule="evenodd" clip-rule="evenodd" d="M6.66683 14.6673C9.61235 14.6673 12.0002 12.2795 12.0002 9.33398C12.0002 6.38847 9.61235 4.00065 6.66683 4.00065C3.72131 4.00065 1.3335 6.38847 1.3335 9.33398C1.3335 10.1577 1.52021 10.9377 1.85363 11.6341C1.96823 11.8735 2.00846 12.1447 1.93987 12.4011L1.72117 13.2184C1.5488 13.8626 2.13817 14.452 2.78239 14.2796L3.59975 14.0609C3.85612 13.9924 4.1273 14.0326 4.36667 14.1472C5.0631 14.4806 5.84316 14.6673 6.66683 14.6673ZM7.2001 7.30078C7.2001 6.96941 6.93147 6.70078 6.6001 6.70078C6.26873 6.70078 6.0001 6.96941 6.0001 7.30078V8.7008H4.6001C4.26873 8.7008 4.0001 8.96943 4.0001 9.3008C4.0001 9.63217 4.26873 9.9008 4.6001 9.9008H6.0001V11.3008C6.0001 11.6322 6.26873 11.9008 6.6001 11.9008C6.93147 11.9008 7.2001 11.6322 7.2001 11.3008V9.9008H8.6001C8.93147 9.9008 9.2001 9.63217 9.2001 9.3008C9.2001 8.96943 8.93147 8.7008 8.6001 8.7008L7.2001 8.7008L7.2001 7.30078Z" fill="black"/>
</g>
</g>
</svg>
