<svg width="16" height="17" viewBox="0 0 16 17" fill="none" xmlns="http://www.w3.org/2000/svg">
<path fill-rule="evenodd" clip-rule="evenodd" d="M9.72994 0.637784C9.54616 0.454072 9.2482 0.454072 9.06443 0.637785L2.66297 7.03705L2.66292 7.0371L2.66284 7.03718C2.65104 7.04897 2.64 7.06124 2.62971 7.07392L0.713155 8.9898C0.698827 9.00111 0.6851 9.01331 0.67206 9.02634C-0.224605 9.9227 -0.223081 11.3745 0.670999 12.274L0.672059 12.2751L4.22443 15.8263C4.70805 16.3097 5.35332 16.532 5.98636 16.4939V16.4998H15.2144V15.5586H7.74209L9.46513 13.8362C9.47698 13.8243 9.48806 13.812 9.49837 13.7993L15.8623 7.43304C16.046 7.24931 16.0459 6.95154 15.8622 6.76787L9.72994 0.637784ZM2.99729 8.03704L8.46422 13.5062L6.80987 15.1599L6.80935 15.1604C6.27538 15.6903 5.41772 15.6886 4.88995 15.161L1.33863 11.6109L1.33816 11.6104C0.818804 11.0874 0.809935 10.2537 1.30626 9.72396C1.3187 9.71385 1.33067 9.70306 1.34211 9.69163L2.99729 8.03704ZM9.13057 12.8362L14.864 7.10063L9.39718 1.63571L3.66375 7.36717L9.13057 12.8362Z" fill="#555555"/>
</svg>
