<svg width="16" height="16" viewBox="0 0 16 16" fill="none" xmlns="http://www.w3.org/2000/svg">
<path d="M7.9502 0.875C11.4377 0.875 15.2002 3.0625 15.2002 7.8625C15.2002 12.6625 11.4377 14.85 7.9502 14.85C6.0127 14.85 4.2252 14.2125 2.9002 13.05C1.4627 11.775 0.700195 9.975 0.700195 7.8625C0.700195 5.75 1.4627 3.9625 2.9002 2.6875C4.2252 1.525 6.0252 0.875 7.9502 0.875Z" fill="url(#paint0_radial_1982_39133)"/>
<path d="M10.395 10.607C10.9188 10.607 11.395 10.1645 11.395 9.42945C11.395 8.6957 10.9188 8.25195 10.395 8.25195C9.87127 8.25195 9.39502 8.69445 9.39502 9.42945C9.39502 10.1645 9.87002 10.607 10.395 10.607Z" fill="#422B0D"/>
<path d="M10.444 10.1158C10.5727 10.2058 10.7665 10.1771 10.8915 9.99709C11.0165 9.81584 10.9752 9.62584 10.8465 9.53584C10.7177 9.44584 10.524 9.47459 10.399 9.65459C10.274 9.83459 10.314 10.0258 10.444 10.1158Z" fill="#896024"/>
<path d="M5.6001 10.607C6.12385 10.607 6.6001 10.1645 6.6001 9.42945C6.6001 8.6957 6.12385 8.25195 5.6001 8.25195C5.07635 8.25195 4.6001 8.69445 4.6001 9.42945C4.6001 10.1645 5.07635 10.607 5.6001 10.607Z" fill="#422B0D"/>
<path d="M5.64868 10.1158C5.77743 10.2058 5.97118 10.1771 6.09618 9.99709C6.22118 9.81709 6.17993 9.62584 6.05118 9.53584C5.92243 9.44584 5.72868 9.47459 5.60368 9.65459C5.47868 9.83459 5.51993 10.0258 5.64868 10.1158Z" fill="#896024"/>
<path d="M8.02256 4.27344C9.35881 4.27344 10.4163 4.90719 11.0001 5.58344C11.0588 5.65094 11.0726 5.74344 11.0351 5.82344C10.9976 5.90469 10.9176 5.95844 10.8288 5.95844C10.7888 5.95844 10.7501 5.94719 10.7138 5.92719C10.1126 5.58094 9.10381 5.15094 8.02506 5.15094H8.00756C6.92881 5.15094 5.92006 5.57969 5.31881 5.92719C5.28256 5.94719 5.24381 5.95844 5.20381 5.95844C5.11631 5.95844 5.03506 5.90469 4.99756 5.82344C4.96131 5.74344 4.97506 5.65094 5.03256 5.58344C5.61631 4.90594 6.67381 4.27344 8.01006 4.27344" fill="#422B0D"/>
<path d="M13.9365 3.70898C14.6027 4.78398 14.9502 6.06398 14.9502 7.48773C14.9502 9.60023 14.1877 11.3877 12.7502 12.6627C11.4252 13.8252 9.62523 14.4752 7.70023 14.4752C5.44273 14.4752 3.07023 13.5565 1.67773 11.6077C3.02273 13.8152 5.55148 14.8502 7.95023 14.8502C9.87523 14.8502 11.6752 14.2002 13.0002 13.0377C14.4377 11.7627 15.2002 9.97523 15.2002 7.86273C15.2002 6.27023 14.7665 4.85523 13.9365 3.70898Z" fill="#E38A00"/>
<defs>
<radialGradient id="paint0_radial_1982_39133" cx="0" cy="0" r="1" gradientUnits="userSpaceOnUse" gradientTransform="translate(7.9502 7.8625) scale(7.11996)">
<stop stop-color="#FFDE1E"/>
<stop offset="0.53" stop-color="#FFDD16"/>
<stop offset="0.795" stop-color="#FEC114"/>
<stop offset="0.955" stop-color="#FEA311"/>
<stop offset="1" stop-color="#F49400"/>
</radialGradient>
</defs>
</svg>
