<svg width="16" height="16" viewBox="0 0 16 16" fill="none" xmlns="http://www.w3.org/2000/svg">
<path d="M7.9502 14.85C4.4627 14.85 0.700195 12.6625 0.700195 7.8625C0.700195 3.0625 4.4627 0.875 7.9502 0.875C9.8877 0.875 11.6752 1.5125 13.0002 2.675C14.4377 3.95 15.2002 5.75 15.2002 7.8625C15.2002 9.975 14.4377 11.7625 13.0002 13.0375C11.6752 14.2 9.8752 14.85 7.9502 14.85Z" fill="url(#paint0_radial_1982_39099)"/>
<path d="M13.9365 3.70898C14.6027 4.78398 14.9502 6.06398 14.9502 7.48773C14.9502 9.60023 14.1877 11.3877 12.7502 12.6627C11.4252 13.8252 9.62523 14.4752 7.70023 14.4752C5.44273 14.4752 3.07523 13.5565 1.67773 11.6077C3.02273 13.8152 5.55273 14.8502 7.95023 14.8502C9.87523 14.8502 11.6752 14.2002 13.0002 13.0377C14.4377 11.7627 15.2002 9.97523 15.2002 7.86273C15.2002 6.27023 14.7665 4.85523 13.9365 3.70898Z" fill="#E38A00"/>
<path d="M15.049 10.26C14.9103 9.56997 14.2378 9.12247 13.5465 9.26247C13.444 9.28372 13.344 9.31622 13.2503 9.36122C13.294 8.65997 12.7615 8.05497 12.0603 8.01122C11.614 7.98372 11.1865 8.19122 10.9328 8.55872C10.4765 9.24122 10.5978 10.2137 10.8078 10.9787C10.9328 11.43 10.779 11.9137 10.4165 12.21C12.9515 12.6962 14.1953 12.2225 14.8603 11.21C15.0478 10.9312 15.1153 10.5887 15.049 10.26Z" fill="#E53935"/>
<path d="M12.2612 12.5977C12.1187 12.5977 10.8975 12.484 10.4062 12.209C10.425 12.1802 11.1563 12.2015 12.2325 12.219C12.5988 12.2265 12.9638 12.1877 13.3188 12.1015C13.8188 11.9765 14.2888 11.7265 14.5688 11.2852C14.7313 11.0352 14.9 10.6927 14.8688 10.3915C14.8113 10.0027 14.63 9.64273 14.3525 9.36523C14.5663 9.43023 14.7588 9.55023 14.9113 9.71273C15.3213 10.2052 15.2613 10.9102 14.8825 11.4902C14.4062 12.2302 13.54 12.5977 12.2612 12.5977Z" fill="#C62828"/>
<path d="M11.32 8.45353C11.4675 8.32228 11.6525 8.23853 11.85 8.21728C12.0525 8.20228 12.2875 8.30353 12.33 8.50228C12.3463 8.63978 12.3013 8.77728 12.205 8.87728C12.1138 8.98353 12.0013 9.06728 11.915 9.17603C11.6813 9.46853 11.6725 9.87978 11.4963 10.2098C11.4338 10.326 11.3075 10.4435 11.1875 10.3898C11.15 10.371 11.1188 10.3435 11.095 10.3098C10.6725 9.79478 10.825 8.87478 11.32 8.45353Z" fill="#EF5350"/>
<path d="M13.0915 9.88793C13.0453 9.92043 12.989 9.93418 12.9328 9.92668C12.8753 9.91418 12.8278 9.87293 12.8078 9.81793C12.7865 9.75793 12.8028 9.69168 12.849 9.64918C12.894 9.59293 12.9253 9.52793 12.9428 9.45918C12.9803 9.31543 12.9903 9.16668 12.974 9.01918C12.9553 8.78293 12.784 8.43793 12.6865 8.22168C12.9065 8.35793 13.0828 8.55543 13.194 8.78918C13.2715 8.98418 13.3078 9.19168 13.3028 9.40168C13.3128 9.58043 13.2428 9.75418 13.1115 9.87668L13.0915 9.88793Z" fill="#C62828"/>
<path d="M12.1789 6.92867L12.1551 6.89492C12.1326 6.86242 12.1076 6.83117 12.0814 6.80117C11.9926 6.69867 11.8901 6.60742 11.7789 6.52992C11.6289 6.42492 11.4664 6.33867 11.2951 6.27367C11.2014 6.23742 11.1051 6.20617 11.0076 6.18242C10.9589 6.16992 10.9051 6.15742 10.8514 6.14742L10.7764 6.13367C10.8001 6.11992 10.8239 6.10617 10.8489 6.09367L11.0676 5.97867C11.2101 5.90617 11.3426 5.84367 11.4551 5.79242C11.5676 5.74117 11.6601 5.70617 11.7226 5.68242L11.8176 5.64742L11.8451 5.63742C12.0239 5.57242 12.1164 5.37367 12.0501 5.19492C12.0014 5.06367 11.8789 4.97367 11.7389 4.96867C11.6864 4.96617 11.6351 4.96617 11.5826 4.96867C11.4564 4.97992 11.3301 5.00117 11.2076 5.03242C11.0401 5.07367 10.8764 5.12867 10.7164 5.19492C10.6314 5.23117 10.5414 5.26742 10.4551 5.31117C10.3689 5.35492 10.2751 5.40367 10.1976 5.44617C10.1201 5.48867 10.0264 5.54742 9.94764 5.60117C9.86889 5.65492 9.78764 5.71117 9.71264 5.76617C9.57389 5.86867 9.44389 5.98242 9.32139 6.10367C9.23014 6.19367 9.14639 6.29117 9.07139 6.39617C9.04514 6.42867 9.02014 6.46367 9.00014 6.49992L8.98264 6.52867C8.93639 6.60992 8.92514 6.70617 8.95139 6.79617C8.95514 6.82617 8.96264 6.85492 8.97264 6.88242C9.04389 7.05867 9.24514 7.14492 9.42264 7.07367L9.45389 7.06117L9.49014 7.04617L9.52014 7.03992L9.62014 7.01492C9.66014 7.00492 9.70889 6.99742 9.76139 6.98867C9.88514 6.97117 10.0114 6.96117 10.1364 6.96117C10.2851 6.96117 10.4326 6.97242 10.5801 6.99242C10.6051 6.99242 10.6714 7.00492 10.6976 7.01117L10.8026 7.03242C10.8764 7.04867 10.9476 7.06367 11.0139 7.08492C11.1339 7.11742 11.2526 7.15992 11.3664 7.20992C11.4426 7.24367 11.5151 7.28367 11.5864 7.32742C11.6364 7.35742 11.6614 7.37492 11.6614 7.37492L11.6964 7.40117C11.8476 7.51367 12.0614 7.48117 12.1739 7.32992C12.2626 7.20992 12.2639 7.04742 12.1764 6.92742L12.1789 6.92867Z" fill="#422B0D"/>
<path d="M9.10781 10.6165C9.32156 10.4277 9.45531 10.1665 9.48281 9.88274C9.50656 9.43274 9.39156 9.27774 9.24406 9.08149C8.90531 8.62524 7.94406 8.73399 7.94406 8.73399C7.69406 8.74399 7.38906 8.86649 7.42531 9.16399C7.47406 9.33274 7.61156 9.46149 7.78406 9.50024C8.15906 9.59149 8.70531 9.50024 8.72031 9.88649C8.73781 10.319 8.07281 10.1365 8.02031 10.599C7.96781 11.0615 8.72031 10.9977 8.72031 11.3127C8.72031 11.554 8.47031 11.5952 8.21156 11.6502C7.98781 11.6965 7.55781 11.7665 7.52281 12.0252C7.48781 12.284 7.63656 12.5965 8.24156 12.5052C9.19281 12.3615 9.51281 11.8402 9.51281 11.5202C9.51906 11.174 9.37031 10.8427 9.10781 10.6165Z" fill="#422B0D"/>
<path d="M5.42544 3.88251C5.70169 3.79876 5.66169 3.39626 5.35044 3.42751C5.10794 3.45626 4.87169 3.52251 4.65044 3.62501C4.04544 3.89501 3.56794 4.38751 3.31544 5.00001C3.20294 5.28751 3.58294 5.43126 3.73169 5.19626C4.13294 4.58126 4.72919 4.11751 5.42544 3.88251Z" fill="#422B0D"/>
<path d="M5.45898 5.11719C4.93523 5.11719 4.45898 5.55969 4.45898 6.29469C4.45898 7.02969 4.93523 7.47094 5.45898 7.47094C5.98273 7.47094 6.45898 7.02844 6.45898 6.29469C6.45898 5.56094 5.98273 5.11719 5.45898 5.11719Z" fill="#422B0D"/>
<path d="M5.41029 5.60827C5.23279 5.52327 5.01904 5.59827 4.93279 5.77577C4.86654 5.91452 4.89654 6.08077 5.00779 6.18827C5.18529 6.27327 5.39904 6.19827 5.48529 6.02077C5.55154 5.88202 5.52154 5.71577 5.41029 5.60827Z" fill="#896024"/>
<defs>
<radialGradient id="paint0_radial_1982_39099" cx="0" cy="0" r="1" gradientUnits="userSpaceOnUse" gradientTransform="translate(7.9502 7.8625) scale(7.11996)">
<stop stop-color="#FFDE1E"/>
<stop offset="0.53" stop-color="#FFDD16"/>
<stop offset="0.795" stop-color="#FEC114"/>
<stop offset="0.955" stop-color="#FEA311"/>
<stop offset="1" stop-color="#F49400"/>
</radialGradient>
</defs>
</svg>
