<svg width="160" height="161" viewBox="0 0 160 161" fill="none" xmlns="http://www.w3.org/2000/svg">
<path d="M97.2222 98.3372C97.5431 98.3372 99.3422 98.9918 101.876 102.649C105.394 98.9876 108.971 100.525 109.457 101.741C110.289 103.823 113.017 109.018 111.007 111.497C108.996 113.976 105.276 118.465 99.8574 117.38C94.4391 116.294 93.662 106.074 94.1266 103.908C94.5911 101.741 97.2222 98.333 97.2222 98.333V98.3372Z" fill="url(#paint0_radial_2291_16850)"/>
<path d="M56.3587 123.829C56.3587 123.829 57.0978 145.51 63.6522 149.032C67.6346 151.174 72.4575 151.317 74.8267 144.569C76.423 140.029 75.5066 136.667 75.3208 127.933C75.0759 116.353 56.3545 123.824 56.3545 123.824L56.3587 123.829Z" fill="url(#paint1_radial_2291_16850)"/>
<path d="M75.3254 127.933C75.4732 135.003 76.1024 138.55 75.4901 142.056C72.2762 132.579 60.8567 129.162 56.6124 127.68C56.4097 125.357 56.3633 123.824 56.3633 123.824C56.3633 123.824 75.0846 116.349 75.3296 127.933H75.3254Z" fill="#C1E2F3" fill-opacity="0.16"/>
<path d="M58.8626 140.97C59.9438 144.686 61.4768 147.862 63.6517 149.032C67.6342 151.173 72.457 151.317 74.8263 144.568C75.3457 143.094 75.5949 141.739 75.692 140.29C69.3235 145.21 62.1778 142.659 58.8584 140.97H58.8626Z" fill="#0078B8"/>
<path d="M53.2374 93.5316C53.2374 93.5316 46.8857 111.172 54.9267 123.394C59.6228 130.531 74.4589 130.155 74.4589 130.155C74.4589 130.155 89.2949 130.531 93.9911 123.394C102.032 111.172 95.6804 93.5316 95.6804 93.5316C95.6804 93.5316 73.3313 82.8258 53.2374 93.5316Z" fill="url(#paint2_radial_2291_16850)"/>
<path d="M93.9874 123.389C88.9576 123.343 87.2684 121.405 86.7405 118.486C90.3302 117.219 92.6783 113.457 91.9139 110.568C90.4484 105.044 81.698 102.476 71.537 100.538C55.4889 97.4802 54.0826 100.994 51.1602 102.996C51.8021 97.5098 53.2337 93.5316 53.2337 93.5316C73.3319 82.8258 95.6767 93.5316 95.6767 93.5316C95.6767 93.5316 102.028 111.172 93.9874 123.394V123.389Z" fill="#C1E2F3" fill-opacity="0.16"/>
<path d="M36.0279 46.2405C34.4484 52.7822 29.8241 57.2757 25.7023 56.279C21.5804 55.2824 19.5237 49.1714 21.1032 42.6339C22.6827 36.0922 27.3071 31.5988 31.4289 32.5954C35.5507 33.5921 37.6074 39.703 36.0279 46.2405Z" fill="#0078B8"/>
<path d="M124.331 67.589C122.751 74.1307 124.808 80.2374 128.93 81.2341C133.052 82.2308 137.672 77.7373 139.255 71.1956C140.835 64.6539 138.778 58.5472 134.656 57.5505C130.535 56.5538 125.914 61.0473 124.331 67.589Z" fill="#0078B8"/>
<path d="M70.5648 96.7074C96.1657 102.899 116.002 96.6821 123.866 88.7298C131.729 80.7775 141.92 54.3784 130.699 35.8978C123.355 23.7984 106.403 17.4594 91.1613 13.6838C79.9276 10.9008 59.6986 6.87185 44.8583 15.1451C25.9764 25.6735 23.4383 54.598 26.8 65.2658C30.1616 75.9336 44.9639 90.5247 70.5648 96.7158V96.7074Z" fill="url(#paint3_radial_2291_16850)"/>
<path d="M109.529 73.4205C108.067 79.4681 101.978 83.1888 95.9257 81.7233L55.1297 71.858C49.0822 70.3967 45.3615 64.3069 46.827 58.2551L53.7107 29.7782C55.172 23.7306 61.2618 20.01 67.3094 21.4754L108.105 31.3408C114.153 32.802 117.874 38.8918 116.408 44.9436L109.524 73.4205H109.529Z" fill="#004367"/>
<path d="M55.5308 70.2157C50.3954 68.9741 47.2322 63.788 48.4738 58.6569L55.3576 30.18C56.5992 25.0488 61.7853 21.8814 66.9207 23.123L107.717 32.9884C112.848 34.23 116.015 39.4161 114.778 44.5472L107.894 73.0241C106.652 78.1595 101.466 81.3227 96.3352 80.0811L55.5392 70.2157H55.5308Z" fill="#0078B8"/>
<path d="M74.5182 51.722C74.4042 51.7094 74.2944 51.6883 74.1803 51.646C73.4582 51.3842 73.0781 50.5902 73.3399 49.8638C73.4751 49.4922 73.5975 49.1079 73.7031 48.7236C75.063 43.8627 73.965 39.1285 71.3128 38.3895C68.6607 37.6462 65.2694 41.1261 63.9096 45.9912C63.69 46.7767 63.5295 47.5707 63.4366 48.3519C63.3437 49.1163 62.6299 49.6527 61.8824 49.564C61.118 49.4711 60.5733 48.7743 60.6704 48.0099C60.7844 47.0892 60.9702 46.1601 61.2279 45.2395C63.0523 38.7062 67.8202 34.521 72.0645 35.7035C76.3173 36.8902 78.2177 42.9378 76.3933 49.4753C76.2666 49.923 76.123 50.3749 75.9667 50.8098C75.7471 51.4222 75.1432 51.7854 74.5224 51.7263L74.5182 51.722Z" fill="url(#paint4_linear_2291_16850)"/>
<path d="M100.411 59.3152C100.297 59.3026 100.179 59.2772 100.064 59.2392C99.3423 58.9774 98.9707 58.175 99.2325 57.4528C99.4395 56.8827 99.6168 56.2914 99.7604 55.696C100.939 50.7886 99.6717 46.0967 96.99 45.4548C94.3125 44.8086 91.048 48.411 89.8697 53.3183C89.8148 53.5421 89.7684 53.7618 89.7219 53.9856C89.5741 54.7415 88.8435 55.2356 88.0833 55.0836C87.3274 54.9358 86.8375 54.201 86.9853 53.445C87.036 53.1874 87.0951 52.9256 87.1542 52.668C88.7379 46.0713 93.3412 41.7088 97.6361 42.7435C101.927 43.7739 104.051 49.7497 102.463 56.3463C102.294 57.0474 102.087 57.74 101.842 58.4073C101.619 59.0154 101.019 59.3786 100.402 59.3195L100.411 59.3152Z" fill="url(#paint5_linear_2291_16850)"/>
<path d="M77.0565 55.793C77.0565 55.793 82.0483 56.9332 84.9116 57.5709C84.9116 57.5709 83.5011 63.9522 79.451 63.2638C74.6915 62.4487 77.0523 55.793 77.0523 55.793H77.0565Z" fill="url(#paint6_linear_2291_16850)"/>
<path d="M65.3456 25.3271C61.7432 25.0357 58.4407 27.5231 57.4989 29.8079C56.4769 32.2953 56.3756 36.13 59.771 34.7997C61.9037 33.9635 63.783 30.2809 69.932 29.5291C74.7084 28.9463 71.2919 25.8085 65.3456 25.3271Z" fill="white"/>
<path d="M42.9499 67.5206C43.4904 67.8289 45.2726 68.2174 46.8225 71.8578C48.3724 75.4982 51.7003 86.9557 56.1135 92.0657C56.1135 92.0657 56.7428 100.905 51.1682 102.995C45.5936 105.086 26.5344 91.0564 27.6197 76.271C28.3039 66.9167 42.9499 67.5206 42.9499 67.5206Z" fill="url(#paint7_radial_2291_16850)"/>
<path d="M109.343 97.1339C109.343 97.1339 105.969 95.7699 103.186 98.5783C100.88 100.909 99.4228 106.349 105.749 108.815C112.595 111.484 114.322 109.318 115.855 106.518C116.911 104.588 117.35 98.7134 109.343 97.1339Z" fill="#0078B8"/>
<path fill-rule="evenodd" clip-rule="evenodd" d="M102.582 101.262C102.586 101.097 102.723 100.965 102.888 100.969C103.395 100.98 103.902 100.983 104.4 100.986C105.708 100.995 106.959 101.003 107.991 101.147C109.406 101.344 110.598 101.819 110.914 103.079C110.998 103.411 110.962 103.718 110.819 103.986C110.681 104.248 110.454 104.45 110.196 104.609C109.683 104.922 108.971 105.107 108.279 105.219C107.58 105.333 106.867 105.378 106.332 105.395C106.064 105.403 105.839 105.405 105.681 105.404C105.601 105.404 105.539 105.403 105.496 105.402L105.446 105.401L105.433 105.401L105.429 105.401C105.264 105.395 105.132 105.257 105.137 105.091C105.142 104.926 105.281 104.796 105.446 104.801C105.446 104.801 105.446 104.801 105.446 104.801L105.45 104.801L105.461 104.801L105.507 104.802C105.547 104.803 105.607 104.804 105.683 104.804C105.836 104.805 106.053 104.803 106.313 104.795C106.834 104.779 107.519 104.735 108.183 104.627C108.855 104.518 109.473 104.348 109.882 104.097C110.085 103.973 110.217 103.841 110.289 103.705C110.357 103.577 110.382 103.424 110.332 103.226C110.116 102.362 109.3 101.935 107.908 101.741C106.918 101.603 105.73 101.595 104.439 101.587C103.932 101.584 103.409 101.58 102.876 101.569C102.71 101.565 102.579 101.428 102.582 101.262Z" fill="#0F4F72"/>
<path fill-rule="evenodd" clip-rule="evenodd" d="M113.085 106.081L113.083 106.086L113.071 106.11C113.061 106.132 113.046 106.165 113.03 106.206C112.998 106.29 112.963 106.4 112.946 106.516C112.912 106.753 112.957 106.932 113.148 107.039C113.53 107.255 113.847 107.308 114.102 107.285C114.36 107.261 114.581 107.158 114.765 107.022C114.951 106.885 115.095 106.719 115.193 106.585C115.241 106.518 115.277 106.461 115.301 106.422C115.313 106.402 115.321 106.387 115.326 106.377L115.332 106.367C115.332 106.367 115.332 106.367 115.332 106.367C115.406 106.219 115.587 106.158 115.735 106.232C115.883 106.307 115.943 106.487 115.868 106.635L115.6 106.501C115.868 106.635 115.868 106.635 115.868 106.635L115.867 106.638L115.864 106.644L115.853 106.664C115.845 106.679 115.833 106.701 115.817 106.728C115.785 106.781 115.739 106.854 115.677 106.938C115.556 107.105 115.371 107.321 115.121 107.505C114.87 107.69 114.548 107.847 114.157 107.882C113.764 107.918 113.327 107.83 112.853 107.562C112.348 107.277 112.303 106.776 112.352 106.431C112.378 106.256 112.428 106.1 112.471 105.99C112.492 105.934 112.512 105.888 112.528 105.856C112.535 105.84 112.542 105.827 112.546 105.817L112.552 105.806L112.554 105.802L112.555 105.8C112.555 105.8 112.555 105.8 112.818 105.939L112.555 105.8C112.633 105.654 112.815 105.598 112.961 105.676C113.107 105.754 113.163 105.935 113.085 106.081C113.085 106.081 113.085 106.081 113.085 106.081Z" fill="#0F4F72"/>
<path fill-rule="evenodd" clip-rule="evenodd" d="M105.334 97.3947C105.493 97.4408 105.585 97.6071 105.539 97.7663L105.251 97.6829L104.962 97.5995C105.009 97.4404 105.175 97.3487 105.334 97.3947ZM104.82 101.049C104.885 101.183 104.842 101.347 104.714 101.431C104.575 101.521 104.389 101.483 104.298 101.344C104.247 101.265 104.231 101.179 104.224 101.123C104.216 101.06 104.216 100.991 104.218 100.924C104.223 100.787 104.244 100.623 104.272 100.446C104.33 100.092 104.426 99.6559 104.528 99.237C104.63 98.8168 104.738 98.4076 104.821 98.1039C104.863 97.9519 104.898 97.826 104.923 97.7381L104.952 97.636L104.96 97.609L104.962 97.5995L105.251 97.6829L105.539 97.7663L105.536 97.7749L105.529 97.8011L105.5 97.9012C105.476 97.9877 105.441 98.1119 105.4 98.262C105.318 98.5625 105.211 98.9657 105.111 99.3785C105.01 99.7927 104.918 100.211 104.864 100.542C104.837 100.709 104.821 100.846 104.818 100.946C104.816 100.996 104.817 101.03 104.82 101.049Z" fill="#0F4F72"/>
<path fill-rule="evenodd" clip-rule="evenodd" d="M108.614 96.9308C108.779 96.9359 108.909 97.0743 108.904 97.2399L108.904 97.2427L108.904 97.2497L108.903 97.2761L108.899 97.3755C108.895 97.4612 108.888 97.5841 108.878 97.7345C108.858 98.035 108.825 98.4464 108.768 98.8891C108.712 99.3307 108.634 99.809 108.523 100.241C108.414 100.666 108.266 101.078 108.057 101.365C107.959 101.499 107.772 101.528 107.638 101.43C107.504 101.332 107.475 101.145 107.572 101.011C107.712 100.82 107.837 100.499 107.941 100.092C108.044 99.6932 108.119 99.2419 108.173 98.8136C108.227 98.3862 108.26 97.9873 108.28 97.695C108.289 97.5489 108.296 97.4299 108.299 97.3476L108.303 97.2531L108.304 97.229L108.304 97.223C108.31 97.0574 108.448 96.9257 108.614 96.9308Z" fill="#0F4F72"/>
<path fill-rule="evenodd" clip-rule="evenodd" d="M112.662 98.0938C112.825 98.1263 112.93 98.2843 112.898 98.4468C112.894 98.4639 112.888 98.5024 112.879 98.5591C112.828 98.8742 112.686 99.7523 112.427 100.658C112.273 101.195 112.074 101.758 111.821 102.239C111.57 102.712 111.246 103.145 110.823 103.37C110.676 103.448 110.495 103.392 110.417 103.246C110.339 103.1 110.395 102.918 110.541 102.84C110.806 102.7 111.059 102.395 111.29 101.958C111.517 101.529 111.702 101.01 111.85 100.493C112.094 99.6389 112.225 98.8359 112.282 98.4873C112.295 98.412 112.304 98.3579 112.309 98.3291C112.342 98.1666 112.5 98.0613 112.662 98.0938Z" fill="#0F4F72"/>
<path fill-rule="evenodd" clip-rule="evenodd" d="M115.681 100.811C115.845 100.836 115.957 100.989 115.933 101.152C115.918 101.251 115.864 101.396 115.802 101.544C115.736 101.705 115.644 101.906 115.533 102.132C115.31 102.584 115.005 103.145 114.657 103.698C114.309 104.248 113.913 104.8 113.506 105.227C113.113 105.641 112.658 105.995 112.189 106.047C111.591 106.114 111.132 106.041 110.788 105.863C110.439 105.681 110.237 105.406 110.128 105.127C110.021 104.855 110.003 104.582 110.009 104.384C110.012 104.284 110.021 104.2 110.029 104.139C110.034 104.109 110.038 104.084 110.041 104.067L110.045 104.045L110.047 104.038L110.047 104.036L110.047 104.035L110.047 104.035C110.047 104.035 110.048 104.034 110.339 104.1L110.048 104.034C110.084 103.873 110.244 103.771 110.406 103.808C110.567 103.844 110.669 104.004 110.633 104.165C110.633 104.165 110.633 104.166 110.633 104.166L110.34 104.1C110.633 104.166 110.633 104.166 110.633 104.166L110.633 104.165L110.633 104.165L110.633 104.166L110.631 104.176C110.629 104.186 110.626 104.202 110.623 104.223C110.617 104.266 110.611 104.328 110.608 104.401C110.604 104.552 110.62 104.738 110.687 104.909C110.751 105.073 110.863 105.226 111.065 105.33C111.271 105.437 111.601 105.509 112.123 105.451L112.123 105.451C112.364 105.424 112.69 105.215 113.072 104.814C113.44 104.427 113.812 103.912 114.149 103.378C114.485 102.845 114.78 102.303 114.994 101.867C115.101 101.649 115.188 101.46 115.248 101.314C115.279 101.241 115.302 101.181 115.318 101.134C115.334 101.086 115.339 101.065 115.339 101.063C115.339 101.063 115.339 101.063 115.339 101.063C115.364 100.899 115.517 100.786 115.681 100.811Z" fill="#0F4F72"/>
<path d="M95.5118 126.468C95.0979 128.499 94.3589 130.856 93.2693 133.039C91.7194 136.156 89.4557 138.91 86.4066 139.847C83.3026 140.802 78.07 138.893 77.4197 133.47C77.3774 133.12 77.3479 132.773 77.3225 132.435C77.255 131.354 77.2845 130.332 77.3859 129.34C77.7111 126.388 78.712 123.715 79.7973 120.758C81.5162 116.522 86.6135 116.273 89.4431 117.156C91.7363 117.87 95.4695 119.386 95.8665 122.148C95.9974 123.073 95.8919 124.635 95.516 126.464L95.5118 126.468Z" fill="url(#paint8_radial_2291_16850)"/>
<path d="M56.1095 92.0658C51.6963 86.9558 48.3684 75.4983 46.8185 71.8579C45.7542 69.362 44.5844 68.3949 43.7778 67.9346C43.5286 68.0824 43.2794 68.2471 43.0303 68.4414C43.0303 68.4414 53.3813 98.1303 51.1599 102.995C56.7345 100.905 56.1053 92.0658 56.1053 92.0658H56.1095Z" fill="#C1E2F3" fill-opacity="0.16"/>
<path d="M35.3779 57.9893C35.3779 57.9893 38.4946 54.0829 42.4601 60.481C45.1968 63.7498 46.4933 70.9418 38.0342 73.4504C28.8868 76.1659 26.885 73.1759 25.2042 69.3835C23.7599 67.0143 23.4263 63.4964 25.9771 62.5293C26.0277 61.2116 27.5059 59.2014 30.2889 59.2141C31.0449 57.5121 33.9504 56.9842 35.3736 57.9893H35.3779Z" fill="#0078B8"/>
<path fill-rule="evenodd" clip-rule="evenodd" d="M36.0027 63.9818C34.1778 64.0825 33.0191 64.5488 32.6248 65.701C32.5321 65.9719 32.5481 66.1962 32.6319 66.3929C32.719 66.5972 32.89 66.7959 33.1466 66.9859C33.6647 67.3694 34.4595 67.6645 35.3198 67.8846C36.1726 68.1027 37.0573 68.2392 37.7317 68.3212C38.0682 68.3621 38.3508 68.3892 38.5489 68.4061C38.648 68.4146 38.7258 68.4204 38.7786 68.4242L38.8386 68.4283L38.8535 68.4292L38.8571 68.4294L38.8405 68.729M38.8405 68.729L38.8227 69.0285L38.8167 69.0281L38.7999 69.027L38.7361 69.0227C38.6807 69.0187 38.6 69.0126 38.498 69.0039C38.2939 68.9865 38.004 68.9587 37.6593 68.9168C36.9711 68.8331 36.0584 68.6928 35.1712 68.4659C34.2916 68.2409 33.4039 67.9229 32.7897 67.4682C32.4801 67.239 32.2225 66.9625 32.08 66.6281C31.9342 66.2861 31.9197 65.9083 32.0572 65.5067C32.5835 63.9686 34.1213 63.4847 35.9696 63.3827C37.3172 63.3084 38.9294 63.4325 40.623 63.5629C41.2668 63.6125 41.9224 63.663 42.5797 63.7038C42.7451 63.7141 42.8708 63.8565 42.8605 64.0218C42.8503 64.1872 42.7079 64.3129 42.5425 64.3027C41.8587 64.2602 41.187 64.2085 40.5345 64.1582C38.858 64.0291 37.3079 63.9098 36.0027 63.9818" fill="#0F4F72"/>
<path fill-rule="evenodd" clip-rule="evenodd" d="M29.0671 68.352C29.2191 68.2861 29.3958 68.3558 29.4617 68.5078L29.1865 68.6272C29.4617 68.5078 29.4618 68.5079 29.4618 68.508L29.4619 68.5083L29.4622 68.5089L29.4629 68.5105L29.465 68.5155L29.472 68.5324C29.4777 68.5465 29.4857 68.5665 29.4951 68.5916C29.514 68.6417 29.5391 68.7126 29.5654 68.799C29.6175 68.9704 29.6762 69.2093 29.697 69.4702C29.7376 69.9811 29.6327 70.6801 28.9104 71.0115C28.2584 71.3107 27.6728 71.376 27.1597 71.2904C26.6493 71.2052 26.2311 70.9741 25.9046 70.7119C25.579 70.4504 25.339 70.1535 25.1811 69.9244C25.1017 69.8093 25.042 69.7097 25.0016 69.6379C24.9814 69.6019 24.9659 69.5728 24.9552 69.552L24.9427 69.5272L24.9391 69.5198L24.9379 69.5174L24.9375 69.5166L24.9373 69.5162C24.9373 69.5161 24.9372 69.5159 25.2083 69.3874L24.9372 69.5159C24.8662 69.3662 24.93 69.1873 25.0797 69.1163C25.2293 69.0454 25.4081 69.1091 25.4792 69.2586C25.4792 69.2586 25.4792 69.2586 25.4792 69.2586C25.4792 69.2586 25.4792 69.2586 25.4792 69.2586L25.4792 69.2586L25.4791 69.2584L25.4791 69.2583C25.479 69.2582 25.4791 69.2583 25.4792 69.2585L25.4807 69.2616L25.4887 69.2775C25.4962 69.2921 25.5082 69.3147 25.5246 69.3438C25.5573 69.4021 25.6075 69.4859 25.6751 69.5839C25.811 69.7811 26.0132 70.0295 26.2804 70.2441C26.5468 70.4581 26.8721 70.6341 27.2585 70.6985C27.6421 70.7626 28.1065 70.7202 28.6602 70.4662C29.0365 70.2935 29.1322 69.9366 29.0988 69.5178C29.0826 69.3138 29.0356 69.1194 28.9913 68.9735C28.9694 68.9014 28.9486 68.8428 28.9336 68.803C28.9261 68.7832 28.9201 68.7681 28.9162 68.7584L28.912 68.7482L28.9113 68.7466" fill="#0F4F72"/>
<path fill-rule="evenodd" clip-rule="evenodd" d="M39.8249 58.8058C39.9873 58.7731 40.1455 58.8783 40.1781 59.0407L39.884 59.0999L39.5899 59.159C39.5573 58.9966 39.6624 58.8384 39.8249 58.8058ZM40.161 63.5345C40.162 63.5309 40.1633 63.5257 40.1648 63.5188C40.1713 63.4878 40.1773 63.4398 40.1805 63.372C40.1869 63.2369 40.1809 63.0541 40.164 62.8341C40.1302 62.3958 40.0558 61.8426 39.9704 61.2952C39.8852 60.7492 39.79 60.215 39.7161 59.8168C39.6792 59.6179 39.6476 59.4532 39.6252 59.3383L39.5992 59.2054L39.5923 59.1707L39.5899 59.159L39.884 59.0999L40.1781 59.0407L40.1806 59.0532L40.1877 59.0888L40.2142 59.2237C40.2368 59.34 40.2687 59.5064 40.306 59.7073C40.3806 60.1088 40.4768 60.6491 40.5632 61.2027C40.6493 61.7549 40.7266 62.3263 40.7622 62.788C40.7799 63.018 40.7879 63.229 40.7799 63.4002C40.7758 63.4856 40.7675 63.5689 40.7517 63.6435C40.7374 63.7107 40.7103 63.8051 40.6474 63.8848C40.5447 64.0148 40.3561 64.037 40.226 63.9344C40.103 63.8372 40.0765 63.6632 40.161 63.5345Z" fill="#0F4F72"/>
<path fill-rule="evenodd" clip-rule="evenodd" d="M35.8931 58.1701C35.8931 58.1701 35.8931 58.1701 35.8931 58.1701L35.893 58.1724L35.8926 58.1802L35.8911 58.212C35.8899 58.2401 35.8881 58.2818 35.8862 58.3355C35.8822 58.4429 35.8775 58.5983 35.8743 58.7891C35.8678 59.1709 35.8674 59.6928 35.8916 60.2542C35.9159 60.8166 35.9646 61.413 36.055 61.9456C36.1467 62.4861 36.2763 62.9286 36.4451 63.2055C36.5314 63.347 36.4866 63.5316 36.3451 63.6178C36.2037 63.7041 36.0191 63.6593 35.9328 63.5178C35.7026 63.1402 35.5582 62.6045 35.4634 62.0459C35.3673 61.4794 35.317 60.8558 35.2922 60.2801C35.2673 59.7033 35.2677 59.1689 35.2744 58.7789C35.2777 58.5838 35.2825 58.4244 35.2866 58.3136C35.2886 58.2582 35.2904 58.2148 35.2917 58.1852L35.2933 58.1512L35.2937 58.1423L35.2939 58.1399C35.3025 57.9744 35.4436 57.8463 35.6091 57.8549C35.7745 57.8635 35.9017 58.0046 35.8931 58.1701Z" fill="#0F4F72"/>
<path fill-rule="evenodd" clip-rule="evenodd" d="M30.2581 58.9161C30.4227 58.8968 30.5718 59.0145 30.5911 59.179C30.5955 59.2164 30.6012 59.2885 30.6093 59.3896C30.6456 59.8482 30.7294 60.9045 30.9528 62.0367C31.0886 62.7247 31.2732 63.4233 31.5231 64.0111C31.7762 64.6067 32.0792 65.0475 32.4274 65.271C32.5669 65.3605 32.6074 65.5461 32.5179 65.6856C32.4284 65.825 32.2428 65.8655 32.1034 65.776C31.6028 65.4547 31.2401 64.8793 30.9709 64.2458C30.6984 63.6046 30.504 62.8613 30.3642 62.1529C30.1301 60.9669 30.0415 59.83 30.0086 59.4077C30.0023 59.3277 29.9981 59.2734 29.9952 59.2491C29.9759 59.0846 30.0936 58.9355 30.2581 58.9161Z" fill="#0F4F72"/>
<path fill-rule="evenodd" clip-rule="evenodd" d="M26.0567 62.1121C26.2219 62.1002 26.3656 62.2244 26.3775 62.3897C26.3802 62.4267 26.4049 62.5476 26.4654 62.758C26.5229 62.9578 26.6059 63.2158 26.7115 63.5126C26.923 64.1063 27.2225 64.8473 27.5841 65.578C27.9467 66.3108 28.3662 67.0217 28.8149 67.5628C29.2721 68.1143 29.718 68.4386 30.1236 68.4955L30.1396 68.4977L30.1395 68.4982C30.8203 68.6313 31.2764 68.5785 31.5809 68.4557C31.8797 68.3352 32.0592 68.1366 32.1713 67.9196C32.2864 67.6968 32.3311 67.4518 32.3448 67.2544C32.3516 67.1571 32.3507 67.0751 32.3481 67.0185C32.3469 66.9903 32.3452 66.9687 32.344 66.9549L32.3426 66.9403L32.3424 66.9387L32.3424 66.9384C32.3215 66.7742 32.4377 66.6241 32.6019 66.6031C32.7663 66.5821 32.9165 66.6983 32.9375 66.8626L32.64 66.9007C32.9375 66.8626 32.9376 66.8628 32.9376 66.863L32.9376 66.8634L32.9378 66.8644L32.9381 66.8671L32.939 66.8751L32.9416 66.9014C32.9436 66.9232 32.9458 66.9538 32.9475 66.9915C32.9509 67.0669 32.952 67.1722 32.9434 67.2962C32.9263 67.5413 32.8699 67.8746 32.7044 68.1949C32.5359 68.5211 32.2554 68.8306 31.8054 69.0121C31.3625 69.1908 30.7833 69.2344 30.032 69.0885C29.3999 68.9965 28.833 68.5246 28.353 67.9458C27.8625 67.3542 27.4191 66.5973 27.0464 65.8441C26.6726 65.0888 26.3642 64.3256 26.1463 63.7139C26.0374 63.4079 25.9503 63.1378 25.8888 62.9238C25.8303 62.7203 25.787 62.5416 25.7791 62.433C25.7671 62.2678 25.8914 62.1241 26.0567 62.1121Z" fill="#0F4F72"/>
<path d="M93.2733 133.044C94.3629 130.86 95.0977 128.499 95.5158 126.472C95.8917 124.644 95.9972 123.081 95.8663 122.156C94.3502 128.309 91.6051 130.81 86.3937 131.511C82.1241 132.089 78.8976 128.124 77.8713 126.679C77.6602 127.553 77.4912 128.436 77.3899 129.348C77.2843 130.341 77.259 131.363 77.3266 132.444C77.3477 132.782 77.3815 133.128 77.4237 133.479C78.0741 138.901 83.3066 140.806 86.4106 139.856C89.464 138.922 91.7234 136.165 93.2733 133.048V133.044Z" fill="#C1E2F3" fill-opacity="0.16"/>
<path d="M93.2732 133.043C91.7233 136.16 89.4597 138.913 86.4105 139.851C83.3065 140.805 78.0739 138.897 77.4236 133.474C77.3813 133.123 77.3518 132.777 77.3264 132.439C77.2589 131.358 77.2884 130.336 77.3898 129.344C77.5798 129.483 77.7699 129.614 77.9599 129.741C84.7761 134.466 90.0509 134.247 93.2732 133.039V133.043Z" fill="#0078B8"/>
<path fill-rule="evenodd" clip-rule="evenodd" d="M80.0772 120.87C80.0394 120.974 80.0018 121.077 79.9643 121.179C78.9887 123.849 78.1073 126.26 77.7506 128.869C77.7281 129.034 77.5769 129.148 77.4127 129.126C77.2486 129.104 77.1337 128.952 77.1561 128.788C77.5218 126.113 78.4236 123.646 79.3926 120.996C79.4335 120.884 79.4744 120.772 79.5154 120.66L79.5191 120.65L79.5192 120.65C80.4223 118.424 82.2161 117.251 84.1278 116.752C86.0308 116.254 88.07 116.418 89.5323 116.874L89.5324 116.874C91.0776 117.356 93.3253 118.213 94.7735 119.604C94.893 119.719 94.8968 119.909 94.782 120.028C94.6673 120.148 94.4774 120.152 94.3579 120.037C93.0188 118.751 90.8913 117.927 89.3536 117.446M80.0772 120.87C80.8936 118.863 82.5067 117.795 84.2794 117.332C86.0621 116.866 87.9863 117.02 89.3535 117.446" fill="#417794"/>
<path d="M4 52.9L8.58536 48.875L13.5 51.9704L10.5512 56L4 52.9Z" fill="#F5F8F9"/>
<path d="M17.375 120.375C18.524 119.998 24.2691 117.375 24.2691 117.375L29.25 121.5L21.971 124.5L17.375 120.375Z" fill="#F5F8F9"/>
<path d="M25.375 11.4997C26.524 11.1226 32.269 8.5 32.269 8.5L37.25 12.6253L29.971 15.625L25.375 11.4997Z" fill="#F5F8F9"/>
<path d="M25.375 93.7136C26.1647 92.5739 33.2897 86.875 33.2897 86.875L39.625 89.5364L32.8978 96.375L25.375 93.7136Z" fill="#84BC3C"/>
<path d="M127.5 69.4583C128.772 69.1931 135.133 67.875 135.133 67.875L139.375 70.5152L131.316 72.625L127.5 69.4583Z" fill="#FF573F"/>
<path d="M142.5 42.4966L149.441 40.125L152 45.2143L145.787 47.25L142.5 42.4966Z" fill="#F5F8F9"/>
<path d="M33.75 32.8728L38.3354 27.5L43.25 31.6334L40.3012 37L33.75 32.8728Z" fill="#FF871F"/>
<path d="M118.625 7.16893L125.566 4L128.125 10.7857L121.912 13.5L118.625 7.16893Z" fill="#FFDB00"/>
<path d="M127.5 112.086L134.625 111.75V116.159L125.125 116.5L127.5 112.086Z" fill="#2181C4"/>
<defs>
<radialGradient id="paint0_radial_2291_16850" cx="0" cy="0" r="1" gradientUnits="userSpaceOnUse" gradientTransform="translate(102.871 107.939) rotate(124.948) scale(8.38359 8.31719)">
<stop offset="0.573027" stop-color="white"/>
<stop offset="1" stop-color="#ECF3F8"/>
</radialGradient>
<radialGradient id="paint1_radial_2291_16850" cx="0" cy="0" r="1" gradientUnits="userSpaceOnUse" gradientTransform="translate(66.054 134.415) rotate(76.9783) scale(13.7927 9.52114)">
<stop offset="0.489974" stop-color="white"/>
<stop offset="1" stop-color="#ECF3F8"/>
</radialGradient>
<radialGradient id="paint2_radial_2291_16850" cx="0" cy="0" r="1" gradientUnits="userSpaceOnUse" gradientTransform="translate(72.4208 110.066) rotate(94.6355) scale(20.4459 23.3222)">
<stop offset="0.812397" stop-color="white"/>
<stop offset="1" stop-color="#ECF3F8"/>
</radialGradient>
<radialGradient id="paint3_radial_2291_16850" cx="0" cy="0" r="1" gradientUnits="userSpaceOnUse" gradientTransform="translate(80.6071 54.7197) rotate(90.1287) scale(46.5946 57.6498)">
<stop offset="0.836294" stop-color="white"/>
<stop offset="1" stop-color="#ECF3F8"/>
</radialGradient>
<linearGradient id="paint4_linear_2291_16850" x1="67.8924" y1="50.6014" x2="71.9605" y2="35.9027" gradientUnits="userSpaceOnUse">
<stop stop-color="white"/>
<stop offset="1" stop-color="#66FFFF"/>
</linearGradient>
<linearGradient id="paint5_linear_2291_16850" x1="93.869" y1="57.4776" x2="98.3652" y2="43.1342" gradientUnits="userSpaceOnUse">
<stop stop-color="white"/>
<stop offset="1" stop-color="#66FFFF"/>
</linearGradient>
<linearGradient id="paint6_linear_2291_16850" x1="79.2525" y1="63.3271" x2="80.9967" y2="56.5912" gradientUnits="userSpaceOnUse">
<stop stop-color="white"/>
<stop offset="1" stop-color="#66FFFF"/>
</linearGradient>
<radialGradient id="paint7_radial_2291_16850" cx="0" cy="0" r="1" gradientUnits="userSpaceOnUse" gradientTransform="translate(41.855 85.3579) rotate(25.4393) scale(17.319 13.8987)">
<stop offset="0.644556" stop-color="white"/>
<stop offset="1" stop-color="#ECF3F8"/>
</radialGradient>
<radialGradient id="paint8_radial_2291_16850" cx="0" cy="0" r="1" gradientUnits="userSpaceOnUse" gradientTransform="translate(86.6645 128.439) rotate(100.686) scale(11.6931 9.2116)">
<stop offset="0.596548" stop-color="white"/>
<stop offset="1" stop-color="#ECF3F8"/>
</radialGradient>
</defs>
</svg>
