<svg width="20" height="20" viewBox="0 0 20 20" fill="none" xmlns="http://www.w3.org/2000/svg">
<path d="M5.625 8.125L11.875 14.375" stroke="#C8C8C8" stroke-width="1.2" stroke-linecap="round" stroke-linejoin="round"/>
<path d="M7.95313 14.3281L5.51562 16.7656" stroke="#C8C8C8" stroke-width="1.2" stroke-linecap="round" stroke-linejoin="round"/>
<path d="M5.76563 12.1406L3.32812 14.5781" stroke="#C8C8C8" stroke-width="1.2" stroke-linecap="round" stroke-linejoin="round"/>
<path d="M10.6328 7.20308L14.9219 2.42183C15.2741 2.06959 15.7519 1.8717 16.25 1.8717C16.7481 1.8717 17.2259 2.06959 17.5781 2.42183C17.9304 2.77407 18.1283 3.25181 18.1283 3.74996C18.1283 4.2481 17.9304 4.72584 17.5781 5.07808L12.7969 9.36714C12.7339 9.42393 12.6831 9.49293 12.6476 9.56997C12.6121 9.647 12.5927 9.73045 12.5905 9.81524C12.5883 9.90002 12.6034 9.98436 12.6349 10.0631C12.6663 10.1419 12.7135 10.2134 12.7734 10.2734L13.4922 10.9921C13.7241 11.2275 13.854 11.5446 13.854 11.875C13.854 12.2053 13.7241 12.5224 13.4922 12.7578L7.5 18.75L1.25 12.5L7.24219 6.50777C7.47752 6.27589 7.79463 6.14591 8.125 6.14591C8.45537 6.14591 8.77248 6.27589 9.00781 6.50777L9.72656 7.22652C9.78652 7.2865 9.85807 7.33364 9.93683 7.36509C10.0156 7.39653 10.0999 7.41162 10.1847 7.40943C10.2695 7.40723 10.353 7.38781 10.43 7.35233C10.507 7.31686 10.576 7.26608 10.6328 7.20308V7.20308Z" stroke="#C8C8C8" stroke-width="1.2" stroke-linecap="round" stroke-linejoin="round"/>
</svg>
