<svg width="15" height="15" viewBox="0 0 15 15" fill="none" xmlns="http://www.w3.org/2000/svg">
<path d="M7.91016 14.668C4.04297 14.668 0.878906 11.5215 0.878906 7.63672C0.878906 3.75195 4.04297 0.605469 7.91016 0.605469C11.7949 0.605469 14.959 3.75195 14.959 7.63672C14.959 11.5215 11.7949 14.668 7.91016 14.668ZM5.69531 10.6602H10.1602V9.57031H7.59375V9.53516L8.4375 8.69141C9.7207 7.53125 10.0723 6.96875 10.0723 6.24805C10.0723 5.17578 9.17578 4.41992 7.83984 4.41992C6.53906 4.41992 5.625 5.19336 5.625 6.42383H6.9082C6.9082 5.84375 7.27734 5.49219 7.83984 5.49219C8.36719 5.49219 8.77148 5.82617 8.77148 6.35352C8.77148 6.82812 8.47266 7.16211 7.92773 7.67188L5.69531 9.69336V10.6602Z" fill="black"/>
</svg>
