<svg width="21" height="20" viewBox="0 0 21 20" fill="none" xmlns="http://www.w3.org/2000/svg">
<path d="M1.5 10C1.5 12.6206 1.76827 14.1507 1.96731 14.9422C2.02219 15.1569 2.12597 15.3556 2.27028 15.5221C2.41458 15.6886 2.59538 15.8183 2.79808 15.9007C5.69712 17.0263 10.5 16.9999 10.5 16.9999C10.5 16.9999 15.3029 17.0263 18.2019 15.9007C18.4046 15.8183 18.5854 15.6886 18.7297 15.5221C18.874 15.3556 18.9778 15.1569 19.0327 14.9422C19.2317 14.1507 19.5 12.6206 19.5 10C19.5 7.37942 19.2317 5.84928 19.0327 5.05783C18.9778 4.84308 18.874 4.64445 18.7297 4.47795C18.5854 4.31145 18.4046 4.18174 18.2019 4.09929C15.3029 2.97367 10.5 3.00005 10.5 3.00005C10.5 3.00005 5.69712 2.97367 2.79808 4.09929C2.59538 4.18174 2.41458 4.31145 2.27028 4.47795C2.12597 4.64445 2.02219 4.84308 1.96731 5.05783C1.76827 5.84928 1.5 7.37942 1.5 10Z" fill="#FF0000"/>
<path d="M13.2142 10.1715C13.3436 10.0938 13.3436 9.90618 13.2142 9.8285L8.8029 7.18174C8.66959 7.10176 8.5 7.19778 8.5 7.35324V12.6468C8.5 12.8022 8.66959 12.8982 8.8029 12.8183L13.2142 10.1715Z" fill="white"/>
</svg>
