<svg width="16" height="16" viewBox="0 0 16 16" fill="none" xmlns="http://www.w3.org/2000/svg">
<path fill-rule="evenodd" clip-rule="evenodd" d="M2.30956 2.30956C1.33325 3.28587 1.33325 4.85722 1.33325 7.99992C1.33325 11.1426 1.33325 12.714 2.30956 13.6903C3.28587 14.6666 4.85722 14.6666 7.99992 14.6666C11.1426 14.6666 12.714 14.6666 13.6903 13.6903C14.6666 12.714 14.6666 11.1426 14.6666 7.99992C14.6666 4.85722 14.6666 3.28587 13.6903 2.30956C12.714 1.33325 11.1426 1.33325 7.99992 1.33325C4.85722 1.33325 3.28587 1.33325 2.30956 2.30956ZM7.02866 5.01141C7.2191 4.81145 7.21138 4.49496 7.01141 4.30452C6.81145 4.11407 6.49496 4.12179 6.30452 4.32176L4.76182 5.94159L4.36199 5.52176C4.17155 5.32179 3.85506 5.31407 3.65509 5.50452C3.45513 5.69496 3.44741 6.01145 3.63785 6.21141L4.39976 7.01141C4.49413 7.1105 4.62499 7.16659 4.76182 7.16659C4.89866 7.16659 5.02952 7.1105 5.12389 7.01141L7.02866 5.01141ZM8.66659 5.49992C8.39044 5.49992 8.16659 5.72378 8.16659 5.99992C8.16659 6.27606 8.39044 6.49992 8.66659 6.49992H11.9999C12.2761 6.49992 12.4999 6.27606 12.4999 5.99992C12.4999 5.72378 12.2761 5.49992 11.9999 5.49992H8.66659ZM7.02866 9.67808C7.2191 9.47812 7.21138 9.16163 7.01141 8.97118C6.81145 8.78074 6.49496 8.78846 6.30452 8.98843L4.76182 10.6083L4.36199 10.1884C4.17155 9.98846 3.85506 9.98074 3.65509 10.1712C3.45513 10.3616 3.44741 10.6781 3.63785 10.8781L4.39976 11.6781C4.49413 11.7772 4.62499 11.8333 4.76182 11.8333C4.89866 11.8333 5.02952 11.7772 5.12389 11.6781L7.02866 9.67808ZM8.66659 10.1666C8.39044 10.1666 8.16659 10.3904 8.16659 10.6666C8.16659 10.9427 8.39044 11.1666 8.66659 11.1666H11.9999C12.2761 11.1666 12.4999 10.9427 12.4999 10.6666C12.4999 10.3904 12.2761 10.1666 11.9999 10.1666H8.66659Z" fill="#A9A9A9"/>
</svg>
