<svg width="16" height="18" viewBox="0 0 16 18" fill="none" xmlns="http://www.w3.org/2000/svg">
<path id="Vector" fill-rule="evenodd" clip-rule="evenodd" d="M1.47631 1.64233C0.5 2.61864 0.5 4.18999 0.5 7.33268V10.666C0.5 13.8087 0.5 15.3801 1.47631 16.3564C2.45262 17.3327 4.02397 17.3327 7.16667 17.3327H8.83333C11.976 17.3327 13.5474 17.3327 14.5237 16.3564C15.5 15.3801 15.5 13.8087 15.5 10.666V7.33268C15.5 4.18999 15.5 2.61864 14.5237 1.64233C13.5474 0.666016 11.976 0.666016 8.83333 0.666016H7.16667C4.02397 0.666016 2.45262 0.666016 1.47631 1.64233ZM4.04167 5.66602C4.04167 5.32084 4.32149 5.04102 4.66667 5.04102H11.3333C11.6785 5.04102 11.9583 5.32084 11.9583 5.66602C11.9583 6.01119 11.6785 6.29102 11.3333 6.29102H4.66667C4.32149 6.29102 4.04167 6.01119 4.04167 5.66602ZM4.04167 8.99935C4.04167 8.65417 4.32149 8.37435 4.66667 8.37435H11.3333C11.6785 8.37435 11.9583 8.65417 11.9583 8.99935C11.9583 9.34453 11.6785 9.62435 11.3333 9.62435H4.66667C4.32149 9.62435 4.04167 9.34453 4.04167 8.99935ZM4.66667 11.7077C4.32149 11.7077 4.04167 11.9875 4.04167 12.3327C4.04167 12.6779 4.32149 12.9577 4.66667 12.9577H8.83333C9.17851 12.9577 9.45833 12.6779 9.45833 12.3327C9.45833 11.9875 9.17851 11.7077 8.83333 11.7077H4.66667Z" fill="#0078B8"/>
</svg>
