<svg width="16" height="16" viewBox="0 0 16 16" fill="none" xmlns="http://www.w3.org/2000/svg">
<path d="M7.9502 14.85C4.4627 14.85 0.700195 12.6625 0.700195 7.8625C0.700195 3.0625 4.4627 0.875 7.9502 0.875C9.8877 0.875 11.6752 1.5125 13.0002 2.675C14.4377 3.95 15.2002 5.75 15.2002 7.8625C15.2002 9.975 14.4377 11.7625 13.0002 13.0375C11.6752 14.2 9.8752 14.85 7.9502 14.85Z" fill="url(#paint0_radial_1982_39109)"/>
<path d="M13.9365 3.70898C14.6027 4.78398 14.9502 6.06398 14.9502 7.48773C14.9502 9.60023 14.1877 11.3877 12.7502 12.6627C11.4252 13.8252 9.62523 14.4752 7.70023 14.4752C5.44273 14.4752 3.07523 13.5565 1.67773 11.6077C3.02273 13.8152 5.55273 14.8502 7.95023 14.8502C9.87523 14.8502 11.6752 14.2002 13.0002 13.0377C14.4377 11.7627 15.2002 9.97523 15.2002 7.86273C15.2002 6.27023 14.7665 4.85523 13.9365 3.70898Z" fill="#E38A00"/>
<path d="M9.375 12H6.625C6.34875 12 6.125 11.7763 6.125 11.5C6.125 11.2237 6.34875 11 6.625 11H9.375C9.65125 11 9.875 11.2237 9.875 11.5C9.875 11.7763 9.65125 12 9.375 12Z" fill="#422B0D"/>
<path d="M10.4375 5.75C10.9 5.75 11.3125 6.2875 11.3125 7.1875C11.3125 8.0875 10.9 8.625 10.4375 8.625C9.975 8.625 9.5625 8.0875 9.5625 7.1875C9.5625 6.2875 9.975 5.7625 10.4375 5.75Z" fill="#422B0D"/>
<path d="M3.38751 5.70037C3.43751 5.60037 3.47501 5.52537 3.52501 5.43787C3.58001 5.36037 3.63751 5.28537 3.70001 5.21287C3.84251 5.06162 4.01251 4.93912 4.20001 4.85037C4.39876 4.75787 4.61751 4.71412 4.83751 4.72537C5.04501 4.73537 5.25001 4.78662 5.43751 4.87537L5.56251 4.93787C5.60001 4.95037 5.62501 4.97537 5.66251 4.98787C5.72501 5.01287 5.80001 5.05037 5.86251 5.07537C5.99251 5.12662 6.12626 5.16787 6.26251 5.20037C6.32751 5.21537 6.39501 5.22412 6.46251 5.22537H6.62501C6.67751 5.21787 6.72876 5.20162 6.77501 5.17537C6.83001 5.14912 6.88001 5.11537 6.92501 5.07537L6.95001 5.05037C7.07501 4.96162 7.24751 4.98912 7.33751 5.11287C7.41751 5.22412 7.40751 5.37662 7.31251 5.47537C7.24001 5.54912 7.16001 5.61662 7.07501 5.67537C6.98251 5.73662 6.88126 5.78287 6.77501 5.81287C6.72501 5.82537 6.65001 5.83787 6.60001 5.85037C6.55251 5.87037 6.50126 5.87912 6.45001 5.87537C6.35376 5.87787 6.25751 5.87412 6.16251 5.86287C5.97876 5.84162 5.79876 5.80037 5.62501 5.73787C5.53876 5.71162 5.45501 5.67912 5.37501 5.63787C5.29751 5.60912 5.22251 5.57537 5.15001 5.53787C4.94126 5.44537 4.70501 5.43162 4.48751 5.50037C4.37626 5.54412 4.27126 5.60287 4.17501 5.67537C4.12501 5.71287 4.07501 5.76287 4.02501 5.80037C3.97626 5.84287 3.93001 5.88912 3.88751 5.93787L3.83751 6.00037C3.73751 6.10787 3.57001 6.11287 3.46251 6.01287C3.45751 6.00912 3.45376 6.00412 3.45001 6.00037C3.36876 5.92287 3.34376 5.80412 3.38751 5.70037Z" fill="#422B0D"/>
<path d="M11.8249 4.46276C11.725 4.32526 11.6624 4.20026 11.5874 4.08776C11.5324 3.98901 11.4612 3.89901 11.375 3.82526C11.3375 3.80026 11.3125 3.77526 11.2875 3.76276C11.2612 3.74651 11.2312 3.73901 11.1999 3.73776C11.1112 3.72776 11.02 3.74026 10.9375 3.77526C10.8225 3.81526 10.71 3.86026 10.6 3.91276C10.4875 3.97526 10.3749 4.03776 10.2499 4.11276C10.0249 4.26276 9.78745 4.42526 9.54995 4.58776C9.42245 4.67276 9.24995 4.63901 9.16245 4.51276C9.08745 4.40901 9.0987 4.26651 9.18745 4.17526C9.3862 3.94526 9.6087 3.73526 9.84995 3.55026C10.11 3.34401 10.4012 3.17901 10.7124 3.06276C10.9062 3.00026 11.1112 2.98401 11.3125 3.01276C11.4275 3.03526 11.5375 3.07776 11.6374 3.13776C11.7337 3.19151 11.8187 3.26401 11.8874 3.35026C12.0062 3.48651 12.1 3.64276 12.1625 3.81276C12.225 3.96276 12.275 4.10026 12.3125 4.21276V4.22526C12.365 4.37276 12.2875 4.53526 12.1387 4.58776H12.1375C12.0175 4.61026 11.8962 4.56151 11.8249 4.46276Z" fill="#422B0D"/>
<path d="M5.45898 6.36816C4.93523 6.36816 4.45898 6.81066 4.45898 7.54566C4.45898 8.28066 4.93523 8.72191 5.45898 8.72191C5.98273 8.72191 6.45898 8.27941 6.45898 7.54566C6.45898 6.81191 5.98273 6.36816 5.45898 6.36816Z" fill="#422B0D"/>
<path d="M5.4098 6.85925C5.2323 6.77425 5.01855 6.84925 4.9323 7.02675C4.86605 7.1655 4.89605 7.33175 5.0073 7.43925C5.1848 7.52425 5.39855 7.44925 5.4848 7.27175C5.55105 7.133 5.52105 6.96675 5.4098 6.85925Z" fill="#896024"/>
<path d="M10.3451 6.25652C10.1689 6.24527 10.0176 6.37902 10.0064 6.55402C10.0064 6.56027 10.0064 6.56652 10.0064 6.57277C9.96762 6.74527 10.0764 6.91652 10.2489 6.95527C10.2539 6.95652 10.2589 6.95777 10.2639 6.95777C10.4414 6.96777 10.5926 6.83152 10.6026 6.65402C10.6026 6.65027 10.6026 6.64527 10.6026 6.64152C10.6414 6.46902 10.5326 6.29777 10.3601 6.25902C10.3551 6.25777 10.3501 6.25777 10.3451 6.25652Z" fill="#896024"/>
<defs>
<radialGradient id="paint0_radial_1982_39109" cx="0" cy="0" r="1" gradientUnits="userSpaceOnUse" gradientTransform="translate(7.9502 7.8625) scale(7.11996)">
<stop stop-color="#FFDE1E"/>
<stop offset="0.53" stop-color="#FFDD16"/>
<stop offset="0.795" stop-color="#FEC114"/>
<stop offset="0.955" stop-color="#FEA311"/>
<stop offset="1" stop-color="#F49400"/>
</radialGradient>
</defs>
</svg>
