<svg width="16" height="16" viewBox="0 0 16 16" fill="none" xmlns="http://www.w3.org/2000/svg">
<path d="M7.9502 14.85C4.4627 14.85 0.700195 12.6625 0.700195 7.8625C0.700195 3.0625 4.4627 0.875 7.9502 0.875C9.8877 0.875 11.6752 1.5125 13.0002 2.675C14.4377 3.95 15.2002 5.75 15.2002 7.8625C15.2002 9.975 14.4377 11.7625 13.0002 13.0375C11.6752 14.2 9.8752 14.85 7.9502 14.85Z" fill="url(#paint0_radial_1982_39094)"/>
<path d="M13.9365 3.70898C14.6027 4.78398 14.9502 6.06398 14.9502 7.48773C14.9502 9.60023 14.1877 11.3877 12.7502 12.6627C11.4252 13.8252 9.62523 14.4752 7.70023 14.4752C5.44273 14.4752 3.07523 13.5565 1.67773 11.6077C3.02273 13.8152 5.55273 14.8502 7.95023 14.8502C9.87523 14.8502 11.6752 14.2002 13.0002 13.0377C14.4377 11.7627 15.2002 9.97523 15.2002 7.86273C15.2002 6.27023 14.7665 4.85523 13.9365 3.70898Z" fill="#E38A00"/>
<path d="M8.03128 11.9297C6.43878 11.9297 5.30378 11.1035 4.96253 10.5835C4.83378 10.4172 4.80628 10.1922 4.89253 9.9997C4.95878 9.87845 5.08753 9.80345 5.22628 9.8047C5.27753 9.8047 5.32878 9.81345 5.37753 9.8297C6.24003 10.0897 7.13628 10.2185 8.03753 10.2135C8.93378 10.2185 9.82628 10.0885 10.685 9.8297C10.7338 9.81345 10.785 9.80595 10.8363 9.8047C10.975 9.80345 11.1038 9.87845 11.17 9.9997C11.2563 10.1922 11.2288 10.4172 11.1 10.5835C10.7588 11.1035 9.62503 11.9297 8.03128 11.9297Z" fill="#422B0D"/>
<path d="M12.1883 7.74984L12.1633 7.71484C12.1408 7.68234 12.1171 7.65109 12.0908 7.62109C12.0008 7.51984 11.8996 7.42859 11.7883 7.35109C11.6383 7.24609 11.4758 7.15984 11.3046 7.09484C11.2108 7.05859 11.1146 7.02734 11.0171 7.00234C10.9683 6.98984 10.9146 6.97859 10.8596 6.96734L10.7846 6.95359L10.8583 6.91484L11.0771 6.79984C11.2183 6.72734 11.3521 6.66484 11.4646 6.61359C11.5771 6.56234 11.6696 6.52609 11.7321 6.50234L11.8271 6.46859L11.8546 6.45734C12.0308 6.38484 12.1133 6.18234 12.0408 6.00609C11.9908 5.88609 11.8783 5.80484 11.7496 5.79484C11.6983 5.79234 11.6458 5.79234 11.5946 5.79484C11.4683 5.80609 11.3421 5.82859 11.2196 5.85984C11.0521 5.90234 10.8883 5.95609 10.7283 6.02109C10.6433 6.05859 10.5533 6.09359 10.4671 6.13859C10.3808 6.18359 10.2871 6.23109 10.2096 6.27234C10.1321 6.31359 10.0383 6.37484 9.95956 6.42859C9.88081 6.48234 9.80081 6.53859 9.72581 6.59359C9.58706 6.69609 9.45581 6.80859 9.33456 6.93109C9.24331 7.02109 9.16081 7.11859 9.08456 7.22234C9.06206 7.25234 9.04081 7.28484 9.02206 7.31734C9.01206 7.33734 9.00581 7.34734 9.00581 7.34734C8.95956 7.45984 8.95581 7.58484 8.99581 7.69984C9.06581 7.87609 9.26581 7.96234 9.44206 7.89234C9.44331 7.89234 9.44456 7.89109 9.44581 7.89109L9.47581 7.87984L9.49956 7.87484L9.52956 7.86734C9.55081 7.86734 9.58956 7.85234 9.62956 7.84359C9.66956 7.83484 9.71831 7.82609 9.77081 7.81734C9.89456 7.79984 10.0208 7.78984 10.1458 7.78984C10.2933 7.78984 10.4421 7.79984 10.5883 7.82109C10.6146 7.82109 10.6808 7.83359 10.7133 7.83984C10.7458 7.84609 10.7808 7.85109 10.8183 7.85984C10.8908 7.87734 10.9621 7.89234 11.0296 7.91234C11.1496 7.94609 11.2671 7.98734 11.3821 8.03734C11.4571 8.07234 11.5308 8.11109 11.6021 8.15484C11.6521 8.18484 11.6771 8.20359 11.6771 8.20359L11.7121 8.22984C11.8621 8.34359 12.0771 8.31359 12.1896 8.16234C12.2821 8.03984 12.2808 7.87109 12.1883 7.74984Z" fill="#422B0D"/>
<path d="M5.5835 5.86719C5.05975 5.86719 4.5835 6.30969 4.5835 7.04469C4.5835 7.77969 5.05975 8.22094 5.5835 8.22094C6.10725 8.22094 6.5835 7.77844 6.5835 7.04469C6.5835 6.31094 6.10725 5.86719 5.5835 5.86719Z" fill="#422B0D"/>
<path d="M3.72988 5.59996C3.62113 5.60121 3.51988 5.54871 3.45613 5.46121C3.39613 5.37121 3.38488 5.25621 3.42738 5.15621C3.68238 4.51621 4.17488 3.99871 4.80238 3.71371C5.03363 3.60621 5.27988 3.53371 5.53363 3.49996C5.54988 3.49871 5.56613 3.49871 5.58238 3.49996C5.73988 3.49371 5.87613 3.60746 5.89863 3.76371C5.92113 3.92996 5.82238 4.08746 5.66238 4.13871L5.61613 4.05121L5.64738 4.14371C4.97613 4.37871 4.40363 4.83371 4.02238 5.43371C3.96238 5.53621 3.85238 5.59871 3.73363 5.59871L3.72988 5.59996Z" fill="#422B0D"/>
<path d="M5.5348 6.35827C5.3573 6.27327 5.14355 6.34827 5.0573 6.52577C4.99105 6.66452 5.02105 6.83077 5.1323 6.93827C5.3098 7.02327 5.52355 6.94827 5.6098 6.77077C5.67605 6.63202 5.64605 6.46577 5.5348 6.35827Z" fill="#896024"/>
<defs>
<radialGradient id="paint0_radial_1982_39094" cx="0" cy="0" r="1" gradientUnits="userSpaceOnUse" gradientTransform="translate(7.9502 7.8625) scale(7.11996)">
<stop stop-color="#FFDE1E"/>
<stop offset="0.53" stop-color="#FFDD16"/>
<stop offset="0.795" stop-color="#FEC114"/>
<stop offset="0.955" stop-color="#FEA311"/>
<stop offset="1" stop-color="#F49400"/>
</radialGradient>
</defs>
</svg>
