<svg width="80" height="80" viewBox="0 0 80 80" fill="none" xmlns="http://www.w3.org/2000/svg">
<g filter="url(#filter0_i_4366_45214)">
<path d="M76.0002 12.2834C76.0002 14.0431 74.5704 15.4696 72.8059 15.4696H61.2474C58.9019 15.4696 57.0002 13.573 57.0002 11.2325C57.0002 8.89278 58.9019 6.99554 61.2474 6.99554C61.4578 6.99554 61.6645 7.01165 61.8672 7.04096C62.8264 5.14082 64.7989 3.83691 67.0776 3.83691C69.8348 3.83691 72.1446 5.74668 72.7514 8.31242C72.812 8.56859 72.8557 8.83103 72.8808 9.09838V9.09905C74.6098 9.13843 76.0002 10.5488 76.0002 12.2834Z" fill="url(#paint0_radial_4366_45214)"/>
</g>
<mask id="mask0_4366_45214" style="mask-type:alpha" maskUnits="userSpaceOnUse" x="57" y="3" width="19" height="13">
<path d="M76 12.2834C76 14.0431 74.5701 15.4696 72.8057 15.4696H61.2472C58.9017 15.4696 57 13.573 57 11.2325C57 8.89278 58.9017 6.99554 61.2472 6.99554C61.4575 6.99554 61.6643 7.01165 61.867 7.04096C62.8261 5.14082 64.7987 3.83691 67.0773 3.83691C69.8345 3.83691 72.1444 5.74668 72.7512 8.31242C72.8118 8.56859 72.8555 8.83103 72.8806 9.09838V9.09905C74.6096 9.13843 76 10.5488 76 12.2834Z" fill="url(#paint1_radial_4366_45214)"/>
</mask>
<g mask="url(#mask0_4366_45214)">
<g filter="url(#filter1_f_4366_45214)">
<path d="M63.568 11.2873C61.6624 11.1322 61.2045 8.32371 61.2137 6.93887C61.1694 6.76161 61.5276 6.82809 61.7123 6.88348L62.5155 5.72021C60.9423 9.79718 62.5709 11.1488 63.568 11.2873Z" fill="white"/>
</g>
<g filter="url(#filter2_f_4366_45214)">
<path d="M70.7377 12.4504C72.6433 12.2952 73.1012 9.4868 73.0919 8.10196C73.1363 7.9247 72.778 7.99117 72.5934 8.04657L71.7902 6.8833C73.3633 10.9603 71.7348 12.3119 70.7377 12.4504Z" fill="white"/>
</g>
<g filter="url(#filter3_f_4366_45214)">
<path d="M60.3272 6.71159L60.5441 6.74297L60.6428 6.54729C61.6612 4.52884 63.7551 3.14451 66.1736 3.14451C69.1002 3.14451 71.5521 5.17263 72.1961 7.89692C72.2593 8.16449 72.3052 8.43832 72.332 8.71706V9.00117L72.6298 9.00796C74.3909 9.04809 75.8061 10.4854 75.8061 12.2517C75.8061 14.0436 74.3506 15.4973 72.5533 15.4973H59.6805C57.236 15.4973 55.2551 13.5198 55.2551 11.0807C55.2551 8.64231 57.2361 6.66412 59.6805 6.66412C59.8992 6.66412 60.1149 6.68087 60.3272 6.71159Z" stroke="#E7EDF5" stroke-width="0.609329"/>
</g>
<g filter="url(#filter4_f_4366_45214)">
<path d="M62.3768 6.71159L62.5937 6.74297L62.6924 6.54729C63.7107 4.52884 65.8046 3.14451 68.2232 3.14451C71.1498 3.14451 73.6017 5.17263 74.2457 7.89692C74.3089 8.16449 74.3548 8.43832 74.3816 8.71706V9.00117L74.6793 9.00796C76.4404 9.04809 77.8557 10.4854 77.8557 12.2517C77.8557 14.0436 76.4002 15.4973 74.6028 15.4973H61.7301C59.2856 15.4973 57.3047 13.5198 57.3047 11.0807C57.3047 8.64231 59.2856 6.66412 61.7301 6.66412C61.9487 6.66412 62.1644 6.68087 62.3768 6.71159Z" stroke="white" stroke-width="0.609329"/>
</g>
</g>
<path d="M58.1453 45.7661C58.5817 45.8752 73.2567 54.7637 76.8573 55.418C76.8573 55.418 76.2026 54.9818 71.4019 59.1261C66.6011 63.2705 63.0006 61.4164 60.8184 61.9617C58.6362 62.507 42.0518 54.6546 41.179 50.6193C40.3061 46.5841 58.1453 45.7661 58.1453 45.7661Z" fill="#FF573F"/>
<path d="M41.0151 62.7799C41.0151 62.7799 46.0341 69.2145 49.4165 71.5048C52.7988 73.7951 55.8538 72.1592 55.8538 69.8689C55.8538 69.8689 59.9999 72.8136 64.146 71.3958C68.2921 69.978 66.8737 66.8152 65.8918 65.3974C64.9098 63.9796 59.4544 58.4175 59.4544 58.4175L41.0151 62.7799Z" fill="url(#paint2_radial_4366_45214)"/>
<path d="M63.6725 71.5374C63.8296 71.4959 63.9867 71.4501 64.1438 71.3956C68.2899 69.9778 66.8715 66.815 65.8896 65.3972C65.1454 64.3219 61.8351 60.8712 60.2727 59.2593C59.3736 60.5658 57.8701 62.8343 57.8701 62.8343C57.8701 62.8343 66.1732 68.6931 63.6725 71.5374Z" fill="#C1E2F3" fill-opacity="0.16"/>
<path d="M61.8549 68.669C58.3635 70.414 55.2539 69.3234 55.2539 69.3234C53.5649 71.9976 49.4493 70.8982 48.2666 70.6256C48.6638 70.9571 49.05 71.2559 49.4166 71.5046C52.799 73.7949 55.854 72.159 55.854 69.8687C55.854 69.8687 60.0001 72.8133 64.1462 71.3955C68.2923 69.9777 66.8739 66.815 65.8919 65.3972C65.737 65.1747 65.4729 64.8497 65.1369 64.4614C65.1303 64.4658 65.1282 64.4701 65.1282 64.4701C65.1282 64.4701 64.875 67.1596 61.8549 68.669Z" fill="#0078B8"/>
<path fill-rule="evenodd" clip-rule="evenodd" d="M51.7398 65.1596C51.8108 65.117 51.903 65.14 51.9456 65.211C52.5103 66.1517 53.3609 67.1513 54.0749 67.9194C54.4311 68.3026 54.7518 68.6265 54.9833 68.8545C55.099 68.9685 55.1924 69.0584 55.2567 69.1198C55.2889 69.1505 55.3138 69.174 55.3307 69.1898L55.3497 69.2077L55.3545 69.2121L55.3556 69.2132L55.2539 69.3235L55.1518 69.4334L55.15 69.4317L55.1449 69.4269L55.1252 69.4084C55.1078 69.3921 55.0824 69.3681 55.0497 69.3369C54.9843 69.2745 54.8897 69.1834 54.7727 69.0682C54.5388 68.8378 54.215 68.5107 53.8552 68.1237C53.1372 67.3513 52.2694 66.3333 51.6884 65.3654C51.6458 65.2944 51.6688 65.2022 51.7398 65.1596ZM55.3639 69.4255C55.3075 69.4862 55.2125 69.4897 55.1518 69.4334L55.2539 69.3235L55.3556 69.2132C55.4163 69.2696 55.4202 69.3648 55.3639 69.4255Z" fill="#417794"/>
<path d="M7.41008 39.0044C7.41008 39.0044 6.71833 40.4593 7.84651 42.1672C9.1558 45.0028 25.522 54.273 31.8503 51.8736C38.1785 49.4743 29.4499 42.9306 29.1226 42.9306C28.7952 42.9306 15.447 30.8968 11.8464 33.9505C8.24585 37.0042 7.41008 38.5681 7.41008 39.0044Z" fill="url(#paint3_radial_4366_45214)"/>
<path d="M23.3857 51.1451C26.6916 52.203 29.799 52.6523 31.8502 51.8758C38.1785 49.4764 29.4499 42.9328 29.1225 42.9328C28.9305 42.9328 24.0228 38.5245 19.2941 35.5406C19.161 35.5253 19.0846 35.5166 19.0846 35.5166C19.0846 35.5166 17.6618 44.645 23.3857 51.1451Z" fill="#C1E2F3" fill-opacity="0.16"/>
<path d="M47.998 66.0884C47.7515 66.071 47.5114 66.047 47.2757 66.0143C35.5423 64.4787 31.7039 45.0745 31.7039 45.0745C31.7039 45.0745 52.4977 38.6682 58.1342 46.8413C58.4179 47.2536 58.6775 47.7073 58.9088 48.2024C63.7096 58.5261 60.5084 66.9609 47.998 66.0884Z" fill="url(#paint4_radial_4366_45214)"/>
<path d="M47.9981 66.0886C47.7516 66.0711 47.5115 66.0471 47.2758 66.0144C53.3793 65.5062 55.3084 63.8703 55.2342 60.5265C55.1163 55.0734 44.7336 51.2563 44.6136 51.0752C42.9137 48.497 54.8632 46.4292 58.1321 46.8436C58.4158 47.2559 58.6754 47.7096 58.9068 48.2047C63.7075 58.5285 60.5063 66.9633 47.996 66.0908L47.9981 66.0886Z" fill="#C1E2F3" fill-opacity="0.16"/>
<path d="M11.447 30.9883C11.0651 30.3339 9.7929 29.4134 8.74328 29.854C8.74328 29.577 8.63635 29.2956 8.3614 29.071C6.04395 27.182 4.29168 28.8594 4.29168 28.8594C3.65012 29.3829 3.53446 30.1638 3.38389 30.9577C3.06093 31.6317 2.79471 32.1967 3.03257 33.0386C2.77289 33.4203 2.8209 34.295 3.05002 34.6767C2.40629 36.245 7.01719 39.4602 7.24632 39.5496C9.01605 40.1123 11.8834 37.2048 12.1562 36.1142C13.3564 34.3692 11.6215 31.2871 11.447 30.9883Z" fill="#0078B8"/>
<path fill-rule="evenodd" clip-rule="evenodd" d="M8.68847 29.7998C8.7713 29.8009 8.83761 29.8689 8.83656 29.9517C8.82855 30.5869 8.6295 30.9159 8.38702 31.0728C8.26989 31.1486 8.15347 31.1766 8.06671 31.1857C8.02325 31.1903 7.98657 31.1902 7.95984 31.1888C7.94644 31.1881 7.93542 31.1871 7.92717 31.1862L7.91687 31.1849L7.91333 31.1843L7.91198 31.1841L7.91141 31.184L7.91115 31.184C7.91103 31.184 7.91091 31.184 7.93591 31.0361L7.91091 31.184C7.82922 31.1701 7.7742 31.0927 7.78801 31.011C7.80173 30.9299 7.87821 30.8751 7.9593 30.8879L7.96118 30.8881C7.96371 30.8884 7.96851 30.8889 7.97524 30.8892C7.98879 30.8899 8.00968 30.8901 8.0354 30.8874C8.08701 30.882 8.15539 30.8654 8.22401 30.821C8.35305 30.7374 8.52933 30.5233 8.53659 29.9479C8.53763 29.8651 8.60563 29.7988 8.68847 29.7998Z" fill="#0F4F72"/>
<path fill-rule="evenodd" clip-rule="evenodd" d="M3.85236 30.9736C3.74574 31.0429 3.69159 31.0942 3.67735 31.1137C3.62846 31.1806 3.53461 31.1952 3.46773 31.1463C3.40086 31.0974 3.38628 31.0035 3.43517 30.9367C3.48312 30.8711 3.57599 30.7954 3.68888 30.722C3.80668 30.6455 3.96071 30.5622 4.1445 30.4852C4.51197 30.3313 5.00415 30.2001 5.57055 30.2012C6.14355 30.2012 6.7811 30.3967 7.26609 30.5855C7.51058 30.6807 7.72029 30.7759 7.869 30.8473C7.94341 30.883 8.00268 30.9128 8.04356 30.9339C8.064 30.9444 8.07985 30.9527 8.0907 30.9584L8.10318 30.9651L8.10651 30.9669L8.10744 30.9674C8.12661 30.9778 8.1437 30.9925 8.1567 31.01C8.54819 31.5376 8.41044 32.1993 8.21079 32.6869C8.10875 32.9361 7.98501 33.1541 7.8873 33.3093C7.83831 33.3871 7.79552 33.4496 7.76476 33.493C7.74937 33.5147 7.73697 33.5317 7.72828 33.5434L7.7181 33.5569L7.71527 33.5606L7.71444 33.5617C7.7144 33.5618 7.71402 33.5623 7.59544 33.4704L7.71444 33.5617C7.68851 33.5952 7.64924 33.6167 7.60704 33.6199C7.5649 33.6232 7.52334 33.6085 7.49258 33.5796C7.49254 33.5795 7.49263 33.5796 7.49258 33.5796L7.49127 33.5783L7.48552 33.5731C7.48018 33.5683 7.47182 33.5608 7.46052 33.5511C7.43792 33.5315 7.4036 33.5028 7.35814 33.4674C7.26717 33.3965 7.13189 33.2991 6.95701 33.1948C6.60695 32.9861 6.10082 32.7518 5.47564 32.6476C5.12905 32.5911 4.66596 32.6704 4.26252 32.7924C4.06329 32.8527 3.88477 32.9215 3.75013 32.9844C3.68265 33.016 3.62828 33.0451 3.58868 33.0699C3.55413 33.0915 3.53944 33.1046 3.5356 33.108C3.53451 33.1089 3.53514 33.1086 3.5356 33.108C3.48616 33.1744 3.39135 33.1888 3.32488 33.1393C3.25842 33.0899 3.24462 32.9959 3.29406 32.9294C3.3278 32.8841 3.3813 32.8457 3.42959 32.8155C3.48267 32.7823 3.54857 32.7475 3.62306 32.7127C3.77234 32.6429 3.96452 32.5692 4.17568 32.5053C4.59294 32.3791 5.10926 32.2838 5.52421 32.3516C6.19513 32.4633 6.73709 32.7144 7.11063 32.9371C7.29758 33.0486 7.44311 33.1533 7.54249 33.2307C7.55123 33.2375 7.55962 33.2441 7.56765 33.2505C7.58741 33.2212 7.6096 33.1873 7.63343 33.1494C7.72509 33.0039 7.83962 32.8017 7.93316 32.5732C8.12037 32.116 8.20355 31.6051 7.93484 31.2154C7.92685 31.2112 7.91733 31.2063 7.90634 31.2006C7.86766 31.1807 7.81085 31.1521 7.73916 31.1177C7.59566 31.0488 7.39308 30.9569 7.15723 30.8651C6.68155 30.6798 6.08626 30.5012 5.5704 30.5012C5.05014 30.5001 4.5972 30.6208 4.26041 30.7619C4.09205 30.8324 3.95408 30.9075 3.85236 30.9736Z" fill="#0F4F72"/>
<path fill-rule="evenodd" clip-rule="evenodd" d="M7.56184 33.3241C7.64259 33.3056 7.72305 33.3561 7.74157 33.4368C7.90458 34.1478 7.78957 34.6104 7.6124 34.9008C7.52492 35.0442 7.42536 35.1404 7.34577 35.2015C7.30603 35.232 7.27123 35.2538 7.2453 35.2684C7.23233 35.2757 7.22153 35.2813 7.21341 35.2852L7.20325 35.29L7.19977 35.2915L7.19845 35.2921L7.1979 35.2923L7.19765 35.2924C7.19753 35.2925 7.19742 35.2925 7.1393 35.1543L7.19742 35.2925C7.12104 35.3246 7.03311 35.2887 7.00101 35.2124C6.96911 35.1365 7.00437 35.0491 7.0798 35.0166L7.08229 35.0154C7.08526 35.0139 7.09066 35.0112 7.09808 35.007C7.11294 34.9987 7.13572 34.9846 7.1631 34.9636C7.21779 34.9216 7.29075 34.852 7.35629 34.7446C7.48517 34.5333 7.59819 34.1539 7.44915 33.5039C7.43064 33.4231 7.48109 33.3427 7.56184 33.3241Z" fill="#0F4F72"/>
<path fill-rule="evenodd" clip-rule="evenodd" d="M3.44935 34.655L3.41559 34.5088C3.33487 34.5275 3.28455 34.608 3.3032 34.6887C3.32184 34.7695 3.40238 34.8198 3.48308 34.8011M3.48308 34.8011L3.48477 34.8008L3.49065 34.7994L3.51459 34.7942C3.53581 34.7896 3.56732 34.783 3.60784 34.7749C3.6889 34.7588 3.80591 34.7369 3.9487 34.7143C4.23471 34.6691 4.6221 34.6212 5.03018 34.6097C5.43962 34.5982 5.86217 34.6236 6.22176 34.7207C6.58265 34.8181 6.86016 34.982 7.01094 35.232C7.05373 35.3029 7.14592 35.3257 7.21686 35.2829C7.2878 35.2401 7.31061 35.148 7.26782 35.077C7.06073 34.7337 6.69805 34.5385 6.29995 34.431C5.90056 34.3232 5.44534 34.2979 5.02174 34.3098C4.59678 34.3218 4.19586 34.3715 3.90183 34.418C3.7546 34.4413 3.63365 34.4639 3.54926 34.4807C3.50705 34.4891 3.47396 34.496 3.45126 34.5009L3.42516 34.5067L3.41825 34.5082L3.41559 34.5088L3.44935 34.655" fill="#0F4F72"/>
<path fill-rule="evenodd" clip-rule="evenodd" d="M7.11619 35.0062C7.19804 34.9934 7.27475 35.0494 7.28752 35.1313L7.13932 35.1544C7.28752 35.1313 7.28751 35.1312 7.28752 35.1313L7.28782 35.1333L7.28828 35.1365L7.28956 35.1466C7.29053 35.155 7.2917 35.1664 7.29273 35.1805C7.29478 35.2088 7.29633 35.2483 7.29468 35.2958C7.29142 35.3902 7.27544 35.5196 7.22341 35.6571C7.11571 35.9417 6.86136 36.2375 6.31828 36.3401L6.31028 36.3416L6.30878 36.3416L6.30548 36.342L6.29356 36.3434C6.2833 36.3446 6.26848 36.3463 6.24949 36.3482C6.21152 36.352 6.15685 36.3568 6.08869 36.3609C5.95251 36.3692 5.76176 36.375 5.54243 36.3649C5.1073 36.3448 4.54389 36.2617 4.07232 35.9987C3.99997 35.9583 3.97403 35.8669 4.01439 35.7946C4.05474 35.7222 4.14611 35.6963 4.21846 35.7367C4.63066 35.9666 5.13979 36.046 5.55625 36.0652C5.76271 36.0747 5.94252 36.0693 6.07045 36.0615C6.13435 36.0576 6.18511 36.0531 6.21957 36.0497C6.2368 36.048 6.24994 36.0465 6.25859 36.0455L6.26701 36.0445C6.70266 35.9609 6.87184 35.7385 6.94284 35.5509C6.98028 35.452 6.9924 35.3567 6.99486 35.2854C6.99609 35.25 6.9949 35.2214 6.99351 35.2023C6.99282 35.1928 6.99209 35.1857 6.99159 35.1814L6.99111 35.1775C6.97843 35.0958 7.03439 35.019 7.11619 35.0062Z" fill="#0F4F72"/>
<path fill-rule="evenodd" clip-rule="evenodd" d="M10.1123 31.3963C10.1942 31.4088 10.2504 31.4853 10.2379 31.5672C10.1346 32.2435 9.91884 32.9408 9.6207 33.4347C9.47196 33.6811 9.29588 33.8882 9.09227 34.0119C8.88248 34.1393 8.64489 34.1763 8.39808 34.0791L8.39782 34.079C8.00818 33.9248 7.8561 33.6245 7.80494 33.3716C7.77976 33.2472 7.77844 33.1334 7.78315 33.0512C7.78552 33.0099 7.78946 32.9758 7.79292 32.9516C7.79465 32.9394 7.79627 32.9296 7.79753 32.9226L7.79912 32.914L7.79966 32.9113L7.79985 32.9103L7.79993 32.91L7.79996 32.9098C7.79998 32.9097 7.79999 32.9097 7.94679 32.9405L7.79999 32.9097C7.81703 32.8286 7.89656 32.7767 7.97764 32.7937C8.05866 32.8108 8.11056 32.8902 8.09361 32.9712L8.09363 32.9711L8.09366 32.971L8.09369 32.9708C8.09369 32.9708 8.09366 32.971 8.0936 32.9713L8.09288 32.9752C8.09219 32.979 8.09113 32.9854 8.08992 32.9939C8.08749 33.0109 8.08449 33.0365 8.08266 33.0684C8.07898 33.1326 8.08025 33.2195 8.09898 33.3121C8.13564 33.4933 8.23667 33.6925 8.50818 33.8C8.65736 33.8587 8.79695 33.8403 8.93652 33.7555C9.08232 33.6669 9.22785 33.5049 9.36388 33.2796C9.63528 32.8301 9.84176 32.174 9.94137 31.5219C9.95389 31.44 10.0304 31.3838 10.1123 31.3963Z" fill="#0F4F72"/>
<path d="M26.7222 45.4042C26.7222 45.4042 27.6321 55.2917 37.561 51.3655C37.561 51.3655 41.5609 54.164 46.798 54.8184C60.286 56.5045 60.3274 50.1288 60.3274 50.1288C60.3274 50.1288 33.596 42.4574 26.7222 45.4021V45.4042Z" fill="#FF573F"/>
<path d="M66.3719 46.6321C63.0856 49.9607 58.2369 50.7132 53.1764 51.0316C48.4957 51.3261 43.732 51.3283 37.4561 50.7568C35.9548 50.6216 34.4055 50.482 32.8082 50.3533C32.6336 50.338 32.4568 50.3336 32.2866 50.3075C27.056 49.5179 22.2443 47.5984 19.2766 43.8161C18.3339 42.6121 17.6727 41.5564 16.9984 39.8725C14.7333 34.2035 13.7317 23.2624 20.468 16.1735C26.4733 9.85227 36.9848 9.15209 39.8172 8.90343C43.3676 8.59152 64.2836 9.52508 69.8241 21.9363C74.782 33.0431 72.5649 40.3698 66.3741 46.6321H66.3719Z" fill="url(#paint5_radial_4366_45214)"/>
<path d="M51.7558 38.3412C51.4896 41.5433 48.4782 43.8183 45.0827 43.4278L23.547 40.9456C20.5422 40.5988 18.3404 37.9312 18.587 34.98L19.7457 21.0921C19.9901 18.1409 22.6043 15.8746 25.6244 16.0295L47.2736 17.1441C50.6887 17.3207 53.2811 20.0604 53.0127 23.2646L51.7558 38.3434V38.3412Z" fill="#004367"/>
<path d="M24.123 40.4157C21.5634 40.1234 19.678 37.8462 19.8875 35.3356L21.0484 21.3998C21.2579 18.887 23.4946 16.9544 26.0674 17.094L47.7711 18.2675C50.6712 18.4246 52.8796 20.7628 52.6526 23.4806L51.3979 38.5486C51.1709 41.2642 48.6091 43.2033 45.7221 42.8761L24.123 40.4201V40.4157Z" fill="#0078B8"/>
<path d="M31.6188 28.5824C31.4682 31.6318 29.8512 34.0311 28.0051 33.9417C26.159 33.8523 24.7821 31.3068 24.9326 28.2552C25.081 25.2059 26.7002 22.8065 28.5463 22.896C30.3924 22.9854 31.7694 25.5309 31.621 28.5824H31.6188Z" fill="url(#paint6_linear_4366_45214)"/>
<path d="M45.9601 29.7821C45.8117 32.8315 44.1925 35.2308 42.3464 35.1414C40.5003 35.052 39.1234 32.5065 39.274 29.455C39.4245 26.4056 41.0415 24.0063 42.8876 24.0957C44.7337 24.1851 46.1107 26.7306 45.9601 29.7821Z" fill="url(#paint7_linear_4366_45214)"/>
<path d="M32.1186 35.2153C32.1186 35.2153 34.5452 35.4858 36.3498 35.4967C36.3498 35.4967 36.5004 38.7271 33.9843 38.5919C31.752 38.4719 32.1186 35.2153 32.1186 35.2153Z" fill="url(#paint8_linear_4366_45214)"/>
<path d="M24.9719 17.6633C23.1171 17.864 21.679 19.4454 21.4237 20.6952C21.1466 22.0563 21.4652 24.0129 23.0603 23.0095C24.0619 22.3791 24.6599 20.3288 27.7083 19.3516C30.0782 18.5925 28.04 17.3318 24.9741 17.6633H24.9719Z" fill="white"/>
<path d="M69.8219 21.9363C69.715 21.6986 69.6015 21.4674 69.4837 21.2362C69.44 21.1511 69.3942 21.066 69.3484 20.9809C69.2829 20.8566 69.2131 20.7323 69.1433 20.6101C67.0506 16.9566 63.5504 14.4089 59.664 12.6465C60.9667 14.6947 65.2721 20.8675 65.6431 25.2038C66.0861 30.3755 65.2263 45.2209 55.7361 50.8223C56.4998 50.7416 57.2505 50.6391 57.9881 50.5126C58.0033 50.5104 58.0164 50.5082 58.0317 50.506C58.5096 50.4231 58.9831 50.3272 59.4458 50.2203C59.4588 50.2181 59.4719 50.2137 59.4872 50.2116C59.712 50.1592 59.9324 50.1025 60.1528 50.0436C60.179 50.0371 60.203 50.0305 60.2291 50.0218C60.6699 49.9018 61.102 49.7666 61.5232 49.6161C61.5472 49.6074 61.5734 49.5986 61.5974 49.5899C61.8003 49.5179 62.0011 49.4394 62.1975 49.3587C62.228 49.3456 62.2586 49.3325 62.2891 49.3194C62.4899 49.2366 62.6906 49.1493 62.887 49.0577C62.887 49.0577 62.8892 49.0577 62.8914 49.0555C63.0856 48.9639 63.2754 48.8679 63.4631 48.7698C63.4937 48.7545 63.522 48.7392 63.5526 48.724C63.7337 48.6258 63.9148 48.5233 64.0916 48.4164C64.1243 48.3968 64.1549 48.3771 64.1876 48.3575C64.3687 48.2463 64.5476 48.1307 64.7244 48.0107C64.7266 48.0107 64.7309 48.0063 64.7331 48.0042C64.9055 47.8842 65.0735 47.7599 65.2416 47.6312C65.2721 47.6072 65.3027 47.5854 65.331 47.5614C65.4925 47.4327 65.6518 47.3018 65.8067 47.1644C65.8373 47.1382 65.8657 47.1099 65.8962 47.0837C66.0555 46.9397 66.2148 46.7914 66.3676 46.6365C72.5583 40.3742 74.7754 33.0475 69.8176 21.9407L69.8219 21.9363Z" fill="#C1E2F3" fill-opacity="0.16"/>
<path d="M69.1433 30.3975C69.2437 33.5581 67.6703 35.7524 65.8722 36.3697C65.2328 36.723 64.5629 36.9128 63.9497 36.9564C61.7654 37.1091 59.7971 34.4218 59.557 30.9559C59.3148 27.4877 60.8903 24.554 63.0747 24.4013C63.6813 24.3598 64.3556 24.53 65.0714 24.7306C67.5154 25.4177 69.0516 27.3961 69.1476 30.3953L69.1433 30.3975Z" fill="#0078B8"/>
<path d="M30.0369 20.8677L31.8786 22.5777" stroke="#66F3FF" stroke-width="2" stroke-linecap="round" stroke-linejoin="round"/>
<path d="M38.7371 23.123C39.239 22.87 40.7337 22.3291 41.3469 22.0259" stroke="#66F3FF" stroke-width="2" stroke-linecap="round" stroke-linejoin="round"/>
<path fill-rule="evenodd" clip-rule="evenodd" d="M15.5528 33.7292C15.6352 33.7371 15.6957 33.8103 15.6879 33.8928C15.6629 34.1551 15.7232 34.7764 15.8842 35.6172C16.0439 36.451 16.2992 37.4836 16.654 38.5599C17.3662 40.7203 18.4694 43.0255 19.9807 44.2697C20.0447 44.3223 20.0539 44.4169 20.0012 44.4808C19.9486 44.5448 19.854 44.554 19.7901 44.5013C18.2093 43.2 17.0846 40.8243 16.3691 38.6538C16.01 37.5647 15.7516 36.5195 15.5896 35.6736C15.4289 34.8347 15.3597 34.1745 15.3892 33.8643C15.3971 33.7818 15.4703 33.7213 15.5528 33.7292Z" fill="#417794"/>
<path d="M53.8267 46.9834C53.8267 46.9834 54.6276 45.9648 57.0999 47.4196C59.5723 48.8745 64.6655 51.2739 64.2291 54.6177C63.917 57.0149 59.7927 59.2702 51.7907 54.5457C47.2802 51.6381 53.1721 46.6933 53.8267 46.9834Z" fill="url(#paint9_radial_4366_45214)"/>
<path d="M54.4703 45.9841C54.4703 45.9841 52.0067 43.2292 48.9626 45.1967C47.8191 45.9361 47.9741 47.4303 48.548 47.4761C48.548 47.4761 46.6757 49.3978 48.6331 50.4578C48.6331 50.4578 47.686 51.6488 48.9582 52.5474C48.9582 52.5474 48.2403 54.1157 49.9053 54.7134C53.0039 55.8236 55.3345 54.7003 55.7273 52.5104C56.2772 49.4436 56.3754 47.7204 54.4681 45.9841H54.4703Z" fill="#0078B8"/>
<path fill-rule="evenodd" clip-rule="evenodd" d="M53.7014 50.244C53.7599 50.2821 53.8268 50.3323 53.8624 50.3932C53.9042 50.4647 53.8801 50.5566 53.8086 50.5984C53.737 50.6402 53.6452 50.6161 53.6034 50.5445C53.6043 50.5462 53.6041 50.546 53.6019 50.5439C53.5965 50.5388 53.5788 50.5222 53.5375 50.4952C53.4867 50.4621 53.416 50.4232 53.3276 50.3807C53.1512 50.2959 52.9152 50.2018 52.6525 50.1154C52.1226 49.9412 51.5087 49.8066 51.0703 49.8312L51.0701 49.8312C50.2953 49.8737 49.7067 50.0632 49.3137 50.2403C49.1171 50.3289 48.9694 50.4144 48.8718 50.477C48.823 50.5083 48.7867 50.5338 48.7632 50.5511C48.7514 50.5598 48.7429 50.5663 48.7375 50.5706L48.7318 50.575L48.731 50.5757L48.7309 50.5758C48.6671 50.6285 48.5726 50.6196 48.5198 50.5558C48.467 50.4919 48.4759 50.3974 48.5397 50.3446L48.6354 50.4601C48.5397 50.3446 48.5398 50.3445 48.5398 50.3445L48.54 50.3444L48.5403 50.3441L48.5411 50.3434L48.5438 50.3413L48.5528 50.3341C48.5604 50.3282 48.5714 50.3198 48.5855 50.3094C48.6139 50.2885 48.6554 50.2594 48.7098 50.2245C48.8186 50.1547 48.9793 50.0619 49.1905 49.9667C49.613 49.7763 50.2377 49.5764 51.0537 49.5317C51.5493 49.5039 52.2064 49.6529 52.7462 49.8304C53.0184 49.9199 53.267 50.0187 53.4576 50.1103C53.5526 50.156 53.6359 50.2013 53.7014 50.244Z" fill="#0F4F72"/>
<path fill-rule="evenodd" clip-rule="evenodd" d="M53.7014 47.3153C53.7599 47.3534 53.8268 47.4036 53.8624 47.4645C53.9042 47.536 53.8801 47.6278 53.8086 47.6696C53.737 47.7114 53.6452 47.6874 53.6034 47.6158C53.6043 47.6175 53.6041 47.6173 53.6019 47.6152C53.5965 47.6101 53.5788 47.5935 53.5375 47.5665C53.4867 47.5334 53.416 47.4945 53.3276 47.452C53.1512 47.3672 52.9152 47.273 52.6525 47.1867C52.1226 47.0125 51.5087 46.8779 51.0703 46.9025L51.0701 46.9025C50.2953 46.945 49.7067 47.1344 49.3137 47.3115C49.1171 47.4001 48.9694 47.4857 48.8718 47.5483C48.823 47.5796 48.7867 47.6051 48.7632 47.6224C48.7514 47.6311 48.7429 47.6376 48.7375 47.6418L48.7318 47.6463L48.731 47.647L48.7309 47.6471C48.6671 47.6998 48.5726 47.6908 48.5198 47.627C48.467 47.5632 48.4759 47.4687 48.5397 47.4158L48.6354 47.5314C48.5397 47.4158 48.5398 47.4158 48.5398 47.4158L48.54 47.4157L48.5403 47.4154L48.5411 47.4147L48.5438 47.4126L48.5528 47.4054C48.5604 47.3995 48.5714 47.3911 48.5855 47.3807C48.6139 47.3598 48.6554 47.3306 48.7098 47.2958C48.8186 47.226 48.9793 47.1332 49.1905 47.038C49.613 46.8476 50.2377 46.6477 51.0537 46.6029C51.5493 46.5752 52.2064 46.7242 52.7462 46.9017C53.0184 46.9912 53.267 47.09 53.4576 47.1816C53.5526 47.2273 53.6359 47.2725 53.7014 47.3153Z" fill="#0F4F72"/>
<path fill-rule="evenodd" clip-rule="evenodd" d="M53.5202 52.2926C53.5203 52.2926 53.5203 52.2926 53.4721 52.4307L53.5202 52.2926C53.5984 52.3199 53.6398 52.4055 53.6124 52.4837C53.5851 52.5619 53.4995 52.6031 53.4213 52.5758C53.4213 52.5758 53.4214 52.5758 53.4213 52.5758L53.4193 52.5751L53.4123 52.5727L53.3839 52.5631C53.3588 52.5547 53.3215 52.5425 53.2736 52.5274C53.1777 52.4971 53.0391 52.4552 52.8696 52.4089C52.53 52.3163 52.0681 52.207 51.5761 52.1389C51.0827 52.0706 50.5667 52.0449 50.1162 52.115C49.6644 52.1852 49.299 52.3483 49.0773 52.6387C49.0271 52.7045 48.9329 52.7171 48.8671 52.6669C48.8012 52.6166 48.7886 52.5225 48.8389 52.4566C49.1267 52.0795 49.5802 51.8947 50.0701 51.8185C50.5613 51.7422 51.1098 51.7715 51.6172 51.8417C52.1259 51.9122 52.6011 52.0248 52.9485 52.1195C53.1224 52.1669 53.2648 52.21 53.3639 52.2413C53.4135 52.2569 53.4523 52.2697 53.4788 52.2785L53.5093 52.2888L53.5173 52.2916L53.5202 52.2926Z" fill="#0F4F72"/>
<path fill-rule="evenodd" clip-rule="evenodd" d="M42.0654 64.0167C42.0654 63.9339 42.1326 63.8667 42.2154 63.8667C42.2564 63.8667 42.2914 63.8819 42.306 63.8884C42.3262 63.8973 42.3475 63.9089 42.3684 63.9211C42.4104 63.9455 42.4639 63.98 42.5259 64.0205C42.5435 64.032 42.5619 64.0441 42.5813 64.0568C42.7006 64.135 42.854 64.2355 43.0435 64.351C43.4833 64.6191 44.1162 64.9668 44.9423 65.2855C46.5936 65.9226 49.0225 66.4457 52.2317 65.9775C52.3137 65.9656 52.3898 66.0223 52.4018 66.1043C52.4138 66.1863 52.357 66.2624 52.275 66.2744C49.0097 66.7507 46.5288 66.2191 44.8343 65.5654C43.9876 65.2388 43.3385 64.8821 42.8874 64.6072C42.6934 64.4889 42.5358 64.3856 42.4164 64.3074C42.3972 64.2948 42.379 64.2829 42.3618 64.2716C42.2988 64.2305 42.2517 64.2003 42.2176 64.1804C42.2035 64.1722 42.1938 64.1671 42.1876 64.1641C42.1181 64.1511 42.0654 64.09 42.0654 64.0167Z" fill="#417794"/>
<g filter="url(#filter5_i_4366_45214)">
<path d="M26.6002 67.7132C26.6002 69.5284 25.1252 71 23.3051 71H11.3815C8.96198 71 7.00024 69.0435 7.00024 66.6292C7.00024 64.2155 8.96198 62.2584 11.3815 62.2584C11.5985 62.2584 11.8118 62.275 12.0209 62.3052C13.0104 60.3451 15.0452 59 17.3958 59C20.2401 59 22.6229 60.9701 23.2489 63.6168C23.3113 63.8811 23.3564 64.1518 23.3824 64.4276V64.4283C25.166 64.4689 26.6002 65.9239 26.6002 67.7132Z" fill="url(#paint10_radial_4366_45214)"/>
</g>
<mask id="mask1_4366_45214" style="mask-type:alpha" maskUnits="userSpaceOnUse" x="7" y="59" width="20" height="12">
<path d="M26.6 67.7132C26.6 69.5284 25.125 71 23.3048 71H11.3813C8.96173 71 7 69.0435 7 66.6292C7 64.2155 8.96173 62.2584 11.3813 62.2584C11.5983 62.2584 11.8116 62.275 12.0207 62.3052C13.0101 60.3451 15.045 59 17.3956 59C20.2399 59 22.6226 60.9701 23.2486 63.6168C23.3111 63.8811 23.3562 64.1518 23.3821 64.4276V64.4283C25.1657 64.4689 26.6 65.9239 26.6 67.7132Z" fill="url(#paint11_radial_4366_45214)"/>
</mask>
<g mask="url(#mask1_4366_45214)">
<g filter="url(#filter6_f_4366_45214)">
<path d="M13.7752 66.6857C11.8095 66.5257 11.3371 63.6286 11.3467 62.2C11.3009 62.0172 11.6705 62.0857 11.861 62.1429L12.6895 60.9429C11.0667 65.1486 12.7467 66.5429 13.7752 66.6857Z" fill="white"/>
</g>
<g filter="url(#filter7_f_4366_45214)">
<path d="M21.1715 67.8854C23.1373 67.7254 23.6096 64.8283 23.6001 63.3997C23.6459 63.2169 23.2763 63.2854 23.0858 63.3426L22.2572 62.1426C23.8801 66.3483 22.2001 67.7426 21.1715 67.8854Z" fill="white"/>
</g>
<g filter="url(#filter8_f_4366_45214)">
<path d="M10.4323 61.9652L10.6561 61.9976L10.7579 61.7957C11.8084 59.7135 13.9684 58.2855 16.4633 58.2855C19.4823 58.2855 22.0117 60.3776 22.676 63.188C22.7412 63.464 22.7886 63.7465 22.8163 64.034V64.3271L23.1234 64.3341C24.9401 64.3755 26.4 65.8582 26.4 67.6802C26.4 69.5287 24.8986 71.0283 23.0445 71.0283H9.76519C7.24353 71.0283 5.20003 68.9884 5.20003 66.4723C5.20003 63.9569 7.24356 61.9162 9.76519 61.9162C9.99077 61.9162 10.2132 61.9335 10.4323 61.9652Z" stroke="#E7EDF5" stroke-width="0.628571"/>
</g>
<g filter="url(#filter9_f_4366_45214)">
<path d="M12.5466 61.9652L12.7703 61.9976L12.8722 61.7957C13.9226 59.7135 16.0827 58.2855 18.5776 58.2855C21.5966 58.2855 24.1259 60.3776 24.7903 63.188C24.8555 63.464 24.9028 63.7465 24.9305 64.034V64.3271L25.2376 64.3341C27.0544 64.3755 28.5143 65.8582 28.5143 67.6802C28.5143 69.5287 27.0129 71.0283 25.1587 71.0283H11.8794C9.35778 71.0283 7.31429 68.9884 7.31429 66.4723C7.31429 63.9569 9.35782 61.9162 11.8794 61.9162C12.105 61.9162 12.3275 61.9335 12.5466 61.9652Z" stroke="white" stroke-width="0.628571"/>
</g>
</g>
<defs>
<filter id="filter0_i_4366_45214" x="57.0002" y="3.83691" width="19" height="11.8544" filterUnits="userSpaceOnUse" color-interpolation-filters="sRGB">
<feFlood flood-opacity="0" result="BackgroundImageFix"/>
<feBlend mode="normal" in="SourceGraphic" in2="BackgroundImageFix" result="shape"/>
<feColorMatrix in="SourceAlpha" type="matrix" values="0 0 0 0 0 0 0 0 0 0 0 0 0 0 0 0 0 0 127 0" result="hardAlpha"/>
<feOffset dy="0.221574"/>
<feGaussianBlur stdDeviation="1.21866"/>
<feComposite in2="hardAlpha" operator="arithmetic" k2="-1" k3="1"/>
<feColorMatrix type="matrix" values="0 0 0 0 1 0 0 0 0 1 0 0 0 0 1 0 0 0 1 0"/>
<feBlend mode="normal" in2="shape" result="effect1_innerShadow_4366_45214"/>
</filter>
<filter id="filter1_f_4366_45214" x="60.5452" y="5.05549" width="3.68736" height="6.89634" filterUnits="userSpaceOnUse" color-interpolation-filters="sRGB">
<feFlood flood-opacity="0" result="BackgroundImageFix"/>
<feBlend mode="normal" in="SourceGraphic" in2="BackgroundImageFix" result="shape"/>
<feGaussianBlur stdDeviation="0.332361" result="effect1_foregroundBlur_4366_45214"/>
</filter>
<filter id="filter2_f_4366_45214" x="70.0731" y="6.21858" width="3.68736" height="6.89634" filterUnits="userSpaceOnUse" color-interpolation-filters="sRGB">
<feFlood flood-opacity="0" result="BackgroundImageFix"/>
<feBlend mode="normal" in="SourceGraphic" in2="BackgroundImageFix" result="shape"/>
<feGaussianBlur stdDeviation="0.332361" result="effect1_foregroundBlur_4366_45214"/>
</filter>
<filter id="filter3_f_4366_45214" x="53.621" y="1.5104" width="23.8193" height="15.6208" filterUnits="userSpaceOnUse" color-interpolation-filters="sRGB">
<feFlood flood-opacity="0" result="BackgroundImageFix"/>
<feBlend mode="normal" in="SourceGraphic" in2="BackgroundImageFix" result="shape"/>
<feGaussianBlur stdDeviation="0.664723" result="effect1_foregroundBlur_4366_45214"/>
</filter>
<filter id="filter4_f_4366_45214" x="55.6706" y="1.5104" width="23.8193" height="15.6208" filterUnits="userSpaceOnUse" color-interpolation-filters="sRGB">
<feFlood flood-opacity="0" result="BackgroundImageFix"/>
<feBlend mode="normal" in="SourceGraphic" in2="BackgroundImageFix" result="shape"/>
<feGaussianBlur stdDeviation="0.664723" result="effect1_foregroundBlur_4366_45214"/>
</filter>
<filter id="filter5_i_4366_45214" x="7.00024" y="59" width="19.6001" height="12.2286" filterUnits="userSpaceOnUse" color-interpolation-filters="sRGB">
<feFlood flood-opacity="0" result="BackgroundImageFix"/>
<feBlend mode="normal" in="SourceGraphic" in2="BackgroundImageFix" result="shape"/>
<feColorMatrix in="SourceAlpha" type="matrix" values="0 0 0 0 0 0 0 0 0 0 0 0 0 0 0 0 0 0 127 0" result="hardAlpha"/>
<feOffset dy="0.228571"/>
<feGaussianBlur stdDeviation="1.25714"/>
<feComposite in2="hardAlpha" operator="arithmetic" k2="-1" k3="1"/>
<feColorMatrix type="matrix" values="0 0 0 0 1 0 0 0 0 1 0 0 0 0 1 0 0 0 1 0"/>
<feBlend mode="normal" in2="shape" result="effect1_innerShadow_4366_45214"/>
</filter>
<filter id="filter6_f_4366_45214" x="10.6571" y="60.2572" width="3.8038" height="7.1141" filterUnits="userSpaceOnUse" color-interpolation-filters="sRGB">
<feFlood flood-opacity="0" result="BackgroundImageFix"/>
<feBlend mode="normal" in="SourceGraphic" in2="BackgroundImageFix" result="shape"/>
<feGaussianBlur stdDeviation="0.342857" result="effect1_foregroundBlur_4366_45214"/>
</filter>
<filter id="filter7_f_4366_45214" x="20.4859" y="61.4569" width="3.8038" height="7.1141" filterUnits="userSpaceOnUse" color-interpolation-filters="sRGB">
<feFlood flood-opacity="0" result="BackgroundImageFix"/>
<feBlend mode="normal" in="SourceGraphic" in2="BackgroundImageFix" result="shape"/>
<feGaussianBlur stdDeviation="0.342857" result="effect1_foregroundBlur_4366_45214"/>
</filter>
<filter id="filter8_f_4366_45214" x="3.51431" y="56.5998" width="24.5715" height="16.1144" filterUnits="userSpaceOnUse" color-interpolation-filters="sRGB">
<feFlood flood-opacity="0" result="BackgroundImageFix"/>
<feBlend mode="normal" in="SourceGraphic" in2="BackgroundImageFix" result="shape"/>
<feGaussianBlur stdDeviation="0.685714" result="effect1_foregroundBlur_4366_45214"/>
</filter>
<filter id="filter9_f_4366_45214" x="5.62857" y="56.5998" width="24.5715" height="16.1144" filterUnits="userSpaceOnUse" color-interpolation-filters="sRGB">
<feFlood flood-opacity="0" result="BackgroundImageFix"/>
<feBlend mode="normal" in="SourceGraphic" in2="BackgroundImageFix" result="shape"/>
<feGaussianBlur stdDeviation="0.685714" result="effect1_foregroundBlur_4366_45214"/>
</filter>
<radialGradient id="paint0_radial_4366_45214" cx="0" cy="0" r="1" gradientUnits="userSpaceOnUse" gradientTransform="translate(69.4626 6.99524) rotate(135.374) scale(11.841 13.2159)">
<stop stop-color="white"/>
<stop offset="1" stop-color="#E2EFF9"/>
</radialGradient>
<radialGradient id="paint1_radial_4366_45214" cx="0" cy="0" r="1" gradientUnits="userSpaceOnUse" gradientTransform="translate(69.4624 6.99524) rotate(135.374) scale(11.841 13.2159)">
<stop stop-color="white"/>
<stop offset="1" stop-color="#E7E7E7"/>
</radialGradient>
<radialGradient id="paint2_radial_4366_45214" cx="0" cy="0" r="1" gradientUnits="userSpaceOnUse" gradientTransform="translate(53.9795 65.5127) rotate(30.3567) scale(9.29476 7.50943)">
<stop offset="0.573027" stop-color="white"/>
<stop offset="1" stop-color="#ECF3F8"/>
</radialGradient>
<radialGradient id="paint3_radial_4366_45214" cx="0" cy="0" r="1" gradientUnits="userSpaceOnUse" gradientTransform="translate(20.6729 42.8601) rotate(14.882) scale(15.2679 7.84033)">
<stop offset="0.644556" stop-color="white"/>
<stop offset="1" stop-color="#ECF3F8"/>
</radialGradient>
<radialGradient id="paint4_radial_4366_45214" cx="0" cy="0" r="1" gradientUnits="userSpaceOnUse" gradientTransform="translate(46.3694 54.4185) rotate(112.827) scale(10.1582 13.1433)">
<stop offset="0.815548" stop-color="white"/>
<stop offset="1" stop-color="#ECF3F8"/>
</radialGradient>
<radialGradient id="paint5_radial_4366_45214" cx="0" cy="0" r="1" gradientUnits="userSpaceOnUse" gradientTransform="translate(40.9516 30.081) rotate(90.9171) scale(21.218 28.6695)">
<stop offset="0.807065" stop-color="white"/>
<stop offset="1" stop-color="#ECF3F8"/>
</radialGradient>
<linearGradient id="paint6_linear_4366_45214" x1="28.0439" y1="33.5962" x2="28.5569" y2="23.1039" gradientUnits="userSpaceOnUse">
<stop stop-color="white"/>
<stop offset="1" stop-color="#66FFFF"/>
</linearGradient>
<linearGradient id="paint7_linear_4366_45214" x1="42.3874" y1="34.7953" x2="42.8705" y2="24.9131" gradientUnits="userSpaceOnUse">
<stop stop-color="white"/>
<stop offset="1" stop-color="#66FFFF"/>
</linearGradient>
<linearGradient id="paint8_linear_4366_45214" x1="34.2187" y1="35.3277" x2="34.0037" y2="38.5662" gradientUnits="userSpaceOnUse">
<stop stop-color="#66FFFF"/>
<stop offset="1" stop-color="white"/>
</linearGradient>
<radialGradient id="paint9_radial_4366_45214" cx="0" cy="0" r="1" gradientUnits="userSpaceOnUse" gradientTransform="translate(56.3866 52.0824) rotate(18.8648) scale(8.34756 4.23366)">
<stop offset="0.657962" stop-color="white"/>
<stop offset="1" stop-color="#ECF3F8"/>
</radialGradient>
<radialGradient id="paint10_radial_4366_45214" cx="0" cy="0" r="1" gradientUnits="userSpaceOnUse" gradientTransform="translate(19.8562 62.2581) rotate(135.374) scale(12.215 13.6333)">
<stop stop-color="white"/>
<stop offset="1" stop-color="#E2EFF9"/>
</radialGradient>
<radialGradient id="paint11_radial_4366_45214" cx="0" cy="0" r="1" gradientUnits="userSpaceOnUse" gradientTransform="translate(19.8559 62.2581) rotate(135.374) scale(12.215 13.6333)">
<stop stop-color="white"/>
<stop offset="1" stop-color="#E7E7E7"/>
</radialGradient>
</defs>
</svg>
