<svg width="80" height="80" viewBox="0 0 80 80" fill="none" xmlns="http://www.w3.org/2000/svg">
<path d="M51.16 54.6398C51.4492 54.9684 54.9587 58.5108 59.3402 57.0518C63.7216 55.5906 66.7887 50.1137 66.7887 50.1137C66.7887 50.1137 59.1211 44.7092 58.683 45.0028C58.2448 45.2963 56.5645 48.9439 56.5645 48.9439L52.6212 46.6064C52.6212 46.6064 45.7576 48.5057 51.16 54.6398Z" fill="url(#paint0_radial_2406_32289)"/>
<path d="M51.0152 51.5349C51.0152 51.5349 53.2541 49.2017 55.2367 48.1546L52.621 46.6035C52.621 46.6035 50.4018 47.2191 49.4795 48.8775C50.1477 49.9619 51.0152 51.5349 51.0152 51.5349Z" fill="#C1E2F3" fill-opacity="0.24"/>
<path d="M48.645 63.9061C48.645 63.9061 47.6175 75.1117 44.1189 76.7416C41.9939 77.7318 39.4899 77.6639 38.4625 74.0995C37.7724 71.7007 38.3464 69.9853 38.7013 65.4702C39.1723 59.4808 48.645 63.9061 48.645 63.9061Z" fill="url(#paint1_radial_2406_32289)"/>
<path d="M38.701 65.4702C38.414 69.1265 37.9846 70.9448 38.1971 72.7807C40.1425 67.9676 46.1561 66.5371 48.4016 65.8952C48.5746 64.6991 48.6447 63.906 48.6447 63.906C48.6447 63.906 39.172 59.4786 38.701 65.4702Z" fill="#C1E2F3" fill-opacity="0.24"/>
<path d="M46.8376 72.7084C46.1672 74.6012 45.28 76.2004 44.1167 76.7415C41.9917 77.7318 39.4877 77.6638 38.4602 74.0995C38.2346 73.3196 38.1469 72.612 38.1382 71.8584C41.2906 74.5968 45.0675 73.4861 46.8354 72.7106L46.8376 72.7084Z" fill="#0078B8"/>
<path d="M41.2534 65.4315C41.2534 65.4315 40.2259 76.637 36.7273 78.2669C34.6023 79.2572 32.0983 79.1892 31.0709 75.6249C30.3808 73.2261 30.9548 71.5107 31.3097 66.9956C31.7807 61.0062 41.2534 65.4315 41.2534 65.4315Z" fill="url(#paint2_radial_2406_32289)"/>
<path d="M31.3094 66.9956C31.0224 70.6519 30.593 72.4702 30.8055 74.3061C32.7509 69.493 38.7667 68.0625 41.01 67.4206C41.183 66.2245 41.2531 65.4314 41.2531 65.4314C41.2531 65.4314 31.7804 61.0039 31.3094 66.9956Z" fill="#C1E2F3" fill-opacity="0.24"/>
<path d="M39.4479 74.2357C38.7776 76.1285 37.8903 77.7278 36.727 78.2689C34.602 79.2591 32.098 79.1912 31.0706 75.6269C30.8471 74.847 30.7573 74.1394 30.7485 73.3857C33.901 76.1242 37.6778 75.0135 39.4457 74.2379L39.4479 74.2357Z" fill="#0078B8"/>
<path d="M28.4023 57.8533C28.4067 57.965 28.4111 58.0745 28.4221 58.1863C28.4221 58.2126 28.4242 58.2367 28.4264 58.2608C28.433 58.3856 28.444 58.5083 28.4549 58.6332C28.4615 58.7274 28.4724 58.8216 28.4812 58.9158C28.4922 59.0144 28.5053 59.113 28.5163 59.2115C28.5272 59.3167 28.5425 59.4218 28.5601 59.527C28.5754 59.6168 28.5864 59.7023 28.6039 59.7921C28.6061 59.8074 28.6083 59.8206 28.6105 59.8381C28.6302 59.952 28.6521 60.0681 28.674 60.182C28.6806 60.2105 28.6849 60.239 28.6937 60.2697C28.7134 60.3726 28.7353 60.4756 28.7594 60.5786C28.8536 60.9838 28.9654 61.3869 29.0968 61.7856C29.1757 62.0266 29.2633 62.2654 29.3619 62.5042C29.3663 62.5173 29.3706 62.5283 29.3772 62.5415C29.4276 62.6641 29.4802 62.7868 29.5349 62.9095C29.5853 63.0234 29.6379 63.1351 29.6949 63.2491C29.6993 63.26 29.7036 63.271 29.7124 63.2819C29.8066 63.4769 29.9074 63.6675 30.0147 63.8559C32.1989 67.7116 39.8248 67.3611 39.8248 67.3611C39.8248 67.3611 47.5362 66.6381 50.1081 62.4626C51.4751 60.2412 51.968 57.6671 52.0294 55.2463C52.1389 50.694 50.7127 46.6827 50.6733 46.5623H50.6711C50.4959 46.4505 50.3184 46.3454 50.1432 46.2468C49.9701 46.146 49.7948 46.0496 49.6174 45.9576C49.5276 45.9116 49.4421 45.8656 49.3523 45.8218C49.0894 45.6903 48.8243 45.5699 48.5614 45.4537C48.2964 45.3398 48.0335 45.2347 47.7706 45.1383C47.5975 45.0726 47.4223 45.0134 47.247 44.9543C47.0717 44.8973 46.8965 44.8425 46.7234 44.7921C46.6336 44.768 46.5482 44.7418 46.4605 44.7198C45.8537 44.5555 45.2491 44.4329 44.651 44.3452C44.5634 44.3321 44.4801 44.3233 44.3925 44.3124C44.2216 44.2905 44.0529 44.2707 43.8842 44.2576C43.3782 44.2094 42.8743 44.1875 42.3814 44.1875C42.2346 44.1875 42.0878 44.1897 41.9411 44.1941C41.8907 44.1941 41.8403 44.1963 41.7921 44.1963C41.6453 44.2028 41.4985 44.2116 41.3517 44.2182C41.1853 44.2269 41.0188 44.2423 40.8545 44.2576C40.688 44.2729 40.5215 44.2883 40.3572 44.308H40.355C34.8168 44.9586 30.5777 48.0344 30.19 48.3258C30.1703 48.3389 30.1615 48.3455 30.1615 48.3455C30.1615 48.3455 30.1615 48.3477 30.1593 48.3521C30.1571 48.3587 30.1527 48.3718 30.1418 48.3915C29.9819 48.7705 28.9128 51.4038 28.5272 54.7403C28.5163 54.852 28.5031 54.9593 28.49 55.0711C28.479 55.2135 28.4637 55.358 28.4505 55.5026C28.4286 55.7611 28.4133 56.0218 28.4023 56.2869C28.3826 56.7995 28.3804 57.3253 28.4023 57.8555V57.8533Z" fill="url(#paint3_radial_2406_32289)"/>
<path d="M28.4026 57.8535C28.407 57.9653 28.4113 58.0748 28.4223 58.1865C28.4223 58.2128 28.4245 58.2369 28.4267 58.261C28.4332 58.3859 28.4442 58.5086 28.4552 58.6334C28.4617 58.7276 28.4727 58.8218 28.4814 58.916C28.4924 59.0146 28.5055 59.1132 28.5165 59.2118C28.5274 59.3169 28.5428 59.4221 28.5603 59.5272C28.5756 59.6171 28.5866 59.7025 28.6041 59.7923C28.6063 59.8076 28.6085 59.8208 28.6107 59.8383C28.6304 59.9522 28.6523 60.0683 28.6742 60.1823C28.6808 60.2107 28.6852 60.2392 28.6939 60.2699C28.7137 60.3729 28.7356 60.4758 28.7597 60.5788C28.8539 60.9841 28.9656 61.3872 29.097 61.7859C29.1759 62.0269 29.2657 62.2657 29.3621 62.5044C29.3665 62.5176 29.3709 62.5285 29.3775 62.5417C29.4278 62.6644 29.4804 62.787 29.5352 62.9097C29.5856 63.0236 29.6381 63.1354 29.6951 63.2493C29.6995 63.2602 29.7039 63.2712 29.7126 63.2822C29.717 57.3365 34.4227 53.0186 42.0727 51.2156C47.7796 49.8705 50.3866 51.7217 52.0274 55.2444C52.137 50.692 50.7108 46.6808 50.6714 46.5603H50.6692C50.4939 46.4486 50.3165 46.3434 50.1412 46.2448C49.9681 46.1441 49.7929 46.0477 49.6154 45.9557C49.5256 45.9097 49.4402 45.8636 49.3503 45.8198C49.0875 45.6884 48.8224 45.5635 48.5595 45.4518C48.2944 45.3379 48.0315 45.2327 47.7686 45.1363C47.5956 45.0706 47.4203 45.0115 47.2451 44.9523C47.0698 44.8953 46.8945 44.8406 46.7215 44.7902C46.6317 44.7661 46.5462 44.7398 46.4586 44.7179C45.8518 44.5514 45.2471 44.4309 44.649 44.3433C44.5614 44.3301 44.4782 44.3214 44.3905 44.3104C44.2197 44.2885 44.051 44.2688 43.8823 44.2557C43.3762 44.2075 42.8724 44.1855 42.3794 44.1855C42.2327 44.1855 42.0859 44.1877 41.9391 44.1921C41.8887 44.1921 41.8383 44.1943 41.7901 44.1943C41.6434 44.2009 41.4966 44.2096 41.3498 44.2162C41.1833 44.225 41.0168 44.2403 40.8525 44.2557C40.686 44.271 40.5195 44.2863 40.3552 44.306H40.353C34.8915 45.3269 30.5824 48.0675 30.188 48.3238C30.1683 48.337 30.1595 48.3436 30.1595 48.3436C30.1595 48.3436 30.1595 48.3457 30.1574 48.3501C30.1552 48.3567 30.1508 48.3698 30.1398 48.3896C30.0062 48.7357 29.1496 51.0206 28.6238 54.0022C28.5866 54.2432 28.5537 54.4886 28.5253 54.7405C28.5143 54.8522 28.5012 54.9596 28.488 55.0713C28.4771 55.2137 28.4617 55.3583 28.4486 55.5029C28.4267 55.7614 28.4113 56.0221 28.4004 56.2871C28.3807 56.7998 28.3785 57.3256 28.4004 57.8557L28.4026 57.8535Z" fill="#C1E2F3" fill-opacity="0.16"/>
<path d="M40.4272 55.479L38.5278 67.6003L37.6274 67.4842L34.7401 67.114L20.6011 65.3001L22.9364 53.7637L40.4272 55.479Z" fill="#FF573F"/>
<path d="M39.6606 55.8802C39.6606 55.8802 38.0855 64.8228 37.6276 67.4845L34.7402 67.1143L36.7754 55.5889L39.6606 55.8802Z" fill="white"/>
<path fill-rule="evenodd" clip-rule="evenodd" d="M38.7704 57.0839C38.8523 57.0968 38.9082 57.1736 38.8953 57.2554L37.307 67.3328C37.2941 67.4146 37.2173 67.4705 37.1355 67.4576C37.0536 67.4447 36.9977 67.3679 37.0106 67.2861L38.5989 57.2087C38.6118 57.1269 38.6886 57.071 38.7704 57.0839Z" fill="#417794"/>
<path fill-rule="evenodd" clip-rule="evenodd" d="M37.9487 57.0282C38.0305 57.0411 38.0864 57.1179 38.0735 57.1997L36.4852 67.2771C36.4723 67.3589 36.3955 67.4148 36.3137 67.4019C36.2318 67.389 36.176 67.3122 36.1889 67.2304L37.7771 57.153C37.79 57.0712 37.8668 57.0153 37.9487 57.0282Z" fill="#417794"/>
<path fill-rule="evenodd" clip-rule="evenodd" d="M37.1274 56.9735C37.2092 56.9864 37.2651 57.0632 37.2522 57.1451L35.6639 67.2224C35.651 67.3043 35.5742 67.3601 35.4924 67.3472C35.4106 67.3343 35.3547 67.2575 35.3676 67.1757L36.9559 57.0983C36.9688 57.0165 37.0455 56.9606 37.1274 56.9735Z" fill="#417794"/>
<path d="M24.9453 64.023C24.9453 64.023 25.1644 66.9805 28.0123 67.4187C28.0123 67.4187 28.7791 68.7704 30.0935 67.8941C30.0935 67.8941 31.2261 68.4418 31.9929 67.3464C32.6501 67.675 33.4191 67.0484 33.4892 66.7615C33.7082 65.8852 32.5033 61.5037 31.8461 61.7228L24.9453 64.023Z" fill="#0078B8"/>
<path fill-rule="evenodd" clip-rule="evenodd" d="M30.8631 65.4733C30.8576 65.3955 30.7927 65.334 30.7135 65.334C30.6306 65.334 30.5635 65.4011 30.5635 65.484C30.5635 65.5167 30.572 65.5477 30.5781 65.5675C30.5853 65.5907 30.595 65.616 30.606 65.642C30.6281 65.6942 30.6589 65.7578 30.6958 65.8286C30.7698 65.9706 30.8721 66.1493 30.9875 66.3382C31.2171 66.7143 31.5052 67.1421 31.7323 67.4066C31.7862 67.4694 31.8809 67.4766 31.9438 67.4227C32.0066 67.3687 32.0139 67.274 31.9599 67.2112C31.7488 66.9652 31.4706 66.5539 31.2435 66.1819C31.1304 65.9967 31.0318 65.8241 30.9619 65.6899C30.9268 65.6226 30.9 65.567 30.8823 65.5252C30.8735 65.5043 30.8678 65.4889 30.8646 65.4786C30.8639 65.4764 30.8635 65.4746 30.8631 65.4733Z" fill="#0F4F72"/>
<path fill-rule="evenodd" clip-rule="evenodd" d="M28.9217 65.7276L28.9227 65.7306L28.9263 65.741C28.9295 65.7503 28.9343 65.7642 28.9408 65.7823C28.9538 65.8185 28.9733 65.8714 28.999 65.9373C29.0504 66.0693 29.1265 66.2529 29.225 66.4587C29.4233 66.8735 29.7064 67.3662 30.0531 67.7129C30.1117 67.7715 30.1117 67.8665 30.0531 67.9251C29.9945 67.9836 29.8996 67.9836 29.841 67.9251C29.4582 67.5422 29.1575 67.013 28.9543 66.5882C28.852 66.3742 28.773 66.1836 28.7195 66.0463C28.6927 65.9776 28.6723 65.9221 28.6585 65.8836C28.6515 65.8643 28.6463 65.8493 28.6427 65.839L28.6386 65.827L28.6375 65.8238L28.6371 65.8226C28.6109 65.744 28.6534 65.6589 28.732 65.6327C28.8105 65.6065 28.8955 65.649 28.9217 65.7276Z" fill="#0F4F72"/>
<path fill-rule="evenodd" clip-rule="evenodd" d="M26.9173 65.8623C26.9899 65.8224 27.0811 65.8489 27.121 65.9215L27.1219 65.9231L27.125 65.9288L27.138 65.9517C27.1496 65.9719 27.1669 66.0016 27.1894 66.0392C27.2344 66.1143 27.3003 66.2204 27.3829 66.3433C27.5488 66.59 27.7799 66.9006 28.0442 67.1649C28.1028 67.2235 28.1028 67.3185 28.0442 67.377C27.9856 67.4356 27.8906 67.4356 27.8321 67.377C27.5487 67.0937 27.3054 66.7656 27.134 66.5107C27.0479 66.3828 26.9793 66.2722 26.9321 66.1935C26.9085 66.1541 26.8901 66.1225 26.8777 66.1007L26.8633 66.0754L26.8595 66.0687L26.8585 66.0668C26.8186 65.9942 26.8447 65.9022 26.9173 65.8623Z" fill="#0F4F72"/>
<path d="M34.6285 52.2165C33.6843 54.8059 31.8944 58.4644 32.3939 60.6267C33.0511 63.4746 31.0795 64.2414 28.2315 64.6795C25.7735 65.0585 21.5586 65.2973 25.0594 55.0031C25.6136 53.3688 26.4001 51.5592 27.4648 49.5635C27.9029 49.673 35.1323 50.8779 35.1323 50.8779C35.1323 50.8779 34.9286 51.3927 34.6285 52.2165Z" fill="url(#paint4_radial_2406_32289)"/>
<path d="M35.1326 50.8779C35.1326 50.8779 34.9288 51.3927 34.6287 52.2165C30.5167 52.8079 26.8757 54.1991 25.0596 55.0031C25.6138 53.3688 26.4003 51.5592 27.465 49.5635C27.9031 49.673 35.1326 50.8779 35.1326 50.8779Z" fill="#C1E2F3" fill-opacity="0.24"/>
<path d="M49.4052 48.8778C34.2015 52.3523 23.8788 51.4475 17.863 46.0452C12.1167 40.8816 8.75616 27.2115 14.509 17.5854C19.7339 8.84219 35.7219 7.42698 38.4493 7.08742C41.1768 6.74785 51.563 5.93728 58.1725 11.3418C68.252 19.5833 68.0658 31.3629 65.7108 37.44C63.5442 43.0286 59.9689 46.284 49.4074 48.8756L49.4052 48.8778Z" fill="url(#paint5_radial_2406_32289)"/>
<path d="M29.3815 37.8934C29.8131 41.0919 32.9458 43.2212 36.3327 42.656L57.7975 39.0698C60.7922 38.5703 62.8625 35.7815 62.466 32.835L60.5973 18.9633C60.2007 16.0167 57.4645 13.8742 54.4457 14.1853L32.7969 16.4045C29.3815 16.755 26.9235 19.6358 27.3529 22.8343L29.3793 37.8956L29.3815 37.8934Z" fill="#004367"/>
<path d="M57.1929 38.5687C59.743 38.1459 61.5196 35.7646 61.1823 33.2562L59.3092 19.3363C58.9718 16.8279 56.6299 15.003 54.058 15.2725L32.3566 17.5552C29.4561 17.8597 27.3639 20.3177 27.7276 23.0321L29.754 38.0824C30.1199 40.7945 32.7882 42.6106 35.6646 42.133L57.1951 38.5687H57.1929Z" fill="#0078B8"/>
<path d="M55.1839 15.7872C57.0548 15.8946 58.5751 17.4062 58.8972 18.6483C59.2455 20 59.0242 21.9782 57.3746 21.0515C56.3384 20.4688 55.6352 18.4424 52.5287 17.6187C50.1145 16.979 52.0949 15.6098 55.1861 15.7872H55.1839Z" fill="white"/>
<path d="M53.2892 32.3048C52.7459 32.3048 52.2421 32.158 51.7798 31.8623C49.9878 30.7187 49.611 27.6977 49.5957 27.5707C49.5518 27.2092 49.8104 26.8828 50.1718 26.8411C50.5333 26.7995 50.8597 27.0558 50.9013 27.4151C50.9868 28.1161 51.4359 30.0856 52.4896 30.756C52.9102 31.0232 53.401 31.0605 53.9881 30.8677C54.7461 30.6202 55.2434 30.1513 55.5128 29.4372C56.032 28.0548 55.5019 26.1423 55.3003 25.794C55.0944 25.5048 55.1579 25.1017 55.4427 24.8892C55.7341 24.6723 56.1459 24.7293 56.3628 25.0206C56.7112 25.4851 57.4078 27.8094 56.8185 29.6825C56.4417 30.8809 55.6048 31.7221 54.3977 32.1186C54.0144 32.2457 53.6441 32.307 53.2892 32.307V32.3048Z" fill="url(#paint6_linear_2406_32289)"/>
<path d="M38.7317 34.382C37.9649 34.382 37.2617 34.1783 36.633 33.773C35.2769 32.9011 34.3349 31.131 33.9055 28.6532C33.9011 28.6226 33.8967 28.6007 33.8924 28.5831C33.8091 28.2523 33.9953 27.9106 34.3217 27.8011C34.6657 27.6871 35.0381 27.8733 35.152 28.2173C35.1717 28.2764 35.1783 28.3203 35.198 28.4298C35.5573 30.5044 36.3197 32.0094 37.3428 32.6689C37.9956 33.0895 38.758 33.1771 39.6759 32.9383C41.6103 32.4345 41.2729 29.2447 41.2707 29.2119C41.2291 28.8526 41.4898 28.5262 41.8491 28.4846C42.2106 28.4429 42.5348 28.7014 42.5764 29.0607C42.5961 29.2382 43.0452 33.4159 40.0089 34.2089C39.5663 34.3251 39.1392 34.382 38.7317 34.382Z" fill="url(#paint7_linear_2406_32289)"/>
<path d="M14.5089 17.5861C8.75605 27.2121 12.1166 40.8823 17.8651 46.0437C20.6123 48.5104 24.2577 50.0374 28.8538 50.6398C28.8779 50.5829 28.8889 50.55 28.8889 50.55C28.8889 50.55 18.5924 40.2536 17.0589 29.9571C15.8431 21.7901 19.725 14.3131 21.3834 11.5703C18.5618 13.0381 16.06 14.9879 14.5089 17.5861Z" fill="#C1E2F3" fill-opacity="0.24"/>
<path d="M12.9862 31.9478C13.4222 35.0936 15.3478 36.9996 17.2319 37.3063H17.2341C17.9263 37.5473 18.6208 37.6239 19.2364 37.5604C21.4227 37.3413 22.9168 34.3488 22.5685 30.8765C22.2224 27.402 20.1653 24.7643 17.9789 24.9834C17.3721 25.0448 16.7346 25.3274 16.0598 25.6472C13.7574 26.7426 12.5722 28.9596 12.984 31.9456L12.9862 31.9478Z" fill="#0078B8"/>
<path d="M46.1406 33.6805C46.1406 33.6805 48.2744 32.7232 50.1387 32.9138C50.1387 32.9138 50.5944 35.5054 48.5504 35.6522C46.1779 35.8209 46.1406 33.6805 46.1406 33.6805Z" fill="url(#paint8_linear_2406_32289)"/>
<path d="M27.0834 4.94749C27.0943 5.38564 26.792 9.50202 26.792 9.50202C26.792 9.50202 33.6621 11.8089 39.564 10.5777C45.1153 9.41877 46.8438 6.95858 46.8438 6.95858L45.6016 2.33176C45.6016 2.33176 42.4908 0.21113 34.8123 1.48395C27.1337 2.75676 27.0855 4.94749 27.0855 4.94749H27.0834Z" fill="#303051"/>
<path d="M22.7612 6.0143L22.437 4.83349C22.437 4.83349 35.06 1.90229 35.2659 1.89791C35.4938 1.89353 50.509 0.90332 50.509 0.90332L50.5331 1.94392L38.7645 5.83028L22.7612 6.0143Z" fill="#303051"/>
<path d="M22.437 4.83319C22.437 4.83319 34.9461 0.863586 35.2418 0.857014C35.5376 0.850442 50.509 0.903019 50.509 0.903019L38.7404 4.78938L22.437 4.83538V4.83319Z" fill="#3C3C68"/>
<path d="M22.7612 6.01367C22.7612 6.01367 23.7558 12.071 23.1797 15.5916" stroke="#3C3C68" stroke-width="0.766756" stroke-miterlimit="10"/>
<path d="M21.7251 18.2537C21.7251 18.2537 21.7536 13.7254 23.4623 13.5392C25.1711 13.353 24.4964 18.4092 24.4964 18.4092L21.7251 18.2537Z" fill="#3C3C68"/>
<path d="M61.2569 42.9978C61.2569 41.8477 61.0926 35.9327 62.4618 35.878C63.8311 35.8232 63.9406 38.0139 64.1597 42.8335C64.1597 42.8335 65.5289 41.4643 66.0766 43.8741C66.0766 43.8741 67.4742 43.3812 67.7459 45.3529C67.7459 45.3529 68.655 45.9685 67.9913 47.7079C67.115 50.0082 65.783 51.8155 62.6415 51.3774C57.5853 51.3138 57.6401 46.5578 57.8591 45.2981C58.0782 44.0384 60.3566 42.805 61.2548 42.9978H61.2569Z" fill="#0078B8"/>
<path fill-rule="evenodd" clip-rule="evenodd" d="M65.9155 43.8779C65.9741 43.8193 66.0691 43.8193 66.1276 43.8779C66.1862 43.9365 66.1862 44.0315 66.1276 44.0901L66.0216 43.984L65.9155 43.8779ZM63.8558 47.8227C63.796 47.7481 63.7669 47.646 63.7749 47.5073C63.7833 47.3621 63.8322 47.1873 63.9172 46.9897C64.0872 46.5946 64.3866 46.1414 64.7164 45.708C65.0449 45.2763 65.3979 44.8716 65.6692 44.5743C65.8048 44.4258 65.9196 44.3045 66.0005 44.2204C66.041 44.1783 66.0729 44.1456 66.0946 44.1234L66.1194 44.0983L66.1257 44.092L66.1276 44.0901L66.0216 43.984L65.9155 43.8779L65.9131 43.8804L65.9063 43.8871L65.8806 43.9133C65.8581 43.9361 65.8255 43.9696 65.7843 44.0124C65.7019 44.0981 65.5852 44.2214 65.4476 44.3721C65.1728 44.6732 64.8135 45.085 64.4777 45.5263C64.1432 45.9659 63.8262 46.4422 63.6416 46.8711C63.5494 47.0854 63.4866 47.2963 63.4754 47.4901C63.4641 47.6858 63.5055 47.874 63.6333 48.0244C63.6374 48.0293 63.6419 48.0339 63.6466 48.0382L63.7476 47.9273C63.6466 48.0382 63.6466 48.0382 63.6466 48.0382L63.6478 48.0393L63.6504 48.0416L63.6593 48.0495C63.6669 48.0561 63.6779 48.0655 63.6918 48.077C63.7196 48.1001 63.7595 48.132 63.8092 48.1684C63.9081 48.2407 64.048 48.3326 64.2095 48.4074C64.5239 48.5529 64.9758 48.656 65.3403 48.3254C65.4016 48.2697 65.4062 48.1749 65.3506 48.1135C65.2949 48.0521 65.2001 48.0475 65.1387 48.1032C64.9139 48.3071 64.6198 48.2667 64.3356 48.1351C64.1977 48.0713 64.0752 47.9913 63.9864 47.9263C63.9423 47.894 63.9071 47.8659 63.8833 47.8461C63.8714 47.8362 63.8616 47.8279 63.8558 47.8227Z" fill="#0F4F72"/>
<path fill-rule="evenodd" clip-rule="evenodd" d="M67.661 45.2311C67.7284 45.1829 67.8221 45.1985 67.8703 45.266C67.9184 45.3334 67.9028 45.427 67.8354 45.4752L67.7482 45.3531L67.661 45.2311ZM67.661 45.2311L67.7482 45.3531L67.8354 45.4752L67.8334 45.4766L67.8272 45.4811L67.8023 45.4992C67.7804 45.5151 67.7482 45.5388 67.7074 45.5692C67.6257 45.6301 67.5095 45.7181 67.3721 45.8265C67.097 46.0435 66.7381 46.3407 66.4005 46.6632C66.061 46.9875 65.7509 47.33 65.5663 47.6374C65.3736 47.9582 65.3563 48.1718 65.4571 48.3021C65.609 48.4986 65.7569 48.606 65.8951 48.6563C66.032 48.706 66.1723 48.7047 66.3195 48.6609C66.6235 48.5704 66.9423 48.303 67.2544 47.9637C67.3105 47.9027 67.4054 47.8988 67.4664 47.9549C67.5273 48.011 67.5313 48.1058 67.4752 48.1668C67.1586 48.511 66.7928 48.833 66.4051 48.9484C66.2064 49.0076 65.9991 49.0133 65.7926 48.9382C65.5876 48.8636 65.3964 48.7142 65.2197 48.4856C64.9919 48.1909 65.1115 47.8119 65.3091 47.4829C65.5147 47.1405 65.8481 46.7759 66.1932 46.4463C66.5402 46.1149 66.907 45.8113 67.1864 45.5909C67.3262 45.4806 67.4446 45.3909 67.5281 45.3287C67.5698 45.2975 67.6029 45.2733 67.6256 45.2567L67.6517 45.2378L67.6585 45.2329L67.661 45.2311Z" fill="#0F4F72"/>
<path fill-rule="evenodd" clip-rule="evenodd" d="M61.226 43.0004C61.2547 42.9227 61.341 42.883 61.4187 42.9117L61.421 42.9126L61.427 42.9148L61.4491 42.9233C61.4682 42.9307 61.496 42.9416 61.5311 42.9559C61.6012 42.9844 61.7008 43.0265 61.8194 43.0807C62.0561 43.1891 62.3709 43.3473 62.6801 43.5459C62.9878 43.7435 63.2977 43.9861 63.5178 44.2655C63.7384 44.5455 63.8796 44.8775 63.8147 45.2431C63.8127 45.2543 63.8094 45.2653 63.8049 45.2758C63.7276 45.4567 63.5712 45.6143 63.3693 45.7409C63.166 45.8685 62.907 45.9709 62.6079 46.0372C62.0823 46.1537 61.4226 46.1614 60.6981 45.9901C60.7177 46.0609 60.7326 46.1343 60.7438 46.2075C60.7737 46.4026 60.7804 46.6132 60.7768 46.8047C60.7731 46.9968 60.7589 47.1734 60.7457 47.3018C60.739 47.3661 60.7326 47.4185 60.7278 47.4551L60.7221 47.4977L60.7204 47.5091L60.7199 47.5122L60.7198 47.5133C60.7073 47.5952 60.6307 47.6516 60.5488 47.6391C60.4669 47.6266 60.4107 47.5501 60.4232 47.4682L60.4236 47.4653L60.4251 47.4554L60.4304 47.4162C60.4349 47.382 60.4409 47.3323 60.4473 47.271C60.4599 47.1483 60.4734 46.9804 60.4768 46.799C60.4803 46.6169 60.4736 46.4249 60.4472 46.2529C60.4204 46.0776 60.3754 45.939 60.3132 45.8511C60.2762 45.7989 60.2765 45.7289 60.3138 45.677C60.3512 45.625 60.4174 45.6024 60.4787 45.6208C61.2776 45.8605 61.9981 45.8651 62.543 45.7443C62.8156 45.6839 63.0411 45.5927 63.2099 45.4868C63.3721 45.385 63.4737 45.275 63.5222 45.1731C63.5596 44.928 63.4679 44.6869 63.2821 44.4511C63.0915 44.209 62.8127 43.9876 62.5179 43.7983C62.2246 43.6099 61.9233 43.4583 61.6945 43.3535C61.5803 43.3013 61.4848 43.2609 61.418 43.2337C61.3846 43.2201 61.3585 43.2099 61.3408 43.203L61.3209 43.1954L61.316 43.1936L61.3149 43.1932C61.2372 43.1644 61.1973 43.0781 61.226 43.0004Z" fill="#0F4F72"/>
<path fill-rule="evenodd" clip-rule="evenodd" d="M64.2638 42.9416C64.2638 42.9416 64.2639 42.9416 64.2638 42.9416L64.2623 42.9431L64.2568 42.9485L64.2347 42.9704C64.2154 42.9898 64.1874 43.0184 64.153 43.0546C64.0843 43.1272 63.9906 43.2302 63.8912 43.3513C63.6891 43.5975 63.4764 43.9035 63.3891 44.1762C63.3638 44.2551 63.2794 44.2986 63.2005 44.2734C63.1216 44.2481 63.0781 44.1637 63.1034 44.0848C63.2089 43.755 63.4529 43.4125 63.6593 43.161C63.7643 43.0331 63.8628 42.9248 63.9352 42.8483C63.9715 42.8101 64.0013 42.7797 64.0221 42.7587L64.0465 42.7345L64.0531 42.7281L64.0549 42.7263L64.0556 42.7256C64.1153 42.6681 64.2103 42.6698 64.2678 42.7295C64.3253 42.7891 64.3235 42.8841 64.2638 42.9416Z" fill="#0F4F72"/>
<path fill-rule="evenodd" clip-rule="evenodd" d="M62.2714 46.0647C62.4213 46.07 62.4213 46.0699 62.4213 46.0698L62.4213 46.0698L62.4213 46.07L62.4212 46.0722L62.4211 46.0829C62.4211 46.0928 62.4211 46.1078 62.4217 46.1274C62.4229 46.1666 62.4261 46.2235 62.4341 46.2924C62.4501 46.431 62.4853 46.6143 62.5608 46.7981C62.6361 46.9816 62.7496 47.1612 62.9203 47.2993C63.0894 47.4362 63.3225 47.5389 63.6493 47.558C63.732 47.5628 63.7952 47.6338 63.7903 47.7165C63.7855 47.7992 63.7145 47.8623 63.6318 47.8575C63.2467 47.835 62.9526 47.7115 62.7315 47.5325C62.5119 47.3547 62.3722 47.1288 62.2832 46.912C62.1943 46.6954 62.1542 46.4835 62.1361 46.327C62.1269 46.2484 62.1233 46.1828 62.1219 46.1364C62.1212 46.1131 62.121 46.0946 62.1211 46.0815L62.1213 46.0661L62.1214 46.0617L62.1214 46.0603L62.1215 46.0598L62.1215 46.0596C62.1215 46.0595 62.1215 46.0594 62.2714 46.0647Z" fill="#0F4F72"/>
<path fill-rule="evenodd" clip-rule="evenodd" d="M41.0384 67.2733C41.1197 67.289 41.1729 67.3677 41.1572 67.449L40.0991 72.9236C40.0833 73.005 40.0047 73.0582 39.9233 73.0424C39.842 73.0267 39.7888 72.948 39.8045 72.8667L40.8626 67.3921C40.8784 67.3107 40.957 67.2575 41.0384 67.2733Z" fill="#417794"/>
<path fill-rule="evenodd" clip-rule="evenodd" d="M56.6428 48.8132C56.7134 48.8566 56.7354 48.949 56.6921 49.0196C56.3579 49.5635 56.016 50.6289 55.7415 51.6325C55.5326 52.3959 55.3676 53.1044 55.2762 53.4968C55.248 53.6178 55.2268 53.7087 55.2135 53.762C55.1934 53.8423 55.112 53.8912 55.0316 53.8711C54.9513 53.851 54.9024 53.7696 54.9225 53.6892C54.9347 53.6404 54.9548 53.5541 54.9818 53.4379C55.0725 53.0487 55.2412 52.3244 55.4521 51.5533C55.7247 50.5568 56.0762 49.449 56.4365 48.8625C56.4798 48.7919 56.5722 48.7699 56.6428 48.8132Z" fill="#417794"/>
<defs>
<radialGradient id="paint0_radial_2406_32289" cx="0" cy="0" r="1" gradientUnits="userSpaceOnUse" gradientTransform="translate(57.9688 52.8872) rotate(90.3933) scale(4.51553 6.44027)">
<stop offset="0.653021" stop-color="white"/>
<stop offset="1" stop-color="#ECF3F8"/>
</radialGradient>
<radialGradient id="paint1_radial_2406_32289" cx="0" cy="0" r="1" gradientUnits="userSpaceOnUse" gradientTransform="translate(43.3918 69.8104) rotate(96.5273) scale(6.66985 4.6852)">
<stop offset="0.598774" stop-color="white"/>
<stop offset="1" stop-color="#ECF3F8"/>
</radialGradient>
<radialGradient id="paint2_radial_2406_32289" cx="0" cy="0" r="1" gradientUnits="userSpaceOnUse" gradientTransform="translate(36.0614 71.399) rotate(110.898) scale(6.44872 4.62898)">
<stop offset="0.608371" stop-color="white"/>
<stop offset="1" stop-color="#ECF3F8"/>
</radialGradient>
<radialGradient id="paint3_radial_2406_32289" cx="0" cy="0" r="1" gradientUnits="userSpaceOnUse" gradientTransform="translate(40.211 55.7784) rotate(90) scale(11.5909 11.8243)">
<stop offset="0.751143" stop-color="white"/>
<stop offset="1" stop-color="#ECF3F8"/>
</radialGradient>
<radialGradient id="paint4_radial_2406_32289" cx="0" cy="0" r="1" gradientUnits="userSpaceOnUse" gradientTransform="translate(28.8318 56.1729) rotate(108.435) scale(8.31324 6.22013)">
<stop offset="0.75451" stop-color="white"/>
<stop offset="1" stop-color="#ECF3F8"/>
</radialGradient>
<radialGradient id="paint5_radial_2406_32289" cx="0" cy="0" r="1" gradientUnits="userSpaceOnUse" gradientTransform="translate(42.8527 28.8983) rotate(99.0018) scale(22.4023 28.2006)">
<stop offset="0.747899" stop-color="white"/>
<stop offset="1" stop-color="#ECF3F8"/>
</radialGradient>
<linearGradient id="paint6_linear_2406_32289" x1="52.9891" y1="26.1883" x2="54.5949" y2="32.3224" gradientUnits="userSpaceOnUse">
<stop stop-color="#66FFFF"/>
<stop offset="1" stop-color="white"/>
</linearGradient>
<linearGradient id="paint7_linear_2406_32289" x1="37.8795" y1="28.0705" x2="39.9234" y2="33.911" gradientUnits="userSpaceOnUse">
<stop stop-color="#66FFFF"/>
<stop offset="1" stop-color="white"/>
</linearGradient>
<linearGradient id="paint8_linear_2406_32289" x1="48.1605" y1="32.3004" x2="48.1605" y2="38.1387" gradientUnits="userSpaceOnUse">
<stop stop-color="#66FFFF"/>
<stop offset="1" stop-color="white"/>
</linearGradient>
</defs>
</svg>
