<svg width="16" height="16" viewBox="0 0 16 16" fill="none" xmlns="http://www.w3.org/2000/svg">
<path d="M7.9502 14.85C4.4627 14.85 0.700195 12.6625 0.700195 7.8625C0.700195 3.0625 4.4627 0.875 7.9502 0.875C9.8877 0.875 11.6752 1.5125 13.0002 2.675C14.4377 3.95 15.2002 5.75 15.2002 7.8625C15.2002 9.975 14.4377 11.7625 13.0002 13.0375C11.6752 14.2 9.8752 14.85 7.9502 14.85Z" fill="url(#paint0_radial_1982_38892)"/>
<path d="M13.9365 3.70898C14.6027 4.78398 14.9502 6.06398 14.9502 7.48773C14.9502 9.60023 14.1877 11.3877 12.7502 12.6627C11.4252 13.8252 9.62523 14.4752 7.70023 14.4752C5.44273 14.4752 3.07523 13.5565 1.67773 11.6077C3.02273 13.8152 5.55273 14.8502 7.95023 14.8502C9.87523 14.8502 11.6752 14.2002 13.0002 13.0377C14.4377 11.7627 15.2002 9.97523 15.2002 7.86273C15.2002 6.27023 14.7665 4.85523 13.9365 3.70898Z" fill="#E38A00"/>
<path d="M4.93007 3.90147C4.87507 3.76897 4.72507 3.70147 4.59007 3.75022C4.38757 3.81647 4.19257 3.90272 4.00632 4.00647C3.51132 4.27897 3.08757 4.66522 2.77007 5.13147C2.68257 5.25022 2.70507 5.41647 2.82132 5.50647C2.88257 5.55772 2.96257 5.58272 3.04257 5.57272C3.10257 5.56397 3.15757 5.53522 3.20007 5.49147C3.68007 5.02147 4.21757 4.61397 4.79882 4.27897L4.81257 4.27147C4.94507 4.20022 4.99757 4.03647 4.93007 3.90147Z" fill="#422B0D"/>
<path d="M11.3362 3.77647C11.3912 3.64397 11.5412 3.57647 11.6762 3.62522C11.8774 3.69022 12.0724 3.77397 12.2587 3.87522C12.7537 4.14772 13.1774 4.53272 13.4962 5.00022C13.5824 5.11897 13.5599 5.28397 13.4449 5.37522C13.3837 5.42647 13.3037 5.45022 13.2237 5.44147C13.1637 5.43272 13.1087 5.40397 13.0662 5.36022C12.5862 4.89022 12.0487 4.48272 11.4674 4.14772L11.4537 4.14022C11.3249 4.06897 11.2724 3.91022 11.3362 3.77647Z" fill="#422B0D"/>
<path d="M12.759 8.95293C12.584 8.63668 12.204 8.49793 11.8665 8.62543C10.584 8.99918 9.25401 9.18543 7.91776 9.17918C6.58151 9.18543 5.25151 8.99918 3.96901 8.62543C3.63276 8.49793 3.25276 8.63543 3.07776 8.95043C2.90776 9.26418 3.03026 9.62793 3.17401 9.94168C3.97651 11.7042 5.74526 12.7592 7.90776 12.7654H7.92776C10.0903 12.7654 11.859 11.7042 12.6628 9.94168C12.8053 9.62543 12.929 9.26668 12.759 8.95293Z" fill="#422B0D"/>
<path d="M9.91863 12.2676C9.87238 12.2251 9.82488 12.1864 9.77738 12.1426C9.26738 11.6939 8.60738 11.4526 7.92738 11.4664C7.22738 11.4551 6.54613 11.6876 5.99988 12.1251C5.95238 12.1639 5.90238 12.2014 5.85613 12.2501C5.80988 12.2989 5.78488 12.3339 5.75488 12.3751C6.44238 12.6439 7.17488 12.7814 7.91363 12.7776H7.93363C8.64113 12.7776 9.34238 12.6514 10.0049 12.4026C9.97988 12.3551 9.95113 12.3101 9.91863 12.2676Z" fill="#ED7770"/>
<path d="M11.8663 8.62498C10.5838 8.99873 9.25377 9.18498 7.91752 9.17873C6.58127 9.18498 5.25127 8.99873 3.96877 8.62498C3.63252 8.49748 3.25252 8.63498 3.07752 8.94998C3.05252 8.99748 3.03252 9.04748 3.02002 9.09873C3.06127 9.11998 3.10877 9.14123 3.16502 9.16373C4.67002 9.91748 6.33377 10.3 8.01627 10.28C9.63002 10.2987 11.225 9.94748 12.6825 9.25498C12.7413 9.22998 12.79 9.20623 12.8338 9.18373C12.8238 9.10248 12.7975 9.02248 12.7588 8.94998C12.5838 8.63498 12.2038 8.49623 11.8663 8.62498Z" fill="white"/>
<path d="M12.764 8.95418C12.5865 8.63793 12.2053 8.49793 11.8653 8.62543C10.5828 8.99918 9.25276 9.18543 7.91776 9.17918C6.58151 9.18543 5.25151 8.99918 3.96901 8.62543C3.63276 8.49793 3.25276 8.63543 3.07776 8.95043C2.90776 9.26418 3.03026 9.62793 3.17401 9.94168C3.23776 10.0829 3.30901 10.2217 3.38776 10.3554C3.38776 10.3554 3.12526 9.38293 3.35276 9.10043C3.43026 8.98043 3.56026 8.90543 3.70276 8.89793C3.76151 8.89793 3.81901 8.90793 3.87526 8.92543C5.18026 9.30918 6.53401 9.50293 7.89526 9.50043H7.93901C9.30026 9.50293 10.654 9.30918 11.959 8.92543C12.0153 8.90793 12.0728 8.89793 12.1315 8.89793C12.274 8.90543 12.4053 8.98043 12.4828 9.10043C12.714 9.38293 12.4478 10.3592 12.4478 10.3592C12.5253 10.2254 12.6028 10.0879 12.6678 9.94543C12.8103 9.63168 12.934 9.26918 12.764 8.95418Z" fill="#E38A00"/>
<path d="M12.5864 7.13672C12.5864 7.13672 14.7114 7.19547 15.5602 8.76172C15.9152 9.41922 15.9352 10.5117 15.2002 10.9105C14.3114 11.3992 13.4777 10.7055 13.3714 9.96547C13.0852 7.95797 12.5864 7.13672 12.5864 7.13672Z" fill="#29B6F6"/>
<path d="M15.4076 10.1591C15.3238 10.3116 15.1401 10.3778 14.9788 10.3141C14.8351 10.2378 14.7963 10.0541 14.7738 9.89281L14.7051 9.39281C14.6763 9.19406 14.4738 8.55031 14.6863 8.44531C14.8551 8.36281 15.1788 8.59031 15.2738 8.72156C15.4826 9.01906 15.5813 9.86656 15.4076 10.1591Z" fill="#81D4FA"/>
<path d="M14.6865 8.45117C14.8553 8.36867 15.179 8.59617 15.274 8.72742C15.4828 9.01867 15.5815 9.86617 15.4078 10.1587C15.324 10.3112 15.1403 10.3774 14.979 10.3137C14.8353 10.2374 14.7965 10.0537 14.774 9.89242L14.7053 9.39242" fill="#81D4FA"/>
<path d="M3.41387 7.13672C3.41387 7.13672 1.28887 7.19547 0.440116 8.76172C0.0851164 9.41297 0.0713664 10.5005 0.800116 10.9042C1.68887 11.393 2.52262 10.6992 2.62887 9.95922C2.91512 7.95797 3.41387 7.13672 3.41387 7.13672Z" fill="#29B6F6"/>
<path d="M0.592708 10.1591C0.676458 10.3116 0.860208 10.3778 1.02146 10.3141C1.16521 10.2378 1.20396 10.0541 1.22646 9.89281L1.29521 9.39281C1.32396 9.19406 1.52646 8.55031 1.31396 8.44531C1.14521 8.36281 0.821458 8.59031 0.726458 8.72156C0.517708 9.01906 0.418958 9.86656 0.592708 10.1591Z" fill="#81D4FA"/>
<path d="M6.01871 6.98391L5.99996 6.95641L5.97371 6.92266C5.96371 6.90891 5.95371 6.89766 5.94121 6.88641L5.86496 6.80891C5.83246 6.77641 5.79621 6.74391 5.75621 6.71016C5.67371 6.63891 5.58121 6.58141 5.48121 6.53641C5.38496 6.49391 5.27996 6.47141 5.17496 6.47141C5.21871 6.47141 5.18621 6.47141 5.19621 6.47141H5.12496C5.11246 6.47016 5.10121 6.47016 5.08871 6.47141C5.06621 6.47391 5.04371 6.47766 5.02121 6.48266C4.96996 6.49516 4.91871 6.51141 4.86996 6.53141C4.76996 6.57516 4.67746 6.63391 4.59496 6.70516C4.52746 6.76141 4.46371 6.82266 4.40496 6.88891L4.33371 6.96891L4.29621 7.01141C4.14496 7.18391 3.88371 7.20141 3.71121 7.05141C3.58246 6.93891 3.53621 6.75766 3.59371 6.59641L3.60746 6.55641C3.61871 6.53016 3.62871 6.49016 3.65246 6.44266C3.70996 6.30766 3.78496 6.17891 3.87496 6.06266C4.09371 5.77391 4.40121 5.56391 4.74996 5.46391C4.82121 5.44516 4.89371 5.43141 4.96746 5.42141C5.00496 5.42141 5.05996 5.41016 5.07621 5.41016H5.17121C5.31246 5.41266 5.45371 5.43266 5.59121 5.46766C5.72246 5.50391 5.84746 5.55641 5.96621 5.62391C6.15996 5.73766 6.32996 5.88766 6.46621 6.06641C6.55871 6.18766 6.63746 6.31891 6.69871 6.45891C6.70871 6.47891 6.71746 6.49891 6.72246 6.52016C6.72871 6.53641 6.73246 6.55016 6.73621 6.56141L6.74746 6.59516C6.81871 6.81641 6.69746 7.05391 6.47621 7.12516C6.30996 7.17891 6.12621 7.12391 6.01746 6.98766L6.01871 6.98391Z" fill="#422B0D"/>
<path d="M11.685 6.98391L11.6625 6.95641L11.6362 6.92266C11.6262 6.90891 11.6162 6.89766 11.6037 6.88641L11.5262 6.80891C11.4925 6.77391 11.4562 6.74141 11.4187 6.71016C11.3362 6.63891 11.2437 6.58141 11.1437 6.53641C11.0475 6.49391 10.9425 6.47141 10.8375 6.47141C10.8812 6.47141 10.8487 6.47141 10.8587 6.47141H10.7862C10.7737 6.47016 10.7625 6.47016 10.75 6.47141C10.7275 6.47391 10.705 6.47766 10.6825 6.48266C10.6312 6.49516 10.58 6.51141 10.5312 6.53141C10.43 6.57766 10.335 6.63766 10.25 6.71016C10.1825 6.76766 10.12 6.82891 10.0612 6.89391L9.98996 6.97391L9.95246 7.01641C9.80121 7.18891 9.53996 7.20641 9.36746 7.05641C9.23871 6.94391 9.19246 6.76266 9.24996 6.60141L9.26371 6.56141C9.27496 6.53516 9.28496 6.49516 9.30746 6.44766C9.36746 6.31016 9.44371 6.18141 9.53621 6.06266C9.75496 5.77391 10.0625 5.56391 10.4112 5.46391C10.4825 5.44516 10.555 5.43141 10.6287 5.42141C10.6662 5.42141 10.7212 5.41016 10.7375 5.41016H10.8325C10.9737 5.41266 11.115 5.43266 11.2525 5.46766C11.3825 5.50516 11.5075 5.55766 11.625 5.62516C11.8187 5.73766 11.9887 5.88891 12.125 6.06766C12.1775 6.13516 12.2237 6.20641 12.2662 6.28016C12.3 6.33891 12.33 6.39891 12.3575 6.46016C12.3675 6.48016 12.375 6.50016 12.3812 6.52141C12.3812 6.53766 12.3912 6.55141 12.395 6.56266L12.4062 6.59641C12.4775 6.81766 12.3562 7.05516 12.135 7.12641C11.9687 7.18016 11.785 7.12516 11.6762 6.98891L11.685 6.98391Z" fill="#422B0D"/>
<defs>
<radialGradient id="paint0_radial_1982_38892" cx="0" cy="0" r="1" gradientUnits="userSpaceOnUse" gradientTransform="translate(7.9502 7.8625) scale(7.11996)">
<stop stop-color="#FFDE1E"/>
<stop offset="0.53" stop-color="#FFDD16"/>
<stop offset="0.795" stop-color="#FEC114"/>
<stop offset="0.955" stop-color="#FEA311"/>
<stop offset="1" stop-color="#F49400"/>
</radialGradient>
</defs>
</svg>
