<svg width="16" height="16" viewBox="0 0 16 16" fill="none" xmlns="http://www.w3.org/2000/svg">
<g id="courseware_icon_switch">
<path id="Vector" d="M5.5 2.49966L3 2.49966C2.86739 2.49966 2.74021 2.55234 2.64645 2.64611C2.55268 2.73988 2.5 2.86706 2.5 2.99966V12.9997C2.5 13.1323 2.55268 13.2594 2.64645 13.3532C2.74021 13.447 2.86739 13.4997 3 13.4997H9.79375C9.85868 13.4999 9.92301 13.4873 9.98307 13.4626C10.0431 13.438 10.0977 13.4017 10.1438 13.3559L13.3562 10.1434C13.402 10.0974 13.4383 10.0428 13.463 9.98273C13.4876 9.92267 13.5002 9.85834 13.5 9.79341V2.99966C13.5 2.86706 13.4473 2.73988 13.3536 2.64611C13.2598 2.55234 13.1326 2.49966 13 2.49966L10.5 2.49966" stroke="#0078B8" stroke-linecap="round" stroke-linejoin="round"/>
<path id="Vector_2" d="M8 4.49966V3.49966M8 3.49966C7.44772 3.49966 7 3.05195 7 2.49966C7 1.94738 7.44772 1.49966 8 1.49966C8.55228 1.49966 9 1.94738 9 2.49966C9 3.05195 8.55228 3.49966 8 3.49966Z" stroke="#0078B8" stroke-linecap="round" stroke-linejoin="round"/>
<path id="Vector_3" d="M13.4562 9.99966H10V13.4559" stroke="#0078B8" stroke-linecap="round" stroke-linejoin="round"/>
</g>
</svg>
