<svg width="16" height="16" viewBox="0 0 16 16" fill="none" xmlns="http://www.w3.org/2000/svg">
<path fill-rule="evenodd" clip-rule="evenodd" d="M8.00004 14.6666C11.6819 14.6666 14.6667 11.6818 14.6667 7.99992C14.6667 4.31802 11.6819 1.33325 8.00004 1.33325C4.31814 1.33325 1.33337 4.31802 1.33337 7.99992C1.33337 11.6818 4.31814 14.6666 8.00004 14.6666ZM5.38412 5.7448C5.33337 5.86731 5.33337 6.02262 5.33337 6.33325V9.66658C5.33337 9.97721 5.33337 10.1325 5.38412 10.255C5.45178 10.4184 5.58157 10.5482 5.74492 10.6158C5.86743 10.6666 6.02275 10.6666 6.33337 10.6666C6.644 10.6666 6.79932 10.6666 6.92183 10.6158C7.08518 10.5482 7.21496 10.4184 7.28263 10.255C7.33337 10.1325 7.33337 9.97721 7.33337 9.66658V6.33325C7.33337 6.02262 7.33337 5.86731 7.28263 5.7448C7.21496 5.58144 7.08518 5.45166 6.92183 5.384C6.79932 5.33325 6.644 5.33325 6.33337 5.33325C6.02275 5.33325 5.86743 5.33325 5.74492 5.384C5.58157 5.45166 5.45178 5.58144 5.38412 5.7448ZM8.71745 5.7448C8.66671 5.86731 8.66671 6.02262 8.66671 6.33325V9.66658C8.66671 9.97721 8.66671 10.1325 8.71745 10.255C8.78512 10.4184 8.9149 10.5482 9.07825 10.6158C9.20077 10.6666 9.35608 10.6666 9.66671 10.6666C9.97733 10.6666 10.1326 10.6666 10.2552 10.6158C10.4185 10.5482 10.5483 10.4184 10.616 10.255C10.6667 10.1325 10.6667 9.97721 10.6667 9.66658V6.33325C10.6667 6.02262 10.6667 5.86731 10.616 5.7448C10.5483 5.58144 10.4185 5.45166 10.2552 5.384C10.1326 5.33325 9.97733 5.33325 9.66671 5.33325C9.35608 5.33325 9.20077 5.33325 9.07825 5.384C8.9149 5.45166 8.78512 5.58144 8.71745 5.7448Z" fill="#555555"/>
</svg>
