<svg width="20" height="20" viewBox="0 0 20 20" fill="none" xmlns="http://www.w3.org/2000/svg">
<path fill-rule="evenodd" clip-rule="evenodd" d="M9.99984 18.3337C14.6022 18.3337 18.3332 14.6027 18.3332 10.0003C18.3332 5.39795 14.6022 1.66699 9.99984 1.66699C5.39746 1.66699 1.6665 5.39795 1.6665 10.0003C1.6665 14.6027 5.39746 18.3337 9.99984 18.3337ZM6.99773 12.9615C7.20328 12.6842 7.59471 12.626 7.87201 12.8316C8.47896 13.2814 9.21159 13.542 9.99984 13.542C10.7881 13.542 11.5207 13.2814 12.1277 12.8316C12.405 12.626 12.7964 12.6842 13.0019 12.9615C13.2075 13.2388 13.1493 13.6302 12.872 13.8358C12.0617 14.4364 11.0706 14.792 9.99984 14.792C8.92903 14.792 7.938 14.4364 7.12766 13.8358C6.85036 13.6302 6.79218 13.2388 6.99773 12.9615ZM13.3332 8.75033C13.3332 9.44068 12.9601 10.0003 12.4998 10.0003C12.0396 10.0003 11.6665 9.44068 11.6665 8.75033C11.6665 8.05997 12.0396 7.50033 12.4998 7.50033C12.9601 7.50033 13.3332 8.05997 13.3332 8.75033ZM7.49984 10.0003C7.96007 10.0003 8.33317 9.44068 8.33317 8.75033C8.33317 8.05997 7.96007 7.50033 7.49984 7.50033C7.0396 7.50033 6.6665 8.05997 6.6665 8.75033C6.6665 9.44068 7.0396 10.0003 7.49984 10.0003Z" fill="#323232"/>
</svg>
