<svg width="100" height="100" viewBox="0 0 100 100" fill="none" xmlns="http://www.w3.org/2000/svg">
<g clip-path="url(#clip0_2088_15383)">
<path d="M43.0848 80.8875C43.0848 80.8875 44.3691 94.8944 48.7423 96.9318C51.3986 98.1696 54.5286 98.0847 55.8129 93.6293C56.6755 90.6307 55.9581 88.4866 55.5144 82.8427C54.9257 75.3559 43.0848 80.8875 43.0848 80.8875Z" fill="url(#paint0_radial_2088_15383)"/>
<path d="M55.5144 82.8429C55.8732 87.4133 56.4099 89.6862 56.1443 91.981C53.7126 85.9647 46.1929 84.1765 43.3887 83.3741C43.1724 81.879 43.0848 80.8877 43.0848 80.8877C43.0848 80.8877 54.9257 75.3533 55.5144 82.8429Z" fill="#C1E2F3" fill-opacity="0.24"/>
<path d="M45.3412 91.8906C46.1792 94.2566 47.2883 96.2557 48.7424 96.9321C51.3986 98.1698 54.5286 98.0849 55.8129 93.6295C56.095 92.6546 56.2045 91.7701 56.2155 90.8281C52.2749 94.2511 47.5539 92.8628 45.344 91.8934L45.3412 91.8906Z" fill="#0078B8"/>
<path d="M52.3214 82.7957C52.3214 82.7957 53.6057 96.8027 57.979 98.84C60.6352 100.078 63.7652 99.9929 65.0496 95.5375C65.9122 92.5389 65.1947 90.3948 64.7511 84.7509C64.1623 77.2641 52.3214 82.7957 52.3214 82.7957Z" fill="url(#paint1_radial_2088_15383)"/>
<path d="M64.7511 84.7511C65.1098 89.3215 65.6465 91.5944 65.3809 93.8892C62.9492 87.8729 55.4295 86.0847 52.6254 85.2823C52.409 83.7872 52.3214 82.7959 52.3214 82.7959C52.3214 82.7959 64.1623 77.2615 64.7511 84.7511Z" fill="#C1E2F3" fill-opacity="0.24"/>
<path d="M54.5807 93.7988C55.4186 96.1648 56.5277 98.1639 57.9818 98.8403C60.6381 100.078 63.7681 99.9931 65.0524 95.5377C65.3317 94.5629 65.444 93.6783 65.4549 92.7363C61.5143 96.1593 56.7933 94.771 54.5834 93.8016L54.5807 93.7988Z" fill="#0078B8"/>
<path fill-rule="evenodd" clip-rule="evenodd" d="M52.5899 85.0982C52.6916 85.0785 52.7899 85.145 52.8096 85.2467L54.1322 92.09C54.1519 92.1917 54.0854 92.29 53.9837 92.3097C53.882 92.3293 53.7837 92.2628 53.764 92.1611L52.4414 85.3178C52.4217 85.2162 52.4882 85.1178 52.5899 85.0982Z" fill="#417794"/>
<path d="M21.4075 74.3259C21.4075 74.3259 23.9624 81.6292 33.64 77.4285C39.785 74.7613 42.9506 64.2841 42.9506 64.2841C42.9506 64.2841 41.4938 59.2838 40.7626 59.0455C40.0287 58.8073 33.6619 58.7607 33.6619 58.7607C33.6619 58.7607 19.036 70.8536 21.4075 74.3232V74.3259Z" fill="url(#paint2_radial_2088_15383)"/>
<path d="M68.5931 73.1652C68.5876 73.3049 68.5822 73.4418 68.5685 73.5815C68.5685 73.6143 68.5657 73.6445 68.563 73.6746C68.552 73.8307 68.5411 73.984 68.5274 74.1428C68.5192 74.2606 68.5055 74.3784 68.4945 74.4961C68.4808 74.6193 68.4644 74.7426 68.4507 74.8658C68.437 74.9972 68.4179 75.1287 68.396 75.2601C68.3768 75.3724 68.3631 75.4792 68.3412 75.5915C68.3385 75.6106 68.3357 75.6271 68.333 75.649C68.3083 75.7914 68.2809 75.9338 68.2536 76.0789C68.2453 76.1145 68.2399 76.1501 68.2289 76.1884C68.2043 76.3171 68.1769 76.4459 68.1468 76.5746C68.029 77.0812 67.8894 77.585 67.725 78.0834C67.6265 78.3847 67.5169 78.6831 67.3937 78.9816C67.3882 78.9981 67.3827 79.0117 67.3745 79.0282C67.3115 79.1815 67.2458 79.3349 67.1774 79.4882C67.1144 79.6306 67.0487 79.7703 66.9775 79.9127C66.972 79.9264 66.9665 79.9401 66.9555 79.9538C66.8378 80.1975 66.7118 80.4357 66.5777 80.6712C63.8475 85.4908 54.315 85.0527 54.315 85.0527C54.315 85.0527 43.6051 85.5703 40.3929 80.3508C38.6842 77.5741 39.136 72.9352 39.0621 69.9065C38.9251 64.2161 40.7079 59.2021 40.7571 59.0514H40.7599C40.979 58.9118 41.2008 58.7803 41.4198 58.6571C41.6362 58.5311 41.858 58.4107 42.0771 58.2956C42.1893 58.2381 42.2961 58.1806 42.4084 58.1259C42.737 57.9616 43.0684 57.8109 43.397 57.6658C43.7283 57.5234 44.0569 57.392 44.3855 57.2715C44.6019 57.1893 44.8237 57.1154 45.04 57.0415C45.2591 56.9703 45.4782 56.9018 45.6945 56.8388C45.8068 56.8087 45.9136 56.7758 46.0231 56.7484C46.7817 56.5431 47.5375 56.3897 48.285 56.2802C48.3946 56.2637 48.4986 56.2528 48.6082 56.2391C48.8218 56.2117 49.0326 56.1871 49.2435 56.1706C49.8761 56.1104 50.5059 56.083 51.122 56.083C51.3055 56.083 51.489 56.0857 51.6725 56.0912C51.7354 56.0912 51.7984 56.094 51.8587 56.094C52.0421 56.1022 52.2256 56.1131 52.4091 56.1213C52.6172 56.1323 52.8253 56.1515 53.0307 56.1706C53.2388 56.1898 53.447 56.209 53.6523 56.2336H53.6551C60.5778 57.0469 65.8766 60.8917 66.3613 61.2559C66.386 61.2723 66.3969 61.2805 66.3969 61.2805C66.3969 61.2805 66.3969 61.2833 66.3997 61.2887C66.3997 61.2969 66.4079 61.3134 66.4216 61.338C66.6215 61.8118 67.9578 65.1033 68.4398 69.2739C68.4535 69.4136 68.4699 69.5478 68.4836 69.6874C68.4973 69.8654 68.5164 70.0462 68.5329 70.2269C68.5603 70.5501 68.5794 70.8759 68.5931 71.2073C68.6178 71.8481 68.6205 72.5053 68.5931 73.168V73.1652Z" fill="url(#paint3_radial_2088_15383)"/>
<path d="M40.7599 59.0485H40.7626C40.9817 58.9089 41.2035 58.7774 41.4226 58.6542C41.6389 58.5282 41.8607 58.4077 42.0798 58.2927C42.1921 58.2352 42.2989 58.1777 42.4111 58.1229C42.7398 57.9586 43.0711 57.808 43.3997 57.6629C43.7311 57.5205 44.0597 57.389 44.3883 57.2685C44.6046 57.1864 44.8264 57.1125 45.0428 57.0385C45.2618 56.9673 45.4809 56.8989 45.6972 56.8359C45.8095 56.8058 45.9163 56.7729 46.0259 56.7455C46.7844 56.5401 47.5402 56.3868 48.2878 56.2772C48.3973 56.2608 48.5014 56.2499 48.6109 56.2362C48.8245 56.2088 49.0354 56.1841 49.2462 56.1677C49.8788 56.1075 50.5086 56.0801 51.1248 56.0801C51.3083 56.0801 51.4917 56.0828 51.6752 56.0883C51.7382 56.0883 51.8012 56.091 51.8614 56.091C52.0449 56.0992 52.2284 56.1102 52.4118 56.1184C52.62 56.1294 52.8281 56.1485 53.0335 56.1677C53.2416 56.1869 53.4497 56.206 53.6551 56.2307H53.6578C60.4847 57.5068 65.8711 60.9325 66.3641 61.2529C66.3887 61.2694 66.3997 61.2776 66.3997 61.2776C66.3997 61.2776 66.3997 61.2803 66.4024 61.2858C66.4024 61.294 66.4106 61.3104 66.4243 61.3351C66.5913 61.7678 67.6621 64.6239 68.3193 68.3509C68.3658 68.6521 68.4069 68.9588 68.4425 69.2738C68.4562 69.4134 68.4726 69.5476 68.4863 69.6873C68.5 69.8653 68.5192 70.046 68.5356 70.2267C68.563 70.5499 68.5822 70.8757 68.5959 71.2071C68.6205 71.8479 68.6232 72.5051 68.5959 73.1678C68.5904 73.3074 68.5849 73.4444 68.5712 73.584C68.5712 73.6169 68.5685 73.647 68.5657 73.6771C68.5548 73.8332 68.5438 73.9866 68.5301 74.1454C68.5219 74.2631 68.5082 74.3809 68.4973 74.4986C68.4836 74.6219 68.4672 74.7451 68.4535 74.8683C68.4398 74.9998 68.4206 75.1312 68.3987 75.2627C68.3795 75.3749 68.3658 75.4817 68.3439 75.594C68.3412 75.6132 68.3384 75.6296 68.3357 75.6515C68.3111 75.7939 68.2837 75.9363 68.2563 76.0814C68.2481 76.117 68.2426 76.1527 68.2316 76.191C68.207 76.3197 68.1796 76.4484 68.1495 76.5771C68.0317 77.0837 67.8921 77.5876 67.7278 78.086C67.6292 78.3872 67.5169 78.6857 67.3964 78.9842C67.391 79.0006 67.3855 79.0143 67.3773 79.0307C67.3143 79.1841 67.2486 79.3374 67.1801 79.4908C67.1171 79.6332 67.0514 79.7728 66.9802 79.9152C66.9747 79.9289 66.9692 79.9426 66.9583 79.9563C66.8405 80.2 66.7146 80.4383 66.5804 80.6738C66.3586 81.0626 66.0902 81.4159 65.789 81.739C65.0934 74.715 60.3204 66.9516 51.5054 64.8759C44.3718 63.1945 41.1131 65.5084 39.0621 69.9118C38.9251 64.2214 40.7079 59.2073 40.7571 59.0567L40.7599 59.0485Z" fill="#C1E2F3" fill-opacity="0.16"/>
<path d="M45.7302 63.3862C65.1428 65.1936 77.7833 62.3757 84.35 54.6917C90.6237 47.35 92.5406 29.8598 83.8325 18.876C75.9212 8.89723 55.876 9.77352 52.442 9.80091C49.0053 9.82829 36.0033 10.5321 28.7 18.3146C17.5629 30.1829 19.7317 44.7513 23.6476 51.8931C27.2514 58.4625 32.2161 61.9102 45.7302 63.3862Z" fill="url(#paint4_radial_2088_15383)"/>
<path d="M70.8934 46.7364C70.8852 50.7728 67.3499 53.9247 63.0643 53.7796L35.8746 52.8622C32.0819 52.7335 29.0559 49.6199 29.0642 45.9039L29.0998 28.4054C29.1052 24.6894 32.1449 21.5841 35.9376 21.4718L63.13 20.6639C67.4184 20.5352 70.94 23.7036 70.9318 27.7373L70.8934 46.7336V46.7364Z" fill="#004367"/>
<path d="M36.5427 52.1447C33.3141 52.0406 30.7209 49.3816 30.7291 46.216L30.7619 28.6601C30.7674 25.4945 33.3717 22.8491 36.603 22.7615L63.8694 22.0221C67.5142 21.9236 70.51 24.6264 70.5046 28.0467L70.4662 47.0266C70.4607 50.4469 67.4512 53.136 63.8064 53.0183L36.5427 52.142V52.1447Z" fill="#0078B8"/>
<path d="M35.7295 23.8021C33.4292 24.243 31.7916 26.3653 31.5999 27.9563C31.3891 29.687 31.9888 32.1022 33.881 30.6837C35.0695 29.7938 35.609 27.1649 39.3223 25.6341C42.2086 24.4456 39.5304 23.0737 35.7295 23.8021Z" fill="white"/>
<path d="M88.077 36.4234C88.0551 40.3913 85.9821 43.0722 83.6955 43.7623C82.8768 44.1758 82.0278 44.3839 81.2584 44.4086C78.5117 44.4962 76.1704 41.0349 76.0307 36.6753C75.8911 32.313 78.0024 28.7065 80.749 28.6189C81.5103 28.5942 82.3482 28.8407 83.2355 29.1255C86.2697 30.1031 88.1017 32.6553 88.0797 36.4234H88.077Z" fill="#0078B8"/>
<path d="M66.4681 3.46133C66.5365 4.00354 67.7798 10.7017 67.7798 10.7017C67.7798 10.7017 61.5718 15.4474 52.6281 14.6258C45.5712 13.9768 42.0387 11.5232 42.0387 11.5232L43.093 3.66945C43.093 3.66945 46.5461 0.470986 56.273 0.616122C65.9998 0.761258 66.4681 3.46133 66.4681 3.46133Z" fill="#303051"/>
<path d="M72.0106 3.97657L72.1914 2.45675C72.1914 2.45675 56.0457 1.18065 55.7883 1.21351C55.5062 1.24911 36.759 2.81549 36.759 2.81549L36.9233 4.10528L52.1927 6.72047L72.0106 3.97384V3.97657Z" fill="#303051"/>
<path d="M72.1914 2.45925C72.1914 2.45925 55.9909 -0.12308 55.624 -0.0765265C55.257 -0.0299734 36.759 2.81798 36.759 2.81798L52.0284 5.43316L72.1886 2.45925H72.1914Z" fill="#3C3C68"/>
<path fill-rule="evenodd" clip-rule="evenodd" d="M71.5018 3.97268C71.5018 3.9726 71.5018 3.97255 71.7518 3.97594L72.0018 3.97937L72.0017 3.98454L72.0015 4.00072L72.001 4.06501C72.0005 4.12172 72.0001 4.20566 72 4.31412C71.9998 4.53106 72.0011 4.84606 72.0069 5.23747C72.0185 6.0204 72.0482 7.10837 72.1205 8.32823C72.2655 10.775 72.5807 13.7269 73.2549 15.8168L72.779 15.9703C72.084 13.8155 71.7666 10.8087 71.6214 8.35781C71.5485 7.12885 71.5187 6.03327 71.507 5.24487C71.5011 4.85061 71.4998 4.53299 71.5 4.31373C71.5001 4.2041 71.5006 4.11904 71.501 4.06128L71.5016 3.99543L71.5018 3.97849L71.5018 3.97268Z" fill="#3C3C68"/>
<path d="M75.5678 18.9145C75.5678 18.9145 74.6915 13.3199 72.5446 13.4103C70.3977 13.4979 72.1722 19.621 72.1722 19.621L75.5678 18.9145Z" fill="#3C3C68"/>
<path d="M56.2319 57.9284L61.4103 55.7842C61.4103 55.7842 67.9989 56.781 72.0956 59.8316C72.0956 59.8316 79.67 57.0028 86.9076 58.6431C87.0254 59.1196 89.4188 62.4906 89.4188 62.4906L74.8203 70.1581L56.2319 57.9284Z" fill="white"/>
<path d="M56.2319 57.9287C57.0096 58.3121 66.7036 60.8424 71.7943 64.0299C71.7943 64.0299 83.3997 61.3873 90.9933 62.4307L84.1884 81.7666C84.1884 81.7666 77.2547 81.2737 69.5187 83.2508C69.5187 83.2508 60.5613 78.7023 55.6048 78.5736L56.2319 57.9287Z" fill="#FF573F"/>
<path fill-rule="evenodd" clip-rule="evenodd" d="M60.0278 56.422C60.0418 56.3194 60.1363 56.2475 60.2389 56.2615C60.2762 56.2666 60.3473 56.2846 60.4319 56.3075C60.5226 56.332 60.6441 56.3664 60.7922 56.4097C61.0884 56.4964 61.4931 56.6192 61.9742 56.7704C62.9364 57.073 64.2059 57.4899 65.526 57.9599C66.8457 58.4298 68.2184 58.9536 69.386 59.4701C70.4927 59.9596 71.4361 60.4513 71.9699 60.8928L72.0051 60.8846C72.0888 60.8651 72.212 60.8367 72.3702 60.8011C72.6866 60.7298 73.143 60.6295 73.7035 60.5133C74.8244 60.2809 76.3627 59.9846 78.0315 59.7291C79.6997 59.4737 81.5014 59.2587 83.1486 59.1896C84.7906 59.1207 86.2988 59.1958 87.3692 59.5326C87.468 59.5637 87.5229 59.669 87.4918 59.7678C87.4607 59.8665 87.3554 59.9214 87.2567 59.8903C86.2513 59.574 84.7976 59.4958 83.1643 59.5643C81.5361 59.6325 79.7492 59.8455 78.0882 60.0998C76.4278 60.354 74.8962 60.649 73.7797 60.8805C73.2215 60.9963 72.7672 61.0961 72.4526 61.1669C72.2954 61.2023 72.173 61.2305 72.0901 61.2498L71.9958 61.2719L71.9719 61.2776L71.9644 61.2794C71.905 61.2936 71.8419 61.2781 71.7961 61.2375C71.3276 60.8231 70.3974 60.3275 69.2343 59.8131C68.0786 59.3019 66.7156 58.7815 65.4002 58.3132C64.0853 57.845 62.8204 57.4296 61.8618 57.1282C61.3825 56.9775 60.9802 56.8554 60.6869 56.7696C60.5402 56.7267 60.4213 56.6931 60.334 56.6695C60.2903 56.6577 60.2553 56.6486 60.2291 56.6422C60.216 56.639 60.2057 56.6367 60.198 56.635C60.1909 56.6335 60.188 56.633 60.188 56.633C60.1878 56.633 60.188 56.633 60.188 56.633C60.0854 56.619 60.0138 56.5246 60.0278 56.422Z" fill="#417794"/>
<path fill-rule="evenodd" clip-rule="evenodd" d="M57.366 57.699C57.3882 57.5979 57.4883 57.5339 57.5894 57.5562L57.5491 57.7393L57.5088 57.9224C57.4077 57.9002 57.3437 57.8001 57.366 57.699ZM71.9035 62.7263C71.0925 62.0448 69.8175 61.3914 68.3717 60.7938C66.8759 60.1757 65.1789 59.61 63.583 59.1309C61.9867 58.6516 60.4887 58.258 59.3899 57.9843C58.8404 57.8474 58.3906 57.7405 58.078 57.6677C57.9218 57.6313 57.7998 57.6035 57.7168 57.5847L57.6221 57.5634L57.5978 57.558L57.5894 57.5562C57.5893 57.5562 57.5894 57.5562 57.5491 57.7393L57.5088 57.9224L57.5167 57.9242L57.5405 57.9294L57.6341 57.9505C57.7163 57.9691 57.8376 57.9967 57.993 58.0329C58.304 58.1053 58.7519 58.2118 59.2992 58.3482C60.3941 58.6209 61.8861 59.0129 63.4752 59.49C65.0648 59.9673 66.7487 60.5289 68.2284 61.1404C69.713 61.7539 70.9738 62.4106 71.7312 63.0725C71.7774 63.1129 71.8404 63.1281 71.8999 63.1133L71.9075 63.1114L71.9309 63.1056L72.0232 63.0832C72.1045 63.0635 72.2245 63.0348 72.3793 62.9986C72.6889 62.9261 73.1375 62.8237 73.6928 62.7039C74.8034 62.4643 76.3401 62.1554 78.0444 61.8783C81.4625 61.3225 85.5221 60.9002 88.1791 61.4013C88.2809 61.4205 88.3789 61.3536 88.3981 61.2518C88.4173 61.1501 88.3504 61.052 88.2486 61.0328C85.5192 60.518 81.3991 60.9529 77.9842 61.5082C76.272 61.7866 74.7288 62.0968 73.6137 62.3373C73.0561 62.4576 72.6054 62.5605 72.2939 62.6334C72.1381 62.6699 72.0172 62.6988 71.9351 62.7187L71.9035 62.7263Z" fill="#417794"/>
<path d="M19.7645 73.2304C19.57 73.7425 21.4075 76.1523 27.2486 76.5165C33.0896 76.8807 34.0042 72.135 34.0042 72.135C34.0042 72.135 21.2241 69.3966 19.7645 73.2304Z" fill="#0078B8"/>
<path d="M35.2256 58.999H12.1928C11.8117 58.999 11.5027 59.308 11.5027 59.6891V65.0646C11.5027 65.4457 11.8117 65.7547 12.1928 65.7547H35.2256C35.6067 65.7547 35.9157 65.4457 35.9157 65.0646V59.6891C35.9157 59.308 35.6067 58.999 35.2256 58.999Z" fill="#FF573F"/>
<path d="M34.8805 52.2021H11.8477C11.4666 52.2021 11.1577 52.5111 11.1577 52.8922V58.2677C11.1577 58.6489 11.4666 58.9578 11.8477 58.9578H34.8805C35.2617 58.9578 35.5706 58.6489 35.5706 58.2677V52.8922C35.5706 52.5111 35.2617 52.2021 34.8805 52.2021Z" fill="#FFC121"/>
<path d="M35.5707 53.0479H12.1161V58.1139H35.5707V53.0479Z" fill="white"/>
<path d="M32.75 65.7354H9.71724C9.33612 65.7354 9.02716 66.0443 9.02716 66.4254V71.8009C9.02716 72.1821 9.33612 72.491 9.71724 72.491H32.75C33.1312 72.491 33.4401 72.1821 33.4401 71.8009V66.4254C33.4401 66.0443 33.1312 65.7354 32.75 65.7354Z" fill="#00A750"/>
<path d="M35.1106 65.7354H12.0778C11.6967 65.7354 11.3878 66.0443 11.3878 66.4254V71.8009C11.3878 72.1821 11.6967 72.491 12.0778 72.491H35.1106C35.4918 72.491 35.8007 72.1821 35.8007 71.8009V66.4254C35.8007 66.0443 35.4918 65.7354 35.1106 65.7354Z" fill="#00A750"/>
<path d="M39.3715 58.999H16.3387C15.9576 58.999 15.6486 59.308 15.6486 59.6891V65.0646C15.6486 65.4457 15.9576 65.7547 16.3387 65.7547H39.3715C39.7526 65.7547 40.0616 65.4457 40.0616 65.0646V59.6891C40.0616 59.308 39.7526 58.999 39.3715 58.999Z" fill="#FF573F"/>
<path d="M40.0616 59.8428H16.6071V64.9088H40.0616V59.8428Z" fill="white"/>
<path d="M32.4817 66.5791H9.02716V71.6452H32.4817V66.5791Z" fill="white"/>
<path fill-rule="evenodd" clip-rule="evenodd" d="M13.139 54.4287C13.139 54.3252 13.2229 54.2412 13.3265 54.2412H35.4364C35.54 54.2412 35.6239 54.3252 35.6239 54.4287C35.6239 54.5323 35.54 54.6162 35.4364 54.6162H13.3265C13.2229 54.6162 13.139 54.5323 13.139 54.4287Z" fill="#417794"/>
<path fill-rule="evenodd" clip-rule="evenodd" d="M13.139 55.8115C13.139 55.708 13.2229 55.624 13.3265 55.624H35.4364C35.54 55.624 35.6239 55.708 35.6239 55.8115C35.6239 55.9151 35.54 55.999 35.4364 55.999H13.3265C13.2229 55.999 13.139 55.9151 13.139 55.8115Z" fill="#417794"/>
<path fill-rule="evenodd" clip-rule="evenodd" d="M13.139 57.1943C13.139 57.0908 13.2229 57.0068 13.3265 57.0068H35.4364C35.54 57.0068 35.6239 57.0908 35.6239 57.1943C35.6239 57.2979 35.54 57.3818 35.4364 57.3818H13.3265C13.2229 57.3818 13.139 57.2979 13.139 57.1943Z" fill="#417794"/>
<path fill-rule="evenodd" clip-rule="evenodd" d="M17.745 61.0527C17.745 60.9492 17.8289 60.8652 17.9325 60.8652H40.0425C40.146 60.8652 40.23 60.9492 40.23 61.0527C40.23 61.1563 40.146 61.2402 40.0425 61.2402H17.9325C17.8289 61.2402 17.745 61.1563 17.745 61.0527Z" fill="#417794"/>
<path fill-rule="evenodd" clip-rule="evenodd" d="M17.745 62.4326C17.745 62.3291 17.8289 62.2451 17.9325 62.2451H40.0425C40.146 62.2451 40.23 62.3291 40.23 62.4326C40.23 62.5362 40.146 62.6201 40.0425 62.6201H17.9325C17.8289 62.6201 17.745 62.5362 17.745 62.4326Z" fill="#417794"/>
<path fill-rule="evenodd" clip-rule="evenodd" d="M17.745 63.8154C17.745 63.7119 17.8289 63.6279 17.9325 63.6279H40.0425C40.146 63.6279 40.23 63.7119 40.23 63.8154C40.23 63.919 40.146 64.0029 40.0425 64.0029H17.9325C17.8289 64.0029 17.745 63.919 17.745 63.8154Z" fill="#417794"/>
<path fill-rule="evenodd" clip-rule="evenodd" d="M8.87799 67.5596C8.87799 67.456 8.96194 67.3721 9.06549 67.3721H31.1754C31.279 67.3721 31.3629 67.456 31.3629 67.5596C31.3629 67.6631 31.279 67.7471 31.1754 67.7471H9.06549C8.96194 67.7471 8.87799 67.6631 8.87799 67.5596Z" fill="#417794"/>
<path fill-rule="evenodd" clip-rule="evenodd" d="M8.87799 68.9395C8.87799 68.8359 8.96194 68.752 9.06549 68.752H31.1754C31.279 68.752 31.3629 68.8359 31.3629 68.9395C31.3629 69.043 31.279 69.127 31.1754 69.127H9.06549C8.96194 69.127 8.87799 69.043 8.87799 68.9395Z" fill="#417794"/>
<path fill-rule="evenodd" clip-rule="evenodd" d="M8.87799 70.3223C8.87799 70.2187 8.96194 70.1348 9.06549 70.1348H31.1754C31.279 70.1348 31.3629 70.2187 31.3629 70.3223C31.3629 70.4258 31.279 70.5098 31.1754 70.5098H9.06549C8.96194 70.5098 8.87799 70.4258 8.87799 70.3223Z" fill="#417794"/>
<path d="M75.713 84.2392C75.713 84.2392 78.2077 81.928 76.1484 78.2612C75.3734 76.8838 73.4182 77.7163 73.3251 78.3762C73.3251 78.3762 71.2357 76.0678 69.8638 78.2585C69.8638 78.2585 68.5548 77.0755 67.4211 78.483C67.4211 78.483 66.6845 77.1741 65.8712 79.0608C64.3596 82.5688 66.7913 85.0607 69.3708 84.9676C71.9504 84.8745 73.5606 86.3204 75.7103 84.2392H75.713Z" fill="#0078B8"/>
<path fill-rule="evenodd" clip-rule="evenodd" d="M73.2664 78.198C73.3647 78.1655 73.4708 78.2189 73.5032 78.3173L73.5038 78.3192L73.5054 78.3239L73.511 78.3414C73.5158 78.3566 73.5228 78.3789 73.5315 78.4076C73.5489 78.465 73.5733 78.5481 73.6017 78.6524C73.6585 78.8609 73.7313 79.1547 73.7959 79.4965C73.9243 80.1759 74.0236 81.0626 73.8878 81.8501C73.7515 82.6328 73.4518 83.2799 73.1514 83.7493C73.0011 83.984 72.8497 84.1759 72.7164 84.3195C72.5879 84.4579 72.4638 84.5653 72.3664 84.6145C72.274 84.6611 72.1612 84.6241 72.1145 84.5316C72.0678 84.4392 72.1049 84.3264 72.1973 84.2797C72.2327 84.2618 72.3197 84.1956 72.4416 84.0644C72.5586 83.9382 72.6966 83.7642 72.8356 83.5471C73.1136 83.1128 73.3918 82.5123 73.5183 81.7862C73.6427 81.0648 73.553 80.2305 73.4274 79.5661C73.365 79.236 73.2946 78.9521 73.2399 78.7509C73.2125 78.6504 73.1891 78.5707 73.1727 78.5165C73.1644 78.4894 73.1579 78.4686 73.1536 78.4548L73.1486 78.4394L73.1474 78.4357C73.115 78.3374 73.1681 78.2304 73.2664 78.198Z" fill="#0F4F72"/>
<path fill-rule="evenodd" clip-rule="evenodd" d="M69.7536 78.1071C69.8374 78.0462 69.9547 78.0649 70.0155 78.1487L69.8638 78.2588C70.0155 78.1487 70.0156 78.1487 70.0156 78.1488L70.0157 78.149L70.016 78.1494L70.0168 78.1505L70.0191 78.1537L70.0268 78.1648C70.0333 78.1742 70.0422 78.1876 70.0533 78.2049C70.0755 78.2396 70.1064 78.29 70.143 78.3558C70.2161 78.4874 70.3121 78.6808 70.4072 78.9331C70.5975 79.4377 70.784 80.1774 70.7769 81.1273L70.7769 81.1273C70.7726 81.7053 70.5517 82.4566 70.3069 83.0689C70.1834 83.3779 70.0508 83.6589 69.9304 83.8736C69.8704 83.9806 69.8117 84.0744 69.7569 84.1478C69.7083 84.2129 69.6438 84.289 69.5677 84.3274C69.4752 84.3741 69.3625 84.3371 69.3158 84.2446C69.2691 84.1522 69.3062 84.0394 69.3986 83.9927C69.3954 83.9944 69.3954 83.9943 69.3986 83.9912C69.4051 83.985 69.4244 83.9663 69.4563 83.9235C69.4979 83.8678 69.5478 83.7892 69.6034 83.6902C69.7141 83.4928 69.8399 83.227 69.9587 82.9297C70.1986 82.3297 70.3981 81.631 70.402 81.1245C70.4086 80.226 70.2323 79.5321 70.0563 79.0653C69.9683 78.8318 69.8803 78.655 69.8152 78.5379C69.7826 78.4794 69.7559 78.4357 69.7377 78.4074C69.7286 78.3933 69.7217 78.383 69.7173 78.3765L69.7126 78.3698L69.712 78.3689C69.712 78.3689 69.712 78.3689 69.7119 78.3688L69.7119 78.3687L69.7118 78.3686C69.7118 78.3686 69.7118 78.3686 69.7118 78.3686M69.7118 78.3686L69.7119 78.3688L69.7118 78.3686ZM69.7536 78.1071C69.6699 78.1679 69.6512 78.285 69.7119 78.3688L69.7536 78.1071Z" fill="#0F4F72"/>
<path fill-rule="evenodd" clip-rule="evenodd" d="M67.2794 78.3606C67.3472 78.2824 67.4656 78.2739 67.5439 78.3417C67.9638 78.7054 68.1458 79.2478 68.1986 79.8223C68.2515 80.3984 68.1773 81.0328 68.0588 81.6158C67.94 82.2006 67.7746 82.7432 67.6394 83.1389C67.5717 83.337 67.5113 83.4989 67.4678 83.6116C67.446 83.668 67.4284 83.712 67.4162 83.7422L67.402 83.7768L67.3982 83.786L67.3972 83.7884C67.3971 83.7885 67.3967 83.7894 67.224 83.7165L67.3972 83.7884C67.3569 83.8838 67.2465 83.9295 67.1511 83.8892C67.0557 83.849 67.011 83.739 67.0512 83.6436C67.0512 83.6436 67.0512 83.6436 67.0512 83.6436L67.0522 83.6413L67.0555 83.6334L67.0686 83.6013C67.0801 83.5729 67.097 83.5307 67.118 83.4764C67.16 83.3677 67.2187 83.2105 67.2845 83.0177C67.4165 82.6315 67.5767 82.1052 67.6913 81.5412C67.8063 80.9754 67.8734 80.3813 67.8252 79.8566C67.7768 79.3302 67.6151 78.8995 67.2984 78.6251C67.2201 78.5573 67.2116 78.4389 67.2794 78.3606Z" fill="#0F4F72"/>
<path d="M45.6351 45.7098C45.6351 45.7098 48.6792 44.3302 51.7943 45.7098" stroke="#66F3FF" stroke-width="2" stroke-linecap="round" stroke-linejoin="round"/>
<path d="M53.5318 34.8223C53.1636 35.8529 52.9508 37.0526 52.9508 38.334C52.9508 42.1512 54.8247 45.2458 57.1351 45.2458C59.4455 45.2458 61.1748 42.383 61.3112 38.7703C59.2736 36.6954 55.523 35.1276 53.5318 34.8223Z" fill="url(#paint5_linear_2088_15383)"/>
<path d="M43.0901 34.8223C43.4584 35.8529 43.6711 37.0526 43.6711 38.334C43.6711 42.1512 41.7972 45.2458 39.4868 45.2458C37.1765 45.2458 35.4471 42.383 35.3107 38.7703C37.7929 36.4228 41.5435 35.0595 43.0901 34.8223Z" fill="url(#paint6_linear_2088_15383)"/>
<path d="M40.3048 88.571L33.0787 91.074L29.7414 92.2335L28.9353 92.5164L23.0526 94.5527C22.2183 94.8496 21.285 94.6375 20.6345 94.0295L19.885 93.3083C19.4608 92.8982 19.4891 92.2335 19.8709 91.8517C19.9699 91.7527 20.0972 91.6679 20.2386 91.6255L37.4624 85.6297C37.9715 85.46 38.523 85.559 38.9189 85.9125L40.5169 87.2983C40.5734 87.3407 40.6159 87.3973 40.6583 87.4539C40.9411 87.8498 40.7856 88.4013 40.3048 88.571Z" fill="#3C3C68"/>
<path d="M36.0625 96.6314L27.9738 99.2192C27.2243 99.4596 26.4041 99.2899 25.8102 98.7667L25.0607 98.102C24.6506 97.7485 24.6223 97.1687 24.891 96.7728C25.0183 96.5889 25.2021 96.4475 25.4284 96.3768L30.7879 94.7647C30.8303 94.7506 30.8586 94.7365 30.8868 94.7082C31.0565 94.5809 31.0707 94.3405 30.901 94.185L28.9354 92.5022L28.299 91.9648L28.1859 91.8658C27.5637 91.3426 27.7899 90.3244 28.5818 90.1265L31.3394 89.4053L33.0787 91.0739L36.5716 94.4112C36.6847 94.5102 36.7695 94.6375 36.8261 94.7647C37.1938 95.4577 36.8685 96.3768 36.0625 96.6314Z" fill="#3C3C68"/>
<path d="M30.9009 94.7086C31.0706 94.5814 31.0847 94.341 30.915 94.1854L28.9494 92.5026L23.0667 94.539C22.2324 94.8359 21.2991 94.6238 20.6486 94.0157L19.8991 93.2945C19.4749 92.8845 19.5032 92.2198 19.885 91.838C20.2527 92.3754 21.5254 93.6198 22.3597 93.6481C23.1657 93.6764 29.0908 91.5693 29.0908 91.5693C29.0908 91.5693 31.6787 93.7753 31.7776 93.8885C32.0463 94.1713 31.3534 94.5955 30.9009 94.7086Z" fill="#303051"/>
<path d="M40.3047 88.5712L33.0786 91.0742L32.315 90.3672C32.315 90.3672 39.4138 87.7935 40.333 87.5389C40.4603 87.5107 40.5734 87.4824 40.6865 87.4541C40.9411 87.8501 40.7855 88.4016 40.3047 88.5712Z" fill="#303051"/>
<path d="M36.0625 96.6318L27.9738 99.2196C27.2243 99.46 26.4041 99.2903 25.8102 98.7671L25.0607 98.1024C24.6506 97.7489 24.6223 97.1691 24.891 96.7732C25.5274 97.2116 26.8283 98.1166 27.1536 98.2014C27.5778 98.3004 29.3172 97.7348 31.2121 97.056C33.107 96.3772 36.218 95.1187 36.8402 94.7793C37.1938 95.4581 36.8685 96.3772 36.0625 96.6318Z" fill="#303051"/>
<path d="M37.1796 76.5656C36.9109 75.7313 36.2039 74.9818 34.8605 74.3313C30.6747 72.295 26.1354 76.4525 23.4345 79.3656C22.0769 80.8362 21.2143 82.1655 21.0164 83.3251C20.8184 84.4705 21.2709 85.4321 22.5577 86.1392C27.5071 88.8825 31.8201 85.2907 34.4928 82.3776C36.2746 80.3837 37.7453 78.3191 37.1796 76.5656ZM31.2969 80.313C28.8222 82.5332 26.6445 84.4564 24.9052 83.4523C24.7637 83.3675 24.6648 83.2685 24.6082 83.1412C24.3254 82.4907 25.2728 81.2746 27.493 79.4221C30.1374 77.202 31.6787 76.0141 33.0363 76.5232C33.3757 76.6505 33.5878 76.806 33.6726 77.004C33.9696 77.6121 33.1636 78.6302 31.2969 80.313Z" fill="#3C3C68"/>
<path d="M34.4644 82.3633C31.7918 85.2905 27.4787 88.8823 22.5294 86.1248C21.2425 85.4178 20.79 84.4562 20.988 83.3107C21.3839 84.0885 22.2041 85.1067 23.901 85.5733C26.8282 86.3793 29.8262 85.6157 32.923 82.6178C35.6381 79.9734 36.5573 77.9795 37.1654 76.5654C37.7452 78.3189 36.2745 80.3835 34.4644 82.3633Z" fill="#303051"/>
<path d="M33.6726 76.9897C33.5736 76.7918 33.3615 76.6362 33.0362 76.509C31.6787 75.9999 30.1373 77.1877 27.4929 79.4079C25.2728 81.2745 24.3253 82.4765 24.6081 83.127C24.4667 83.0138 24.3112 82.8017 24.2546 82.3492C24.1556 81.5008 24.6788 80.6806 26.2061 79.2665C27.7333 77.8524 29.9252 76.0564 31.2686 75.7736C32.5978 75.5049 33.5312 76.1978 33.6584 76.7493C33.6726 76.8342 33.6726 76.9049 33.6726 76.9897Z" fill="#303051"/>
<path d="M25.4142 72.21L24.1415 72.804C23.4062 73.1434 22.5153 72.8181 22.19 72.0686L15.4589 56.7114C15.2609 56.2448 15.3599 55.7216 15.6852 55.368C15.7983 55.2408 15.9397 55.1418 16.0952 55.0711L17.7073 54.3499C18.3437 54.067 19.079 54.3499 19.3618 54.9862L26.1354 70.301C26.2061 70.4424 26.2344 70.598 26.2485 70.7535C26.3051 71.3474 25.994 71.9414 25.4142 72.21Z" fill="#3C3C68"/>
<path d="M29.501 60.6005L23.1233 63.4711L21.7658 64.0792L19.5315 60.9399L24.6789 58.6066C24.7496 58.5783 24.8061 58.5359 24.8627 58.4793C25.0889 58.2672 25.1314 57.8996 24.9192 57.6309L22.3314 54.3643C21.9213 53.8411 21.9779 53.134 22.3739 52.6674C22.5011 52.5118 22.6708 52.3987 22.8688 52.3138L23.9152 51.9037C24.4526 51.6916 25.0748 51.8472 25.4425 52.3138L30.0949 58.1824C30.1514 58.2531 30.1939 58.3238 30.2363 58.4086C30.6605 59.2005 30.3494 60.2045 29.501 60.6005Z" fill="#3C3C68"/>
<path d="M29.5009 60.6001L23.1233 63.4707L22.5859 62.3394C22.5859 62.3394 27.9171 60.1758 29.2888 59.3839C29.7979 59.087 30.0807 58.7334 30.2363 58.4082C30.6605 59.2001 30.3494 60.2041 29.5009 60.6001Z" fill="#303051"/>
<path d="M25.4142 72.2102L24.1415 72.8041C23.4062 73.1435 22.5153 72.8183 22.19 72.0688L15.4589 56.7116C15.2609 56.2449 15.3599 55.7217 15.6852 55.3682C17.0427 58.3661 23.0385 71.6021 23.1092 71.786C23.1941 71.9981 23.2223 72.1395 23.8304 71.8708C24.3961 71.6163 25.7677 71.1072 26.2627 70.7537C26.3051 71.3476 25.994 71.9415 25.4142 72.2102Z" fill="#303051"/>
<path d="M24.8485 58.4936C25.0748 58.2815 25.1172 57.9138 24.9051 57.6452L22.3173 54.3786C21.9072 53.8554 21.9638 53.1483 22.3597 52.6816C22.9112 53.4028 25.6829 56.9947 25.9374 57.4613C26.1354 57.8007 25.3859 58.2391 24.8485 58.4936Z" fill="#303051"/>
</g>
<defs>
<radialGradient id="paint0_radial_2088_15383" cx="0" cy="0" r="1" gradientUnits="userSpaceOnUse" gradientTransform="translate(48.3617 88.3743) rotate(77.7352) scale(6.44546 4.62664)">
<stop offset="0.582148" stop-color="white"/>
<stop offset="1" stop-color="#ECF3F8"/>
</radialGradient>
<radialGradient id="paint1_radial_2088_15383" cx="0" cy="0" r="1" gradientUnits="userSpaceOnUse" gradientTransform="translate(59.4523 90.2907) rotate(83.991) scale(7.8476 5.63311)">
<stop offset="0.600142" stop-color="white"/>
<stop offset="1" stop-color="#ECF3F8"/>
</radialGradient>
<radialGradient id="paint2_radial_2088_15383" cx="0" cy="0" r="1" gradientUnits="userSpaceOnUse" gradientTransform="translate(31.1097 69.4789) rotate(122.645) scale(10.4069 9.4383)">
<stop offset="0.631916" stop-color="white"/>
<stop offset="1" stop-color="#ECF3F8"/>
</radialGradient>
<radialGradient id="paint3_radial_2088_15383" cx="0" cy="0" r="1" gradientUnits="userSpaceOnUse" gradientTransform="translate(52.3324 70.5747) rotate(102.74) scale(16.1433 16.4631)">
<stop offset="0.704351" stop-color="white"/>
<stop offset="1" stop-color="#ECF3F8"/>
</radialGradient>
<radialGradient id="paint4_radial_2088_15383" cx="0" cy="0" r="1" gradientUnits="userSpaceOnUse" gradientTransform="translate(51.511 36.892) rotate(90.868) scale(27.1134 34.6762)">
<stop offset="0.807065" stop-color="white"/>
<stop offset="1" stop-color="#ECF3F8"/>
</radialGradient>
<linearGradient id="paint5_linear_2088_15383" x1="57.1296" y1="44.9159" x2="57.1296" y2="35.0131" gradientUnits="userSpaceOnUse">
<stop stop-color="white"/>
<stop offset="1" stop-color="#66FFFF"/>
</linearGradient>
<linearGradient id="paint6_linear_2088_15383" x1="39.4923" y1="44.9159" x2="39.4923" y2="35.0131" gradientUnits="userSpaceOnUse">
<stop stop-color="white"/>
<stop offset="1" stop-color="#66FFFF"/>
</linearGradient>
<clipPath id="clip0_2088_15383">
<rect width="100" height="100" fill="white"/>
</clipPath>
</defs>
</svg>
