<svg width="80" height="80" viewBox="0 0 80 80" fill="none" xmlns="http://www.w3.org/2000/svg">
<path d="M53.3038 51.7453C53.3038 51.7453 60.5888 60.7174 60.3354 62.5503C60.3354 62.5503 61.0914 64.3705 58.0633 66.1379C55.0353 67.9053 49.7014 62.9008 47.4336 56.2176C47.6089 48.3161 53.3038 51.7453 53.3038 51.7453Z" fill="url(#paint0_radial_4366_45193)"/>
<path d="M28.8708 59.4079C27.5489 59.4945 26.2503 59.4227 25.0235 59.2158C19.7044 58.3331 15.6269 55.0475 16.007 52.2243C16.4779 48.7507 20.4202 48.3284 20.4202 48.3284C20.7665 48.1257 21.4507 48.1954 22.308 48.4298C25.3423 49.2638 30.5558 52.1652 30.7459 52.2686C30.748 52.2707 30.7522 52.2707 30.7522 52.2707C30.7522 52.2707 36.1051 56.2152 28.8729 59.4058L28.8708 59.4079Z" fill="url(#paint1_radial_4366_45193)"/>
<path d="M57.5207 66.372C54.4357 67.3243 49.5748 62.5184 47.4358 56.2153C47.6089 48.3158 53.306 51.745 53.306 51.745C53.306 51.745 60.5931 60.7151 60.3376 62.5521C60.175 62.6366 60.042 64.9657 59.3388 64.0598C59.1931 60.7953 55.4451 54.3528 54.0155 54.7393C51.9124 55.3073 52.4466 60.2041 53.1709 61.6399C54.9172 65.1093 56.5874 65.5844 56.5874 65.5844C56.5874 65.5844 57.468 66.0764 57.525 66.372H57.5207Z" fill="#C1E2F3" fill-opacity="0.16"/>
<path d="M28.8707 59.4079C27.5488 59.4945 26.2502 59.4227 25.0234 59.2158C28.3555 59.032 28.7841 53.6855 27.4623 52.9274C24.7784 51.3902 23.2961 49.6671 22.3079 48.4276C21.6343 47.583 21.1887 46.9622 20.7495 46.7764C23.5938 47.4584 30.5283 52.1208 30.7437 52.2665C30.7458 52.2686 30.75 52.2686 30.75 52.2686C30.75 52.2686 36.1029 56.2131 28.8707 59.4037V59.4079Z" fill="#C1E2F3" fill-opacity="0.16"/>
<path d="M29.9729 65.0332C29.9729 65.0332 26.1045 75.1667 28.4399 78.0638C29.8589 79.8228 32.055 80.8279 34.4558 78.1779C36.0733 76.3957 36.3035 74.6684 37.9125 70.6099C40.0473 65.2275 29.9708 65.0353 29.9708 65.0353L29.9729 65.0332Z" fill="url(#paint2_radial_4366_45193)"/>
<path d="M49.8094 66.3571C49.8094 66.3571 49.6679 77.2023 46.4287 79.033C44.4607 80.1458 42.0514 80.2683 40.795 76.9193C39.9504 74.6662 40.3727 72.9749 40.3727 68.6102C40.3727 62.8202 49.8094 66.3571 49.8094 66.3571Z" fill="url(#paint3_radial_4366_45193)"/>
<path d="M37.9148 70.6078C36.6119 73.8934 36.2107 75.6503 35.2478 77.1474C35.6068 72.1556 31.0099 68.3653 29.3396 66.8576C29.6986 65.749 29.9731 65.0332 29.9731 65.0332C29.9731 65.0332 40.0496 65.2232 37.9148 70.6078Z" fill="#C1E2F3" fill-opacity="0.16"/>
<path d="M49.8094 66.3572C49.8094 66.3572 49.7735 69.2606 49.2857 72.3182C48.3777 68.1795 43.4999 70.0989 41.969 70.8654C40.7633 71.4693 40.7781 75.0126 40.8816 77.1453C40.8499 77.0714 40.8224 76.9996 40.795 76.9236C39.9504 74.6705 40.3727 72.9791 40.3727 68.6145C40.3727 62.8224 49.8094 66.3614 49.8094 66.3614V66.3572Z" fill="#C1E2F3" fill-opacity="0.16"/>
<path d="M27.8 73.4165C27.5762 75.3381 27.6649 77.0991 28.442 78.062C29.861 79.821 32.057 80.8261 34.4579 78.176C34.9837 77.5975 35.3617 77.021 35.689 76.3727C31.7994 77.4032 29.0015 74.8397 27.8 73.4186V73.4165Z" fill="#0078B8"/>
<path d="M48.7386 74.9536C48.2381 76.8224 47.5054 78.4272 46.4285 79.0353C44.4605 80.1481 42.0512 80.2706 40.7948 76.9216C40.5203 76.1889 40.3809 75.5153 40.3154 74.791C43.5525 77.1834 47.0958 75.832 48.7365 74.9536H48.7386Z" fill="#0078B8"/>
<path d="M29.4324 51.4284C29.4324 51.4284 26.2566 60.2485 30.2771 66.3594C32.6251 69.928 40.0432 69.7401 40.0432 69.7401C40.0432 69.7401 47.4612 69.928 49.8093 66.3594C53.8297 60.2485 50.6539 51.4284 50.6539 51.4284C50.6539 51.4284 39.4794 46.0755 29.4324 51.4284Z" fill="url(#paint4_radial_4366_45193)"/>
<path d="M49.8092 66.3575C51.8765 59.1739 47.3218 54.3848 39.152 54.3848C30.9823 54.3848 29.8568 55.1597 28.3977 56.1585C28.7187 53.4155 29.4345 51.4264 29.4345 51.4264C39.4836 46.0735 50.656 51.4264 50.656 51.4264C50.656 51.4264 53.8297 60.2465 49.8114 66.3575H49.8092Z" fill="#C1E2F3" fill-opacity="0.16"/>
<path d="M17.39 31.7672C17.39 35.131 15.6712 37.8592 13.5511 37.8592C11.4311 37.8592 9.71436 35.131 9.71436 31.7672C9.71436 28.4035 11.4332 25.6753 13.5532 25.6753C15.6733 25.6753 17.3921 28.4035 17.3921 31.7672H17.39Z" fill="#0078B8"/>
<path d="M62.8145 31.7672C62.8145 35.131 64.5333 37.8592 66.6533 37.8592C68.7734 37.8592 70.4922 35.131 70.4922 31.7672C70.4922 28.4035 68.7734 25.6753 66.6533 25.6753C64.5333 25.6753 62.8145 28.4035 62.8145 31.7672Z" fill="#0078B8"/>
<path d="M40.1023 53.5337C53.2723 53.5337 62.1811 48.1808 65.0676 43.3918C67.9542 38.6027 69.9982 24.3769 62.1811 16.9124C54.3639 9.44793 42.7523 10.0096 40.1023 10.0096C37.4522 10.0096 25.8427 9.44793 18.0235 16.9124C10.2085 24.3769 12.2504 38.6027 15.1369 43.3918C18.0235 48.1808 26.9323 53.5337 40.1023 53.5337Z" fill="url(#paint5_radial_4366_45193)"/>
<path d="M29.4682 18.8086H50.4553C53.5657 18.8086 56.089 21.3341 56.089 24.4423V39.0904C56.089 42.2008 53.5636 44.7242 50.4553 44.7242H29.4682C26.3578 44.7242 23.8345 42.1987 23.8345 39.0904V24.4423C23.8345 21.3319 26.3599 18.8086 29.4682 18.8086Z" fill="#004367"/>
<path d="M50.4554 19.6533H29.4683C26.8233 19.6533 24.6792 21.7975 24.6792 24.4424V39.0905C24.6792 41.7355 26.8233 43.8796 29.4683 43.8796H50.4554C53.1003 43.8796 55.2445 41.7355 55.2445 39.0905V24.4424C55.2445 21.7975 53.1003 19.6533 50.4554 19.6533Z" fill="#0078B8"/>
<path d="M36.4408 31.7674C36.4408 34.7237 34.9901 37.1203 33.2016 37.1203C31.4131 37.1203 29.9624 34.7237 29.9624 31.7674C29.9624 28.8112 31.4131 26.4146 33.2016 26.4146C34.9901 26.4146 36.4408 28.8112 36.4408 31.7674Z" fill="url(#paint6_linear_4366_45193)"/>
<path d="M49.9613 31.7674C49.9613 34.7237 48.5106 37.1203 46.7221 37.1203C44.9336 37.1203 43.4829 34.7237 43.4829 31.7674C43.4829 28.8112 44.9336 26.4146 46.7221 26.4146C48.5106 26.4146 49.9613 28.8112 49.9613 31.7674Z" fill="url(#paint7_linear_4366_45193)"/>
<path d="M38.1301 36.4043C38.1301 36.4043 39.7265 37.7198 41.7916 36.4043" stroke="#66F3FF" stroke-width="2" stroke-linecap="round" stroke-linejoin="round"/>
<path d="M28.9635 20.9095C27.1792 21.1903 25.8658 22.7867 25.6758 24.0093C25.4709 25.3375 25.8721 27.2147 27.365 26.1694C28.3047 25.5127 28.784 23.5004 31.6854 22.4129C33.9384 21.5683 31.9092 20.4449 28.9614 20.9095H28.9635Z" fill="white"/>
<path d="M23.8473 50.3009C23.8473 50.3009 21.6871 47.0153 19.1046 47.4376L16.3342 44.8087C16.3342 44.8087 16.803 42.6021 16.9909 42.6021C17.1789 42.6021 18.3994 44.7136 18.5408 44.6672C18.6823 44.6207 20.8404 45.8412 20.8404 45.8412C20.8404 45.8412 22.4367 44.5257 22.6711 45.2774C22.9055 46.0292 23.8452 50.3009 23.8452 50.3009H23.8473Z" fill="#C1E2F3" fill-opacity="0.16"/>
<path d="M19.4234 46.8082C19.4234 46.8082 20.8424 43.1931 22.1515 44.2109C23.4607 45.2287 21.4146 49.0106 20.4095 49.1541C19.4044 49.2977 19.4234 46.8082 19.4234 46.8082Z" fill="#0078B8"/>
<path d="M17.2526 45.9763C17.2273 45.687 16.2623 41.9643 15.0375 42.4795C13.8128 42.9948 15.1896 45.5012 16.2982 47.0363L17.2547 45.9784L17.2526 45.9763Z" fill="#0078B8"/>
<path d="M15.7514 46.6033C15.5994 46.3563 13.0655 43.4613 12.2018 44.4706C11.3382 45.48 13.6947 47.1017 15.3713 47.978L15.7514 46.6033Z" fill="#0078B8"/>
<path d="M14.9046 48.3369C14.7187 48.1131 11.8068 45.6003 11.0931 46.7194C10.3794 47.8407 12.9365 49.1182 14.7208 49.7496L14.9046 48.3348V48.3369Z" fill="#0078B8"/>
<path d="M15.8147 50.6091C15.5804 50.4359 12.1448 48.7065 11.7246 49.9671C11.3044 51.2278 14.0959 51.8443 15.9795 52.0259L15.8147 50.6091Z" fill="#0078B8"/>
<path d="M20.1581 50.4932C19.2523 52.3873 17.2082 53.2974 15.595 52.5245C13.9817 51.7517 13.4074 49.5894 14.3154 47.6953C15.2212 45.8012 17.2652 44.8911 18.8785 45.664C20.4918 46.4368 21.0661 48.5991 20.1581 50.4932Z" fill="#0078B8"/>
<path d="M55.5971 66.3235C55.5971 66.3235 55.8315 65.5105 57.4997 64.2816C58.8384 63.2955 59.9301 62.5205 60.3355 62.5522C60.7283 62.6388 62.1473 63.9649 62.464 65.9709C62.9814 67.9748 60.3165 70.477 58.9419 69.5627C58.5196 69.1404 58.3084 68.7518 58.9419 68.0487C60.2088 67.2737 59.8583 67.2737 59.2227 66.5706C59.0116 66.0765 57.6728 67.1344 57.6031 67.5567C57.5334 67.979 59.153 69.1066 58.2366 69.4571C57.3202 69.8097 55.0312 69.3515 55.595 66.3235H55.5971Z" fill="#0078B8"/>
<path d="M31.0405 5.0332L29.3975 11.13C29.3975 11.13 34.8918 14.1598 40.5154 14.1598C46.139 14.1598 51.6334 11.13 51.6334 11.13L49.9903 5.0332H31.0405Z" fill="#303051"/>
<path d="M40.3863 1.49072L28.1182 3.64421V4.84911L40.3863 7.15595L52.6544 4.84911V3.64421L40.3863 1.49072Z" fill="#303051"/>
<path d="M40.3863 0.285645L28.1182 3.64404L40.3863 5.95088L52.6544 3.64404L40.3863 0.285645Z" fill="#3C3C68"/>
<path fill-rule="evenodd" clip-rule="evenodd" d="M28.1408 4.63037L28.3176 4.72398C28.4943 4.81761 28.4943 4.81765 28.4942 4.81771L28.492 4.82185L28.4856 4.83386L28.4607 4.88044C28.4387 4.92126 28.4062 4.98126 28.3639 5.05836C28.2794 5.21257 28.1558 5.43523 27.9992 5.70971C27.6859 6.25857 27.2402 7.01516 26.7101 7.84625C25.6531 9.50322 24.2488 11.4755 22.8832 12.6796L22.6187 12.3795C23.9389 11.2155 25.3179 9.28492 26.3728 7.63114C26.8986 6.80686 27.3409 6.0561 27.6518 5.51144C27.8072 5.23916 27.9296 5.01852 28.0132 4.86612C28.0549 4.78992 28.0869 4.73079 28.1085 4.6908L28.1328 4.64543L28.1389 4.63401L28.1408 4.63037Z" fill="#3C3C68"/>
<path d="M19.8328 13.6294C19.8328 13.6294 22.661 10.0913 24.269 11.1122C25.877 12.1331 22.1571 15.6426 22.1571 15.6426L19.8328 13.6294Z" fill="#3C3C68"/>
<defs>
<radialGradient id="paint0_radial_4366_45193" cx="0" cy="0" r="1" gradientUnits="userSpaceOnUse" gradientTransform="translate(54 58.6379) rotate(50.3145) scale(8.72482 5.30426)">
<stop offset="0.75451" stop-color="white"/>
<stop offset="1" stop-color="#ECF3F8"/>
</radialGradient>
<radialGradient id="paint1_radial_4366_45193" cx="0" cy="0" r="1" gradientUnits="userSpaceOnUse" gradientTransform="translate(24.3207 53.8264) rotate(172.411) scale(7.91841 7.6817)">
<stop offset="0.727295" stop-color="white"/>
<stop offset="1" stop-color="#ECF3F8"/>
</radialGradient>
<radialGradient id="paint2_radial_4366_45193" cx="0" cy="0" r="1" gradientUnits="userSpaceOnUse" gradientTransform="translate(32.0136 72.0935) rotate(107.27) scale(6.95552 5.01659)">
<stop offset="0.604024" stop-color="white"/>
<stop offset="1" stop-color="#ECF3F8"/>
</radialGradient>
<radialGradient id="paint3_radial_4366_45193" cx="0" cy="0" r="1" gradientUnits="userSpaceOnUse" gradientTransform="translate(44.7011 73.0042) rotate(97.3729) scale(6.46255 4.56728)">
<stop offset="0.691219" stop-color="white"/>
<stop offset="1" stop-color="#ECF3F8"/>
</radialGradient>
<radialGradient id="paint4_radial_4366_45193" cx="0" cy="0" r="1" gradientUnits="userSpaceOnUse" gradientTransform="translate(39.0241 59.6958) rotate(94.6355) scale(10.223 11.6611)">
<stop offset="0.812397" stop-color="white"/>
<stop offset="1" stop-color="#ECF3F8"/>
</radialGradient>
<radialGradient id="paint5_radial_4366_45193" cx="0" cy="0" r="1" gradientUnits="userSpaceOnUse" gradientTransform="translate(40.1026 31.7669) rotate(90.1316) scale(22.789 28.8351)">
<stop offset="0.836294" stop-color="white"/>
<stop offset="1" stop-color="#ECF3F8"/>
</radialGradient>
<linearGradient id="paint6_linear_4366_45193" x1="33.2016" y1="36.7804" x2="33.2016" y2="26.6109" gradientUnits="userSpaceOnUse">
<stop stop-color="white"/>
<stop offset="1" stop-color="#66FFFF"/>
</linearGradient>
<linearGradient id="paint7_linear_4366_45193" x1="46.7221" y1="9.77732" x2="46.7221" y2="27.2022" gradientUnits="userSpaceOnUse">
<stop stop-color="white"/>
<stop offset="1" stop-color="#66FFFF"/>
</linearGradient>
</defs>
</svg>
