<svg width="16" height="16" viewBox="0 0 16 16" fill="none" xmlns="http://www.w3.org/2000/svg">
<g clip-path="url(#clip0_1982_39134)">
<path d="M7.9502 14.85C4.4627 14.85 0.700195 12.6625 0.700195 7.8625C0.700195 3.0625 4.4627 0.875 7.9502 0.875C9.8877 0.875 11.6752 1.5125 13.0002 2.675C14.4377 3.95 15.2002 5.75 15.2002 7.8625C15.2002 9.975 14.4377 11.7625 13.0002 13.0375C11.6752 14.2 9.8752 14.85 7.9502 14.85Z" fill="url(#paint0_radial_1982_39134)"/>
<path d="M13.9365 3.70898C14.6027 4.78398 14.9502 6.06398 14.9502 7.48773C14.9502 9.60023 14.1877 11.3877 12.7502 12.6627C11.4252 13.8252 9.62523 14.4752 7.70023 14.4752C5.44273 14.4752 3.07023 13.5565 1.67773 11.6077C3.02273 13.8152 5.55148 14.8502 7.95023 14.8502C9.87523 14.8502 11.6752 14.2002 13.0002 13.0377C14.4377 11.7627 15.2002 9.97523 15.2002 7.86273C15.2002 6.27023 14.7665 4.85523 13.9365 3.70898Z" fill="#E38A00"/>
<path d="M7.83384 10.0525C6.24384 10.0525 4.76634 9.91871 3.53259 9.69121C3.22634 9.63496 2.95634 9.90371 3.01884 10.2087C3.42884 12.2137 5.40259 13.86 7.83259 13.86C10.4913 13.86 12.2813 12.16 12.6526 10.2012C12.7101 9.89871 12.4401 9.63496 12.1376 9.69121C10.9026 9.91871 9.42384 10.0525 7.83384 10.0525Z" fill="#422B0D"/>
<path d="M11.1975 7.16406C11.16 7.07156 11.1038 6.98906 11.0325 6.91906C10.96 6.84781 10.8725 6.78656 10.7688 6.73406C10.6863 6.69281 10.5938 6.65406 10.4938 6.61906V5.56781C10.5125 5.57406 10.5325 5.57906 10.55 5.58781C10.6138 5.61906 10.6675 5.66406 10.7113 5.72031C10.755 5.77656 10.7888 5.84406 10.8113 5.92156C10.82 5.95281 10.8275 5.98406 10.8325 6.01656C10.8475 6.10781 10.9225 6.17781 11.015 6.17781H11.02C11.14 6.17781 11.2288 6.07156 11.2113 5.95406C11.185 5.77406 11.125 5.62531 11.0325 5.50781C10.905 5.34531 10.725 5.24781 10.4938 5.21531V4.93906C10.4938 4.83906 10.4125 4.75781 10.3125 4.75781C10.2125 4.75781 10.1313 4.83906 10.1313 4.93906V5.22406C10.0388 5.23906 9.95253 5.26281 9.87503 5.29906C9.78253 5.34156 9.70503 5.39781 9.64003 5.46781C9.57628 5.53781 9.52628 5.62031 9.49003 5.71406C9.45503 5.80781 9.43753 5.91281 9.43753 6.03031C9.43753 6.15406 9.45753 6.26281 9.49753 6.35656C9.53753 6.45031 9.59503 6.53406 9.66878 6.60656C9.74253 6.67906 9.83128 6.74156 9.93628 6.79406C9.99628 6.82406 10.0625 6.85281 10.1313 6.87906V7.96281C10.1313 7.96281 10.1313 7.96281 10.13 7.96406C10.0388 7.94781 9.96003 7.91156 9.89128 7.85406C9.83628 7.80781 9.79253 7.74656 9.75753 7.67031C9.74003 7.63156 9.72753 7.58906 9.71878 7.54031C9.70253 7.45031 9.63003 7.38031 9.53753 7.38031H9.51878C9.40503 7.38031 9.31878 7.48281 9.33753 7.59406C9.34878 7.66281 9.36628 7.72531 9.39003 7.78281C9.43628 7.89531 9.49628 7.98781 9.57253 8.06156C9.64878 8.13531 9.73628 8.19156 9.83503 8.23031C9.92878 8.26781 10.0275 8.29031 10.13 8.30281V8.52031C10.13 8.62031 10.2113 8.70156 10.3113 8.70156C10.4113 8.70156 10.4925 8.62031 10.4925 8.52031V8.29656C10.5975 8.28281 10.695 8.25906 10.7825 8.22281C10.8813 8.18156 10.965 8.12656 11.035 8.05781C11.1038 7.98906 11.1575 7.90781 11.1963 7.81156C11.2338 7.71656 11.2538 7.60781 11.2538 7.48781C11.255 7.36531 11.2363 7.25656 11.1975 7.16406ZM9.96003 6.35656C9.91253 6.31281 9.87753 6.26281 9.85503 6.20906C9.83253 6.15531 9.82128 6.09406 9.82128 6.02406C9.82253 5.87531 9.86628 5.75781 9.95253 5.67031C9.99878 5.62281 10.06 5.58906 10.1313 5.56781V6.47156C10.0625 6.43656 10.005 6.39781 9.96003 6.35656ZM10.8288 7.69656C10.8013 7.75656 10.7638 7.80781 10.7138 7.85031C10.6638 7.89281 10.6025 7.92531 10.5313 7.94656C10.52 7.95031 10.5075 7.95156 10.495 7.95406V7.01531C10.5938 7.06156 10.6738 7.11156 10.7313 7.16656C10.825 7.25656 10.8713 7.36406 10.8688 7.49031C10.8688 7.56906 10.855 7.63656 10.8288 7.69656Z" fill="#422B0D"/>
<path fill-rule="evenodd" clip-rule="evenodd" d="M10.1 4.93906C10.1 4.8218 10.1953 4.72656 10.3125 4.72656C10.4298 4.72656 10.525 4.8218 10.525 4.93906V5.18847C10.7504 5.22559 10.929 5.32524 11.0571 5.48852C11.1536 5.61109 11.2153 5.76521 11.2422 5.9495C11.2624 6.08537 11.1596 6.20906 11.02 6.20906H11.015C10.9057 6.20906 10.8189 6.12646 10.8017 6.02163L10.8017 6.02131C10.7969 5.99052 10.7898 5.96061 10.7812 5.93013C10.7597 5.85607 10.7277 5.79227 10.6866 5.7395C10.6456 5.68674 10.5955 5.6449 10.5363 5.61587L10.5361 5.61576C10.5324 5.61395 10.5288 5.61238 10.525 5.61092V6.59698C10.6182 6.63041 10.7048 6.66711 10.7828 6.70611L10.7829 6.70618C10.8891 6.75991 10.9793 6.82295 11.0544 6.89677C11.1286 6.96959 11.1873 7.05559 11.2264 7.15215C11.2671 7.2493 11.2863 7.36232 11.285 7.48797C11.285 7.61137 11.2644 7.72402 11.2254 7.82304L11.2253 7.82323C11.185 7.92326 11.129 8.00809 11.0571 8.07991L11.0569 8.08011C10.9839 8.15184 10.8967 8.20898 10.7946 8.25165C10.7117 8.28598 10.6207 8.30929 10.5238 8.32374V8.52031C10.5238 8.63757 10.4285 8.73281 10.3113 8.73281C10.194 8.73281 10.0988 8.63757 10.0988 8.52031V8.33023C10.0039 8.31692 9.91179 8.29466 9.82353 8.25936C9.72098 8.21911 9.63 8.16062 9.55081 8.08402C9.47096 8.00679 9.40874 7.91048 9.36115 7.79472C9.33641 7.73484 9.31831 7.67003 9.30671 7.59918C9.2848 7.46888 9.38574 7.34906 9.51879 7.34906H9.53754C9.64729 7.34906 9.731 7.43209 9.74954 7.53476C9.75792 7.58146 9.76976 7.62141 9.78598 7.65736C9.81949 7.73035 9.86069 7.7875 9.9114 7.83014C9.96677 7.87644 10.029 7.90805 10.1 7.92575V6.90048C10.0376 6.87604 9.97746 6.84959 9.92231 6.82201C9.81471 6.76821 9.72321 6.70388 9.64688 6.62885C9.57029 6.55355 9.51044 6.46642 9.4688 6.36883C9.42683 6.27046 9.40629 6.1574 9.40629 6.03031C9.40629 5.9097 9.42426 5.80091 9.46076 5.70313L9.46089 5.70279C9.49842 5.60573 9.55038 5.51985 9.61693 5.44677L9.61714 5.44655C9.68497 5.37349 9.76581 5.31487 9.86189 5.27071C9.93512 5.23647 10.0153 5.2132 10.1 5.19773V4.93906ZM10.1205 7.9941C10.0258 7.97658 9.9433 7.93831 9.87124 7.87803C9.81197 7.82819 9.76561 7.76281 9.72914 7.68335L9.72906 7.68317C9.7103 7.64164 9.69714 7.59659 9.68803 7.54584M10.1205 7.9941L10.1625 8.0271V6.85754L10.1424 6.84987C10.0745 6.82393 10.0092 6.79559 9.95026 6.76611C9.84786 6.71491 9.76187 6.65424 9.6907 6.58428C9.61979 6.51457 9.56464 6.43421 9.52628 6.3443C9.48825 6.25516 9.46879 6.15073 9.46879 6.03031C9.46879 5.916 9.4858 5.81484 9.51925 5.72516C9.5542 5.63484 9.60218 5.55582 9.66304 5.48896C9.72516 5.42209 9.79926 5.36827 9.88809 5.32746L9.88828 5.32737C9.96251 5.29265 10.0458 5.26958 10.1363 5.25491L10.1625 5.25065V4.93906C10.1625 4.85632 10.2298 4.78906 10.3125 4.78906C10.3953 4.78906 10.4625 4.85632 10.4625 4.93906V5.24248L10.4894 5.24626C10.7139 5.2778 10.8861 5.37183 11.008 5.5271C11.0965 5.63952 11.1547 5.7829 11.1804 5.95857C11.1951 6.05769 11.1204 6.14656 11.02 6.14656H11.015C10.9394 6.14656 10.8762 6.08925 10.8634 6.01165C10.8581 5.97755 10.8503 5.94506 10.8414 5.91314L10.8413 5.91285C10.8178 5.83197 10.7824 5.76082 10.736 5.70113C10.6895 5.64141 10.6321 5.59328 10.5639 5.55981C10.5486 5.55215 10.5306 5.54659 10.5161 5.54209C10.5115 5.54069 10.5074 5.53939 10.5037 5.53817L10.4625 5.52446V6.64123L10.4835 6.64856C10.5823 6.68317 10.6736 6.7214 10.7547 6.76198C10.856 6.81324 10.9408 6.87269 11.0106 6.94135C11.079 7.00849 11.1328 7.08744 11.1686 7.1758L11.1687 7.17614C11.2055 7.26391 11.2238 7.36828 11.2225 7.48749L11.2225 7.48781C11.2225 7.60431 11.2031 7.70908 11.1673 7.8C11.1301 7.89238 11.0786 7.96999 11.013 8.03562C10.9461 8.10132 10.8658 8.15414 10.7706 8.19394C10.6862 8.22892 10.5914 8.2521 10.4885 8.26558L10.4613 8.26914V8.52031C10.4613 8.60305 10.394 8.67031 10.3113 8.67031C10.2285 8.67031 10.1613 8.60305 10.1613 8.52031V8.27514L10.1338 8.27179C10.0334 8.25954 9.93736 8.23758 9.84664 8.2013L9.84645 8.20122C9.75154 8.16398 9.66755 8.10998 9.59426 8.0391C9.52162 7.96884 9.46385 7.88016 9.41894 7.77093C9.39619 7.71584 9.37928 7.65563 9.36838 7.58902L9.36835 7.58887C9.35282 7.49669 9.42436 7.41156 9.51879 7.41156H9.53754C9.61278 7.41156 9.67406 7.46853 9.68803 7.54584M10.1625 5.52588V6.52254L10.1171 6.49941C10.0464 6.46342 9.98644 6.42315 9.93892 6.3796C9.88828 6.33295 9.85053 6.27923 9.82621 6.22113C9.80184 6.1629 9.79004 6.09743 9.79004 6.02406V6.0238C9.79134 5.86874 9.83718 5.74287 9.93022 5.64844C9.98097 5.59634 10.0472 5.56027 10.1224 5.53787L10.1625 5.52588ZM10.1 5.61162C10.0503 5.63127 10.0081 5.65808 9.97493 5.69211L9.97479 5.69225C9.8954 5.77279 9.85376 5.88185 9.85254 6.0242C9.85255 6.09077 9.86325 6.14776 9.88386 6.197C9.90454 6.24638 9.93684 6.2927 9.98118 6.33355C10.0136 6.36327 10.0533 6.392 10.1 6.41905V5.61162ZM10.4638 6.96617L10.5083 6.98701C10.6087 7.03403 10.692 7.08575 10.7529 7.14398C10.8525 7.23964 10.9026 7.35534 10.9 7.49062C10.9 7.57301 10.8856 7.64475 10.8574 7.70909L10.8572 7.70958C10.828 7.7734 10.7878 7.82844 10.734 7.87412C10.6805 7.91964 10.6154 7.95403 10.5407 7.97638C10.5306 7.97967 10.5181 7.98178 10.5091 7.98331C10.5059 7.98383 10.5032 7.98429 10.5012 7.98471L10.4638 7.99218V6.96617ZM10.5263 7.06539V7.91543C10.5921 7.89527 10.6481 7.86513 10.6935 7.8265C10.7397 7.78724 10.7745 7.73986 10.8003 7.68379C10.8245 7.62826 10.8375 7.56518 10.8375 7.49031V7.48969C10.8399 7.37261 10.7974 7.27338 10.7096 7.18911C10.6641 7.14554 10.6025 7.10443 10.5263 7.06539Z" fill="#422B0D"/>
<path d="M5.56738 10.9719V13.6156C5.56738 14.8044 6.53113 15.7669 7.71863 15.7669H8.12863C9.31738 15.7669 10.2799 14.8031 10.2799 13.6156V10.9531C7.90363 11.4181 6.13363 11.1031 5.56738 10.9719Z" fill="#05E005"/>
<path d="M7.83238 10.6286C7.05863 10.6286 6.29738 10.5973 5.56738 10.5361V10.9723C6.13488 11.1036 7.90363 11.4186 10.2811 10.9536V10.5186C9.49488 10.5898 8.67113 10.6286 7.83238 10.6286Z" fill="#05E005"/>
<path opacity="0.3" d="M7.83238 10.6286C7.05863 10.6286 6.29738 10.5973 5.56738 10.5361V10.9723C6.13488 11.1036 7.90363 11.4186 10.2811 10.9536V10.5186C9.49488 10.5898 8.67113 10.6286 7.83238 10.6286Z" fill="#AB3F2E"/>
<path d="M8.87114 13.5342C8.83364 13.4417 8.77739 13.3592 8.70614 13.2892C8.63364 13.2179 8.54614 13.1567 8.44239 13.1042C8.35989 13.0629 8.26739 13.0242 8.16739 12.9892V11.9379C8.18614 11.9442 8.20614 11.9492 8.22364 11.9579C8.28739 11.9892 8.34114 12.0342 8.38489 12.0904C8.42864 12.1467 8.46239 12.2142 8.48489 12.2917C8.49364 12.3229 8.50114 12.3542 8.50614 12.3867C8.52114 12.4779 8.59614 12.5479 8.68864 12.5479H8.69364C8.81364 12.5479 8.90239 12.4417 8.88489 12.3242C8.85864 12.1454 8.79864 11.9967 8.70614 11.8779C8.57864 11.7154 8.39864 11.6179 8.16739 11.5854V11.3092C8.16739 11.2092 8.08614 11.1279 7.98614 11.1279C7.88614 11.1279 7.80489 11.2092 7.80489 11.3092V11.5942C7.71239 11.6092 7.62614 11.6329 7.54864 11.6692C7.45614 11.7117 7.37864 11.7679 7.31364 11.8379C7.24989 11.9079 7.19989 11.9904 7.16364 12.0842C7.12864 12.1779 7.11114 12.2829 7.11114 12.4004C7.11114 12.5242 7.13114 12.6329 7.17114 12.7267C7.21114 12.8204 7.26864 12.9042 7.34239 12.9767C7.41614 13.0492 7.50489 13.1117 7.60989 13.1642C7.66989 13.1942 7.73614 13.2229 7.80489 13.2492V14.3329C7.80489 14.3329 7.80489 14.3329 7.80364 14.3342C7.71239 14.3179 7.63364 14.2817 7.56489 14.2242C7.50989 14.1779 7.46614 14.1167 7.43114 14.0404C7.41364 14.0017 7.40114 13.9592 7.39239 13.9104C7.37489 13.8204 7.30239 13.7504 7.20989 13.7504H7.19114C7.07739 13.7504 6.99114 13.8529 7.00989 13.9642C7.02114 14.0329 7.03864 14.0954 7.06239 14.1529C7.10864 14.2654 7.16864 14.3579 7.24489 14.4317C7.32114 14.5054 7.40864 14.5617 7.50739 14.6004C7.60114 14.6379 7.69989 14.6604 7.80239 14.6729V14.8904C7.80239 14.9904 7.88364 15.0717 7.98364 15.0717C8.08364 15.0717 8.16489 14.9904 8.16489 14.8904V14.6667C8.26989 14.6529 8.36739 14.6292 8.45489 14.5929C8.55364 14.5517 8.63739 14.4967 8.70739 14.4279C8.77614 14.3592 8.82989 14.2779 8.86864 14.1817C8.90614 14.0867 8.92614 13.9779 8.92614 13.8579C8.92739 13.7354 8.90864 13.6279 8.87114 13.5342ZM7.63239 12.7267C7.58489 12.6829 7.54989 12.6329 7.52739 12.5792C7.50489 12.5254 7.49364 12.4642 7.49364 12.3942C7.49489 12.2454 7.53864 12.1279 7.62489 12.0404C7.67114 11.9929 7.73239 11.9592 7.80364 11.9379V12.8417C7.73489 12.8067 7.67739 12.7679 7.63239 12.7267ZM8.50114 14.0679C8.47364 14.1279 8.43614 14.1792 8.38614 14.2217C8.33614 14.2642 8.27489 14.2967 8.20364 14.3179C8.19239 14.3217 8.17989 14.3229 8.16739 14.3254V13.3867C8.26614 13.4329 8.34614 13.4829 8.40364 13.5379C8.49739 13.6279 8.54364 13.7354 8.54114 13.8617C8.54114 13.9392 8.52739 14.0067 8.50114 14.0679Z" fill="#404040"/>
<path d="M3.7186 4.09828C3.50985 4.27703 3.19985 4.01953 3.39485 3.77453C3.53985 3.59703 3.73485 3.42828 3.94735 3.30078C4.51985 2.93203 5.22485 2.81328 5.8261 2.93203C6.13235 2.99828 6.0386 3.38828 5.7586 3.38953C5.04985 3.37953 4.3111 3.61828 3.7186 4.09828Z" fill="#422B0D"/>
<path d="M12.1898 4.09828C12.3985 4.27703 12.7085 4.01953 12.5135 3.77453C12.3685 3.59703 12.1735 3.42828 11.961 3.30078C11.3885 2.93203 10.6835 2.81328 10.0823 2.93203C9.77602 2.99828 9.86977 3.38828 10.1498 3.38953C10.8585 3.37953 11.5985 3.61828 12.1898 4.09828Z" fill="#422B0D"/>
<path d="M6.3362 7.16406C6.2987 7.07156 6.24245 6.98906 6.1712 6.91906C6.0987 6.84781 6.0112 6.78656 5.90745 6.73406C5.82495 6.69281 5.73245 6.65406 5.63245 6.61906V5.56781C5.6512 5.57406 5.6712 5.57906 5.6887 5.58781C5.75245 5.61906 5.8062 5.66406 5.84995 5.72031C5.8937 5.77656 5.92745 5.84406 5.94995 5.92156C5.9587 5.95281 5.9662 5.98406 5.9712 6.01656C5.9862 6.10781 6.0612 6.17781 6.1537 6.17781H6.1587C6.2787 6.17781 6.36745 6.07156 6.34995 5.95406C6.3237 5.77531 6.2637 5.62656 6.1712 5.50781C6.0437 5.34531 5.8637 5.24781 5.63245 5.21531V4.93906C5.63245 4.83906 5.5512 4.75781 5.4512 4.75781C5.3512 4.75781 5.26995 4.83906 5.26995 4.93906V5.22406C5.17745 5.23906 5.0912 5.26281 5.0137 5.29906C4.9212 5.34156 4.8437 5.39781 4.7787 5.46781C4.71495 5.53781 4.66495 5.62031 4.6287 5.71406C4.5937 5.80781 4.5762 5.91281 4.5762 6.03031C4.5762 6.15406 4.5962 6.26281 4.6362 6.35656C4.6762 6.45031 4.7337 6.53406 4.80745 6.60656C4.8812 6.67906 4.96995 6.74156 5.07495 6.79406C5.13495 6.82406 5.2012 6.85281 5.26995 6.87906V7.96281C5.26995 7.96281 5.26995 7.96281 5.2687 7.96406C5.17745 7.94781 5.0987 7.91156 5.02995 7.85406C4.97495 7.80781 4.9312 7.74656 4.8962 7.67031C4.8787 7.63156 4.8662 7.58906 4.85745 7.54031C4.8412 7.45031 4.7687 7.38031 4.6762 7.38031H4.65745C4.5437 7.38031 4.45745 7.48281 4.4762 7.59406C4.48745 7.66281 4.50495 7.72531 4.5287 7.78281C4.57495 7.89531 4.63495 7.98781 4.7112 8.06156C4.78745 8.13531 4.87495 8.19156 4.9737 8.23031C5.06745 8.26781 5.1662 8.29031 5.2687 8.30281V8.52031C5.2687 8.62031 5.34995 8.70156 5.44995 8.70156C5.54995 8.70156 5.6312 8.62031 5.6312 8.52031V8.29656C5.7362 8.28281 5.8337 8.25906 5.9212 8.22281C6.01995 8.18156 6.1037 8.12656 6.1737 8.05781C6.24245 7.98906 6.2962 7.90781 6.33495 7.81156C6.37245 7.71656 6.39245 7.60781 6.39245 7.48781C6.3937 7.36531 6.37495 7.25656 6.3362 7.16406ZM5.0987 6.35656C5.0512 6.31281 5.0162 6.26281 4.9937 6.20906C4.9712 6.15531 4.95995 6.09406 4.95995 6.02406C4.9612 5.87531 5.00495 5.75781 5.0912 5.67031C5.13745 5.62281 5.1987 5.58906 5.26995 5.56781V6.47156C5.2012 6.43656 5.1437 6.39781 5.0987 6.35656ZM5.96745 7.69656C5.93995 7.75656 5.90245 7.80781 5.85245 7.85031C5.80245 7.89281 5.7412 7.92531 5.66995 7.94656C5.6587 7.95031 5.6462 7.95156 5.6337 7.95406V7.01531C5.73245 7.06156 5.81245 7.11156 5.86995 7.16656C5.9637 7.25656 6.00995 7.36406 6.00745 7.49031C6.00745 7.56906 5.9937 7.63656 5.96745 7.69656Z" fill="#422B0D"/>
</g>
<defs>
<radialGradient id="paint0_radial_1982_39134" cx="0" cy="0" r="1" gradientUnits="userSpaceOnUse" gradientTransform="translate(7.9502 7.8625) scale(7.11996)">
<stop stop-color="#FFDE1E"/>
<stop offset="0.53" stop-color="#FFDD16"/>
<stop offset="0.795" stop-color="#FEC114"/>
<stop offset="0.955" stop-color="#FEA311"/>
<stop offset="1" stop-color="#F49400"/>
</radialGradient>
<clipPath id="clip0_1982_39134">
<rect width="16" height="16" fill="white"/>
</clipPath>
</defs>
</svg>
