<svg width="16" height="16" viewBox="0 0 16 16" fill="none" xmlns="http://www.w3.org/2000/svg">
<path d="M7.9502 14.85C4.4627 14.85 0.700195 12.6625 0.700195 7.8625C0.700195 3.0625 4.4627 0.875 7.9502 0.875C9.8877 0.875 11.6752 1.5125 13.0002 2.675C14.4377 3.95 15.2002 5.75 15.2002 7.8625C15.2002 9.975 14.4377 11.7625 13.0002 13.0375C11.6752 14.2 9.8752 14.85 7.9502 14.85Z" fill="url(#paint0_radial_1982_39120)"/>
<path d="M13.9365 3.70898C14.6027 4.78398 14.9502 6.06398 14.9502 7.48773C14.9502 9.60023 14.1877 11.3877 12.7502 12.6627C11.4252 13.8252 9.62523 14.4752 7.70023 14.4752C5.44273 14.4752 3.07523 13.5565 1.67773 11.6077C3.02273 13.8152 5.55273 14.8502 7.95023 14.8502C9.87523 14.8502 11.6752 14.2002 13.0002 13.0377C14.4377 11.7627 15.2002 9.97523 15.2002 7.86273C15.2002 6.27023 14.7665 4.85523 13.9365 3.70898Z" fill="#E38A00"/>
<path d="M6.20123 6.83725L6.17623 6.86225C6.15748 6.88475 6.13498 6.906 6.11248 6.92475L6.02623 6.996C5.98998 7.0235 5.94873 7.0535 5.90123 7.0835C5.85248 7.11475 5.80248 7.1435 5.75123 7.16975C5.63748 7.22725 5.51623 7.266 5.39123 7.28725C5.32623 7.2985 5.26123 7.3035 5.19498 7.3035H5.13623C5.11998 7.30475 5.10248 7.30475 5.08623 7.3035C5.06623 7.3035 5.02998 7.296 4.99748 7.29225C4.93498 7.281 4.87248 7.26475 4.81123 7.246C4.75248 7.226 4.69498 7.20225 4.63873 7.17475C4.58748 7.1485 4.53748 7.11975 4.48873 7.0885C4.41373 7.03975 4.34248 6.98475 4.27623 6.9235L4.19748 6.851L4.16623 6.821C4.00623 6.67475 3.76498 6.666 3.59498 6.79975C3.47373 6.89475 3.43498 7.061 3.49998 7.201L3.51748 7.2385C3.53373 7.27475 3.55248 7.30975 3.57373 7.3435C3.64748 7.471 3.73873 7.586 3.84373 7.6885C3.91748 7.761 3.99748 7.826 4.08373 7.8835C4.18248 7.95225 4.28748 8.011 4.39873 8.0585C4.51873 8.11225 4.64498 8.15475 4.77373 8.1835C4.84248 8.196 4.90623 8.2085 4.98998 8.216C5.02873 8.216 5.07498 8.2235 5.09498 8.2235H5.19123C5.33123 8.221 5.47123 8.20725 5.60873 8.17975C5.73748 8.151 5.86373 8.1085 5.98373 8.05475C6.09373 8.00725 6.19998 7.9485 6.29873 7.87975C6.38373 7.82225 6.46373 7.75725 6.53748 7.68475C6.60248 7.62725 6.66248 7.566 6.71748 7.49975L6.77623 7.41725L6.82623 7.33725C6.84498 7.30725 6.86123 7.27475 6.87498 7.24225C6.88373 7.221 6.88873 7.211 6.88873 7.211C6.96373 7.03225 6.87873 6.826 6.69998 6.751C6.68748 6.746 6.67498 6.741 6.66248 6.7385C6.50248 6.67975 6.32373 6.7185 6.20123 6.83725Z" fill="#422B0D"/>
<path d="M11.8139 6.83737L11.7889 6.86237C11.7702 6.88487 11.7477 6.90612 11.7252 6.92487L11.6389 6.99612C11.6027 7.02362 11.5614 7.05362 11.5139 7.08362C11.4652 7.11487 11.4152 7.14362 11.3639 7.16987C11.3089 7.19737 11.2514 7.22112 11.1927 7.24112C11.1314 7.25987 11.0689 7.27612 11.0052 7.28737C10.9402 7.29862 10.8752 7.30362 10.8089 7.30362H10.7502C10.7327 7.30487 10.7164 7.30487 10.6989 7.30362C10.6802 7.30362 10.6439 7.29612 10.6114 7.29237C10.5477 7.28112 10.4852 7.26487 10.4239 7.24612C10.3639 7.22487 10.3064 7.19862 10.2502 7.16987C10.1989 7.14362 10.1489 7.11487 10.1002 7.08362C10.0252 7.03487 9.95391 6.97987 9.88766 6.91862L9.80891 6.84612L9.77766 6.81612C9.61766 6.66987 9.37641 6.66112 9.20641 6.79487C9.08266 6.88987 9.04141 7.05987 9.10891 7.20112C9.10891 7.20112 9.10891 7.21487 9.12766 7.23862C9.14391 7.27487 9.16266 7.30987 9.18266 7.34362C9.31141 7.55987 9.48516 7.74362 9.69391 7.88362C9.79266 7.95237 9.89766 8.01112 10.0077 8.05862C10.1302 8.11362 10.2577 8.15487 10.3889 8.18362C10.4577 8.19612 10.5214 8.20862 10.6052 8.21612C10.6439 8.21612 10.6889 8.22362 10.7089 8.22362H10.8064C10.9464 8.22112 11.0852 8.20737 11.2227 8.17987C11.3539 8.15112 11.4814 8.10987 11.6039 8.05487C11.7139 8.00737 11.8189 7.94862 11.9177 7.87987C12.0039 7.82237 12.0839 7.75737 12.1577 7.68487C12.2189 7.62737 12.2764 7.56612 12.3289 7.49987L12.3889 7.41737L12.4389 7.33737C12.4577 7.30737 12.4739 7.27487 12.4877 7.24237C12.4964 7.22112 12.5014 7.21112 12.5014 7.21112C12.5764 7.03237 12.4914 6.82612 12.3127 6.75112C12.3002 6.74612 12.2877 6.74112 12.2752 6.73862C12.1152 6.67987 11.9364 6.71862 11.8139 6.83737Z" fill="#422B0D"/>
<path d="M13.9224 12.9845C16.5836 12.3957 15.7736 7.84698 11.2086 8.44698C10.4161 8.55198 9.58361 9.07197 8.98986 9.59572C8.84486 9.72072 8.90861 9.97073 9.10236 9.95698C11.0061 9.82698 10.9499 13.6407 13.9224 12.9845Z" fill="#4FC3F7"/>
<path d="M14.0813 9.31422C14.1576 9.37922 14.2151 9.46172 14.2501 9.55422C14.2851 9.64797 14.2701 9.75172 14.2113 9.83297C14.1226 9.94422 13.9613 9.95797 13.8151 9.93797C13.4238 9.89922 13.0476 9.77297 12.7113 9.57047C12.5201 9.45547 12.2951 9.25797 12.3476 9.00422C12.3838 8.83547 12.5488 8.79547 12.7013 8.79297C13.2088 8.79297 13.7001 8.97797 14.0813 9.31422Z" fill="#B3E5FC"/>
<path d="M4.45487 4.78428H4.47112C4.73862 4.72178 4.72862 4.31928 4.42362 4.32928C4.17737 4.34178 3.93487 4.39178 3.70362 4.47678C3.08112 4.70178 2.56737 5.15803 2.27112 5.75053C2.21737 5.86553 2.26737 6.00303 2.38237 6.05553C2.48487 6.10303 2.60612 6.06928 2.66987 5.97678C3.11237 5.38803 3.74237 4.96803 4.45487 4.78428Z" fill="#422B0D"/>
<path d="M11.4362 4.78409H11.4199C11.2949 4.76909 11.2049 4.65659 11.2187 4.53034C11.2324 4.40659 11.3437 4.31784 11.4674 4.32909C11.7137 4.34159 11.9549 4.39159 12.1862 4.47659C12.8112 4.70159 13.3262 5.15659 13.6249 5.75034C13.6787 5.86534 13.6287 6.00284 13.5137 6.05534C13.4112 6.10284 13.2899 6.06909 13.2262 5.97659C12.7824 5.38784 12.1512 4.96659 11.4362 4.78409Z" fill="#422B0D"/>
<path d="M6.96224 12.4131C6.48349 12.4043 6.10224 12.0081 6.11099 11.5293C6.11349 11.3681 6.16224 11.2106 6.24974 11.0756C6.63724 10.4756 7.24974 10.1631 7.99974 10.1631C8.74974 10.1631 9.36224 10.4756 9.74974 11.0756C9.92349 11.3381 9.93724 11.6743 9.78724 11.9506C9.63849 12.2281 9.35224 12.4056 9.03724 12.4131C8.93849 12.4156 8.84099 12.3993 8.74974 12.3631C8.50849 12.2793 8.25474 12.2368 7.99974 12.2381C7.74474 12.2356 7.49099 12.2781 7.24974 12.3631C7.15724 12.3968 7.05974 12.4143 6.96224 12.4131Z" fill="#422B0D"/>
<defs>
<radialGradient id="paint0_radial_1982_39120" cx="0" cy="0" r="1" gradientUnits="userSpaceOnUse" gradientTransform="translate(7.9502 7.8625) scale(7.11996)">
<stop stop-color="#FFDE1E"/>
<stop offset="0.53" stop-color="#FFDD16"/>
<stop offset="0.795" stop-color="#FEC114"/>
<stop offset="0.955" stop-color="#FEA311"/>
<stop offset="1" stop-color="#F49400"/>
</radialGradient>
</defs>
</svg>
