<svg width="20" height="20" viewBox="0 0 20 20" fill="none" xmlns="http://www.w3.org/2000/svg">
<path d="M16.3981 8.80625L11.5981 4.00625C11.4231 3.83125 11.1106 3.83125 10.9356 4.00625L7.04183 7.9L3.98558 8.40625C3.81058 8.4375 3.67308 8.55625 3.61683 8.725C3.56058 8.89375 3.61058 9.075 3.72933 9.2L7.13558 12.6062L4.00433 15.7375L4.66683 16.4L7.80433 13.2688L11.2043 16.6687C11.2918 16.7562 11.4106 16.8063 11.5356 16.8063C11.5856 16.8063 11.6293 16.8 11.6793 16.7812C11.8481 16.7312 11.9668 16.5875 11.9981 16.4125L12.5043 13.3625L16.3981 9.46875C16.4856 9.38125 16.5356 9.2625 16.5356 9.1375C16.5356 9.0125 16.4856 8.89375 16.3981 8.80625Z" fill="white" fill-opacity="0.16"/>
<path fill-rule="evenodd" clip-rule="evenodd" d="M16.75 8.375L11.9375 3.5625C11.5625 3.1875 11 3.1875 10.625 3.5625L6.81252 7.375L3.87502 7.875C3.50002 7.9375 3.25002 8.1875 3.12502 8.5C3.00002 8.875 3.12502 9.1875 3.31252 9.4375L6.81252 12.9375L4.00002 15.75L4.68752 16.4375L7.50002 13.625L10.8125 16.9375C11 17.125 11.25 17.1875 11.5 17.1875C11.5625 17.1875 11.6875 17.1875 11.8125 17.125C12.1875 17 12.375 16.75 12.4375 16.375L12.9375 13.4375L16.75 9.625C16.9375 9.4375 17 9.1875 17 8.9375C17 8.75 16.875 8.5 16.75 8.375ZM12.0625 13L11.5625 16.1875L8.12502 12.8125L4.06252 8.75L7.25002 8.25L11.25 4.25L16.0625 9.0625L12.0625 13Z" fill="#A9A9A9"/>
</svg>
