<svg width="16" height="16" viewBox="0 0 16 16" fill="none" xmlns="http://www.w3.org/2000/svg">
<g clip-path="url(#clip0_1982_38897)">
<path d="M12.8913 12.8037C10.4251 15.27 6.21755 16.3837 2.8238 12.9887C-0.569946 9.59375 0.542554 5.3875 3.0088 2.92125C4.37505 1.55125 6.0938 0.738745 7.85255 0.624995C9.7713 0.509995 11.5826 1.24375 13.0763 2.7375C14.5701 4.23125 15.2951 6.03374 15.1801 7.9525C15.0651 9.71 14.2501 11.4425 12.8913 12.8037Z" fill="url(#paint0_radial_1982_38897)"/>
<path d="M9.2501 0.692383C10.4801 0.981133 11.6251 1.64113 12.6388 2.64738C14.1388 4.14738 14.8576 5.94488 14.7426 7.86238C14.6251 9.62488 13.8101 11.3536 12.4488 12.7149C10.8526 14.3111 8.52635 15.3399 6.1626 14.9461C8.6751 15.5561 11.1951 14.4999 12.8913 12.8036C14.2501 11.4424 15.0651 9.70988 15.1801 7.95113C15.2951 6.03238 14.5701 4.22988 13.0763 2.73613C11.9501 1.60988 10.6426 0.916133 9.2501 0.692383Z" fill="#E38A00"/>
<path d="M12.0889 4.94539C11.7427 4.84539 11.3752 5.01664 11.2289 5.34664C10.5852 6.51789 9.77643 7.58914 8.82768 8.53039C7.88768 9.47914 6.81518 10.2879 5.64393 10.9304C5.31518 11.0779 5.14518 11.4441 5.24268 11.7904C5.34518 12.1341 5.68893 12.3029 6.01268 12.4241C7.82643 13.1029 9.82268 12.5979 11.3564 11.0729L11.3714 11.0591C12.8952 9.52539 13.4002 7.52914 12.7214 5.71414C12.6014 5.39164 12.4314 5.04664 12.0889 4.94539Z" fill="#422B0D"/>
<path d="M11.2599 10.9473L11.2524 10.9548V10.9623L11.2599 10.9473Z" fill="#422B0D"/>
<path d="M8.95154 8.625L8.93779 8.6375L8.92529 8.65125L8.95154 8.625Z" fill="#422B0D"/>
<path d="M8.95154 8.625L8.93779 8.6375L8.92529 8.65125L8.95154 8.625Z" fill="#422B0D"/>
<path d="M11.2599 10.9473L11.2524 10.9548V10.9623L11.2599 10.9473Z" fill="#422B0D"/>
<path d="M12.4252 9.29785C12.3615 9.29785 12.3002 9.3066 12.2402 9.3116C11.5615 9.35535 10.924 9.6516 10.4527 10.1416C9.94771 10.6266 9.62771 11.2741 9.54771 11.9704C9.54021 12.0316 9.53271 12.0954 9.52896 12.1554C9.52521 12.2154 9.53896 12.2654 9.54646 12.3154C10.2227 12.0179 10.8365 11.5966 11.3565 11.0729L11.3715 11.0591C11.8727 10.5604 12.2802 9.97535 12.574 9.33285C12.5252 9.31785 12.4752 9.3066 12.4252 9.29785Z" fill="#ED7770"/>
<path d="M11.2289 5.34664C10.5852 6.51789 9.77643 7.58914 8.82768 8.53039C7.88768 9.47914 6.81518 10.2879 5.64393 10.9304C5.31518 11.0779 5.14518 11.4441 5.24268 11.7904C5.25893 11.8416 5.28018 11.8904 5.30768 11.9366C5.35893 11.9191 5.40768 11.8991 5.45643 11.8754C7.05268 11.3454 8.50018 10.4429 9.67643 9.24039C10.8302 8.11164 11.7102 6.73539 12.2502 5.21414C12.2714 5.16289 12.2902 5.11039 12.3064 5.05664C12.2414 5.00664 12.1677 4.96789 12.0889 4.94539C11.7427 4.84539 11.3752 5.01664 11.2289 5.34664Z" fill="white"/>
<path d="M8.92522 8.7178C9.65897 8.0078 10.139 7.3103 10.7165 6.4603C10.8602 6.2478 10.9965 6.0303 11.1277 5.80655L11.2227 5.6378C11.2477 5.59405 11.2752 5.55155 11.3077 5.5128C11.3652 5.44155 11.439 5.38655 11.524 5.35155C11.7215 5.27905 11.9377 5.2753 12.1377 5.34155C12.544 5.53655 12.8977 6.23155 12.8527 6.10155C12.8527 6.10155 12.779 5.8103 12.7765 5.80655C12.6765 5.55655 12.574 5.27405 12.3152 5.05655C12.0377 4.8453 11.6677 4.8028 11.3502 4.94655C11.2015 5.01405 11.0727 5.1178 10.9752 5.2478C10.9277 5.3078 10.8852 5.3728 10.8502 5.44155L10.7665 5.60655C10.6502 5.8253 10.5265 6.04155 10.3915 6.2528C9.91147 7.05405 9.34522 7.8003 8.70272 8.4778L8.68272 8.4978C8.01897 9.1328 7.28772 9.69155 6.50022 10.164C6.28772 10.289 6.07272 10.414 5.85397 10.539L5.68397 10.6253C5.61522 10.6603 5.55022 10.7016 5.49022 10.7503C5.35897 10.8478 5.25522 10.9766 5.18772 11.1253C5.05397 11.4403 5.10147 11.804 5.31272 12.074C5.64897 12.5128 6.41647 12.574 6.42022 12.574C6.54522 12.619 5.78772 12.2966 5.59272 11.8903C5.52397 11.6978 5.52397 11.4865 5.59272 11.294C5.62522 11.2065 5.67897 11.1291 5.75022 11.0691C5.78897 11.0366 5.83147 11.009 5.87522 10.9853L6.04397 10.8903C6.26647 10.7653 6.48397 10.6216 6.69772 10.4778C7.54647 9.9003 8.19772 9.4778 8.90397 8.7378" fill="#E38A00"/>
<path d="M14.3915 3.91741C14.5415 4.87241 13.664 5.77741 12.8678 5.88491C12.3078 5.95991 11.6828 5.83116 10.7428 5.59741C10.604 5.57116 10.4628 5.52991 10.3078 5.49116C9.73527 5.33241 9.17277 5.14116 8.62152 4.91866C8.51277 4.87866 8.45277 4.76366 8.48027 4.65241C8.49652 4.60491 8.52902 4.56366 8.57027 4.53616C8.99152 4.10366 9.46652 3.72616 9.98152 3.41116C11.2828 2.60616 11.7778 2.49741 12.3378 2.42241C13.1103 2.29616 14.229 2.87491 14.3915 3.91741Z" fill="url(#paint1_radial_1982_38897)"/>
<path d="M13.1901 3.02331C13.5538 3.19581 13.5563 3.69456 13.0013 3.77331C12.6451 3.82081 10.8113 3.99331 11.0251 3.65456C11.3751 3.09831 12.6763 2.77956 13.1901 3.02331Z" fill="#81D4FA"/>
<path d="M9.08126 3.88707L7.92751 4.92207L8.35501 3.27832C8.35876 3.25832 8.36251 3.23957 8.36376 3.21957C8.41126 2.93457 8.21751 2.66457 7.93251 2.61832C7.86501 2.60707 7.79501 2.60957 7.72751 2.62457C7.42376 2.70832 7.20376 2.97332 7.17876 3.28707C7.10751 4.01332 6.94001 5.72457 6.87501 6.39082C6.85501 6.45707 6.89251 6.52707 6.95876 6.54707C7.00251 6.56082 7.05001 6.54832 7.08251 6.51582L9.66876 4.88082L9.72001 4.84457C10.0325 4.60457 10.1088 4.14707 9.85626 3.88207C9.66376 3.67957 9.33126 3.69582 9.08126 3.88707Z" fill="#422B0D"/>
<path d="M3.23796 12.9998C3.19296 12.461 3.19171 11.976 3.67796 10.5923C3.86796 10.0448 4.12546 9.52353 4.44421 9.03978C4.46171 8.99478 4.49421 8.95728 4.53546 8.93228C4.63421 8.88228 4.75421 8.91603 4.81421 9.00853C5.13546 9.47853 5.42921 9.96603 5.69671 10.4685C5.76421 10.606 5.83171 10.7285 5.88546 10.8535C6.29796 11.6898 6.54671 12.2485 6.59171 12.7873C6.65546 13.5535 5.98921 14.561 5.06546 14.6185C4.05921 14.676 3.28546 13.7498 3.23796 12.9998Z" fill="url(#paint2_radial_1982_38897)"/>
<path d="M4.12517 11.5216C4.39642 11.2504 4.61267 13.0004 4.64142 13.3441C4.68517 13.8791 4.21767 13.9791 3.98267 13.6754C3.64767 13.2504 3.67892 11.9616 4.12517 11.5216Z" fill="#81D4FA"/>
<path d="M3.77148 9.8453L4.60398 8.53655L3.05273 9.22905L3.00023 9.2503C2.72648 9.3428 2.42898 9.19655 2.33523 8.9228C2.31273 8.8578 2.30398 8.78905 2.30898 8.7203C2.34148 8.40655 2.56648 8.14655 2.87273 8.0703L5.87523 7.25655C5.93773 7.22655 6.01273 7.2528 6.04273 7.3153C6.06273 7.35655 6.05898 7.4053 6.03148 7.44155L4.84773 10.2603C4.84023 10.2803 4.83148 10.299 4.82148 10.3178C4.63648 10.6653 4.19648 10.8178 3.89398 10.6103C3.66273 10.4528 3.62523 10.1253 3.77148 9.8453Z" fill="#422B0D"/>
</g>
<defs>
<radialGradient id="paint0_radial_1982_38897" cx="0" cy="0" r="1" gradientUnits="userSpaceOnUse" gradientTransform="translate(7.94213 7.86698) scale(7.11972 7.39121)">
<stop stop-color="#FFDE1E"/>
<stop offset="0.53" stop-color="#FFDD16"/>
<stop offset="0.795" stop-color="#FEC114"/>
<stop offset="0.955" stop-color="#FEA311"/>
<stop offset="1" stop-color="#F49400"/>
</radialGradient>
<radialGradient id="paint1_radial_1982_38897" cx="0" cy="0" r="1" gradientUnits="userSpaceOnUse" gradientTransform="translate(9.68587 3.81288) rotate(-97.4809) scale(3.94407 6.10006)">
<stop offset="0.46" stop-color="#29B6F6"/>
<stop offset="1" stop-color="#1E88E5"/>
</radialGradient>
<radialGradient id="paint2_radial_1982_38897" cx="0" cy="0" r="1" gradientUnits="userSpaceOnUse" gradientTransform="translate(4.93068 9.21146) rotate(175.426) scale(3.79458 5.80801)">
<stop offset="0.46" stop-color="#29B6F6"/>
<stop offset="1" stop-color="#1E88E5"/>
</radialGradient>
<clipPath id="clip0_1982_38897">
<rect width="16" height="16" fill="white"/>
</clipPath>
</defs>
</svg>
