<svg width="16" height="16" viewBox="0 0 16 16" fill="none" xmlns="http://www.w3.org/2000/svg">
<path d="M7.9502 14.85C4.4627 14.85 0.700195 12.6625 0.700195 7.8625C0.700195 3.0625 4.4627 0.875 7.9502 0.875C9.8877 0.875 11.6752 1.5125 13.0002 2.675C14.4377 3.95 15.2002 5.75 15.2002 7.8625C15.2002 9.975 14.4377 11.7625 13.0002 13.0375C11.6752 14.2 9.8752 14.85 7.9502 14.85Z" fill="url(#paint0_radial_1982_39106)"/>
<path d="M7.9502 14.85C4.4627 14.85 0.700195 12.6625 0.700195 7.8625C0.700195 3.0625 4.4627 0.875 7.9502 0.875C9.8877 0.875 11.6752 1.5125 13.0002 2.675C14.4377 3.95 15.2002 5.75 15.2002 7.8625C15.2002 9.975 14.4377 11.7625 13.0002 13.0375C11.6752 14.2 9.8752 14.85 7.9502 14.85Z" fill="url(#paint1_radial_1982_39106)"/>
<path d="M13.9365 3.70898C14.6027 4.78398 14.9502 6.06398 14.9502 7.48773C14.9502 9.60023 14.1877 11.3877 12.7502 12.6627C11.4252 13.8252 9.62523 14.4752 7.70023 14.4752C5.44273 14.4752 3.07023 13.5565 1.67773 11.6077C3.02273 13.8152 5.55148 14.8502 7.95023 14.8502C9.87523 14.8502 11.6752 14.2002 13.0002 13.0377C14.4377 11.7627 15.2002 9.97523 15.2002 7.86273C15.2002 6.27023 14.7665 4.85523 13.9365 3.70898Z" fill="#E38A00"/>
<path opacity="0.8" d="M3.7123 10.0496C4.83758 10.0496 5.7498 9.13739 5.7498 8.01211C5.7498 6.88683 4.83758 5.97461 3.7123 5.97461C2.58702 5.97461 1.6748 6.88683 1.6748 8.01211C1.6748 9.13739 2.58702 10.0496 3.7123 10.0496Z" fill="url(#paint2_radial_1982_39106)"/>
<path opacity="0.8" d="M12.1122 8.47441C13.2375 8.47441 14.1497 7.56219 14.1497 6.43691C14.1497 5.31163 13.2375 4.39941 12.1122 4.39941C10.9869 4.39941 10.0747 5.31163 10.0747 6.43691C10.0747 7.56219 10.9869 8.47441 12.1122 8.47441Z" fill="url(#paint3_radial_1982_39106)"/>
<path d="M12.1123 6.17464C11.1498 7.06214 9.87475 7.76214 8.39975 8.09964C6.92475 8.43714 5.47475 8.37464 4.22475 7.98714C3.99975 7.91214 3.83725 8.21214 4.03725 8.36214C5.29975 9.29964 6.98725 9.69964 8.67475 9.29964C10.3623 8.91214 11.7123 7.82464 12.4373 6.42464C12.5623 6.21214 12.2873 6.01214 12.1123 6.17464Z" fill="#422B0D"/>
<path d="M6.06221 5.89922C6.06221 5.89922 6.04971 5.88672 6.03721 5.87422C6.02471 5.86172 5.99971 5.84922 5.97471 5.82422C5.94971 5.81172 5.92471 5.78672 5.89971 5.77422C5.87471 5.74922 5.83721 5.72422 5.79971 5.69922C5.76221 5.67422 5.72471 5.64922 5.68721 5.63672C5.64971 5.61172 5.61221 5.59922 5.57471 5.59922C5.53721 5.58672 5.51221 5.58672 5.49971 5.58672C5.48721 5.58672 5.48721 5.58672 5.47471 5.58672C5.47471 5.58672 5.47471 5.58672 5.46221 5.58672C5.47471 5.58672 5.43721 5.58672 5.48721 5.58672L5.42471 5.59922C5.41221 5.59922 5.42471 5.59922 5.42471 5.59922C5.42471 5.59922 5.42471 5.59922 5.43721 5.59922C5.43721 5.59922 5.44971 5.59922 5.43721 5.59922H5.42471C5.41221 5.61172 5.38721 5.62422 5.36221 5.63672C5.33721 5.66172 5.29971 5.68672 5.27471 5.71172C5.24971 5.73672 5.22471 5.77422 5.19971 5.81172C5.14971 5.88672 5.11221 5.94922 5.08721 5.99922C5.06221 6.04922 5.03721 6.07422 5.03721 6.07422L5.01221 6.12422C4.88721 6.33672 4.61221 6.42422 4.38721 6.31172C4.23721 6.23672 4.14971 6.09922 4.13721 5.94922C4.13721 5.94922 4.13721 5.89922 4.13721 5.81172C4.14971 5.72422 4.16221 5.59922 4.21221 5.44922C4.26221 5.29922 4.34971 5.11172 4.51221 4.93672C4.59971 4.84922 4.69971 4.74922 4.82471 4.68672C4.84971 4.66172 4.88721 4.64922 4.92471 4.63672C4.96221 4.62422 4.98721 4.59922 5.03721 4.58672L5.09971 4.56172C5.12471 4.54922 5.14971 4.54922 5.16221 4.54922L5.22471 4.53672L5.26221 4.52422H5.28721H5.31221L5.37471 4.51172C5.41221 4.51172 5.44971 4.51172 5.48721 4.51172C5.56221 4.51172 5.63721 4.51172 5.71221 4.52422C5.86221 4.54922 5.98721 4.59922 6.09971 4.64922C6.32471 4.76172 6.46221 4.89922 6.57471 5.01172C6.62471 5.07422 6.67471 5.12422 6.69971 5.17422C6.73721 5.22422 6.76221 5.27422 6.78721 5.31172C6.81221 5.34922 6.81221 5.37422 6.82471 5.38672C6.82471 5.39922 6.83721 5.41172 6.83721 5.41172C6.92471 5.63672 6.79971 5.88672 6.54971 5.97422C6.37471 6.03672 6.18721 5.99922 6.06221 5.89922Z" fill="#422B0D"/>
<path d="M10.3498 5.06211C10.3498 5.06211 10.3373 5.04961 10.3248 5.03711C10.3123 5.02461 10.2873 5.01211 10.2623 4.98711C10.2373 4.97461 10.2123 4.94961 10.1873 4.93711C10.1623 4.91211 10.1248 4.88711 10.0873 4.86211C10.0498 4.83711 10.0123 4.81211 9.9748 4.79961C9.9373 4.77461 9.8998 4.76211 9.8623 4.76211C9.8373 4.74961 9.8123 4.74961 9.7998 4.74961C9.7873 4.74961 9.7873 4.74961 9.7748 4.74961H9.7623C9.7748 4.74961 9.7373 4.74961 9.7873 4.74961L9.7248 4.76211C9.7123 4.76211 9.7248 4.76211 9.7248 4.76211H9.7373C9.7373 4.76211 9.7498 4.76211 9.7373 4.76211H9.7248C9.7123 4.77461 9.6873 4.78711 9.6498 4.79961C9.6248 4.82461 9.5998 4.84961 9.5623 4.87461C9.5373 4.89961 9.5123 4.93711 9.4873 4.97461C9.4373 5.04961 9.3998 5.11211 9.3748 5.16211C9.3498 5.21211 9.3248 5.23711 9.3248 5.23711L9.2998 5.27461C9.1748 5.48711 8.8998 5.57461 8.6748 5.46211C8.5248 5.38711 8.4373 5.24961 8.4248 5.09961C8.4248 5.09961 8.4248 5.04961 8.4373 4.96211C8.4498 4.87461 8.4623 4.74961 8.5123 4.59961C8.5623 4.44961 8.6498 4.26211 8.8123 4.08711C8.8998 3.99961 8.9998 3.89961 9.1248 3.83711C9.1498 3.82461 9.1873 3.79961 9.2248 3.78711C9.2623 3.77461 9.2873 3.74961 9.3373 3.73711L9.4123 3.71211C9.4373 3.69961 9.4623 3.69961 9.4748 3.69961L9.5373 3.68711L9.5748 3.67461H9.5998H9.6248L9.6873 3.66211C9.7248 3.66211 9.7623 3.66211 9.7998 3.66211C9.8748 3.66211 9.9498 3.66211 10.0248 3.67461C10.1748 3.69961 10.2998 3.74961 10.4123 3.79961C10.6373 3.91211 10.7748 4.04961 10.8873 4.16211C10.9373 4.22461 10.9873 4.27461 11.0123 4.32461C11.0498 4.37461 11.0748 4.42461 11.0998 4.46211C11.1248 4.49961 11.1248 4.52461 11.1373 4.53711C11.1498 4.54961 11.1498 4.56211 11.1498 4.56211C11.2373 4.78711 11.1123 5.03711 10.8623 5.12461C10.6623 5.21211 10.4748 5.17461 10.3498 5.06211Z" fill="#422B0D"/>
<path d="M5.35863 10.3286C5.32738 10.0174 5.34113 9.83988 5.10238 9.78363C4.83488 9.72113 4.59613 9.91238 4.52363 10.1861C4.33238 10.9186 4.65738 11.4299 4.65738 11.4299C4.19488 11.3386 3.80863 10.8886 3.80863 10.8886C3.56738 10.6049 3.22738 9.89988 2.99238 9.60988C2.84988 9.43363 2.61613 9.28988 2.38363 9.41113C1.82613 9.70363 2.44363 10.6986 2.65113 10.9636C2.88738 11.2649 2.03738 10.3011 1.91238 10.0911C1.67988 9.70113 1.39488 9.59738 1.15613 9.80113C0.917383 10.0036 1.10863 10.5099 1.21738 10.7024C1.88363 11.8711 2.46488 12.1574 2.46488 12.1574C2.46488 12.1574 1.84613 11.8599 1.31863 11.2211C0.821133 10.6186 0.348633 11.2549 0.679883 11.7899C0.749883 11.9036 0.883633 12.1974 1.31363 12.5686C1.42863 12.6824 1.64363 12.8536 1.31363 12.5686C0.873633 12.1349 0.404883 12.5974 0.546133 12.9761C0.709883 13.4124 1.24363 13.8161 1.60488 14.0836C2.30738 14.6036 3.18363 15.0199 4.07113 14.9911C5.05863 14.9599 5.78738 14.5486 6.00613 13.3274C6.10738 12.7599 5.79113 11.8899 5.69738 11.6674C5.39113 10.9474 5.37613 10.5049 5.35863 10.3286Z" fill="url(#paint4_radial_1982_39106)"/>
<path d="M4.36714 13.3669C4.23464 13.1807 3.86089 12.3157 4.55839 11.4307L4.76089 11.5582C3.97089 12.5332 4.52339 13.3657 4.61964 13.5544C4.61964 13.5544 4.49339 13.5457 4.36714 13.3669Z" fill="#E38A00"/>
<path d="M5.77487 11.5871C5.46487 10.9858 5.44237 10.6733 5.42112 10.3308C5.39737 10.0833 5.37987 9.77705 5.08112 9.70705C4.95362 9.67705 4.77612 9.69455 4.61862 9.8683C4.22487 10.3058 4.53862 11.3233 4.53862 11.3233C3.97237 11.0583 3.87737 10.8246 3.47612 10.2208C3.30112 9.9558 3.02237 9.4658 2.76737 9.3233C2.58487 9.2208 2.31487 9.29705 2.17987 9.47955C1.87612 9.88705 2.41737 10.7133 2.41737 10.7133C2.41737 10.7133 2.11862 10.2783 1.98862 10.0508C1.76737 9.66455 1.36237 9.4508 1.06362 9.71955C0.576121 10.1583 1.52362 11.3383 1.52362 11.3383C1.52362 11.3383 1.08737 10.6471 0.652371 10.9396C0.426121 11.0921 0.337371 11.4896 0.572371 11.8721C0.676121 12.0458 0.939871 12.3533 0.939871 12.3533C0.939871 12.3533 0.833621 12.2858 0.656121 12.3433C0.458621 12.4083 0.289871 12.6533 0.433621 13.0358C0.599871 13.4833 1.09237 13.8708 1.54112 14.1946C2.56237 14.9321 3.75612 14.9771 3.75612 14.9771C3.75612 14.9771 2.44737 14.7258 1.60987 13.9633C1.34737 13.7246 0.307371 12.9983 0.678621 12.6208C0.766121 12.5308 0.926121 12.4858 1.16237 12.6733C1.99362 13.3358 2.27737 13.1821 2.27737 13.1821C2.30737 13.0671 2.22487 13.0183 1.97737 12.8721C1.80612 12.7708 1.57112 12.6321 1.39737 12.4833C0.971121 12.1146 0.489871 11.4733 0.753621 11.1883C0.894871 11.0358 1.05862 11.0683 1.21737 11.2321C2.32237 12.3596 2.58237 12.2008 2.58237 12.2008C2.58237 12.2008 2.61612 12.0783 2.26737 11.7721C1.99987 11.5383 1.67112 11.2496 1.26487 10.5421C1.15737 10.3546 1.10237 10.0208 1.25987 9.88955C1.47237 9.70955 1.66862 9.8283 1.84487 10.0921C2.05987 10.4133 2.36487 10.8083 2.66862 11.0996C3.03612 11.4508 3.23362 11.5583 3.24612 11.5458C3.33362 11.4508 2.95737 11.0821 2.78987 10.8521C2.19987 10.0383 2.20862 9.7708 2.33112 9.55955C2.40862 9.4258 2.62237 9.3658 2.87987 9.68955C3.43487 10.3296 3.71487 11.3708 4.75987 11.5558C4.75987 11.5558 4.79987 11.4933 4.70612 11.1546C4.59362 10.8008 4.57487 10.4996 4.63237 10.2358C4.69612 9.94455 4.92987 9.86205 5.05862 9.8933C5.23112 9.93455 5.21112 10.2246 5.21112 10.2246C5.21112 10.2246 5.22112 10.3308 5.22612 10.3796C5.24612 10.5896 5.28737 11.0271 5.57737 11.7021C5.69362 11.9721 6.31362 13.0821 5.47362 14.4708C5.47362 14.4708 5.82987 14.5621 6.23862 14.6571C6.23862 14.6571 6.39987 14.0883 6.32487 13.2046C6.23362 12.0933 5.98362 11.9921 5.77487 11.5871Z" fill="#E38A00"/>
<path d="M0.0688477 12.8334C0.0725977 12.7984 0.0775977 12.7684 0.0838477 12.7422C0.0750977 12.7709 0.0700977 12.8009 0.0688477 12.8334Z" fill="url(#paint5_radial_1982_39106)"/>
<path d="M10.5276 10.3282C10.5589 10.017 10.5464 9.84572 10.7839 9.78322C11.0389 9.71697 11.2851 9.91322 11.3626 10.1857C11.5414 10.8257 11.1989 11.4295 11.1989 11.4295C11.6614 11.3382 12.0539 10.8945 12.0539 10.8945C12.2951 10.6107 12.6601 9.89947 12.8939 9.60947C13.0364 9.43322 13.2051 9.31947 13.4501 9.40947C13.9564 9.59697 13.4276 10.622 13.2201 10.8882C12.9839 11.1895 13.1339 11.1407 13.4514 10.792C13.7701 10.4407 13.9389 10.242 14.0639 10.0332C14.2964 9.64322 14.5751 9.67323 14.7301 9.80073C14.9726 10.0007 14.7776 10.5095 14.6689 10.702C14.0026 11.8707 14.5676 11.2207 14.5676 11.2207C15.0651 10.6182 15.5376 11.2545 15.2064 11.7895C15.1364 11.9032 15.0026 12.197 14.5726 12.5682C14.2426 12.8532 14.4576 12.682 14.5726 12.5682C15.0126 12.1345 15.4814 12.597 15.3401 12.9757C15.1764 13.412 14.6426 13.8157 14.2814 14.0832C13.5789 14.6032 12.7026 15.0195 11.8151 14.9907C10.8276 14.9595 10.0989 14.5482 9.88011 13.327C9.77886 12.7595 10.0951 11.8895 10.1889 11.667C10.4951 10.947 10.5101 10.5045 10.5276 10.3282Z" fill="url(#paint6_radial_1982_39106)"/>
<path d="M11.5188 13.3669C11.6513 13.1807 12.025 12.3157 11.3275 11.4307L11.125 11.5582C11.915 12.5332 11.3625 13.3657 11.2662 13.5544C11.2662 13.5544 11.3925 13.5457 11.5188 13.3669Z" fill="#E38A00"/>
<path d="M10.1112 11.5871C10.4212 10.9858 10.4437 10.6733 10.4649 10.3308C10.4887 10.0833 10.5062 9.77705 10.8049 9.70705C10.9324 9.67705 11.1099 9.69455 11.2674 9.8683C11.6612 10.3058 11.3474 11.3233 11.3474 11.3233C11.9137 11.0583 12.0087 10.8246 12.4099 10.2208C12.5849 9.9558 12.8637 9.4658 13.1187 9.3233C13.3012 9.2208 13.5712 9.29705 13.7062 9.47955C14.0099 9.88705 13.4687 10.7133 13.4687 10.7133C13.4687 10.7133 13.7674 10.2783 13.8974 10.0508C14.1187 9.66455 14.5237 9.4508 14.8224 9.71955C15.3099 10.1583 14.3624 11.3383 14.3624 11.3383C14.3624 11.3383 14.7987 10.6471 15.2337 10.9396C15.4599 11.0921 15.5487 11.4896 15.3137 11.8721C15.2099 12.0458 14.9462 12.3533 14.9462 12.3533C14.9462 12.3533 15.0524 12.2858 15.2299 12.3433C15.4274 12.4083 15.5962 12.6533 15.4524 13.0358C15.2862 13.4833 14.7937 13.8708 14.3449 14.1946C13.3237 14.9321 12.1299 14.9771 12.1299 14.9771C12.1299 14.9771 13.4387 14.7258 14.2762 13.9633C14.5387 13.7246 15.5787 12.9983 15.2074 12.6208C15.1199 12.5308 14.9599 12.4858 14.7237 12.6733C13.8924 13.3358 13.6087 13.1821 13.6087 13.1821C13.5787 13.0671 13.6612 13.0183 13.9087 12.8721C14.0799 12.7708 14.3149 12.6321 14.4887 12.4833C14.9149 12.1146 15.3962 11.4733 15.1324 11.1883C14.9912 11.0358 14.8274 11.0683 14.6687 11.2321C13.5637 12.3596 13.3037 12.2008 13.3037 12.2008C13.3037 12.2008 13.2699 12.0783 13.6187 11.7721C13.8862 11.5383 14.2149 11.2496 14.6212 10.5421C14.7287 10.3546 14.7837 10.0208 14.6262 9.88955C14.4137 9.70955 14.2174 9.8283 14.0412 10.0921C13.8262 10.4133 13.5212 10.8083 13.2174 11.0996C12.8499 11.4508 12.6524 11.5583 12.6399 11.5458C12.5524 11.4508 12.9287 11.0821 13.0962 10.8521C13.6862 10.0383 13.6774 9.7708 13.5549 9.55955C13.4774 9.4258 13.2637 9.3658 13.0062 9.68955C12.4487 10.3321 12.1687 11.3733 11.1249 11.5583C11.1249 11.5583 11.0849 11.4958 11.1787 11.1571C11.2912 10.8033 11.3099 10.5021 11.2524 10.2383C11.1887 9.94705 10.9549 9.86455 10.8262 9.8958C10.6537 9.93705 10.6737 10.2271 10.6737 10.2271C10.6737 10.2271 10.6637 10.3333 10.6587 10.3821C10.6387 10.5921 10.5974 11.0296 10.3074 11.7046C10.1912 11.9746 9.56993 13.0958 10.4112 14.4733C10.4112 14.4733 10.0549 14.5646 9.64618 14.6596C9.64618 14.6596 9.48493 14.0908 9.55993 13.2071C9.65243 12.0933 9.90243 11.9921 10.1112 11.5871Z" fill="#E38A00"/>
<path d="M15.8172 12.8334C15.8135 12.7984 15.8085 12.7684 15.8022 12.7422C15.811 12.7709 15.816 12.8009 15.8172 12.8334Z" fill="url(#paint7_radial_1982_39106)"/>
<defs>
<radialGradient id="paint0_radial_1982_39106" cx="0" cy="0" r="1" gradientUnits="userSpaceOnUse" gradientTransform="translate(7.9502 7.86249) scale(7.11996)">
<stop offset="0.5" stop-color="#FDE030"/>
<stop offset="0.9188" stop-color="#F7C02B"/>
<stop offset="1" stop-color="#F4A223"/>
</radialGradient>
<radialGradient id="paint1_radial_1982_39106" cx="0" cy="0" r="1" gradientUnits="userSpaceOnUse" gradientTransform="translate(7.9502 7.8625) scale(7.11996)">
<stop stop-color="#FFDE1E"/>
<stop offset="0.53" stop-color="#FFDD16"/>
<stop offset="0.795" stop-color="#FEC114"/>
<stop offset="0.955" stop-color="#FEA311"/>
<stop offset="1" stop-color="#F49400"/>
</radialGradient>
<radialGradient id="paint2_radial_1982_39106" cx="0" cy="0" r="1" gradientUnits="userSpaceOnUse" gradientTransform="translate(3.71237 8.01196) scale(2.21657 2.10564)">
<stop stop-color="#FF4D26"/>
<stop offset="0.9" stop-color="#FF4D26" stop-opacity="0"/>
</radialGradient>
<radialGradient id="paint3_radial_1982_39106" cx="0" cy="0" r="1" gradientUnits="userSpaceOnUse" gradientTransform="translate(12.1123 6.43676) scale(2.21657 2.10564)">
<stop stop-color="#FF4D26"/>
<stop offset="0.9" stop-color="#FF4D26" stop-opacity="0"/>
</radialGradient>
<radialGradient id="paint4_radial_1982_39106" cx="0" cy="0" r="1" gradientUnits="userSpaceOnUse" gradientTransform="translate(4.04569 11.7588) scale(4.81416)">
<stop offset="0.3302" stop-color="#FFF176"/>
<stop offset="1" stop-color="#FFC400"/>
</radialGradient>
<radialGradient id="paint5_radial_1982_39106" cx="0" cy="0" r="1" gradientUnits="userSpaceOnUse" gradientTransform="translate(3.64829 11.7329) scale(4.86298 4.86295)">
<stop offset="0.3302" stop-color="#FFF176"/>
<stop offset="1" stop-color="#FFC400"/>
</radialGradient>
<radialGradient id="paint6_radial_1982_39106" cx="0" cy="0" r="1" gradientUnits="userSpaceOnUse" gradientTransform="translate(11.8406 11.7651) rotate(180) scale(4.80693)">
<stop offset="0.3302" stop-color="#FFF176"/>
<stop offset="1" stop-color="#FFC400"/>
</radialGradient>
<radialGradient id="paint7_radial_1982_39106" cx="0" cy="0" r="1" gradientUnits="userSpaceOnUse" gradientTransform="translate(12.2378 11.7329) rotate(180) scale(4.86309 4.86295)">
<stop offset="0.3302" stop-color="#FFF176"/>
<stop offset="1" stop-color="#FFC400"/>
</radialGradient>
</defs>
</svg>
