<svg width="16" height="16" viewBox="0 0 16 16" fill="none" xmlns="http://www.w3.org/2000/svg">
<path d="M7.9502 14.85C4.4627 14.85 0.700195 12.6625 0.700195 7.8625C0.700195 3.0625 4.4627 0.875 7.9502 0.875C9.8877 0.875 11.6752 1.5125 13.0002 2.675C14.4377 3.95 15.2002 5.75 15.2002 7.8625C15.2002 9.975 14.4377 11.7625 13.0002 13.0375C11.6752 14.2 9.8752 14.85 7.9502 14.85Z" fill="url(#paint0_radial_1982_39097)"/>
<path d="M13.9365 3.70898C14.6027 4.78398 14.9502 6.06398 14.9502 7.48773C14.9502 9.60023 14.1877 11.3877 12.7502 12.6627C11.4252 13.8252 9.62523 14.4752 7.70023 14.4752C5.44273 14.4752 3.07523 13.5565 1.67773 11.6077C3.02273 13.8152 5.55273 14.8502 7.95023 14.8502C9.87523 14.8502 11.6752 14.2002 13.0002 13.0377C14.4377 11.7627 15.2002 9.97523 15.2002 7.86273C15.2002 6.27023 14.7665 4.85523 13.9365 3.70898Z" fill="#E38A00"/>
<path d="M8.00017 11.7261C6.56142 11.7261 5.53392 10.9761 5.22517 10.5086C5.10892 10.3573 5.08517 10.1548 5.16267 9.98108C5.22142 9.86983 5.33767 9.80108 5.46392 9.80483C5.51017 9.80483 5.55642 9.81233 5.60017 9.82608C6.37892 10.0611 7.18767 10.1786 8.00017 10.1736C8.81267 10.1786 9.62267 10.0611 10.4002 9.82608C10.4439 9.81233 10.4902 9.80483 10.5364 9.80483C10.6627 9.80108 10.7789 9.86983 10.8377 9.98108C10.9152 10.1548 10.8914 10.3573 10.7752 10.5086C10.4664 10.9786 9.43892 11.7261 8.00017 11.7261Z" fill="#422B0D"/>
<path d="M15.5001 5.67727C15.5001 5.67727 14.9676 5.68852 14.9676 6.11477C14.9676 7.16727 14.9801 9.42602 12.2176 9.42602C10.0101 9.42602 8.95637 8.28602 8.77887 7.02727C8.70637 6.50352 8.52887 5.93352 7.99512 5.93352C7.46137 5.93352 7.28887 6.49977 7.21637 7.02727C7.03887 8.28602 5.98512 9.42602 3.77762 9.42602C1.02012 9.42602 1.02762 7.16727 1.02762 6.11477C1.02762 5.68852 0.495117 5.67727 0.495117 5.67727V4.63477C1.35137 4.52227 2.21387 4.46977 3.07637 4.47727C4.63637 4.47727 5.25762 4.47727 6.49887 4.60227C7.23262 4.67477 7.99887 4.68352 7.99887 4.68352C7.99887 4.68352 8.76137 4.67477 9.49887 4.60227C10.7401 4.47727 11.3614 4.47727 12.9214 4.47727C13.7839 4.46977 14.6451 4.52352 15.5001 4.63477V5.67727Z" fill="#422B0D"/>
<path d="M2.63993 6.49985C2.62743 6.69985 2.54743 6.88485 2.35118 6.92235C2.32868 6.9261 2.30743 6.9286 2.28493 6.9286C2.10868 6.92735 1.95743 6.79985 1.92993 6.62485C1.85368 6.27985 1.93743 5.9186 2.15743 5.64235C2.35993 5.39735 2.66243 5.2561 2.97993 5.25735C3.16868 5.23985 3.33618 5.3786 3.35368 5.56735C3.35368 5.5711 3.35493 5.57485 3.35493 5.57985C3.35493 5.81485 3.16743 5.91485 2.97993 5.97985C2.77493 6.07235 2.64243 6.27485 2.63993 6.49985Z" fill="#896024"/>
<path d="M10.5877 6.49985C10.5765 6.69985 10.4952 6.88485 10.3002 6.92235C10.2777 6.9261 10.2552 6.9286 10.2327 6.9286C10.0552 6.9286 9.90399 6.79985 9.87524 6.62485C9.79899 6.27985 9.88274 5.9186 10.1027 5.64235C10.3065 5.39735 10.6077 5.2561 10.9265 5.25735C11.1152 5.23985 11.2827 5.3786 11.3002 5.56735C11.3002 5.5711 11.3015 5.57485 11.3015 5.57985C11.3015 5.81485 11.114 5.91485 10.9265 5.97985C10.7227 6.07235 10.5902 6.27485 10.5877 6.49985Z" fill="#896024"/>
<defs>
<radialGradient id="paint0_radial_1982_39097" cx="0" cy="0" r="1" gradientUnits="userSpaceOnUse" gradientTransform="translate(7.9502 7.8625) scale(7.11996)">
<stop stop-color="#FFDE1E"/>
<stop offset="0.53" stop-color="#FFDD16"/>
<stop offset="0.795" stop-color="#FEC114"/>
<stop offset="0.955" stop-color="#FEA311"/>
<stop offset="1" stop-color="#F49400"/>
</radialGradient>
</defs>
</svg>
