<svg width="16" height="16" viewBox="0 0 16 16" fill="none" xmlns="http://www.w3.org/2000/svg">
<rect width="16" height="16" fill="white"/>
<path fill-rule="evenodd" clip-rule="evenodd" d="M13.8047 3.13661C14.0651 2.87626 14.0651 2.45415 13.8047 2.1938C13.5444 1.93345 13.1222 1.93345 12.8619 2.1938L7.99918 7.05652L3.1381 2.19543C2.87775 1.93508 2.45564 1.93508 2.19529 2.19543C1.93494 2.45578 1.93494 2.87789 2.19529 3.13824L7.05637 7.99932L2.19526 12.8604C1.93491 13.1208 1.93491 13.5429 2.19526 13.8032C2.45561 14.0636 2.87772 14.0636 3.13807 13.8032L7.99918 8.94213L12.8619 13.8049C13.1223 14.0652 13.5444 14.0652 13.8047 13.8049C14.0651 13.5445 14.0651 13.1224 13.8047 12.8621L8.94199 7.99932L13.8047 3.13661Z" fill="#555555"/>
</svg>
