<svg width="20" height="20" viewBox="0 0 20 20" fill="none" xmlns="http://www.w3.org/2000/svg">
<path fill-rule="evenodd" clip-rule="evenodd" d="M2.30819 3H17.6918C17.8605 3 18 3.13629 18 3.30112V14.0019C18 14.1698 17.8605 14.303 17.6918 14.303H8.02758L4.3163 17.2222V14.303H2.30819C2.13625 14.303 2 14.1667 2 14.0019V3.30112C2 3.13313 2.13625 3 2.30819 3ZM6.05712 9.81771C6.59581 9.81771 7.0333 9.39025 7.0333 8.86393C7.0333 8.33761 6.59581 7.91016 6.05712 7.91016C5.51843 7.91016 5.08093 8.33761 5.08093 8.86393C5.08093 9.39025 5.51843 9.81771 6.05712 9.81771ZM10.0036 9.81771C10.5423 9.81771 10.9798 9.39025 10.9798 8.86393C10.9798 8.33761 10.5423 7.91016 10.0036 7.91016C9.46494 7.91016 9.02744 8.33761 9.02744 8.86393C9.02744 9.39025 9.46494 9.81771 10.0036 9.81771ZM14.9236 8.86393C14.9236 9.39025 14.4861 9.81771 13.9474 9.81771C13.4087 9.81771 12.9712 9.39025 12.9712 8.86393C12.9712 8.33761 13.4087 7.91016 13.9474 7.91016C14.4861 7.91016 14.9236 8.33761 14.9236 8.86393Z" fill="#C8C8C8"/>
</svg>
