<svg width="20" height="21" viewBox="0 0 20 21" fill="none" xmlns="http://www.w3.org/2000/svg">
<path d="M17.0783 11.5355L16.7553 11.3622C16.3709 11.1564 16.1412 10.787 16.1412 10.3748C16.1412 9.96265 16.3709 9.59323 16.7553 9.38743L17.0783 9.21412C17.9601 8.74095 18.2616 7.69654 17.7526 6.87789L17.1385 5.89049C16.6306 5.07355 15.5013 4.79307 14.6219 5.26453L14.2989 5.43727C13.9145 5.64364 13.4546 5.64364 13.0707 5.43727C12.6863 5.2309 12.4567 4.86205 12.4567 4.44987V4.10383C12.4567 3.1609 11.6301 2.39355 10.6144 2.39355H9.38622C8.37052 2.39355 7.54395 3.1609 7.54395 4.10383V4.45044C7.54395 4.86262 7.31428 5.23147 6.92987 5.43784C6.54545 5.64364 6.08611 5.64421 5.70169 5.43784L5.37868 5.26453C4.4993 4.79307 3.37 5.07355 2.86153 5.89049L2.24744 6.87789C1.73836 7.69654 2.03988 8.74152 2.92171 9.21412L3.24534 9.38743C3.62976 9.59323 3.85942 9.96265 3.85942 10.3748C3.85942 10.787 3.62976 11.1564 3.24534 11.3622L2.92233 11.5355C2.0405 12.0081 1.73898 13.0531 2.24806 13.8718L2.86215 14.8592C3.37061 15.6761 4.49992 15.9566 5.37868 15.4851L5.70169 15.3124C6.08611 15.1054 6.54545 15.1066 6.92987 15.3124C7.31428 15.5188 7.54395 15.8876 7.54395 16.2998V16.6458C7.54395 17.5888 8.37052 18.3561 9.38622 18.3561H10.6144C11.6301 18.3561 12.4567 17.5888 12.4567 16.6458V16.2992C12.4567 15.887 12.6863 15.5182 13.0707 15.3118C13.4546 15.106 13.9145 15.1054 14.2989 15.3118L14.6219 15.4851C15.5013 15.956 16.6306 15.6755 17.1385 14.8592L17.7526 13.8718C18.2616 13.0531 17.9601 12.0081 17.0783 11.5355ZM10.0003 13.2253C8.30727 13.2253 6.92987 11.9466 6.92987 10.3748C6.92987 8.80309 8.30727 7.52437 10.0003 7.52437C11.6933 7.52437 13.0707 8.80309 13.0707 10.3748C13.0707 11.9466 11.6933 13.2253 10.0003 13.2253Z" fill="#C8C8C8"/>
</svg>
