<svg width="16" height="16" viewBox="0 0 16 16" fill="none" xmlns="http://www.w3.org/2000/svg">
<path fill-rule="evenodd" clip-rule="evenodd" d="M9.72994 0.137784C9.54616 -0.0459284 9.2482 -0.0459279 9.06443 0.137785L2.66297 6.53705L2.66292 6.5371L2.66284 6.53718C2.65104 6.54897 2.64 6.56124 2.62971 6.57392L0.713155 8.4898C0.698827 8.50111 0.6851 8.51331 0.67206 8.52634C-0.224605 9.4227 -0.223081 10.8745 0.670999 11.774L0.672059 11.7751L4.22443 15.3263C4.70805 15.8097 5.35332 16.032 5.98636 15.9939V15.9998H15.2144V15.0586H7.74209L9.46513 13.3362C9.47698 13.3243 9.48806 13.312 9.49837 13.2993L15.8623 6.93304C16.046 6.74931 16.0459 6.45154 15.8622 6.26787L9.72994 0.137784ZM2.99729 7.53704L8.46422 13.0062L6.80987 14.6599L6.80935 14.6604C6.27538 15.1903 5.41772 15.1886 4.88995 14.661L1.33863 11.1109L1.33816 11.1104C0.818804 10.5874 0.809935 9.7537 1.30626 9.22396C1.3187 9.21385 1.33067 9.20306 1.34211 9.19163L2.99729 7.53704ZM9.13057 12.3362L14.864 6.60063L9.39718 1.13571L3.66375 6.86717L9.13057 12.3362Z" fill="#DA6CDB"/>
</svg>
