<svg width="16" height="16" viewBox="0 0 16 16" fill="none" xmlns="http://www.w3.org/2000/svg">
<path d="M5.49661 8.00083C5.49661 9.35883 4.38295 10.4685 2.99831 10.4685C1.61367 10.4685 0.5 9.35883 0.5 8.00083C0.5 6.64283 1.61367 5.5332 2.99831 5.5332C4.38295 5.5332 5.49661 6.64283 5.49661 8.00083Z" stroke="#555555"/>
<path d="M15.5 2.96763C15.5 4.32563 14.3864 5.43526 13.0017 5.43526C11.6171 5.43526 10.5034 4.32563 10.5034 2.96763C10.5034 1.60963 11.6171 0.5 13.0017 0.5C14.3864 0.5 15.5 1.60963 15.5 2.96763Z" stroke="#555555"/>
<path d="M15.5 13.0321C15.5 14.3901 14.3864 15.4997 13.0017 15.4997C11.6171 15.4997 10.5034 14.3901 10.5034 13.0321C10.5034 11.6741 11.6171 10.5645 13.0017 10.5645C14.3864 10.5645 15.5 11.6741 15.5 13.0321Z" stroke="#555555"/>
<path fill-rule="evenodd" clip-rule="evenodd" d="M10.9986 4.16221L5.39378 7.03549L5.01479 6.10788L10.6196 3.23459L10.9986 4.16221Z" fill="#555555"/>
<path fill-rule="evenodd" clip-rule="evenodd" d="M10.6548 13.0929L4.80737 9.91015L5.20287 8.97669L11.0503 12.1595L10.6548 13.0929Z" fill="#555555"/>
</svg>
