<svg width="16" height="16" viewBox="0 0 16 16" fill="none" xmlns="http://www.w3.org/2000/svg">
<path fill-rule="evenodd" clip-rule="evenodd" d="M10.4055 9.69212L14 5.84582L10.4055 1.99951L9.63899 2.8197L11.9171 5.25741H6.39913C5.18546 5.25741 4.15251 5.67698 3.28752 6.51599C2.42698 7.35069 2 8.38254 2 9.62846C2 10.8744 2.42698 11.9062 3.28752 12.7409C4.15251 13.5799 5.18546 13.9995 6.39913 13.9995H11.7409V12.8227H6.39913C5.51957 12.8227 4.74779 12.522 4.09498 11.9211C3.43546 11.314 3.09978 10.5444 3.09978 9.62846C3.09978 8.71255 3.43546 7.94289 4.09498 7.33581C4.74779 6.73491 5.51957 6.43423 6.39913 6.43423H11.9171L9.63899 8.87193L10.4055 9.69212Z" fill="#C8C8C8"/>
</svg>
