<svg width="20" height="20" viewBox="0 0 20 20" fill="none" xmlns="http://www.w3.org/2000/svg">
<path fill-rule="evenodd" clip-rule="evenodd" d="M1.04166 18.125C1.04166 17.7798 1.32149 17.5 1.66666 17.5L18.3333 17.5C18.6785 17.5 18.9583 17.7798 18.9583 18.125C18.9583 18.4702 18.6785 18.75 18.3333 18.75L1.66666 18.75C1.32149 18.75 1.04166 18.4702 1.04166 18.125Z" fill="#C8C8C8"/>
<path fill-rule="evenodd" clip-rule="evenodd" d="M6.66667 10.833H13.3333C14.9047 10.833 15.6904 10.833 16.1785 11.2723C16.6667 11.7117 16.6667 12.4188 16.6667 13.833V17.4997H10.625V15.833C10.625 15.4878 10.3452 15.208 10 15.208C9.65482 15.208 9.375 15.4878 9.375 15.833V17.4997H3.33334V13.833C3.33334 12.4188 3.33334 11.7117 3.82149 11.2723C4.30965 10.833 5.09532 10.833 6.66667 10.833ZM5.83334 12.708C5.48816 12.708 5.20834 12.9878 5.20834 13.333C5.20834 13.6782 5.48816 13.958 5.83334 13.958H7.5C7.84518 13.958 8.125 13.6782 8.125 13.333C8.125 12.9878 7.84518 12.708 7.5 12.708H5.83334ZM12.5 12.708C12.1548 12.708 11.875 12.9878 11.875 13.333C11.875 13.6782 12.1548 13.958 12.5 13.958H14.1667C14.5118 13.958 14.7917 13.6782 14.7917 13.333C14.7917 12.9878 14.5118 12.708 14.1667 12.708H12.5ZM5.83334 15.208C5.48816 15.208 5.20834 15.4878 5.20834 15.833C5.20834 16.1782 5.48816 16.458 5.83334 16.458H7.5C7.84518 16.458 8.125 16.1782 8.125 15.833C8.125 15.4878 7.84518 15.208 7.5 15.208H5.83334ZM12.5 15.208C12.1548 15.208 11.875 15.4878 11.875 15.833C11.875 16.1782 12.1548 16.458 12.5 16.458H14.1667C14.5118 16.458 14.7917 16.1782 14.7917 15.833C14.7917 15.4878 14.5118 15.208 14.1667 15.208H12.5Z" fill="#C8C8C8"/>
<path fill-rule="evenodd" clip-rule="evenodd" d="M10.414 1.2024C10.3905 0.99454 10.2141 0.833008 10 0.833008C9.76988 0.833008 9.58333 1.01956 9.58333 1.24967V4.24729C9.46825 4.29384 9.35931 4.36049 9.26182 4.44721L7.03959 6.05339C6.80238 6.26441 6.66666 6.56686 6.66666 6.88448V9.99967H13.3333V6.88448C13.3333 6.56686 13.1976 6.26441 12.9604 6.05339L10.7382 4.44721C10.6407 4.36049 10.5317 4.29384 10.4167 4.24729V3.52874L10.499 3.51722C10.7384 3.4837 10.9859 3.50009 11.2082 3.56232C11.5718 3.66415 11.9677 3.6825 12.3436 3.61671L12.3819 3.61001C12.5839 3.57466 12.9167 3.40572 12.9167 3.0293V2.10843C12.9167 1.85528 12.7479 1.6959 12.6174 1.62459C12.4809 1.54997 12.318 1.5252 12.162 1.5525C11.9306 1.59298 11.6868 1.58094 11.4692 1.52003L11.4329 1.50985C11.1835 1.44004 10.919 1.40944 10.6561 1.41835C10.576 1.42107 10.496 1.42745 10.4167 1.4375V1.24967C10.4167 1.23369 10.4158 1.21792 10.414 1.2024ZM11.25 7.49967C11.25 8.19003 10.6904 8.74967 10 8.74967C9.30964 8.74967 8.75 8.19003 8.75 7.49967C8.75 6.80932 9.30964 6.24967 10 6.24967C10.6904 6.24967 11.25 6.80932 11.25 7.49967Z" fill="#C8C8C8"/>
</svg>
