<svg width="18" height="18" viewBox="0 0 18 18" fill="none" xmlns="http://www.w3.org/2000/svg">
<path id="Exclude" fill-rule="evenodd" clip-rule="evenodd" d="M0.666626 8.99935C0.666626 13.6017 4.39759 17.3327 8.99996 17.3327C10.333 17.3327 11.593 17.0197 12.7104 16.4631C13.0073 16.3152 13.3467 16.266 13.6671 16.3518L15.5222 16.8481C16.3274 17.0636 17.0642 16.3268 16.8487 15.5216L16.3524 13.6665C16.2666 13.3461 16.3158 13.0067 16.4637 12.7097C17.0203 11.5924 17.3333 10.3324 17.3333 8.99935C17.3333 4.39698 13.6023 0.666016 8.99996 0.666016C4.39759 0.666016 0.666626 4.39698 0.666626 8.99935ZM8.06246 6.39518C8.06246 5.87741 8.48219 5.45768 8.99996 5.45768C9.51773 5.45768 9.93746 5.87741 9.93746 6.39518C9.93746 6.73814 9.75366 7.03884 9.47618 7.20301C9.24404 7.34035 8.98215 7.52937 8.77212 7.77686C8.55952 8.02738 8.37496 8.36944 8.37496 8.79102V9.83268C8.37496 10.1779 8.65478 10.4577 8.99996 10.4577C9.34514 10.4577 9.62496 10.1779 9.62496 9.83268V8.79102C9.62496 8.75235 9.63958 8.68654 9.72519 8.58566C9.81337 8.48174 9.94872 8.37582 10.1127 8.27882C10.7547 7.89899 11.1875 7.19796 11.1875 6.39518C11.1875 5.18706 10.2081 4.20768 8.99996 4.20768C7.79184 4.20768 6.81246 5.18706 6.81246 6.39518C6.81246 6.74036 7.09228 7.02018 7.43746 7.02018C7.78264 7.02018 8.06246 6.74036 8.06246 6.39518ZM8.99996 13.166C9.4602 13.166 9.83329 12.7929 9.83329 12.3327C9.83329 11.8724 9.4602 11.4993 8.99996 11.4993C8.53972 11.4993 8.16663 11.8724 8.16663 12.3327C8.16663 12.7929 8.53972 13.166 8.99996 13.166Z" fill="#555555"/>
</svg>
