<svg width="20" height="20" viewBox="0 0 20 20" fill="none" xmlns="http://www.w3.org/2000/svg">
<path fill-rule="evenodd" clip-rule="evenodd" d="M13.0995 8.35252C13.0995 11.0443 10.9388 13.205 8.29971 13.205C5.66063 13.205 3.49993 11.0443 3.49993 8.35252C3.49993 5.66073 5.66063 3.5 8.29971 3.5C10.9388 3.5 13.0995 5.66073 13.0995 8.35252ZM12.2697 13.2852C11.1862 14.173 9.80458 14.705 8.29971 14.705C4.82043 14.705 1.99993 11.8609 1.99993 8.35252C1.99993 4.84412 4.82043 2 8.29971 2C11.779 2 14.5995 4.84412 14.5995 8.35252C14.5995 9.80062 14.119 11.1356 13.31 12.204L18.5281 17.4658C18.8197 17.7599 18.8197 18.2368 18.5281 18.5309C18.2364 18.825 17.7635 18.825 17.4718 18.5309L12.2697 13.2852ZM5.4998 7.60547C5.08559 7.60547 4.7498 7.94126 4.7498 8.35547C4.7498 8.76968 5.08559 9.10547 5.4998 9.10547L7.54985 9.10547L7.54985 11.1779C7.54985 11.5921 7.88564 11.9279 8.29985 11.9279C8.71407 11.9279 9.04985 11.5921 9.04985 11.1779L9.04985 9.10547H11.0996C11.5138 9.10547 11.8496 8.76968 11.8496 8.35547C11.8496 7.94126 11.5138 7.60547 11.0996 7.60547H9.04985V5.53125C9.04985 5.11704 8.71407 4.78125 8.29985 4.78125C7.88564 4.78125 7.54985 5.11704 7.54985 5.53125V7.60547L5.4998 7.60547Z" fill="#C8C8C8"/>
</svg>
