<svg width="16" height="16" viewBox="0 0 16 16" fill="none" xmlns="http://www.w3.org/2000/svg">
<path fill-rule="evenodd" clip-rule="evenodd" d="M10.4055 9.69261L14 5.8463L10.4055 2L9.63899 2.82019L11.9171 5.25789H6.39913C5.18546 5.25789 4.15251 5.67746 3.28752 6.51648C2.42698 7.35118 2 8.38303 2 9.62895C2 10.8749 2.42698 11.9067 3.28752 12.7414C4.15251 13.5804 5.18546 14 6.39913 14H11.7409V12.8232H6.39913C5.51957 12.8232 4.74779 12.5225 4.09498 11.9216C3.43546 11.3145 3.09978 10.5449 3.09978 9.62895C3.09978 8.71304 3.43546 7.94337 4.09498 7.3363C4.74779 6.7354 5.51957 6.43472 6.39913 6.43472H11.9171L9.63899 8.87242L10.4055 9.69261Z" fill="#DA6CDB"/>
</svg>
