<svg width="16" height="20" viewBox="0 0 16 20" fill="none" xmlns="http://www.w3.org/2000/svg">
<path d="M7.78711 16.4746C4.02539 16.4746 0.949219 13.416 0.949219 9.63672C0.949219 5.85742 4.02539 2.79883 7.78711 2.79883C11.5664 2.79883 14.6426 5.85742 14.6426 9.63672C14.6426 13.416 11.5664 16.4746 7.78711 16.4746ZM7.78711 15.4023C10.9688 15.4023 13.5527 12.8184 13.5527 9.63672C13.5527 6.45508 10.9688 3.87109 7.78711 3.87109C4.62305 3.87109 2.02148 6.45508 2.02148 9.63672C2.02148 12.8184 4.62305 15.4023 7.78711 15.4023ZM8.75391 6.49023V12.8008H7.73438V7.45703H7.69922L6.25781 8.38867V7.47461L7.78711 6.49023H8.75391Z" fill="#555555"/>
</svg>
