<svg width="20" height="20" viewBox="0 0 20 20" fill="none" xmlns="http://www.w3.org/2000/svg">
<g id="courseware_icon" clip-path="url(#clip0_4075_187938)">
<path id="Vector" d="M18.3334 8.75008V10.0001C18.3334 13.9285 18.3334 15.8926 17.113 17.113C15.8926 18.3334 13.9285 18.3334 10.0001 18.3334C6.07171 18.3334 4.10752 18.3334 2.88714 17.113C1.66675 15.8926 1.66675 13.9285 1.66675 10.0001C1.66675 6.07171 1.66675 4.10752 2.88714 2.88714C4.10752 1.66675 6.07171 1.66675 10.0001 1.66675H11.2501" stroke="#0078B8" stroke-width="1.5" stroke-linecap="round"/>
<path id="Vector_2" d="M13.8768 2.8793L14.4175 2.33862C15.3133 1.44279 16.7657 1.44279 17.6615 2.33862C18.5574 3.23445 18.5574 4.68687 17.6615 5.5827L17.1209 6.12338M13.8768 2.8793C13.8768 2.8793 13.9444 4.02824 14.9581 5.04202C15.9719 6.05579 17.1209 6.12338 17.1209 6.12338M13.8768 2.8793L8.90606 7.85002C8.56938 8.1867 8.40105 8.35504 8.25627 8.54065C8.08549 8.7596 7.93908 8.99651 7.81961 9.24718C7.71834 9.45968 7.64306 9.68553 7.49249 10.1372L7.01043 11.5834M17.1209 6.12338L12.1501 11.0941C11.8135 11.4308 11.6451 11.5991 11.4595 11.7439C11.2406 11.9147 11.0037 12.0611 10.753 12.1805C10.5405 12.2818 10.3146 12.3571 9.86294 12.5077L8.41675 12.9897M8.41675 12.9897L7.48099 13.3017C7.2587 13.3757 7.01363 13.3179 6.84795 13.1522C6.68227 12.9865 6.62441 12.7415 6.69851 12.5192L7.01043 11.5834M8.41675 12.9897L7.01043 11.5834" stroke="#0078B8" stroke-width="1.5"/>
</g>
<defs>
<clipPath id="clip0_4075_187938">
<rect width="20" height="20" fill="white"/>
</clipPath>
</defs>
</svg>
