<svg width="16" height="16" viewBox="0 0 16 16" fill="none" xmlns="http://www.w3.org/2000/svg">
<path d="M7.9502 14.85C4.4627 14.85 0.700195 12.6625 0.700195 7.8625C0.700195 3.0625 4.4627 0.875 7.9502 0.875C9.8877 0.875 11.6752 1.5125 13.0002 2.675C14.4377 3.95 15.2002 5.75 15.2002 7.8625C15.2002 9.975 14.4377 11.7625 13.0002 13.0375C11.6752 14.2 9.8752 14.85 7.9502 14.85Z" fill="url(#paint0_radial_1982_39095)"/>
<path d="M13.9365 3.70898C14.6027 4.78398 14.9502 6.06398 14.9502 7.48773C14.9502 9.60023 14.1877 11.3877 12.7502 12.6627C11.4252 13.8252 9.62523 14.4752 7.70023 14.4752C5.44273 14.4752 3.07023 13.5565 1.67773 11.6077C3.02273 13.8152 5.55148 14.8502 7.95023 14.8502C9.87523 14.8502 11.6752 14.2002 13.0002 13.0377C14.4377 11.7627 15.2002 9.97523 15.2002 7.86273C15.2002 6.27023 14.7665 4.85523 13.9365 3.70898Z" fill="#E38A00"/>
<path opacity="0.8" d="M3.40625 11.166C4.61437 11.166 5.59375 10.1866 5.59375 8.97852C5.59375 7.77039 4.61437 6.79102 3.40625 6.79102C2.19813 6.79102 1.21875 7.77039 1.21875 8.97852C1.21875 10.1866 2.19813 11.166 3.40625 11.166Z" fill="url(#paint1_radial_1982_39095)"/>
<path opacity="0.8" d="M12.5938 11.166C13.8019 11.166 14.7812 10.1866 14.7812 8.97852C14.7812 7.77039 13.8019 6.79102 12.5938 6.79102C11.3856 6.79102 10.4062 7.77039 10.4062 8.97852C10.4062 10.1866 11.3856 11.166 12.5938 11.166Z" fill="url(#paint2_radial_1982_39095)"/>
<path d="M6.11993 7.11152C6.11993 7.11152 6.11368 7.10277 6.09993 7.08652C6.08743 7.07027 6.06993 7.04777 6.04743 7.01902C6.02868 6.99902 6.00618 6.97527 5.97993 6.94777C5.95368 6.91777 5.92118 6.88652 5.88868 6.85402C5.85493 6.82277 5.81993 6.79027 5.78368 6.76402C5.74868 6.73527 5.70993 6.71402 5.67868 6.69652C5.64618 6.67652 5.61618 6.67152 5.59743 6.66527C5.58743 6.66152 5.57868 6.66152 5.57118 6.66027C5.56743 6.66152 5.56368 6.65902 5.55993 6.66027L5.55493 6.66152H5.55243H5.55118C5.56618 6.66152 5.51743 6.66277 5.58493 6.66027L5.51618 6.66277C5.49868 6.66277 5.50993 6.66402 5.51118 6.66402C5.51493 6.66402 5.51743 6.66402 5.51993 6.66277C5.52993 6.65902 5.51993 6.66277 5.51743 6.66277C5.51368 6.66277 5.50868 6.66402 5.50368 6.66652C5.48368 6.67277 5.45368 6.67777 5.42243 6.69777C5.39118 6.71527 5.35243 6.73652 5.31743 6.76527C5.28243 6.79277 5.24618 6.82402 5.21243 6.85527C5.14743 6.91902 5.08993 6.98277 5.04993 7.02902C5.00868 7.07652 4.98618 7.10402 4.98618 7.10402L4.95743 7.13777C4.78618 7.33777 4.47118 7.37152 4.25493 7.21402C4.10743 7.10652 4.04368 6.93902 4.07118 6.77902C4.07118 6.77902 4.07993 6.72777 4.10493 6.63902C4.13118 6.55027 4.17493 6.42402 4.26118 6.27527C4.34743 6.12777 4.47243 5.95402 4.68368 5.79527C4.78743 5.71777 4.91368 5.64027 5.06368 5.58777C5.09993 5.57402 5.13868 5.56152 5.17868 5.55152C5.21993 5.54152 5.25243 5.53027 5.30868 5.52277L5.38618 5.51152C5.40993 5.50902 5.44493 5.50527 5.44993 5.50527L5.51868 5.50027L5.55743 5.49902H5.56118H5.56868L5.58493 5.50027H5.61493L5.67868 5.50402C5.72118 5.50777 5.76243 5.51527 5.80368 5.52152C5.88493 5.53652 5.96618 5.55777 6.03993 5.58527C6.18993 5.63777 6.31618 5.71402 6.41993 5.79277C6.63118 5.95152 6.75618 6.12527 6.84243 6.27277C6.88618 6.34652 6.91868 6.41652 6.94243 6.47777C6.96868 6.53652 6.98743 6.59902 7.00243 6.64527C7.01618 6.69027 7.01618 6.71402 7.02243 6.73527C7.02618 6.75527 7.02743 6.76652 7.02743 6.76652C7.07368 7.01902 6.88743 7.25777 6.61368 7.29902C6.41743 7.33027 6.22868 7.25152 6.11993 7.11152Z" fill="#422B0D"/>
<path d="M11.0572 7.11152C11.0572 7.11152 11.051 7.10277 11.0372 7.08652C11.0247 7.07027 11.0072 7.04777 10.9847 7.01902C10.966 6.99902 10.9435 6.97527 10.9172 6.94777C10.891 6.91777 10.8585 6.88652 10.826 6.85402C10.7922 6.82277 10.7572 6.79027 10.721 6.76402C10.686 6.73527 10.6472 6.71402 10.616 6.69652C10.5835 6.67652 10.5535 6.67152 10.5347 6.66527C10.5247 6.66152 10.516 6.66152 10.5085 6.66027C10.5047 6.66152 10.501 6.65902 10.4972 6.66027L10.4922 6.66152H10.4897H10.4885H10.4872C10.5022 6.66152 10.4535 6.66277 10.521 6.66027L10.4522 6.66277C10.4347 6.66277 10.446 6.66402 10.4472 6.66402C10.451 6.66402 10.4535 6.66402 10.456 6.66277C10.466 6.65902 10.456 6.66277 10.4535 6.66277C10.4497 6.66277 10.4447 6.66402 10.4397 6.66652C10.4197 6.67277 10.3897 6.67777 10.3585 6.69777C10.3272 6.71527 10.2885 6.73652 10.2535 6.76527C10.2185 6.79277 10.1822 6.82402 10.1485 6.85527C10.0835 6.91902 10.026 6.98277 9.98597 7.02902C9.94472 7.07652 9.92222 7.10402 9.92222 7.10402L9.89347 7.13777C9.72222 7.33777 9.40722 7.37152 9.19097 7.21402C9.04347 7.10652 8.97972 6.93902 9.00722 6.77902C9.00722 6.77902 9.01597 6.72777 9.04097 6.63902C9.06722 6.55027 9.11097 6.42402 9.19722 6.27527C9.28347 6.12777 9.40847 5.95402 9.61972 5.79527C9.72347 5.71777 9.84972 5.64027 9.99972 5.58777C10.036 5.57402 10.0747 5.56152 10.1147 5.55152C10.156 5.54152 10.1885 5.53027 10.2447 5.52277L10.3222 5.51152C10.346 5.50902 10.381 5.50527 10.386 5.50527L10.4547 5.50027L10.4935 5.49902H10.4972H10.5047L10.521 5.50027H10.551L10.6147 5.50402C10.6572 5.50777 10.6985 5.51527 10.7397 5.52152C10.821 5.53652 10.9022 5.55777 10.976 5.58527C11.126 5.63777 11.2522 5.71402 11.356 5.79277C11.5672 5.95152 11.6922 6.12527 11.7785 6.27277C11.8222 6.34652 11.8547 6.41652 11.8785 6.47777C11.9047 6.53652 11.9235 6.59902 11.9385 6.64527C11.9522 6.69027 11.9522 6.71402 11.9585 6.73527C11.9622 6.75527 11.9635 6.76652 11.9635 6.76652C12.0097 7.01902 11.8235 7.25777 11.5497 7.29902C11.3535 7.33027 11.1647 7.25152 11.0572 7.11152Z" fill="#422B0D"/>
<path d="M8.00229 11.7486C6.43104 11.7486 5.18854 11.0049 4.50354 10.2086C4.43479 10.1286 4.41854 10.0211 4.46229 9.92738C4.50604 9.83113 4.60104 9.76863 4.70354 9.76863C4.74979 9.76863 4.79729 9.78113 4.83854 9.80488C5.54479 10.2124 6.73104 10.7161 7.99854 10.7161H8.01854C9.28729 10.7161 10.4723 10.2111 11.1785 9.80488C11.221 9.78113 11.2673 9.76738 11.3135 9.76863C11.416 9.76863 11.511 9.83113 11.5548 9.92738C11.5973 10.0211 11.5823 10.1299 11.5135 10.2086C10.8285 11.0036 9.58479 11.7486 8.01479 11.7486" fill="#422B0D"/>
<defs>
<radialGradient id="paint0_radial_1982_39095" cx="0" cy="0" r="1" gradientUnits="userSpaceOnUse" gradientTransform="translate(7.9502 7.8625) scale(7.11996)">
<stop stop-color="#FFDE1E"/>
<stop offset="0.53" stop-color="#FFDD16"/>
<stop offset="0.795" stop-color="#FEC114"/>
<stop offset="0.955" stop-color="#FEA311"/>
<stop offset="1" stop-color="#F49400"/>
</radialGradient>
<radialGradient id="paint1_radial_1982_39095" cx="0" cy="0" r="1" gradientUnits="userSpaceOnUse" gradientTransform="translate(3.40632 8.97835) scale(2.37975 2.26065)">
<stop stop-color="#FF4D26"/>
<stop offset="0.9" stop-color="#FF4D26" stop-opacity="0"/>
</radialGradient>
<radialGradient id="paint2_radial_1982_39095" cx="0" cy="0" r="1" gradientUnits="userSpaceOnUse" gradientTransform="translate(12.5938 8.97835) scale(2.37975 2.26065)">
<stop stop-color="#FF4D26"/>
<stop offset="0.9" stop-color="#FF4D26" stop-opacity="0"/>
</radialGradient>
</defs>
</svg>
