<svg width="16" height="16" viewBox="0 0 16 16" fill="none" xmlns="http://www.w3.org/2000/svg">
<path fill-rule="evenodd" clip-rule="evenodd" d="M8.00004 14.6666C11.6819 14.6666 14.6667 11.6818 14.6667 7.99992C14.6667 4.31802 11.6819 1.33325 8.00004 1.33325C4.31814 1.33325 1.33337 4.31802 1.33337 7.99992C1.33337 11.6818 4.31814 14.6666 8.00004 14.6666ZM8.68411 6.18323C8.52594 6.07215 8.3468 5.95726 8.16133 5.84448C7.44639 5.40972 7.08893 5.19234 6.76832 5.43301C6.44771 5.67369 6.41857 6.17752 6.36029 7.18518C6.34381 7.47015 6.33337 7.74951 6.33337 7.99995C6.33337 8.25039 6.34381 8.52975 6.36029 8.81472C6.41857 9.82238 6.44771 10.3262 6.76832 10.5669C7.08893 10.8076 7.44639 10.5902 8.16133 10.1554C8.3468 10.0426 8.52594 9.92774 8.68411 9.81667C8.86441 9.69006 9.06062 9.53812 9.25845 9.37675C9.97506 8.79216 10.3334 8.49987 10.3334 7.99995C10.3334 7.50003 9.97507 7.20774 9.25845 6.62315C9.06062 6.46177 8.86441 6.30984 8.68411 6.18323Z" fill="#0078B8"/>
</svg>
