<svg width="28" height="28" viewBox="0 0 28 28" fill="none" xmlns="http://www.w3.org/2000/svg">
<rect x="0.5" y="0.5" width="27" height="27" rx="13.5" stroke="#EBEBEB"/>
<path d="M19.9388 1.8762C20.0602 1.62831 20.3601 1.52499 20.6035 1.65519C22.1221 2.46755 23.4792 3.55389 24.6054 4.86073C25.8404 6.29389 26.7722 7.9625 27.3443 9.76579C27.9165 11.5691 28.1173 13.4696 27.9345 15.3527C27.7517 17.2357 27.1891 19.0622 26.2808 20.7217C25.3725 22.3813 24.1372 23.8396 22.6495 25.0084C21.1619 26.1773 19.4528 27.0325 17.6255 27.5224C15.7981 28.0124 13.8904 28.1268 12.0176 27.8589C10.3098 27.6147 8.66336 27.0571 7.16058 26.2157C6.91973 26.0808 6.84514 25.7725 6.9885 25.5367V25.5367C7.13186 25.3008 7.43885 25.2267 7.68007 25.3609C9.06714 26.1325 10.5851 26.6443 12.1591 26.8694C13.8982 27.1182 15.6697 27.0119 17.3666 26.5569C19.0635 26.102 20.6506 25.3078 22.032 24.2224C23.4134 23.137 24.5605 21.7829 25.404 20.2418C26.2474 18.7007 26.7698 17.0047 26.9396 15.2561C27.1093 13.5075 26.9229 11.7427 26.3916 10.0681C25.8602 8.39358 24.995 6.84411 23.8481 5.51328C22.8101 4.30877 21.5609 3.30598 20.1634 2.55348C19.9204 2.42262 19.8173 2.12409 19.9388 1.8762V1.8762Z" fill="#0078B8"/>
<mask id="mask0_6662_62865" style="mask-type:alpha" maskUnits="userSpaceOnUse" x="0" y="1" width="28" height="27">
<path d="M19.9388 1.8762C20.0602 1.62831 20.3601 1.52499 20.6035 1.65519C22.8922 2.87943 24.7986 4.71774 26.1057 6.96777C27.4965 9.36205 28.1462 12.115 27.9724 14.8785C27.7987 17.6419 26.8094 20.2918 25.1296 22.4931C23.4498 24.6943 21.155 26.348 18.5354 27.245C15.9158 28.142 13.089 28.2421 10.4126 27.5326C7.73607 26.823 5.33009 25.3358 3.49886 23.2588C1.66764 21.1819 0.49342 18.6086 0.124689 15.8643C-0.221826 13.2854 0.157641 10.6643 1.21551 8.29412C1.32802 8.04206 1.62828 7.93987 1.87617 8.0613C2.12406 8.18272 2.22564 8.48176 2.11383 8.73413C1.14252 10.9265 0.7952 13.3482 1.11539 15.7312C1.45779 18.2796 2.54817 20.6691 4.24865 22.5978C5.94912 24.5264 8.18331 25.9075 10.6687 26.5663C13.1541 27.2252 15.779 27.1323 18.2116 26.2993C20.6442 25.4663 22.7751 23.9307 24.3349 21.8867C25.8948 19.8426 26.8134 17.3819 26.9748 14.8157C27.1361 12.2496 26.5329 9.6932 25.2413 7.46987C24.0336 5.39081 22.2747 3.6903 20.1634 2.55348C19.9204 2.42262 19.8173 2.12409 19.9388 1.8762Z" fill="#0078B8"/>
</mask>
<g mask="url(#mask0_6662_62865)">
<rect x="-2.43567" y="8.5332" width="9" height="19.2197" transform="rotate(-8.23559 -2.43567 8.5332)" fill="url(#paint0_linear_6662_62865)"/>
</g>
<defs>
<linearGradient id="paint0_linear_6662_62865" x1="2.06433" y1="8.5332" x2="2.06433" y2="27.7529" gradientUnits="userSpaceOnUse">
<stop stop-color="#EBEBEB"/>
<stop offset="1" stop-color="#0078B8"/>
</linearGradient>
</defs>
</svg>
