<svg width="12" height="12" viewBox="0 0 12 12" fill="none" xmlns="http://www.w3.org/2000/svg">
<g id="courseware_icon">
<path id="Subtract" fill-rule="evenodd" clip-rule="evenodd" d="M5.99456 0.875H5.99956C7.76956 0.875 9.78456 1.915 10.3096 4.225C10.8946 6.805 9.31456 8.985 7.88456 10.36C7.35956 10.87 6.67956 11.125 5.99956 11.125C5.31956 11.125 4.63956 10.87 4.10956 10.36C2.67956 8.985 1.09956 6.8 1.68456 4.22C2.20956 1.91 4.22956 0.875 5.99456 0.875ZM4.4248 5.15502C4.4248 6.02487 5.12996 6.73002 5.9998 6.73002C6.86965 6.73002 7.5748 6.02487 7.5748 5.15502C7.5748 4.28517 6.86965 3.58002 5.9998 3.58002C5.12996 3.58002 4.4248 4.28517 4.4248 5.15502Z" fill="#0078B8"/>
</g>
</svg>
