<svg width="20" height="20" viewBox="0 0 20 20" fill="none" xmlns="http://www.w3.org/2000/svg">
<path d="M1.6665 10.0003C1.6665 6.07195 1.6665 4.10777 2.88689 2.88738C4.10728 1.66699 6.07147 1.66699 9.99984 1.66699C13.9282 1.66699 15.8924 1.66699 17.1128 2.88738C18.3332 4.10777 18.3332 6.07195 18.3332 10.0003C18.3332 13.9287 18.3332 15.8929 17.1128 17.1133C15.8924 18.3337 13.9282 18.3337 9.99984 18.3337C6.07147 18.3337 4.10728 18.3337 2.88689 17.1133C1.6665 15.8929 1.6665 13.9287 1.6665 10.0003Z" fill="#2C6FEE"/>
<path d="M10.9011 12.7029L10.6007 13.0032C9.60542 13.9985 7.99175 13.9985 6.99646 13.0032C6.00118 12.0079 6.00118 10.3943 6.99646 9.39899L7.29682 9.09863" stroke="white" stroke-width="1.5" stroke-linecap="round"/>
<path d="M9.09863 10.9008L10.9008 9.09863" stroke="white" stroke-width="1.5" stroke-linecap="round"/>
<path d="M9.09863 7.29682L9.39899 6.99646C10.3943 6.00118 12.0079 6.00118 13.0032 6.99646C13.9985 7.99175 13.9985 9.60542 13.0032 10.6007L12.7029 10.9011" stroke="white" stroke-width="1.5" stroke-linecap="round"/>
</svg>
