<svg width="12" height="12" viewBox="0 0 12 12" fill="none" xmlns="http://www.w3.org/2000/svg">
<path d="M7.64535 1.90387C7.57608 1.87685 7.50058 1.87 7.42758 1.8841C7.35458 1.8982 7.28707 1.93269 7.23285 1.98356L3.48285 5.73356C3.41243 5.80466 3.37292 5.90068 3.37292 6.00074C3.37292 6.10081 3.41243 6.19684 3.48285 6.26793L7.23285 10.0179C7.30483 10.0867 7.40046 10.1253 7.50003 10.1257C7.5498 10.1255 7.59909 10.116 7.64535 10.0976C7.7136 10.0689 7.77183 10.0207 7.8127 9.95895C7.85358 9.89723 7.87527 9.82478 7.87503 9.75074V2.25074C7.87527 2.17671 7.85358 2.10426 7.8127 2.04254C7.77183 1.98081 7.7136 1.93256 7.64535 1.90387Z" fill="#999999"/>
</svg>
