<svg width="16" height="16" viewBox="0 0 16 16" fill="none" xmlns="http://www.w3.org/2000/svg">
<g clip-path="url(#clip0_1982_39126)">
<path d="M7.9502 14.85C4.4627 14.85 0.700195 12.6625 0.700195 7.8625C0.700195 3.0625 4.4627 0.875 7.9502 0.875C9.8877 0.875 11.6752 1.5125 13.0002 2.675C14.4377 3.95 15.2002 5.75 15.2002 7.8625C15.2002 9.975 14.4377 11.7625 13.0002 13.0375C11.6752 14.2 9.8752 14.85 7.9502 14.85Z" fill="url(#paint0_radial_1982_39126)"/>
<path d="M13.9365 3.70898C14.6027 4.78398 14.9502 6.06398 14.9502 7.48773C14.9502 9.60023 14.1877 11.3877 12.7502 12.6627C11.4252 13.8252 9.62523 14.4752 7.70023 14.4752C5.44273 14.4752 3.07523 13.5565 1.67773 11.6077C3.02273 13.8152 5.55273 14.8502 7.95023 14.8502C9.87523 14.8502 11.6752 14.2002 13.0002 13.0377C14.4377 11.7627 15.2002 9.97523 15.2002 7.86273C15.2002 6.27023 14.7665 4.85523 13.9365 3.70898Z" fill="#E38A00"/>
<path d="M10.3206 8.89906C11.5246 8.89906 12.5006 7.92304 12.5006 6.71906C12.5006 5.51508 11.5246 4.53906 10.3206 4.53906C9.11664 4.53906 8.14062 5.51508 8.14062 6.71906C8.14062 7.92304 9.11664 8.89906 10.3206 8.89906Z" fill="white"/>
<path d="M10.414 7.66953C10.9304 7.66953 11.349 7.2442 11.349 6.71953C11.349 6.19486 10.9304 5.76953 10.414 5.76953C9.89762 5.76953 9.479 6.19486 9.479 6.71953C9.479 7.2442 9.89762 7.66953 10.414 7.66953Z" fill="#422B0D"/>
<path d="M6.57042 7.1116L6.55167 7.08035C6.53042 7.0466 6.50792 7.01285 6.48417 6.9816C6.40167 6.87285 6.31167 6.77035 6.21417 6.67535C6.08167 6.54785 5.94042 6.42785 5.79292 6.31785C5.71167 6.26035 5.62792 6.19285 5.54292 6.14285C5.45792 6.09285 5.36792 6.03285 5.27042 5.9766C5.17292 5.92035 5.08667 5.8766 4.99292 5.83035C4.89917 5.7841 4.80417 5.74285 4.71292 5.70535C4.54292 5.6341 4.36792 5.5741 4.18917 5.5266C4.05792 5.4916 3.92417 5.4666 3.78917 5.45285C3.74792 5.44785 3.70542 5.44535 3.66417 5.44535H3.62542C3.45542 5.44285 3.31542 5.57785 3.31292 5.74785C3.31042 5.8816 3.39542 6.0016 3.52167 6.0441L3.55417 6.05535L3.66292 6.09035C3.73417 6.1141 3.83667 6.15285 3.96417 6.20535C4.09167 6.25785 4.23792 6.33035 4.39542 6.40535L4.63667 6.53035C4.71917 6.57285 4.79667 6.6166 4.88667 6.6691L4.93792 6.69785C4.88167 6.69785 4.82542 6.70785 4.76917 6.71535C4.71292 6.72285 4.67417 6.73035 4.61167 6.74285C4.54917 6.75535 4.49792 6.7666 4.44667 6.7791C4.34292 6.80535 4.24042 6.83785 4.14042 6.87535C3.95917 6.94285 3.78667 7.0316 3.62542 7.1391C3.55917 7.1841 3.49667 7.23285 3.43792 7.2866C3.39042 7.32785 3.34667 7.3716 3.30542 7.4191C3.27667 7.45035 3.25042 7.48285 3.22667 7.5166L3.20042 7.5516C3.10542 7.6916 3.14167 7.88285 3.28167 7.9791C3.38542 8.0491 3.52167 8.05035 3.62542 7.98035L3.65917 7.9541L3.68042 7.93785L3.74292 7.8941C3.82292 7.84035 3.90667 7.79285 3.99292 7.7516C4.12042 7.69035 4.25292 7.64035 4.38792 7.60035C4.46417 7.5766 4.54417 7.55785 4.62542 7.5391C4.66667 7.5291 4.70667 7.5216 4.74417 7.51535C4.78167 7.5091 4.84292 7.50035 4.87542 7.50035C5.04167 7.47785 5.20792 7.4666 5.37542 7.46785C5.51667 7.47035 5.65792 7.48285 5.79792 7.50535C5.85667 7.5166 5.91167 7.52785 5.95667 7.54035C6.00167 7.55285 6.04542 7.56535 6.07167 7.57285L6.10792 7.5841L6.14667 7.60035L6.17917 7.61535C6.30667 7.67035 6.45667 7.6341 6.54417 7.52535C6.58542 7.4741 6.60917 7.4116 6.61167 7.3466C6.63042 7.26535 6.61542 7.1816 6.57042 7.1116Z" fill="#422B0D"/>
<path d="M7.8527 10.054C6.4152 10.0615 4.9802 9.94147 3.56395 9.69272C3.32645 9.64772 3.09645 9.80397 3.05145 10.0415C3.04145 10.0965 3.04145 10.154 3.05145 10.209C3.45895 12.209 5.42645 13.8502 7.85145 13.8502C10.5027 13.8502 12.2864 12.154 12.6577 10.2015C12.7002 9.96272 12.5427 9.73522 12.3039 9.69147C12.2514 9.68147 12.1964 9.68272 12.1439 9.69272C10.7277 9.94147 9.29145 10.0615 7.8527 10.054Z" fill="#422B0D"/>
<path d="M8.19277 10.6248H7.85152H7.69402C6.97777 10.6248 6.27152 10.5911 5.59277 10.5348V13.6061C5.59402 14.7898 6.55527 15.7498 7.73902 15.7498H8.14777C9.33277 15.7498 10.294 14.7886 10.294 13.6036V10.5186C9.61652 10.5798 8.91152 10.6161 8.19277 10.6248Z" fill="#FF4081"/>
<path opacity="0.3" d="M7.94386 13.2812C8.08136 13.2812 8.19386 13.1688 8.19386 13.0312V10.625H7.85261H7.69386V13.03C7.69261 13.1675 7.80511 13.28 7.94261 13.2812H7.94386Z" fill="#AB3F2E"/>
<path opacity="0.3" d="M8.19256 10.6258H7.69256C6.97631 10.6258 6.27006 10.592 5.59131 10.5358V10.9795C6.18381 11.1133 7.94131 11.4145 10.2926 10.952V10.5195C9.61631 10.5808 8.91131 10.617 8.19256 10.6258Z" fill="#AB3F2E"/>
</g>
<defs>
<radialGradient id="paint0_radial_1982_39126" cx="0" cy="0" r="1" gradientUnits="userSpaceOnUse" gradientTransform="translate(7.9502 7.8625) scale(7.11996)">
<stop stop-color="#FFDE1E"/>
<stop offset="0.53" stop-color="#FFDD16"/>
<stop offset="0.795" stop-color="#FEC114"/>
<stop offset="0.955" stop-color="#FEA311"/>
<stop offset="1" stop-color="#F49400"/>
</radialGradient>
<clipPath id="clip0_1982_39126">
<rect width="16" height="16" fill="white"/>
</clipPath>
</defs>
</svg>
