<svg width="15" height="15" viewBox="0 0 15 15" fill="none" xmlns="http://www.w3.org/2000/svg">
<path d="M7.78711 14.4746C4.02539 14.4746 0.949219 11.416 0.949219 7.63672C0.949219 3.85742 4.02539 0.798828 7.78711 0.798828C11.5664 0.798828 14.6426 3.85742 14.6426 7.63672C14.6426 11.416 11.5664 14.4746 7.78711 14.4746ZM7.78711 13.4023C10.9688 13.4023 13.5527 10.8184 13.5527 7.63672C13.5527 4.45508 10.9688 1.87109 7.78711 1.87109C4.62305 1.87109 2.02148 4.45508 2.02148 7.63672C2.02148 10.8184 4.62305 13.4023 7.78711 13.4023ZM7.78711 10.9238C6.55664 10.9238 5.66016 10.168 5.64258 9.13086H6.60938C6.62695 9.69336 7.13672 10.0977 7.78711 10.0977C8.54297 10.0977 9.08789 9.55273 9.08789 8.79688C9.08789 8.02344 8.50781 7.47852 7.76953 7.47852C7.25977 7.47852 6.89062 7.6543 6.67969 8.02344H5.74805L6.11719 4.52539H9.7207V5.35156H6.94336L6.73242 7.19727H6.78516C7.03125 6.89844 7.50586 6.70508 8.0332 6.70508C9.17578 6.70508 10.0547 7.54883 10.0371 8.7793C10.0547 10.0098 9.12305 10.9238 7.78711 10.9238Z" fill="#555555"/>
</svg>
