<svg width="20" height="20" viewBox="0 0 20 20" fill="none" xmlns="http://www.w3.org/2000/svg">
<path fill-rule="evenodd" clip-rule="evenodd" d="M17.5305 13.8494C16.6598 15.2781 13.9726 16.8749 10.0001 16.8749C6.02754 16.8749 3.34034 15.2781 2.46966 13.8494C2.23651 13.4671 2.02164 12.8832 1.87714 12.1904C1.29125 12.1004 0.833374 11.3248 0.833374 10.3818C0.833374 9.42865 1.30115 8.64657 1.8961 8.57055C2.12921 7.59544 2.58027 6.66806 3.34034 5.95026C5.5662 3.84821 8.81201 3.88036 9.84101 3.89056C9.90206 3.89116 9.9553 3.89169 10.0001 3.89169C10.0448 3.89169 10.0981 3.89116 10.1591 3.89056C11.1881 3.88036 14.4339 3.84821 16.6598 5.95026C17.4199 6.66805 17.8709 7.59543 18.1039 8.57054C18.6989 8.6465 19.1667 9.42861 19.1667 10.3818C19.1667 11.3249 18.7087 12.1006 18.1227 12.1904C17.9782 12.8833 17.7634 13.4671 17.5305 13.8494ZM13.4332 5.83327H6.56688C5.28148 5.83327 4.16671 6.83413 4.16671 8.15625V11.8436C4.16671 13.1657 5.28148 14.1666 6.56688 14.1666H13.4332C14.7186 14.1666 15.8334 13.1657 15.8334 11.8436V8.15625C15.8334 6.83413 14.7186 5.83327 13.4332 5.83327Z" fill="#C8C8C8"/>
<path fill-rule="evenodd" clip-rule="evenodd" d="M13.4332 6.66663H6.56684C5.7015 6.66663 5 7.33356 5 8.15627V11.8436C5 12.6664 5.7015 13.3333 6.56684 13.3333H13.4332C14.2985 13.3333 15 12.6664 15 11.8436V8.15627C15 7.33356 14.2985 6.66663 13.4332 6.66663ZM9.08148 9.93013C9.08148 10.812 8.64391 11.527 8.10443 11.527C7.56495 11.527 7.12738 10.812 7.12738 9.93013C7.12738 9.04825 7.56495 8.33329 8.10443 8.33329C8.64391 8.33329 9.08148 9.04825 9.08148 9.93013ZM12.1834 11.527C12.7229 11.527 13.1605 10.812 13.1605 9.93013C13.1605 9.04825 12.7229 8.33329 12.1834 8.33329C11.6439 8.33329 11.2064 9.04825 11.2064 9.93013C11.2064 10.812 11.6439 11.527 12.1834 11.527Z" fill="#C8C8C8"/>
</svg>
