<svg width="160" height="160" viewBox="0 0 160 160" fill="none" xmlns="http://www.w3.org/2000/svg">
<path d="M156.78 14.3169L158 110L16 109.618L16.2034 14L156.78 14.3169Z" fill="#D19359"/>
<path d="M22.706 100.71L16.3098 109.504H16V109.252L22.3839 100.478L22.706 100.71Z" fill="#F0B384"/>
<path d="M149.544 99.835L157.139 109.582L157.143 109.887L156.87 109.883L149.226 100.079L149.544 99.835Z" fill="#F0B384"/>
<path d="M16.4892 13.7148L21.3403 18.8631L21.0468 19.1317L16.2079 13.9957V13.7148H16.4892Z" fill="#F0B384"/>
<path d="M151.134 20.3932L150.82 20.149L155.606 14.0322H155.895L155.899 14.309L151.134 20.3932Z" fill="#F0B384"/>
<path d="M22.709 18L150.534 18.8514L152.465 18.8676L154 103.976L149.687 104L22 103.4L22.709 18Z" fill="#E8A96F"/>
<path d="M20.5698 18.4883L25.1927 18.5168C24.838 46.5857 25.3476 100.082 25.5025 101.682L19.8157 103.969L20.5698 18.4883Z" fill="#AE7643"/>
<path d="M149.605 19.3438L151.615 19.356L153.221 104.556C153.221 104.556 148.782 102.562 147.396 101.683C147.461 77.659 149.218 22.9577 149.605 19.3438Z" fill="#AE7643"/>
<path d="M151.944 102H22V18L152 18.8782L151.944 102Z" fill="url(#paint0_linear_2112_8570)"/>
<g style="mix-blend-mode:multiply" opacity="0.2">
<path d="M152 18.8782L151.944 102H148.355L148.399 21.9928L25.6012 20.9997V102H22V18L152 18.8782Z" fill="#327042"/>
</g>
<path opacity="0.02" d="M29.9655 63.0113C33.8464 61.7049 38.4978 61.9287 42.5744 61.7537C47.1524 61.5625 51.7508 61.6439 56.3329 61.6398C65.5704 61.6357 74.8121 61.6723 84.0455 61.9247C86.4996 61.9898 88.9537 62.0793 91.4079 62.1851C88.3789 61.5462 85.35 60.9194 82.3252 60.3008C72.8594 58.3596 63.4506 56.1741 54.0541 53.9602C49.6065 52.9143 45.1916 51.8806 40.6829 51.0992C36.3861 50.3544 32.2566 49.4265 28.2574 47.7254C25.0492 46.3579 25.3508 41.5231 28.2574 40.0702C32.2239 38.0842 36.3861 38.2958 40.7399 38.3161C45.0897 38.3365 49.4068 38.3894 53.7483 38.6621C56.712 38.8493 59.6757 39.0894 62.6353 39.358C61.5876 39.1504 60.5399 38.9388 59.4963 38.7028C55.4687 37.7871 55.1058 31.3365 59.4963 30.6772C65.6887 29.7453 72.0318 30.5714 78.2242 31.1615C82.6799 31.5848 87.1397 31.9429 91.5832 32.415C91.3956 32.3743 91.2081 32.3336 91.0124 32.3051C89.3614 32.0447 87.9346 31.5522 86.6505 30.5185C85.0932 29.2691 86.4833 27.1813 88.167 27.0552C92.1865 26.754 96.0592 27.8325 100.014 28.3087C104.274 28.8255 108.566 29.2366 112.834 29.6883C116.988 30.1278 121.02 30.9214 125.093 31.8371C126.992 32.2644 129.088 32.6104 130.877 33.3551C133.071 34.2667 135.252 35.4063 137.669 35.6586C139.031 35.801 139.1 37.6853 137.669 37.7179C133.882 37.8033 130.16 36.2446 126.495 35.4958C122.247 34.629 117.959 33.9737 113.637 33.5912C111.84 33.4324 110.046 33.2412 108.256 33.0458C109.973 33.5871 111.697 34.0836 113.458 34.4946C115.407 34.9464 117.359 35.9191 119.267 36.5377C123.164 37.4167 127.029 38.6092 130.845 39.8789C133.519 40.6074 136.181 41.3969 138.623 42.569C142.267 44.3149 139.715 49.866 135.867 48.755C129.61 46.9562 123.193 46.0079 116.846 44.5917C113.25 43.7899 109.622 43.151 105.974 42.626C108.754 43.505 111.518 44.4411 114.253 45.4422C120.331 47.6684 126.723 48.8527 132.757 51.2945C136.23 52.6986 134.334 57.8386 130.902 57.7776C127.249 57.7125 123.829 56.5933 120.327 55.7631C116.344 54.8189 112.223 54.2776 108.199 53.484C99.9972 51.8643 91.7055 50.7288 83.3811 49.8701C79.2148 49.4387 75.0485 49.0114 70.8782 48.6207C75.5255 49.6707 80.1809 50.6881 84.8446 51.6486C103.393 55.4782 122.125 59.259 140.119 65.0502C144.868 66.5804 144.061 73.1531 138.937 73.3281C134.579 73.4786 130.323 72.8275 126.01 72.335C121.465 71.8223 116.891 71.5659 112.329 71.2525C103.181 70.6258 94.025 70.0723 84.8527 69.7711C76.2063 69.4862 67.5557 69.4211 58.9052 69.3967C61.3145 69.8688 63.7237 70.3368 66.1289 70.7601C75.1953 72.3473 84.2004 74.2478 93.2505 75.9164C97.7429 76.7466 102.264 77.3774 106.781 78.0734C108.546 78.346 110.417 79.0908 112.186 79.1193C114.225 79.1519 116.218 79.4652 118.012 80.4175C119.5 81.2071 120.213 82.953 119.765 84.4913C119.161 86.571 117.131 87.2832 115.072 87.0105C102.26 85.3175 89.3818 84.703 76.4753 84.1047C75.0037 84.0355 73.532 83.9826 72.0563 83.9419C72.8675 84.2512 73.6543 84.6053 74.4085 85.0245C75.7048 85.7448 75.8353 87.7634 74.4085 88.4512C71.9829 89.6192 69.3657 89.3669 66.7608 88.9396C63.2264 88.3617 59.5289 88.2355 55.9334 88.0971C51.9465 87.9465 47.9596 87.8082 43.9686 87.6372C40.1651 87.4745 36.0886 86.8966 32.3014 87.2913C31.0091 87.4256 31.0214 85.5128 32.3014 85.3785C35.1428 85.0855 37.8986 84.6134 40.7399 84.4791C40.2956 84.2187 39.8839 83.9053 39.5088 83.5227C38.0779 82.0495 38.0453 79.1641 40.2344 78.2117C44.9144 76.1687 50.0916 76.8118 55.0895 76.9054C55.9008 76.9216 56.7079 76.9298 57.5192 76.9379C53.944 76.3315 50.3688 75.6966 46.8181 74.9682C46.4757 74.899 46.2474 74.8501 46.1007 74.8135C45.6645 74.7647 45.2283 74.7158 44.7921 74.6711C43.3775 74.5164 41.9629 74.3496 40.5524 74.1664C36.2231 73.6007 28.2248 72.8112 27.1241 67.7362C26.6512 65.563 27.7682 63.7479 29.9614 63.0072L29.9655 63.0113Z" fill="white"/>
<path opacity="0.02" d="M41.5879 51.751C44.5719 50.9614 47.9147 51.2992 50.964 51.5149C54.3394 51.755 57.6741 52.101 61.0291 52.5161C63.9806 52.8823 66.932 53.2649 69.8835 53.6515C70.7273 53.6068 71.5671 53.6312 72.415 53.6719C70.9026 53.3015 69.3861 52.9393 67.8615 52.5934C65.0609 51.9544 62.2399 51.3888 59.4352 50.7742C56.9077 50.2207 54.1601 49.9806 52.1258 48.3772C51.8038 48.1248 51.5714 47.8399 51.4206 47.5429C51.1189 47.3923 50.7846 47.2458 50.4585 47.3719C50.0549 47.5266 49.7533 47.0952 49.8185 46.7818C49.9856 45.9638 50.9396 45.4347 51.6326 45.0033C51.6693 44.9789 51.71 44.9586 51.7508 44.9382C52.3174 44.1731 53.251 43.6115 54.2946 43.5708C58.5913 43.4039 62.9696 43.9574 67.2826 44.5475C66.0433 44.2464 64.8611 43.8353 63.9113 42.9359C63.1856 42.2481 62.9043 41.0476 63.5281 40.2092C64.6084 38.7522 66.4021 38.7522 68.1346 38.8377C70.1281 38.9354 72.1134 39.1266 74.0987 39.3139C77.3844 39.3342 80.7639 40.0098 83.9599 40.4168C83.9762 40.4168 83.9925 40.4208 84.0088 40.4249C86.5934 40.7627 89.178 41.133 91.7666 41.5278C97.217 42.3621 102.724 42.9644 108.11 44.1243C110.735 44.69 113.218 45.4429 115.651 46.5132C116.891 47.0586 118.171 47.6568 119.284 48.4016C120.319 49.0934 121.212 49.9766 122.215 50.7091C122.602 50.9899 122.284 51.6451 121.811 51.6085C121.522 51.5882 121.228 51.5597 120.939 51.5312C121.265 52.1417 121.261 52.9068 120.886 53.5009C120.221 54.5469 118.966 54.6649 117.857 54.2294C117.779 54.1969 117.702 54.1684 117.628 54.1358C117.469 54.0707 117.311 54.0097 117.152 53.9445C116.834 53.8225 116.507 53.7166 116.136 53.6678C115.655 53.6068 115.297 53.4033 115.044 53.1225C109.414 50.9859 103.581 49.2644 97.645 48.0312C101.612 49.476 105.541 50.9981 109.471 52.5161C111.322 53.2323 113.161 53.9649 115.003 54.7056C117.616 55.5317 120.205 56.4189 122.724 57.4405C125.374 58.5108 124.078 62.7189 121.24 62.4747C119.174 62.2997 117.233 61.3555 115.325 60.6393C114.665 60.391 114.013 60.1346 113.356 59.8742C110.299 58.9259 107.192 58.0835 104.139 57.2085C103.503 57.0253 102.867 56.8463 102.231 56.6713C103.556 57.1312 104.877 57.5951 106.202 58.059C108.888 59.0073 111.583 59.9433 114.253 60.9364C115.525 61.4084 116.768 61.9863 118.057 62.4259C119.471 62.9102 120.706 63.3131 121.868 64.2369C123.776 65.7468 122.333 69.2508 119.728 68.9863C116.972 68.7055 114.282 68.0787 111.611 67.338C111.909 68.0218 111.416 68.8561 110.458 68.9293C108.591 69.0677 106.699 68.4287 104.877 68.1235C105.753 68.4247 106.626 68.7299 107.539 68.8968C108.811 69.1328 110.136 69.5438 111.192 70.2438C112.541 71.131 113.124 73.4793 111.285 74.2892C111.689 74.399 112.088 74.513 112.492 74.6229C113.796 74.9688 115.105 75.3269 116.426 75.6118C117.6 75.8641 118.77 76.0513 119.801 76.6618C120.959 77.3414 120.372 78.7048 119.157 78.8554C118.085 78.9856 117.013 78.7862 115.965 78.6031C114.693 78.3833 113.413 78.2693 112.129 78.1554C109.316 77.9031 106.516 77.5612 103.699 77.3374C97.8407 76.8775 91.9623 76.6333 86.0961 76.2833C81.9461 76.0391 77.7839 75.8967 73.6339 75.6729C74.8569 76.6415 75.5377 77.9397 74.221 79.4211C73.2507 80.5077 71.3836 80.1943 70.0832 80.0804C68.1387 79.9054 66.2553 79.2949 64.323 79.1159C62.3377 78.9327 62.3173 76.0595 64.323 76.2426C64.7918 76.2874 65.2647 76.3077 65.7457 76.3159C65.0364 75.9944 64.3352 75.6607 63.6422 75.4002C63.1082 75.2008 62.5701 75.0054 62.032 74.8182C61.2329 74.7368 60.4421 74.6473 59.6472 74.5333C56.7691 74.1223 54.0704 73.4915 51.3105 72.6287C50.7439 72.4496 50.805 71.8188 51.2738 71.6398C50.6012 71.4403 49.9286 71.2287 49.2641 71.0008C47.2788 70.3212 47.5927 67.7409 49.7614 67.6148C52.3827 67.4601 55.0121 68.2619 57.5966 68.5793C60.65 68.9537 63.6789 69.4828 66.72 69.9305C68.8154 70.2398 70.9312 70.4717 73.0347 70.7363C70.7314 69.9834 68.4118 69.2712 66.0922 68.5752C63.1653 67.6962 60.1486 67.0857 57.1523 66.4346C56.712 66.3817 56.2677 66.3287 55.8274 66.2758C54.0908 66.0683 52.3501 65.7915 50.6053 65.5799C49.6595 65.6165 48.7219 65.5718 47.7965 65.291C46.5531 64.9084 45.9213 63.0078 47.3888 62.4259C48.3061 62.0596 49.3008 61.9212 50.3199 61.8846C50.4585 61.034 51.0537 60.3055 52.24 60.1061C52.6599 60.0369 53.0798 59.9759 53.5037 59.923C51.6856 59.5608 49.8674 59.1945 48.0493 58.816C45.6971 58.3236 42.8801 58.1079 40.8867 56.7527C38.8892 55.3934 38.934 52.4672 41.596 51.7632L41.5879 51.751ZM77.2743 60.3055C78.5666 60.4114 79.8589 60.5416 81.1471 60.7003C79.5328 60.4724 77.9225 60.2486 76.3041 60.0247C76.6017 60.1102 76.8993 60.1957 77.1969 60.2852C77.2213 60.2933 77.2458 60.2974 77.2702 60.3055H77.2743ZM103.642 73.9799C104.204 74.0572 104.763 74.1426 105.325 74.2281C105.052 74.1345 104.775 74.045 104.502 73.9514C102.08 73.4019 99.6426 72.8892 97.2088 72.3886C91.6891 71.245 86.1246 70.2683 80.5356 69.4584C77.4007 69.0026 74.2658 68.5549 71.1268 68.1357C73.3363 68.6282 75.5336 69.145 77.7227 69.7107C79.1373 70.0729 80.5601 70.4595 81.9379 70.9194C82.8307 71.2165 84.0048 71.5624 84.7019 72.1892C85.1666 72.2299 85.6313 72.2665 86.0961 72.3072C91.9541 72.8037 97.8203 73.1944 103.646 73.9839L103.642 73.9799Z" fill="#FAFFCC"/>
<g style="mix-blend-mode:darken">
<path d="M134.145 101.844C134.877 102.522 135.982 103.066 136.614 103.066H147.164C147.797 103.066 147.837 102.522 147.251 101.844C146.672 101.173 145.667 100.621 145.008 100.621H134.005C133.346 100.621 133.406 101.166 134.145 101.844Z" fill="#DE9873"/>
</g>
<path d="M135.41 100.854C135.41 101.711 136.168 102.415 137.107 102.415H146.432C147.371 102.415 148.13 101.717 148.13 100.854C148.13 99.9897 147.371 99.292 146.432 99.292H137.107C136.168 99.292 135.41 99.9897 135.41 100.854Z" fill="white"/>
<g style="mix-blend-mode:multiply" opacity="0.3">
<path d="M112.279 95.8428C112.279 95.8428 111.8 100.335 112.419 102.528C113.497 103.564 117.85 104.103 117.85 104.103L112.279 95.8494V95.8428Z" fill="#B6987F"/>
</g>
<path d="M112.719 95.0786C112 95.5637 111.787 96.4873 112.233 97.1386L116.666 103.691C117.112 104.348 118.05 104.495 118.769 104.009C119.481 103.531 119.701 102.601 119.255 101.943L114.822 95.3909C114.376 94.7331 113.437 94.5935 112.725 95.072L112.719 95.0786Z" fill="#FF573F"/>
<g style="mix-blend-mode:darken">
<path d="M130.311 100.635C130.311 100.635 126.151 103.851 125.811 103.95C124.294 104.402 121.791 103.725 122.776 102.854C123.854 101.904 125.365 100.522 126.657 100.355C127.948 100.189 130.311 100.635 130.311 100.635Z" fill="#DE9873"/>
</g>
<path d="M124.993 102.786C125.432 103.531 126.157 103.896 126.61 103.61L131.11 100.753C131.562 100.467 131.569 99.63 131.13 98.8857C130.684 98.1415 129.965 97.7694 129.512 98.0618L125.013 100.919C124.56 101.205 124.553 102.042 124.993 102.786Z" fill="#FFC121"/>
<path d="M90.3125 113.474C92.1674 116.091 89.4397 122.635 83.1114 120.672C76.7831 118.709 82.2516 102.101 90.3125 113.474Z" fill="#0078B8"/>
<path d="M82.7448 95.1518C82.7448 95.1518 86.0922 96.8968 88.8548 99.5143C91.6174 102.132 94.1094 106.756 92.6387 109.474C91.1853 112.165 89.3349 114.63 87.4015 116.38C86.3802 117.3 82.1643 118.997 81.5839 114.778C81.5839 114.778 78.8212 96.1639 82.7491 95.1475L82.7448 95.1518Z" fill="url(#paint1_radial_2112_8570)"/>
<path d="M82.7448 95.1518C81.1867 95.5575 80.6805 98.729 80.6412 102.411C82.0945 105.482 83.6918 107.947 84.2767 105.548C84.9182 102.9 86.6639 100.478 88.1042 98.8337C85.5205 96.6002 82.7491 95.1475 82.7491 95.1475L82.7448 95.1518Z" fill="#C1E2F3" fill-opacity="0.16"/>
<path fill-rule="evenodd" clip-rule="evenodd" d="M88.152 106.348C88.2515 106.481 88.2248 106.669 88.0924 106.768C86.9047 107.661 86.0695 108.079 84.7975 108.452C84.6385 108.499 84.4718 108.408 84.4252 108.249C84.3786 108.09 84.4697 107.923 84.6287 107.877C85.8269 107.525 86.5978 107.141 87.7319 106.289C87.8644 106.189 88.0524 106.216 88.152 106.348Z" fill="#417794"/>
<path d="M102.308 95.0608L99.027 116L97.4716 115.799L92.4839 115.159L68.0597 112.026L72.0938 92.0977L102.308 95.0608Z" fill="#FF573F"/>
<path d="M100.983 95.7533C100.983 95.7533 98.2625 111.201 97.4716 115.799L92.4838 115.159L95.9995 95.25L100.983 95.7533Z" fill="white"/>
<path fill-rule="evenodd" clip-rule="evenodd" d="M99.4522 97.7918C99.6158 97.8176 99.7276 97.9712 99.7018 98.1348L96.9581 115.543C96.9323 115.706 96.7788 115.818 96.6151 115.792C96.4514 115.767 96.3397 115.613 96.3655 115.449L99.1091 98.0414C99.1349 97.8778 99.2885 97.766 99.4522 97.7918Z" fill="#417794"/>
<path fill-rule="evenodd" clip-rule="evenodd" d="M98.033 97.6971C98.1967 97.7229 98.3085 97.8764 98.2827 98.0401L95.539 115.448C95.5132 115.612 95.3596 115.724 95.196 115.698C95.0323 115.672 94.9205 115.518 94.9463 115.355L97.69 97.9467C97.7158 97.783 97.8694 97.6713 98.033 97.6971Z" fill="#417794"/>
<path fill-rule="evenodd" clip-rule="evenodd" d="M96.6138 97.6023C96.7775 97.6281 96.8893 97.7817 96.8635 97.9454L94.1198 115.353C94.094 115.517 93.9404 115.629 93.7768 115.603C93.6131 115.577 93.5013 115.424 93.5271 115.26L96.2708 97.852C96.2966 97.6883 96.4502 97.5765 96.6138 97.6023Z" fill="#417794"/>
<path d="M77.9484 128.214C77.9484 128.214 75.9015 150.528 68.9317 153.774C64.6983 155.746 59.7099 155.611 57.663 148.513C56.2883 143.736 57.4317 140.32 58.1387 131.329C59.0771 119.402 77.9484 128.214 77.9484 128.214Z" fill="url(#paint2_radial_2112_8570)"/>
<path d="M58.1387 131.329C57.567 138.61 56.7116 142.231 57.1349 145.887C61.0104 136.302 72.9905 133.454 77.4639 132.175C77.8087 129.794 77.9484 128.214 77.9484 128.214C77.9484 128.214 59.077 119.398 58.1387 131.329Z" fill="#C1E2F3" fill-opacity="0.16"/>
<path d="M74.3522 145.747C73.0167 149.516 71.2492 152.701 68.9317 153.779C64.6983 155.75 59.7099 155.615 57.663 148.517C57.2135 146.964 57.0389 145.555 57.0215 144.055C63.3017 149.508 70.8258 147.296 74.3478 145.752L74.3522 145.747Z" fill="#0078B8"/>
<path d="M63.2276 131.255C63.2276 131.255 61.1807 153.569 54.2109 156.815C49.9775 158.787 44.9891 158.652 42.9422 151.554C41.5674 146.777 42.7109 143.361 43.4179 134.37C44.3562 122.443 63.2276 131.255 63.2276 131.255Z" fill="url(#paint3_radial_2112_8570)"/>
<path d="M43.4179 134.37C42.8462 141.651 41.9908 145.272 42.4141 148.928C46.2896 139.343 58.274 136.495 62.7431 135.217C63.0879 132.835 63.2275 131.255 63.2275 131.255C63.2275 131.255 44.3562 122.439 43.4179 134.37Z" fill="#C1E2F3" fill-opacity="0.16"/>
<path d="M59.6314 148.783C58.2959 152.553 56.5283 155.737 54.2109 156.815C49.9775 158.787 44.9891 158.651 42.9422 151.554C42.4971 150.001 42.3181 148.592 42.3007 147.091C48.5809 152.544 56.105 150.332 59.627 148.788L59.6314 148.783Z" fill="#0078B8"/>
<path d="M37.6265 116.166C37.6352 116.388 37.6439 116.606 37.6657 116.829C37.6657 116.881 37.6701 116.929 37.6745 116.977C37.6876 117.226 37.7094 117.47 37.7312 117.723C37.7443 117.911 37.7661 118.098 37.7836 118.286C37.8054 118.482 37.8316 118.678 37.8534 118.875C37.8752 119.084 37.9058 119.294 37.9407 119.503C37.9712 119.682 37.9931 119.852 38.028 120.031C38.0323 120.061 38.0367 120.087 38.0411 120.122C38.0803 120.349 38.124 120.576 38.1676 120.807C38.1807 120.864 38.1895 120.921 38.2069 120.982C38.2462 121.187 38.2898 121.392 38.3378 121.597C38.5255 122.404 38.7481 123.207 39.0099 124.001C39.1671 124.48 39.3416 124.956 39.538 125.431C39.5468 125.458 39.5555 125.479 39.5686 125.506C39.669 125.75 39.7737 125.994 39.8828 126.239C39.9832 126.465 40.0879 126.688 40.2014 126.915C40.2101 126.937 40.2189 126.958 40.2363 126.98C40.424 127.368 40.6247 127.748 40.8386 128.123C45.1898 135.801 60.382 135.103 60.382 135.103C60.382 135.103 75.7444 133.663 80.8681 125.349C83.5915 120.925 84.5734 115.799 84.6956 110.979C84.9138 101.914 82.0727 93.9259 81.9941 93.6859H81.9898C81.6406 93.4634 81.2871 93.254 80.938 93.0577C80.5932 92.8571 80.244 92.6651 79.8905 92.4819C79.7116 92.3903 79.5414 92.2987 79.3624 92.2114C78.8387 91.9497 78.3106 91.7097 77.7869 91.4785C77.2588 91.2517 76.7351 91.0423 76.2114 90.8503C75.8666 90.7195 75.5175 90.6017 75.1683 90.4839C74.8192 90.3705 74.47 90.2614 74.1253 90.1611C73.9463 90.1131 73.7761 90.0607 73.6015 90.0171C72.3926 89.6899 71.1881 89.4456 69.9966 89.2711C69.822 89.245 69.6562 89.2275 69.4816 89.2057C69.1412 89.1621 68.8052 89.1228 68.4691 89.0966C67.4609 89.0007 66.4571 88.957 65.4752 88.957C65.1828 88.957 64.8904 88.9614 64.5979 88.9701C64.4976 88.9701 64.3972 88.9745 64.3012 88.9745C64.0088 88.9876 63.7164 89.005 63.4239 89.0181C63.0923 89.0356 62.7606 89.0661 62.4332 89.0966C62.1016 89.1272 61.7699 89.1577 61.4425 89.197H61.4382C50.4052 90.4926 41.9602 96.6175 41.1877 97.1977C41.1485 97.2239 41.131 97.237 41.131 97.237C41.131 97.237 41.131 97.2413 41.1266 97.2501C41.1223 97.2631 41.1135 97.2893 41.0917 97.3286C40.7731 98.0833 38.6433 103.327 37.8752 109.971C37.8534 110.193 37.8272 110.407 37.801 110.63C37.7792 110.913 37.7487 111.201 37.7225 111.489C37.6788 112.004 37.6483 112.523 37.6265 113.051C37.5872 114.072 37.5828 115.119 37.6265 116.174V116.166Z" fill="url(#paint4_radial_2112_8570)"/>
<path d="M37.6264 116.165C37.6352 116.388 37.6439 116.606 37.6657 116.828C37.6657 116.881 37.6701 116.929 37.6744 116.977C37.6875 117.225 37.7093 117.469 37.7312 117.723C37.7443 117.91 37.7661 118.098 37.7835 118.285C37.8054 118.482 37.8315 118.678 37.8534 118.874C37.8752 119.084 37.9057 119.293 37.9407 119.502C37.9712 119.681 37.993 119.851 38.0279 120.03C38.0323 120.061 38.0367 120.087 38.041 120.122C38.0803 120.349 38.124 120.576 38.1676 120.807C38.1807 120.863 38.1894 120.92 38.2069 120.981C38.2462 121.186 38.2898 121.391 38.3378 121.596C38.5255 122.403 38.7481 123.206 39.0099 124C39.167 124.48 39.346 124.955 39.538 125.431C39.5467 125.457 39.5555 125.479 39.5685 125.505C39.6689 125.749 39.7737 125.994 39.8828 126.238C39.9832 126.465 40.0879 126.687 40.2014 126.914C40.2101 126.936 40.2188 126.958 40.2363 126.98C40.245 115.14 49.6196 106.542 64.8598 102.951C76.2288 100.273 81.4224 103.959 84.6912 110.974C84.9095 101.909 82.0683 93.921 81.9897 93.681H81.9854C81.6362 93.4586 81.2827 93.2492 80.9336 93.0529C80.5888 92.8522 80.2396 92.6602 79.8861 92.477C79.7072 92.3854 79.537 92.2938 79.358 92.2065C78.8343 91.9448 78.3062 91.6961 77.7825 91.4736C77.2544 91.2468 76.7307 91.0374 76.207 90.8455C75.8622 90.7146 75.5131 90.5968 75.1639 90.479C74.8148 90.3656 74.4656 90.2565 74.1209 90.1562C73.9419 90.1082 73.7717 90.0558 73.5971 90.0122C72.3882 89.6807 71.1837 89.4407 69.9922 89.2662C69.8176 89.2401 69.6518 89.2226 69.4772 89.2008C69.1368 89.1572 68.8008 89.1179 68.4647 89.0918C67.4565 88.9958 66.4528 88.9521 65.4708 88.9521C65.1784 88.9521 64.886 88.9565 64.5936 88.9652C64.4932 88.9652 64.3928 88.9696 64.2968 88.9696C64.0044 88.9827 63.712 89.0001 63.4196 89.0132C63.0879 89.0307 62.7562 89.0612 62.4288 89.0918C62.0972 89.1223 61.7655 89.1528 61.4382 89.1921H61.4338C50.5535 91.225 41.9689 96.6824 41.1833 97.1928C41.1441 97.219 41.1266 97.2321 41.1266 97.2321C41.1266 97.2321 41.1266 97.2364 41.1222 97.2452C41.1179 97.2583 41.1092 97.2844 41.0873 97.3237C40.8211 98.013 39.1147 102.563 38.0672 108.5C37.993 108.98 37.9276 109.469 37.8708 109.97C37.849 110.193 37.8228 110.407 37.7966 110.629C37.7748 110.913 37.7443 111.201 37.7181 111.489C37.6744 112.003 37.6439 112.522 37.6221 113.05C37.5828 114.071 37.5784 115.118 37.6221 116.174L37.6264 116.165Z" fill="#C1E2F3" fill-opacity="0.16"/>
<path fill-rule="evenodd" clip-rule="evenodd" d="M82.7656 96.4265C82.9266 96.3874 83.0888 96.4862 83.1279 96.6472C84.7707 103.406 85.0879 108.49 84.9922 111.932C84.9444 113.653 84.7934 114.962 84.6537 115.864C84.5839 116.315 84.517 116.663 84.4677 116.908C84.4556 116.968 84.4449 117.021 84.4356 117.066C84.4254 117.116 84.4168 117.158 84.4095 117.195C84.4027 117.23 84.398 117.255 84.3951 117.273C84.394 117.279 84.3934 117.284 84.3931 117.286" fill="#417794"/>
<path d="M79.4672 98.2878C49.1788 105.207 28.6141 103.405 16.6297 92.6471C5.1821 82.3692 -1.51713 55.1475 9.94357 35.9789C20.3568 18.564 52.2076 15.7502 57.6412 15.074C63.0748 14.3978 83.766 12.7837 96.9332 23.5459C117.013 39.9574 116.642 63.4143 111.951 75.5158C107.634 86.6444 100.512 93.127 79.4715 98.2878H79.4672Z" fill="url(#paint5_radial_2112_8570)"/>
<path d="M30.1673 14.1801C30.1892 15.0564 29.5845 23.2892 29.5845 23.2892C29.5845 23.2892 43.3248 27.9029 55.1285 25.4405C66.2311 23.1227 69.6881 18.2023 69.6881 18.2023L67.2038 8.94867C67.2038 8.94867 60.9821 4.70742 45.6251 7.25305C30.268 9.79868 30.1716 14.1801 30.1716 14.1801H30.1673Z" fill="#303051"/>
<path d="M21.5226 16.3138L20.8741 13.9521C20.8741 13.9521 46.1201 8.08974 46.532 8.08098C46.9877 8.07222 77.0182 6.0918 77.0182 6.0918L77.0664 8.17299L53.5292 15.9457L21.5226 16.3138Z" fill="#303051"/>
<path d="M20.8741 13.9525C20.8741 13.9525 45.8923 6.0133 46.4838 6.00016C47.0753 5.98702 77.0182 6.09217 77.0182 6.09217L53.481 13.8649L20.8741 13.9569V13.9525Z" fill="#3C3C68"/>
<path fill-rule="evenodd" clip-rule="evenodd" d="M21.4666 16.321L21.96 16.24C22.4534 16.159 22.4534 16.1591 22.4534 16.1592L22.4549 16.1685L22.4593 16.1954L22.4759 16.2997C22.4904 16.3912 22.5114 16.5259 22.5376 16.6996C22.5901 17.0469 22.6637 17.5502 22.7483 18.1759C22.9175 19.4271 23.1311 21.169 23.3085 23.1325C23.6622 27.0455 23.8774 31.8888 23.2903 35.4765L22.3034 35.315C22.8686 31.8616 22.6655 27.1271 22.3126 23.2225C22.1368 21.2771 21.9251 19.5503 21.7573 18.3099C21.6735 17.6899 21.6006 17.1917 21.5488 16.849C21.5229 16.6776 21.5023 16.5452 21.4882 16.4558L21.472 16.3545L21.4679 16.3291L21.4666 16.321Z" fill="#3C3C68"/>
<path d="M19.4503 40.7934C19.4503 40.7934 19.5073 31.737 22.9248 31.3645C26.3424 30.9921 24.9929 41.1045 24.9929 41.1045L19.4503 40.7934Z" fill="#3C3C68"/>
<path d="M39.5773 76.4147C40.4371 82.7839 46.6781 87.0242 53.4253 85.8987L96.1869 78.7574C102.153 77.7628 106.277 72.2093 105.487 66.3419L101.764 38.7188C100.975 32.8513 95.5235 28.5848 89.5095 29.2043L46.3813 33.6235C39.5773 34.3215 34.6805 40.0581 35.536 46.4273L39.5729 76.4191L39.5773 76.4147Z" fill="#004367"/>
<path d="M94.9823 77.7583C100.062 76.9163 103.602 72.1744 102.93 67.1793L99.1983 39.4603C98.5261 34.4653 93.8607 30.8314 88.737 31.368L45.504 35.9137C39.7257 36.52 35.5577 41.4147 36.2822 46.8198L40.3192 76.7898C41.0481 82.1905 46.3638 85.807 52.0942 84.856L94.9867 77.7583H94.9823Z" fill="#0078B8"/>
<path d="M72.6326 69.8315C72.6326 69.8315 75.4127 66.5858 80.0869 68.5271" stroke="#66F3FF" stroke-width="2" stroke-linecap="round" stroke-linejoin="round"/>
<path d="M90.9803 32.3975C94.7074 32.6113 97.7362 35.6214 98.3778 38.0949C99.0717 40.7865 98.6309 44.7258 95.3446 42.8805C93.2803 41.7201 91.8793 37.6848 85.6907 36.0445C80.8812 34.7707 84.8266 32.0442 90.9846 32.3975H90.9803Z" fill="white"/>
<path d="M87.2051 65.2903C86.1228 65.2903 85.119 64.998 84.1981 64.409C80.6281 62.1318 79.8774 56.116 79.8469 55.863C79.7596 55.1432 80.2746 54.4932 80.9947 54.4103C81.7148 54.3274 82.3651 54.8378 82.448 55.5533C82.6182 56.9492 83.5129 60.8711 85.6121 62.206C86.4501 62.7382 87.4277 62.8124 88.5973 62.4285C90.1074 61.9355 91.0981 61.002 91.6349 59.5798C92.6692 56.8271 91.6131 53.0187 91.2116 52.325C90.8013 51.7492 90.9279 50.9465 91.4952 50.5234C92.0757 50.0915 92.8962 50.2049 93.3282 50.7851C94.0222 51.7099 95.41 56.3385 94.236 60.0684C93.4854 62.4547 91.8182 64.1298 89.4135 64.9194C88.6497 65.1725 87.9121 65.2946 87.2051 65.2946V65.2903Z" fill="url(#paint6_linear_2112_8570)"/>
<path d="M58.2042 69.4263C56.6767 69.4263 55.2757 69.0206 54.0232 68.2136C51.3217 66.4773 49.445 62.9525 48.5896 58.0185C48.5809 57.9575 48.5721 57.9138 48.5634 57.8789C48.3976 57.2202 48.7685 56.5397 49.4188 56.3215C50.104 56.0947 50.846 56.4655 51.0729 57.1504C51.1122 57.2682 51.1253 57.3554 51.1646 57.5736C51.8803 61.7048 53.3991 64.7018 55.4372 66.0149C56.7378 66.8525 58.2566 67.027 60.0852 66.5515C63.9389 65.5481 63.2668 59.1964 63.2624 59.131C63.1795 58.4155 63.6989 57.7655 64.4146 57.6826C65.1347 57.5997 65.7807 58.1145 65.8636 58.83C65.9029 59.1833 66.7975 67.5025 60.7486 69.0817C59.867 69.3129 59.016 69.4263 58.2042 69.4263Z" fill="url(#paint7_linear_2112_8570)"/>
<path d="M9.94796 35.9793C-1.51274 55.1479 5.18649 82.3696 16.6341 92.6476C22.107 97.5597 29.3692 100.6 38.5255 101.8C38.5735 101.687 38.5954 101.621 38.5954 101.621C38.5954 101.621 18.0831 81.1176 15.028 60.6141C12.6058 44.3508 20.3394 29.4618 23.6432 24C18.022 26.9228 13.0379 30.8054 9.94796 35.9793Z" fill="#C1E2F3" fill-opacity="0.16"/>
<path d="M6.91474 64.5752C7.78324 70.8397 11.6195 74.635 15.3728 75.2458H15.3772C16.7563 75.7256 18.1398 75.8783 19.3661 75.7518C23.7217 75.3156 26.6982 69.3564 26.0043 62.442C25.3147 55.5231 21.2166 50.2707 16.861 50.707C15.6521 50.8291 14.3821 51.3919 13.0379 52.0288C8.45098 54.21 6.08989 58.6248 6.91038 64.5708L6.91474 64.5752Z" fill="#0078B8"/>
<path d="M35.3963 94.3535C35.7978 94.8203 39.9046 98.572 41.9428 102.062C43.9809 105.552 42.3792 113.841 37.4344 113.697C19.5407 117.043 16.9221 107.445 16.9221 107.445C16.9221 107.445 31.9048 90.2877 35.3963 94.3579V94.3535Z" fill="url(#paint8_radial_2112_8570)"/>
<path fill-rule="evenodd" clip-rule="evenodd" d="M36.7678 96.4426C36.7678 96.2769 36.9021 96.1426 37.0678 96.1426C37.142 96.1426 37.2015 96.1681 37.2253 96.1788C37.2574 96.1932 37.288 96.2108 37.3148 96.2276C37.3689 96.2615 37.4308 96.307 37.4968 96.359C37.6299 96.4641 37.8006 96.6127 37.9963 96.7934C38.3886 97.1557 38.8943 97.6592 39.424 98.23C40.4765 99.3639 41.6543 100.796 42.2119 101.929C42.2851 102.078 42.2239 102.257 42.0752 102.331C41.9266 102.404 41.7468 102.343 41.6736 102.194C41.1577 101.146 40.0332 99.7683 38.9843 98.6381C38.4633 98.0769 37.9685 97.5846 37.5892 97.2342C37.399 97.0585 37.241 96.9215 37.1251 96.8301C37.0665 96.7839 37.0238 96.7533 36.9959 96.7359C36.994 96.7346 36.9922 96.7335 36.9906 96.7325C36.8623 96.6985 36.7678 96.5816 36.7678 96.4426Z" fill="#417794"/>
<path d="M14.8229 102.062C14.8229 102.062 10.0003 83.2072 13.9107 81.1699C18.1048 78.9843 19.8244 84.1887 21.7185 94.5757C23.6126 104.963 15.3902 103.733 14.8229 102.062Z" fill="#0078B8"/>
<path d="M21.4479 100.962C21.4479 100.962 16.6254 82.1076 20.5358 80.0703C24.7299 77.8847 26.4494 83.0891 28.3436 93.4761C30.2377 103.863 22.0153 102.633 21.4479 100.962Z" fill="#0078B8"/>
<path d="M27.4576 101.503C27.4576 101.503 24.3676 82.2911 28.4439 80.6159C32.8213 78.8186 34.0608 84.1583 35.0035 94.6761C35.9505 105.19 27.8678 103.222 27.4576 101.508V101.503Z" fill="#0078B8"/>
<path d="M10.7117 101.664C10.7117 101.664 6.15969 88.5333 9.29764 87.037C12.2828 85.6148 12.6102 88.5071 14.8621 98.833L10.7117 101.664Z" fill="#0078B8"/>
<path d="M32.2714 96.5906C32.2496 96.3768 32.6031 88.9737 36.1993 90.1734C39.7955 91.3731 39.8392 101.769 34.8682 103.893C29.8973 106.018 32.2714 96.5906 32.2714 96.5906Z" fill="#0078B8"/>
<path d="M36.8889 99.8233C37.5086 105.551 31.0669 111.672 24.2323 112.409C17.3978 113.146 11.4798 108.156 10.8601 102.428C10.2403 96.6998 15.1502 92.3984 21.9847 91.6611C28.8192 90.9239 36.2691 94.0954 36.8889 99.8233Z" fill="#0078B8"/>
<path fill-rule="evenodd" clip-rule="evenodd" d="M31.8493 94.8486C29.4674 92.5522 25.7997 91.239 21.1053 92.036L21.1052 92.0361C16.4749 92.8196 13.9781 95.0858 12.633 97.1386C11.9579 98.1689 11.5697 99.1506 11.3507 99.8736C11.2412 100.235 11.1741 100.531 11.1346 100.735C11.1149 100.837 11.1021 100.916 11.0943 100.968C11.0904 100.994 11.0877 101.014 11.0861 101.027L11.0844 101.04L11.0841 101.043M11.0841 101.043C11.0661 101.208 10.9181 101.327 10.7535 101.309C10.5888 101.291 10.4697 101.143 10.4876 100.978L10.7845 101.01C10.4876 100.978 10.4876 100.978 10.4877 100.978L10.4877 100.977L10.4879 100.975L10.4886 100.97L10.491 100.95C10.4931 100.934 10.4963 100.91 10.5008 100.88C10.5098 100.819 10.5241 100.732 10.5456 100.621C10.5885 100.399 10.6603 100.083 10.7764 99.6995C11.0085 98.9338 11.4185 97.8974 12.1312 96.8097C13.5618 94.6265 16.1997 92.2576 21.0051 91.4445C25.8685 90.6188 29.7336 91.9754 32.2658 94.4166C32.3851 94.5316 32.3885 94.7215 32.2735 94.8408C32.1585 94.9601 31.9686 94.9636 31.8493 94.8486" fill="#0F4F72"/>
<path fill-rule="evenodd" clip-rule="evenodd" d="M34.9731 90.1521C35.0333 90.3065 34.9569 90.4804 34.8025 90.5405C34.432 90.6849 34.1096 90.9952 33.8329 91.4171C33.5574 91.8371 33.3426 92.3444 33.1789 92.8429C33.0157 93.3397 32.9066 93.817 32.8383 94.1711C32.8042 94.3477 32.7804 94.4928 32.7653 94.5932C32.7577 94.6433 32.7523 94.6822 32.7488 94.7083L32.745 94.7375L32.7441 94.7445C32.7441 94.7445 32.7441 94.7444 32.7441 94.7445M34.9731 90.1521C34.913 89.9977 34.7391 89.9213 34.5847 89.9815L34.9731 90.1521ZM34.5847 89.9815C34.054 90.1883 33.6448 90.6098 33.3311 91.0881L34.5847 89.9815ZM33.3311 91.0881C33.0162 91.5682 32.7817 92.1295 32.6089 92.6556L33.3311 91.0881ZM32.6089 92.6556C32.4355 93.1835 32.3206 93.6868 32.2491 94.0574L32.6089 92.6556ZM32.2491 94.0574C32.2138 94.2407 32.1888 94.3924 32.1726 94.4995L32.2491 94.0574ZM32.1726 94.4995C32.1247 94.5201 32.067 94.5453 32.0003 94.5753C31.7893 94.6702 31.4884 94.8125 31.1251 95.0038C30.3991 95.386 29.421 95.9653 28.4129 96.7538C26.4013 98.3272 24.2385 100.759 23.765 104.149C23.7421 104.313 23.8565 104.465 24.0206 104.487C24.1847 104.51 24.3363 104.396 24.3592 104.232C24.8023 101.06 26.8313 98.7526 28.7826 97.2264C29.7558 96.4652 30.7019 95.9047 31.4047 95.5347C31.7558 95.3498 32.0454 95.2129 32.2464 95.1225C32.3468 95.0774 32.4251 95.0439 32.4777 95.0218L32.537 94.9974L32.5514 94.9916L32.5546 94.9904" fill="#0F4F72"/>
<path fill-rule="evenodd" clip-rule="evenodd" d="M26.4823 84.9457C26.6473 84.9301 26.7936 85.0512 26.8092 85.2161L27.442 91.9169C27.4576 92.0818 27.3365 92.2282 27.1716 92.2438C27.0066 92.2593 26.8603 92.1382 26.8447 91.9733L26.2119 85.2726C26.1963 85.1076 26.3174 84.9613 26.4823 84.9457Z" fill="#0F4F72"/>
<path fill-rule="evenodd" clip-rule="evenodd" d="M19.02 83.7834C19.1835 83.7562 19.338 83.8666 19.3653 84.03L20.6658 91.8345C20.6931 91.9979 20.5826 92.1525 20.4192 92.1797C20.2558 92.2069 20.1012 92.0965 20.074 91.9331L18.7734 84.1287C18.7462 83.9652 18.8566 83.8107 19.02 83.7834Z" fill="#0F4F72"/>
<path fill-rule="evenodd" clip-rule="evenodd" d="M12.4052 88.2807C12.5663 88.2422 12.7282 88.3417 12.7667 88.5028L14.3029 94.9331C14.3414 95.0942 14.242 95.2561 14.0808 95.2946C13.9197 95.3331 13.7578 95.2336 13.7193 95.0725L12.1831 88.6422C12.1446 88.4811 12.244 88.3192 12.4052 88.2807Z" fill="#0F4F72"/>
<defs>
<linearGradient id="paint0_linear_2112_8570" x1="150.589" y1="17.5732" x2="21.9619" y2="98.0602" gradientUnits="userSpaceOnUse">
<stop stop-color="#25532F"/>
<stop offset="0.55" stop-color="#2F8447"/>
<stop offset="1" stop-color="#226C46"/>
</linearGradient>
<radialGradient id="paint1_radial_2112_8570" cx="0" cy="0" r="1" gradientUnits="userSpaceOnUse" gradientTransform="translate(86.8577 106.327) rotate(59.0128) scale(8.61903 6.52425)">
<stop offset="0.573027" stop-color="white"/>
<stop offset="1" stop-color="#ECF3F8"/>
</radialGradient>
<radialGradient id="paint2_radial_2112_8570" cx="0" cy="0" r="1" gradientUnits="userSpaceOnUse" gradientTransform="translate(67.6049 140.098) rotate(110.906) scale(12.8422 9.22123)">
<stop offset="0.608371" stop-color="white"/>
<stop offset="1" stop-color="#ECF3F8"/>
</radialGradient>
<radialGradient id="paint3_radial_2112_8570" cx="0" cy="0" r="1" gradientUnits="userSpaceOnUse" gradientTransform="translate(52.8841 143.139) rotate(110.906) scale(12.8422 9.22123)">
<stop offset="0.608371" stop-color="white"/>
<stop offset="1" stop-color="#ECF3F8"/>
</radialGradient>
<radialGradient id="paint4_radial_2112_8570" cx="0" cy="0" r="1" gradientUnits="userSpaceOnUse" gradientTransform="translate(61.1515 112.038) rotate(90) scale(23.0813 23.5561)">
<stop offset="0.751143" stop-color="white"/>
<stop offset="1" stop-color="#ECF3F8"/>
</radialGradient>
<radialGradient id="paint5_radial_2112_8570" cx="0" cy="0" r="1" gradientUnits="userSpaceOnUse" gradientTransform="translate(66.4121 58.5044) rotate(99.0062) scale(44.6085 56.1815)">
<stop offset="0.747899" stop-color="white"/>
<stop offset="1" stop-color="#ECF3F8"/>
</radialGradient>
<linearGradient id="paint6_linear_2112_8570" x1="86.6072" y1="53.1103" x2="89.8037" y2="65.3258" gradientUnits="userSpaceOnUse">
<stop stop-color="#66FFFF"/>
<stop offset="1" stop-color="white"/>
</linearGradient>
<linearGradient id="paint7_linear_2112_8570" x1="56.5065" y1="56.8581" x2="60.5753" y2="68.4895" gradientUnits="userSpaceOnUse">
<stop stop-color="#66FFFF"/>
<stop offset="1" stop-color="white"/>
</linearGradient>
<radialGradient id="paint8_radial_2112_8570" cx="0" cy="0" r="1" gradientUnits="userSpaceOnUse" gradientTransform="translate(29.8637 104.069) rotate(125.258) scale(12.8637 13.9873)">
<stop offset="0.573027" stop-color="white"/>
<stop offset="1" stop-color="#ECF3F8"/>
</radialGradient>
</defs>
</svg>
