<svg width="16" height="16" viewBox="0 0 16 16" fill="none" xmlns="http://www.w3.org/2000/svg">
<path d="M6.97847 13.6174C6.97847 13.7528 6.92467 13.8827 6.8289 13.9784C6.73313 14.0742 6.60324 14.128 6.46781 14.128H2.89315C2.62228 14.128 2.3625 14.0204 2.17097 13.8289C1.97943 13.6373 1.87183 13.3776 1.87183 13.1067V2.8934C1.87183 2.62253 1.97943 2.36275 2.17097 2.17121C2.3625 1.97967 2.62228 1.87207 2.89315 1.87207H6.46781C6.60324 1.87207 6.73313 1.92587 6.8289 2.02164C6.92467 2.11741 6.97847 2.2473 6.97847 2.38273C6.97847 2.51817 6.92467 2.64806 6.8289 2.74383C6.73313 2.8396 6.60324 2.8934 6.46781 2.8934H2.89315V13.1067H6.46781C6.60324 13.1067 6.73313 13.1605 6.8289 13.2563C6.92467 13.352 6.97847 13.4819 6.97847 13.6174ZM13.9784 7.63875L11.4251 5.08543C11.3293 4.9896 11.1993 4.93577 11.0638 4.93577C10.9283 4.93577 10.7983 4.9896 10.7025 5.08543C10.6067 5.18125 10.5528 5.31121 10.5528 5.44672C10.5528 5.58223 10.6067 5.71219 10.7025 5.80802L12.3845 7.48938H6.46781C6.33237 7.48938 6.20248 7.54318 6.10671 7.63895C6.01094 7.73472 5.95714 7.86461 5.95714 8.00004C5.95714 8.13548 6.01094 8.26537 6.10671 8.36114C6.20248 8.45691 6.33237 8.51071 6.46781 8.51071H12.3845L10.7025 10.1921C10.6067 10.2879 10.5528 10.4179 10.5528 10.5534C10.5528 10.6889 10.6067 10.8188 10.7025 10.9147C10.7983 11.0105 10.9283 11.0643 11.0638 11.0643C11.1993 11.0643 11.3293 11.0105 11.4251 10.9147L13.9784 8.36134C14.0259 8.31391 14.0635 8.25759 14.0892 8.1956C14.1149 8.1336 14.1282 8.06715 14.1282 8.00004C14.1282 7.93293 14.1149 7.86648 14.0892 7.80449C14.0635 7.7425 14.0259 7.68617 13.9784 7.63875Z" fill="#20B769"/>
</svg>
