<svg width="16" height="16" viewBox="0 0 16 16" fill="none" xmlns="http://www.w3.org/2000/svg">
<path d="M7.9502 14.85C4.4627 14.85 0.700195 12.6625 0.700195 7.8625C0.700195 3.0625 4.4627 0.875 7.9502 0.875C9.8877 0.875 11.6752 1.5125 13.0002 2.675C14.4377 3.95 15.2002 5.75 15.2002 7.8625C15.2002 9.975 14.4377 11.7625 13.0002 13.0375C11.6752 14.2 9.8752 14.85 7.9502 14.85Z" fill="url(#paint0_radial_1982_39118)"/>
<path d="M13.9365 3.70898C14.6027 4.78398 14.9502 6.06398 14.9502 7.48773C14.9502 9.60023 14.1877 11.3877 12.7502 12.6627C11.4252 13.8252 9.62523 14.4752 7.70023 14.4752C5.44273 14.4752 3.07523 13.5565 1.67773 11.6077C3.02273 13.8152 5.55273 14.8502 7.95023 14.8502C9.87523 14.8502 11.6752 14.2002 13.0002 13.0377C14.4377 11.7627 15.2002 9.97523 15.2002 7.86273C15.2002 6.27023 14.7665 4.85523 13.9365 3.70898Z" fill="#E38A00"/>
<path d="M15.1511 11.6842L14.0536 10.8492C13.8336 10.6829 13.5398 10.6542 13.2911 10.7729C13.2811 10.7604 13.2698 10.7492 13.2561 10.7392L12.9536 10.4992C12.7598 10.3454 12.6473 10.1117 12.6473 9.86418V9.54418C12.6473 9.36668 12.5023 9.22168 12.3248 9.22168H11.9086C11.7311 9.22168 11.5861 9.36668 11.5861 9.54418V9.96918C11.5861 10.1467 11.4411 10.2917 11.2636 10.2917H10.8473C10.6698 10.2904 10.5261 10.1467 10.5261 9.96918V9.54418C10.5261 9.36668 10.3811 9.22168 10.2036 9.22168H9.78732C9.60983 9.22168 9.46482 9.36668 9.46482 9.54418V9.96918C9.46482 10.1467 9.31982 10.2917 9.14232 10.2917H8.72732C8.54982 10.2917 8.40482 10.1467 8.40482 9.96918V9.54418C8.40482 9.36668 8.25982 9.22168 8.08232 9.22168H7.66607C7.48857 9.22168 7.34357 9.36668 7.34357 9.54418V9.96918C7.34357 10.1467 7.19857 10.2917 7.02107 10.2917H6.60607C6.42857 10.2917 6.28357 10.1467 6.28357 9.96918V9.54418C6.28357 9.36668 6.13857 9.22168 5.96107 9.22168H5.54482C5.36732 9.22168 5.22232 9.36668 5.22232 9.54418V9.96918C5.22232 10.1467 5.07732 10.2917 4.89982 10.2917H4.48482C4.30732 10.2917 4.16232 10.1467 4.16232 9.96918V9.54418C4.16232 9.36668 4.01732 9.22168 3.83982 9.22168H3.42357C3.24607 9.22168 3.10107 9.36668 3.10107 9.54418V10.7029C3.10232 10.8804 3.24607 11.0242 3.42357 11.0254H3.83982C4.01732 11.0254 4.16107 11.1692 4.16232 11.3467V11.6142C4.16107 11.7917 4.30482 11.9354 4.48232 11.9367C4.48357 11.9367 4.48357 11.9367 4.48482 11.9367H4.89982C5.07732 11.9379 5.22107 11.7942 5.22232 11.6167C5.22232 11.6154 5.22232 11.6154 5.22232 11.6142V11.3467C5.22357 11.1692 5.36732 11.0254 5.54482 11.0254H5.96107C6.13857 11.0254 6.28232 11.1692 6.28357 11.3467V11.6142C6.28232 11.7917 6.42607 11.9354 6.60357 11.9367C6.60482 11.9367 6.60482 11.9367 6.60607 11.9367H7.02107C7.19857 11.9379 7.34232 11.7942 7.34357 11.6167C7.34357 11.6154 7.34357 11.6154 7.34357 11.6142V11.3467C7.34482 11.1692 7.48857 11.0254 7.66607 11.0254H8.08232C8.25982 11.0254 8.40357 11.1692 8.40482 11.3467V11.6142C8.40357 11.7917 8.54733 11.9354 8.72482 11.9367C8.72607 11.9367 8.72607 11.9367 8.72732 11.9367H9.14232C9.31982 11.9379 9.46357 11.7942 9.46482 11.6167C9.46482 11.6154 9.46482 11.6154 9.46482 11.6142V11.3467C9.46607 11.1692 9.60983 11.0254 9.78732 11.0254H10.2036C10.3811 11.0254 10.5248 11.1692 10.5261 11.3467V11.6142C10.5248 11.7917 10.6686 11.9354 10.8461 11.9367H10.8473H11.2636C11.4411 11.9379 11.5848 11.7942 11.5861 11.6167C11.5861 11.6154 11.5861 11.6154 11.5861 11.6142V11.3467C11.5873 11.1692 11.7311 11.0254 11.9086 11.0254H12.0523C12.1498 11.0254 12.2436 11.0579 12.3198 11.1179L12.7136 11.4317L12.7311 11.4417C12.6311 11.7392 12.7323 12.0667 12.9811 12.2567L14.0786 13.0917C14.4036 13.3379 14.8661 13.2742 15.1123 12.9504L15.2898 12.7167C15.5348 12.3929 15.4723 11.9317 15.1511 11.6842ZM13.6336 11.8829C13.5361 12.0129 13.3523 12.0392 13.2223 11.9429C13.2211 11.9417 13.2211 11.9417 13.2198 11.9404C13.0898 11.8429 13.0636 11.6579 13.1611 11.5279C13.1623 11.5267 13.1623 11.5254 13.1636 11.5242L13.4011 11.2117C13.4973 11.0817 13.6811 11.0554 13.8098 11.1517C13.8111 11.1529 13.8123 11.1542 13.8148 11.1554C13.8786 11.2017 13.9198 11.2729 13.9298 11.3504C13.9398 11.4279 13.9198 11.5079 13.8723 11.5704L13.6336 11.8829ZM14.8361 12.3979L14.6898 12.5904C14.5786 12.7367 14.3686 12.7654 14.2223 12.6542L14.0123 12.4992C13.8661 12.3879 13.8373 12.1779 13.9486 12.0317L14.0961 11.8392C14.2073 11.6929 14.4173 11.6642 14.5636 11.7754L14.7723 11.9354C14.9161 12.0467 14.9448 12.2517 14.8361 12.3979Z" fill="#616161"/>
<path d="M10.4697 4.75586C10.931 4.75586 11.3447 5.29711 11.3447 6.19336C11.3447 7.08961 10.926 7.63086 10.4697 7.63086C10.0097 7.63086 9.59473 7.09086 9.59473 6.19336C9.59473 5.29586 10.0097 4.75586 10.4697 4.75586Z" fill="#422B0D"/>
<path d="M5.52734 4.75586C5.06609 4.75586 4.65234 5.29711 4.65234 6.19336C4.65234 7.08961 5.07109 7.63086 5.52734 7.63086C5.98859 7.63086 6.40234 7.09086 6.40234 6.19336C6.40234 5.29586 5.98859 4.75586 5.52734 4.75586Z" fill="#422B0D"/>
<path d="M5.63101 5.34601C5.45101 5.26226 5.23851 5.34101 5.15476 5.52101C5.09101 5.65851 5.12101 5.82101 5.22851 5.92726C5.40851 6.01101 5.62101 5.93226 5.70476 5.75226C5.76851 5.61476 5.73976 5.45226 5.63101 5.34601Z" fill="#896024"/>
<path d="M10.4009 5.346C10.2209 5.2635 10.0084 5.3435 9.92588 5.5235C9.86338 5.65975 9.89338 5.821 9.99963 5.92725C10.1796 6.011 10.3921 5.93225 10.4759 5.75225C10.5396 5.61475 10.5096 5.45225 10.4021 5.346H10.4009Z" fill="#896024"/>
<defs>
<radialGradient id="paint0_radial_1982_39118" cx="0" cy="0" r="1" gradientUnits="userSpaceOnUse" gradientTransform="translate(7.9502 7.8625) scale(7.11996)">
<stop stop-color="#FFDE1E"/>
<stop offset="0.53" stop-color="#FFDD16"/>
<stop offset="0.795" stop-color="#FEC114"/>
<stop offset="0.955" stop-color="#FEA311"/>
<stop offset="1" stop-color="#F49400"/>
</radialGradient>
</defs>
</svg>
