<svg width="20" height="20" viewBox="0 0 20 20" fill="none" xmlns="http://www.w3.org/2000/svg">
<path fill-rule="evenodd" clip-rule="evenodd" d="M16.8571 4H12.2857C11.8422 4 11.4047 4.09036 11.008 4.26393C10.6112 4.4375 10.2661 4.68951 10 5C9.73387 4.68951 9.38877 4.4375 8.99204 4.26393C8.59531 4.09036 8.15784 4 7.71429 4H3.14286C2.83975 4 2.54906 4.10536 2.33474 4.29289C2.12041 4.48043 2 4.73478 2 5V13C2 13.2652 2.12041 13.5196 2.33474 13.7071C2.54906 13.8946 2.83975 14 3.14286 14H7.71429C8.16894 14 8.60498 14.158 8.92647 14.4393C9.24796 14.7206 9.42857 15.1022 9.42857 15.5C9.42857 15.6326 9.48878 15.7598 9.59594 15.8536C9.7031 15.9473 9.84845 16 10 16C10.1516 16 10.2969 15.9473 10.4041 15.8536C10.5112 15.7598 10.5714 15.6326 10.5714 15.5C10.5714 15.1022 10.752 14.7206 11.0735 14.4393C11.395 14.158 11.8311 14 12.2857 14H16.8571C17.1602 14 17.4509 13.8946 17.6653 13.7071C17.8796 13.5196 18 13.2652 18 13V5C18 4.73478 17.8796 4.48043 17.6653 4.29289C17.4509 4.10536 17.1602 4 16.8571 4Z" fill="#C8C8C8"/>
<path d="M8.66671 7.50488C8.57416 7.55244 8.48512 7.6048 8.40004 7.66158C8.25443 7.75874 8.12038 7.86885 8.00004 7.98996C7.58513 8.40757 7.33337 8.95614 7.33337 9.55695C7.33337 10.8653 8.52728 11.9259 10 11.9259C11.4728 11.9259 12.6667 10.8653 12.6667 9.55695C12.6667 8.95614 12.4149 8.40757 12 7.98996C11.8797 7.86885 11.7457 7.75874 11.6 7.66158C11.515 7.6048 11.4259 7.55244 11.3334 7.50488" stroke="white" stroke-linecap="round" stroke-linejoin="round"/>
<path d="M10 7V9.52632" stroke="white" stroke-linecap="round" stroke-linejoin="round"/>
</svg>
