<svg width="16" height="16" viewBox="0 0 16 16" fill="none" xmlns="http://www.w3.org/2000/svg">
<g clip-path="url(#clip0_1982_39122)">
<path d="M8 14.85C4.5125 14.85 0.75 12.6625 0.75 7.8625C0.75 3.0625 4.5125 0.875 8 0.875C9.9375 0.875 11.725 1.5125 13.05 2.675C14.4875 3.95 15.25 5.75 15.25 7.8625C15.25 9.975 14.4875 11.7625 13.05 13.0375C11.725 14.2 9.925 14.85 8 14.85Z" fill="url(#paint0_radial_1982_39122)"/>
<path d="M8 14.85C4.5125 14.85 0.75 12.6625 0.75 7.8625C0.75 3.0625 4.5125 0.875 8 0.875C9.9375 0.875 11.725 1.5125 13.05 2.675C14.4875 3.95 15.25 5.75 15.25 7.8625C15.25 9.975 14.4875 11.7625 13.05 13.0375C11.725 14.2 9.925 14.85 8 14.85Z" fill="url(#paint1_radial_1982_39122)"/>
<path d="M13.9863 3.70898C14.6525 4.78398 15 6.06398 15 7.48773C15 9.60023 14.2375 11.3877 12.8 12.6627C11.475 13.8252 9.67504 14.4752 7.75004 14.4752C5.49254 14.4752 3.12504 13.5565 1.72754 11.6077C3.07254 13.8152 5.60254 14.8502 8.00004 14.8502C9.92504 14.8502 11.725 14.2002 13.05 13.0377C14.4875 11.7627 15.25 9.97523 15.25 7.86273C15.25 6.27023 14.8163 4.85523 13.9863 3.70898Z" fill="#E38A00"/>
<path d="M7.91232 13.7548C9.86189 13.7548 11.4423 12.3708 11.4423 10.6635C11.4423 8.95626 9.86189 7.57227 7.91232 7.57227C5.96276 7.57227 4.38232 8.95626 4.38232 10.6635C4.38232 12.3708 5.96276 13.7548 7.91232 13.7548Z" fill="#422B0D"/>
<path fill-rule="evenodd" clip-rule="evenodd" d="M12.3532 5.95022C12.3533 5.95039 12.3534 5.95055 12.0263 6.13402L12.3534 5.95055C12.4547 6.13118 12.3904 6.35975 12.2098 6.46107C12.0296 6.56214 11.8018 6.49845 11.7001 6.31889C11.7 6.31882 11.7 6.31872 11.6999 6.31861C11.6994 6.31773 11.6982 6.31564 11.6962 6.31241C11.6923 6.30596 11.6856 6.29503 11.676 6.28034C11.6567 6.2509 11.6263 6.20673 11.5846 6.15344C11.5007 6.04621 11.3744 5.90587 11.2064 5.77427C10.8753 5.515 10.3862 5.29034 9.71288 5.41409C9.50918 5.45153 9.3137 5.31675 9.27626 5.11306C9.23882 4.90936 9.3736 4.71389 9.5773 4.67645C10.509 4.5052 11.2105 4.82492 11.6688 5.18377C11.8954 5.36124 12.0635 5.54839 12.1754 5.6914C12.2315 5.76322 12.2742 5.82485 12.3037 5.86993C12.3185 5.8925 12.33 5.91102 12.3382 5.92469C12.3424 5.93153 12.3457 5.93717 12.3482 5.94151L12.3514 5.94703L12.3525 5.94905L12.353 5.94986L12.3532 5.95022Z" fill="#35220B"/>
<path fill-rule="evenodd" clip-rule="evenodd" d="M4.34597 6.31956C4.24388 6.49891 4.0159 6.56213 3.83594 6.4607C3.65553 6.359 3.59171 6.1303 3.69341 5.94988L4.02009 6.13402C3.69341 5.94988 3.6935 5.94972 3.69359 5.94955L3.6938 5.9492L3.69426 5.94838L3.6954 5.94638L3.6986 5.94086C3.70113 5.93653 3.70447 5.9309 3.70861 5.92407C3.71689 5.91042 3.72842 5.89192 3.74322 5.86937C3.77278 5.82433 3.81562 5.76275 3.87193 5.69097C3.98403 5.54806 4.15243 5.36101 4.37921 5.18364C4.83765 4.82508 5.53915 4.50512 6.46928 4.67648C6.67296 4.714 6.80765 4.90954 6.77013 5.11321C6.7326 5.31689 6.53707 5.45159 6.33339 5.41407C5.66227 5.29042 5.17314 5.51484 4.84127 5.7744C4.6729 5.90609 4.54622 6.04654 4.46203 6.15387C4.42019 6.20721 4.38958 6.25142 4.37023 6.2809C4.36058 6.29562 4.35379 6.30656 4.34986 6.31304C4.3479 6.31627 4.34666 6.31837 4.34614 6.31926C4.34607 6.31938 4.34602 6.31948 4.34597 6.31955C4.34597 6.31956 4.34597 6.31956 4.34597 6.31956Z" fill="#35220B"/>
<path d="M10.235 10.7071C9.95753 10.3096 9.23503 10.7159 9.23503 10.7159C9.23503 10.7159 9.61003 10.3896 9.92253 10.0909C10.1225 9.89962 10.2975 9.49212 10.1338 9.21587C9.97003 8.93962 9.49378 8.95712 9.26003 9.10087L8.34378 9.66337C8.34378 9.66337 8.68753 9.51337 8.79128 8.92337C8.85628 8.68462 8.71628 8.43837 8.47753 8.37337C8.43253 8.36087 8.38628 8.35587 8.34003 8.35837C8.12378 8.37712 7.91753 8.45712 7.74378 8.58837C7.08128 9.05837 5.31253 10.2571 4.91628 10.2259C4.76253 10.2134 4.74878 10.1896 5.07253 9.49712C5.29003 9.08212 5.31003 8.59087 5.12753 8.15962C5.02128 7.90962 4.53128 7.84087 4.37753 8.08212C4.26128 8.25962 4.17753 8.69462 3.97503 9.13212C3.63503 9.85087 2.85128 10.8159 2.78753 10.9109C2.32128 11.6009 1.45253 12.8871 2.36253 14.3296C3.16753 15.6071 5.00503 15.6671 5.94628 15.3296C7.74503 14.6921 9.40128 13.4671 9.43253 13.4421C9.76003 13.1821 10.0575 12.8009 9.92253 12.4534C9.75628 12.0234 9.20503 12.2784 9.20503 12.2784C9.52378 12.0846 9.81003 11.8409 10.0513 11.5559C10.28 11.2609 10.4213 10.9759 10.235 10.7071Z" fill="url(#paint2_radial_1982_39122)"/>
<path d="M10.1998 11.6716C10.3473 11.4816 10.6923 11.0379 10.3898 10.6016C10.281 10.4479 10.1298 10.3516 9.95354 10.3216C10.2498 10.0754 10.5673 9.50036 10.2285 9.02786C10.1023 8.85161 9.86104 8.71411 9.47729 8.80286C9.20104 8.86661 8.95354 9.07036 8.95354 9.07036C8.96229 9.03661 9.17979 8.42286 8.42854 8.27036C8.12604 8.20911 7.78229 8.40911 7.58479 8.55786C6.44354 9.36786 4.96229 10.1379 5.01228 10.0316C5.49354 9.44786 5.59104 8.58411 5.29479 8.07161C5.18979 7.82286 4.54979 7.63661 4.34104 7.97911C4.16979 8.26036 4.05604 8.93286 3.73604 9.46786C3.48854 9.88161 2.35854 11.3054 2.15479 12.0104C2.15479 12.0104 2.43104 11.5991 2.86729 11.0179C3.33104 10.3979 3.96104 9.59536 4.14729 9.21161C4.31604 8.87036 4.39479 8.46161 4.53729 8.18411C4.60729 8.06786 4.89104 7.95786 5.07354 8.31536C5.25729 8.67286 5.16854 9.10536 4.91604 9.58911C4.65604 10.1441 4.54104 10.1654 4.65854 10.2879C5.05604 10.6966 7.34978 9.06036 7.85853 8.74036C8.00353 8.63036 8.17604 8.56411 8.34979 8.54786C8.69229 8.49911 8.67479 8.97911 8.67479 8.97911C8.57854 9.37286 8.51729 9.37286 8.12479 9.70286C7.84604 9.93661 6.85978 10.6541 6.21978 10.9766C6.21978 10.9766 6.23104 11.1229 6.52729 11.0391C6.82479 10.9554 7.99104 10.2216 8.61979 9.71786C8.61979 9.71786 9.43479 9.02161 9.78229 9.11911C10.1348 9.21911 10.1035 9.46411 9.99229 9.69661C9.88104 9.92911 9.59353 10.2091 9.13603 10.5579C8.31353 11.1829 7.03979 12.0354 7.03979 12.0354C7.03979 12.0354 7.06603 12.1604 7.31353 12.0891C7.81728 11.9429 9.38979 10.7779 9.38979 10.7779C9.51229 10.6829 9.92229 10.5516 10.0823 10.8204C10.1685 10.9466 10.1485 11.1529 9.84604 11.5104C9.48603 11.9391 8.38729 12.6866 7.43229 13.2291C7.43229 13.2291 7.50479 13.3516 7.76854 13.2616C8.03104 13.1716 9.12229 12.5079 9.29479 12.4504C9.46729 12.3929 9.63979 12.3379 9.75479 12.5416C9.89104 12.8229 9.70854 13.0454 9.34729 13.3329C9.33229 13.3441 7.61229 14.6891 5.82354 15.2941C4.87854 15.6141 3.82229 15.4491 2.61104 14.6579C3.34604 15.5454 4.95104 15.9416 6.03979 15.5441C7.87104 14.8741 9.56604 13.6379 9.57979 13.6266C9.84229 13.4179 10.3885 12.9854 10.0873 12.3666C10.0085 12.2279 9.90353 12.1416 9.78854 12.0929C9.93354 11.9616 10.071 11.8229 10.1998 11.6716Z" fill="#E38A00"/>
<path d="M7.39357 14.8235C7.93857 14.851 8.44982 14.8385 8.44982 14.8385C9.25232 14.391 9.98982 13.3235 10.0748 13.0898C10.1598 12.856 7.03732 14.8048 7.39357 14.8235Z" fill="#E38A00"/>
</g>
<defs>
<radialGradient id="paint0_radial_1982_39122" cx="0" cy="0" r="1" gradientUnits="userSpaceOnUse" gradientTransform="translate(8 7.86249) scale(7.11996)">
<stop offset="0.5" stop-color="#FDE030"/>
<stop offset="0.92" stop-color="#F7C02B"/>
<stop offset="1" stop-color="#F4A223"/>
</radialGradient>
<radialGradient id="paint1_radial_1982_39122" cx="0" cy="0" r="1" gradientUnits="userSpaceOnUse" gradientTransform="translate(8 7.8625) scale(7.11996)">
<stop stop-color="#FFDE1E"/>
<stop offset="0.53" stop-color="#FFDD16"/>
<stop offset="0.795" stop-color="#FEC114"/>
<stop offset="0.955" stop-color="#FEA311"/>
<stop offset="1" stop-color="#F49400"/>
</radialGradient>
<radialGradient id="paint2_radial_1982_39122" cx="0" cy="0" r="1" gradientUnits="userSpaceOnUse" gradientTransform="translate(6.26754 10.0934) scale(8.1325)">
<stop offset="0.27" stop-color="#FFF176"/>
<stop offset="1" stop-color="#FFC400"/>
</radialGradient>
<clipPath id="clip0_1982_39122">
<rect width="16" height="16" fill="white"/>
</clipPath>
</defs>
</svg>
