<svg width="16" height="18" viewBox="0 0 16 18" fill="none" xmlns="http://www.w3.org/2000/svg">
<g id="ic">
<path id="Vector" d="M13.8333 2.33268H13V0.666016H11.3333V2.33268H4.66667V0.666016H3V2.33268H2.16667C1.24167 2.33268 0.508333 3.08268 0.508333 3.99935L0.5 15.666C0.5 16.5827 1.24167 17.3327 2.16667 17.3327H13.8333C14.75 17.3327 15.5 16.5827 15.5 15.666V3.99935C15.5 3.08268 14.75 2.33268 13.8333 2.33268ZM13.8333 15.666H2.16667V7.33268H13.8333V15.666ZM13.8333 5.66602H2.16667V3.99935H13.8333V5.66602ZM5.5 10.666H3.83333V8.99935H5.5V10.666ZM8.83333 10.666H7.16667V8.99935H8.83333V10.666ZM12.1667 10.666H10.5V8.99935H12.1667V10.666ZM5.5 13.9993H3.83333V12.3327H5.5V13.9993ZM8.83333 13.9993H7.16667V12.3327H8.83333V13.9993ZM12.1667 13.9993H10.5V12.3327H12.1667V13.9993Z" fill="#999999"/>
</g>
</svg>
