<svg width="12" height="12" viewBox="0 0 12 12" fill="none" xmlns="http://www.w3.org/2000/svg">
<g id="courseware_icon" clip-path="url(#clip0_5993_15912)">
<path id="Vector" d="M6.59766 11.1633L7.02794 11.418L6.59766 11.1633ZM6.89581 10.6596L6.46554 10.4049L6.89581 10.6596ZM5.10416 10.6596L4.67389 10.9142V10.9142L5.10416 10.6596ZM5.40232 11.1633L5.83259 10.9086L5.40232 11.1633ZM0.709331 8.15241L1.17127 7.96107V7.96107L0.709331 8.15241ZM3.68427 9.84534L3.67565 10.3453L3.68427 9.84534ZM2.19762 9.64071L2.00628 10.1026L2.00628 10.1026L2.19762 9.64071ZM11.2907 8.15241L11.7526 8.34375V8.34375L11.2907 8.15241ZM8.31571 9.84534L8.30709 9.34541L8.31571 9.84534ZM9.80238 9.64071L9.99372 10.1026H9.99372L9.80238 9.64071ZM10.1869 0.905241L9.92562 1.33156H9.92562L10.1869 0.905241ZM11.0948 1.81313L11.5211 1.55189V1.55189L11.0948 1.81313ZM1.81313 0.905241L1.55188 0.478922V0.478922L1.81313 0.905241ZM0.90524 1.81313L0.478919 1.55189L0.478919 1.55189L0.90524 1.81313ZM4.57154 9.96545L4.82292 9.53324L4.82292 9.53324L4.57154 9.96545ZM7.02794 11.418L7.32609 10.9142L6.46554 10.4049L6.16738 10.9086L7.02794 11.418ZM4.67389 10.9142L4.97204 11.418L5.83259 10.9086L5.53444 10.4049L4.67389 10.9142ZM6.16738 10.9086C6.09525 11.0305 5.90473 11.0305 5.83259 10.9086L4.97204 11.418C5.43139 12.194 6.56859 12.194 7.02794 11.418L6.16738 10.9086ZM5.175 1H6.825V0H5.175V1ZM11 5.17502V5.72502H12V5.17502H11ZM1 5.72502V5.17502H0V5.72502H1ZM0 5.72502C0 6.35885 -0.000270784 6.85927 0.0273262 7.26374C0.0552295 7.67271 0.113284 8.01999 0.247391 8.34375L1.17127 7.96107C1.09605 7.77946 1.04944 7.55372 1.02501 7.19567C1.00027 6.83313 1 6.37254 1 5.72502H0ZM3.69288 9.34541C3.00238 9.33352 2.65568 9.28925 2.38896 9.17877L2.00628 10.1026C2.46589 10.293 2.98526 10.3334 3.67565 10.3453L3.69288 9.34541ZM0.247391 8.34375C0.577246 9.1401 1.20994 9.77279 2.00628 10.1026L2.38896 9.17877C1.83765 8.95041 1.39963 8.51239 1.17127 7.96107L0.247391 8.34375ZM11 5.72502C11 6.37254 10.9997 6.83313 10.975 7.19567C10.9506 7.55372 10.904 7.77946 10.8287 7.96107L11.7526 8.34375C11.8867 8.01999 11.9448 7.67271 11.9727 7.26374C12.0003 6.85927 12 6.35885 12 5.72502H11ZM8.32432 10.3453C9.01472 10.3334 9.53411 10.293 9.99372 10.1026L9.61104 9.17877C9.34432 9.28925 8.99761 9.33352 8.30709 9.34541L8.32432 10.3453ZM10.8287 7.96107C10.6004 8.51239 10.1623 8.95041 9.61104 9.17877L9.99372 10.1026C10.7901 9.77279 11.4228 9.1401 11.7526 8.34375L10.8287 7.96107ZM6.825 1C7.73488 1 8.38217 1.00053 8.88577 1.04841C9.38193 1.09559 9.68674 1.18517 9.92562 1.33156L10.4481 0.478922C10.0257 0.220067 9.54978 0.107035 8.98042 0.0529C8.41851 -0.000527501 7.71551 0 6.825 0V1ZM12 5.17502C12 4.2845 12.0005 3.58151 11.9471 3.01959C11.893 2.45023 11.7799 1.9743 11.5211 1.55189L10.6684 2.07438C10.8148 2.31326 10.9044 2.61808 10.9516 3.11424C10.9995 3.61784 11 4.26514 11 5.17502H12ZM9.92562 1.33156C10.2284 1.51709 10.4829 1.77163 10.6684 2.07438L11.5211 1.55189C11.2531 1.11458 10.8854 0.746904 10.4481 0.478922L9.92562 1.33156ZM5.175 0C4.28449 0 3.58149 -0.000527501 3.01958 0.0529C2.45022 0.107035 1.97429 0.220067 1.55188 0.478922L2.07438 1.33156C2.31326 1.18517 2.61807 1.09559 3.11423 1.04841C3.61783 1.00053 4.26513 1 5.175 1V0ZM1 5.17502C1 4.26514 1.00053 3.61784 1.04841 3.11424C1.09559 2.61808 1.18517 2.31326 1.33156 2.07438L0.478919 1.55189C0.220066 1.9743 0.107035 2.45023 0.0528998 3.01959C-0.000527501 3.58151 0 4.2845 0 5.17502H1ZM1.55188 0.478922C1.11457 0.746904 0.7469 1.11458 0.478919 1.55189L1.33156 2.07438C1.51709 1.77163 1.77163 1.51709 2.07438 1.33156L1.55188 0.478922ZM5.53444 10.4049C5.42361 10.2176 5.32319 10.0469 5.22484 9.912C5.12035 9.76862 4.99675 9.63434 4.82292 9.53324L4.32015 10.3977C4.33206 10.4046 4.35914 10.422 4.41671 10.501C4.48043 10.5884 4.55345 10.7108 4.67389 10.9142L5.53444 10.4049ZM3.67565 10.3453C3.91878 10.3495 4.06699 10.3525 4.17861 10.3649C4.28095 10.3762 4.30989 10.3917 4.32015 10.3977L4.82292 9.53324C4.64744 9.43118 4.4666 9.39065 4.28866 9.37095C4.12 9.35227 3.91744 9.34928 3.69288 9.34541L3.67565 10.3453ZM7.32609 10.9142C7.44653 10.7108 7.51955 10.5884 7.58327 10.501C7.64084 10.422 7.66792 10.4046 7.67982 10.3977L7.17706 9.53324C7.00323 9.63434 6.87963 9.76862 6.77513 9.912C6.67679 10.0469 6.57636 10.2176 6.46554 10.4049L7.32609 10.9142ZM8.30709 9.34541C8.08253 9.34928 7.87998 9.35227 7.71131 9.37095C7.53338 9.39065 7.35253 9.43118 7.17706 9.53324L7.67982 10.3977C7.69008 10.3917 7.71903 10.3762 7.82137 10.3649C7.93299 10.3525 8.0812 10.3495 8.32432 10.3453L8.30709 9.34541Z" fill="#0078B8"/>
<path id="Vector_2" d="M4 4.5H8" stroke="#0078B8" stroke-width="1.2" stroke-linecap="round"/>
<path id="Vector_3" d="M4 6.5H6.75" stroke="#0078B8" stroke-width="1.2" stroke-linecap="round"/>
</g>
<defs>
<clipPath id="clip0_5993_15912">
<rect width="12" height="12" fill="white"/>
</clipPath>
</defs>
</svg>
