<svg width="12" height="12" viewBox="0 0 12 12" fill="none" xmlns="http://www.w3.org/2000/svg">
<g id="courseware_icon">
<path id="Vector" d="M1.5 5.5C1.5 4.08579 1.5 3.37868 1.93934 2.93934C2.37868 2.5 3.08579 2.5 4.5 2.5H6C7.41421 2.5 8.12132 2.5 8.56066 2.93934C9 3.37868 9 4.08579 9 5.5V8C9 9.41421 9 10.1213 8.56066 10.5607C8.12132 11 7.41421 11 6 11H4.5C3.08579 11 2.37868 11 1.93934 10.5607C1.5 10.1213 1.5 9.41421 1.5 8V5.5Z" stroke="black"/>
<path id="Vector_2" d="M3.5 1H6.5C8.38562 1 9.32843 1 9.91421 1.58579C10.5 2.17157 10.5 3.11438 10.5 5V9" stroke="black" stroke-linecap="round"/>
</g>
</svg>
