<svg width="16" height="16" viewBox="0 0 16 16" fill="none" xmlns="http://www.w3.org/2000/svg">
<path fill-rule="evenodd" clip-rule="evenodd" d="M2 1.5C1.72386 1.5 1.5 1.72386 1.5 2V10.6667C1.5 10.9428 1.72386 11.1667 2 11.1667H10.6667C10.9428 11.1667 11.1667 10.9428 11.1667 10.6667V2C11.1667 1.72386 10.9428 1.5 10.6667 1.5H2ZM2.5 10.1667V2.5H10.1667V10.1667H2.5ZM11.6966 4.16602C11.4205 4.16602 11.1966 4.38987 11.1966 4.66602C11.1966 4.94216 11.4205 5.16602 11.6966 5.16602H13.4999V13.4993H5.83325V11.6961C5.83325 11.4199 5.60939 11.1961 5.33325 11.1961C5.05711 11.1961 4.83325 11.4199 4.83325 11.6961V13.9993C4.83325 14.2755 5.05711 14.4993 5.33325 14.4993H13.9999C14.2761 14.4993 14.4999 14.2755 14.4999 13.9993V4.66602C14.4999 4.38987 14.2761 4.16602 13.9999 4.16602H11.6966Z" fill="#0078B8"/>
</svg>
