<svg width="93" height="20" viewBox="0 0 93 20" fill="none" xmlns="http://www.w3.org/2000/svg">
<rect width="92.5" height="20" rx="10" fill="url(#paint0_linear_3804_49744)"/>
<path d="M12.0736 14.333H10.2279L13.0876 6.08431H15.2865L18.1348 14.333H16.3005L15.6852 12.4303H12.7002L12.0736 14.333ZM13.1331 11.0973H15.2523L14.2155 7.94141H14.1585L13.1331 11.0973ZM20.778 6.08431V14.333H19.069V6.08431H20.778ZM33.9258 11.2227V12.4076H29.904V15.3926H28.4684V12.4076H24.4694V11.2227H33.9258ZM33.0599 6.20964V7.34896H29.9495C30.1147 8.26042 31.2826 9.28581 33.4245 9.52507L32.9004 10.6644C31.1458 10.465 29.8755 9.74723 29.1976 8.7959C28.5254 9.75863 27.2437 10.465 25.472 10.6644L24.9479 9.52507C27.0898 9.28581 28.269 8.26611 28.4456 7.34896H25.3239V6.20964H28.4684V5.02474H29.904V6.20964H33.0599ZM38.3691 7.4515C38.3691 8.61361 39.1325 9.8099 40.8187 10.3226L40.1237 11.4505C38.9616 11.1201 38.1413 10.408 37.6742 9.50228C37.2127 10.4821 36.3867 11.2511 35.1904 11.6214L34.484 10.4821C36.1702 9.98079 36.9222 8.71615 36.9222 7.4515V7.37175H34.8372V6.23242H36.9222V5.08171H38.3919V6.23242H40.4655V7.37175H38.3691V7.4515ZM43.291 5.02474V12.7152H41.8441V9.21745H40.1237V8.04395H41.8441V5.02474H43.291ZM43.5417 14.0368V15.1989H36.4095V12.0544H37.8678V14.0368H43.5417ZM50.7878 5.9362V7.08691H44.6354V5.9362H46.9938V4.95638H48.4408V5.9362H50.7878ZM47.7116 7.41732C49.2155 7.41732 50.2637 8.19206 50.2637 9.33138C50.2637 10.4707 49.2155 11.2454 47.7116 11.2454C46.2077 11.2454 45.1367 10.4707 45.1367 9.33138C45.1367 8.19206 46.2077 7.41732 47.7116 7.41732ZM47.7116 8.51107C47.0166 8.51107 46.5495 8.7959 46.5609 9.33138C46.5495 9.85547 47.0166 10.1289 47.7116 10.1289C48.4066 10.1289 48.8851 9.85547 48.8851 9.33138C48.8851 8.7959 48.4066 8.51107 47.7116 8.51107ZM52.8613 5.01335V7.70215H54.2627V8.88704H52.8613V11.5189H51.403V5.01335H52.8613ZM52.8613 11.9518V15.3812H51.403V13.1139H45.8773V11.9518H52.8613ZM57.2591 11.234V12.1113H61.5316V11.234H62.9785V15.2673H55.8236V11.234H57.2591ZM57.2591 14.1279H61.5316V13.2165H57.2591V14.1279ZM64.1748 9.53646V10.71H54.7184V9.53646H64.1748ZM60.1986 5.46908C60.1986 6.50586 61.3949 7.67936 63.7077 7.94141L63.195 9.08073C61.4062 8.85286 60.1131 8.11231 59.4466 7.1097C58.7801 8.11231 57.4813 8.85286 55.7096 9.08073L55.1855 7.94141C57.4984 7.66797 58.6947 6.52865 58.7061 5.46908V5.11589H60.1986V5.46908ZM73.7679 5.01335V15.3812H72.3893V5.01335H73.7679ZM71.6488 5.18425V14.9027H70.2816V9.74154H68.9144V8.56803H70.2816V5.18425H71.6488ZM68.0827 7.79329C68.0827 9.51367 68.6182 11.2568 70.1335 12.1227L69.279 13.1937C68.3561 12.6468 67.7466 11.7183 67.3991 10.6074C67.0402 11.8151 66.4136 12.8405 65.4622 13.4215L64.585 12.3506C66.1117 11.4163 66.6813 9.54785 66.6813 7.79329V7.23503H64.9837V6.07292H69.6549V7.23503H68.0827V7.79329ZM79.5557 11.4733C81.8229 11.4733 83.2471 12.1911 83.2585 13.4329C83.2471 14.652 81.8229 15.3812 79.5557 15.3812C77.3112 15.3812 75.8643 14.652 75.8643 13.4329C75.8643 12.1911 77.3112 11.4733 79.5557 11.4733ZM79.5557 12.5557C78.1315 12.5557 77.3112 12.8519 77.3112 13.4329C77.3112 13.9912 78.1315 14.276 79.5557 14.276C80.9798 14.276 81.8115 13.9912 81.8115 13.4329C81.8115 12.8519 80.9798 12.5557 79.5557 12.5557ZM83.2015 5.48047V6.32357C83.2015 7.14388 83.2015 8.03255 82.9053 9.10352L81.4811 8.9668C81.709 8.02686 81.7375 7.32617 81.7546 6.61979H75.9668V5.48047H83.2015ZM84.318 9.639V10.8125H74.9072V9.639H78.4391V7.82747H79.8747V9.639H84.318Z" fill="white"/>
<defs>
<linearGradient id="paint0_linear_3804_49744" x1="92.5" y1="20" x2="0" y2="20" gradientUnits="userSpaceOnUse">
<stop stop-color="#2C7BF7"/>
<stop offset="0.525" stop-color="#6C2EF7"/>
<stop offset="1" stop-color="#2E78F7"/>
</linearGradient>
</defs>
</svg>
