<svg width="16" height="16" viewBox="0 0 16 16" fill="none" xmlns="http://www.w3.org/2000/svg">
<path fill-rule="evenodd" clip-rule="evenodd" d="M13.0017 4.93526C14.1151 4.93526 15 4.04465 15 2.96763C15 1.89061 14.1151 1 13.0017 1C11.8884 1 11.0034 1.89061 11.0034 2.96763C11.0034 4.04465 11.8884 4.93526 13.0017 4.93526ZM13.0017 5.93526C14.6576 5.93526 16 4.60661 16 2.96763C16 1.32865 14.6576 0 13.0017 0C11.3458 0 10.0034 1.32865 10.0034 2.96763C10.0034 3.15702 10.0213 3.34226 10.0556 3.52179L5.21426 6.00367C4.66592 5.40857 3.87617 5.03516 2.99831 5.03516C1.34239 5.03516 0 6.36381 0 8.00279C0 9.64176 1.34239 10.9704 2.99831 10.9704C3.83347 10.9704 4.58889 10.6324 5.13255 10.0871L10.0174 12.746C10.0081 12.8408 10.0034 12.9369 10.0034 13.034C10.0034 14.673 11.3458 16.0017 13.0017 16.0017C14.6576 16.0017 16 14.673 16 13.034C16 11.3951 14.6576 10.0664 13.0017 10.0664C11.8105 10.0664 10.7816 10.7539 10.2979 11.7499L5.71675 9.2564C5.89632 8.87557 5.99661 8.45077 5.99661 8.00279C5.99661 7.5923 5.91241 7.20127 5.76016 6.84571L10.4106 4.46172C10.9305 5.34307 11.8962 5.93526 13.0017 5.93526ZM2.99831 9.97042C4.11166 9.97042 4.99661 9.07981 4.99661 8.00279C4.99661 6.92577 4.11166 6.03516 2.99831 6.03516C1.88495 6.03516 1 6.92577 1 8.00279C1 9.07981 1.88495 9.97042 2.99831 9.97042ZM15 13.034C15 14.1111 14.1151 15.0017 13.0017 15.0017C11.8884 15.0017 11.0034 14.1111 11.0034 13.034C11.0034 11.957 11.8884 11.0664 13.0017 11.0664C14.1151 11.0664 15 11.957 15 13.034Z" fill="#20B769"/>
</svg>
