<svg width="16" height="16" viewBox="0 0 16 16" fill="none" xmlns="http://www.w3.org/2000/svg">
<g clip-path="url(#clip0_1982_39100)">
<path d="M7.9502 14.85C4.4627 14.85 0.700195 12.6625 0.700195 7.8625C0.700195 3.0625 4.4627 0.875 7.9502 0.875C9.8877 0.875 11.6752 1.5125 13.0002 2.675C14.4377 3.95 15.2002 5.75 15.2002 7.8625C15.2002 9.975 14.4377 11.7625 13.0002 13.0375C11.6752 14.2 9.8752 14.85 7.9502 14.85Z" fill="url(#paint0_radial_1982_39100)"/>
<path d="M13.9365 3.70898C14.6027 4.78398 14.9502 6.06398 14.9502 7.48773C14.9502 9.60023 14.1877 11.3877 12.7502 12.6627C11.4252 13.8252 9.62523 14.4752 7.70023 14.4752C5.44273 14.4752 3.07023 13.5565 1.67773 11.6077C3.02273 13.8152 5.55148 14.8502 7.95023 14.8502C9.87523 14.8502 11.6752 14.2002 13.0002 13.0377C14.4377 11.7627 15.2002 9.97523 15.2002 7.86273C15.2002 6.27023 14.7665 4.85523 13.9365 3.70898Z" fill="#E38A00"/>
<path opacity="0.8" d="M3.40625 10.041C4.61437 10.041 5.59375 9.06164 5.59375 7.85352C5.59375 6.64539 4.61437 5.66602 3.40625 5.66602C2.19813 5.66602 1.21875 6.64539 1.21875 7.85352C1.21875 9.06164 2.19813 10.041 3.40625 10.041Z" fill="url(#paint1_radial_1982_39100)"/>
<path opacity="0.8" d="M12.5938 10.041C13.8019 10.041 14.7812 9.06164 14.7812 7.85352C14.7812 6.64539 13.8019 5.66602 12.5938 5.66602C11.3856 5.66602 10.4062 6.64539 10.4062 7.85352C10.4062 9.06164 11.3856 10.041 12.5938 10.041Z" fill="url(#paint2_radial_1982_39100)"/>
<path d="M12.5861 8.12997C11.3023 8.87497 9.71734 9.31622 7.99984 9.31622C6.28234 9.31622 4.69734 8.87497 3.41359 8.12997C3.17734 7.99372 2.92984 8.28872 3.10609 8.49497C4.26859 9.85372 6.02859 10.72 7.99984 10.72C9.97109 10.72 11.7311 9.85372 12.8936 8.49497C13.0711 8.28747 12.8223 7.99247 12.5861 8.12997Z" fill="#422B0D"/>
<path d="M6.19513 5.51484C6.19513 5.51484 6.18888 5.50609 6.17513 5.48984C6.16263 5.47359 6.14513 5.45109 6.12263 5.42234C6.10388 5.40234 6.08138 5.37859 6.05513 5.35109C6.02888 5.32109 5.99638 5.28984 5.96388 5.25734C5.93013 5.22609 5.89513 5.19359 5.85888 5.16734C5.82388 5.13859 5.78513 5.11734 5.75388 5.09984C5.72138 5.07984 5.69138 5.07484 5.67263 5.06859C5.66263 5.06484 5.65388 5.06484 5.64638 5.06359C5.64263 5.06484 5.63888 5.06234 5.63513 5.06359L5.63013 5.06484H5.62763H5.62638C5.64138 5.06484 5.59263 5.06609 5.66013 5.06359L5.59138 5.06609C5.57388 5.06609 5.58513 5.06734 5.58638 5.06734C5.59013 5.06734 5.59263 5.06734 5.59513 5.06609C5.60513 5.06234 5.59513 5.06609 5.59263 5.06609C5.58888 5.06609 5.58388 5.06734 5.57888 5.06984C5.55888 5.07609 5.52888 5.08109 5.49763 5.10109C5.46638 5.11859 5.42763 5.13984 5.39263 5.16859C5.35763 5.19609 5.32138 5.22734 5.28763 5.25859C5.22263 5.32234 5.16513 5.38609 5.12513 5.43234C5.08388 5.47984 5.06138 5.50734 5.06138 5.50734L5.03263 5.54109C4.86138 5.74109 4.54638 5.77484 4.33013 5.61734C4.18263 5.50984 4.11888 5.34234 4.14638 5.18234C4.14638 5.18234 4.15513 5.13109 4.18013 5.04234C4.20638 4.95359 4.25013 4.82734 4.33638 4.67859C4.42263 4.53109 4.54763 4.35734 4.75888 4.19859C4.86263 4.12109 4.98888 4.04359 5.13888 3.99109C5.17513 3.97734 5.21388 3.96484 5.25388 3.95484C5.29513 3.94484 5.32763 3.93359 5.38388 3.92609L5.46138 3.91484C5.48513 3.91234 5.52013 3.90859 5.52513 3.90859L5.59388 3.90359L5.63263 3.90234H5.63638H5.64388L5.66013 3.90359L5.69263 3.90484L5.75638 3.90859C5.79888 3.91234 5.84013 3.91984 5.88138 3.92609C5.96263 3.94109 6.04388 3.96234 6.11763 3.98984C6.26763 4.04234 6.39388 4.11859 6.49763 4.19734C6.70888 4.35609 6.83388 4.52984 6.92013 4.67734C6.96388 4.75109 6.99638 4.82109 7.02013 4.88234C7.04638 4.94109 7.06513 5.00359 7.08013 5.04984C7.09388 5.09484 7.09388 5.11859 7.10013 5.13984C7.10388 5.15984 7.10513 5.17109 7.10513 5.17109C7.15138 5.42359 6.96513 5.66234 6.69138 5.70359C6.49263 5.73484 6.30388 5.65484 6.19513 5.51484Z" fill="#422B0D"/>
<path d="M10.8824 5.51484C10.8824 5.51484 10.8762 5.50609 10.8624 5.48984C10.8499 5.47359 10.8324 5.45109 10.8099 5.42234C10.7912 5.40234 10.7687 5.37859 10.7424 5.35109C10.7162 5.32109 10.6837 5.28984 10.6512 5.25734C10.6174 5.22609 10.5824 5.19359 10.5462 5.16734C10.5112 5.13859 10.4724 5.11734 10.4412 5.09984C10.4087 5.07984 10.3787 5.07484 10.3599 5.06859C10.3499 5.06484 10.3412 5.06484 10.3337 5.06359C10.3299 5.06484 10.3262 5.06234 10.3224 5.06359L10.3174 5.06484H10.3149H10.3137H10.3124C10.3274 5.06484 10.2787 5.06609 10.3462 5.06359L10.2774 5.06609C10.2599 5.06609 10.2712 5.06734 10.2724 5.06734C10.2762 5.06734 10.2787 5.06734 10.2812 5.06609C10.2912 5.06234 10.2812 5.06609 10.2787 5.06609C10.2749 5.06609 10.2699 5.06734 10.2649 5.06984C10.2449 5.07609 10.2149 5.08109 10.1837 5.10109C10.1524 5.11859 10.1137 5.13984 10.0787 5.16859C10.0437 5.19609 10.0074 5.22734 9.97366 5.25859C9.90866 5.32234 9.85116 5.38609 9.81116 5.43234C9.76991 5.47984 9.74741 5.50734 9.74741 5.50734L9.71866 5.54109C9.54741 5.74109 9.23241 5.77484 9.01616 5.61734C8.86866 5.50984 8.80491 5.34234 8.83241 5.18234C8.83241 5.18234 8.84116 5.13109 8.86616 5.04234C8.89241 4.95359 8.93616 4.82734 9.02241 4.67859C9.10866 4.53109 9.23366 4.35734 9.44491 4.19859C9.54866 4.12109 9.67491 4.04359 9.82491 3.99109C9.86116 3.97734 9.89991 3.96484 9.93991 3.95484C9.98116 3.94484 10.0137 3.93359 10.0699 3.92609L10.1474 3.91484C10.1712 3.91234 10.2062 3.90859 10.2112 3.90859L10.2799 3.90359L10.3187 3.90234H10.3224H10.3299L10.3462 3.90359L10.3787 3.90484L10.4424 3.90859C10.4849 3.91234 10.5262 3.91984 10.5674 3.92609C10.6487 3.94109 10.7299 3.96234 10.8037 3.98984C10.9537 4.04234 11.0799 4.11859 11.1837 4.19734C11.3949 4.35609 11.5199 4.52984 11.6062 4.67734C11.6499 4.75109 11.6824 4.82109 11.7062 4.88234C11.7324 4.94109 11.7512 5.00359 11.7662 5.04984C11.7799 5.09484 11.7799 5.11859 11.7862 5.13984C11.7899 5.15984 11.7912 5.17109 11.7912 5.17109C11.8374 5.42359 11.6512 5.66234 11.3774 5.70359C11.1787 5.73484 10.9899 5.65484 10.8824 5.51484Z" fill="#422B0D"/>
<path d="M13.8475 0.152623C12.965 0.506373 12.8875 1.51012 12.8875 1.51012C12.8875 1.51012 12.3087 0.883873 11.525 1.14762C10.5837 1.46512 10.11 2.47512 10.8725 3.56512C11.745 4.81137 14.545 5.16637 14.545 5.16637C14.545 5.16637 16.1112 3.12012 15.8937 1.49762C15.7175 0.178872 14.515 -0.114877 13.8475 0.152623Z" fill="#F42F21"/>
<path d="M13.8476 0.152623C13.8476 0.152623 13.6314 0.241373 13.5464 0.325123C13.5464 0.325123 14.1414 0.263873 14.6801 0.571373C15.0351 0.773873 15.3651 1.13637 15.4851 1.78262C15.7439 3.18262 14.6389 5.02012 14.5539 5.15512C14.6676 5.00387 16.1039 3.05637 15.8951 1.49762C15.7176 0.178872 14.5151 -0.114877 13.8476 0.152623Z" fill="#C62828"/>
<path d="M12.9712 1.62C12.8849 1.51625 12.7824 1.42625 12.7199 1.37625C12.4049 1.125 12.1424 1.06 11.8024 1.09125C11.4624 1.12125 11.1587 1.31125 11.1587 1.31125C11.1587 1.31125 11.4887 1.18625 11.9574 1.41C12.2037 1.5275 12.4199 1.7025 12.6012 1.9075C12.6662 1.98125 12.7312 2.06125 12.8187 2.105C12.9062 2.14875 13.0287 2.1425 13.0887 2.06375C13.1824 1.93625 13.0924 1.765 12.9712 1.62Z" fill="#C62828"/>
<path d="M10.9276 2.51601C10.9351 2.18476 11.0563 1.77976 11.4551 1.76101C11.6676 1.75101 11.8788 2.02351 11.8051 2.27601C11.6801 2.70351 11.7726 2.85101 11.8288 2.98976C11.8951 3.15726 11.9963 3.33976 11.9251 3.50476C11.8538 3.66976 11.6876 3.68101 11.4738 3.53851C11.4263 3.50851 10.9126 3.19351 10.9276 2.51601Z" fill="#FF847A"/>
<path d="M14.539 12.0329C13.7415 11.5154 12.8765 12.0304 12.8765 12.0304C12.8765 12.0304 13.0552 11.1966 12.3877 10.7079C11.5865 10.1204 10.4877 10.3166 10.0365 11.5679C9.52023 12.9991 10.844 15.4916 10.844 15.4916C10.844 15.4916 13.419 15.5929 14.619 14.4804C15.5952 13.5766 15.1415 12.4241 14.539 12.0329Z" fill="#F42F21"/>
<path d="M14.5392 12.0332C14.5392 12.0332 14.3417 11.9082 14.2242 11.8857C14.2242 11.8857 14.6167 12.337 14.6767 12.9545C14.7154 13.362 14.6092 13.8407 14.1504 14.3107C13.1554 15.3295 11.0167 15.4857 10.8579 15.4932C11.0467 15.4995 13.4667 15.5507 14.6204 14.482C15.5954 13.577 15.1417 12.4245 14.5392 12.0332Z" fill="#C62828"/>
<path d="M12.8342 12.1629C12.8692 12.0329 12.8842 11.8979 12.8892 11.8179C12.913 11.4154 12.8142 11.1629 12.5942 10.9029C12.373 10.6429 12.043 10.5029 12.043 10.5029C12.043 10.5029 12.3342 10.7004 12.4217 11.2129C12.468 11.4817 12.4492 11.7592 12.3855 12.0254C12.363 12.1217 12.3342 12.2192 12.3505 12.3167C12.3667 12.4142 12.4405 12.5104 12.5392 12.5129C12.698 12.5179 12.7855 12.3454 12.8342 12.1629Z" fill="#C62828"/>
<path d="M10.9242 11.009C11.1992 10.824 11.5992 10.689 11.8454 11.004C11.9754 11.1715 11.8754 11.5002 11.6267 11.5865C11.2054 11.7302 11.1379 11.8915 11.0567 12.0165C10.9592 12.1677 10.8667 12.3552 10.6904 12.3915C10.5142 12.4277 10.4104 12.299 10.4029 12.0415C10.4017 11.989 10.3617 11.3877 10.9242 11.009Z" fill="#FF847A"/>
<path d="M3.4989 7.47114C2.6089 7.80489 2.5089 8.80614 2.5089 8.80614C2.5089 8.80614 1.9439 8.16739 1.15515 8.41364C0.206395 8.70989 -0.288605 9.70989 0.450145 10.8161C1.29515 12.0811 4.0864 12.4974 4.0864 12.4974C4.0864 12.4974 5.69765 10.4861 5.5164 8.85989C5.3689 7.53739 4.17265 7.21864 3.4989 7.47114Z" fill="#F42F21"/>
<path d="M3.49885 7.47113C3.49885 7.47113 3.28135 7.55613 3.19385 7.63738C3.19385 7.63738 3.7901 7.58988 4.3226 7.90863C4.6726 8.11863 4.9951 8.48863 5.1001 9.13738C5.3276 10.5436 4.1826 12.3561 4.0951 12.4886C4.21135 12.3399 5.69135 10.4236 5.51635 8.86113C5.36885 7.53738 4.1726 7.21863 3.49885 7.47113Z" fill="#C62828"/>
<path d="M2.59141 8.92027C2.50766 8.81527 2.40766 8.72277 2.34516 8.67152C2.03516 8.41277 1.77391 8.34277 1.43391 8.36527C1.09266 8.38777 0.785156 8.57152 0.785156 8.57152C0.785156 8.57152 1.11766 8.45402 1.58141 8.68777C1.82516 8.81027 2.03766 8.99027 2.21391 9.19902C2.27766 9.27402 2.34016 9.35527 2.42766 9.40027C2.51516 9.44527 2.63766 9.44277 2.69766 9.36527C2.79516 9.24027 2.70891 9.06652 2.59141 8.92027Z" fill="#C62828"/>
<path d="M0.527546 9.77018C0.542546 9.43893 0.671296 9.03643 1.0713 9.02643C1.2838 9.02143 1.4888 9.29768 1.4088 9.54893C1.27505 9.97393 1.3638 10.1227 1.4163 10.2627C1.48005 10.4314 1.5763 10.6164 1.5013 10.7802C1.4263 10.9439 1.26005 10.9514 1.0488 10.8039C1.00505 10.7727 0.498796 10.4477 0.527546 9.77018Z" fill="#FF847A"/>
</g>
<defs>
<radialGradient id="paint0_radial_1982_39100" cx="0" cy="0" r="1" gradientUnits="userSpaceOnUse" gradientTransform="translate(7.9502 7.8625) scale(7.11996)">
<stop stop-color="#FFDE1E"/>
<stop offset="0.53" stop-color="#FFDD16"/>
<stop offset="0.795" stop-color="#FEC114"/>
<stop offset="0.955" stop-color="#FEA311"/>
<stop offset="1" stop-color="#F49400"/>
</radialGradient>
<radialGradient id="paint1_radial_1982_39100" cx="0" cy="0" r="1" gradientUnits="userSpaceOnUse" gradientTransform="translate(3.40632 7.85335) scale(2.37975 2.26065)">
<stop stop-color="#FF4D26"/>
<stop offset="0.9" stop-color="#FF4D26" stop-opacity="0"/>
</radialGradient>
<radialGradient id="paint2_radial_1982_39100" cx="0" cy="0" r="1" gradientUnits="userSpaceOnUse" gradientTransform="translate(12.5938 7.85335) scale(2.37975 2.26065)">
<stop stop-color="#FF4D26"/>
<stop offset="0.9" stop-color="#FF4D26" stop-opacity="0"/>
</radialGradient>
<clipPath id="clip0_1982_39100">
<rect width="16" height="16" fill="white"/>
</clipPath>
</defs>
</svg>
