<svg width="16" height="16" viewBox="0 0 16 16" fill="none" xmlns="http://www.w3.org/2000/svg">
<path d="M7.9502 14.85C4.4627 14.85 0.700195 12.6625 0.700195 7.8625C0.700195 3.0625 4.4627 0.875 7.9502 0.875C9.8877 0.875 11.6752 1.5125 13.0002 2.675C14.4377 3.95 15.2002 5.75 15.2002 7.8625C15.2002 9.975 14.4377 11.7625 13.0002 13.0375C11.6752 14.2 9.8752 14.85 7.9502 14.85Z" fill="url(#paint0_radial_1982_39121)"/>
<path d="M13.9365 3.70898C14.6027 4.78398 14.9502 6.06398 14.9502 7.48773C14.9502 9.60023 14.1877 11.3877 12.7502 12.6627C11.4252 13.8252 9.62523 14.4752 7.70023 14.4752C5.44273 14.4752 3.07523 13.5565 1.67773 11.6077C3.02273 13.8152 5.55273 14.8502 7.95023 14.8502C9.87523 14.8502 11.6752 14.2002 13.0002 13.0377C14.4377 11.7627 15.2002 9.97523 15.2002 7.86273C15.2002 6.27023 14.7665 4.85523 13.9365 3.70898Z" fill="#E38A00"/>
<path d="M11.2174 9.88738C10.1736 9.57488 9.08864 9.42363 7.99989 9.43738C6.89614 9.42738 5.79739 9.58488 4.74114 9.90613C4.37489 10.5024 4.17989 11.1874 4.17489 11.8874C4.16864 12.3274 4.51989 12.6886 4.95989 12.6949C5.08614 12.6961 5.21239 12.6686 5.32489 12.6124C6.16364 12.2199 7.07489 12.0074 7.99989 11.9874C8.92614 12.0049 9.83739 12.2186 10.6749 12.6124C11.0686 12.8074 11.5461 12.6474 11.7424 12.2524C11.7986 12.1386 11.8274 12.0136 11.8249 11.8874C11.8174 11.1761 11.6061 10.4824 11.2174 9.88738Z" fill="#422B0D"/>
<path d="M11.2175 9.88691C10.4625 8.69941 9.13621 8.39941 7.99996 8.39941C6.76496 8.39941 5.46246 8.70816 4.74121 9.89941C5.79746 9.58066 6.89621 9.42441 7.99996 9.43691C9.08871 9.42316 10.1737 9.57441 11.2175 9.88691Z" fill="white"/>
<path d="M4.21621 3.86352C3.94121 3.91352 3.92871 4.31352 4.22871 4.32602C4.89121 4.33477 5.53121 4.08852 6.01621 3.63852C6.20121 3.47852 6.35746 3.28852 6.47871 3.07602C6.55121 2.97227 6.52621 2.82977 6.42246 2.75727C6.31871 2.68477 6.17621 2.70977 6.10371 2.81352L6.09121 2.82602C5.60121 3.37352 4.93996 3.73977 4.21621 3.86352Z" fill="#422B0D"/>
<path d="M9.80512 2.81352C9.73262 2.70977 9.59012 2.68477 9.48637 2.75727C9.38262 2.82977 9.35762 2.97227 9.43012 3.07602C9.55137 3.28852 9.70762 3.47852 9.89262 3.63852C10.3801 4.08477 11.0189 4.33102 11.6801 4.32602C11.9926 4.31352 11.9676 3.91352 11.6926 3.86352C10.9601 3.74352 10.2939 3.37227 9.80512 2.81352Z" fill="#422B0D"/>
<path d="M4.30857 5.15241C4.30857 5.15241 5.93982 5.32241 7.06732 6.50991C7.19107 6.63616 7.18857 6.83866 7.06107 6.96241C7.00982 7.01241 6.94482 7.04366 6.87482 7.05116C6.43857 7.09116 5.78607 7.31491 4.87482 8.00616C4.87482 8.00616 4.38232 8.47491 3.99232 8.00616C3.68482 7.63116 4.24232 7.20616 4.24232 7.20616C4.24232 7.20616 4.89857 6.61116 5.67857 6.56991L4.23107 6.24241C4.08357 6.22241 3.94482 6.15616 3.83732 6.05241C3.69482 5.93241 3.64482 5.73616 3.71232 5.56241C3.80357 5.31241 4.04232 5.14866 4.30857 5.15241Z" fill="#422B0D"/>
<path d="M11.75 5.15234C11.75 5.15234 10.125 5.32234 8.99252 6.50984C8.86877 6.63609 8.87252 6.83859 8.99877 6.96234C9.05002 7.01234 9.11752 7.04359 9.18877 7.05109C9.62502 7.09109 10.2763 7.31484 11.1888 8.00609C11.1888 8.00609 11.68 8.47484 12.0713 8.00609C12.3788 7.63109 11.8213 7.20609 11.8213 7.20609C11.8213 7.20609 11.165 6.61109 10.385 6.56984L11.8175 6.24234C11.9663 6.22234 12.1038 6.15609 12.2125 6.05234C12.3538 5.93234 12.405 5.73609 12.3375 5.56234C12.2475 5.31609 12.0125 5.15234 11.75 5.15234Z" fill="#422B0D"/>
<path d="M7.9923 8.21191C8.4323 8.21566 8.87105 8.27066 9.2998 8.37441C9.7348 8.47816 10.1461 8.66191 10.5136 8.91691C10.8761 9.18066 11.1748 9.52316 11.3886 9.91691C11.6023 10.3007 11.7536 10.7169 11.8336 11.1482C11.8736 11.3632 11.8948 11.5807 11.8948 11.7994C11.8998 11.9144 11.8873 12.0282 11.8573 12.1394C11.8236 12.2519 11.7673 12.3557 11.6936 12.4457C11.5436 12.6232 11.3273 12.7332 11.0948 12.7494C10.9811 12.7557 10.8661 12.7407 10.7573 12.7057C10.6486 12.6657 10.5586 12.6169 10.4598 12.5807C9.6848 12.2232 8.84605 12.0207 7.9923 11.9869C8.8498 11.9882 9.6998 12.1582 10.4923 12.4869C10.5923 12.5257 10.6923 12.5744 10.7848 12.6044C10.8811 12.6307 10.9811 12.6394 11.0798 12.6307C11.2773 12.6107 11.4573 12.5119 11.5798 12.3557C11.6386 12.2794 11.6811 12.1907 11.7048 12.0969C11.7273 12.0007 11.7348 11.9007 11.7261 11.8019C11.7173 11.5919 11.6898 11.3819 11.6448 11.1769C11.5536 10.7707 11.3973 10.3819 11.1798 10.0269C10.9711 9.67441 10.6861 9.37316 10.3461 9.14441C10.0023 8.92441 9.62105 8.76941 9.22105 8.68941C8.8148 8.60816 8.40105 8.57191 7.9873 8.58316L7.9923 8.21191Z" fill="#E38A00"/>
<path d="M8.02359 8.58691C7.60984 8.57566 7.19609 8.61191 6.79109 8.69316C6.39109 8.77316 6.00984 8.92816 5.66609 9.14816C5.32609 9.37691 5.04109 9.67816 4.83234 10.0307C4.61609 10.3857 4.45859 10.7744 4.36734 11.1807C4.32234 11.3857 4.29484 11.5957 4.28609 11.8057C4.27734 11.9044 4.28484 12.0044 4.30734 12.1007C4.33234 12.1944 4.37484 12.2819 4.43234 12.3594C4.55484 12.5157 4.73484 12.6144 4.93234 12.6344C5.03109 12.6432 5.13109 12.6344 5.22734 12.6082C5.32109 12.5782 5.42109 12.5294 5.51984 12.4907C6.31234 12.1619 7.16234 11.9919 8.01984 11.9907C7.16734 12.0219 6.32859 12.2207 5.55234 12.5757C5.45484 12.6182 5.36359 12.6669 5.25484 12.7007C5.14609 12.7357 5.03109 12.7507 4.91734 12.7444C4.68359 12.7282 4.46734 12.6182 4.31734 12.4394C4.24234 12.3494 4.18609 12.2457 4.15234 12.1332C4.12234 12.0219 4.10984 11.9082 4.11484 11.7932C4.11609 11.5744 4.13734 11.3569 4.17609 11.1419C4.25859 10.7107 4.40984 10.2957 4.62484 9.91316C4.83859 9.51941 5.13734 9.17691 5.49984 8.91316C5.86859 8.65941 6.28109 8.47691 6.71609 8.37441C7.14484 8.27066 7.58359 8.21566 8.02359 8.21191V8.58691Z" fill="#E38A00"/>
<defs>
<radialGradient id="paint0_radial_1982_39121" cx="0" cy="0" r="1" gradientUnits="userSpaceOnUse" gradientTransform="translate(7.9502 7.8625) scale(7.11996)">
<stop stop-color="#FFDE1E"/>
<stop offset="0.53" stop-color="#FFDD16"/>
<stop offset="0.795" stop-color="#FEC114"/>
<stop offset="0.955" stop-color="#FEA311"/>
<stop offset="1" stop-color="#F49400"/>
</radialGradient>
</defs>
</svg>
