<svg width="16" height="16" viewBox="0 0 16 16" fill="none" xmlns="http://www.w3.org/2000/svg">
<path d="M7.9502 14.85C4.4627 14.85 0.700195 12.6625 0.700195 7.8625C0.700195 3.0625 4.4627 0.875 7.9502 0.875C9.8877 0.875 11.6752 1.5125 13.0002 2.675C14.4377 3.95 15.2002 5.75 15.2002 7.8625C15.2002 9.975 14.4377 11.7625 13.0002 13.0375C11.6752 14.2 9.8752 14.85 7.9502 14.85Z" fill="url(#paint0_radial_1982_39114)"/>
<path d="M4.92146 5.30648C5.04771 5.30648 5.15021 5.20398 5.15021 5.07773C5.15021 4.95148 5.04771 4.84898 4.92146 4.84898C4.67771 4.82398 4.43271 4.84148 4.19521 4.89898C3.54896 5.03773 2.97896 5.41648 2.59896 5.95773C2.42771 6.21898 2.76771 6.43023 2.96771 6.23523C3.49021 5.70898 4.18021 5.38023 4.91771 5.30648" fill="#422B0D"/>
<path d="M5.8289 11.789C6.3189 11.7252 6.7964 11.7052 7.26265 11.679C7.7289 11.6527 8.18765 11.6265 8.6189 11.554C9.0189 11.5115 9.40765 11.399 9.76765 11.2215C10.0701 11.0602 10.2901 10.779 10.3751 10.4477V10.4315C10.4389 10.2065 10.6726 10.0765 10.8976 10.1402C11.0826 10.1927 11.2089 10.364 11.2039 10.5565C11.1976 10.8627 11.1176 11.1627 10.9701 11.4315C10.8164 11.7077 10.6014 11.9452 10.3414 12.1252C9.8414 12.469 9.29265 12.5952 8.7814 12.6777C8.2839 12.7427 7.78265 12.7652 7.2814 12.744C6.7914 12.729 6.3114 12.6865 5.8439 12.6327C5.61265 12.604 5.44765 12.394 5.4764 12.1615C5.50015 11.969 5.6514 11.8165 5.8439 11.794L5.8289 11.789Z" fill="#35220B"/>
<path d="M6.02039 6.97656C5.26414 6.77906 4.46539 6.80906 3.72539 7.06281C3.59289 7.11406 3.52664 7.26156 3.57789 7.39406C3.62539 7.51781 3.75789 7.58406 3.88539 7.54906C4.18164 7.49156 4.48414 7.47531 4.78539 7.49906C4.78539 7.50656 4.78539 7.54781 4.78539 7.54781C4.78539 8.15906 5.18164 8.52906 5.61914 8.52906C5.84289 8.52656 6.05664 8.43406 6.21164 8.27156C6.47164 7.99531 6.52539 7.58281 6.34289 7.25031C6.27414 7.12156 6.15914 7.02281 6.02039 6.97656Z" fill="#422B0D"/>
<path d="M12.0004 6.97656C11.2442 6.77906 10.4454 6.80906 9.70544 7.06281C9.57169 7.11031 9.50044 7.25656 9.54794 7.39031C9.59544 7.52406 9.74169 7.59531 9.87544 7.54781C10.1717 7.49031 10.4742 7.47406 10.7742 7.49781C10.7742 7.50531 10.7742 7.54656 10.7742 7.54656C10.7742 8.15781 11.1717 8.52781 11.6079 8.52781C11.8329 8.52531 12.0467 8.43281 12.2017 8.27031C12.4579 7.99406 12.5079 7.58406 12.3267 7.25406C12.2579 7.12406 12.1404 7.02406 12.0004 6.97656Z" fill="#422B0D"/>
<path d="M5.63279 7.39733C5.81029 7.31233 6.02404 7.38733 6.11029 7.56484C6.17654 7.70359 6.14654 7.86984 6.03529 7.97734C5.85779 8.06234 5.64404 7.98734 5.55779 7.80983C5.49154 7.67108 5.52154 7.50484 5.63279 7.39733Z" fill="#896024"/>
<path d="M11.6329 7.39727C11.8117 7.31352 12.0242 7.38977 12.1092 7.56852C12.1742 7.70727 12.1442 7.87102 12.0342 7.97727C11.8554 8.06102 11.6429 7.98477 11.5579 7.80602C11.4929 7.66852 11.5229 7.50352 11.6329 7.39727Z" fill="#896024"/>
<path d="M13.9365 3.70898C14.6027 4.78398 14.9502 6.06398 14.9502 7.48773C14.9502 9.60023 14.1877 11.3877 12.7502 12.6627C11.4252 13.8252 9.62523 14.4752 7.70023 14.4752C5.44273 14.4752 3.07523 13.5565 1.67773 11.6077C3.02273 13.8152 5.55273 14.8502 7.95023 14.8502C9.87523 14.8502 11.6752 14.2002 13.0002 13.0377C14.4377 11.7627 15.2002 9.97523 15.2002 7.86273C15.2002 6.27023 14.7665 4.85523 13.9365 3.70898Z" fill="#E38A00"/>
<path d="M11.0276 5.30648C10.9013 5.30648 10.7988 5.20398 10.7988 5.07773C10.7988 4.95148 10.9013 4.84898 11.0276 4.84898C11.2713 4.82398 11.5163 4.84148 11.7538 4.89898C12.4001 5.03773 12.9713 5.41523 13.3501 5.95773C13.5213 6.21898 13.1813 6.43023 12.9751 6.23523C12.4526 5.70898 11.7638 5.38023 11.0251 5.30648" fill="#422B0D"/>
<defs>
<radialGradient id="paint0_radial_1982_39114" cx="0" cy="0" r="1" gradientUnits="userSpaceOnUse" gradientTransform="translate(7.9502 7.8625) scale(7.11996)">
<stop stop-color="#FFDE1E"/>
<stop offset="0.53" stop-color="#FFDD16"/>
<stop offset="0.795" stop-color="#FEC114"/>
<stop offset="0.955" stop-color="#FEA311"/>
<stop offset="1" stop-color="#F49400"/>
</radialGradient>
</defs>
</svg>
