<svg width="16" height="16" viewBox="0 0 16 16" fill="none" xmlns="http://www.w3.org/2000/svg">
<path d="M7.9502 14.85C4.4627 14.85 0.700195 12.6625 0.700195 7.8625C0.700195 3.0625 4.4627 0.875 7.9502 0.875C9.8877 0.875 11.6752 1.5125 13.0002 2.675C14.4377 3.95 15.2002 5.75 15.2002 7.8625C15.2002 9.975 14.4377 11.7625 13.0002 13.0375C11.6752 14.2 9.8752 14.85 7.9502 14.85Z" fill="url(#paint0_radial_1982_39130)"/>
<path d="M13.9365 3.70898C14.6027 4.78398 14.9502 6.06398 14.9502 7.48773C14.9502 9.60023 14.1877 11.3877 12.7502 12.6627C11.4252 13.8252 9.62523 14.4752 7.70023 14.4752C5.44273 14.4752 3.07523 13.5565 1.67773 11.6077C3.02273 13.8152 5.55273 14.8502 7.95023 14.8502C9.87523 14.8502 11.6752 14.2002 13.0002 13.0377C14.4377 11.7627 15.2002 9.97523 15.2002 7.86273C15.2002 6.27023 14.7665 4.85523 13.9365 3.70898Z" fill="#E38A00"/>
<path d="M9.2136 9.25035C9.08985 9.0566 9.1461 8.79785 9.33985 8.6741C9.37235 8.65285 9.4086 8.6366 9.4461 8.62535C9.8686 8.4591 10.3186 8.3691 10.7723 8.36035C11.2261 8.36785 11.6761 8.45285 12.1023 8.61035C12.3286 8.67535 12.4598 8.9116 12.3936 9.13785C12.3836 9.1716 12.3698 9.20535 12.3523 9.23535C12.2248 9.42535 11.9848 9.5041 11.7698 9.42785C11.4561 9.30785 11.1248 9.24035 10.7886 9.22785C10.4511 9.2391 10.1173 9.3066 9.80235 9.42785C9.5886 9.51535 9.3436 9.4416 9.2136 9.25035Z" fill="#422B0D"/>
<path d="M3.63854 9.25035C3.51479 9.0541 3.57354 8.7966 3.76979 8.67285C3.80229 8.65285 3.83729 8.6366 3.87479 8.62535C4.29729 8.45785 4.74729 8.3691 5.20229 8.36035C5.65604 8.36785 6.10604 8.45285 6.53104 8.61035C6.75729 8.6766 6.88729 8.9141 6.82229 9.14035C6.81229 9.1741 6.79854 9.20535 6.78104 9.23535C6.65354 9.42535 6.41354 9.50535 6.19729 9.42785C5.88354 9.30785 5.55229 9.24035 5.21604 9.22785C4.87854 9.2391 4.54479 9.3066 4.22979 9.42785C4.01604 9.5166 3.76854 9.44285 3.63854 9.25035Z" fill="#422B0D"/>
<path d="M7.99999 10.8994C9.34999 10.8994 10.225 11.8869 10.4625 12.3494C10.55 12.5244 10.55 12.6744 10.475 12.7369C10.395 12.7869 10.2925 12.7869 10.2125 12.7369C10.1725 12.7207 10.135 12.6994 10.1 12.6744C9.48749 12.2344 8.75374 11.9944 7.99999 11.9869C7.24874 11.9969 6.51624 12.2319 5.89999 12.6619C5.86499 12.6869 5.82749 12.7082 5.78749 12.7244C5.70749 12.7744 5.60499 12.7744 5.52499 12.7244C5.44999 12.6494 5.44999 12.5119 5.53749 12.3369C5.77499 11.8869 6.64999 10.8994 7.99999 10.8994Z" fill="#422B0D"/>
<path d="M3.70752 7.06464C2.64877 7.06464 1.83252 6.03964 1.83252 5.16089C1.83252 4.54214 2.10877 3.82589 2.49877 2.83339C2.54752 2.68714 2.61252 2.54089 2.67752 2.37714C2.86377 1.91214 3.02877 1.40839 3.27877 0.972145C3.39752 0.759645 3.66627 0.684645 3.87752 0.803395C3.94752 0.843395 4.00627 0.900895 4.04627 0.972145C4.27877 1.40089 4.43752 1.86464 4.68002 2.40589C5.36377 3.93589 5.55502 4.55464 5.55502 5.17339C5.57877 6.03964 4.75002 7.06464 3.70752 7.06464Z" fill="#44B3E6"/>
<path d="M4.85107 5.89136C4.61232 6.26636 4.06982 6.19136 4.06982 5.57761C4.06982 5.18511 4.14982 3.17136 4.48607 3.45261C5.03482 3.91136 5.19107 5.37511 4.85107 5.89136Z" fill="#81D4FA"/>
<defs>
<radialGradient id="paint0_radial_1982_39130" cx="0" cy="0" r="1" gradientUnits="userSpaceOnUse" gradientTransform="translate(7.9502 7.8625) scale(7.11996)">
<stop stop-color="#FFDE1E"/>
<stop offset="0.53" stop-color="#FFDD16"/>
<stop offset="0.795" stop-color="#FEC114"/>
<stop offset="0.955" stop-color="#FEA311"/>
<stop offset="1" stop-color="#F49400"/>
</radialGradient>
</defs>
</svg>
