<svg width="12" height="12" viewBox="0 0 12 12" fill="none" xmlns="http://www.w3.org/2000/svg">
<path d="M7.64523 1.90387C7.57596 1.87685 7.50046 1.87 7.42746 1.8841C7.35446 1.8982 7.28694 1.93269 7.23273 1.98356L3.48273 5.73356C3.41231 5.80466 3.3728 5.90068 3.3728 6.00074C3.3728 6.10081 3.41231 6.19684 3.48273 6.26793L7.23273 10.0179C7.30471 10.0867 7.40033 10.1253 7.49991 10.1257C7.54968 10.1255 7.59897 10.116 7.64523 10.0976C7.71348 10.0689 7.77171 10.0207 7.81258 9.95895C7.85346 9.89723 7.87514 9.82478 7.87491 9.75074V2.25074C7.87514 2.17671 7.85346 2.10426 7.81258 2.04254C7.77171 1.98081 7.71348 1.93256 7.64523 1.90387Z" fill="white"/>
</svg>
