<svg width="16" height="16" viewBox="0 0 16 16" fill="none" xmlns="http://www.w3.org/2000/svg">
<g clip-path="url(#clip0_1982_39125)">
<path d="M7.9502 14.85C4.4627 14.85 0.700195 12.6625 0.700195 7.8625C0.700195 3.0625 4.4627 0.875 7.9502 0.875C9.8877 0.875 11.6752 1.5125 13.0002 2.675C14.4377 3.95 15.2002 5.75 15.2002 7.8625C15.2002 9.975 14.4377 11.7625 13.0002 13.0375C11.6752 14.2 9.8752 14.85 7.9502 14.85Z" fill="url(#paint0_radial_1982_39125)"/>
<path d="M13.9365 3.70898C14.6027 4.78398 14.9502 6.06398 14.9502 7.48773C14.9502 9.60023 14.1877 11.3877 12.7502 12.6627C11.4252 13.8252 9.62523 14.4752 7.70023 14.4752C5.44273 14.4752 3.07523 13.5565 1.67773 11.6077C3.02273 13.8152 5.55273 14.8502 7.95023 14.8502C9.87523 14.8502 11.6752 14.2002 13.0002 13.0377C14.4377 11.7627 15.2002 9.97523 15.2002 7.86273C15.2002 6.27023 14.7665 4.85523 13.9365 3.70898Z" fill="#E38A00"/>
<path d="M7.8527 10.053C6.4152 10.0605 4.9802 9.9405 3.56395 9.69175C3.32645 9.64675 3.09645 9.803 3.05145 10.0405C3.04145 10.0955 3.04145 10.153 3.05145 10.208C3.45895 12.208 5.42645 13.8492 7.85145 13.8492C10.5027 13.8492 12.2864 12.153 12.6577 10.2005C12.7002 9.96175 12.5427 9.73425 12.3039 9.6905C12.2514 9.6805 12.1964 9.68175 12.1439 9.69175C10.7277 9.9405 9.29145 10.0605 7.8527 10.053Z" fill="#422B0D"/>
<path d="M8.19277 10.6238H7.85152H7.69402C6.97777 10.6238 6.27152 10.5901 5.59277 10.5338V13.6051C5.59402 14.7888 6.55527 15.7488 7.73902 15.7488H8.14777C9.33277 15.7488 10.294 14.7876 10.294 13.6026V10.5176C9.61652 10.5788 8.91152 10.6151 8.19277 10.6238Z" fill="#FF4081"/>
<path opacity="0.3" d="M7.94386 13.2803C8.08136 13.2803 8.19386 13.1678 8.19386 13.0303V10.624H7.85261H7.69386V13.029C7.69261 13.1665 7.80511 13.279 7.94261 13.2803H7.94386Z" fill="#AB3F2E"/>
<path d="M5.5 5.86719C4.97625 5.86719 4.5 6.30969 4.5 7.04469C4.5 7.77969 4.97625 8.22094 5.5 8.22094C6.025 8.22094 6.5 7.77844 6.5 7.04469C6.5 6.31094 6.03 5.86719 5.5 5.86719Z" fill="#422B0D"/>
<path d="M5.45667 6.35827C5.27917 6.27327 5.06542 6.34827 4.97917 6.52577C4.91292 6.66452 4.94292 6.83077 5.05417 6.93827C5.23167 7.02327 5.44542 6.94827 5.53167 6.77077C5.59792 6.63202 5.56792 6.46577 5.45667 6.35827Z" fill="#896024"/>
<path d="M10.3003 5.86719C9.77654 5.86719 9.30029 6.30969 9.30029 7.04469C9.30029 7.77969 9.77654 8.22094 10.3003 8.22094C10.824 8.22094 11.3003 7.77844 11.3003 7.04469C11.3003 6.31094 10.824 5.86719 10.3003 5.86719Z" fill="#422B0D"/>
<path d="M10.2501 6.35827C10.0726 6.27327 9.85888 6.34827 9.77263 6.52577C9.70638 6.66452 9.73638 6.83077 9.84763 6.93827C10.0251 7.02327 10.2389 6.94827 10.3251 6.77077C10.3914 6.63202 10.3614 6.46577 10.2501 6.35827Z" fill="#896024"/>
<path opacity="0.3" d="M8.19256 10.6248H7.69256C6.97631 10.6248 6.27006 10.5911 5.59131 10.5348V10.9786C6.18381 11.1123 7.94131 11.4136 10.2926 10.9511V10.5186C9.61631 10.5798 8.91131 10.6161 8.19256 10.6248Z" fill="#AB3F2E"/>
</g>
<defs>
<radialGradient id="paint0_radial_1982_39125" cx="0" cy="0" r="1" gradientUnits="userSpaceOnUse" gradientTransform="translate(7.9502 7.8625) scale(7.11996)">
<stop stop-color="#FFDE1E"/>
<stop offset="0.53" stop-color="#FFDD16"/>
<stop offset="0.795" stop-color="#FEC114"/>
<stop offset="0.955" stop-color="#FEA311"/>
<stop offset="1" stop-color="#F49400"/>
</radialGradient>
<clipPath id="clip0_1982_39125">
<rect width="16" height="16" fill="white"/>
</clipPath>
</defs>
</svg>
