<svg width="16" height="16" viewBox="0 0 16 16" fill="none" xmlns="http://www.w3.org/2000/svg">
<path d="M7.9502 14.85C4.4627 14.85 0.700195 12.6625 0.700195 7.8625C0.700195 3.0625 4.4627 0.875 7.9502 0.875C9.8877 0.875 11.6752 1.5125 13.0002 2.675C14.4377 3.95 15.2002 5.75 15.2002 7.8625C15.2002 9.975 14.4377 11.7625 13.0002 13.0375C11.6752 14.2 9.8752 14.85 7.9502 14.85Z" fill="url(#paint0_radial_1982_39107)"/>
<path d="M13.9365 3.70898C14.6027 4.78398 14.9502 6.06398 14.9502 7.48773C14.9502 9.60023 14.1877 11.3877 12.7502 12.6627C11.4252 13.8252 9.62523 14.4752 7.70023 14.4752C5.44273 14.4752 3.07523 13.5565 1.67773 11.6077C3.02273 13.8152 5.55273 14.8502 7.95023 14.8502C9.87523 14.8502 11.6752 14.2002 13.0002 13.0377C14.4377 11.7627 15.2002 9.97523 15.2002 7.86273C15.2002 6.27023 14.7665 4.85523 13.9365 3.70898Z" fill="#E38A00"/>
<path d="M11.9899 2.14144L10.9824 3.47894C10.9324 3.54394 10.8549 3.58144 10.7724 3.57769L9.09988 3.50644C8.96238 3.50019 8.84488 3.60769 8.83863 3.74519C8.83613 3.80019 8.85238 3.85394 8.88363 3.89894L9.84488 5.27394C9.89113 5.34019 9.90238 5.42394 9.87488 5.50019L9.28988 7.07019C9.24238 7.20019 9.30863 7.34394 9.43738 7.39144C9.48863 7.41019 9.54363 7.41144 9.59613 7.39644L11.1974 6.90644C11.2761 6.88269 11.3611 6.89894 11.4261 6.95019L12.7374 7.99144C12.8461 8.07644 13.0024 8.05894 13.0886 7.95019C13.1224 7.90644 13.1411 7.85394 13.1424 7.79894L13.1711 6.12519C13.1724 6.04269 13.2149 5.96644 13.2836 5.92144L14.6786 5.00019C14.7936 4.92394 14.8261 4.76894 14.7499 4.65394C14.7199 4.60769 14.6749 4.57269 14.6224 4.55519L13.0386 4.01019C12.9586 3.98394 12.8974 3.91894 12.8749 3.83769L12.4299 2.22394C12.3924 2.09144 12.2536 2.01394 12.1211 2.05144C12.0686 2.06644 12.0224 2.09769 11.9899 2.14144Z" fill="url(#paint1_radial_1982_39107)"/>
<path d="M12.4764 2.11062L12.8514 3.85062C12.8801 3.98437 12.9789 4.09187 13.1101 4.13062L14.7826 4.63062C14.9076 4.67562 14.9726 4.81312 14.9276 4.93812C14.9101 4.98812 14.8764 5.02937 14.8314 5.05812L13.3314 5.87312C13.2051 5.93687 13.1251 6.06687 13.1251 6.20812L13.1401 8.03187C13.1364 8.16312 13.0264 8.26687 12.8939 8.26312C12.8414 8.26187 12.7901 8.24312 12.7501 8.20937L11.4401 7.03312C11.3389 6.94062 11.1951 6.91187 11.0651 6.95687L9.40262 7.52312C9.27512 7.55937 9.14262 7.48562 9.10512 7.35812C9.09012 7.30812 9.09262 7.25437 9.11262 7.20562L9.84512 5.53437C9.90012 5.40687 9.88137 5.26062 9.79512 5.15187L8.73137 3.81062C8.65762 3.69937 8.68762 3.55062 8.79762 3.47562C8.84012 3.44687 8.89137 3.43312 8.94387 3.43562L10.6801 3.63312C10.8164 3.64812 10.9489 3.58812 11.0276 3.47687L12.0551 2.02437C12.1364 1.91937 12.2876 1.90062 12.3914 1.98312C12.4339 2.01562 12.4626 2.05937 12.4764 2.11062Z" fill="#F42F21"/>
<path d="M12.0786 3.79227L12.2036 2.59227C12.2124 2.52602 12.2224 2.41102 12.3286 2.43227C12.4124 2.44977 12.4211 2.63102 12.4211 2.63102L12.5836 3.64852C12.6436 4.03477 12.5636 4.14852 12.4186 4.19352C12.2499 4.24977 12.0436 4.13602 12.0786 3.79227Z" fill="#FF847A"/>
<path d="M13.2063 5.74979L14.39 5.16354C14.4488 5.13104 14.5538 5.08229 14.4975 4.99104C14.4513 4.91979 14.2775 4.97354 14.2775 4.97354L13.3138 5.13979C13.0288 5.17729 12.8238 5.27729 12.7725 5.44604C12.7063 5.66354 12.875 5.88229 13.2063 5.74979Z" fill="#C62828"/>
<path d="M4.06253 1.81228L5.06253 3.27978C5.14003 3.39228 5.27128 3.45353 5.40753 3.44103L7.14753 3.26978C7.28003 3.26603 7.39128 3.36978 7.39503 3.50228C7.39628 3.55353 7.38253 3.60353 7.35378 3.64478L6.27503 4.97353C6.18753 5.08103 6.16628 5.22728 6.22003 5.35478L6.92628 7.03603C6.97253 7.15978 6.91003 7.29853 6.78628 7.34478C6.73628 7.36353 6.68253 7.36478 6.63128 7.34978L4.97253 6.75853C4.84378 6.71228 4.70003 6.73853 4.59753 6.82853L3.27503 7.98478C3.17253 8.06728 3.02253 8.05103 2.93878 7.94853C2.90503 7.90728 2.88628 7.85477 2.88628 7.80228L2.92753 5.97853C2.93128 5.83978 2.85753 5.71228 2.73753 5.64353L1.25003 4.80603C1.13753 4.73853 1.10003 4.59103 1.16878 4.47853C1.19753 4.42978 1.24378 4.39228 1.29753 4.37478L2.97878 3.89728C3.10878 3.86103 3.20878 3.75603 3.24128 3.62478L3.64003 1.89103C3.67628 1.76353 3.80878 1.68978 3.93628 1.72603C3.98628 1.73978 4.03128 1.77103 4.06253 1.81228Z" fill="#F42F21"/>
<path d="M4.33257 3.51866L3.99007 2.36117C3.97382 2.29617 3.93882 2.18617 4.04382 2.16617C4.12757 2.14992 4.20632 2.31492 4.20632 2.31492L4.74132 3.18992C4.94507 3.52492 4.91257 3.65866 4.79632 3.75616C4.68007 3.85366 4.43007 3.84991 4.33257 3.51866Z" fill="#FF847A"/>
<path d="M6.11766 4.89515L6.99266 3.90265C7.03516 3.8514 7.11766 3.7664 7.02516 3.7039C6.95641 3.6539 6.81641 3.77015 6.81641 3.77015L5.98766 4.29015C5.73766 4.43265 5.58641 4.60265 5.60391 4.7789C5.62516 5.0114 5.86266 5.1489 6.11766 4.89515Z" fill="#C62828"/>
<path d="M12.759 8.95195C12.584 8.6357 12.204 8.49695 11.8665 8.62445C10.584 8.9982 9.25401 9.18445 7.91776 9.1782C6.58151 9.18445 5.25151 8.9982 3.96901 8.62445C3.63276 8.49695 3.25276 8.63445 3.07776 8.94945C2.90776 9.2632 3.03026 9.62695 3.17401 9.9407C3.97651 11.7032 5.74526 12.7582 7.90776 12.7645H7.92776C10.0903 12.7645 11.859 11.7032 12.6628 9.9407C12.8053 9.62445 12.929 9.2657 12.759 8.95195Z" fill="#422B0D"/>
<path d="M9.91863 12.2676C9.87238 12.2251 9.82488 12.1864 9.77738 12.1426C9.26738 11.6939 8.60738 11.4526 7.92738 11.4664C7.22738 11.4551 6.54613 11.6876 5.99988 12.1251C5.95238 12.1639 5.90238 12.2014 5.85613 12.2501C5.80988 12.2989 5.78488 12.3339 5.75488 12.3751C6.44238 12.6439 7.17488 12.7814 7.91363 12.7776H7.93363C8.64113 12.7776 9.34238 12.6514 10.0049 12.4026C9.97988 12.3551 9.95113 12.3101 9.91863 12.2676Z" fill="#ED7770"/>
<path d="M11.8663 8.62498C10.5838 8.99873 9.25377 9.18498 7.91752 9.17873C6.58127 9.18498 5.25127 8.99873 3.96877 8.62498C3.63252 8.49748 3.25252 8.63498 3.07752 8.94998C3.05252 8.99748 3.03252 9.04748 3.02002 9.09873C3.06127 9.11998 3.10877 9.14123 3.16502 9.16373C4.67002 9.91748 6.33377 10.3 8.01627 10.28C9.63002 10.2987 11.225 9.94748 12.6825 9.25498C12.7413 9.22998 12.79 9.20623 12.8338 9.18373C12.8238 9.10248 12.7975 9.02248 12.7588 8.94998C12.5838 8.63498 12.2038 8.49623 11.8663 8.62498Z" fill="white"/>
<path d="M12.764 8.9532C12.5865 8.63695 12.2053 8.49695 11.8653 8.62445C10.5828 8.9982 9.25276 9.18445 7.91776 9.1782C6.58151 9.18445 5.25151 8.9982 3.96901 8.62445C3.63276 8.49695 3.25276 8.63445 3.07776 8.94945C2.90776 9.2632 3.03026 9.62695 3.17401 9.9407C3.23776 10.082 3.30901 10.2207 3.38776 10.3545C3.38776 10.3545 3.12526 9.38195 3.35276 9.09945C3.43026 8.97945 3.56026 8.90445 3.70276 8.89695C3.76151 8.89695 3.81901 8.90695 3.87526 8.92445C5.18026 9.3082 6.53401 9.50195 7.89526 9.49945H7.93901C9.30026 9.50195 10.654 9.3082 11.959 8.92445C12.0153 8.90695 12.0728 8.89695 12.1315 8.89695C12.274 8.90445 12.4053 8.97945 12.4828 9.09945C12.714 9.38195 12.4478 10.3582 12.4478 10.3582C12.5253 10.2245 12.6028 10.087 12.6678 9.94445C12.8103 9.6307 12.934 9.2682 12.764 8.9532Z" fill="#E38A00"/>
<defs>
<radialGradient id="paint0_radial_1982_39107" cx="0" cy="0" r="1" gradientUnits="userSpaceOnUse" gradientTransform="translate(7.9502 7.8625) scale(7.11996)">
<stop stop-color="#FFDE1E"/>
<stop offset="0.53" stop-color="#FFDD16"/>
<stop offset="0.795" stop-color="#FEC114"/>
<stop offset="0.955" stop-color="#FEA311"/>
<stop offset="1" stop-color="#F49400"/>
</radialGradient>
<radialGradient id="paint1_radial_1982_39107" cx="0" cy="0" r="1" gradientUnits="userSpaceOnUse" gradientTransform="translate(11.8149 5.04369) scale(2.98886)">
<stop offset="0.2" stop-color="#FF4081"/>
<stop offset="0.88" stop-color="#CC1775"/>
</radialGradient>
</defs>
</svg>
