<svg width="15" height="15" viewBox="0 0 15 15" fill="none" xmlns="http://www.w3.org/2000/svg">
<path d="M7.78711 14.4746C4.02539 14.4746 0.949219 11.416 0.949219 7.63672C0.949219 3.85742 4.02539 0.798828 7.78711 0.798828C11.5664 0.798828 14.6426 3.85742 14.6426 7.63672C14.6426 11.416 11.5664 14.4746 7.78711 14.4746ZM7.78711 13.4023C10.9688 13.4023 13.5527 10.8184 13.5527 7.63672C13.5527 4.45508 10.9688 1.87109 7.78711 1.87109C4.62305 1.87109 2.02148 4.45508 2.02148 7.63672C2.02148 10.8184 4.62305 13.4023 7.78711 13.4023ZM5.66016 10.748V10.0273L7.85742 7.83008C8.56055 7.12695 8.85938 6.74023 8.87695 6.19531C8.85938 5.58008 8.38477 5.1582 7.73438 5.17578C7.04883 5.1582 6.5918 5.61523 6.60938 6.2832H5.625C5.625 5.12305 6.50391 4.34961 7.73438 4.34961C8.98242 4.34961 9.82617 5.10547 9.82617 6.14258C9.82617 6.86328 9.49219 7.42578 8.2793 8.58594L7.04883 9.86914V9.9043H9.9668V10.748H5.66016Z" fill="#555555"/>
</svg>
