<svg width="16" height="16" viewBox="0 0 16 16" fill="none" xmlns="http://www.w3.org/2000/svg">
<path d="M7.9502 14.85C4.4627 14.85 0.700195 12.6625 0.700195 7.8625C0.700195 3.0625 4.4627 0.875 7.9502 0.875C9.8877 0.875 11.6752 1.5125 13.0002 2.675C14.4377 3.95 15.2002 5.75 15.2002 7.8625C15.2002 9.975 14.4377 11.7625 13.0002 13.0375C11.6752 14.2 9.8752 14.85 7.9502 14.85Z" fill="url(#paint0_radial_1982_39139)"/>
<path d="M13.9365 3.70898C14.6027 4.78398 14.9502 6.06398 14.9502 7.48773C14.9502 9.60023 14.1877 11.3877 12.7502 12.6627C11.4252 13.8252 9.62523 14.4752 7.70023 14.4752C5.44273 14.4752 3.07523 13.5565 1.67773 11.6077C3.02273 13.8152 5.55273 14.8502 7.95023 14.8502C9.87523 14.8502 11.6752 14.2002 13.0002 13.0377C14.4377 11.7627 15.2002 9.97523 15.2002 7.86273C15.2002 6.27023 14.7665 4.85523 13.9365 3.70898Z" fill="#E38A00"/>
<path d="M7.99999 10.9004C9.34999 10.9004 10.225 11.8879 10.4625 12.3504C10.55 12.5254 10.55 12.6754 10.475 12.7379C10.395 12.7879 10.2925 12.7879 10.2125 12.7379C10.1725 12.7216 10.135 12.7004 10.1 12.6754C9.48749 12.2354 8.75374 11.9954 7.99999 11.9879C7.24874 11.9979 6.51624 12.2329 5.89999 12.6629C5.86499 12.6879 5.82749 12.7091 5.78749 12.7254C5.70749 12.7754 5.60499 12.7754 5.52499 12.7254C5.44999 12.6504 5.44999 12.5129 5.53749 12.3379C5.77499 11.8879 6.64999 10.9004 7.99999 10.9004Z" fill="#422B0D"/>
<path d="M9.29989 8.46251C9.12989 8.62001 9.11989 8.88501 9.27739 9.05376C9.30239 9.08126 9.33114 9.10501 9.36239 9.12501C9.72739 9.39626 10.1374 9.60001 10.5749 9.72501C11.0161 9.83501 11.4724 9.86876 11.9249 9.82501C12.1599 9.81876 12.3461 9.62251 12.3399 9.38751C12.3386 9.35376 12.3336 9.32001 12.3249 9.28751C12.2511 9.07126 12.0399 8.93251 11.8124 8.95001C11.4774 8.98251 11.1399 8.96251 10.8124 8.88751C10.4899 8.78876 10.1849 8.63626 9.91239 8.43751C9.72739 8.30126 9.47239 8.31126 9.29989 8.46251Z" fill="#422B0D"/>
<path d="M6.69976 8.46251C6.86976 8.62001 6.87976 8.88501 6.72226 9.05376C6.69726 9.08126 6.66851 9.10501 6.63726 9.12501C6.27226 9.39626 5.86226 9.60001 5.42476 9.72501C4.98351 9.83501 4.52726 9.86876 4.07476 9.82501C3.84601 9.82126 3.66476 9.63251 3.66851 9.40376C3.66976 9.36376 3.67601 9.32501 3.68726 9.28751C3.76101 9.07126 3.97226 8.93251 4.19976 8.95001C4.53476 8.98251 4.87226 8.96251 5.19976 8.88751C5.52226 8.78876 5.82726 8.63626 6.09976 8.43751C6.27976 8.30126 6.53226 8.31126 6.69976 8.46251Z" fill="#422B0D"/>
<defs>
<radialGradient id="paint0_radial_1982_39139" cx="0" cy="0" r="1" gradientUnits="userSpaceOnUse" gradientTransform="translate(7.9502 7.8625) scale(7.11996)">
<stop stop-color="#FFDE1E"/>
<stop offset="0.53" stop-color="#FFDD16"/>
<stop offset="0.795" stop-color="#FEC114"/>
<stop offset="0.955" stop-color="#FEA311"/>
<stop offset="1" stop-color="#F49400"/>
</radialGradient>
</defs>
</svg>
