<svg width="16" height="16" viewBox="0 0 16 16" fill="none" xmlns="http://www.w3.org/2000/svg">
<g id="courseware_icon_switch">
<path id="Vector" d="M13.9091 1.49966H2.09091C1.76456 1.49966 1.5 1.76422 1.5 2.09057V13.9088C1.5 14.2351 1.76456 14.4997 2.09091 14.4997H13.9091C14.2354 14.4997 14.5 14.2351 14.5 13.9088V2.09057C14.5 1.76422 14.2354 1.49966 13.9091 1.49966Z" stroke="#C8C8C8" stroke-linecap="round" stroke-linejoin="round"/>
<path id="&#234;&#176;&#128;" d="M10.8637 3.99966V7.01606H12V8.04775H10.8637V11.9997H9.53349V3.99966H10.8637ZM8.57275 4.80404C8.57275 7.24338 7.63049 9.32425 4.74827 10.662L4 9.70021C5.94457 8.77781 6.98845 7.57999 7.22402 5.83573H4.50808V4.80404H8.57275Z" fill="#C8C8C8"/>
</g>
</svg>
