<svg width="16" height="16" viewBox="0 0 16 16" fill="none" xmlns="http://www.w3.org/2000/svg">
<path fill-rule="evenodd" clip-rule="evenodd" d="M5.59451 9.69261L2 5.8463L5.59451 2L6.36101 2.82019L4.08289 5.25789H9.60087C10.8145 5.25789 11.8475 5.67746 12.7125 6.51648C13.573 7.35118 14 8.38303 14 9.62895C14 10.8749 13.573 11.9067 12.7125 12.7414C11.8475 13.5804 10.8145 14 9.60087 14H4.25906V12.8232H9.60087C10.4804 12.8232 11.2522 12.5225 11.905 11.9216C12.5645 11.3145 12.9002 10.5449 12.9002 9.62895C12.9002 8.71304 12.5645 7.94337 11.905 7.3363C11.2522 6.7354 10.4804 6.43472 9.60087 6.43472H4.08289L6.36101 8.87242L5.59451 9.69261Z" fill="#DA6CDB"/>
</svg>
