<svg width="16" height="16" viewBox="0 0 16 16" fill="none" xmlns="http://www.w3.org/2000/svg">
<path d="M7.9502 14.85C4.4627 14.85 0.700195 12.6625 0.700195 7.8625C0.700195 3.0625 4.4627 0.875 7.9502 0.875C9.8877 0.875 11.6752 1.5125 13.0002 2.675C14.4377 3.95 15.2002 5.75 15.2002 7.8625C15.2002 9.975 14.4377 11.7625 13.0002 13.0375C11.6752 14.2 9.8752 14.85 7.9502 14.85Z" fill="url(#paint0_radial_1982_39098)"/>
<path d="M13.9365 3.70898C14.6027 4.78398 14.9502 6.06398 14.9502 7.48773C14.9502 9.60023 14.1877 11.3877 12.7502 12.6627C11.4252 13.8252 9.62523 14.4752 7.70023 14.4752C5.44273 14.4752 3.07523 13.5565 1.67773 11.6077C3.02273 13.8152 5.55273 14.8502 7.95023 14.8502C9.87523 14.8502 11.6752 14.2002 13.0002 13.0377C14.4377 11.7627 15.2002 9.97523 15.2002 7.86273C15.2002 6.27023 14.7665 4.85523 13.9365 3.70898Z" fill="#E38A00"/>
<path d="M8.05015 10.4133C7.60265 10.4133 7.1589 10.3383 6.73765 10.1883C6.2189 10.0096 5.65515 10.2858 5.4764 10.8033C5.37515 11.0958 5.4164 11.4183 5.58765 11.6758C6.12515 12.5008 6.97515 12.9508 8.05015 12.9508C9.12515 12.9508 9.97515 12.5008 10.5127 11.6758C10.8164 11.2196 10.6914 10.6033 10.2352 10.2996C9.97765 10.1283 9.65515 10.0871 9.36265 10.1883C8.9414 10.3383 8.49765 10.4133 8.05015 10.4133Z" fill="#422B0D"/>
<path opacity="0.8" d="M4.27539 11.1504C5.48351 11.1504 6.46289 10.227 6.46289 9.08789C6.46289 7.9488 5.48351 7.02539 4.27539 7.02539C3.06727 7.02539 2.08789 7.9488 2.08789 9.08789C2.08789 10.227 3.06727 11.1504 4.27539 11.1504Z" fill="url(#paint1_radial_1982_39098)"/>
<path opacity="0.8" d="M11.8252 11.1504C13.0333 11.1504 14.0127 10.227 14.0127 9.08789C14.0127 7.9488 13.0333 7.02539 11.8252 7.02539C10.6171 7.02539 9.6377 7.9488 9.6377 9.08789C9.6377 10.227 10.6171 11.1504 11.8252 11.1504Z" fill="url(#paint2_radial_1982_39098)"/>
<path d="M13.449 4.2959C12.4228 4.00715 11.669 4.8459 11.669 4.8459C11.669 4.8459 11.5815 3.89465 10.704 3.5959C9.6515 3.23465 8.54025 3.80965 8.474 5.3009C8.399 6.99965 10.6465 9.22964 10.6465 9.22964C10.6465 9.22964 13.4365 8.47964 14.3503 6.88965C15.094 5.5959 14.2253 4.5134 13.449 4.2959Z" fill="#F42F21"/>
<path d="M13.4488 4.29652C13.3225 4.26277 13.1925 4.24777 13.0625 4.25027C13.43 4.49652 13.7213 4.84027 13.9025 5.24277C14.0788 5.66652 14.125 6.21402 13.79 6.86777C13.0638 8.28902 10.8275 9.16902 10.665 9.23027C10.8688 9.17277 13.4763 8.42277 14.355 6.89402C15.0938 5.59652 14.225 4.51402 13.4488 4.29652Z" fill="#C62828"/>
<path d="M11.6675 5.00039C11.66 4.87039 11.64 4.74039 11.61 4.61289C11.5375 4.24539 11.31 3.92664 10.985 3.73789C10.7625 3.60789 10.5162 3.52539 10.2612 3.49414C10.2612 3.49414 10.6362 3.60789 10.9037 4.12664C11.04 4.39914 11.1212 4.69664 11.1412 5.00039C11.14 5.11164 11.16 5.22039 11.2 5.32414C11.245 5.42789 11.355 5.48914 11.4675 5.47164C11.6387 5.42789 11.6762 5.21414 11.6675 5.00039Z" fill="#C62828"/>
<path d="M9.23767 4.40405C9.47142 4.11405 9.85517 3.8378 10.2227 4.0928C10.4177 4.22905 10.4202 4.6153 10.1814 4.78905C9.77892 5.08405 9.76017 5.2778 9.71517 5.4403C9.66017 5.63405 9.62517 5.8653 9.44892 5.9628C9.27267 6.0603 9.11767 5.9628 9.02517 5.68405C8.86767 5.24905 8.94767 4.76405 9.23767 4.40405Z" fill="#FF847A"/>
<path d="M5.09014 3.57102C4.07639 3.89977 3.91389 5.01602 3.91389 5.01602C3.91389 5.01602 3.31389 4.26602 2.41389 4.50852C1.34014 4.79102 0.733885 5.88602 1.50014 7.16227C2.38764 8.62477 5.49263 9.23102 5.49263 9.23102C5.49263 9.23102 7.39888 7.06102 7.27888 5.23102C7.18013 3.74102 5.85639 3.32227 5.09014 3.57102Z" fill="#F42F21"/>
<path d="M5.09002 3.57102C4.96627 3.61102 4.84752 3.66852 4.73877 3.74102C5.18127 3.74227 5.61377 3.86727 5.98877 4.10227C6.37127 4.35227 6.71252 4.78727 6.79752 5.51852C6.98127 7.10477 5.60627 9.07602 5.50002 9.21977C5.63877 9.05977 7.39252 6.98977 7.27752 5.22977C7.18002 3.74102 5.85627 3.32227 5.09002 3.57102Z" fill="#C62828"/>
<path d="M4 5.14795C3.9225 5.0417 3.835 4.9442 3.7375 4.8567C3.475 4.5892 3.11125 4.4467 2.7375 4.4667C2.48125 4.4817 2.23 4.54795 2 4.6642C2 4.6642 2.375 4.55045 2.885 4.83545C3.15125 4.9892 3.3825 5.19545 3.5675 5.44045C3.6275 5.5342 3.705 5.6142 3.79625 5.67795C3.89125 5.7392 4.01625 5.72795 4.1 5.6517C4.21125 5.5167 4.125 5.3192 4 5.14795Z" fill="#C62828"/>
<path d="M1.64998 5.99978C1.65498 5.89478 1.67373 5.79103 1.70498 5.69103C1.75623 5.48103 1.90498 5.30728 2.10373 5.22353C2.29498 5.16353 2.55998 5.20603 2.66248 5.39728C2.75373 5.56728 2.68748 5.77228 2.63748 5.95978C2.59248 6.17478 2.56748 6.39478 2.56248 6.61478C2.56373 6.79478 2.41998 6.94103 2.23998 6.94353C2.06998 6.94353 1.93748 6.79603 1.84248 6.65478C1.70998 6.46228 1.64248 6.23353 1.64998 5.99978Z" fill="#FF847A"/>
<defs>
<radialGradient id="paint0_radial_1982_39098" cx="0" cy="0" r="1" gradientUnits="userSpaceOnUse" gradientTransform="translate(7.9502 7.8625) scale(7.11996)">
<stop stop-color="#FFDE1E"/>
<stop offset="0.53" stop-color="#FFDD16"/>
<stop offset="0.795" stop-color="#FEC114"/>
<stop offset="0.955" stop-color="#FEA311"/>
<stop offset="1" stop-color="#F49400"/>
</radialGradient>
<radialGradient id="paint1_radial_1982_39098" cx="0" cy="0" r="1" gradientUnits="userSpaceOnUse" gradientTransform="translate(4.27539 8.13921) scale(2.38398 2.14072)">
<stop stop-color="#ED7770"/>
<stop offset="0.9" stop-color="#ED7770" stop-opacity="0"/>
</radialGradient>
<radialGradient id="paint2_radial_1982_39098" cx="0" cy="0" r="1" gradientUnits="userSpaceOnUse" gradientTransform="translate(15.3902 315.949) scale(2.4325)">
<stop stop-color="#ED7770"/>
<stop offset="0.9" stop-color="#ED7770" stop-opacity="0"/>
</radialGradient>
</defs>
</svg>
