<svg width="28" height="28" viewBox="0 0 28 28" fill="none" xmlns="http://www.w3.org/2000/svg">
<path d="M0 4C0 1.79086 1.79086 0 4 0H24C26.2091 0 28 1.79086 28 4V24C28 26.2091 26.2091 28 24 28H4C1.79086 28 0 26.2091 0 24V4Z" fill="#F6F6F6"/>
<path d="M9.83333 13.9999C9.83333 14.9204 9.08714 15.6666 8.16667 15.6666C7.24619 15.6666 6.5 14.9204 6.5 13.9999C6.5 13.0794 7.24619 12.3333 8.16667 12.3333C9.08714 12.3333 9.83333 13.0794 9.83333 13.9999Z" fill="#555555"/>
<path d="M15.6667 13.9999C15.6667 14.9204 14.9205 15.6666 14 15.6666C13.0795 15.6666 12.3333 14.9204 12.3333 13.9999C12.3333 13.0794 13.0795 12.3333 14 12.3333C14.9205 12.3333 15.6667 13.0794 15.6667 13.9999Z" fill="#555555"/>
<path d="M21.5 13.9999C21.5 14.9204 20.7538 15.6666 19.8333 15.6666C18.9129 15.6666 18.1667 14.9204 18.1667 13.9999C18.1667 13.0794 18.9129 12.3333 19.8333 12.3333C20.7538 12.3333 21.5 13.0794 21.5 13.9999Z" fill="#555555"/>
</svg>
