<svg width="20" height="20" viewBox="0 0 20 20" fill="none" xmlns="http://www.w3.org/2000/svg">
<path d="M16.3981 8.80625L11.5981 4.00625C11.4231 3.83125 11.1106 3.83125 10.9356 4.00625L7.04183 7.9L3.98558 8.40625C3.81058 8.4375 3.67308 8.55625 3.61683 8.725C3.56058 8.89375 3.61058 9.075 3.72933 9.2L7.13558 12.6062L4.00433 15.7375L4.66683 16.4L7.80433 13.2688L11.2043 16.6687C11.2918 16.7562 11.4106 16.8063 11.5356 16.8063C11.5856 16.8063 11.6293 16.8 11.6793 16.7812C11.8481 16.7312 11.9668 16.5875 11.9981 16.4125L12.5043 13.3625L16.3981 9.46875C16.4856 9.38125 16.5356 9.2625 16.5356 9.1375C16.5356 9.0125 16.4856 8.89375 16.3981 8.80625Z" fill="#FFC121"/>
</svg>
