<svg width="16" height="16" viewBox="0 0 16 16" fill="none" xmlns="http://www.w3.org/2000/svg">
<path d="M7.9502 14.85C4.4627 14.85 0.700195 12.6625 0.700195 7.8625C0.700195 3.0625 4.4627 0.875 7.9502 0.875C9.8877 0.875 11.6752 1.5125 13.0002 2.675C14.4377 3.95 15.2002 5.75 15.2002 7.8625C15.2002 9.975 14.4377 11.7625 13.0002 13.0375C11.6752 14.2 9.8752 14.85 7.9502 14.85Z" fill="url(#paint0_radial_1982_39105)"/>
<path d="M5.5 5.11816C4.97625 5.11816 4.5 5.56066 4.5 6.29566C4.5 7.03066 4.97625 7.47191 5.5 7.47191C6.025 7.47191 6.5 7.02941 6.5 6.29566C6.5 5.56191 6.03 5.11816 5.5 5.11816Z" fill="#422B0D"/>
<path d="M5.45667 5.60925C5.27917 5.52425 5.06542 5.59925 4.97917 5.77675C4.91292 5.9155 4.94292 6.08175 5.05417 6.18925C5.23167 6.27425 5.44542 6.19925 5.53167 6.02175C5.59792 5.883 5.56792 5.71675 5.45667 5.60925Z" fill="#896024"/>
<path d="M10.3003 5.11816C9.77654 5.11816 9.30029 5.56066 9.30029 6.29566C9.30029 7.03066 9.77654 7.47191 10.3003 7.47191C10.824 7.47191 11.3003 7.02941 11.3003 6.29566C11.3003 5.56191 10.824 5.11816 10.3003 5.11816Z" fill="#422B0D"/>
<path d="M10.2501 5.60925C10.0726 5.52425 9.85888 5.59925 9.77263 5.77675C9.70638 5.9155 9.73638 6.08175 9.84763 6.18925C10.0251 6.27425 10.2389 6.19925 10.3251 6.02175C10.3914 5.883 10.3614 5.71675 10.2501 5.60925Z" fill="#896024"/>
<path d="M7.87523 11.4516C6.74148 11.4604 5.65898 10.9841 4.90023 10.1416C4.84273 10.0754 4.82898 9.9816 4.86523 9.9016C4.90148 9.82035 4.98148 9.76785 5.07023 9.7666C5.11023 9.7666 5.15023 9.77785 5.18523 9.79785C5.78773 10.1441 6.79523 10.5741 7.87523 10.5741H7.89273C8.97148 10.5741 9.98023 10.1441 10.5815 9.79785C10.6165 9.77785 10.6565 9.7666 10.6965 9.7666C10.7852 9.76785 10.8652 9.82035 10.9015 9.9016C10.939 9.9816 10.9252 10.0754 10.8665 10.1416C10.1077 10.9841 9.02273 11.4616 7.88898 11.4516" fill="#422B0D"/>
<path d="M13.9365 3.70898C14.6027 4.78398 14.9502 6.06398 14.9502 7.48773C14.9502 9.60023 14.1877 11.3877 12.7502 12.6627C11.4252 13.8252 9.62523 14.4752 7.70023 14.4752C5.44273 14.4752 3.07523 13.5565 1.67773 11.6077C3.02273 13.8152 5.55273 14.8502 7.95023 14.8502C9.87523 14.8502 11.6752 14.2002 13.0002 13.0377C14.4377 11.7627 15.2002 9.97523 15.2002 7.86273C15.2002 6.27023 14.7665 4.85523 13.9365 3.70898Z" fill="#E38A00"/>
<defs>
<radialGradient id="paint0_radial_1982_39105" cx="0" cy="0" r="1" gradientUnits="userSpaceOnUse" gradientTransform="translate(7.9502 7.8625) scale(7.11996)">
<stop stop-color="#FFDE1E"/>
<stop offset="0.53" stop-color="#FFDD16"/>
<stop offset="0.795" stop-color="#FEC114"/>
<stop offset="0.955" stop-color="#FEA311"/>
<stop offset="1" stop-color="#F49400"/>
</radialGradient>
</defs>
</svg>
