<svg width="16" height="16" viewBox="0 0 16 16" fill="none" xmlns="http://www.w3.org/2000/svg">
<path d="M7.9502 14.85C4.4627 14.85 0.700195 12.6625 0.700195 7.8625C0.700195 3.0625 4.4627 0.875 7.9502 0.875C9.8877 0.875 11.6752 1.5125 13.0002 2.675C14.4377 3.95 15.2002 5.75 15.2002 7.8625C15.2002 9.975 14.4377 11.7625 13.0002 13.0375C11.6752 14.2 9.8752 14.85 7.9502 14.85Z" fill="url(#paint0_radial_1982_38895)"/>
<path d="M13.9365 3.70898C14.6027 4.78398 14.9502 6.06398 14.9502 7.48773C14.9502 9.60023 14.1877 11.3877 12.7502 12.6627C11.4252 13.8252 9.62523 14.4752 7.70023 14.4752C5.44273 14.4752 3.07523 13.5565 1.67773 11.6077C3.02273 13.8152 5.55273 14.8502 7.95023 14.8502C9.87523 14.8502 11.6752 14.2002 13.0002 13.0377C14.4377 11.7627 15.2002 9.97523 15.2002 7.86273C15.2002 6.27023 14.7665 4.85523 13.9365 3.70898Z" fill="#E38A00"/>
<path d="M13.8125 6.57643C13 6.57643 12.375 5.78893 12.375 5.11393C12.375 4.63893 12.5875 4.08893 12.8875 3.32643C12.925 3.21393 12.975 3.10143 13.025 2.97643C13.1537 2.60643 13.3075 2.24643 13.4863 1.89768C13.5775 1.73518 13.7825 1.67768 13.9463 1.76893C14 1.79893 14.045 1.84393 14.075 1.89768C14.25 2.23018 14.375 2.58643 14.5625 3.00018C15.0875 4.17518 15.2375 4.65018 15.2375 5.12518C15.25 5.78893 14.6125 6.57643 13.8125 6.57643Z" fill="url(#paint1_radial_1982_38895)"/>
<path d="M14.6908 5.67662C14.5071 5.96037 14.0908 5.90662 14.0908 5.43537C14.0908 5.13412 14.1521 3.58662 14.4108 3.80287C14.8321 4.15537 14.9521 5.27537 14.6908 5.67662Z" fill="#81D4FA"/>
<path d="M6.12471 7.11168L6.10596 7.08668L6.05221 7.01793L5.98596 6.94668C5.95846 6.91543 5.92596 6.88543 5.89471 6.85293C5.86346 6.82043 5.82471 6.78918 5.78971 6.76293C5.75721 6.73793 5.72221 6.71418 5.68471 6.69543C5.65971 6.68168 5.63221 6.67043 5.60346 6.66418C5.59471 6.66293 5.58596 6.66293 5.57721 6.66418C5.57721 6.66418 5.56971 6.66418 5.56596 6.66418H5.55596C5.57096 6.66418 5.52221 6.66418 5.58971 6.66418H5.52096C5.50221 6.66418 5.51471 6.66418 5.52096 6.66418H5.53096C5.53096 6.66418 5.54096 6.66418 5.53096 6.66418H5.51721C5.48846 6.67043 5.46096 6.68043 5.43471 6.69543C5.39846 6.71543 5.36221 6.73793 5.32971 6.76293C5.29346 6.79043 5.25846 6.82043 5.22596 6.85293C5.15971 6.91668 5.10096 6.97793 5.06346 7.02668L4.99846 7.10168L4.96971 7.13543C4.78971 7.33668 4.48596 7.36918 4.26721 7.21168C4.12721 7.11418 4.05596 6.94543 4.08346 6.77668C4.08346 6.77668 4.09221 6.72668 4.11596 6.63793C4.15346 6.51168 4.20596 6.38918 4.27221 6.27418C4.37846 6.08668 4.52221 5.92293 4.69471 5.79293C4.80846 5.70543 4.93471 5.63543 5.06971 5.58668C5.10721 5.57168 5.14596 5.56043 5.18471 5.55043C5.22596 5.53793 5.26721 5.52918 5.30971 5.52168L5.38596 5.51043L5.44971 5.50293H5.51846H5.61721H5.68096C5.72346 5.50293 5.76471 5.51418 5.80596 5.52043C5.88596 5.53418 5.96596 5.55543 6.04221 5.58418C6.17721 5.63293 6.30346 5.70293 6.41721 5.79043C6.58971 5.92043 6.73346 6.08418 6.83971 6.27168C6.87846 6.33668 6.91221 6.40543 6.93971 6.47543C6.96346 6.53168 6.98346 6.58793 6.99971 6.64668C7.00846 6.67668 7.01596 6.70668 7.01971 6.73668V6.76793C7.05721 7.02293 6.87971 7.26043 6.62471 7.29793C6.61846 7.29918 6.61221 7.29918 6.60596 7.30043C6.42346 7.32668 6.24096 7.25418 6.12471 7.11168Z" fill="#422B0D"/>
<path d="M11.0571 7.11168L11.0371 7.08668L10.9834 7.01793L10.9171 6.94668C10.8896 6.91543 10.8571 6.88543 10.8259 6.85293C10.7946 6.82043 10.7559 6.78918 10.7209 6.76293C10.6884 6.73793 10.6534 6.71418 10.6159 6.69543C10.5909 6.68168 10.5634 6.67043 10.5346 6.66418C10.5259 6.66293 10.5171 6.66293 10.5084 6.66418C10.5084 6.66418 10.5009 6.66418 10.4971 6.66418H10.4871C10.5021 6.66418 10.4534 6.66418 10.5209 6.66418H10.4521C10.4334 6.66418 10.4459 6.66418 10.4521 6.66418H10.4621C10.4621 6.66418 10.4721 6.66418 10.4621 6.66418H10.4484C10.4196 6.67043 10.3921 6.68043 10.3659 6.69543C10.3296 6.71418 10.2946 6.73793 10.2621 6.76293C10.2246 6.79043 10.1896 6.82043 10.1571 6.85293C10.0909 6.91668 10.0321 6.97793 9.99462 7.02668L9.92962 7.10168L9.90212 7.13543C9.72087 7.33668 9.41837 7.36918 9.19837 7.21168C9.05837 7.11418 8.98712 6.94543 9.01462 6.77668C9.01462 6.77668 9.02337 6.72668 9.04837 6.63793C9.08587 6.51043 9.13712 6.38793 9.20462 6.27418C9.31087 6.08668 9.45337 5.92293 9.62587 5.79293C9.73962 5.70543 9.86587 5.63543 10.0009 5.58668C10.0384 5.57168 10.0771 5.56043 10.1159 5.55043C10.1571 5.53793 10.1984 5.52918 10.2409 5.52168L10.3184 5.51043L10.3809 5.50293H10.4496H10.5484H10.6121C10.6546 5.50293 10.6959 5.51418 10.7371 5.52043C10.8184 5.53418 10.8971 5.55543 10.9734 5.58418C11.1084 5.63293 11.2346 5.70293 11.3484 5.79043C11.5209 5.92043 11.6646 6.08418 11.7709 6.27168C11.8096 6.33668 11.8434 6.40543 11.8709 6.47543C11.8946 6.53043 11.9146 6.58668 11.9309 6.64418C11.9396 6.67418 11.9471 6.70418 11.9509 6.73418V6.76543C11.9909 7.02043 11.8159 7.25918 11.5609 7.29918C11.5571 7.29918 11.5534 7.30043 11.5496 7.30043C11.3634 7.33168 11.1746 7.25918 11.0571 7.11168Z" fill="#422B0D"/>
<path d="M12.7585 8.95293C12.5835 8.63668 12.2035 8.49793 11.866 8.62543C10.5835 8.99918 9.25352 9.18543 7.91727 9.17918C6.58102 9.18543 5.25102 8.99918 3.96852 8.62543C3.63227 8.49793 3.25227 8.63543 3.07727 8.95043C2.90727 9.26418 3.02977 9.62793 3.17352 9.94168C3.97602 11.7042 5.74477 12.7592 7.90727 12.7654H7.92727C10.0898 12.7654 11.8585 11.7042 12.6623 9.94168C12.8048 9.62543 12.9285 9.26668 12.7585 8.95293Z" fill="#422B0D"/>
<path d="M9.91863 12.2676C9.87238 12.2251 9.82488 12.1864 9.77738 12.1426C9.26738 11.6939 8.60738 11.4526 7.92738 11.4664C7.22738 11.4551 6.54613 11.6876 5.99988 12.1251C5.95238 12.1639 5.90238 12.2014 5.85613 12.2501C5.80988 12.2989 5.78488 12.3339 5.75488 12.3751C6.44238 12.6439 7.17488 12.7814 7.91363 12.7776H7.93363C8.64113 12.7776 9.34238 12.6514 10.0049 12.4026C9.97988 12.3551 9.95113 12.3101 9.91863 12.2676Z" fill="#ED7770"/>
<path d="M11.8658 8.62498C10.5833 8.99873 9.25328 9.18498 7.91703 9.17873C6.58078 9.18498 5.25078 8.99873 3.96828 8.62498C3.63203 8.49748 3.25203 8.63498 3.07703 8.94998C3.05203 8.99748 3.03203 9.04748 3.01953 9.09873C3.06078 9.11998 3.10828 9.14123 3.16453 9.16373C4.66953 9.91748 6.33328 10.3 8.01578 10.28C9.62953 10.2987 11.2245 9.94748 12.682 9.25498C12.7408 9.22998 12.7895 9.20623 12.8333 9.18373C12.8233 9.10248 12.797 9.02248 12.7583 8.94998C12.5833 8.63498 12.2033 8.49623 11.8658 8.62498Z" fill="white"/>
<path d="M12.7635 8.95418C12.586 8.63793 12.2048 8.49793 11.8648 8.62543C10.5823 8.99918 9.25227 9.18543 7.91727 9.17918C6.58102 9.18543 5.25102 8.99918 3.96852 8.62543C3.63227 8.49793 3.25227 8.63543 3.07727 8.95043C2.90727 9.26418 3.02977 9.62793 3.17352 9.94168C3.23727 10.0829 3.30852 10.2217 3.38727 10.3554C3.38727 10.3554 3.12477 9.38293 3.35227 9.10043C3.42977 8.98043 3.55977 8.90543 3.70227 8.89793C3.76102 8.89793 3.81852 8.90793 3.87477 8.92543C5.17977 9.30918 6.53352 9.50293 7.89477 9.50043H7.93852C9.29977 9.50293 10.6535 9.30918 11.9585 8.92543C12.0148 8.90793 12.0723 8.89793 12.131 8.89793C12.2735 8.90543 12.4048 8.98043 12.4823 9.10043C12.7135 9.38293 12.4473 10.3592 12.4473 10.3592C12.5248 10.2254 12.6023 10.0879 12.6673 9.94543C12.8098 9.63168 12.9335 9.26918 12.7635 8.95418Z" fill="#E38A00"/>
<defs>
<radialGradient id="paint0_radial_1982_38895" cx="0" cy="0" r="1" gradientUnits="userSpaceOnUse" gradientTransform="translate(7.9502 7.8625) scale(7.11996)">
<stop stop-color="#FFDE1E"/>
<stop offset="0.53" stop-color="#FFDD16"/>
<stop offset="0.795" stop-color="#FEC114"/>
<stop offset="0.955" stop-color="#FEA311"/>
<stop offset="1" stop-color="#F49400"/>
</radialGradient>
<radialGradient id="paint1_radial_1982_38895" cx="0" cy="0" r="1" gradientUnits="userSpaceOnUse" gradientTransform="translate(13.915 2.34362) scale(3.2075 4.93955)">
<stop offset="0.46" stop-color="#29B6F6"/>
<stop offset="1" stop-color="#1E88E5"/>
</radialGradient>
</defs>
</svg>
