<svg width="16" height="16" viewBox="0 0 16 16" fill="none" xmlns="http://www.w3.org/2000/svg">
<g clip-path="url(#clip0_1982_39127)">
<path d="M7.9502 14.85C4.4627 14.85 0.700195 12.6625 0.700195 7.8625C0.700195 3.0625 4.4627 0.875 7.9502 0.875C9.8877 0.875 11.6752 1.5125 13.0002 2.675C14.4377 3.95 15.2002 5.75 15.2002 7.8625C15.2002 9.975 14.4377 11.7625 13.0002 13.0375C11.6752 14.2 9.8752 14.85 7.9502 14.85Z" fill="url(#paint0_radial_1982_39127)"/>
<path d="M13.9365 3.70898C14.6027 4.78398 14.9502 6.06398 14.9502 7.48773C14.9502 9.60023 14.1877 11.3877 12.7502 12.6627C11.4252 13.8252 9.62523 14.4752 7.70023 14.4752C5.44273 14.4752 3.07523 13.5565 1.67773 11.6077C3.02273 13.8152 5.55273 14.8502 7.95023 14.8502C9.87523 14.8502 11.6752 14.2002 13.0002 13.0377C14.4377 11.7627 15.2002 9.97523 15.2002 7.86273C15.2002 6.27023 14.7665 4.85523 13.9365 3.70898Z" fill="#E38A00"/>
<path d="M3.94155 7.54743L5.4628 7.24993L3.89405 6.60243L3.84155 6.57368C3.58655 6.43743 3.48905 6.12118 3.6253 5.86493C3.6553 5.80368 3.6978 5.74993 3.7503 5.70618C4.0003 5.51368 4.34405 5.49868 4.6103 5.66868L7.26905 7.29368C7.33405 7.31743 7.36655 7.38868 7.3428 7.45368C7.32655 7.49743 7.2878 7.52868 7.24155 7.53493L4.3753 8.61618C4.3553 8.61993 4.33405 8.62618 4.3153 8.63493C3.9403 8.73993 3.52405 8.52493 3.46655 8.16243C3.4253 7.88743 3.6378 7.63118 3.94155 7.54743Z" fill="#422B0D"/>
<path d="M12.0589 7.51618L10.5377 7.22243L12.1064 6.57118L12.1589 6.54243C12.4139 6.40618 12.5114 6.08993 12.3752 5.83368C12.3452 5.77243 12.3027 5.71868 12.2502 5.67493C12.0002 5.48243 11.6564 5.46743 11.3902 5.63743L8.73141 7.26243C8.66641 7.28618 8.63391 7.35743 8.65766 7.42243C8.67391 7.46618 8.71266 7.49743 8.75891 7.50368L11.6252 8.58493C11.6452 8.58868 11.6664 8.59493 11.6852 8.60368C12.0602 8.70868 12.4764 8.49368 12.5339 8.13118C12.5752 7.85618 12.3627 7.59993 12.0589 7.51618Z" fill="#422B0D"/>
<path d="M7.85266 10.0536C6.41516 10.0611 4.98016 9.94113 3.56391 9.69238C3.32641 9.64738 3.09641 9.80363 3.05141 10.0411C3.04016 10.0961 3.04016 10.1536 3.05141 10.2086C3.45891 12.2086 5.42641 13.8499 7.85141 13.8499C10.5027 13.8499 12.2864 12.1536 12.6577 10.2011C12.7002 9.96238 12.5427 9.73488 12.3039 9.69113C12.2514 9.68238 12.1964 9.68238 12.1439 9.69113C10.7277 9.93988 9.29141 10.0611 7.85266 10.0536Z" fill="#422B0D"/>
<path d="M7.85266 10.0536C6.41516 10.0611 4.98016 9.94113 3.56391 9.69238C3.32641 9.64738 3.09641 9.80363 3.05141 10.0411C3.04016 10.0961 3.04016 10.1536 3.05141 10.2086C3.45891 12.2086 5.42641 13.8499 7.85141 13.8499C10.5027 13.8499 12.2864 12.1536 12.6577 10.2011C12.7002 9.96238 12.5427 9.73488 12.3039 9.69113C12.2514 9.68238 12.1964 9.68238 12.1439 9.69113C10.7277 9.93988 9.29141 10.0611 7.85266 10.0536Z" fill="#422B0D"/>
<path d="M5.59277 10.9787V13.6037C5.59402 14.7887 6.55402 15.7487 7.73902 15.7499H8.14777C9.33277 15.7499 10.294 14.7887 10.294 13.6037V10.9512C7.94277 11.4137 6.18527 11.1124 5.59277 10.9787Z" fill="#FF4081"/>
<path d="M8.19256 10.6248H7.69256C6.97631 10.6248 6.27006 10.5911 5.59131 10.5348V10.9786C6.18381 11.1123 7.94131 11.4136 10.2926 10.9511V10.5186C9.61631 10.5798 8.91131 10.6161 8.19256 10.6248Z" fill="#FF4081"/>
<path opacity="0.3" d="M8.19256 10.6248H7.69256C6.97631 10.6248 6.27006 10.5911 5.59131 10.5348V10.9786C6.18381 11.1123 7.94131 11.4136 10.2926 10.9511V10.5186C9.61631 10.5798 8.91131 10.6161 8.19256 10.6248Z" fill="#AB3F2E"/>
<path opacity="0.3" d="M7.94385 13.2812C8.08135 13.2812 8.19385 13.1688 8.19385 13.0312V10.625H7.69385V13.03C7.69385 13.1675 7.80635 13.28 7.94385 13.28V13.2812Z" fill="#AB3F2E"/>
</g>
<defs>
<radialGradient id="paint0_radial_1982_39127" cx="0" cy="0" r="1" gradientUnits="userSpaceOnUse" gradientTransform="translate(7.9502 7.8625) scale(7.11996)">
<stop stop-color="#FFDE1E"/>
<stop offset="0.53" stop-color="#FFDD16"/>
<stop offset="0.795" stop-color="#FEC114"/>
<stop offset="0.955" stop-color="#FEA311"/>
<stop offset="1" stop-color="#F49400"/>
</radialGradient>
<clipPath id="clip0_1982_39127">
<rect width="16" height="16" fill="white"/>
</clipPath>
</defs>
</svg>
