<svg width="16" height="16" viewBox="0 0 16 16" fill="none" xmlns="http://www.w3.org/2000/svg">
<path d="M7.9502 14.85C4.4627 14.85 0.700195 12.6625 0.700195 7.8625C0.700195 3.0625 4.4627 0.875 7.9502 0.875C9.8877 0.875 11.6752 1.5125 13.0002 2.675C14.4377 3.95 15.2002 5.75 15.2002 7.8625C15.2002 9.975 14.4377 11.7625 13.0002 13.0375C11.6752 14.2 9.8752 14.85 7.9502 14.85Z" fill="url(#paint0_radial_1982_39138)"/>
<path d="M13.9365 3.70898C14.6027 4.78398 14.9502 6.06398 14.9502 7.48773C14.9502 9.60023 14.1877 11.3877 12.7502 12.6627C11.4252 13.8252 9.62523 14.4752 7.70023 14.4752C5.44273 14.4752 3.07523 13.5565 1.67773 11.6077C3.02273 13.8152 5.55273 14.8502 7.95023 14.8502C9.87523 14.8502 11.6752 14.2002 13.0002 13.0377C14.4377 11.7627 15.2002 9.97523 15.2002 7.86273C15.2002 6.27023 14.7665 4.85523 13.9365 3.70898Z" fill="#E38A00"/>
<path fill-rule="evenodd" clip-rule="evenodd" d="M6.45211 10.6535C6.64526 10.4665 6.95176 10.4657 7.1459 10.6517L7.99813 11.4684L8.83961 10.6535C9.03276 10.4665 9.33926 10.4657 9.5334 10.6517L10.3915 11.4741L10.8246 11.0689C11.0262 10.8802 11.3426 10.8907 11.5313 11.0923C11.72 11.2939 11.7095 11.6103 11.5078 11.799L10.7291 12.5278C10.5352 12.7092 10.2332 12.7074 10.0415 12.5237L9.18926 11.707L8.34778 12.5219C8.15462 12.7089 7.84812 12.7097 7.65399 12.5237L6.80176 11.707L5.96028 12.5219C5.76885 12.7073 5.46568 12.7099 5.27101 12.528L4.50476 11.8117C4.30303 11.6231 4.29235 11.3067 4.48092 11.105C4.66949 10.9033 4.9859 10.8926 5.18763 11.0812L5.60634 11.4726L6.45211 10.6535Z" fill="#35220B"/>
<path d="M4.02491 8.63739L5.54991 8.33739L3.98741 7.68739C3.97366 7.67364 3.95616 7.66614 3.93741 7.66239C3.61241 7.46239 3.54991 7.04989 3.84991 6.79989C4.10116 6.60614 4.44616 6.59114 4.71241 6.76239C5.33741 7.13739 6.79991 8.03739 7.37491 8.38739C7.43866 8.41489 7.46741 8.48864 7.43991 8.55114C7.42366 8.58864 7.38991 8.61614 7.34991 8.62489L4.48741 9.69989C4.46241 9.71239 4.44991 9.71239 4.42491 9.72489C4.04991 9.82489 3.63741 9.61239 3.57491 9.24989C3.51241 8.97489 3.72491 8.71239 4.02491 8.63739Z" fill="#422B0D"/>
<path d="M11.9749 8.60028L10.4499 8.30028L12.0249 7.65028C12.0387 7.63653 12.0562 7.62903 12.0749 7.62528C12.3999 7.42528 12.4624 7.01278 12.1624 6.76278C11.9112 6.56903 11.5662 6.55403 11.2999 6.72528C10.6749 7.10028 9.21243 8.00028 8.63743 8.35028C8.57368 8.37778 8.54493 8.45153 8.57243 8.51403C8.58868 8.55153 8.62243 8.57903 8.66243 8.58778L11.5249 9.66278C11.5499 9.67528 11.5624 9.67528 11.5874 9.68778C11.9624 9.78778 12.3749 9.57528 12.4374 9.21278C12.4874 8.93778 12.2749 8.68778 11.9749 8.60028Z" fill="#422B0D"/>
<defs>
<radialGradient id="paint0_radial_1982_39138" cx="0" cy="0" r="1" gradientUnits="userSpaceOnUse" gradientTransform="translate(7.9502 7.8625) scale(7.11996)">
<stop stop-color="#FFDE1E"/>
<stop offset="0.53" stop-color="#FFDD16"/>
<stop offset="0.795" stop-color="#FEC114"/>
<stop offset="0.955" stop-color="#FEA311"/>
<stop offset="1" stop-color="#F49400"/>
</radialGradient>
</defs>
</svg>
