<svg width="16" height="16" viewBox="0 0 16 16" fill="none" xmlns="http://www.w3.org/2000/svg">
<path fill-rule="evenodd" clip-rule="evenodd" d="M11.7502 2.00293H12.9476C13.1964 2.00293 13.424 2.09378 13.599 2.24412L2.24155 13.5981C2.091 13.4231 2 13.1953 2 12.9464V11.7502L11.7502 2.00293ZM10.5174 2.00293H8.42948L2 8.43047V10.5177L10.5174 2.00293ZM2 7.19804L7.19667 2.00293H5.10466L2 5.10665V7.19804ZM2 3.87421L3.87185 2.00293H3C2.44772 2.00293 2 2.45065 2 3.00293V3.87421ZM3.12601 13.9464H5.21571L13.9476 5.21706V3.128L3.12601 13.9464ZM14.8082 2.26772C14.8982 2.4953 14.9476 2.74334 14.9476 3.00293V5.34512L15 5.39746L14.9476 5.4498V12.9464C14.9476 14.0509 14.0522 14.9464 12.9476 14.9464H8.76846L8.71537 14.9994L8.66228 14.9464H3C1.89543 14.9464 1 14.0509 1 12.9464V3.00293C1 1.89836 1.89543 1.00293 3 1.00293H12.9476C13.6199 1.00293 14.2147 1.33463 14.5773 1.8433L14.905 2.1709L14.8082 2.26772ZM9.76876 13.9464H11.4695L13.9476 11.469V9.76874L9.76876 13.9464ZM13.9476 8.53631L8.53595 13.9464H6.44852L13.9476 6.4495V8.53631ZM13.9476 12.7014L12.7023 13.9464H12.9476C13.4999 13.9464 13.9476 13.4986 13.9476 12.9464V12.7014Z" fill="#20B769"/>
</svg>
