<svg width="16" height="16" viewBox="0 0 16 16" fill="none" xmlns="http://www.w3.org/2000/svg">
<path d="M7.9502 14.85C4.4627 14.85 0.700195 12.6625 0.700195 7.8625C0.700195 3.0625 4.4627 0.875 7.9502 0.875C9.8877 0.875 11.6752 1.5125 13.0002 2.675C14.4377 3.95 15.2002 5.75 15.2002 7.8625C15.2002 9.975 14.4377 11.7625 13.0002 13.0375C11.6752 14.2 9.8752 14.85 7.9502 14.85Z" fill="url(#paint0_radial_1982_39129)"/>
<path d="M13.9365 3.70898C14.6027 4.78398 14.9502 6.06398 14.9502 7.48773C14.9502 9.60023 14.1877 11.3877 12.7502 12.6627C11.4252 13.8252 9.62523 14.4752 7.70023 14.4752C5.44273 14.4752 3.07523 13.5565 1.67773 11.6077C3.02273 13.8152 5.55273 14.8502 7.95023 14.8502C9.87523 14.8502 11.6752 14.2002 13.0002 13.0377C14.4377 11.7627 15.2002 9.97523 15.2002 7.86273C15.2002 6.27023 14.7665 4.85523 13.9365 3.70898Z" fill="#E38A00"/>
<path d="M7.98626 10.25C6.67501 10.25 5.73626 11.0362 5.45751 11.4725C5.35126 11.6137 5.33001 11.8 5.40001 11.9612C5.45376 12.0637 5.56001 12.1275 5.67501 12.125C5.71751 12.1237 5.76001 12.1175 5.80001 12.105C6.46001 11.8937 7.03751 11.5875 7.98626 11.5875C8.93501 11.5875 9.51251 11.8937 10.1725 12.105C10.2125 12.1187 10.255 12.125 10.2975 12.125C10.4125 12.1275 10.5188 12.0637 10.5725 11.9612C10.6425 11.8 10.6213 11.6137 10.515 11.4725C10.2325 11.0362 9.29626 10.25 7.98626 10.25Z" fill="#422B0D"/>
<path d="M6.0199 6.97656C5.26365 6.77906 4.4649 6.80906 3.7249 7.06281C3.5924 7.11406 3.52615 7.26156 3.5774 7.39406C3.6249 7.51781 3.7574 7.58406 3.8849 7.54906C4.18115 7.49156 4.48365 7.47531 4.7849 7.49906C4.7849 7.50656 4.7849 7.54781 4.7849 7.54781C4.7849 8.15906 5.18115 8.52906 5.61865 8.52906C5.8424 8.52656 6.05615 8.43406 6.21115 8.27156C6.47115 7.99531 6.5249 7.58281 6.3424 7.25031C6.27365 7.12156 6.15865 7.02281 6.0199 6.97656Z" fill="#422B0D"/>
<path d="M12 6.97656C11.2437 6.77906 10.445 6.80906 9.70495 7.06281C9.5712 7.11031 9.49995 7.25656 9.54745 7.39031C9.59495 7.52406 9.7412 7.59531 9.87495 7.54781C10.1712 7.49031 10.4737 7.47406 10.7737 7.49781C10.7737 7.50531 10.7737 7.54656 10.7737 7.54656C10.7737 8.15781 11.1712 8.52781 11.6075 8.52781C11.8325 8.52531 12.0462 8.43281 12.2012 8.27031C12.4575 7.99406 12.5075 7.58406 12.3262 7.25406C12.2575 7.12406 12.14 7.02406 12 6.97656Z" fill="#422B0D"/>
<path d="M10.9601 5.50034C10.8338 5.50284 10.7301 5.40159 10.7276 5.27534C10.7251 5.14909 10.8263 5.04534 10.9526 5.04284C11.1951 5.01659 11.4413 5.03159 11.6788 5.08659C12.3263 5.21784 12.9013 5.58909 13.2863 6.12534C13.4588 6.38534 13.1213 6.60034 12.9188 6.40659C12.3901 5.88659 11.6988 5.56659 10.9601 5.50034Z" fill="#422B0D"/>
<path d="M4.73508 5.50034C4.86133 5.50284 4.96508 5.40159 4.96758 5.27534C4.97008 5.14909 4.86883 5.04534 4.74258 5.04284C4.50008 5.01659 4.25383 5.03159 4.01633 5.08659C3.36883 5.21784 2.79383 5.58909 2.40883 6.12534C2.23508 6.38534 2.57383 6.60034 2.77633 6.40659C3.30508 5.88659 3.99633 5.56659 4.73508 5.50034Z" fill="#422B0D"/>
<path d="M5.63279 7.39831C5.81029 7.31331 6.02404 7.38831 6.11029 7.56581C6.17654 7.70456 6.14654 7.87081 6.03529 7.97831C5.85779 8.06331 5.64404 7.98831 5.55779 7.81081C5.49154 7.67206 5.52154 7.50581 5.63279 7.39831Z" fill="#896024"/>
<path d="M11.6324 7.39825C11.8112 7.3145 12.0237 7.39075 12.1087 7.5695C12.1737 7.70825 12.1437 7.872 12.0337 7.97825C11.8549 8.062 11.6424 7.98575 11.5574 7.807C11.4924 7.6695 11.5224 7.5045 11.6324 7.39825Z" fill="#896024"/>
<defs>
<radialGradient id="paint0_radial_1982_39129" cx="0" cy="0" r="1" gradientUnits="userSpaceOnUse" gradientTransform="translate(7.9502 7.8625) scale(7.11996)">
<stop stop-color="#FFDE1E"/>
<stop offset="0.53" stop-color="#FFDD16"/>
<stop offset="0.795" stop-color="#FEC114"/>
<stop offset="0.955" stop-color="#FEA311"/>
<stop offset="1" stop-color="#F49400"/>
</radialGradient>
</defs>
</svg>
