<svg width="16" height="16" viewBox="0 0 16 16" fill="none" xmlns="http://www.w3.org/2000/svg">
<path d="M13.6669 4H2.3335" stroke="#555555" stroke-linecap="round"/>
<path d="M12.5554 5.66699L12.2488 10.2664C12.1308 12.0363 12.0718 12.9213 11.4952 13.4608C10.9185 14.0003 10.0315 14.0003 8.25768 14.0003H7.7421C5.96824 14.0003 5.0813 14.0003 4.50463 13.4608C3.92796 12.9213 3.86896 12.0363 3.75096 10.2664L3.44434 5.66699" stroke="#555555" stroke-linecap="round"/>
<path d="M6.3335 7.33301L6.66683 10.6663" stroke="#555555" stroke-linecap="round"/>
<path d="M9.66683 7.33301L9.3335 10.6663" stroke="#555555" stroke-linecap="round"/>
<path d="M4.3335 4C4.37075 4 4.38938 4 4.40626 3.99957C4.95522 3.98566 5.43951 3.63661 5.62631 3.12021C5.63205 3.10433 5.63794 3.08666 5.64972 3.05132L5.71445 2.85714C5.7697 2.69139 5.79733 2.6085 5.83397 2.53813C5.98017 2.25738 6.25066 2.06242 6.56324 2.01251C6.64158 2 6.72895 2 6.90367 2H9.09666C9.27138 2 9.35874 2 9.43709 2.01251C9.74967 2.06242 10.0202 2.25738 10.1664 2.53813C10.203 2.6085 10.2306 2.69138 10.2859 2.85714L10.3506 3.05132C10.3624 3.08661 10.3683 3.10434 10.374 3.12021C10.5608 3.63661 11.0451 3.98566 11.5941 3.99957C11.611 4 11.6296 4 11.6668 4" stroke="#555555"/>
</svg>
