<svg width="16" height="16" viewBox="0 0 16 16" fill="none" xmlns="http://www.w3.org/2000/svg">
<path d="M7.9502 14.85C4.4627 14.85 0.700195 12.6625 0.700195 7.8625C0.700195 3.0625 4.4627 0.875 7.9502 0.875C9.8877 0.875 11.6752 1.5125 13.0002 2.675C14.4377 3.95 15.2002 5.75 15.2002 7.8625C15.2002 9.975 14.4377 11.7625 13.0002 13.0375C11.6752 14.2 9.8752 14.85 7.9502 14.85Z" fill="url(#paint0_radial_1982_39140)"/>
<path d="M13.9365 3.70898C14.6027 4.78398 14.9502 6.06398 14.9502 7.48773C14.9502 9.60023 14.1877 11.3877 12.7502 12.6627C11.4252 13.8252 9.62523 14.4752 7.70023 14.4752C5.44273 14.4752 3.07523 13.5565 1.67773 11.6077C3.02273 13.8152 5.55273 14.8502 7.95023 14.8502C9.87523 14.8502 11.6752 14.2002 13.0002 13.0377C14.4377 11.7627 15.2002 9.97523 15.2002 7.86273C15.2002 6.27023 14.7665 4.85523 13.9365 3.70898Z" fill="#E38A00"/>
<path d="M7.98781 10.25C6.67531 10.25 5.73781 11.0375 5.46281 11.475C5.35781 11.615 5.33406 11.8 5.40031 11.9625C5.45281 12.0662 5.56031 12.1287 5.67531 12.125C5.71781 12.1225 5.76031 12.1137 5.80031 12.1C6.46281 11.8875 7.03781 11.5875 7.98781 11.5875C8.93781 11.5875 9.51281 11.9 10.1753 12.1C10.2153 12.1137 10.2578 12.1225 10.3003 12.125C10.4153 12.1287 10.5228 12.0662 10.5753 11.9625C10.6478 11.8012 10.6228 11.6125 10.5128 11.475C10.2378 11.0375 9.30031 10.25 7.98781 10.25Z" fill="#422B0D"/>
<path d="M5.5 6.24219C4.97625 6.24219 4.5 6.68469 4.5 7.41969C4.5 8.15469 4.97625 8.59594 5.5 8.59594C6.025 8.59594 6.5 8.15344 6.5 7.41969C6.5 6.68594 6.03 6.24219 5.5 6.24219Z" fill="#422B0D"/>
<path d="M5.45667 6.73327C5.27917 6.64827 5.06542 6.72327 4.97917 6.90077C4.91292 7.03952 4.94292 7.20577 5.05417 7.31327C5.23167 7.39827 5.44542 7.32327 5.53167 7.14577C5.59792 7.00702 5.56792 6.84077 5.45667 6.73327Z" fill="#896024"/>
<path d="M10.3003 6.24219C9.77654 6.24219 9.30029 6.68469 9.30029 7.41969C9.30029 8.15469 9.77654 8.59594 10.3003 8.59594C10.824 8.59594 11.3003 8.15344 11.3003 7.41969C11.3003 6.68594 10.824 6.24219 10.3003 6.24219Z" fill="#422B0D"/>
<path d="M10.2501 6.73327C10.0726 6.64827 9.85888 6.72327 9.77263 6.90077C9.70638 7.03952 9.73638 7.20577 9.84763 7.31327C10.0251 7.39827 10.2389 7.32327 10.3251 7.14577C10.3914 7.00702 10.3614 6.84077 10.2501 6.73327Z" fill="#896024"/>
<path d="M3.4252 4.34985C3.1502 4.39985 3.1377 4.79985 3.4377 4.81235C4.1002 4.8211 4.7402 4.57485 5.2252 4.12485C5.4102 3.96485 5.56645 3.77485 5.6877 3.56235C5.7602 3.4586 5.7352 3.3161 5.63145 3.2436C5.5277 3.1711 5.3852 3.1961 5.3127 3.29985L5.3002 3.31235C4.8102 3.85985 4.14895 4.2261 3.4252 4.34985Z" fill="#422B0D"/>
<path d="M10.5629 3.29985C10.4904 3.1961 10.3479 3.1711 10.2442 3.2436C10.1404 3.3161 10.1154 3.4586 10.1879 3.56235C10.3092 3.77485 10.4654 3.96485 10.6504 4.12485C11.1379 4.5711 11.7767 4.81735 12.4379 4.81235C12.7504 4.79985 12.7254 4.39985 12.4504 4.34985C11.7179 4.22985 11.0517 3.8586 10.5629 3.29985Z" fill="#422B0D"/>
<defs>
<radialGradient id="paint0_radial_1982_39140" cx="0" cy="0" r="1" gradientUnits="userSpaceOnUse" gradientTransform="translate(7.9502 7.8625) scale(7.11996)">
<stop stop-color="#FFDE1E"/>
<stop offset="0.53" stop-color="#FFDD16"/>
<stop offset="0.795" stop-color="#FEC114"/>
<stop offset="0.955" stop-color="#FEA311"/>
<stop offset="1" stop-color="#F49400"/>
</radialGradient>
</defs>
</svg>
