<svg width="16" height="16" viewBox="0 0 16 16" fill="none" xmlns="http://www.w3.org/2000/svg">
<path d="M7.9502 14.85C4.4627 14.85 0.700195 12.6625 0.700195 7.8625C0.700195 3.0625 4.4627 0.875 7.9502 0.875C9.8877 0.875 11.6752 1.5125 13.0002 2.675C14.4377 3.95 15.2002 5.75 15.2002 7.8625C15.2002 9.975 14.4377 11.7625 13.0002 13.0375C11.6752 14.2 9.8752 14.85 7.9502 14.85Z" fill="url(#paint0_radial_1982_39119)"/>
<path d="M13.9365 3.70898C14.6027 4.78398 14.9502 6.06398 14.9502 7.48773C14.9502 9.60023 14.1877 11.3877 12.7502 12.6627C11.4252 13.8252 9.62523 14.4752 7.70023 14.4752C5.44273 14.4752 3.07523 13.5565 1.67773 11.6077C3.02273 13.8152 5.55273 14.8502 7.95023 14.8502C9.87523 14.8502 11.6752 14.2002 13.0002 13.0377C14.4377 11.7627 15.2002 9.97523 15.2002 7.86273C15.2002 6.27023 14.7665 4.85523 13.9365 3.70898Z" fill="#E38A00"/>
<path d="M9.7 11.5502C9.7 12.434 8.98375 13.1502 8.1 13.1502C7.21625 13.1502 6.5 12.434 6.5 11.5502C6.5 10.6665 7.21625 9.9502 8.1 9.9502C8.98125 9.9477 9.6975 10.659 9.7 11.5402C9.7 11.544 9.7 11.5465 9.7 11.5502Z" fill="#422B0D"/>
<path d="M5.3335 5.86719C4.80975 5.86719 4.3335 6.30969 4.3335 7.04469C4.3335 7.77969 4.80975 8.22094 5.3335 8.22094C5.85725 8.22094 6.3335 7.77844 6.3335 7.04469C6.3335 6.31094 5.85725 5.86719 5.3335 5.86719Z" fill="#422B0D"/>
<path d="M5.2848 6.35827C5.1073 6.27327 4.89355 6.34827 4.8073 6.52577C4.74105 6.66452 4.77105 6.83077 4.8823 6.93827C5.0598 7.02327 5.27355 6.94827 5.3598 6.77077C5.42605 6.63202 5.39605 6.46577 5.2848 6.35827Z" fill="#896024"/>
<path d="M10.75 5.86719C10.2262 5.86719 9.75 6.30969 9.75 7.04469C9.75 7.77969 10.2262 8.22094 10.75 8.22094C11.2738 8.22094 11.75 7.77844 11.75 7.04469C11.75 6.31094 11.2763 5.86719 10.75 5.86719Z" fill="#422B0D"/>
<path d="M10.7037 6.35827C10.5262 6.27327 10.3125 6.34827 10.2262 6.52577C10.16 6.66452 10.19 6.83077 10.3012 6.93827C10.4787 7.02327 10.6925 6.94827 10.7787 6.77077C10.845 6.63202 10.815 6.46577 10.7037 6.35827Z" fill="#896024"/>
<path d="M3.58737 4.74988C3.49987 4.84113 3.35362 4.84488 3.26237 4.75613C3.17987 4.67738 3.16862 4.54863 3.23487 4.45613C3.37612 4.25238 3.54987 4.07488 3.74987 3.92863C4.27362 3.52488 4.92987 3.33363 5.58862 3.39363C5.89987 3.43238 5.83862 3.82988 5.56237 3.85613C4.81987 3.91488 4.12112 4.23113 3.58737 4.74988Z" fill="#422B0D"/>
<path d="M12.471 4.77891C12.5585 4.87016 12.7047 4.87391 12.796 4.78516C12.8785 4.70641 12.8897 4.57766 12.8235 4.48516C12.6847 4.28391 12.5122 4.10766 12.3147 3.96391C11.791 3.56016 11.1347 3.36891 10.476 3.43016C10.166 3.46891 10.226 3.86516 10.5022 3.89141C11.2422 3.95016 11.9372 4.26391 12.471 4.77891Z" fill="#422B0D"/>
<defs>
<radialGradient id="paint0_radial_1982_39119" cx="0" cy="0" r="1" gradientUnits="userSpaceOnUse" gradientTransform="translate(7.9502 7.8625) scale(7.11996)">
<stop stop-color="#FFDE1E"/>
<stop offset="0.53" stop-color="#FFDD16"/>
<stop offset="0.795" stop-color="#FEC114"/>
<stop offset="0.955" stop-color="#FEA311"/>
<stop offset="1" stop-color="#F49400"/>
</radialGradient>
</defs>
</svg>
