<svg width="16" height="16" viewBox="0 0 16 16" fill="none" xmlns="http://www.w3.org/2000/svg">
<path d="M7.47871 14.0695C7.47871 14.2049 7.42491 14.3348 7.32914 14.4306C7.23338 14.5264 7.10349 14.5802 6.96805 14.5802H3.3934C3.12253 14.5802 2.86275 14.4726 2.67121 14.281C2.47967 14.0895 2.37207 13.8297 2.37207 13.5588V3.34555C2.37207 3.07467 2.47967 2.8149 2.67121 2.62336C2.86275 2.43182 3.12253 2.32422 3.3934 2.32422H6.96805C7.10349 2.32422 7.23338 2.37802 7.32914 2.47379C7.42491 2.56956 7.47871 2.69945 7.47871 2.83488C7.47871 2.97032 7.42491 3.10021 7.32914 3.19598C7.23338 3.29175 7.10349 3.34555 6.96805 3.34555H3.3934V13.5588H6.96805C7.10349 13.5588 7.23338 13.6126 7.32914 13.7084C7.42491 13.8042 7.47871 13.9341 7.47871 14.0695ZM14.4786 8.0909L11.9253 5.53757C11.8295 5.44175 11.6995 5.38792 11.564 5.38792C11.4285 5.38792 11.2986 5.44175 11.2027 5.53757C11.1069 5.6334 11.0531 5.76336 11.0531 5.89887C11.0531 6.03438 11.1069 6.16434 11.2027 6.26016L12.8847 7.94153H6.96805C6.83261 7.94153 6.70272 7.99533 6.60696 8.0911C6.51119 8.18687 6.45739 8.31675 6.45739 8.45219C6.45739 8.58763 6.51119 8.71752 6.60696 8.81329C6.70272 8.90905 6.83261 8.96286 6.96805 8.96286H12.8847L11.2027 10.6442C11.1069 10.74 11.0531 10.87 11.0531 11.0055C11.0531 11.141 11.1069 11.271 11.2027 11.3668C11.2986 11.4626 11.4285 11.5165 11.564 11.5165C11.6995 11.5165 11.8295 11.4626 11.9253 11.3668L14.4786 8.81349C14.5261 8.76606 14.5638 8.70974 14.5895 8.64775C14.6152 8.58575 14.6284 8.5193 14.6284 8.45219C14.6284 8.38508 14.6152 8.31863 14.5895 8.25664C14.5638 8.19464 14.5261 8.13832 14.4786 8.0909Z" fill="#555555"/>
</svg>
