<svg width="16" height="16" viewBox="0 0 16 16" fill="none" xmlns="http://www.w3.org/2000/svg">
<path d="M7.9502 14.85C4.4627 14.85 0.700195 12.6625 0.700195 7.8625C0.700195 3.0625 4.4627 0.875 7.9502 0.875C9.8877 0.875 11.6752 1.5125 13.0002 2.675C14.4377 3.95 15.2002 5.75 15.2002 7.8625C15.2002 9.975 14.4377 11.7625 13.0002 13.0375C11.6752 14.2 9.8752 14.85 7.9502 14.85Z" fill="url(#paint0_radial_1982_39115)"/>
<path d="M13.9365 3.70898C14.6027 4.78398 14.9502 6.06398 14.9502 7.48773C14.9502 9.60023 14.1877 11.3877 12.7502 12.6627C11.4252 13.8252 9.62523 14.4752 7.70023 14.4752C5.44273 14.4752 3.07523 13.5565 1.67773 11.6077C3.02273 13.8152 5.55273 14.8502 7.95023 14.8502C9.87523 14.8502 11.6752 14.2002 13.0002 13.0377C14.4377 11.7627 15.2002 9.97523 15.2002 7.86273C15.2002 6.27023 14.7665 4.85523 13.9365 3.70898Z" fill="#E38A00"/>
<path d="M7.17282 8.30044L7.14782 8.28294L7.13532 8.27294C6.68407 7.94919 5.57282 7.05419 5.11032 6.73794C4.91282 6.59294 4.64032 6.60794 4.46032 6.77544C4.26782 6.97419 4.27407 7.29044 4.47157 7.48294C4.48782 7.49794 4.50407 7.51294 4.52282 7.52544C4.53532 7.53794 4.54782 7.53794 4.56032 7.55044L5.92157 8.15169C5.81907 8.15169 5.71782 8.15169 5.62282 8.16294L5.18532 8.20044C5.03532 8.22544 4.87282 8.25044 4.71032 8.27544C4.54782 8.30044 4.36032 8.35044 4.17282 8.40044C4.01782 8.44419 3.87532 8.52544 3.76032 8.63794C3.65157 8.73544 3.58157 8.86794 3.56032 9.01294C3.54532 9.15169 3.57657 9.29294 3.64782 9.41294C3.70782 9.52044 3.80657 9.60044 3.92282 9.63794C4.03907 9.67544 4.16282 9.68794 4.28532 9.67544C4.41907 9.65794 4.54657 9.61044 4.66032 9.53794C4.82282 9.45044 4.98532 9.36294 5.13532 9.30044C5.27782 9.23294 5.42532 9.17419 5.57532 9.12419C5.71532 9.07544 5.85657 9.03294 6.00032 8.99919C6.15282 8.96169 6.30657 8.93294 6.46282 8.91169C6.62532 8.88669 6.81282 8.87419 7.01282 8.86169C7.15657 8.83294 7.26032 8.70794 7.26282 8.56169C7.27407 8.46544 7.24157 8.36919 7.17282 8.30044Z" fill="#422B0D"/>
<path d="M12.4376 9.01196C12.4163 8.86696 12.3463 8.73446 12.2376 8.63696C12.1226 8.52446 11.9801 8.44321 11.8251 8.39946C11.6376 8.34946 11.4626 8.31196 11.2876 8.27446C11.1126 8.23696 10.9626 8.22446 10.8126 8.19946L10.3751 8.16196C10.2763 8.15321 10.1713 8.15071 10.0651 8.15071L11.4251 7.54946C11.4376 7.53696 11.4501 7.53696 11.4626 7.52446C11.6851 7.36071 11.7326 7.04696 11.5676 6.82571C11.5538 6.80821 11.5401 6.79071 11.5251 6.77446C11.3451 6.60696 11.0726 6.59196 10.8751 6.73696C10.4251 7.05321 9.31385 7.94821 8.8626 8.27196L8.8501 8.28196L8.8251 8.29946C8.75635 8.36821 8.72385 8.46446 8.7351 8.56071C8.7376 8.70696 8.84135 8.83196 8.9851 8.86071C9.1851 8.87321 9.3726 8.88571 9.5351 8.91071C9.69135 8.93196 9.84635 8.96196 10.0001 8.99946C10.1438 9.03321 10.2851 9.07571 10.4251 9.12446C10.5738 9.17446 10.7201 9.23196 10.8626 9.29946C11.0126 9.36196 11.1751 9.44946 11.3376 9.53696C11.4501 9.61196 11.5788 9.65821 11.7126 9.67446C11.8351 9.68696 11.9588 9.67446 12.0751 9.63696C12.1913 9.59946 12.2901 9.51946 12.3501 9.41196C12.4213 9.29196 12.4526 9.15071 12.4376 9.01196Z" fill="#422B0D"/>
<path d="M7.99999 10.3994C9.34999 10.3994 10.225 11.3869 10.4625 11.8494C10.55 12.0244 10.55 12.1744 10.475 12.2369C10.395 12.2869 10.2925 12.2869 10.2125 12.2369C10.1725 12.2207 10.135 12.1994 10.1 12.1744C9.48749 11.7344 8.75374 11.4944 7.99999 11.4869C7.24874 11.4969 6.51624 11.7319 5.89999 12.1619C5.86499 12.1869 5.82749 12.2082 5.78749 12.2244C5.70749 12.2744 5.60499 12.2744 5.52499 12.2244C5.44999 12.1494 5.44999 12.0119 5.53749 11.8369C5.77499 11.3869 6.64999 10.3994 7.99999 10.3994Z" fill="#422B0D"/>
<path d="M3.4252 5.34985C3.1502 5.39985 3.1377 5.79985 3.4377 5.81235C4.1002 5.8211 4.7402 5.57485 5.2252 5.12485C5.4102 4.96485 5.56645 4.77485 5.6877 4.56235C5.7602 4.4586 5.7352 4.3161 5.63145 4.2436C5.5277 4.1711 5.3852 4.1961 5.3127 4.29985L5.3002 4.31235C4.8102 4.85985 4.14895 5.2261 3.4252 5.34985Z" fill="#422B0D"/>
<path d="M10.5629 4.29985C10.4904 4.1961 10.3479 4.1711 10.2442 4.2436C10.1404 4.3161 10.1154 4.4586 10.1879 4.56235C10.3092 4.77485 10.4654 4.96485 10.6504 5.12485C11.1379 5.5711 11.7767 5.81735 12.4379 5.81235C12.7504 5.79985 12.7254 5.39985 12.4504 5.34985C11.7179 5.22985 11.0517 4.8586 10.5629 4.29985Z" fill="#422B0D"/>
<defs>
<radialGradient id="paint0_radial_1982_39115" cx="0" cy="0" r="1" gradientUnits="userSpaceOnUse" gradientTransform="translate(7.9502 7.8625) scale(7.11996)">
<stop stop-color="#FFDE1E"/>
<stop offset="0.53" stop-color="#FFDD16"/>
<stop offset="0.795" stop-color="#FEC114"/>
<stop offset="0.955" stop-color="#FEA311"/>
<stop offset="1" stop-color="#F49400"/>
</radialGradient>
</defs>
</svg>
