<svg width="16" height="16" viewBox="0 0 16 16" fill="none" xmlns="http://www.w3.org/2000/svg">
<g clip-path="url(#clip0_1982_39128)">
<path d="M7.9502 14.85C4.4627 14.85 0.700195 12.6625 0.700195 7.8625C0.700195 3.0625 4.4627 0.875 7.9502 0.875C9.8877 0.875 11.6752 1.5125 13.0002 2.675C14.4377 3.95 15.2002 5.75 15.2002 7.8625C15.2002 9.975 14.4377 11.7625 13.0002 13.0375C11.6752 14.2 9.8752 14.85 7.9502 14.85Z" fill="url(#paint0_radial_1982_39128)"/>
<path d="M13.9365 3.70898C14.6027 4.78398 14.9502 6.06398 14.9502 7.48773C14.9502 9.60023 14.1877 11.3877 12.7502 12.6627C11.4252 13.8252 9.62523 14.4752 7.70023 14.4752C5.44273 14.4752 3.07523 13.5565 1.67773 11.6077C3.02273 13.8152 5.55273 14.8502 7.95023 14.8502C9.87523 14.8502 11.6752 14.2002 13.0002 13.0377C14.4377 11.7627 15.2002 9.97523 15.2002 7.86273C15.2002 6.27023 14.7665 4.85523 13.9365 3.70898Z" fill="#E38A00"/>
<path d="M7.99982 12.1631C6.34357 12.1631 5.16107 11.1869 4.80607 10.6456C4.67232 10.4719 4.64357 10.2381 4.73357 10.0381C4.80232 9.91064 4.93607 9.83189 5.08107 9.83564C5.13357 9.83564 5.18732 9.84439 5.23732 9.86064C6.07232 10.1244 6.80232 10.4994 7.99982 10.4994C9.19732 10.4994 9.92982 10.1244 10.7623 9.85814C10.8123 9.84189 10.8661 9.83314 10.9186 9.83314C11.0636 9.82939 11.1973 9.90814 11.2661 10.0356C11.3561 10.2356 11.3273 10.4694 11.1936 10.6431C10.8386 11.1869 9.65607 12.1631 7.99982 12.1631Z" fill="#422B0D"/>
<path d="M10.2925 13.7623C10.1675 13.1823 9.96996 12.6298 10.0175 12.2623C10.11 11.5498 10.5387 11.3036 10.5387 11.3036C10.3175 11.2498 10.085 11.2761 9.88121 11.3786C9.47121 11.5661 9.64871 11.6611 9.01746 11.7911C8.48621 11.9011 8.17996 11.6273 7.57371 11.7323C7.03246 11.8273 6.89746 12.0098 6.89746 12.0098C7.19496 12.1036 7.50246 12.1673 7.81246 12.2011C8.81246 12.3198 8.68746 13.2011 8.61621 13.5761C8.47371 14.3023 8.28121 15.5673 9.47496 15.5211C10.3412 15.4911 10.4637 14.5898 10.2925 13.7623Z" fill="url(#paint1_linear_1982_39128)"/>
<path d="M3.73846 7.30942C3.56846 7.14817 3.56096 6.87942 3.72221 6.70817C3.74596 6.68317 3.77221 6.66067 3.80096 6.64317C4.16721 6.37442 4.57596 6.17067 5.01096 6.04192C5.45096 5.93192 5.90596 5.89817 6.35721 5.94317C6.59221 5.95317 6.77596 6.15067 6.76596 6.38567C6.76471 6.41942 6.75971 6.45317 6.74971 6.48692C6.67846 6.70317 6.46721 6.84192 6.24096 6.82067C5.90596 6.78442 5.56846 6.80692 5.24096 6.88567C4.91971 6.98442 4.61596 7.13817 4.34596 7.33817C4.16221 7.47192 3.90971 7.46067 3.73846 7.30942Z" fill="#422B0D"/>
<path d="M12.2608 7.30942C12.4308 7.14817 12.4383 6.87942 12.2771 6.70817C12.2533 6.68317 12.227 6.66067 12.1983 6.64317C11.832 6.37442 11.4233 6.17067 10.9883 6.04192C10.5483 5.93192 10.0933 5.89817 9.64205 5.94317C9.40705 5.95317 9.2233 6.15067 9.2333 6.38567C9.23455 6.41942 9.23955 6.45317 9.24955 6.48692C9.3208 6.70317 9.53205 6.84192 9.7583 6.82067C10.0933 6.78442 10.4308 6.80692 10.7583 6.88567C11.0795 6.98442 11.3833 7.13817 11.6533 7.33817C11.837 7.47192 12.0895 7.46067 12.2608 7.30942Z" fill="#422B0D"/>
<path d="M9.98508 14.8261C9.85133 15.0336 9.54883 14.9936 9.54883 14.6511C9.54883 14.4311 9.59383 13.3048 9.78133 13.4623C10.0888 13.7186 10.1763 14.5348 9.98508 14.8261Z" fill="#81D4FA"/>
<path d="M3.78993 5.07096C3.62243 5.29471 3.25868 5.12846 3.38118 4.85471C3.66618 4.25721 4.17118 3.79221 4.78993 3.55721C5.01618 3.46221 5.25618 3.40721 5.49993 3.39221C5.62493 3.37346 5.74118 3.45971 5.75993 3.58346C5.77868 3.70721 5.69243 3.82471 5.56868 3.84346H5.55243C4.84243 4.04221 4.22118 4.47471 3.78993 5.07096Z" fill="#422B0D"/>
<path d="M12.1438 4.17962C12.3238 4.39337 12.6776 4.20712 12.5401 3.94087C12.2213 3.36087 11.6913 2.92462 11.0601 2.72462C10.8301 2.64337 10.5876 2.60087 10.3426 2.59962C10.2151 2.59837 10.1126 2.70087 10.1113 2.82837C10.1113 2.93962 10.1901 3.03587 10.3001 3.05587H10.3163C11.0351 3.21337 11.6788 3.60837 12.1438 4.17962Z" fill="#422B0D"/>
</g>
<defs>
<radialGradient id="paint0_radial_1982_39128" cx="0" cy="0" r="1" gradientUnits="userSpaceOnUse" gradientTransform="translate(7.9502 7.8625) scale(7.11996)">
<stop stop-color="#FFDE1E"/>
<stop offset="0.53" stop-color="#FFDD16"/>
<stop offset="0.795" stop-color="#FEC114"/>
<stop offset="0.955" stop-color="#FEA311"/>
<stop offset="1" stop-color="#F49400"/>
</radialGradient>
<linearGradient id="paint1_linear_1982_39128" x1="8.71809" y1="15.5223" x2="8.71809" y2="11.2766" gradientUnits="userSpaceOnUse">
<stop offset="0.46" stop-color="#29B6F6"/>
<stop offset="1" stop-color="#1E88E5"/>
</linearGradient>
<clipPath id="clip0_1982_39128">
<rect width="16" height="16" fill="white"/>
</clipPath>
</defs>
</svg>
