<svg width="20" height="20" viewBox="0 0 20 20" fill="none" xmlns="http://www.w3.org/2000/svg">
<path fill-rule="evenodd" clip-rule="evenodd" d="M16.8571 4H12.2857C11.8422 4 11.4047 4.09036 11.008 4.26393C10.6112 4.4375 10.2661 4.68951 10 5C9.73387 4.68951 9.38877 4.4375 8.99204 4.26393C8.59531 4.09036 8.15784 4 7.71429 4H3.14286C2.83975 4 2.54906 4.10536 2.33474 4.29289C2.12041 4.48043 2 4.73478 2 5V13C2 13.2652 2.12041 13.5196 2.33474 13.7071C2.54906 13.8946 2.83975 14 3.14286 14H7.71429C8.16894 14 8.60498 14.158 8.92647 14.4393C9.24796 14.7206 9.42857 15.1022 9.42857 15.5C9.42857 15.6326 9.48878 15.7598 9.59594 15.8536C9.7031 15.9473 9.84845 16 10 16C10.1516 16 10.2969 15.9473 10.4041 15.8536C10.5112 15.7598 10.5714 15.6326 10.5714 15.5C10.5714 15.1022 10.752 14.7206 11.0735 14.4393C11.395 14.158 11.8311 14 12.2857 14H16.8571C17.1602 14 17.4509 13.8946 17.6653 13.7071C17.8796 13.5196 18 13.2652 18 13V5C18 4.73478 17.8796 4.48043 17.6653 4.29289C17.4509 4.10536 17.1602 4 16.8571 4Z" fill="#59B7EA"/>
<path d="M8.66683 7.50516C8.57428 7.55272 8.48524 7.60508 8.40016 7.66185C8.25455 7.75901 8.1205 7.86912 8.00016 7.99024C7.58525 8.40785 7.3335 8.95641 7.3335 9.55722C7.3335 10.8656 8.5274 11.9262 10.0002 11.9262C11.4729 11.9262 12.6668 10.8656 12.6668 9.55722C12.6668 8.95641 12.4151 8.40785 12.0002 7.99024C11.8798 7.86912 11.7458 7.75901 11.6002 7.66185C11.5151 7.60508 11.426 7.55272 11.3335 7.50516" stroke="white" stroke-linecap="round" stroke-linejoin="round"/>
<path d="M10 7.00041V9.52673" stroke="white" stroke-linecap="round" stroke-linejoin="round"/>
</svg>
