<svg width="15" height="15" viewBox="0 0 15 15" fill="none" xmlns="http://www.w3.org/2000/svg">
<path d="M7.78711 14.4746C4.02539 14.4746 0.949219 11.416 0.949219 7.63672C0.949219 3.85742 4.02539 0.798828 7.78711 0.798828C11.5664 0.798828 14.6426 3.85742 14.6426 7.63672C14.6426 11.416 11.5664 14.4746 7.78711 14.4746ZM7.78711 13.4023C10.9688 13.4023 13.5527 10.8184 13.5527 7.63672C13.5527 4.45508 10.9688 1.87109 7.78711 1.87109C4.62305 1.87109 2.02148 4.45508 2.02148 7.63672C2.02148 10.8184 4.62305 13.4023 7.78711 13.4023ZM7.80469 10.8711C6.50391 10.8711 5.55469 10.1504 5.53711 9.0957H6.55664C6.57422 9.6582 7.10156 10.0273 7.80469 10.0273C8.56055 10.0273 9.08789 9.60547 9.07031 9.00781C9.08789 8.375 8.54297 7.95312 7.68164 7.95312H7.20703V7.17969H7.68164C8.40234 7.17969 8.91211 6.77539 8.91211 6.17773C8.91211 5.61523 8.47266 5.21094 7.82227 5.21094C7.17188 5.21094 6.64453 5.58008 6.64453 6.17773H5.66016C5.69531 5.12305 6.60938 4.40234 7.82227 4.40234C9.07031 4.40234 9.87891 5.1582 9.87891 6.125C9.87891 6.8457 9.4043 7.35547 8.70117 7.51367V7.54883C9.59766 7.68945 10.1074 8.26953 10.1074 9.06055C10.1074 10.0977 9.14062 10.8711 7.80469 10.8711Z" fill="#555555"/>
</svg>
