<svg width="16" height="16" viewBox="0 0 16 16" fill="none" xmlns="http://www.w3.org/2000/svg">
<g id="courseware_icon_switch" clip-path="url(#clip0_4557_2766)">
<path id="Vector" d="M13.9583 2.49966H2.04167C1.74251 2.49966 1.5 2.74591 1.5 3.04966V12.9497C1.5 13.2534 1.74251 13.4997 2.04167 13.4997H13.9583C14.2575 13.4997 14.5 13.2534 14.5 12.9497V3.04966C14.5 2.74591 14.2575 2.49966 13.9583 2.49966Z" stroke="#C8C8C8" stroke-linecap="round" stroke-linejoin="round"/>
<path id="Vector_2" d="M9.75 6.99966C10.1642 6.99966 10.5 6.66388 10.5 6.24966C10.5 5.83545 10.1642 5.49966 9.75 5.49966C9.33579 5.49966 9 5.83545 9 6.24966C9 6.66388 9.33579 6.99966 9.75 6.99966Z" fill="#C8C8C8"/>
<path id="Vector_3" d="M9.20688 10.2497L10.8125 8.64591C10.9063 8.55221 11.0334 8.49958 11.1659 8.49958C11.2985 8.49958 11.4256 8.55221 11.5194 8.64591L14 11.1284" stroke="#C8C8C8" stroke-linecap="round" stroke-linejoin="round"/>
<path id="Vector_4" d="M2 10.5428L5.39625 7.14591C5.44269 7.09942 5.49783 7.06254 5.55853 7.03738C5.61923 7.01222 5.68429 6.99927 5.75 6.99927C5.81571 6.99927 5.88077 7.01222 5.94147 7.03738C6.00217 7.06254 6.05731 7.09942 6.10375 7.14591L11.9569 12.9997" stroke="#C8C8C8" stroke-linecap="round" stroke-linejoin="round"/>
</g>
<defs>
<clipPath id="clip0_4557_2766">
<rect width="16" height="16" fill="white" transform="translate(0 -0.000335693)"/>
</clipPath>
</defs>
</svg>
