<svg width="16" height="16" viewBox="0 0 16 16" fill="none" xmlns="http://www.w3.org/2000/svg">
<path d="M7.9502 14.85C4.4627 14.85 0.700195 12.6625 0.700195 7.8625C0.700195 3.0625 4.4627 0.875 7.9502 0.875C9.8877 0.875 11.6752 1.5125 13.0002 2.675C14.4377 3.95 15.2002 5.75 15.2002 7.8625C15.2002 9.975 14.4377 11.7625 13.0002 13.0375C11.6752 14.2 9.8752 14.85 7.9502 14.85Z" fill="url(#paint0_radial_1982_39104)"/>
<path d="M13.9365 3.70898C14.6027 4.78398 14.9502 6.06398 14.9502 7.48773C14.9502 9.60023 14.1877 11.3877 12.7502 12.6627C11.4252 13.8252 9.62523 14.4752 7.70023 14.4752C5.44273 14.4752 3.07023 13.5565 1.67773 11.6077C3.02273 13.8152 5.55148 14.8502 7.95023 14.8502C9.87523 14.8502 11.6752 14.2002 13.0002 13.0377C14.4377 11.7627 15.2002 9.97523 15.2002 7.86273C15.2002 6.27023 14.7665 4.85523 13.9365 3.70898Z" fill="#E38A00"/>
<path opacity="0.8" d="M3.40625 10.916C4.61437 10.916 5.59375 9.93664 5.59375 8.72852C5.59375 7.52039 4.61437 6.54102 3.40625 6.54102C2.19813 6.54102 1.21875 7.52039 1.21875 8.72852C1.21875 9.93664 2.19813 10.916 3.40625 10.916Z" fill="url(#paint1_radial_1982_39104)"/>
<path opacity="0.8" d="M12.5938 10.916C13.8019 10.916 14.7812 9.93664 14.7812 8.72852C14.7812 7.52039 13.8019 6.54102 12.5938 6.54102C11.3856 6.54102 10.4062 7.52039 10.4062 8.72852C10.4062 9.93664 11.3856 10.916 12.5938 10.916Z" fill="url(#paint2_radial_1982_39104)"/>
<path d="M5.89752 4.45096C6.18627 4.45471 6.27002 4.05971 5.96377 3.99471C5.73502 3.94846 5.48377 3.94221 5.23502 3.97346C4.53877 4.04971 3.93877 4.40846 3.54752 4.87596C3.35252 5.11596 3.67127 5.36846 3.88377 5.18971C4.42752 4.74846 5.14502 4.45721 5.89752 4.45096Z" fill="#422B0D"/>
<path d="M10.0052 4.5359C9.71898 4.5684 9.59648 4.1834 9.89398 4.0884C10.1177 4.0209 10.3665 3.98965 10.6165 3.9959C11.3165 4.0034 11.949 4.3009 12.3852 4.7284C12.6027 4.9484 12.3102 5.2309 12.0815 5.0734C11.4965 4.68715 10.754 4.4684 10.0052 4.5359Z" fill="#422B0D"/>
<path d="M7.99999 12.0254C9.34999 12.0254 10.225 11.0379 10.4625 10.5754C10.55 10.4004 10.55 10.2504 10.475 10.1879C10.4125 10.1379 10.325 10.1379 10.2125 10.1879C10.175 10.2004 10.1375 10.2254 10.1 10.2504C9.49999 10.6754 8.76249 10.9379 7.99999 10.9379C7.23749 10.9379 6.49999 10.6754 5.89999 10.2629C5.86249 10.2379 5.82499 10.2129 5.78749 10.2004C5.67499 10.1504 5.58749 10.1504 5.52499 10.2004C5.44999 10.2754 5.44999 10.4129 5.53749 10.5879C5.77499 11.0379 6.64999 12.0254 7.99999 12.0254Z" fill="#422B0D"/>
<path d="M6.4502 7.67832L6.4252 7.65332C6.4127 7.64082 6.3752 7.60332 6.3627 7.59082C6.3377 7.56582 6.3127 7.55332 6.2752 7.51582C6.2377 7.49082 6.2002 7.45332 6.1502 7.42832C6.1002 7.40332 6.0502 7.36582 6.0002 7.34082C5.9502 7.31582 5.8877 7.29082 5.8252 7.26582C5.7627 7.24082 5.7002 7.22832 5.6377 7.21582C5.5752 7.20332 5.5127 7.20332 5.4377 7.20332H5.4502H5.4377H5.4127H5.3752C5.3377 7.20332 5.3377 7.20332 5.3252 7.20332C5.3002 7.20332 5.2627 7.21582 5.2377 7.21582C5.1752 7.22832 5.1127 7.24082 5.0502 7.26582C4.9877 7.29082 4.9252 7.30332 4.8752 7.34082C4.8252 7.36582 4.7752 7.39082 4.7252 7.42832C4.6377 7.49082 4.5627 7.55332 4.5127 7.59082C4.4627 7.64082 4.4377 7.66582 4.4377 7.66582L4.4127 7.69082C4.2627 7.84082 4.0127 7.84082 3.8377 7.71582C3.7127 7.61582 3.6752 7.44082 3.7377 7.31582L3.7502 7.27832C3.7627 7.25332 3.7752 7.21582 3.8002 7.17832C3.8502 7.09082 3.9377 6.96582 4.0752 6.82832C4.1377 6.76582 4.2252 6.69082 4.3127 6.62832C4.4002 6.56582 4.5127 6.50332 4.6252 6.45332C4.7377 6.40332 4.8752 6.35332 5.0002 6.32832C5.0627 6.31582 5.1377 6.30332 5.2127 6.29082C5.2502 6.29082 5.3002 6.27832 5.3127 6.27832H5.4127C5.5502 6.27832 5.6877 6.29082 5.8252 6.31582C5.9627 6.34082 6.0877 6.39082 6.2002 6.44082C6.3127 6.49082 6.4252 6.55332 6.5127 6.61582C6.6127 6.67832 6.6877 6.74082 6.7502 6.81582C6.8127 6.87832 6.8752 6.94082 6.9127 7.00332C6.9377 7.02832 6.9502 7.06582 6.9752 7.09082C6.9877 7.11582 7.0127 7.14082 7.0252 7.16582C7.0627 7.21582 7.0627 7.24082 7.0752 7.26582C7.0877 7.29082 7.0877 7.29082 7.0877 7.29082C7.1752 7.47832 7.0752 7.69082 6.8627 7.76582C6.7502 7.82832 6.5627 7.79082 6.4502 7.67832Z" fill="#422B0D"/>
<path d="M11.5638 7.63359C11.5638 7.63359 11.5551 7.62484 11.5388 7.60859C11.5251 7.59484 11.4938 7.55984 11.4751 7.54609C11.4513 7.52609 11.4226 7.50234 11.3888 7.47484C11.3526 7.44734 11.3113 7.41734 11.2663 7.38609C11.2201 7.35734 11.1701 7.32734 11.1163 7.30109C11.0638 7.27234 11.0038 7.25234 10.9438 7.22984C10.8838 7.20859 10.8201 7.19734 10.7563 7.18359C10.6926 7.17359 10.6263 7.16859 10.5601 7.16859C10.5976 7.16859 10.5701 7.16859 10.5776 7.16859H10.5763H10.5738H10.5688H10.5588H10.5388L10.5001 7.16984C10.4676 7.16984 10.4626 7.17234 10.4501 7.17359C10.4301 7.17359 10.3938 7.17984 10.3626 7.18484C10.2988 7.19859 10.2351 7.20984 10.1751 7.23109C10.1163 7.25359 10.0563 7.27359 10.0038 7.30234C9.95008 7.32984 9.90008 7.35859 9.85383 7.38734C9.76383 7.44734 9.69008 7.50734 9.64133 7.55234C9.59133 7.59734 9.56258 7.62484 9.56258 7.62484L9.53133 7.65609C9.38008 7.80234 9.12508 7.81109 8.96008 7.67734C8.83008 7.57109 8.79758 7.40734 8.86258 7.27109C8.86258 7.27109 8.86883 7.25859 8.88133 7.23359C8.89383 7.20984 8.90883 7.17234 8.93633 7.12859C8.98758 7.03984 9.07258 6.91484 9.20758 6.78359C9.27508 6.71859 9.35383 6.64984 9.44758 6.58734C9.53883 6.52234 9.64508 6.46359 9.76258 6.41234C9.88008 6.36234 10.0076 6.31859 10.1426 6.29109C10.2113 6.27859 10.2751 6.26609 10.3588 6.25859C10.3976 6.25484 10.4438 6.25109 10.4638 6.24984L10.5601 6.24609C10.7013 6.24859 10.8413 6.26359 10.9776 6.28984C11.1126 6.31734 11.2401 6.36109 11.3576 6.41109C11.4738 6.46234 11.5813 6.52109 11.6726 6.58609C11.7663 6.64859 11.8438 6.71609 11.9113 6.78234C11.9788 6.84734 12.0326 6.91234 12.0776 6.97109C12.0988 7.00109 12.1188 7.02859 12.1376 7.05484C12.1551 7.08359 12.1726 7.10984 12.1863 7.13359C12.2201 7.18609 12.2226 7.20609 12.2351 7.22984C12.2438 7.24984 12.2488 7.26109 12.2488 7.26109C12.3326 7.44734 12.2313 7.65859 12.0226 7.73359C11.8588 7.79234 11.6751 7.74734 11.5638 7.63359Z" fill="#422B0D"/>
<defs>
<radialGradient id="paint0_radial_1982_39104" cx="0" cy="0" r="1" gradientUnits="userSpaceOnUse" gradientTransform="translate(7.9502 7.8625) scale(7.11996)">
<stop stop-color="#FFDE1E"/>
<stop offset="0.53" stop-color="#FFDD16"/>
<stop offset="0.795" stop-color="#FEC114"/>
<stop offset="0.955" stop-color="#FEA311"/>
<stop offset="1" stop-color="#F49400"/>
</radialGradient>
<radialGradient id="paint1_radial_1982_39104" cx="0" cy="0" r="1" gradientUnits="userSpaceOnUse" gradientTransform="translate(3.40632 8.72835) scale(2.37975 2.26065)">
<stop stop-color="#FF4D26"/>
<stop offset="0.9" stop-color="#FF4D26" stop-opacity="0"/>
</radialGradient>
<radialGradient id="paint2_radial_1982_39104" cx="0" cy="0" r="1" gradientUnits="userSpaceOnUse" gradientTransform="translate(12.5938 8.72835) scale(2.37975 2.26065)">
<stop stop-color="#FF4D26"/>
<stop offset="0.9" stop-color="#FF4D26" stop-opacity="0"/>
</radialGradient>
</defs>
</svg>
