<svg width="16" height="16" viewBox="0 0 16 16" fill="none" xmlns="http://www.w3.org/2000/svg">
<path d="M7.9502 14.85C4.4627 14.85 0.700195 12.6625 0.700195 7.8625C0.700195 3.0625 4.4627 0.875 7.9502 0.875C9.8877 0.875 11.6752 1.5125 13.0002 2.675C14.4377 3.95 15.2002 5.75 15.2002 7.8625C15.2002 9.975 14.4377 11.7625 13.0002 13.0375C11.6752 14.2 9.8752 14.85 7.9502 14.85Z" fill="url(#paint0_radial_1982_39102)"/>
<path d="M9.10781 10.6165C9.32156 10.4277 9.45531 10.1665 9.48281 9.88274C9.50656 9.43274 9.39156 9.27774 9.24406 9.08149C8.90531 8.62524 7.94406 8.73399 7.94406 8.73399C7.69406 8.74399 7.38906 8.86649 7.42531 9.16399C7.47406 9.33274 7.61156 9.46149 7.78406 9.50024C8.15906 9.59149 8.70531 9.50024 8.72031 9.88649C8.73781 10.319 8.07281 10.1365 8.02031 10.599C7.96781 11.0615 8.72031 10.9977 8.72031 11.3127C8.72031 11.554 8.47031 11.5952 8.21156 11.6502C7.98781 11.6965 7.55781 11.7665 7.52281 12.0252C7.48781 12.284 7.63656 12.5965 8.24156 12.5052C9.19281 12.3615 9.51281 11.8402 9.51281 11.5202C9.51906 11.174 9.37031 10.8427 9.10781 10.6165Z" fill="#422B0D"/>
<path d="M6.1252 7.11168L6.10645 7.08668L6.0527 7.01793L5.98645 6.94668C5.95895 6.91543 5.92645 6.88543 5.8952 6.85293C5.86395 6.82043 5.8252 6.78918 5.7902 6.76293C5.7577 6.73793 5.7227 6.71418 5.6852 6.69543C5.6602 6.68168 5.6327 6.67043 5.60395 6.66418C5.5952 6.66293 5.58645 6.66293 5.5777 6.66418C5.5777 6.66418 5.5702 6.66418 5.56645 6.66418H5.55645C5.57145 6.66418 5.5227 6.66418 5.5902 6.66418H5.52145C5.5027 6.66418 5.5152 6.66418 5.52145 6.66418H5.53145C5.53145 6.66418 5.54145 6.66418 5.53145 6.66418H5.5177C5.48895 6.67043 5.46145 6.68043 5.4352 6.69543C5.39895 6.71543 5.3627 6.73793 5.3302 6.76293C5.29395 6.79043 5.25895 6.82043 5.22645 6.85293C5.1602 6.91668 5.10145 6.97793 5.06395 7.02668L4.99895 7.10168L4.9702 7.13543C4.7902 7.33668 4.48645 7.36918 4.2677 7.21168C4.1277 7.11418 4.05645 6.94543 4.08395 6.77668C4.08395 6.77668 4.0927 6.72668 4.11645 6.63793C4.15395 6.51168 4.20645 6.38918 4.2727 6.27418C4.37895 6.08668 4.5227 5.92293 4.6952 5.79293C4.80895 5.70543 4.9352 5.63543 5.0702 5.58668C5.1077 5.57168 5.14645 5.56043 5.1852 5.55043C5.22645 5.53793 5.2677 5.52918 5.3102 5.52168L5.38645 5.51043L5.4502 5.50293H5.51895H5.6177H5.68145C5.72395 5.50293 5.7652 5.51418 5.80645 5.52043C5.88645 5.53418 5.96645 5.55543 6.0427 5.58418C6.1777 5.63293 6.30395 5.70293 6.4177 5.79043C6.5902 5.92043 6.73395 6.08418 6.8402 6.27168C6.87895 6.33668 6.9127 6.40543 6.9402 6.47543C6.96395 6.53168 6.98395 6.58793 7.0002 6.64668C7.00895 6.67668 7.01645 6.70668 7.0202 6.73668V6.76793C7.0577 7.02293 6.8802 7.26043 6.6252 7.29793C6.61895 7.29918 6.6127 7.29918 6.60645 7.30043C6.42395 7.32668 6.24145 7.25418 6.1252 7.11168Z" fill="#422B0D"/>
<path d="M11.0576 7.11168L11.0376 7.08668L10.9839 7.01793L10.9176 6.94668C10.8901 6.91543 10.8576 6.88543 10.8264 6.85293C10.7951 6.82043 10.7564 6.78918 10.7214 6.76293C10.6889 6.73793 10.6539 6.71418 10.6164 6.69543C10.5914 6.68168 10.5639 6.67043 10.5351 6.66418C10.5264 6.66293 10.5176 6.66293 10.5089 6.66418C10.5089 6.66418 10.5014 6.66418 10.4976 6.66418H10.4876C10.5026 6.66418 10.4539 6.66418 10.5214 6.66418H10.4526C10.4339 6.66418 10.4464 6.66418 10.4526 6.66418H10.4626C10.4626 6.66418 10.4726 6.66418 10.4626 6.66418H10.4489C10.4201 6.67043 10.3926 6.68043 10.3664 6.69543C10.3301 6.71418 10.2951 6.73793 10.2626 6.76293C10.2251 6.79043 10.1901 6.82043 10.1576 6.85293C10.0914 6.91668 10.0326 6.97793 9.9951 7.02668L9.9301 7.10168L9.9026 7.13543C9.72135 7.33668 9.41885 7.36918 9.19885 7.21168C9.05885 7.11418 8.9876 6.94543 9.0151 6.77668C9.0151 6.77668 9.02385 6.72668 9.04885 6.63793C9.08635 6.51043 9.1376 6.38793 9.2051 6.27418C9.31135 6.08668 9.45385 5.92293 9.62635 5.79293C9.7401 5.70543 9.86635 5.63543 10.0014 5.58668C10.0389 5.57168 10.0776 5.56043 10.1164 5.55043C10.1576 5.53793 10.1989 5.52918 10.2414 5.52168L10.3189 5.51043L10.3814 5.50293H10.4501H10.5489H10.6126C10.6551 5.50293 10.6964 5.51418 10.7376 5.52043C10.8189 5.53418 10.8976 5.55543 10.9739 5.58418C11.1089 5.63293 11.2351 5.70293 11.3489 5.79043C11.5214 5.92043 11.6651 6.08418 11.7714 6.27168C11.8101 6.33668 11.8439 6.40543 11.8714 6.47543C11.8951 6.53043 11.9151 6.58668 11.9314 6.64418C11.9401 6.67418 11.9476 6.70418 11.9514 6.73418V6.76543C11.9914 7.02043 11.8164 7.25918 11.5614 7.29918C11.5576 7.29918 11.5539 7.30043 11.5501 7.30043C11.3639 7.33168 11.1751 7.25918 11.0576 7.11168Z" fill="#422B0D"/>
<path d="M13.9365 3.70898C14.6027 4.78398 14.9502 6.06398 14.9502 7.48773C14.9502 9.60023 14.1877 11.3877 12.7502 12.6627C11.4252 13.8252 9.62523 14.4752 7.70023 14.4752C5.44273 14.4752 3.07523 13.5565 1.67773 11.6077C3.02273 13.8152 5.55273 14.8502 7.95023 14.8502C9.87523 14.8502 11.6752 14.2002 13.0002 13.0377C14.4377 11.7627 15.2002 9.97523 15.2002 7.86273C15.2002 6.27023 14.7665 4.85523 13.9365 3.70898Z" fill="#E38A00"/>
<defs>
<radialGradient id="paint0_radial_1982_39102" cx="0" cy="0" r="1" gradientUnits="userSpaceOnUse" gradientTransform="translate(7.9502 7.8625) scale(7.11996)">
<stop stop-color="#FFDE1E"/>
<stop offset="0.53" stop-color="#FFDD16"/>
<stop offset="0.795" stop-color="#FEC114"/>
<stop offset="0.955" stop-color="#FEA311"/>
<stop offset="1" stop-color="#F49400"/>
</radialGradient>
</defs>
</svg>
