<svg width="16" height="16" viewBox="0 0 16 16" fill="none" xmlns="http://www.w3.org/2000/svg">
<path fill-rule="evenodd" clip-rule="evenodd" d="M6.56988 1.51484C7.3914 1.17197 8.27348 1 9.21766 1C10.1618 1 11.0439 1.17197 11.8654 1.51484C12.6902 1.85908 13.4061 2.32325 14.0147 2.90694C14.6231 3.49059 15.1064 4.17664 15.4646 4.96631C15.8213 5.7525 16 6.59627 16 7.49936C16 9.30503 15.3431 10.836 14.0243 12.101C12.7052 13.3663 11.106 13.9987 9.21766 13.9987C8.28587 13.9987 7.41628 13.8327 6.6074 13.5019C5.84761 13.1912 5.17446 12.7726 4.58693 12.2463L5.46351 11.4055C5.94051 11.8284 6.48555 12.166 7.09763 12.4184C7.7594 12.6914 8.46656 12.8274 9.21766 12.8274C10.7463 12.8274 12.0562 12.3076 13.1387 11.2692C14.2214 10.2307 14.7658 8.97132 14.7658 7.49936C14.7658 6.0274 14.2214 4.76799 13.1387 3.72947C12.0562 2.69117 10.7463 2.17136 9.21766 2.17136C7.68905 2.17136 6.37913 2.69117 5.29666 3.72947C4.21398 4.76799 3.66958 6.0274 3.66958 7.49936V7.98873L5.23048 6.4915L6.10491 7.31554L3.05245 10.2435L0 7.31554L0.873702 6.49219L2.43533 8.01062V7.49936C2.43533 6.59627 2.61407 5.7525 2.97071 4.96631C3.32892 4.17664 3.8122 3.49059 4.42067 2.90694C5.02919 2.32325 5.74508 1.85908 6.56988 1.51484Z" fill="#DA6CDB"/>
</svg>
