<svg width="16" height="16" viewBox="0 0 16 16" fill="none" xmlns="http://www.w3.org/2000/svg">
<path fill-rule="evenodd" clip-rule="evenodd" d="M5.59451 9.69212L2 5.84582L5.59451 1.99951L6.36101 2.8197L4.08289 5.25741H9.60087C10.8145 5.25741 11.8475 5.67698 12.7125 6.51599C13.573 7.35069 14 8.38254 14 9.62846C14 10.8744 13.573 11.9062 12.7125 12.7409C11.8475 13.5799 10.8145 13.9995 9.60087 13.9995H4.25906V12.8227H9.60087C10.4804 12.8227 11.2522 12.522 11.905 11.9211C12.5645 11.314 12.9002 10.5444 12.9002 9.62846C12.9002 8.71255 12.5645 7.94289 11.905 7.33581C11.2522 6.73491 10.4804 6.43423 9.60087 6.43423H4.08289L6.36101 8.87193L5.59451 9.69212Z" fill="#C8C8C8"/>
</svg>
