<svg width="16" height="16" viewBox="0 0 16 16" fill="none" xmlns="http://www.w3.org/2000/svg">
<path d="M7.9502 14.85C4.4627 14.85 0.700195 12.6625 0.700195 7.8625C0.700195 3.0625 4.4627 0.875 7.9502 0.875C9.8877 0.875 11.6752 1.5125 13.0002 2.675C14.4377 3.95 15.2002 5.75 15.2002 7.8625C15.2002 9.975 14.4377 11.7625 13.0002 13.0375C11.6752 14.2 9.8752 14.85 7.9502 14.85Z" fill="url(#paint0_radial_1982_38893)"/>
<path d="M13.9365 3.70898C14.6027 4.78398 14.9502 6.06398 14.9502 7.48773C14.9502 9.60023 14.1877 11.3877 12.7502 12.6627C11.4252 13.8252 9.62523 14.4752 7.70023 14.4752C5.44273 14.4752 3.07523 13.5565 1.67773 11.6077C3.02273 13.8152 5.55273 14.8502 7.95023 14.8502C9.87523 14.8502 11.6752 14.2002 13.0002 13.0377C14.4377 11.7627 15.2002 9.97523 15.2002 7.86273C15.2002 6.27023 14.7665 4.85523 13.9365 3.70898Z" fill="#E38A00"/>
<path d="M10.3311 4.20215C10.8073 4.20215 11.2386 4.9084 11.2386 6.07715C11.2386 7.2459 10.8073 7.95215 10.3311 7.95215C9.85605 7.95215 9.4248 7.24715 9.4248 6.07715C9.4248 4.90715 9.85605 4.20215 10.3311 4.20215Z" fill="#422B0D"/>
<path d="M5.65842 4.20215C5.15217 4.20215 4.69092 4.9084 4.69092 6.07715C4.69092 7.2459 5.15217 7.95215 5.65842 7.95215C6.16592 7.95215 6.62717 7.24715 6.62717 6.07715C6.62717 4.90715 6.16592 4.20215 5.65842 4.20215Z" fill="#422B0D"/>
<path d="M5.63081 4.6609C5.47956 4.56965 5.28331 4.61965 5.19206 4.7709C5.18956 4.7759 5.18581 4.7809 5.18331 4.7859C5.06831 4.91965 5.08206 5.12215 5.21581 5.23715C5.21956 5.2409 5.22331 5.2434 5.22831 5.24715C5.37831 5.3384 5.57456 5.28965 5.66581 5.13965C5.66956 5.1334 5.67206 5.1284 5.67581 5.12215C5.79081 4.98715 5.77581 4.78465 5.64081 4.66965C5.63706 4.6659 5.63456 4.6634 5.63081 4.6609Z" fill="#896024"/>
<path d="M10.4009 4.66094C10.2484 4.57094 10.0509 4.62094 9.96088 4.77344C9.95838 4.77719 9.95588 4.78219 9.95338 4.78594C9.83963 4.92219 9.85838 5.12344 9.99463 5.23719C9.99588 5.23844 9.99838 5.23969 9.99963 5.24094C10.1496 5.33219 10.3459 5.28344 10.4371 5.13344C10.4409 5.12719 10.4434 5.12219 10.4471 5.11594C10.5609 4.97969 10.5421 4.77844 10.4059 4.66469C10.4046 4.66344 10.4021 4.66219 10.4009 4.66094Z" fill="#896024"/>
<path d="M12.7585 8.95195C12.5835 8.6357 12.2035 8.49695 11.866 8.62445C10.5835 8.9982 9.25352 9.18445 7.91727 9.1782C6.58102 9.18445 5.25102 8.9982 3.96852 8.62445C3.63227 8.49695 3.25227 8.63445 3.07727 8.94945C2.90727 9.2632 3.02977 9.62695 3.17352 9.9407C3.97602 11.7032 5.74477 12.7582 7.90727 12.7645H7.92727C10.0898 12.7645 11.8585 11.7032 12.6623 9.9407C12.8048 9.62445 12.9285 9.2657 12.7585 8.95195Z" fill="#422B0D"/>
<path d="M9.91863 12.2676C9.87238 12.2251 9.82488 12.1864 9.77738 12.1426C9.26738 11.6939 8.60738 11.4526 7.92738 11.4664C7.22738 11.4551 6.54613 11.6876 5.99988 12.1251C5.95238 12.1639 5.90238 12.2014 5.85613 12.2501C5.80988 12.2989 5.78488 12.3339 5.75488 12.3751C6.44238 12.6439 7.17488 12.7814 7.91363 12.7776H7.93363C8.64113 12.7776 9.34238 12.6514 10.0049 12.4026C9.97988 12.3551 9.95113 12.3101 9.91863 12.2676Z" fill="#ED7770"/>
<path d="M11.8658 8.62498C10.5833 8.99873 9.25328 9.18498 7.91703 9.17873C6.58078 9.18498 5.25078 8.99873 3.96828 8.62498C3.63203 8.49748 3.25203 8.63498 3.07703 8.94998C3.05203 8.99748 3.03203 9.04748 3.01953 9.09873C3.06078 9.11998 3.10828 9.14123 3.16453 9.16373C4.66953 9.91748 6.33328 10.3 8.01578 10.28C9.62953 10.2987 11.2245 9.94748 12.682 9.25498C12.7408 9.22998 12.7895 9.20623 12.8333 9.18373C12.8233 9.10248 12.797 9.02248 12.7583 8.94998C12.5833 8.63498 12.2033 8.49623 11.8658 8.62498Z" fill="white"/>
<path d="M12.7635 8.9532C12.586 8.63695 12.2048 8.49695 11.8648 8.62445C10.5823 8.9982 9.25227 9.18445 7.91727 9.1782C6.58102 9.18445 5.25102 8.9982 3.96852 8.62445C3.63227 8.49695 3.25227 8.63445 3.07727 8.94945C2.90727 9.2632 3.02977 9.62695 3.17352 9.9407C3.23727 10.082 3.30852 10.2207 3.38727 10.3545C3.38727 10.3545 3.12477 9.38195 3.35227 9.09945C3.42977 8.97945 3.55977 8.90445 3.70227 8.89695C3.76102 8.89695 3.81852 8.90695 3.87477 8.92445C5.17977 9.3082 6.53352 9.50195 7.89477 9.49945H7.93852C9.29977 9.50195 10.6535 9.3082 11.9585 8.92445C12.0148 8.90695 12.0723 8.89695 12.131 8.89695C12.2735 8.90445 12.4048 8.97945 12.4823 9.09945C12.7135 9.38195 12.4473 10.3582 12.4473 10.3582C12.5248 10.2245 12.6023 10.087 12.6673 9.94445C12.8098 9.6307 12.9335 9.2682 12.7635 8.9532Z" fill="#E38A00"/>
<defs>
<radialGradient id="paint0_radial_1982_38893" cx="0" cy="0" r="1" gradientUnits="userSpaceOnUse" gradientTransform="translate(7.9502 7.8625) scale(7.11996)">
<stop stop-color="#FFDE1E"/>
<stop offset="0.53" stop-color="#FFDD16"/>
<stop offset="0.795" stop-color="#FEC114"/>
<stop offset="0.955" stop-color="#FEA311"/>
<stop offset="1" stop-color="#F49400"/>
</radialGradient>
</defs>
</svg>
