<svg width="16" height="16" viewBox="0 0 16 16" fill="none" xmlns="http://www.w3.org/2000/svg">
<path fill-rule="evenodd" clip-rule="evenodd" d="M2.30981 2.30956C1.3335 3.28587 1.3335 4.85722 1.3335 7.99992C1.3335 11.1426 1.3335 12.714 2.30981 13.6903C3.28612 14.6666 4.85747 14.6666 8.00016 14.6666C11.1429 14.6666 12.7142 14.6666 13.6905 13.6903C14.6668 12.714 14.6668 11.1426 14.6668 7.99992C14.6668 4.85722 14.6668 3.28587 13.6905 2.30956C12.7142 1.33325 11.1429 1.33325 8.00016 1.33325C4.85747 1.33325 3.28612 1.33325 2.30981 2.30956ZM7.0289 5.01141C7.21934 4.81145 7.21162 4.49496 7.01166 4.30452C6.81169 4.11407 6.4952 4.12179 6.30476 4.32176L4.76207 5.94159L4.36223 5.52176C4.17179 5.32179 3.8553 5.31407 3.65534 5.50452C3.45537 5.69496 3.44765 6.01145 3.63809 6.21141L4.4 7.01141C4.49437 7.1105 4.62523 7.16659 4.76207 7.16659C4.89891 7.16659 5.02977 7.1105 5.12414 7.01141L7.0289 5.01141ZM8.66683 5.49992C8.39069 5.49992 8.16683 5.72378 8.16683 5.99992C8.16683 6.27606 8.39069 6.49992 8.66683 6.49992H12.0002C12.2763 6.49992 12.5002 6.27606 12.5002 5.99992C12.5002 5.72378 12.2763 5.49992 12.0002 5.49992H8.66683ZM7.0289 9.67808C7.21934 9.47812 7.21162 9.16163 7.01166 8.97118C6.81169 8.78074 6.4952 8.78846 6.30476 8.98843L4.76207 10.6083L4.36223 10.1884C4.17179 9.98846 3.8553 9.98074 3.65534 10.1712C3.45537 10.3616 3.44765 10.6781 3.63809 10.8781L4.4 11.6781C4.49437 11.7772 4.62523 11.8333 4.76207 11.8333C4.89891 11.8333 5.02977 11.7772 5.12414 11.6781L7.0289 9.67808ZM8.66683 10.1666C8.39069 10.1666 8.16683 10.3904 8.16683 10.6666C8.16683 10.9427 8.39069 11.1666 8.66683 11.1666H12.0002C12.2763 11.1666 12.5002 10.9427 12.5002 10.6666C12.5002 10.3904 12.2763 10.1666 12.0002 10.1666H8.66683Z" fill="white"/>
</svg>
