<svg width="20" height="20" viewBox="0 0 20 20" fill="none" xmlns="http://www.w3.org/2000/svg">
<path d="M10 5C6.36364 5 3.25818 7.07333 2 10C3.25818 12.9267 6.36364 15 10 15C13.6364 15 16.7418 12.9267 18 10C16.7418 7.07333 13.6364 5 10 5ZM10 13.3333C7.99273 13.3333 6.36364 11.84 6.36364 10C6.36364 8.16 7.99273 6.66667 10 6.66667C12.0073 6.66667 13.6364 8.16 13.6364 10C13.6364 11.84 12.0073 13.3333 10 13.3333ZM10 8C8.79273 8 7.81818 8.89333 7.81818 10C7.81818 11.1067 8.79273 12 10 12C11.2073 12 12.1818 11.1067 12.1818 10C12.1818 8.89333 11.2073 8 10 8Z" fill="#94C729"/>
</svg>
