<svg width="60" height="60" viewBox="0 0 60 60" fill="none" xmlns="http://www.w3.org/2000/svg">
<path d="M20.0768 48.0371C20.0768 48.0371 20.1935 48.5465 20.4301 49.3351C20.8211 50.643 21.7297 53.1585 22.9768 55.1006C24.0743 56.8077 25.4331 58.0729 26.9316 57.6884C28.1392 57.3778 28.2773 56.0453 27.9716 54.4861C27.4689 51.9114 25.7552 48.7173 25.6582 48.4873L20.0752 48.0371H20.0768Z" fill="url(#paint0_radial_2041_20792)"/>
<path d="M20.43 49.3331C20.43 49.3331 20.43 49.3331 20.43 49.3364C21.1628 51.7911 22.7138 56.5132 25.6992 57.4415C25.2523 56.0548 23.5403 50.1907 23.5748 50.0905C23.5748 50.0905 20.5483 48.947 20.4349 48.9453C20.4201 48.9453 20.4168 49.085 20.4283 49.3331H20.43Z" fill="#C1E2F3" fill-opacity="0.16"/>
<path d="M22.9787 55.1008C24.0763 56.808 25.4351 58.0731 26.9335 57.6886C28.1412 57.3781 28.2792 56.0456 27.9736 54.4863C26.853 55.0515 25.0227 55.7005 22.9787 55.1008Z" fill="#0078B8"/>
<path d="M14.3231 47.9121C14.3231 47.9121 14.9278 52.4009 16.9323 55.5917C18.0183 57.3235 19.5168 58.6724 21.5525 58.7152C21.6396 58.7152 22.678 58.6609 22.8735 58.6379C22.8867 58.6379 22.8965 58.6346 22.8998 58.633C24.0598 58.3619 24.1995 56.9932 23.8988 55.342C23.8906 55.2894 23.8791 55.2368 23.8676 55.1826C23.8643 55.1678 23.861 55.1514 23.8577 55.1366C23.2794 52.2629 21.4704 48.6498 21.357 48.405L15.7443 48.0123L14.3231 47.9121Z" fill="url(#paint1_radial_2041_20792)"/>
<path d="M14.3227 47.9121C14.3227 47.9121 14.9273 52.4009 16.9319 55.5917C18.0179 57.3235 19.5164 58.6724 21.5521 58.7152C21.6392 58.7152 22.6776 58.6609 22.8731 58.6379C22.8863 58.6379 22.8961 58.6346 22.8994 58.633C21.9629 57.9133 21.1364 56.9045 20.4266 55.7987C18.3728 52.6063 17.2818 48.617 17.2818 48.5283C17.2818 48.5283 16.5901 48.2933 15.7439 48.0123L14.3227 47.9121Z" fill="#C1E2F3" fill-opacity="0.24"/>
<path d="M22.3456 50.4045C22.5313 50.3913 22.712 50.3733 22.8894 50.3486C31.7241 49.1919 30.6709 35.507 30.6709 35.507C30.6709 35.507 18.9576 29.7497 14.7136 35.9062C14.5 36.2168 14.3045 36.5585 14.1304 36.9315C10.5156 44.708 12.926 51.0617 22.3456 50.4045Z" fill="url(#paint2_radial_2041_20792)"/>
<path d="M16.9325 55.5935C18.0186 57.3236 19.006 58.4557 21.073 58.8385C21.5199 58.9207 22.251 58.9749 23.0315 58.6611C24.2901 58.1534 24.1997 56.9934 23.899 55.3421C23.8908 55.2895 23.8793 55.2369 23.8678 55.1827C23.8678 55.1679 23.8629 55.1515 23.8596 55.1367C23.4751 55.3602 22.1327 55.7052 20.4289 55.7989C19.356 55.8613 18.1418 55.8219 16.9341 55.5935H16.9325Z" fill="#0078B8"/>
<path d="M22.3458 50.4049C22.5315 50.3918 22.7122 50.3737 22.8896 50.349C18.294 49.9662 17.8258 47.9748 17.7732 43.9691C17.719 39.8615 18.2579 37.944 18.3483 37.8077C19.6282 35.8656 17.1751 35.5945 14.7138 35.9066C14.5002 36.2172 14.3047 36.5589 14.1306 36.9319C10.5159 44.7085 12.9262 51.0621 22.3458 50.4049Z" fill="#C1E2F3" fill-opacity="0.24"/>
<path d="M30.0684 36.4105C30.0684 36.4105 28.5354 45.748 16.7054 45.2008L16.7597 40.3538L26.5358 36.1641L30.0684 36.4105Z" fill="#C1E2F3" fill-opacity="0.24"/>
<path d="M5.5145 34.9814C8.04972 37.4279 11.1978 38.3332 15.013 38.4811C18.5422 38.6175 22.64 38.1048 27.3555 37.5594C28.4827 37.4296 29.6476 37.2965 30.847 37.1716C30.9785 37.1568 31.1099 37.142 31.2381 37.1289C35.7548 36.6047 38.9998 35.3248 41.1637 32.4215C41.8522 31.4982 42.4322 30.4088 42.9086 29.1272C44.509 24.8159 44.7702 15.6739 39.57 10.4606C34.9333 5.80909 27.8008 5.42954 25.7404 5.38682C23.68 5.34246 7.33007 5.44597 3.68743 12.2465C-0.638718 20.3221 0.74144 30.3776 5.5145 34.9814Z" fill="url(#paint3_radial_2041_20792)"/>
<path d="M3.68757 12.2468C5.43742 8.98039 10.1185 7.25848 14.7404 6.35645C7.13797 9.07898 7.13798 15.7333 7.38443 24.3593C7.52574 29.3115 8.61672 34.957 14.3937 36.9747C15.603 37.6894 18.8398 37.1833 19.9784 35.5518C20.8771 34.262 23.3877 32.9328 23.3877 32.9328L23.6062 31.454C23.6062 31.454 28.7408 29.5514 30.2327 30.0854C31.4025 30.5027 29.2764 33.1381 29.7397 34.6317C29.9238 35.2248 27.7747 36.835 27.3557 37.5612C23.764 37.9769 20.5288 38.3729 17.6321 38.4764C17.6321 38.4764 17.6321 38.4764 17.6338 38.4764C17.4563 38.483 17.2805 38.4879 17.1063 38.4912C17.0587 38.4912 17.0111 38.4928 16.9634 38.4945C16.7942 38.4978 16.6249 38.501 16.4573 38.501C16.4097 38.501 16.3637 38.501 16.316 38.501C16.1172 38.501 15.9201 38.501 15.7245 38.4978C15.6818 38.4978 15.6407 38.4978 15.598 38.4961C15.4255 38.4928 15.2546 38.4879 15.0838 38.483C15.0591 38.483 15.0345 38.483 15.0098 38.4813C11.1947 38.3335 8.04658 37.4281 5.51136 34.9816C0.738304 30.3778 -0.641855 20.324 3.68429 12.2468H3.68757Z" fill="#C1E2F3" fill-opacity="0.16"/>
<path d="M3.05024 21.2452C3.03216 23.626 4.25623 25.2493 5.62161 25.6831C6.10959 25.9361 6.6173 26.0692 7.07899 26.0889C8.72533 26.1628 10.1581 24.1041 10.2764 21.49C10.3947 18.8743 9.15581 16.6939 7.50947 16.6184C7.0527 16.597 6.54829 16.7383 6.01265 16.9026C4.18558 17.4662 3.06503 18.9827 3.0486 21.2435L3.05024 21.2452Z" fill="#0078B8"/>
<path fill-rule="evenodd" clip-rule="evenodd" d="M14.3745 48.114C14.3268 48.1537 14.3203 48.2247 14.3601 48.2724C14.9937 49.0327 15.9278 49.5343 16.6943 49.845C17.0789 50.0009 17.4244 50.11 17.6739 50.1802C17.7988 50.2153 17.8997 50.2407 17.9697 50.2574C18.0047 50.2658 18.032 50.2719 18.0506 50.276L18.0721 50.2807L18.0777 50.2818L18.0792 50.2822C18.0793 50.2822 18.0799 50.2823 18.1023 50.1721L18.0792 50.2822C18.1401 50.2945 18.2002 50.2554 18.2126 50.1945C18.2249 50.1336 18.1856 50.0742 18.1248 50.0618C18.1248 50.0618 18.1248 50.0618 18.1248 50.0618L18.1234 50.0615L18.1186 50.0605L18.099 50.0563C18.0815 50.0524 18.0555 50.0466 18.0219 50.0385C17.9545 50.0225 17.8565 49.9978 17.7349 49.9636C17.4915 49.8952 17.1541 49.7886 16.7788 49.6365C16.0255 49.3311 15.1317 48.8468 14.533 48.1284C14.4932 48.0806 14.4223 48.0742 14.3745 48.114Z" fill="#417794"/>
<path d="M15.9559 28.0873C16.0611 30.5059 18.2578 32.3083 20.8243 32.1161L37.1003 30.892C39.371 30.7211 41.1077 28.779 41.0108 26.551L40.5557 16.0635C40.4587 13.8355 38.561 12.0511 36.2854 12.0774L19.965 12.2664C17.3903 12.296 15.3579 14.2824 15.463 16.701L15.9559 28.0889V28.0873Z" fill="#004367"/>
<path d="M36.6833 30.4765C38.6172 30.3335 40.1058 28.6757 40.022 26.7796L39.5653 16.2559C39.4831 14.3582 37.8581 12.8367 35.9177 12.8646L19.5529 13.0979C17.366 13.1292 15.6359 14.8231 15.7246 16.8753L16.2175 28.2534C16.3063 30.304 18.176 31.8402 20.358 31.6808L36.6817 30.4781L36.6833 30.4765Z" fill="#0078B8"/>
<path d="M30.6053 21.2077C30.6267 23.508 31.7719 25.3613 33.1635 25.3498C34.5552 25.3367 35.6675 23.462 35.6462 21.1617C35.6248 18.8614 34.4796 17.0081 33.088 17.0196C31.6963 17.0327 30.584 18.9074 30.6053 21.2061V21.2077Z" fill="url(#paint4_linear_2041_20792)"/>
<path d="M20.5731 21.8171C20.5944 24.1174 21.7396 25.9707 23.1313 25.9592C24.523 25.9461 25.6353 24.0714 25.614 21.7711C25.5926 19.4708 24.4474 17.6175 23.0557 17.629C21.6641 17.6421 20.5517 19.5168 20.5731 21.8154V21.8171Z" fill="url(#paint5_linear_2041_20792)"/>
<path d="M30.8246 26.3223C30.8246 26.3223 28.9909 26.4537 27.6338 26.4077C27.6338 26.4077 27.4235 28.8345 29.3195 28.8082C31.0037 28.7836 30.8246 26.3223 30.8246 26.3223Z" fill="url(#paint6_linear_2041_20792)"/>
<path d="M36.7273 13.3239C38.1173 13.5309 39.1508 14.7632 39.3068 15.7112C39.4761 16.7431 39.177 18.207 38.0072 17.4036C37.2728 16.8992 36.8834 15.3366 34.6192 14.5118C32.8595 13.8694 34.4303 12.9821 36.7273 13.3239Z" fill="white"/>
<path d="M37.9547 32.2623C36.8686 33.8068 37.0231 36.0134 33.2999 36.8087C32.0446 37.0765 31.8212 37.2473 31.8212 37.2473L31.3283 40.5745C31.3283 40.5745 32.4883 41.2268 34.0935 41.5045C37.7362 42.1354 44.3626 41.9843 43.3767 33.9875C42.7737 31.2486 38.7351 31.1533 37.9547 32.2623Z" fill="url(#paint7_radial_2041_20792)"/>
<path d="M31.2598 31.112C31.2598 31.112 31.0872 30.0703 30.085 29.4657C29.155 28.9054 28.2957 30.2379 28.2957 30.2379L27.1242 30.9855L25.9297 31.0759C25.9297 31.0759 25.2528 30.3168 24.8009 30.3053C23.5949 30.3266 23.4914 31.5836 23.4914 31.5836L31.2598 31.1136V31.112Z" fill="#004367"/>
<path d="M26.3818 33.1856C26.3818 33.1856 25.3582 30.3431 24.3165 31.1055C23.2765 31.8679 24.7848 34.8549 25.5636 34.988C26.3424 35.1211 26.3818 33.1856 26.3818 33.1856Z" fill="#0078B8"/>
<path d="M28.0886 32.5862C28.1132 32.3611 28.9462 29.4858 29.8893 29.9146C30.8308 30.3418 29.7053 32.2609 28.8099 33.4308L28.0886 32.5862Z" fill="#0078B8"/>
<path d="M29.2416 33.1069C29.3648 32.9179 31.3989 30.7212 32.0495 31.5263C32.6986 32.3314 30.832 33.5407 29.5078 34.1847L29.2416 33.1069Z" fill="#0078B8"/>
<path d="M29.8631 34.472C30.0126 34.3011 32.3326 32.41 32.8633 33.2972C33.394 34.1845 31.3764 35.1227 29.9749 35.5761L29.8615 34.472H29.8631Z" fill="#0078B8"/>
<path d="M29.1056 36.2205C29.2913 36.0907 32.0007 34.8206 32.3014 35.8097C32.6004 36.7988 30.4151 37.2195 28.9463 37.318L29.1056 36.2205Z" fill="#0078B8"/>
<path d="M25.7294 36.0354C26.3932 37.5289 27.9623 38.2814 29.2357 37.7146C30.5074 37.1494 31.0003 35.48 30.3365 33.9865C29.6727 32.493 28.1036 31.7421 26.8303 32.3073C25.5585 32.8725 25.0656 34.5419 25.7294 36.0354Z" fill="#0078B8"/>
<path d="M29.0461 35.9704C29.2317 36.9332 28.982 38.7636 27.6922 40.2883C24.4603 44.1117 18.1871 46.131 14.3654 41.7506C13.5225 40.5216 14.4229 37.7531 16.9779 38.481C19.5328 39.2105 23.1607 33.422 25.4642 33.3218C27.7678 33.2216 28.8325 34.8547 29.0477 35.9704H29.0461Z" fill="url(#paint8_radial_2041_20792)"/>
<path d="M33.0538 41.258C32.1945 41.0247 30.7782 40.655 30.4611 40.4989C30.5087 40.0125 30.6451 38.4188 30.7076 37.1865C30.7076 37.1865 32.6151 36.945 33.3003 36.8086C33.3118 37.313 33.1196 39.5919 33.0538 41.258Z" fill="#C1E2F3" fill-opacity="0.24"/>
<path d="M39.9963 29.7418C39.9963 29.7418 39.1353 29.1322 38.9414 29.6728C38.3253 31.398 38.3664 32.6993 38.4485 32.9178C38.5307 33.1363 42.4871 34.2602 42.7336 33.465C42.98 32.6697 39.9946 29.7402 39.9946 29.7402L39.9963 29.7418Z" fill="#0078B8"/>
<path d="M42.9932 28.4469C42.9932 28.4469 43.1246 33.7605 42.7516 33.9462C42.377 34.1319 41.0741 34.3685 40.6091 33.9002C40.1441 33.4319 39.8615 28.3467 39.8615 28.3467L42.9932 28.4469Z" fill="#FFBA00"/>
<path d="M35.5939 25.2098C35.6317 25.2032 35.6695 25.2032 35.7073 25.2081L38.8488 25.1441L53.5114 16.0859L56.3193 31.6752L39.4995 28.601L36.6028 29.6641C36.5535 29.6986 36.5009 29.7249 36.445 29.7347C35.9455 29.8284 35.3508 28.8919 35.1158 27.6431C34.8808 26.3944 35.0944 25.3051 35.5939 25.2114V25.2098Z" fill="#FFD642"/>
<path d="M52.2844 24.4133C53.1059 28.7772 55.1844 32.0501 56.9276 31.7232C58.6709 31.3946 59.4185 27.5909 58.597 23.227C57.7754 18.8614 55.697 15.5901 53.9537 15.9171C52.2104 16.244 51.4612 20.0493 52.2827 24.4133H52.2844Z" fill="#FFFF54"/>
<path d="M56.9361 31.0383C58.0402 30.5865 58.7122 27.3875 57.9515 23.3472C57.5686 21.3164 56.8999 19.4762 56.0669 18.1634C55.3752 17.0741 54.6128 16.4612 54.0755 16.5614C54.0312 16.5696 53.9884 16.5828 53.9457 16.5992C52.8416 17.0511 52.1696 20.2501 52.9303 24.2903C53.3115 26.3211 53.9819 28.163 54.8149 29.4742C55.5066 30.5635 56.269 31.1763 56.8063 31.0761C56.8506 31.0679 56.8934 31.0548 56.9361 31.0383Z" fill="#FFBA00"/>
<path d="M43.7128 29.2724C43.7128 29.2724 41.3124 28.6299 41.0445 30.4603C40.4185 30.738 40.3545 31.6532 41.3436 32.0146C41.1595 33.2288 41.8825 33.6905 43.4762 33.9353C44.0825 33.8581 44.6132 32.3022 44.0283 32.1214C44.6149 31.8043 44.656 31.1471 44.3553 30.8481C44.7003 30.2122 44.3931 29.3841 43.7128 29.274V29.2724Z" fill="#0078B8"/>
<path d="M39.2665 30.7154C39.2665 30.7154 41.6539 30.2701 41.0311 28.9754C40.8521 28.6041 39.6214 28.7257 39.1351 29.1463C38.8245 29.6819 38.9675 30.5445 39.2665 30.7154Z" fill="#0078B8"/>
<path fill-rule="evenodd" clip-rule="evenodd" d="M44.1655 30.8848C44.24 30.9141 44.2798 30.9337 44.2911 30.9411C44.3429 30.9755 44.4127 30.9614 44.447 30.9096C44.4814 30.8579 44.4673 30.788 44.4155 30.7537C44.3816 30.7312 44.3202 30.7038 44.2479 30.6754C44.1718 30.6454 44.0734 30.6104 43.9581 30.5731C43.7276 30.4987 43.4268 30.4147 43.0985 30.3459C42.4488 30.2096 41.6653 30.1265 41.1083 30.3153C41.0495 30.3353 41.0179 30.3991 41.0379 30.458C41.0578 30.5168 41.1217 30.5484 41.1806 30.5284C41.6752 30.3607 42.4056 30.4304 43.0523 30.5661C43.3722 30.6332 43.6652 30.715 43.889 30.7872C44.0009 30.8234 44.0947 30.8569 44.1655 30.8848Z" fill="#0F4F72"/>
<path fill-rule="evenodd" clip-rule="evenodd" d="M44.0281 32.1205L44.0683 32.0155C44.1263 32.0377 44.1554 32.1027 44.1332 32.1607C44.1109 32.2187 44.0459 32.2478 43.9879 32.2256L43.9879 32.2256L43.9876 32.2255L43.9857 32.2248L43.977 32.2216C43.969 32.2187 43.9567 32.2145 43.9404 32.2091C43.9077 32.1982 43.8586 32.1829 43.7947 32.1654C43.6669 32.1304 43.4798 32.0869 43.2453 32.0534C42.7762 31.9865 42.1188 31.9603 41.3672 32.1236C41.3065 32.1368 41.2466 32.0983 41.2334 32.0376C41.2202 31.9769 41.2587 31.917 41.3195 31.9038C42.1025 31.7336 42.7875 31.7608 43.2771 31.8307C43.522 31.8656 43.7183 31.9113 43.8541 31.9484C43.922 31.967 43.9748 31.9835 44.011 31.9954C44.0291 32.0014 44.043 32.0063 44.0527 32.0097L44.0638 32.0138L44.0669 32.0149L44.0678 32.0153L44.0681 32.0154L44.0682 32.0154C44.0683 32.0154 44.0683 32.0155 44.0281 32.1205Z" fill="#0F4F72"/>
<path d="M13.0935 4.0721C13.0772 4.40041 12.6212 7.46224 12.6212 7.46224C12.6212 7.46224 17.6306 9.57135 22.1134 8.98022C26.3301 8.42358 27.7603 6.68012 27.7603 6.68012L27.0897 3.15025C27.0897 3.15025 24.8816 1.39042 19.0676 1.91343C13.2536 2.43643 13.0951 4.07223 13.0951 4.07223L13.0935 4.0721Z" fill="#303051"/>
<path d="M9.8017 4.62878L9.62517 3.72753C9.62517 3.72753 19.2299 2.2404 19.3841 2.24863C19.5548 2.25808 30.8403 2.3563 30.8403 2.3563L30.8002 3.13592L21.7811 5.38516L9.8017 4.62878Z" fill="#303051"/>
<path d="M9.62452 3.7272C9.62452 3.7272 19.202 1.45708 19.4236 1.46868C19.6452 1.48029 30.8396 2.35597 30.8396 2.35597L21.8206 4.60521L9.6244 3.72884L9.62452 3.7272Z" fill="#3C3C68"/>
<path fill-rule="evenodd" clip-rule="evenodd" d="M9.78064 4.62986L9.9674 4.61333C10.1542 4.59682 10.1542 4.59685 10.1542 4.5969L10.1545 4.60043L10.1554 4.61061L10.1587 4.65009C10.1615 4.68471 10.1656 4.73566 10.1706 4.80133C10.1805 4.93268 10.194 5.12295 10.2081 5.35931C10.2364 5.83192 10.2677 6.48929 10.2792 7.2285C10.3021 8.70168 10.2473 10.5189 9.92757 11.8441L9.56303 11.7562C9.87084 10.4806 9.92712 8.70437 9.90422 7.23434C9.89281 6.50195 9.86188 5.85028 9.83379 5.38175C9.81975 5.14753 9.80643 4.95921 9.79664 4.8296C9.79174 4.76479 9.78772 4.71468 9.78494 4.68085L9.78173 4.64253L9.7809 4.63291L9.78064 4.62986Z" fill="#3C3C68"/>
<path d="M8.3428 13.7251C8.3428 13.7251 8.61706 10.3399 9.90548 10.2961C11.1939 10.2523 10.4068 13.9962 10.4068 13.9962L8.3428 13.7251Z" fill="#3C3C68"/>
<defs>
<radialGradient id="paint0_radial_2041_20792" cx="0" cy="0" r="1" gradientUnits="userSpaceOnUse" gradientTransform="translate(24.0928 52.8974) rotate(62.5934) scale(4.93581 3.92384)">
<stop offset="0.84" stop-color="white"/>
<stop offset="1" stop-color="#ECF3F8"/>
</radialGradient>
<radialGradient id="paint1_radial_2041_20792" cx="0" cy="0" r="1" gradientUnits="userSpaceOnUse" gradientTransform="translate(19.1791 53.3136) rotate(60.5813) scale(5.59071 4.65343)">
<stop offset="0.84" stop-color="white"/>
<stop offset="1" stop-color="#ECF3F8"/>
</radialGradient>
<radialGradient id="paint2_radial_2041_20792" cx="0" cy="0" r="1" gradientUnits="userSpaceOnUse" gradientTransform="translate(21.6197 41.7569) rotate(90) scale(8.69439 9.09022)">
<stop offset="0.84" stop-color="white"/>
<stop offset="1" stop-color="#ECF3F8"/>
</radialGradient>
<radialGradient id="paint3_radial_2041_20792" cx="0" cy="0" r="1" gradientUnits="userSpaceOnUse" gradientTransform="translate(24.7253 21.973) rotate(89.1221) scale(16.5863 21.4541)">
<stop offset="0.807065" stop-color="white"/>
<stop offset="1" stop-color="#ECF3F8"/>
</radialGradient>
<linearGradient id="paint4_linear_2041_20792" x1="33.1589" y1="25.0848" x2="33.0871" y2="17.1722" gradientUnits="userSpaceOnUse">
<stop stop-color="white"/>
<stop offset="1" stop-color="#66FFFF"/>
</linearGradient>
<linearGradient id="paint5_linear_2041_20792" x1="23.1269" y1="25.6948" x2="23.0592" y2="18.2423" gradientUnits="userSpaceOnUse">
<stop stop-color="white"/>
<stop offset="1" stop-color="#66FFFF"/>
</linearGradient>
<linearGradient id="paint6_linear_2041_20792" x1="29.2225" y1="26.3408" x2="29.287" y2="28.7848" gradientUnits="userSpaceOnUse">
<stop stop-color="#66FFFF"/>
<stop offset="1" stop-color="white"/>
</linearGradient>
<radialGradient id="paint7_radial_2041_20792" cx="0" cy="0" r="1" gradientUnits="userSpaceOnUse" gradientTransform="translate(37.4019 36.6659) rotate(53.0632) scale(5.71555 5.34082)">
<stop offset="0.84" stop-color="white"/>
<stop offset="1" stop-color="#ECF3F8"/>
</radialGradient>
<radialGradient id="paint8_radial_2041_20792" cx="0" cy="0" r="1" gradientUnits="userSpaceOnUse" gradientTransform="translate(21.5795 38.7734) rotate(49.1514) scale(6.50269 6.25894)">
<stop offset="0.84" stop-color="white"/>
<stop offset="1" stop-color="#ECF3F8"/>
</radialGradient>
</defs>
</svg>
