<svg width="12" height="12" viewBox="0 0 12 12" fill="none" xmlns="http://www.w3.org/2000/svg">
<path d="M8.51719 5.73356L4.76719 1.98356C4.71297 1.93269 4.64545 1.8982 4.57246 1.8841C4.49946 1.87 4.42396 1.87685 4.35469 1.90387C4.28644 1.93256 4.22821 1.98081 4.18733 2.04254C4.14646 2.10426 4.12477 2.17671 4.125 2.25074V9.75074C4.12477 9.82478 4.14646 9.89723 4.18733 9.95895C4.22821 10.0207 4.28644 10.0689 4.35469 10.0976C4.40095 10.116 4.45023 10.1255 4.5 10.1257C4.59958 10.1253 4.69521 10.0867 4.76719 10.0179L8.51719 6.26793C8.58761 6.19684 8.62711 6.10081 8.62711 6.00074C8.62711 5.90068 8.58761 5.80466 8.51719 5.73356Z" fill="#999999"/>
</svg>
