<svg width="20" height="20" viewBox="0 0 20 20" fill="none" xmlns="http://www.w3.org/2000/svg">
<path d="M15.6569 4.34315C14.1566 2.84285 12.1217 2 10 2C7.87827 2 5.84344 2.84285 4.34315 4.34315C2.84285 5.84344 2 7.87827 2 10C2 12.1217 2.84285 14.1566 4.34315 15.6569C5.84344 17.1571 7.87827 18 10 18C12.1217 18 14.1566 17.1571 15.6569 15.6569C17.1571 14.1566 18 12.1217 18 10C18 7.87827 17.1571 5.84344 15.6569 4.34315ZM8.4054 10.6154H11.5946L12.4854 12.5461C12.0422 12.4267 11.5745 12.4338 11.1353 12.5666C10.696 12.6995 10.3027 12.9527 10 13.2977C9.69731 12.9527 9.30403 12.6995 8.86475 12.5666C8.42547 12.4338 7.95776 12.4267 7.51465 12.5461L8.4054 10.6154ZM14.7861 14.7869C14.6323 14.9407 14.4723 15.0846 14.3076 15.2207V13.6923C14.3077 13.6032 14.2883 13.5153 14.2507 13.4346L10.5585 5.43467C10.5091 5.3281 10.4303 5.23786 10.3314 5.17463C10.2324 5.11139 10.1174 5.07778 10 5.07778C9.88256 5.07778 9.76758 5.11139 9.66862 5.17463C9.56967 5.23786 9.49087 5.3281 9.44155 5.43467L5.74928 13.4346C5.71168 13.5153 5.69225 13.6032 5.69236 13.6923V15.2207C5.52775 15.0846 5.36775 14.9407 5.2139 14.7869C4.2671 13.8402 3.62229 12.6341 3.361 11.321C3.09972 10.0078 3.2337 8.64674 3.74601 7.40977C4.25832 6.1728 5.12593 5.11553 6.23914 4.37168C7.35235 3.62782 8.66114 3.23079 10 3.23079C11.3389 3.23079 12.6477 3.62782 13.7609 4.37168C14.8741 5.11553 15.7417 6.1728 16.254 7.40977C16.7663 8.64674 16.9003 10.0078 16.639 11.321C16.3777 12.6341 15.7329 13.8402 14.7861 14.7869Z" fill="#E488E5"/>
</svg>
