<svg width="20" height="20" viewBox="0 0 20 20" fill="none" xmlns="http://www.w3.org/2000/svg">
<path fill-rule="evenodd" clip-rule="evenodd" d="M8.29971 13.205C10.9388 13.205 13.0995 11.0443 13.0995 8.35252C13.0995 5.66073 10.9388 3.5 8.29971 3.5C5.66063 3.5 3.49993 5.66073 3.49993 8.35252C3.49993 11.0443 5.66063 13.205 8.29971 13.205ZM13.31 12.204C14.119 11.1356 14.5995 9.80062 14.5995 8.35252C14.5995 4.84412 11.779 2 8.29971 2C4.82043 2 1.99993 4.84412 1.99993 8.35252C1.99993 11.8609 4.82043 14.705 8.29971 14.705C9.80458 14.705 11.1862 14.173 12.2697 13.2852L17.4718 18.5309C17.7635 18.825 18.2364 18.825 18.5281 18.5309C18.8197 18.2368 18.8197 17.7599 18.5281 17.4658L13.31 12.204ZM4.7498 8.35156C4.7498 7.93735 5.08559 7.60156 5.4998 7.60156L11.0996 7.60156C11.5138 7.60156 11.8496 7.93735 11.8496 8.35156C11.8496 8.76578 11.5138 9.10156 11.0996 9.10156L5.4998 9.10156C5.08559 9.10156 4.7498 8.76578 4.7498 8.35156Z" fill="#C8C8C8"/>
</svg>
