<svg width="16" height="16" viewBox="0 0 16 16" fill="none" xmlns="http://www.w3.org/2000/svg">
<path d="M2.16675 4.7915C2.16675 3.55407 2.16675 2.93535 2.55117 2.55093C2.93559 2.1665 3.55431 2.1665 4.79175 2.1665C6.02918 2.1665 6.6479 2.1665 7.03233 2.55093C7.41675 2.93535 7.41675 3.55407 7.41675 4.7915C7.41675 6.02894 7.41675 6.64766 7.03233 7.03208C6.6479 7.4165 6.02918 7.4165 4.79175 7.4165C3.55431 7.4165 2.93559 7.4165 2.55117 7.03208C2.16675 6.64766 2.16675 6.02894 2.16675 4.7915Z" fill="white"/>
<path d="M8.58325 11.2085C8.58325 9.97106 8.58325 9.35234 8.96767 8.96792C9.3521 8.5835 9.97082 8.5835 11.2083 8.5835C12.4457 8.5835 13.0644 8.5835 13.4488 8.96792C13.8333 9.35234 13.8333 9.97106 13.8333 11.2085C13.8333 12.4459 13.8333 13.0647 13.4488 13.4491C13.0644 13.8335 12.4457 13.8335 11.2083 13.8335C9.97082 13.8335 9.3521 13.8335 8.96767 13.4491C8.58325 13.0647 8.58325 12.4459 8.58325 11.2085Z" fill="white"/>
<path d="M2.16675 11.2085C2.16675 9.97106 2.16675 9.35234 2.55117 8.96792C2.93559 8.5835 3.55431 8.5835 4.79175 8.5835C6.02918 8.5835 6.6479 8.5835 7.03233 8.96792C7.41675 9.35234 7.41675 9.97106 7.41675 11.2085C7.41675 12.4459 7.41675 13.0647 7.03233 13.4491C6.6479 13.8335 6.02918 13.8335 4.79175 13.8335C3.55431 13.8335 2.93559 13.8335 2.55117 13.4491C2.16675 13.0647 2.16675 12.4459 2.16675 11.2085Z" fill="white"/>
<path d="M8.58325 4.7915C8.58325 3.55407 8.58325 2.93535 8.96767 2.55093C9.3521 2.1665 9.97082 2.1665 11.2083 2.1665C12.4457 2.1665 13.0644 2.1665 13.4488 2.55093C13.8333 2.93535 13.8333 3.55407 13.8333 4.7915C13.8333 6.02894 13.8333 6.64766 13.4488 7.03208C13.0644 7.4165 12.4457 7.4165 11.2083 7.4165C9.97082 7.4165 9.3521 7.4165 8.96767 7.03208C8.58325 6.64766 8.58325 6.02894 8.58325 4.7915Z" fill="white"/>
</svg>
