<svg width="20" height="20" viewBox="0 0 20 20" fill="none" xmlns="http://www.w3.org/2000/svg">
<path fill-rule="evenodd" clip-rule="evenodd" d="M17.5304 13.8493C16.6597 15.2779 13.9725 16.8748 10 16.8748C6.02751 16.8748 3.34031 15.2779 2.46963 13.8493C2.23647 13.467 2.0216 12.8831 1.87711 12.1903C1.29121 12.1002 0.833336 11.3247 0.833336 10.3817C0.833336 9.42853 1.30112 8.64645 1.89606 8.57043C2.12917 7.59532 2.58023 6.66793 3.34031 5.95014C5.56616 3.84809 8.81198 3.88024 9.84097 3.89044C9.90202 3.89104 9.95526 3.89157 10 3.89157C10.0448 3.89157 10.098 3.89104 10.1591 3.89044C11.1881 3.88024 14.4339 3.84809 16.6597 5.95014C17.4198 6.66793 17.8708 7.59531 18.1039 8.57042C18.6988 8.64638 19.1667 9.42848 19.1667 10.3817C19.1667 11.3248 18.7087 12.1004 18.1227 12.1903C17.9782 12.8831 17.7634 13.467 17.5304 13.8493ZM13.4332 5.83315H6.56684C5.28144 5.83315 4.16667 6.83401 4.16667 8.15613V11.8435C4.16667 13.1656 5.28144 14.1665 6.56684 14.1665H13.4332C14.7186 14.1665 15.8333 13.1656 15.8333 11.8435V8.15613C15.8333 6.83401 14.7186 5.83315 13.4332 5.83315Z" fill="#59B7EA"/>
<path fill-rule="evenodd" clip-rule="evenodd" d="M13.4332 6.66699H6.56684C5.7015 6.66699 5 7.33393 5 8.15664V11.844C5 12.6667 5.7015 13.3337 6.56684 13.3337H13.4332C14.2985 13.3337 15 12.6667 15 11.844V8.15664C15 7.33393 14.2985 6.66699 13.4332 6.66699ZM9.08148 9.9305C9.08148 10.8124 8.64391 11.5273 8.10443 11.5273C7.56495 11.5273 7.12738 10.8124 7.12738 9.9305C7.12738 9.04861 7.56495 8.33366 8.10443 8.33366C8.64391 8.33366 9.08148 9.04861 9.08148 9.9305ZM12.1834 11.5273C12.7229 11.5273 13.1605 10.8124 13.1605 9.9305C13.1605 9.04861 12.7229 8.33366 12.1834 8.33366C11.6439 8.33366 11.2064 9.04861 11.2064 9.9305C11.2064 10.8124 11.6439 11.5273 12.1834 11.5273Z" fill="#59B7EA"/>
</svg>
