<svg width="16" height="16" viewBox="0 0 16 16" fill="none" xmlns="http://www.w3.org/2000/svg">
<g id="courseware_icon">
<path id="Vector" d="M10.3127 5.13259C12.1042 6.35047 13 6.95941 13 8.00091C13 9.04242 12.1042 9.65136 10.3127 10.8692C9.81812 11.2054 9.3276 11.522 8.87685 11.7857C8.48141 12.0172 8.03356 12.2565 7.56989 12.4915C5.78255 13.3972 4.88888 13.8501 4.08736 13.3487C3.28583 12.8473 3.21299 11.7976 3.0673 9.69835C3.0261 9.10466 3 8.52266 3 8.00091C3 7.47916 3.0261 6.89716 3.0673 6.30348C3.21299 4.20418 3.28584 3.15454 4.08736 2.65313C4.88888 2.15173 5.78255 2.6046 7.56989 3.51034C8.03356 3.74531 8.48141 3.98468 8.87685 4.21608C9.3276 4.47984 9.81812 4.79638 10.3127 5.13259Z" fill="white"/>
</g>
</svg>
