<svg width="16" height="16" viewBox="0 0 16 16" fill="none" xmlns="http://www.w3.org/2000/svg">
<path d="M7.9502 14.85C4.4627 14.85 0.700195 12.6625 0.700195 7.8625C0.700195 3.0625 4.4627 0.875 7.9502 0.875C9.8877 0.875 11.6752 1.5125 13.0002 2.675C14.4377 3.95 15.2002 5.75 15.2002 7.8625C15.2002 9.975 14.4377 11.7625 13.0002 13.0375C11.6752 14.2 9.8752 14.85 7.9502 14.85Z" fill="url(#paint0_radial_1982_39123)"/>
<path d="M13.9365 3.70898C14.6027 4.78398 14.9502 6.06398 14.9502 7.48773C14.9502 9.60023 14.1877 11.3877 12.7502 12.6627C11.4252 13.8252 9.62523 14.4752 7.70023 14.4752C5.44273 14.4752 3.07523 13.5565 1.67773 11.6077C3.02273 13.8152 5.55273 14.8502 7.95023 14.8502C9.87523 14.8502 11.6752 14.2002 13.0002 13.0377C14.4377 11.7627 15.2002 9.97523 15.2002 7.86273C15.2002 6.27023 14.7665 4.85523 13.9365 3.70898Z" fill="#E38A00"/>
<path d="M6.07541 6.83753L6.05041 6.86253L5.98791 6.92503C5.96291 6.95003 5.93791 6.96253 5.90041 7.00003C5.86041 7.03253 5.81916 7.06128 5.77541 7.08753C5.72541 7.11253 5.67541 7.15003 5.62541 7.17503C5.57541 7.20003 5.51291 7.22503 5.45041 7.25003C5.38916 7.27253 5.32666 7.28878 5.26291 7.30003C5.19666 7.31128 5.13041 7.31503 5.06291 7.31253H4.95041C4.92041 7.31503 4.89041 7.31003 4.86291 7.30003C4.79916 7.28878 4.73666 7.27253 4.67541 7.25003C4.61541 7.23003 4.55666 7.20503 4.50041 7.17503C4.45041 7.15003 4.40041 7.11253 4.35041 7.08753C4.26291 7.02503 4.18791 6.96253 4.13791 6.92503L4.06291 6.85003L4.03791 6.82503C3.87666 6.68003 3.63541 6.67003 3.46291 6.80003C3.34166 6.89503 3.30041 7.06003 3.36291 7.20003L3.38791 7.23753C3.40166 7.27253 3.41916 7.30503 3.43791 7.33753C3.51416 7.46628 3.60666 7.58378 3.71291 7.68753C3.78666 7.76003 3.86666 7.82753 3.95041 7.88753C4.04916 7.95628 4.15291 8.01503 4.26291 8.06253C4.38291 8.11753 4.50916 8.15878 4.63791 8.18753L4.85041 8.22503C4.88791 8.22503 4.93791 8.23753 4.95041 8.23753H5.05041C5.18916 8.23753 5.32666 8.22503 5.46291 8.20003C5.59291 8.17378 5.71791 8.13128 5.83791 8.07503C5.94791 8.02753 6.05166 7.96878 6.15041 7.90003C6.23791 7.84378 6.31791 7.77628 6.38791 7.70003C6.44916 7.64378 6.50416 7.58128 6.55041 7.51253C6.57541 7.48753 6.58791 7.45003 6.61291 7.42503C6.63791 7.40003 6.65041 7.37503 6.66291 7.35003C6.68416 7.32003 6.70166 7.28628 6.71291 7.25003L6.72541 7.22503C6.80291 7.05003 6.72291 6.84378 6.54791 6.76628C6.53291 6.76003 6.51666 6.75378 6.50041 6.75003C6.35416 6.68628 6.18416 6.72128 6.07541 6.83753Z" fill="#422B0D"/>
<path d="M11.6877 6.83753L11.6627 6.86253L11.6002 6.92503C11.5752 6.95003 11.5502 6.96253 11.5127 7.00003C11.4727 7.03253 11.4315 7.06128 11.3877 7.08753C11.3377 7.11253 11.2877 7.15003 11.2377 7.17503C11.1877 7.20003 11.1252 7.22503 11.0627 7.25003C11.0015 7.27253 10.939 7.28878 10.8752 7.30003C10.809 7.31128 10.7427 7.31503 10.6752 7.31253H10.5627C10.5327 7.31378 10.504 7.30878 10.4752 7.30003C10.4115 7.28878 10.349 7.27253 10.2877 7.25003C10.2277 7.23003 10.169 7.20503 10.1127 7.17503C10.0627 7.15003 10.0127 7.11253 9.96271 7.08753C9.87521 7.02503 9.80021 6.96253 9.75021 6.92503L9.67521 6.85003L9.65021 6.82503C9.48896 6.68003 9.24771 6.67003 9.07521 6.80003C8.95396 6.89503 8.91271 7.06003 8.97521 7.20003L9.00021 7.23753C9.01396 7.27253 9.03146 7.30503 9.05021 7.33753C9.12646 7.46628 9.21896 7.58378 9.32521 7.68753C9.39896 7.76003 9.47896 7.82753 9.56271 7.88753C9.66146 7.95628 9.76521 8.01503 9.87521 8.06253C9.99521 8.11753 10.1215 8.15878 10.2502 8.18753L10.4627 8.22503C10.5002 8.22503 10.5502 8.23753 10.5627 8.23753H10.6627C10.8015 8.23753 10.939 8.22503 11.0752 8.20003C11.2052 8.17378 11.3302 8.13128 11.4502 8.07503C11.5602 8.02753 11.664 7.96878 11.7627 7.90003C11.8527 7.84628 11.9327 7.77878 12.0002 7.70003C12.0615 7.64378 12.1165 7.58128 12.1627 7.51253C12.1877 7.48753 12.2002 7.45003 12.2252 7.42503C12.2502 7.40003 12.2627 7.37503 12.2752 7.35003C12.2965 7.32003 12.314 7.28628 12.3252 7.25003L12.3377 7.22503C12.4152 7.05003 12.3352 6.84378 12.1602 6.76628C12.1452 6.76003 12.129 6.75378 12.1127 6.75003C11.9665 6.68628 11.7965 6.72128 11.6877 6.83753Z" fill="#422B0D"/>
<path d="M9.65061 2.70055C9.60811 2.6768 9.56186 2.6593 9.51311 2.65055C9.46311 2.62555 9.40061 2.61305 9.35061 2.58805L9.08811 2.51305C8.98811 2.47555 8.87561 2.45055 8.77561 2.41305C8.57561 2.35055 8.32561 2.18805 8.20061 2.47555C8.16686 2.5368 8.14936 2.60555 8.15061 2.67555C8.15061 2.77555 8.22561 2.82555 8.31311 2.86305C8.40561 2.9043 8.50186 2.9368 8.60061 2.96305C8.63186 2.9793 8.66561 2.9868 8.70061 2.98805C8.72561 2.98805 8.75061 3.00055 8.75061 3.02555C8.75061 3.05055 8.72561 3.05055 8.71311 3.06305C8.70061 3.07555 8.66311 3.10055 8.63811 3.11305L8.60061 3.13805C8.53311 3.18805 8.46186 3.2343 8.38811 3.27555C8.33811 3.31305 8.27561 3.35055 8.22561 3.38805C8.19811 3.40055 8.17311 3.4168 8.15061 3.43805C8.07686 3.48805 8.00561 3.54305 7.93811 3.60055L7.91311 3.62555C7.84561 3.6793 7.79686 3.7543 7.77561 3.83805C7.76311 3.95055 7.85061 4.00055 7.95061 4.05055L8.06311 4.08805C8.19436 4.1368 8.32811 4.1793 8.46311 4.21305C8.56311 4.25055 8.67561 4.27555 8.77561 4.31305C8.97561 4.37555 9.22561 4.53805 9.35061 4.25055C9.38436 4.1893 9.40186 4.12055 9.40061 4.05055C9.38811 3.9618 9.32436 3.88805 9.23811 3.86305C9.14561 3.8218 9.04936 3.7893 8.95061 3.76305C8.92561 3.76305 8.91311 3.75055 8.88811 3.73805C8.86311 3.72555 8.85061 3.72555 8.83811 3.72555C8.81311 3.70055 8.86311 3.67555 8.87561 3.66305C8.92811 3.6343 8.97811 3.60055 9.02561 3.56305C9.07811 3.5293 9.12811 3.4918 9.17561 3.45055C9.20061 3.43805 9.22561 3.41305 9.25061 3.40055C9.30061 3.36305 9.36311 3.32555 9.41311 3.28805C9.55061 3.17555 9.86311 3.03805 9.76311 2.82555C9.73686 2.77555 9.69811 2.7318 9.65061 2.70055Z" fill="#5F7AFF"/>
<path d="M12.1383 1.51285C12.0908 1.49035 12.0395 1.4741 11.9883 1.46285C11.9258 1.45035 11.8633 1.42535 11.8008 1.41285C11.7008 1.38785 11.6008 1.37535 11.5133 1.35035C11.4008 1.32535 11.2758 1.28785 11.1633 1.26285C10.9383 1.21285 10.6508 1.06285 10.5383 1.38785C10.5083 1.4591 10.4945 1.53535 10.5008 1.61285C10.5133 1.72535 10.6008 1.77535 10.7008 1.80035C10.8033 1.83535 10.907 1.8641 11.0133 1.88785C11.0508 1.90035 11.0883 1.90035 11.1258 1.91285C11.1633 1.92535 11.1758 1.92535 11.1758 1.95035C11.1758 1.97535 11.1508 1.98785 11.1383 2.00035C11.1258 2.01285 11.0883 2.03785 11.0633 2.06285C11.0383 2.08785 11.0383 2.07535 11.0258 2.08785C10.9508 2.15035 10.8758 2.20035 10.8008 2.26285L10.6258 2.40035C10.6008 2.41285 10.5758 2.43785 10.5508 2.45035C10.4758 2.51285 10.4008 2.57535 10.3383 2.63785C10.3258 2.65035 10.3133 2.65035 10.3133 2.66285C10.237 2.72535 10.1883 2.81535 10.1758 2.91285C10.1758 3.03785 10.2758 3.08785 10.3883 3.13785L10.5133 3.17535C10.657 3.22035 10.8033 3.25785 10.9508 3.28785C11.0633 3.31285 11.1883 3.35035 11.3008 3.37535C11.5258 3.42535 11.8133 3.57535 11.9258 3.25035C11.9558 3.1791 11.9695 3.10285 11.9633 3.02535C11.9508 2.91285 11.8633 2.86285 11.7633 2.83785C11.657 2.8016 11.5483 2.7716 11.4383 2.75035C11.4133 2.75035 11.3883 2.73785 11.3633 2.73785C11.3383 2.73785 11.3133 2.73785 11.3008 2.72535C11.2883 2.71285 11.3258 2.67535 11.3383 2.66285C11.3883 2.62535 11.4383 2.58785 11.5008 2.53785L11.6633 2.41285C11.6908 2.3891 11.7195 2.36785 11.7508 2.35035C11.812 2.30785 11.8695 2.2616 11.9258 2.21285C12.0633 2.07535 12.4008 1.91285 12.2633 1.67535C12.247 1.60535 12.2008 1.5466 12.1383 1.51285Z" fill="#5F7AFF"/>
<path d="M15.4504 1.12545C15.4029 1.04545 15.3341 0.979198 15.2504 0.937948C15.1854 0.911698 15.1191 0.890448 15.0504 0.875448C14.9691 0.849198 14.8854 0.827948 14.8004 0.812948C14.6754 0.775448 14.5379 0.750448 14.4129 0.725448C14.2629 0.687948 14.1004 0.637948 13.9504 0.600448C13.6504 0.525448 13.2754 0.325448 13.1129 0.762948C13.0716 0.857948 13.0554 0.960448 13.0629 1.06295C13.0854 1.19545 13.1929 1.2967 13.3254 1.31295C13.4654 1.35795 13.6066 1.39545 13.7504 1.42545C13.8004 1.43795 13.8504 1.45045 13.8879 1.46295C13.9254 1.47545 13.9629 1.47545 13.9629 1.51295C13.9579 1.54045 13.9391 1.5642 13.9129 1.57545C13.8754 1.60045 13.8504 1.62545 13.8129 1.65045C13.7991 1.66545 13.7816 1.6792 13.7629 1.68795C13.6629 1.76295 13.5629 1.83795 13.4754 1.91295L13.2504 2.10045C13.2191 2.12795 13.1854 2.15295 13.1504 2.17545C13.0504 2.25045 12.9629 2.33795 12.8629 2.42545L12.8254 2.46295C12.7254 2.54295 12.6616 2.66045 12.6504 2.78795C12.6504 2.95045 12.7879 3.02545 12.9379 3.08795C12.9904 3.11045 13.0441 3.1267 13.1004 3.13795H13.1129C13.3004 3.20045 13.5004 3.23795 13.7004 3.28795L14.1629 3.40045C14.4629 3.47545 14.8504 3.67545 15.0004 3.23795C15.0416 3.14295 15.0579 3.04045 15.0504 2.93795C15.0279 2.80545 14.9204 2.7042 14.7879 2.68795C14.6504 2.63545 14.5079 2.59295 14.3629 2.56295C14.3254 2.55045 14.3004 2.55045 14.2629 2.53795C14.2354 2.53795 14.2104 2.5292 14.1879 2.51295C14.1504 2.47545 14.2129 2.43795 14.2379 2.42545C14.3116 2.37545 14.3829 2.32045 14.4504 2.26295C14.5254 2.20045 14.6004 2.15045 14.6629 2.08795C14.7029 2.06295 14.7416 2.03295 14.7754 2.00045C14.8554 1.94545 14.9316 1.8817 15.0004 1.81295C15.1879 1.65045 15.6254 1.42545 15.4504 1.12545Z" fill="#5F7AFF"/>
<path d="M6.96273 12.4131C6.48398 12.4043 6.10273 12.0081 6.11148 11.5293C6.11398 11.3681 6.16273 11.2106 6.25023 11.0756C6.63773 10.4756 7.25023 10.1631 8.00023 10.1631C8.75023 10.1631 9.36273 10.4756 9.75023 11.0756C9.92398 11.3381 9.93773 11.6743 9.78773 11.9506C9.63898 12.2281 9.35273 12.4056 9.03773 12.4131C8.93898 12.4156 8.84148 12.3993 8.75023 12.3631C8.50898 12.2793 8.25523 12.2368 8.00023 12.2381C7.74523 12.2356 7.49148 12.2781 7.25023 12.3631C7.15773 12.3968 7.06023 12.4143 6.96273 12.4131Z" fill="#422B0D"/>
<defs>
<radialGradient id="paint0_radial_1982_39123" cx="0" cy="0" r="1" gradientUnits="userSpaceOnUse" gradientTransform="translate(7.9502 7.8625) scale(7.11996)">
<stop stop-color="#FFDE1E"/>
<stop offset="0.53" stop-color="#FFDD16"/>
<stop offset="0.795" stop-color="#FEC114"/>
<stop offset="0.955" stop-color="#FEA311"/>
<stop offset="1" stop-color="#F49400"/>
</radialGradient>
</defs>
</svg>
