<svg width="16" height="16" viewBox="0 0 16 16" fill="none" xmlns="http://www.w3.org/2000/svg">
<path d="M7.9502 14.85C4.4627 14.85 0.700195 12.6625 0.700195 7.8625C0.700195 3.0625 4.4627 0.875 7.9502 0.875C9.8877 0.875 11.6752 1.5125 13.0002 2.675C14.4377 3.95 15.2002 5.75 15.2002 7.8625C15.2002 9.975 14.4377 11.7625 13.0002 13.0375C11.6752 14.2 9.8752 14.85 7.9502 14.85Z" fill="url(#paint0_radial_1982_39131)"/>
<path d="M13.9365 3.70898C14.6027 4.78398 14.9502 6.06398 14.9502 7.48773C14.9502 9.60023 14.1877 11.3877 12.7502 12.6627C11.4252 13.8252 9.62523 14.4752 7.70023 14.4752C5.44273 14.4752 3.07523 13.5565 1.67773 11.6077C3.02273 13.8152 5.55273 14.8502 7.95023 14.8502C9.87523 14.8502 11.6752 14.2002 13.0002 13.0377C14.4377 11.7627 15.2002 9.97523 15.2002 7.86273C15.2002 6.27023 14.7665 4.85523 13.9365 3.70898Z" fill="#E38A00"/>
<path fill-rule="evenodd" clip-rule="evenodd" d="M6.12549 11.875C6.12549 11.5989 6.34935 11.375 6.62549 11.375H9.37549C9.65163 11.375 9.87549 11.5989 9.87549 11.875C9.87549 12.1511 9.65163 12.375 9.37549 12.375H6.62549C6.34935 12.375 6.12549 12.1511 6.12549 11.875Z" fill="#35220B"/>
<path d="M6.20041 7.99964L6.17541 8.02464L6.11291 8.08714C6.08791 8.11214 6.06291 8.12464 6.02541 8.16214C5.98541 8.19464 5.94416 8.22339 5.90041 8.24964C5.85041 8.27464 5.80041 8.31214 5.75041 8.33714C5.70041 8.36214 5.63791 8.38714 5.57541 8.41214C5.51416 8.43464 5.45166 8.45089 5.38791 8.46214C5.32166 8.47339 5.25541 8.47714 5.18791 8.47464H5.07541C5.05041 8.47464 5.01291 8.46214 4.98791 8.46214C4.92416 8.45089 4.86166 8.43464 4.80041 8.41214C4.73916 8.39464 4.68041 8.36964 4.62541 8.33714C4.57291 8.31214 4.52291 8.28339 4.47541 8.24964C4.38791 8.18714 4.31291 8.12464 4.26291 8.08714L4.18791 8.01214L4.16291 7.98714C4.00166 7.84214 3.76041 7.83214 3.58791 7.96214C3.46666 8.05714 3.42541 8.22214 3.48791 8.36214L3.50041 8.39964C3.51416 8.43464 3.53166 8.46714 3.55041 8.49964C3.62666 8.62839 3.71916 8.74589 3.82541 8.84964C3.89916 8.92214 3.97916 8.98964 4.06291 9.04964C4.16166 9.11839 4.26541 9.17714 4.37541 9.22464C4.49541 9.27964 4.62166 9.32089 4.75041 9.34964C4.81291 9.36214 4.88791 9.37464 4.96291 9.38714C5.00041 9.38714 5.05041 9.39964 5.06291 9.39964H5.16291C5.30166 9.39964 5.43916 9.38714 5.57541 9.36214C5.70541 9.33589 5.83041 9.29339 5.95041 9.23714C6.06041 9.18964 6.16416 9.13089 6.26291 9.06214C6.35291 9.00839 6.43291 8.94089 6.50041 8.86214C6.56166 8.80589 6.61666 8.74339 6.66291 8.67464C6.68791 8.64964 6.70041 8.61214 6.72541 8.58714C6.75041 8.56214 6.76291 8.53714 6.77541 8.51214C6.79666 8.48214 6.81416 8.44839 6.82541 8.41214L6.83791 8.38714C6.91541 8.21214 6.83541 8.00589 6.66041 7.92839C6.64541 7.92214 6.62916 7.91589 6.61291 7.91214C6.47041 7.85339 6.30666 7.88839 6.20041 7.99964Z" fill="#422B0D"/>
<path d="M11.8143 8.0462L11.7893 8.0712C11.7693 8.0937 11.748 8.11495 11.7255 8.1337L11.6393 8.20495C11.603 8.23245 11.5618 8.26245 11.5143 8.29245C11.4668 8.32245 11.418 8.3512 11.3643 8.3787C11.3093 8.4062 11.2518 8.42995 11.193 8.44995C11.1318 8.4687 11.0693 8.4837 11.0055 8.4962C10.9405 8.5062 10.8755 8.5112 10.8093 8.5112H10.7505C10.718 8.5112 10.7118 8.5112 10.6993 8.5112L10.6118 8.49995C10.548 8.48745 10.4855 8.47245 10.4243 8.4537C10.3643 8.4312 10.3068 8.40495 10.2505 8.37495C10.1968 8.34745 10.1468 8.31745 10.1005 8.2887C10.0268 8.23995 9.95804 8.18495 9.89304 8.12495L9.81429 8.05245L9.78304 8.0212C9.62304 7.87495 9.38179 7.8662 9.21179 7.99995C9.08804 8.09495 9.04679 8.26495 9.11429 8.4062L9.13304 8.4437C9.14929 8.47995 9.16804 8.51495 9.18804 8.5487C9.31679 8.7637 9.49179 8.94745 9.69929 9.0887C9.79804 9.15745 9.90304 9.2162 10.013 9.2637C10.1355 9.31745 10.263 9.35995 10.3943 9.3887C10.463 9.4012 10.5268 9.4137 10.6105 9.4212C10.6493 9.4212 10.6943 9.4287 10.7143 9.4287H10.8118C10.9518 9.4262 11.0905 9.41245 11.228 9.38495C11.3593 9.3562 11.4868 9.3137 11.6093 9.25995C11.7193 9.21245 11.8243 9.1537 11.923 9.08495C12.078 8.97995 12.2155 8.84995 12.3293 8.7012L12.3893 8.61745L12.4393 8.5387C12.458 8.5087 12.4743 8.4762 12.488 8.44245L12.5018 8.4112C12.5768 8.23245 12.4918 8.0262 12.313 7.9512C12.3005 7.9462 12.288 7.9412 12.2755 7.9387C12.1143 7.88245 11.9343 7.92495 11.8143 8.0462Z" fill="#422B0D"/>
<path d="M2.9252 5.84985C2.6502 5.89985 2.6377 6.29985 2.9377 6.31235C3.6002 6.3211 4.2402 6.07485 4.7252 5.62485C4.9102 5.46485 5.06645 5.27485 5.1877 5.06235C5.2602 4.9586 5.2352 4.8161 5.13145 4.7436C5.0277 4.6711 4.8852 4.6961 4.8127 4.79985L4.8002 4.81235C4.3102 5.35985 3.64895 5.7261 2.9252 5.84985Z" fill="#422B0D"/>
<path d="M11.1879 4.79985C11.1154 4.6961 10.9729 4.6711 10.8692 4.7436C10.7654 4.8161 10.7404 4.9586 10.8129 5.06235C10.9342 5.27485 11.0904 5.46485 11.2754 5.62485C11.7629 6.0711 12.4017 6.31735 13.0629 6.31235C13.3754 6.29985 13.3504 5.89985 13.0754 5.84985C12.3429 5.72985 11.6767 5.3586 11.1879 4.79985Z" fill="#422B0D"/>
<defs>
<radialGradient id="paint0_radial_1982_39131" cx="0" cy="0" r="1" gradientUnits="userSpaceOnUse" gradientTransform="translate(7.9502 7.8625) scale(7.11996)">
<stop stop-color="#FFDE1E"/>
<stop offset="0.53" stop-color="#FFDD16"/>
<stop offset="0.795" stop-color="#FEC114"/>
<stop offset="0.955" stop-color="#FEA311"/>
<stop offset="1" stop-color="#F49400"/>
</radialGradient>
</defs>
</svg>
