<svg width="16" height="16" viewBox="0 0 16 16" fill="none" xmlns="http://www.w3.org/2000/svg">
<path d="M7.9502 14.85C4.4627 14.85 0.700195 12.6625 0.700195 7.8625C0.700195 3.0625 4.4627 0.875 7.9502 0.875C9.8877 0.875 11.6752 1.5125 13.0002 2.675C14.4377 3.95 15.2002 5.75 15.2002 7.8625C15.2002 9.975 14.4377 11.7625 13.0002 13.0375C11.6752 14.2 9.8752 14.85 7.9502 14.85Z" fill="url(#paint0_radial_1982_39113)"/>
<path d="M6.19002 5.12457C6.14752 5.10082 6.10627 5.07707 6.06502 5.05707C5.02127 4.53832 3.75502 4.96332 3.23627 6.00707C2.71752 7.05082 3.14252 8.31707 4.18627 8.83582C5.23002 9.35457 6.49627 8.92957 7.01502 7.88582C7.50877 6.89207 7.14877 5.68457 6.19002 5.12457Z" fill="white"/>
<path d="M5.21893 6.35387C5.72358 6.35387 6.13268 5.94477 6.13268 5.44012C6.13268 4.93547 5.72358 4.52637 5.21893 4.52637C4.71428 4.52637 4.30518 4.93547 4.30518 5.44012C4.30518 5.94477 4.71428 6.35387 5.21893 6.35387Z" fill="#422B0D"/>
<path d="M11.7702 5.12487C11.7277 5.10112 11.6852 5.07737 11.6452 5.05737C10.6052 4.53987 9.34391 4.96487 8.82641 6.00362C8.30891 7.04362 8.73391 8.30487 9.77266 8.82237C10.8127 9.33987 12.0739 8.91487 12.5914 7.87612C13.0839 6.88612 12.7252 5.68362 11.7702 5.12487Z" fill="white"/>
<path d="M10.7975 6.35387C11.3022 6.35387 11.7113 5.94477 11.7113 5.44012C11.7113 4.93547 11.3022 4.52637 10.7975 4.52637C10.2929 4.52637 9.88379 4.93547 9.88379 5.44012C9.88379 5.94477 10.2929 6.35387 10.7975 6.35387Z" fill="#422B0D"/>
<path d="M8.71381 6.97973C8.79006 7.49598 9.04381 7.96973 9.43131 8.31973C9.61506 8.48098 9.82756 8.60848 10.0563 8.69473C10.2838 8.78098 10.5251 8.82348 10.7676 8.81973C11.2613 8.81973 11.7388 8.63848 12.1076 8.31098C12.4951 7.96098 12.7488 7.48723 12.8251 6.97098H12.8501C12.8501 8.12098 11.9176 9.05348 10.7676 9.05348C9.61756 9.05348 8.68506 8.12098 8.68506 6.97098C8.68506 6.97098 8.68506 6.97098 8.68506 6.96973L8.71381 6.97973Z" fill="#F4A223"/>
<path d="M3.14154 6.98043C3.21779 7.49668 3.47154 7.97043 3.85904 8.32043C4.04279 8.48168 4.25529 8.60918 4.48404 8.69543C4.71154 8.78168 4.95279 8.82418 5.19529 8.82043C5.68904 8.82043 6.16529 8.63918 6.53529 8.31168C6.92279 7.96168 7.17654 7.48793 7.25279 6.97168H7.27779C7.27779 8.12168 6.34529 9.05418 5.19529 9.05418C4.04529 9.05418 3.11279 8.12293 3.11279 6.97293C3.11279 6.97293 3.11279 6.97293 3.11279 6.97168L3.14154 6.98043Z" fill="#F4A223"/>
<path d="M13.9365 3.70898C14.6027 4.78398 14.9502 6.06398 14.9502 7.48773C14.9502 9.60023 14.1877 11.3877 12.7502 12.6627C11.4252 13.8252 9.62523 14.4752 7.70023 14.4752C5.44273 14.4752 3.07523 13.5565 1.67773 11.6077C3.02273 13.8152 5.55273 14.8502 7.95023 14.8502C9.87523 14.8502 11.6752 14.2002 13.0002 13.0377C14.4377 11.7627 15.2002 9.97523 15.2002 7.86273C15.2002 6.27023 14.7665 4.85523 13.9365 3.70898Z" fill="#E38A00"/>
<path d="M9.375 12.25H6.625C6.34875 12.25 6.125 12.0263 6.125 11.75C6.125 11.4737 6.34875 11.25 6.625 11.25H9.375C9.65125 11.25 9.875 11.4737 9.875 11.75C9.875 12.0263 9.65125 12.25 9.375 12.25Z" fill="#422B0D"/>
<defs>
<radialGradient id="paint0_radial_1982_39113" cx="0" cy="0" r="1" gradientUnits="userSpaceOnUse" gradientTransform="translate(7.9502 7.8625) scale(7.11996)">
<stop stop-color="#FFDE1E"/>
<stop offset="0.53" stop-color="#FFDD16"/>
<stop offset="0.795" stop-color="#FEC114"/>
<stop offset="0.955" stop-color="#FEA311"/>
<stop offset="1" stop-color="#F49400"/>
</radialGradient>
</defs>
</svg>
