<svg width="16" height="16" viewBox="0 0 16 16" fill="none" xmlns="http://www.w3.org/2000/svg">
<path d="M7.9502 14.85C4.4627 14.85 0.700195 12.6625 0.700195 7.8625C0.700195 3.0625 4.4627 0.875 7.9502 0.875C9.8877 0.875 11.6752 1.5125 13.0002 2.675C14.4377 3.95 15.2002 5.75 15.2002 7.8625C15.2002 9.975 14.4377 11.7625 13.0002 13.0375C11.6752 14.2 9.8752 14.85 7.9502 14.85Z" fill="url(#paint0_radial_1982_39124)"/>
<path d="M13.9365 3.70898C14.6027 4.78398 14.9502 6.06398 14.9502 7.48773C14.9502 9.60023 14.1877 11.3877 12.7502 12.6627C11.4252 13.8252 9.62523 14.4752 7.70023 14.4752C5.44273 14.4752 3.07523 13.5565 1.67773 11.6077C3.02273 13.8152 5.55273 14.8502 7.95023 14.8502C9.87523 14.8502 11.6752 14.2002 13.0002 13.0377C14.4377 11.7627 15.2002 9.97523 15.2002 7.86273C15.2002 6.27023 14.7665 4.85523 13.9365 3.70898Z" fill="#E38A00"/>
<path d="M8.0001 12.625C6.9326 12.625 6.17135 11.8388 5.94135 11.4025C5.85385 11.255 5.8376 11.075 5.8951 10.9137C5.9301 10.8175 6.0226 10.7525 6.1251 10.75C6.1601 10.7512 6.19385 10.7575 6.22635 10.77C6.76385 10.9813 7.2351 11.2875 8.00635 11.2875C8.7776 11.2875 9.25635 10.9813 9.78635 10.77C9.81885 10.7575 9.8526 10.75 9.8876 10.75C9.98885 10.755 10.0764 10.8187 10.1114 10.9137C10.1689 11.075 10.1526 11.255 10.0651 11.4025C9.82885 11.8388 9.0676 12.625 8.0001 12.625Z" fill="#422B0D"/>
<path d="M6.1888 6.7962L6.1638 6.8212C6.1438 6.8437 6.12255 6.86495 6.10005 6.8837L6.0138 6.95495C5.97755 6.98245 5.9363 7.01245 5.8888 7.04245C5.8413 7.07245 5.79255 7.1012 5.7388 7.1287C5.6838 7.1562 5.6263 7.17995 5.56755 7.19995C5.5063 7.2187 5.4438 7.2337 5.38005 7.2462C5.31505 7.2562 5.25005 7.2612 5.1838 7.2612H5.12505C5.09255 7.2612 5.0863 7.2612 5.0738 7.2612L4.9863 7.24995C4.92255 7.23745 4.86005 7.22245 4.7988 7.2037C4.7388 7.1812 4.6813 7.15495 4.62505 7.12495C4.5713 7.09745 4.5213 7.06745 4.47505 7.0387C4.4013 6.98995 4.33255 6.93495 4.26755 6.87495L4.1888 6.80245L4.15755 6.7712C3.99755 6.62495 3.7563 6.6162 3.5863 6.74995C3.46255 6.84495 3.4213 7.01495 3.4888 7.1562L3.50755 7.1937C3.5238 7.22995 3.54255 7.26495 3.56255 7.2987C3.6913 7.5137 3.8663 7.69745 4.0738 7.8387C4.17255 7.90745 4.27755 7.9662 4.38755 8.0137C4.5088 8.06745 4.6338 8.1087 4.76255 8.1387C4.8313 8.1512 4.89505 8.1637 4.9788 8.1712C5.01755 8.1712 5.06255 8.1787 5.08255 8.1787H5.18005C5.32005 8.1762 5.4588 8.16245 5.5963 8.13495C5.72505 8.10495 5.85005 8.0637 5.9713 8.00995C6.0813 7.96245 6.1863 7.9037 6.28505 7.83495C6.44005 7.72995 6.57755 7.59995 6.6913 7.4512L6.7513 7.36745L6.8013 7.2887C6.82005 7.2587 6.8363 7.2262 6.85005 7.19245L6.8638 7.1612C6.9388 6.98245 6.8538 6.7762 6.67505 6.7012C6.66255 6.6962 6.65005 6.6912 6.63755 6.6887C6.48005 6.6387 6.3063 6.67995 6.1888 6.7962Z" fill="#422B0D"/>
<path d="M11.8138 6.7962L11.7888 6.8212C11.7688 6.8437 11.7475 6.86495 11.725 6.8837L11.6388 6.95495C11.6025 6.98245 11.5613 7.01245 11.5138 7.04245C11.4663 7.07245 11.4175 7.1012 11.3638 7.1287C11.3088 7.1562 11.2513 7.17995 11.1925 7.19995C11.1313 7.2187 11.0688 7.2337 11.005 7.2462C10.94 7.2562 10.875 7.2612 10.8088 7.2612H10.75C10.7175 7.2612 10.7113 7.2612 10.6988 7.2612L10.6113 7.24995C10.5475 7.23745 10.485 7.22245 10.4238 7.2037C10.3638 7.1812 10.3063 7.15495 10.25 7.12495C10.1963 7.09745 10.1463 7.06745 10.1 7.0387C10.0263 6.98995 9.95755 6.93495 9.89255 6.87495L9.8138 6.80245L9.78255 6.7712C9.62255 6.62495 9.3813 6.6162 9.2113 6.74995C9.08755 6.84495 9.0463 7.01495 9.1138 7.1562L9.13255 7.1937C9.1488 7.22995 9.16755 7.26495 9.18755 7.2987C9.3163 7.5137 9.4913 7.69745 9.6988 7.8387C9.79755 7.90745 9.90255 7.9662 10.0125 8.0137C10.135 8.06745 10.2625 8.10995 10.3938 8.1387C10.4625 8.1512 10.5263 8.1637 10.61 8.1712C10.6488 8.1712 10.6938 8.1787 10.7138 8.1787H10.8113C10.9513 8.1762 11.09 8.16245 11.2275 8.13495C11.3588 8.1062 11.4863 8.0637 11.6088 8.00995C11.7188 7.96245 11.8238 7.9037 11.9225 7.83495C12.0775 7.72995 12.215 7.59995 12.3288 7.4512L12.3888 7.36745L12.4388 7.2887C12.4575 7.2587 12.4738 7.2262 12.4875 7.19245L12.5013 7.1612C12.5763 6.98245 12.4913 6.7762 12.3125 6.7012C12.3 6.6962 12.2875 6.6912 12.275 6.6887C12.1138 6.63245 11.9338 6.67495 11.8138 6.7962Z" fill="#422B0D"/>
<path d="M3.5527 5.40977C3.4652 5.50102 3.31895 5.50477 3.2277 5.41602C3.1452 5.33727 3.13395 5.20852 3.2002 5.11602C3.3402 4.91602 3.51145 4.73977 3.70895 4.59477C4.2327 4.19102 4.88895 3.99977 5.5477 4.06102C5.8577 4.09977 5.7977 4.49602 5.52145 4.52227C4.78145 4.58102 4.08645 4.89477 3.5527 5.40977Z" fill="#422B0D"/>
<path d="M12.3113 5.40977C12.3988 5.50102 12.545 5.50477 12.6363 5.41602C12.7188 5.33727 12.73 5.20852 12.6638 5.11602C12.5238 4.91602 12.3525 4.73977 12.155 4.59477C11.6313 4.19102 10.975 3.99977 10.3163 4.06102C10.0063 4.09977 10.0663 4.49602 10.3425 4.52227C11.0825 4.58102 11.7775 4.89477 12.3113 5.40977Z" fill="#422B0D"/>
<defs>
<radialGradient id="paint0_radial_1982_39124" cx="0" cy="0" r="1" gradientUnits="userSpaceOnUse" gradientTransform="translate(7.9502 7.8625) scale(7.11996)">
<stop stop-color="#FFDE1E"/>
<stop offset="0.53" stop-color="#FFDD16"/>
<stop offset="0.795" stop-color="#FEC114"/>
<stop offset="0.955" stop-color="#FEA311"/>
<stop offset="1" stop-color="#F49400"/>
</radialGradient>
</defs>
</svg>
