<svg width="20" height="20" viewBox="0 0 20 20" fill="none" xmlns="http://www.w3.org/2000/svg">
<path fill-rule="evenodd" clip-rule="evenodd" d="M6.07625 3.98789C3.98999 4.60245 2.53078 6.4975 2.50048 8.68017C2.5 8.71441 2.5 8.75291 2.5 8.82991V10.7659C2.58497 10.7658 2.67133 10.783 2.75399 10.8195C7.36721 12.856 12.6331 12.856 17.2463 10.8195C17.3289 10.7831 17.4151 10.7658 17.5 10.7659V8.82991C17.5 8.75291 17.5 8.71441 17.4995 8.68017C17.4692 6.49752 16.01 4.60248 13.9238 3.9879C13.6924 3.91205 12.991 3.77646 12.6693 3.71814C10.9026 3.41801 9.09741 3.41801 7.33074 3.71813C6.99355 3.78195 6.27059 3.92525 6.07625 3.98789ZM8.33333 9.93814C7.98816 9.93814 7.70833 10.2161 7.70833 10.5589C7.70833 10.9018 7.98816 11.1797 8.33333 11.1797H11.6667C12.0118 11.1797 12.2917 10.9018 12.2917 10.5589C12.2917 10.2161 12.0118 9.93814 11.6667 9.93814H8.33333Z" fill="#C8C8C8"/>
<path d="M7.39423 3.3265C7.64903 2.59712 8.34705 2.07495 9.16624 2.07495H10.8329C11.6521 2.07495 12.3501 2.59712 12.6049 3.3265C12.6428 3.43494 12.6612 3.56008 12.6688 3.71824C12.9906 3.77655 13.6919 3.91215 13.9233 3.988V3.93715C13.9233 3.65505 13.9137 3.28555 13.7858 2.9195C13.3619 1.70599 12.2008 0.833374 10.8329 0.833374H9.16624C7.79832 0.833374 6.63722 1.70599 6.2133 2.9195C6.08543 3.28555 6.07581 3.65505 6.07581 3.93715V3.98798C6.27014 3.92535 6.99311 3.78205 7.3303 3.71823C7.33791 3.56008 7.35635 3.43494 7.39423 3.3265Z" fill="#C8C8C8"/>
<path d="M17.5 12.064C16.75 12.3822 15.9845 12.6506 15.2085 12.8692V13.8699C15.2085 14.2127 14.9287 14.4907 14.5835 14.4907C14.2383 14.4907 13.9585 14.2127 13.9585 13.8699V13.1765C10.1438 13.9794 6.14023 13.6085 2.5 12.0638V13.3525C2.5 15.1055 3.72584 16.6234 5.44877 17.0037C8.44636 17.6653 11.5536 17.6653 14.5512 17.0037C16.2742 16.6234 17.5 15.1055 17.5 13.3525V12.064Z" fill="#C8C8C8"/>
</svg>
