<svg width="20" height="20" viewBox="0 0 20 20" fill="none" xmlns="http://www.w3.org/2000/svg">
<path d="M2.82132 11.0075C2.82132 12.0697 2.27859 12.9311 1.60918 12.9311C0.939768 12.9311 0.397705 12.0697 0.397705 11.0075C0.397705 9.94542 0.940435 9.08398 1.60985 9.08398C2.27926 9.08398 2.82199 9.94542 2.82199 11.0075H2.82132Z" fill="#C8C8C8"/>
<path d="M17.1642 11.0075C17.1642 12.0697 17.7069 12.9311 18.3763 12.9311C19.0457 12.9311 19.5885 12.0697 19.5885 11.0075C19.5885 9.94542 19.0457 9.08398 18.3763 9.08398C17.7069 9.08398 17.1642 9.94542 17.1642 11.0075Z" fill="#C8C8C8"/>
<path d="M17.6615 14.5492C16.8109 15.9605 14.0986 17.6306 9.99272 17.6306C5.88685 17.6306 3.17458 15.9605 2.32392 14.5492C1.89935 13.8448 1.51549 12.3942 1.54807 10.8197C1.58058 9.24921 2.02609 7.61319 3.19387 6.49807C5.4468 4.34736 8.74514 4.37739 9.82669 4.38724C9.8898 4.38781 9.94536 4.38832 9.99272 4.38832C10.0401 4.38832 10.0956 4.38781 10.1588 4.38724C11.2404 4.37739 14.5393 4.34736 16.7916 6.49805C17.9593 7.61316 18.4049 9.2492 18.4374 10.8197C18.47 12.3942 18.0861 13.8448 17.6615 14.5492Z" fill="white" stroke="#C8C8C8" stroke-width="0.5"/>
<path d="M13.2618 6.91553H6.63507C5.65263 6.91553 4.8562 7.71196 4.8562 8.6944V13.3196C4.8562 14.3021 5.65263 15.0985 6.63507 15.0985H13.2618C14.2443 15.0985 15.0407 14.3021 15.0407 13.3196V8.6944C15.0407 7.71196 14.2443 6.91553 13.2618 6.91553Z" fill="#C8C8C8"/>
<path d="M6.83499 7.24902H13.4618C14.2965 7.24902 14.9739 7.92644 14.9739 8.7612V13.3864C14.9739 14.2212 14.2965 14.8986 13.4618 14.8986H6.83499C6.00023 14.8986 5.32281 14.2212 5.32281 13.3864V8.7612C5.32281 7.92644 6.00023 7.24902 6.83499 7.24902Z" fill="#C8C8C8"/>
<path d="M8.85441 11.0076C8.85441 11.941 8.39636 12.6978 7.83162 12.6978C7.26689 12.6978 6.80884 11.941 6.80884 11.0076C6.80884 10.0741 7.26689 9.31738 7.83162 9.31738C8.39636 9.31738 8.85441 10.0741 8.85441 11.0076Z" fill="white"/>
<path d="M13.0883 11.0076C13.0883 11.941 12.6302 12.6978 12.0655 12.6978C11.5008 12.6978 11.0427 11.941 11.0427 11.0076C11.0427 10.0741 11.5008 9.31738 12.0655 9.31738C12.6302 9.31738 13.0883 10.0741 13.0883 11.0076Z" fill="white"/>
<path d="M9.40602 12.8128C9.40602 12.8128 9.98225 12.7561 10.5376 12.8128C10.5376 12.8128 10.6126 13.2994 10.0038 13.3431C9.29704 13.3933 9.40602 12.8128 9.40602 12.8128Z" fill="white"/>
<path d="M4.16031 11.514C4.06563 11.21 4.02563 10.8846 4.05097 10.5513" stroke="white" stroke-width="0.400047" stroke-linecap="round" stroke-linejoin="round"/>
<path d="M7.09924 2.83594L6.59918 4.69149C6.59918 4.69149 8.27138 5.61359 9.98291 5.61359C11.6944 5.61359 13.3666 4.69149 13.3666 4.69149L12.8666 2.83594H7.09924Z" fill="#C8C8C8"/>
<path d="M9.94324 1.75781L6.20947 2.41322V2.77993L9.94324 3.48201L13.677 2.77993V2.41322L9.94324 1.75781Z" fill="#C8C8C8"/>
<path d="M9.94324 1.39111L6.20947 2.41323L9.94324 3.11531L13.677 2.41323L9.94324 1.39111Z" fill="#C8C8C8"/>
<path d="M6.27049 2.7417C6.27049 2.7417 5.39372 4.39656 4.57629 5.11731" stroke="#C8C8C8" stroke-width="0.2" stroke-miterlimit="10"/>
<path d="M3.68817 5.45226C3.68817 5.45226 4.54894 4.37547 5.03833 4.68617C5.52772 4.99688 4.39559 6.065 4.39559 6.065L3.68817 5.45226Z" fill="#C8C8C8"/>
</svg>
