<svg width="18" height="18" viewBox="0 0 18 18" fill="none" xmlns="http://www.w3.org/2000/svg">
<path id="Vector" fill-rule="evenodd" clip-rule="evenodd" d="M17.3332 8.99935C17.3332 13.6017 13.6022 17.3327 8.99984 17.3327C4.39746 17.3327 0.666504 13.6017 0.666504 8.99935C0.666504 4.39698 4.39746 0.666016 8.99984 0.666016C13.6022 0.666016 17.3332 4.39698 17.3332 8.99935ZM12.3584 6.47407C12.6025 6.71815 12.6025 7.11388 12.3584 7.35796L8.19178 11.5246C7.9477 11.7687 7.55197 11.7687 7.3079 11.5246L5.64123 9.85796C5.39715 9.61388 5.39715 9.21815 5.64123 8.97407C5.88531 8.73 6.28103 8.73 6.52511 8.97407L7.74984 10.1988L9.6122 8.33644L11.4746 6.47407C11.7186 6.23 12.1144 6.23 12.3584 6.47407Z" fill="#0078B8"/>
</svg>
