<svg width="16" height="16" viewBox="0 0 16 16" fill="none" xmlns="http://www.w3.org/2000/svg">
<path d="M7.9502 14.85C4.4627 14.85 0.700195 12.6625 0.700195 7.8625C0.700195 3.0625 4.4627 0.875 7.9502 0.875C9.8877 0.875 11.6752 1.5125 13.0002 2.675C14.4377 3.95 15.2002 5.75 15.2002 7.8625C15.2002 9.975 14.4377 11.7625 13.0002 13.0375C11.6752 14.2 9.8752 14.85 7.9502 14.85Z" fill="url(#paint0_radial_1982_39096)"/>
<path d="M3.14395 8.82101C3.3552 9.29226 3.63395 9.73226 3.9702 10.1248C4.3027 10.5123 4.68895 10.8485 5.1177 11.1248C5.54395 11.4023 6.00645 11.6185 6.4927 11.766C7.4727 12.0523 8.5127 12.0523 9.4927 11.766C9.97895 11.6185 10.4415 11.4023 10.8677 11.1248C11.3015 10.8498 11.694 10.5123 12.0302 10.1248C12.3665 9.73351 12.644 9.29726 12.8565 8.82726C12.9315 8.69101 13.1015 8.64101 13.2377 8.71601C13.3502 8.77851 13.4077 8.9085 13.3752 9.0335C13.174 9.5735 12.8902 10.0798 12.5352 10.5335C11.4402 11.9235 9.76895 12.7348 8.0002 12.7348C6.2302 12.7335 4.55895 11.9223 3.4652 10.531C3.1102 10.0773 2.82645 9.57101 2.6252 9.03101C2.56645 8.88851 2.63395 8.72351 2.77645 8.66476C2.91895 8.60601 3.08395 8.67351 3.1427 8.81601L3.14395 8.82101Z" fill="#422B0D"/>
<path d="M13.9365 3.70898C14.6027 4.78398 14.9502 6.06398 14.9502 7.48773C14.9502 9.60023 14.1877 11.3877 12.7502 12.6627C11.4252 13.8252 9.62523 14.4752 7.70023 14.4752C5.44273 14.4752 3.07523 13.5565 1.67773 11.6077C3.02273 13.8152 5.55273 14.8502 7.95023 14.8502C9.87523 14.8502 11.6752 14.2002 13.0002 13.0377C14.4377 11.7627 15.2002 9.97523 15.2002 7.86273C15.2002 6.27023 14.7665 4.85523 13.9365 3.70898Z" fill="#E38A00"/>
<path d="M6.26913 7.01223L6.25038 6.98473L6.22413 6.95098C6.21413 6.93723 6.20413 6.92598 6.19163 6.91473L6.11413 6.83723C6.08288 6.80598 6.04538 6.77223 6.00663 6.73848C5.92413 6.66723 5.83163 6.60973 5.73163 6.56473C5.63413 6.52098 5.52788 6.49973 5.42163 6.49973H5.37538C5.36288 6.49723 5.35163 6.49723 5.33913 6.49973C5.31663 6.50223 5.29413 6.50598 5.27163 6.51098C5.21913 6.52348 5.16913 6.53973 5.11913 6.55973C5.01913 6.60473 4.92663 6.66223 4.84413 6.73348C4.77663 6.79098 4.71413 6.85223 4.65538 6.91723L4.58413 6.99723L4.54663 7.03973C4.39788 7.21473 4.13538 7.23723 3.96038 7.08848C3.82663 6.97473 3.77788 6.78973 3.83913 6.62473L3.85288 6.58473C3.86538 6.54598 3.88038 6.50848 3.89663 6.47098C3.95663 6.33473 4.03288 6.20723 4.12538 6.09098C4.34413 5.80223 4.65163 5.59223 5.00038 5.49223C5.07163 5.47348 5.14413 5.45973 5.21788 5.44973C5.25538 5.44973 5.31038 5.43848 5.32663 5.43848H5.42163C5.56413 5.44098 5.70538 5.46098 5.84288 5.49723C5.97413 5.53348 6.10038 5.58598 6.21788 5.65348C6.41163 5.76598 6.58163 5.91723 6.71788 6.09598C6.77038 6.16348 6.81788 6.23348 6.85913 6.30848C6.89288 6.36723 6.92288 6.42723 6.94913 6.48848C6.95913 6.50848 6.96788 6.52973 6.97413 6.55098C6.97413 6.56723 6.98413 6.58098 6.98788 6.59223L7.00038 6.62473C7.07163 6.84598 6.95038 7.08348 6.72913 7.15473C6.56163 7.20723 6.37788 7.14973 6.26913 7.01223Z" fill="#422B0D"/>
<path d="M11.6854 7.01234L11.6629 6.98484L11.6367 6.95109C11.6267 6.93734 11.6167 6.92609 11.6042 6.91484L11.5267 6.83734C11.4954 6.80609 11.4579 6.77234 11.4192 6.73859C11.3367 6.66734 11.2442 6.60984 11.1442 6.56484C11.0479 6.52234 10.9429 6.49984 10.8379 6.49984H10.7867C10.7742 6.49734 10.7629 6.49734 10.7504 6.49984C10.7279 6.50234 10.7054 6.50609 10.6829 6.51109C10.6304 6.52359 10.5804 6.53984 10.5304 6.55984C10.4292 6.60609 10.3342 6.66609 10.2504 6.73859C10.1829 6.79609 10.1204 6.85734 10.0604 6.92234L10.0004 6.99984L9.96291 7.04234C9.82291 7.22484 9.56166 7.25859 9.37916 7.11734C9.22916 7.00234 9.17541 6.79984 9.25041 6.62484L9.26416 6.58484C9.27666 6.54609 9.29166 6.50859 9.30791 6.47109C9.36666 6.33359 9.44416 6.20484 9.53541 6.08609C9.75416 5.79734 10.0617 5.58734 10.4104 5.48734C10.4817 5.46859 10.5542 5.45484 10.6279 5.44484C10.6654 5.44484 10.7192 5.43359 10.7367 5.43359H10.8317C10.9742 5.43609 11.1154 5.45609 11.2529 5.49234C11.3842 5.52859 11.5104 5.58109 11.6279 5.64859C11.8217 5.76109 11.9917 5.91234 12.1279 6.09109C12.1804 6.15859 12.2279 6.22859 12.2692 6.30359C12.3029 6.36234 12.3329 6.42234 12.3592 6.48359C12.3692 6.50359 12.3779 6.52484 12.3842 6.54609L12.3979 6.58734L12.4092 6.62109C12.4804 6.84234 12.3592 7.07859 12.1379 7.14984C11.9717 7.20359 11.7904 7.14859 11.6817 7.01234H11.6854Z" fill="#422B0D"/>
<path d="M10.1914 11.5095C10.3014 11.4582 10.4102 11.4032 10.5164 11.3457C10.4102 11.4032 10.3014 11.4582 10.1914 11.5095Z" fill="#FF4081"/>
<path d="M10.8338 11.1589C10.7301 11.2239 10.6251 11.2839 10.5176 11.3439C10.6426 11.2764 10.7676 11.2052 10.8826 11.1289L10.8338 11.1589Z" fill="#FF4081"/>
<path d="M9.25 11.8348C9.33375 11.8148 9.4175 11.7936 9.5 11.7686C9.42 11.7948 9.33625 11.8136 9.25 11.8348Z" fill="#FF4081"/>
<path d="M11.77 10.4016C11.8588 10.3104 11.9463 10.2166 12.03 10.1191C11.9463 10.2166 11.8588 10.3104 11.77 10.4016Z" fill="#FF4081"/>
<path d="M9.854 11.6514C9.96525 11.6089 10.0753 11.5627 10.184 11.5127C10.0753 11.5627 9.96525 11.6089 9.854 11.6514Z" fill="#FF4081"/>
<path d="M9.5 11.7703C9.61625 11.7365 9.72875 11.6978 9.84125 11.6553C9.73125 11.6978 9.625 11.7365 9.5 11.7703Z" fill="#FF4081"/>
<path d="M11.5264 10.6377C11.4502 10.7052 11.3714 10.7702 11.2902 10.8314C11.2502 10.8639 11.2089 10.8939 11.1652 10.9252C11.0714 10.9964 10.9764 11.0652 10.8789 11.1289C11.0039 11.0502 11.1164 10.9652 11.2314 10.8789C11.3464 10.7927 11.4327 10.7214 11.5264 10.6377Z" fill="#FF4081"/>
<path opacity="0.3" d="M11.7701 10.4014C11.7614 10.4101 11.7539 10.4189 11.7451 10.4264C11.6751 10.5001 11.6014 10.5701 11.5264 10.6376C11.6051 10.5676 11.6814 10.4951 11.7539 10.4189L11.7701 10.4014Z" fill="#AB3F2E"/>
<path d="M8.54395 11.9551L9.0077 12.4476L9.0527 12.4938L8.54395 11.9551Z" fill="#FF4081"/>
<path opacity="0.3" d="M9.05273 12.4941L9.16398 12.6141L9.16523 12.6129V12.6116L9.05273 12.4941Z" fill="#AB3F2E"/>
<path d="M13.7026 11.1392L12.8276 10.2242L12.7926 10.1879L12.4576 9.83793L12.3588 9.73418L12.3463 9.72168C12.2476 9.86168 12.1426 9.99668 12.0301 10.1254C11.6976 10.5129 11.3113 10.8492 10.8826 11.1254C10.4563 11.4029 9.99383 11.6192 9.50758 11.7667C9.19508 11.8592 8.87383 11.9204 8.54883 11.9517L9.05258 12.5004L9.16508 12.6179L9.25508 12.7117L9.30633 12.7654L10.5988 14.1154C11.3476 14.8979 12.5888 14.9254 13.3713 14.1767L13.6413 13.9179C14.4251 13.1692 14.4551 11.9279 13.7063 11.1429C13.7051 11.1417 13.7038 11.1404 13.7026 11.1392Z" fill="#FF4081"/>
<path d="M11.9591 12.0789L10.9829 11.0576C10.9491 11.0814 10.9166 11.1064 10.8829 11.1289C10.7791 11.1951 10.6741 11.2539 10.5679 11.3176L11.6129 12.4101C11.6566 12.4564 11.7166 12.4826 11.7804 12.4839C11.8441 12.4864 11.9054 12.4626 11.9516 12.4176C12.0466 12.3276 12.0516 12.1776 11.9616 12.0814C11.9616 12.0814 11.9604 12.0801 11.9591 12.0789Z" fill="#E62B6B"/>
<path opacity="0.3" d="M12.4513 9.83305L12.3526 9.7293L12.3401 9.7168C12.2438 9.85805 12.1401 9.9943 12.0301 10.1255C11.6976 10.513 11.3113 10.8493 10.8826 11.1255C10.4563 11.403 9.99383 11.6193 9.50758 11.7668C9.19508 11.8593 8.87383 11.9205 8.54883 11.9518L9.05258 12.5005L9.16508 12.618C11.4913 11.7743 12.2976 10.2143 12.4513 9.83305Z" fill="#AB3F2E"/>
<defs>
<radialGradient id="paint0_radial_1982_39096" cx="0" cy="0" r="1" gradientUnits="userSpaceOnUse" gradientTransform="translate(7.9502 7.8625) scale(7.11996)">
<stop stop-color="#FFDE1E"/>
<stop offset="0.53" stop-color="#FFDD16"/>
<stop offset="0.795" stop-color="#FEC114"/>
<stop offset="0.955" stop-color="#FEA311"/>
<stop offset="1" stop-color="#F49400"/>
</radialGradient>
</defs>
</svg>
