<svg width="16" height="16" viewBox="0 0 16 16" fill="none" xmlns="http://www.w3.org/2000/svg">
<path d="M7.9502 14.85C4.4627 14.85 0.700195 12.6625 0.700195 7.8625C0.700195 3.0625 4.4627 0.875 7.9502 0.875C9.8877 0.875 11.6752 1.5125 13.0002 2.675C14.4377 3.95 15.2002 5.75 15.2002 7.8625C15.2002 9.975 14.4377 11.7625 13.0002 13.0375C11.6752 14.2 9.8752 14.85 7.9502 14.85Z" fill="url(#paint0_radial_1982_39135)"/>
<path d="M13.9365 3.70898C14.6027 4.78398 14.9502 6.06398 14.9502 7.48773C14.9502 9.60023 14.1877 11.3877 12.7502 12.6627C11.4252 13.8252 9.62523 14.4752 7.70023 14.4752C5.44273 14.4752 3.07523 13.5565 1.67773 11.6077C3.02273 13.8152 5.55273 14.8502 7.95023 14.8502C9.87523 14.8502 11.6752 14.2002 13.0002 13.0377C14.4377 11.7627 15.2002 9.97523 15.2002 7.86273C15.2002 6.27023 14.7665 4.85523 13.9365 3.70898Z" fill="#E38A00"/>
<path d="M8.075 10.7003C8.55125 10.7015 9.02625 10.6765 9.5 10.6253C9.50625 9.79651 8.83875 9.12026 8.01 9.11526C7.18125 9.11026 6.50625 9.77526 6.5 10.604C7.0225 10.669 7.54875 10.7015 8.075 10.7003Z" fill="white"/>
<path d="M6.5 10.6045C6.5 10.637 6.5 10.6682 6.5 10.7007V12.1757C6.5 13.0045 7.17125 13.6757 8 13.6757C8.82875 13.6757 9.5 13.0045 9.5 12.1757V10.7007C9.5 10.6745 9.5 10.6482 9.5 10.622C9.0275 10.6745 8.55375 10.7007 8.07875 10.7007C7.55125 10.702 7.02375 10.6695 6.5 10.6045Z" fill="#422B0D"/>
<path d="M10.4628 5.0752C10.9378 5.0752 11.3753 5.6252 11.3753 6.5502C11.3753 7.4752 10.9378 8.0252 10.4628 8.0252C9.98779 8.0252 9.55029 7.4752 9.55029 6.5502C9.55029 5.6252 9.97529 5.0752 10.4628 5.0752Z" fill="#422B0D"/>
<path d="M5.5377 5.0752C5.0252 5.0752 4.5752 5.6252 4.5752 6.5502C4.5752 7.4752 5.0377 8.0252 5.5377 8.0252C6.0377 8.0252 6.5002 7.4752 6.5002 6.5502C6.5002 5.6252 6.0377 5.0752 5.5377 5.0752Z" fill="#422B0D"/>
<path d="M5.7 3.61264C5.9875 3.63764 6.1 3.25014 5.8 3.16264C5.56375 3.09889 5.31875 3.07389 5.075 3.08764C4.41375 3.11264 3.7875 3.39014 3.325 3.86264C3.1125 4.08764 3.4125 4.36264 3.6375 4.20014C4.24 3.77889 4.96625 3.57139 5.7 3.61264Z" fill="#422B0D"/>
<path d="M10.2752 3.61264C11.0127 3.57014 11.7439 3.77639 12.3502 4.20014C12.5752 4.36264 12.8752 4.08764 12.6627 3.86264C12.1989 3.39264 11.5727 3.11514 10.9127 3.08764C10.6689 3.07389 10.4239 3.09889 10.1877 3.16264C10.0652 3.19764 9.99393 3.32389 10.0289 3.44639C10.0589 3.55514 10.1639 3.62514 10.2752 3.61264Z" fill="#422B0D"/>
<path d="M5.5348 5.60925C5.3573 5.52425 5.14355 5.59925 5.0573 5.77675C4.99105 5.9155 5.02105 6.08175 5.1323 6.18925C5.3098 6.27425 5.52355 6.19925 5.6098 6.02175C5.67605 5.883 5.64605 5.71675 5.5348 5.60925Z" fill="#896024"/>
<path d="M10.4136 5.60918C10.2348 5.52543 10.0223 5.60169 9.9373 5.78044C9.8723 5.91919 9.9023 6.08293 10.0123 6.18918C10.1911 6.27293 10.4036 6.19669 10.4886 6.01794C10.5536 5.88043 10.5236 5.71543 10.4136 5.60918Z" fill="#896024"/>
<path d="M9.50002 10.7006C9.42752 10.3331 9.23502 9.99937 8.95377 9.75062C8.40752 9.27437 7.59252 9.27437 7.04627 9.75062C6.76502 9.99937 6.57377 10.3331 6.50002 10.7006C6.43002 10.2819 6.55502 9.85437 6.83877 9.53937C7.40002 8.89812 8.37627 8.83312 9.01752 9.39562C9.06877 9.44062 9.11627 9.48812 9.16127 9.53937C9.30252 9.69937 9.40627 9.88812 9.46627 10.0931C9.52377 10.2906 9.53502 10.4981 9.50002 10.7006Z" fill="#E38A00"/>
<defs>
<radialGradient id="paint0_radial_1982_39135" cx="0" cy="0" r="1" gradientUnits="userSpaceOnUse" gradientTransform="translate(7.9502 7.8625) scale(7.11996)">
<stop stop-color="#FFDE1E"/>
<stop offset="0.53" stop-color="#FFDD16"/>
<stop offset="0.795" stop-color="#FEC114"/>
<stop offset="0.955" stop-color="#FEA311"/>
<stop offset="1" stop-color="#F49400"/>
</radialGradient>
</defs>
</svg>
