<svg width="16" height="16" viewBox="0 0 16 16" fill="none" xmlns="http://www.w3.org/2000/svg">
<path fill-rule="evenodd" clip-rule="evenodd" d="M5 7.5C5 7.22386 5.22386 7 5.5 7H10.5C10.7761 7 11 7.22386 11 7.5C11 7.77614 10.7761 8 10.5 8H5.5C5.22386 8 5 7.77614 5 7.5Z" fill="#555555"/>
<path fill-rule="evenodd" clip-rule="evenodd" d="M5 9.5C5 9.22386 5.22386 9 5.5 9H10.5C10.7761 9 11 9.22386 11 9.5C11 9.77614 10.7761 10 10.5 10H5.5C5.22386 10 5 9.77614 5 9.5Z" fill="#555555"/>
<path fill-rule="evenodd" clip-rule="evenodd" d="M5 11.5C5 11.2239 5.22386 11 5.5 11H10.5C10.7761 11 11 11.2239 11 11.5C11 11.7761 10.7761 12 10.5 12H5.5C5.22386 12 5 11.7761 5 11.5Z" fill="#555555"/>
<path fill-rule="evenodd" clip-rule="evenodd" d="M2.29289 2.29289C2.48043 2.10536 2.73478 2 3 2H13C13.2652 2 13.5196 2.10536 13.7071 2.29289C13.8946 2.48043 14 2.73478 14 3V13C14 13.5304 13.7893 14.0391 13.4142 14.4142C13.0391 14.7893 12.5304 15 12 15H4C3.46957 15 2.96086 14.7893 2.58579 14.4142C2.21071 14.0391 2 13.5304 2 13V3C2 2.73478 2.10536 2.48043 2.29289 2.29289ZM13 3H3L3 13C3 13.2652 3.10536 13.5196 3.29289 13.7071C3.48043 13.8946 3.73478 14 4 14H12C12.2652 14 12.5196 13.8946 12.7071 13.7071C12.8946 13.5196 13 13.2652 13 13V3Z" fill="#555555"/>
<path fill-rule="evenodd" clip-rule="evenodd" d="M5 1C5.27614 1 5.5 1.22386 5.5 1.5V3.5C5.5 3.77614 5.27614 4 5 4C4.72386 4 4.5 3.77614 4.5 3.5V1.5C4.5 1.22386 4.72386 1 5 1Z" fill="#555555"/>
<path fill-rule="evenodd" clip-rule="evenodd" d="M8 1C8.27614 1 8.5 1.22386 8.5 1.5V3.5C8.5 3.77614 8.27614 4 8 4C7.72386 4 7.5 3.77614 7.5 3.5V1.5C7.5 1.22386 7.72386 1 8 1Z" fill="#555555"/>
<path fill-rule="evenodd" clip-rule="evenodd" d="M11 1C11.2761 1 11.5 1.22386 11.5 1.5V3.5C11.5 3.77614 11.2761 4 11 4C10.7239 4 10.5 3.77614 10.5 3.5V1.5C10.5 1.22386 10.7239 1 11 1Z" fill="#555555"/>
<path d="M3 3H13V5H3L3 3Z" fill="#555555"/>
</svg>
