<svg width="16" height="16" viewBox="0 0 16 16" fill="none" xmlns="http://www.w3.org/2000/svg">
<path fill-rule="evenodd" clip-rule="evenodd" d="M10.6138 0.784624C10.7361 0.733407 10.8674 0.707031 11 0.707031C11.1327 0.707031 11.2639 0.733407 11.3863 0.784624C11.5079 0.835541 11.6182 0.909999 11.7109 1.00371L14.4963 3.78907C14.59 3.88178 14.6644 3.99212 14.7154 4.11373C14.7666 4.23605 14.793 4.36733 14.793 4.49995C14.793 4.63256 14.7666 4.76384 14.7154 4.88616C14.6645 5.00776 14.59 5.11809 14.4963 5.2108L7.8536 11.8535C7.81186 11.8952 7.76307 11.9293 7.70948 11.954L5.85323 12.8102C5.66305 12.8979 5.43834 12.8578 5.29024 12.7098L2.79024 10.2097C2.64215 10.0617 2.60204 9.83695 2.68977 9.64676L3.54602 7.79052C3.57074 7.73692 3.60476 7.68813 3.64649 7.6464L10.2891 1.00375C10.3819 0.910024 10.4922 0.83555 10.6138 0.784624ZM13.7902 4.49725L11 1.70704L10.9974 1.70976L4.41669 8.29041L3.74382 9.74911L5.75088 11.7562L7.20958 11.0833L13.7929 4.49993L13.7902 4.49725Z" fill="#555555"/>
<path fill-rule="evenodd" clip-rule="evenodd" d="M3.67776 7.6777C3.87302 7.48243 4.1896 7.48243 4.38486 7.6777L7.82236 11.1152C8.01762 11.3105 8.01762 11.627 7.82236 11.8223C7.6271 12.0176 7.31052 12.0176 7.11526 11.8223L3.67776 8.3848C3.48249 8.18954 3.48249 7.87296 3.67776 7.6777Z" fill="#555555"/>
<path fill-rule="evenodd" clip-rule="evenodd" d="M0.473302 13.1886C0.397098 12.9993 0.443553 12.7827 0.590678 12.6413L3.03346 10.2939C3.23257 10.1026 3.54909 10.1089 3.74043 10.308C3.93176 10.5071 3.92546 10.8236 3.72635 11.015L2.17905 12.5018H3.66242L4.49341 11.6709C4.68868 11.4757 5.00526 11.4757 5.20052 11.671C5.39577 11.8662 5.39576 12.1828 5.20049 12.3781L4.22305 13.3554C4.12928 13.4492 4.00211 13.5018 3.86951 13.5018H0.937123C0.733079 13.5018 0.549506 13.3779 0.473302 13.1886Z" fill="#555555"/>
<path fill-rule="evenodd" clip-rule="evenodd" d="M0.435059 13H14.4351V14.5H0.435059V13Z" fill="#555555"/>
</svg>
