<svg width="16" height="17" viewBox="0 0 16 17" fill="none" xmlns="http://www.w3.org/2000/svg">
<rect width="16" height="16" transform="translate(0 0.5)" fill="white"/>
<path fill-rule="evenodd" clip-rule="evenodd" d="M6.56988 2.0146C7.3914 1.67173 8.27348 1.49976 9.21766 1.49976C10.1618 1.49976 11.0439 1.67173 11.8654 2.0146C12.6902 2.35884 13.4061 2.823 14.0147 3.40669C14.6231 3.99034 15.1064 4.67639 15.4646 5.46607C15.8213 6.25226 16 7.09602 16 7.99912C16 9.80479 15.3431 11.3357 14.0243 12.6008C12.7052 13.866 11.106 14.4985 9.21766 14.4985C8.28587 14.4985 7.41628 14.3325 6.6074 14.0017C5.84761 13.691 5.17446 13.2724 4.58693 12.7461L5.46351 11.9052C5.94051 12.3281 6.48555 12.6657 7.09763 12.9182C7.7594 13.1911 8.46656 13.3271 9.21766 13.3271C10.7463 13.3271 12.0562 12.8073 13.1387 11.769C14.2214 10.7305 14.7658 9.47107 14.7658 7.99912C14.7658 6.52716 14.2214 5.26775 13.1387 4.22923C12.0562 3.19092 10.7463 2.67112 9.21766 2.67112C7.68905 2.67112 6.37913 3.19092 5.29666 4.22923C4.21398 5.26775 3.66958 6.52716 3.66958 7.99912V8.48848L5.23048 6.99126L6.10491 7.8153L3.05245 10.7432L0 7.8153L0.873702 6.99194L2.43533 8.51038V7.99912C2.43533 7.09602 2.61407 6.25226 2.97071 5.46607C3.32892 4.67639 3.8122 3.99034 4.42067 3.40669C5.02919 2.823 5.74508 2.35884 6.56988 2.0146Z" fill="#555555"/>
</svg>
