<svg width="15" height="15" viewBox="0 0 15 15" fill="none" xmlns="http://www.w3.org/2000/svg">
<path d="M7.91016 14.668C4.04297 14.668 0.878906 11.5215 0.878906 7.63672C0.878906 3.75195 4.04297 0.605469 7.91016 0.605469C11.7949 0.605469 14.959 3.75195 14.959 7.63672C14.959 11.5215 11.7949 14.668 7.91016 14.668ZM7.89258 10.8008C9.29883 10.8008 10.3184 10.0449 10.3184 8.99023C10.3184 8.2168 9.80859 7.67188 8.89453 7.56641V7.51367C9.59766 7.4082 10.0723 6.91602 10.0723 6.21289C10.0723 5.24609 9.21094 4.47266 7.91016 4.47266C6.62695 4.47266 5.66016 5.22852 5.64258 6.30078H6.94336C6.94336 5.84375 7.38281 5.54492 7.91016 5.54492C8.4375 5.54492 8.78906 5.84375 8.77148 6.30078C8.78906 6.75781 8.36719 7.0918 7.78711 7.0918H7.20703V8.07617H7.78711C8.47266 8.07617 8.91211 8.41016 8.91211 8.90234C8.91211 9.35938 8.49023 9.69336 7.89258 9.69336C7.33008 9.69336 6.89062 9.39453 6.89062 8.95508H5.53711C5.53711 10.0449 6.52148 10.8008 7.89258 10.8008Z" fill="black"/>
</svg>
