<svg width="100" height="100" viewBox="0 0 100 100" fill="none" xmlns="http://www.w3.org/2000/svg">
<path d="M95.523 96.1247H85.196C84.386 96.1247 83.7207 95.4594 83.7207 94.6494V83.9753C83.7207 83.1653 84.386 82.5 85.196 82.5H95.523C96.3329 82.5 96.9982 83.1653 96.9982 83.9753V94.6494C96.9982 95.4594 96.3329 96.1247 95.523 96.1247Z" fill="#C7DAE3"/>
<path d="M95.0311 95.6329H85.1091C84.3281 95.6329 83.6917 94.9965 83.6917 94.2155V83.9174C83.6917 83.1364 84.3281 82.5 85.1091 82.5H95.0311C95.8121 82.5 96.4485 83.1364 96.4485 83.9174V94.2155C96.4485 94.9965 95.8121 95.6329 95.0311 95.6329Z" fill="#E0EEF5"/>
<path d="M90.1714 93.3476C92.4719 93.3476 94.3369 91.4826 94.3369 89.1821C94.3369 86.8816 92.4719 85.0166 90.1714 85.0166C87.8708 85.0166 86.0059 86.8816 86.0059 89.1821C86.0059 91.4826 87.8708 93.3476 90.1714 93.3476Z" fill="#C7DAE3"/>
<path d="M89.9138 93.3476C92.0721 93.3476 93.8217 91.4826 93.8217 89.1821C93.8217 86.8816 92.0721 85.0166 89.9138 85.0166C87.7555 85.0166 86.0059 86.8816 86.0059 89.1821C86.0059 91.4826 87.7555 93.3476 89.9138 93.3476Z" fill="white"/>
<path d="M88.5225 91.0627C88.3779 91.0627 88.2622 90.9469 88.2622 90.8023V87.5914C88.2622 87.4468 88.3779 87.3311 88.5225 87.3311C88.6672 87.3311 88.7829 87.4468 88.7829 87.5914V90.8023C88.7829 90.9469 88.6672 91.0627 88.5225 91.0627Z" fill="#3C3C68"/>
<path d="M91.5308 91.0627C91.3862 91.0627 91.2705 90.9469 91.2705 90.8023V87.5914C91.2705 87.4468 91.3862 87.3311 91.5308 87.3311C91.6755 87.3311 91.7912 87.4468 91.7912 87.5914V90.8023C91.7912 90.9469 91.6755 91.0627 91.5308 91.0627Z" fill="#3C3C68"/>
<path d="M65.2762 63.7815C65.4998 63.7496 65.7235 63.7496 65.9471 63.7496C69.5575 63.7496 71.5384 65.9861 73.3277 68.0309C73.9347 68.7019 74.4779 69.3409 75.0849 69.8521C77.3854 71.801 79.8136 72.1844 79.8455 72.1844C80.197 72.2164 80.4526 72.5679 80.3887 72.9193C80.3567 73.2708 80.0053 73.5264 79.6538 73.4625C79.526 73.4625 76.8102 73.0471 74.2223 70.8425C73.5513 70.2674 72.9762 69.5965 72.3372 68.8936C70.5799 66.8807 68.7588 64.8359 65.372 65.0915C60.8351 65.4429 57.7359 67.0405 52.3363 75.2197L51.25 74.4849C56.9372 65.8263 60.3239 64.133 65.2762 63.7815Z" fill="#3C3C68"/>
<path d="M84.5425 75.6678L87.2263 77.9362C87.5139 78.1599 87.8973 78.1279 88.1209 77.8404C88.3126 77.5848 88.2807 77.2333 88.0251 77.0097L85.3093 74.6134L84.5425 75.6678Z" fill="#3C3C68"/>
<path d="M82.8809 77.5848L85.5647 79.8532C85.8522 80.0769 86.2356 80.0449 86.4593 79.7574C86.651 79.5018 86.619 79.1503 86.3634 78.9267L83.6477 76.5304L82.8809 77.5848Z" fill="#3C3C68"/>
<path d="M86.4274 74.4847C86.4274 74.4847 85.3731 73.2386 83.7436 71.8009C82.1141 70.3951 80.0054 70.6507 79.0469 71.737C78.983 71.8009 78.951 71.8648 78.8871 71.9287C78.0564 73.0789 78.0245 74.6445 79.2705 75.7627C80.5805 76.9768 82.7531 78.7021 82.7531 78.7021L85.3731 75.6669L86.4274 74.4847Z" fill="#E0EEF5"/>
<path d="M86.4275 74.4848C86.4275 74.4848 85.3731 73.2388 83.7437 71.801C82.1142 70.3952 80.0055 70.6508 79.047 71.7371C78.9831 71.801 78.9511 71.8649 78.8872 71.9288C79.654 71.9288 80.964 72.0886 82.1461 72.8873C83.1366 73.5583 84.4146 74.7404 85.3412 75.667L86.4275 74.4848Z" fill="#C7DAE3"/>
<path d="M31.1782 58.6621C31.1782 58.6621 28.7036 62.5098 28.1537 66.9071C27.6038 71.3045 26.5177 77.043 29.1628 78.725C32.1872 80.6489 38.0382 79.4753 37.0896 73.6406C36.2648 68.5561 36.4023 59.4866 36.4023 59.4866L31.1782 58.6621Z" fill="url(#paint0_radial_2083_13891)"/>
<path d="M31.1781 58.6621C31.1781 58.6621 30.7656 59.3025 30.2405 60.3633C30.378 64.7524 31.2551 76.268 36.5919 78.3045C37.1665 77.1722 37.4085 75.6112 37.0895 73.6433C36.2647 68.5589 36.4022 59.4894 36.4022 59.4894L31.1781 58.6649V58.6621Z" fill="#C1E2F3" fill-opacity="0.16"/>
<path d="M33.6525 84.0842C33.6525 84.0842 31.5519 83.1635 30.5813 80.6488C29.8032 78.6315 29.806 78.7222 29.9847 78.222C30.2294 77.7575 32.2585 75.229 34.8871 75.5204C37.5789 75.5588 39.6548 80.1678 38.0325 81.5777C37.5431 82.1631 36.5808 81.8883 36.1299 81.0583C35.5937 79.2004 34.9311 79.5989 34.3702 80.1981C34.3812 81.0638 34.8376 81.4733 35.3435 81.7069C35.8494 81.9405 37.5899 81.935 37.6559 82.427C37.8291 83.6912 37.2572 85.8349 33.6471 84.087L33.6525 84.0842Z" fill="#0078B8"/>
<path d="M68.6363 58.6621C68.6363 58.6621 71.1108 62.5098 71.6608 66.9071C72.2107 71.3045 73.2967 77.043 70.6517 78.725C67.6272 80.6489 61.7762 79.4753 62.7248 73.6406C63.5497 68.5561 63.4122 59.4866 63.4122 59.4866L68.6363 58.6621Z" fill="url(#paint1_radial_2083_13891)"/>
<path d="M68.6361 58.6621C68.6361 58.6621 69.0486 59.3025 69.5737 60.3633C69.4363 64.7524 68.5592 76.268 63.2223 78.3045C62.6477 77.1722 62.4057 75.6111 62.7247 73.6433C63.5495 68.5589 63.4121 59.4894 63.4121 59.4894L68.6361 58.6649V58.6621Z" fill="#C1E2F3" fill-opacity="0.16"/>
<path d="M66.1617 84.0842C66.1617 84.0842 68.2623 83.1635 69.2329 80.6488C70.011 78.6315 70.0082 78.7222 69.8295 78.222C69.5848 77.7575 67.5557 75.229 64.9271 75.5204C62.2353 75.5588 60.1595 80.1678 61.7817 81.5777C62.2711 82.1631 63.2334 81.8883 63.6843 81.0583C64.2205 79.2004 64.8831 79.5989 65.444 80.1981C65.433 81.0638 64.9766 81.4733 64.4707 81.7069C63.9648 81.9405 62.2243 81.935 62.1584 82.427C61.9851 83.6912 62.557 85.8349 66.1672 84.087L66.1617 84.0842Z" fill="#0078B8"/>
<path d="M62.5035 77.2241C62.5035 77.2241 62.4238 83.5205 61.1095 88.4126C61.071 88.5555 61.0298 88.6984 60.9913 88.8413C60.9445 89.0035 60.895 89.1629 60.8455 89.3223C60.8015 89.4625 60.7548 89.6026 60.7081 89.74C60.6201 90.0094 60.5238 90.2732 60.4194 90.5261C60.4084 90.5563 60.3974 90.5865 60.3836 90.6168C60.3369 90.7322 60.2874 90.8421 60.2406 90.9548C60.1307 91.2104 60.0124 91.4523 59.8859 91.6831C59.6715 92.0899 59.435 92.4554 59.1821 92.7715C59.1271 92.8374 59.0721 92.9006 59.0171 92.9638C58.9786 93.0078 58.9374 93.0546 58.8961 93.0958L58.8439 93.148C58.7861 93.2085 58.7284 93.2634 58.6679 93.3156C58.6074 93.3679 58.5469 93.4201 58.4864 93.4668H58.4837C58.4205 93.5163 58.36 93.563 58.2967 93.6042C58.2335 93.6482 58.1675 93.6867 58.1015 93.7251C57.9778 93.7938 57.8513 93.8626 57.7248 93.9258C57.6616 93.956 57.5956 93.989 57.5296 94.0192C57.4664 94.0494 57.4004 94.0769 57.3344 94.1072C56.7982 94.3463 56.2428 94.5167 55.6902 94.5909C55.6214 94.5991 55.5555 94.6101 55.4895 94.6184C55.4675 94.6184 55.4427 94.6239 55.4207 94.6239C53.6115 94.775 51.8546 93.8763 50.7658 90.974C50.4001 89.9984 50.1994 89.1024 50.0977 88.1323C49.8914 86.1892 50.0702 83.9465 50.0702 80.1566C50.0702 72.6206 62.5035 77.2241 62.5035 77.2241Z" fill="url(#paint2_radial_2083_13891)"/>
<path d="M62.5034 77.2244C62.5034 77.2244 61.8683 81.5366 53.0698 82.7046C51.0764 83.2543 50.7437 88.4871 50.8785 91.2629C50.8372 91.1668 50.8015 91.0733 50.7657 90.9744C49.6659 88.0419 50.0701 85.8405 50.0701 80.1596C50.0701 72.6209 62.5034 77.2272 62.5034 77.2272V77.2244Z" fill="#C1E2F3" fill-opacity="0.16"/>
<path d="M61.1095 88.4122C61.071 88.5551 61.0298 88.698 60.9913 88.8409C60.9445 89.003 60.895 89.1625 60.8455 89.3219C60.8015 89.462 60.7548 89.6022 60.7081 89.7396C60.6173 90.0089 60.5211 90.2728 60.4194 90.5256C60.4084 90.5559 60.3974 90.5861 60.3836 90.6163C60.3369 90.7318 60.2874 90.8417 60.2406 90.9544C60.1279 91.2072 60.0097 91.4518 59.8859 91.6827C59.6715 92.0894 59.435 92.455 59.1821 92.771C59.1271 92.837 59.0721 92.9002 59.0171 92.9634C58.9786 93.0074 58.9374 93.0541 58.8961 93.0953L58.8439 93.1476C58.7861 93.208 58.7284 93.263 58.6679 93.3152C58.6074 93.3674 58.5469 93.4196 58.4864 93.4664H58.4837C58.4205 93.5158 58.36 93.5626 58.2967 93.6038C58.2335 93.6478 58.1675 93.6862 58.1015 93.7247C57.9778 93.7934 57.8513 93.8621 57.7248 93.9253C57.6616 93.9556 57.5956 93.9886 57.5296 94.0188C57.4664 94.049 57.4004 94.0765 57.3344 94.1067C56.8065 94.3321 56.2511 94.5025 55.6902 94.5904C55.6214 94.5987 55.5555 94.6097 55.4895 94.6179C55.4675 94.6179 55.4427 94.6234 55.4207 94.6234C53.6115 94.7746 51.8546 93.8759 50.7658 90.9736C50.4001 89.998 50.1994 89.102 50.0977 88.1318C54.2742 91.1083 58.9979 89.5417 61.1095 88.4122Z" fill="#0078B8"/>
<path d="M50.0288 88.2532C49.9243 89.1766 49.7263 90.0396 49.3744 90.974C47.8621 95.0059 45.0604 95.1708 42.6215 94.0275C42.4236 93.934 42.2284 93.8323 42.0386 93.7251C41.9727 93.6867 41.9067 93.6482 41.8434 93.6042C41.7802 93.563 41.7197 93.5163 41.6565 93.4696C41.596 93.4201 41.5355 93.3679 41.475 93.3156C41.4145 93.2634 41.3568 93.2085 41.299 93.148L41.2468 93.0958C41.2055 93.0546 41.1643 93.0078 41.1258 92.9638C41.0708 92.9006 41.0158 92.8374 40.9608 92.7715C40.7079 92.4554 40.4714 92.0899 40.2569 91.6831C40.1965 91.5677 40.136 91.4495 40.0755 91.3286C40.0755 91.3231 40.0755 91.3203 40.07 91.3176C40.0122 91.1994 39.9573 91.0785 39.9023 90.9548C39.8555 90.8421 39.806 90.7322 39.7593 90.6168C39.7455 90.5865 39.7345 90.5563 39.7235 90.5261C39.6218 90.2732 39.5256 90.0094 39.4348 89.74C39.3331 89.446 39.2396 89.1464 39.1516 88.8413C39.1131 88.6984 39.0719 88.5555 39.0334 88.4126C37.7219 83.5205 37.6394 77.2241 37.6394 77.2241C37.6394 77.2241 50.0727 72.6206 50.0727 80.1566C50.0727 84.0262 50.2597 86.2826 50.0315 88.2532H50.0288Z" fill="url(#paint3_radial_2083_13891)"/>
<path d="M37.6367 77.2244C37.6367 77.2244 39.0472 81.8114 47.3645 82.9107C48.9455 83.7352 49.3964 88.4871 49.2617 91.2629C49.3029 91.1668 49.3387 91.0733 49.3744 90.9744C50.4742 88.0419 50.0701 85.8405 50.0701 80.1596C50.0701 72.6209 37.6367 77.2272 37.6367 77.2272V77.2244Z" fill="#C1E2F3" fill-opacity="0.16"/>
<path d="M50.0288 88.2529C49.9243 89.1764 49.7263 90.0393 49.3744 90.9738C47.8622 95.0056 45.0604 95.1705 42.6216 94.0272C42.4236 93.9337 42.2284 93.8321 42.0387 93.7249C41.9727 93.6864 41.9067 93.6479 41.8435 93.6039C41.7802 93.5627 41.7197 93.516 41.6565 93.4693C41.596 93.4198 41.5355 93.3676 41.475 93.3154C41.4145 93.2632 41.3568 93.2082 41.2991 93.1477L41.2468 93.0955C41.2056 93.0543 41.1643 93.0075 41.1258 92.9636C41.0708 92.9004 41.0159 92.8372 40.9609 92.7712C40.7079 92.4551 40.4714 92.0896 40.257 91.6829C40.1965 91.5674 40.136 91.4493 40.0755 91.3283C40.0755 91.3228 40.0755 91.3201 40.07 91.3173C40.0123 91.1991 39.9573 91.0782 39.9023 90.9545C39.8556 90.8419 39.8061 90.7319 39.7593 90.6165C39.7456 90.5863 39.7346 90.556 39.7236 90.5258C39.6218 90.2729 39.5256 90.0091 39.4349 89.7398C39.3331 89.4457 39.2397 89.1461 39.1517 88.8411C39.1132 88.6981 39.0719 88.5552 39.0334 88.4123C41.1506 89.5446 45.8495 91.2486 50.0315 88.2529H50.0288Z" fill="#0078B8"/>
<path fill-rule="evenodd" clip-rule="evenodd" d="M50.0674 81.1318C50.1709 81.1318 50.2549 81.2158 50.2549 81.3193V87.9154C50.2549 88.0189 50.1709 88.1029 50.0674 88.1029C49.9638 88.1029 49.8799 88.0189 49.8799 87.9154V81.3193C49.8799 81.2158 49.9638 81.1318 50.0674 81.1318Z" fill="#417794"/>
<path d="M63.7627 75.3193C63.463 75.9707 63.1138 76.6083 62.7096 77.2239C59.6549 81.8687 49.9958 81.6241 49.9958 81.6241C49.9958 81.6241 40.3368 81.8687 37.2793 77.2239C36.8614 76.5891 36.5039 75.9322 36.2015 75.2616C32.6766 67.514 36.1795 57.7931 36.1795 57.7931C36.3252 57.7162 36.4682 57.642 36.6139 57.5678C48.1592 51.7001 60.708 56.4602 63.32 57.576C63.6417 57.7107 63.8122 57.7931 63.8122 57.7931C63.8122 57.7931 67.3288 67.5608 63.7627 75.3193Z" fill="url(#paint4_radial_2083_13891)"/>
<path d="M35.2556 60.4037C35.2556 60.4037 41.2138 64.4356 48.6375 65.1666C56.0612 65.9004 64.5848 60.1289 64.5848 60.1289L35.2556 60.4037Z" fill="#C1E2F3" fill-opacity="0.16"/>
<path d="M20.3945 33.929C20.3945 38.3071 18.1564 41.858 15.3958 41.858C12.6353 41.858 10.3972 38.3071 10.3972 33.929C10.3972 29.5509 12.6353 26 15.3958 26C18.1564 26 20.3945 29.5509 20.3945 33.929Z" fill="#0078B8"/>
<path d="M79.5422 33.929C79.5422 38.3071 81.7803 41.858 84.5409 41.858C87.3014 41.858 89.5395 38.3071 89.5395 33.929C89.5395 29.5509 87.3014 26 84.5409 26C81.7803 26 79.5422 29.5509 79.5422 33.929Z" fill="#0078B8"/>
<path d="M49.9683 62.2594C67.1171 62.2594 78.7173 55.2923 82.4759 49.059C86.2345 42.8258 88.896 24.3102 78.7173 14.5948C68.5386 4.87941 53.4189 5.61322 49.9683 5.61322C46.5176 5.61322 31.398 4.87941 21.2193 14.5948C11.0406 24.3102 13.6994 42.8258 17.4607 49.059C21.2193 55.2923 32.8195 62.2594 49.9683 62.2594Z" fill="url(#paint5_radial_2083_13891)"/>
<path d="M63.4493 21.7373H36.1219C32.0704 21.7373 28.7861 25.0202 28.7861 29.0699V48.1352C28.7861 52.1848 32.0704 55.4677 36.1219 55.4677H63.4493C67.5008 55.4677 70.7851 52.1848 70.7851 48.1352V29.0699C70.7851 25.0202 67.5008 21.7373 63.4493 21.7373Z" fill="#004367"/>
<path d="M35.8826 22.6992H63.2101C66.6525 22.6992 69.446 25.4915 69.446 28.9325V47.9977C69.446 51.4387 66.6525 54.231 63.2101 54.231H35.8826C32.4402 54.231 29.6467 51.4387 29.6467 47.9977V28.9325C29.6467 25.4915 32.4402 22.6992 35.8826 22.6992Z" fill="#0078B8"/>
<path d="M47.4004 46.036C47.4004 46.036 50.4689 44.6454 53.6088 46.036" stroke="#66F3FF" stroke-width="2" stroke-linecap="round" stroke-linejoin="round"/>
<path d="M63.8437 33.8047C63.4006 33.3957 62.7065 33.4148 62.256 33.8307C61.3487 34.7177 59.8757 36.2414 58.8339 37.5142C57.983 38.5863 57.3094 39.4783 56.8882 40.1208C56.5549 40.584 56.6492 41.2088 57.0644 41.5699C57.549 42.006 58.2838 41.9247 58.6786 41.413C59.2635 40.6111 60.2167 39.4282 61.3957 38.1268C62.5341 36.8875 63.3592 36.0356 63.884 35.461C64.3617 35.0036 64.3283 34.2408 63.8437 33.8047Z" fill="url(#paint6_linear_2083_13891)"/>
<path d="M57.2857 33.7731C57.7634 33.3157 58.5339 33.406 58.8955 33.9394C59.4865 34.8009 60.3555 36.0521 61.2373 37.1932C62.1399 38.3479 62.9731 39.4275 63.4941 40.1246C63.8414 40.5893 63.7983 41.2427 63.3615 41.6379C62.8974 42.0745 62.1411 42.0529 61.7181 41.5681C60.9763 40.7559 59.8593 39.431 58.7609 37.8517C57.7876 36.4432 57.2925 35.5259 57.0338 34.9711C56.8931 34.5529 56.9718 34.0711 57.2857 33.7731Z" fill="url(#paint7_linear_2083_13891)"/>
<path d="M35.8179 33.8047C36.261 33.3957 36.9552 33.4148 37.4056 33.8307C38.313 34.7177 39.7859 36.2414 40.8277 37.5142C41.6787 38.5863 42.3523 39.4783 42.7734 40.1208C43.1067 40.584 43.0125 41.2088 42.5972 41.5699C42.1127 42.006 41.3778 41.9247 40.9831 41.413C40.3981 40.6111 39.445 39.4282 38.2659 38.1268C37.1275 36.8875 36.3024 36.0356 35.7776 35.461C35.2999 35.0036 35.3334 34.2408 35.8179 33.8047Z" fill="url(#paint8_linear_2083_13891)"/>
<path d="M42.3759 33.7731C41.8983 33.3157 41.1277 33.406 40.7661 33.9394C40.1751 34.8009 39.3062 36.0521 38.4243 37.1932C37.5217 38.3479 36.6885 39.4275 36.1675 40.1246C35.8202 40.5893 35.8633 41.2427 36.3001 41.6379C36.7642 42.0745 37.5205 42.0529 37.9436 41.5681C38.6854 40.7559 39.8024 39.431 40.9007 37.8517C41.874 36.4432 42.3692 35.5259 42.6278 34.9711C42.7685 34.5529 42.6898 34.0711 42.3759 33.7731Z" fill="url(#paint9_linear_2083_13891)"/>
<defs>
<radialGradient id="paint0_radial_2083_13891" cx="0" cy="0" r="1" gradientUnits="userSpaceOnUse" gradientTransform="translate(32.3262 69.1206) rotate(108.662) scale(9.45726 5.05263)">
<stop offset="0.573027" stop-color="white"/>
<stop offset="1" stop-color="#ECF3F8"/>
</radialGradient>
<radialGradient id="paint1_radial_2083_13891" cx="0" cy="0" r="1" gradientUnits="userSpaceOnUse" gradientTransform="translate(67.4883 69.1206) rotate(71.3381) scale(9.45726 5.05263)">
<stop offset="0.573027" stop-color="white"/>
<stop offset="1" stop-color="#ECF3F8"/>
</radialGradient>
<radialGradient id="paint2_radial_2083_13891" cx="0" cy="0" r="1" gradientUnits="userSpaceOnUse" gradientTransform="translate(56.1015 85.2937) rotate(102.658) scale(9.00048 6.40242)">
<stop offset="0.634942" stop-color="white"/>
<stop offset="1" stop-color="#ECF3F8"/>
</radialGradient>
<radialGradient id="paint3_radial_2083_13891" cx="0" cy="0" r="1" gradientUnits="userSpaceOnUse" gradientTransform="translate(44.4499 85.2937) rotate(87.7965) scale(9.32628 6.63451)">
<stop offset="0.643588" stop-color="white"/>
<stop offset="1" stop-color="#ECF3F8"/>
</radialGradient>
<radialGradient id="paint4_radial_2083_13891" cx="0" cy="0" r="1" gradientUnits="userSpaceOnUse" gradientTransform="translate(48.6681 68.5521) rotate(94.6374) scale(13.3046 15.1826)">
<stop offset="0.812397" stop-color="white"/>
<stop offset="1" stop-color="#ECF3F8"/>
</radialGradient>
<radialGradient id="paint5_radial_2083_13891" cx="0" cy="0" r="1" gradientUnits="userSpaceOnUse" gradientTransform="translate(49.9678 33.93) rotate(90.1317) scale(29.6597 37.5476)">
<stop offset="0.836294" stop-color="white"/>
<stop offset="1" stop-color="#ECF3F8"/>
</radialGradient>
<linearGradient id="paint6_linear_2083_13891" x1="60.4546" y1="41.6813" x2="60.4546" y2="33.6336" gradientUnits="userSpaceOnUse">
<stop stop-color="white"/>
<stop offset="1" stop-color="#66FFFF"/>
</linearGradient>
<linearGradient id="paint7_linear_2083_13891" x1="60.4546" y1="41.6813" x2="60.4546" y2="33.6336" gradientUnits="userSpaceOnUse">
<stop stop-color="white"/>
<stop offset="1" stop-color="#66FFFF"/>
</linearGradient>
<linearGradient id="paint8_linear_2083_13891" x1="39.207" y1="41.6813" x2="39.207" y2="33.6336" gradientUnits="userSpaceOnUse">
<stop stop-color="white"/>
<stop offset="1" stop-color="#66FFFF"/>
</linearGradient>
<linearGradient id="paint9_linear_2083_13891" x1="39.207" y1="41.6813" x2="39.207" y2="33.6336" gradientUnits="userSpaceOnUse">
<stop stop-color="white"/>
<stop offset="1" stop-color="#66FFFF"/>
</linearGradient>
</defs>
</svg>
