<svg width="16" height="16" viewBox="0 0 16 16" fill="none" xmlns="http://www.w3.org/2000/svg">
<path d="M7.90234 14.85C4.41484 14.85 0.652344 12.6625 0.652344 7.8625C0.652344 3.0625 4.41484 0.875 7.90234 0.875C9.83984 0.875 11.6273 1.5125 12.9523 2.675C14.3898 3.95 15.1523 5.75 15.1523 7.8625C15.1523 9.975 14.3898 11.7625 12.9523 13.0375C11.6248 14.2 9.82734 14.85 7.90234 14.85Z" fill="url(#paint0_radial_1982_38848)"/>
<path d="M5.5 5.11719C4.97625 5.11719 4.5 5.55969 4.5 6.29469C4.5 7.02969 4.97625 7.47094 5.5 7.47094C6.025 7.47094 6.5 7.02844 6.5 6.29469C6.5 5.56094 6.03 5.11719 5.5 5.11719Z" fill="#422B0D"/>
<path d="M5.45619 5.60827C5.27869 5.52327 5.06494 5.59827 4.97869 5.77577C4.91244 5.91452 4.94244 6.08077 5.05369 6.18827C5.23119 6.27327 5.44494 6.19827 5.53119 6.02077C5.59744 5.88202 5.56744 5.71577 5.45619 5.60827Z" fill="#896024"/>
<path d="M10.2998 5.11719C9.77605 5.11719 9.2998 5.55969 9.2998 6.29469C9.2998 7.02969 9.77605 7.47094 10.2998 7.47094C10.8236 7.47094 11.2998 7.02844 11.2998 6.29469C11.2998 5.56094 10.8236 5.11719 10.2998 5.11719Z" fill="#422B0D"/>
<path d="M10.2496 5.60827C10.0721 5.52327 9.85839 5.59827 9.77214 5.77577C9.70589 5.91452 9.73589 6.08077 9.84714 6.18827C10.0246 6.27327 10.2384 6.19827 10.3246 6.02077C10.3909 5.88202 10.3609 5.71577 10.2496 5.60827Z" fill="#896024"/>
<path d="M13.936 3.70898C14.6022 4.78398 14.9497 6.06398 14.9497 7.48773C14.9497 9.60023 14.1872 11.3877 12.7497 12.6627C11.4247 13.8252 9.62475 14.4752 7.69975 14.4752C5.44225 14.4752 3.07475 13.5565 1.67725 11.6077C3.02225 13.8152 5.55225 14.8502 7.94975 14.8502C9.87475 14.8502 11.6747 14.2002 12.9997 13.0377C14.4372 11.7627 15.1997 9.97523 15.1997 7.86273C15.1997 6.27023 14.766 4.85523 13.936 3.70898Z" fill="#E38A00"/>
<path d="M12.7585 8.95293C12.5835 8.63668 12.2035 8.49793 11.866 8.62543C10.5835 8.99918 9.25352 9.18543 7.91727 9.17918C6.58102 9.18543 5.25102 8.99918 3.96852 8.62543C3.63227 8.49793 3.25227 8.63543 3.07727 8.95043C2.90727 9.26418 3.02977 9.62793 3.17352 9.94168C3.97602 11.7042 5.74477 12.7592 7.90727 12.7654H7.92727C10.0898 12.7654 11.8585 11.7042 12.6623 9.94168C12.8048 9.62543 12.9285 9.26668 12.7585 8.95293Z" fill="#422B0D"/>
<path d="M9.91863 12.2676C9.87238 12.2251 9.82488 12.1864 9.77738 12.1426C9.26738 11.6939 8.60738 11.4526 7.92738 11.4664C7.22738 11.4551 6.54613 11.6876 5.99988 12.1251C5.95238 12.1639 5.90238 12.2014 5.85613 12.2501C5.80988 12.2989 5.78488 12.3339 5.75488 12.3751C6.44238 12.6439 7.17488 12.7814 7.91363 12.7776H7.93363C8.64113 12.7776 9.34238 12.6514 10.0049 12.4026C9.97988 12.3551 9.95113 12.3101 9.91863 12.2676Z" fill="#ED7770"/>
<path d="M11.8663 8.62498C10.5838 8.99873 9.25377 9.18498 7.91752 9.17873C6.58127 9.18498 5.25127 8.99873 3.96877 8.62498C3.63252 8.49748 3.25252 8.63498 3.07752 8.94998C3.05252 8.99748 3.03252 9.04748 3.02002 9.09873C3.06127 9.11998 3.10877 9.14123 3.16502 9.16373C4.67002 9.91748 6.33377 10.3 8.01627 10.28C9.63002 10.2987 11.225 9.94748 12.6825 9.25498C12.7413 9.22998 12.79 9.20623 12.8338 9.18373C12.8238 9.10248 12.7975 9.02248 12.7588 8.94998C12.5838 8.63498 12.2038 8.49623 11.8663 8.62498Z" fill="white"/>
<path d="M12.7635 8.95418C12.586 8.63793 12.2048 8.49793 11.8648 8.62543C10.5823 8.99918 9.25227 9.18543 7.91727 9.17918C6.58102 9.18543 5.25102 8.99918 3.96852 8.62543C3.63227 8.49793 3.25227 8.63543 3.07727 8.95043C2.90727 9.26418 3.02977 9.62793 3.17352 9.94168C3.23727 10.0829 3.30852 10.2217 3.38727 10.3554C3.38727 10.3554 3.12477 9.38293 3.35227 9.10043C3.42977 8.98043 3.55977 8.90543 3.70227 8.89793C3.76102 8.89793 3.81852 8.90793 3.87477 8.92543C5.17977 9.30918 6.53352 9.50293 7.89477 9.50043H7.93852C9.29977 9.50293 10.6535 9.30918 11.9585 8.92543C12.0148 8.90793 12.0723 8.89793 12.131 8.89793C12.2735 8.90543 12.4048 8.98043 12.4823 9.10043C12.7135 9.38293 12.4473 10.3592 12.4473 10.3592C12.5248 10.2254 12.6023 10.0879 12.6673 9.94543C12.8098 9.63168 12.9335 9.26918 12.7635 8.95418Z" fill="#E38A00"/>
<defs>
<radialGradient id="paint0_radial_1982_38848" cx="0" cy="0" r="1" gradientUnits="userSpaceOnUse" gradientTransform="translate(7.90234 7.8625) scale(7.11996)">
<stop stop-color="#FFDE1E"/>
<stop offset="0.53" stop-color="#FFDD16"/>
<stop offset="0.795" stop-color="#FEC114"/>
<stop offset="0.955" stop-color="#FEA311"/>
<stop offset="1" stop-color="#F49400"/>
</radialGradient>
</defs>
</svg>
