<svg width="160" height="161" viewBox="0 0 160 161" fill="none" xmlns="http://www.w3.org/2000/svg">
<g clip-path="url(#clip0_2164_14090)">
<path d="M60.5102 127.641C60.5102 127.641 52.8602 148.804 57.8113 154.727C60.8169 158.325 65.4087 160.327 70.2984 154.741C73.5845 150.981 75.7139 142.201 78.9036 133.723C83.1361 122.475 60.5102 127.641 60.5102 127.641Z" fill="url(#paint0_radial_2164_14090)"/>
<path d="M78.9033 133.723C76.3183 140.588 73.8428 149.439 71.9018 152.576C72.4626 142.21 62.7839 134.516 59.2656 131.449C59.9667 129.135 60.51 127.641 60.51 127.641C60.51 127.641 83.1315 122.475 78.9033 133.723Z" fill="#C1E2F3" fill-opacity="0.24"/>
<path d="M56.3083 145.115C55.914 149.111 56.1637 152.761 57.8112 154.728C60.8168 158.325 65.4086 160.328 70.2983 154.741C71.3674 153.519 72.1298 152.314 72.787 150.956C64.7514 153.238 58.8583 148.02 56.3127 145.115H56.3083Z" fill="#0078B8"/>
<path d="M98.5895 130.446C98.5895 130.446 100.452 152.874 94.1248 157.3C90.2822 159.986 85.3268 160.722 82.067 154.053C79.8762 149.566 80.034 140.326 79.1664 131.304C78.0185 119.343 98.5851 130.441 98.5851 130.441L98.5895 130.446Z" fill="url(#paint1_radial_2164_14090)"/>
<path d="M98.589 130.446C98.589 130.446 99.0885 136.453 98.6898 142.863C95.5044 136.966 86.9168 135.976 82.233 140.243C80.1649 142.127 81.6546 150.115 82.2943 154.5C82.2155 154.356 82.1454 154.211 82.0709 154.058C79.8801 149.571 80.0379 140.331 79.1704 131.309C78.0224 119.348 98.589 130.446 98.589 130.446Z" fill="#C1E2F3" fill-opacity="0.24"/>
<path d="M98.0857 148.415C97.4241 152.375 96.228 155.832 94.1249 157.3C90.2823 159.986 85.3269 160.722 82.0671 154.053C81.3529 152.594 80.9323 151.232 80.6562 149.746C87.8156 154.045 94.8697 150.548 98.0857 148.41V148.415Z" fill="#0078B8"/>
<path d="M58.3308 99.5162C58.3308 99.5162 51.8811 117.418 60.0462 129.822C64.8149 137.065 79.88 136.683 79.88 136.683C79.88 136.683 94.9451 137.065 99.7138 129.822C107.879 117.418 101.429 99.5162 101.429 99.5162C101.429 99.5162 78.735 88.6516 58.3308 99.5162Z" fill="url(#paint2_radial_2164_14090)"/>
<path d="M80.7848 105.791C64.193 105.791 59.1928 107.089 56.2295 109.121C56.8813 103.554 58.3351 99.5162 58.3351 99.5162C78.7436 88.6516 101.433 99.5162 101.433 99.5162C101.433 99.5162 104.624 108.375 103.676 117.95C101.373 111.937 95.5112 105.795 80.7891 105.795L80.7848 105.791Z" fill="#C1E2F3" fill-opacity="0.16"/>
<path d="M33.8744 59.6108C33.8744 66.4382 30.3837 71.9756 26.0781 71.9756C21.7726 71.9756 18.2861 66.4382 18.2861 59.6108C18.2861 52.7834 21.7769 47.2461 26.0824 47.2461C30.388 47.2461 33.8787 52.7834 33.8787 59.6108H33.8744Z" fill="#0078B8"/>
<path d="M126.126 59.6108C126.126 66.4382 129.617 71.9756 133.922 71.9756C138.228 71.9756 141.719 66.4382 141.719 59.6108C141.719 52.7834 138.228 47.2461 133.922 47.2461C129.617 47.2461 126.126 52.7834 126.126 59.6108Z" fill="#0078B8"/>
<path d="M80.0005 103.789C106.747 103.789 124.84 92.9246 130.702 83.2043C136.564 73.4839 140.716 44.6101 124.84 29.4595C108.964 14.309 85.3824 15.4533 80.0005 15.4533C74.6185 15.4533 51.0367 14.309 35.161 29.4595C19.2854 44.6101 23.4365 73.4839 29.2988 83.2043C35.161 92.9246 53.2538 103.789 80.0005 103.789Z" fill="url(#paint3_radial_2164_14090)"/>
<path d="M58.4034 33.3086H101.026C107.343 33.3086 112.467 38.4345 112.467 44.7433V74.4744C112.467 80.7874 107.338 85.909 101.026 85.909H58.4034C52.0865 85.909 46.9619 80.7831 46.9619 74.4744V44.7433C46.9619 38.4302 52.0908 33.3086 58.4034 33.3086Z" fill="#004367"/>
<path d="M101.026 35.0225H58.4038C53.0322 35.0225 48.6777 39.3744 48.6777 44.7428V74.4739C48.6777 79.8423 53.0322 84.1942 58.4038 84.1942H101.026C106.398 84.1942 110.752 79.8423 110.752 74.4739V44.7428C110.752 39.3744 106.398 35.0225 101.026 35.0225Z" fill="#0078B8"/>
<path d="M75.9949 69.3083C75.9949 69.3083 79.7815 68.9354 83.4309 69.3083C83.4309 69.3083 83.9241 72.5055 79.923 72.7927C75.2787 73.1227 75.9949 69.3083 75.9949 69.3083Z" fill="url(#paint4_linear_2164_14090)"/>
<path d="M57.3787 37.5722C53.755 38.1422 51.0834 41.3823 50.7017 43.8638C50.2857 46.5596 51.1005 50.3698 54.1324 48.2483C56.0407 46.9154 57.0142 42.8309 62.9065 40.6237C67.4822 38.9094 63.361 36.6293 57.3787 37.5722Z" fill="white"/>
<path d="M71.8477 65.4668C71.8477 65.4668 71.8263 65.4668 71.8134 65.4668L60.9509 65.1796C60.239 65.1625 59.6815 64.571 59.6987 63.8596C59.7159 63.1481 60.3119 62.5995 61.0195 62.6081L68.0353 62.7924L59.896 56.3293C59.3385 55.8879 59.2484 55.0778 59.6901 54.5207C60.1318 53.9635 60.9423 53.8735 61.4998 54.315L72.6496 63.1738C73.0828 63.5167 73.2457 64.0996 73.057 64.6182C72.8726 65.1282 72.3881 65.4625 71.8477 65.4625V65.4668Z" fill="url(#paint5_linear_2164_14090)"/>
<path d="M87.8562 65.467C87.3159 65.467 86.8313 65.1284 86.6469 64.6227C86.4582 64.1041 86.6212 63.5212 87.0543 63.1784L98.2041 54.3195C98.7616 53.878 99.5679 53.9723 100.014 54.5252C100.456 55.0824 100.365 55.8881 99.808 56.3338L91.6686 62.7969L98.6844 62.6126C99.392 62.6041 99.9881 63.1527 100.005 63.8641C100.022 64.5756 99.4649 65.1627 98.7531 65.1842L87.8906 65.4713C87.8906 65.4713 87.8691 65.4713 87.8562 65.4713V65.467Z" fill="url(#paint6_linear_2164_14090)"/>
<path d="M61.396 9.78711L58.1797 21.7147C58.1797 21.7147 68.935 27.642 79.9433 27.642C90.9516 27.642 101.707 21.7147 101.707 21.7147L98.4906 9.78711H61.396Z" fill="#303051"/>
<path d="M79.6908 2.85742L55.6758 7.07043V9.42766L79.6908 13.9407L103.706 9.42766V7.07043L79.6908 2.85742Z" fill="#303051"/>
<path d="M79.6908 0.5L55.6758 7.07023L79.6908 11.5833L103.706 7.07023L79.6908 0.5Z" fill="#3C3C68"/>
<path fill-rule="evenodd" clip-rule="evenodd" d="M55.7463 9.20996L56.0997 9.39726C56.4532 9.58462 56.4531 9.58469 56.4531 9.58481L56.4487 9.59292L56.4362 9.61643L56.3873 9.70759C56.3442 9.78745 56.2806 9.90485 56.1979 10.0557C56.0324 10.3574 55.7905 10.7931 55.4838 11.3301C54.8706 12.404 53.998 13.8843 52.9601 15.5104C50.8911 18.7521 48.1416 22.6114 45.4674 24.9679L44.9385 24.3677C47.5219 22.0912 50.2208 18.3153 52.2858 15.0799C53.3149 13.4675 54.1807 11.9989 54.7891 10.9334C55.0933 10.4008 55.333 9.96918 55.4964 9.67106C55.5782 9.52201 55.6408 9.40635 55.683 9.32813L55.7306 9.23941L55.7425 9.21706L55.7463 9.20996Z" fill="#3C3C68"/>
<path d="M39.4912 26.8195C39.4912 26.8195 45.0275 19.8978 48.1752 21.895C51.3229 23.8923 44.0412 30.7582 44.0412 30.7582L39.4912 26.8195Z" fill="#3C3C68"/>
<path d="M96.3245 83.2516C95.0186 80.0766 94.8697 76.6769 94.9304 73.3899C94.9339 73.219 94.8697 72.8593 94.9345 72.6135C94.8554 72.7135 94.7842 72.814 94.7669 72.8326C94.4323 73.2642 94.0429 73.6724 93.6771 74.0887C92.6846 75.2132 91.6459 76.3082 90.507 77.3373C88.1013 79.5052 84.9245 81.7792 81.1339 81.945C76.1013 82.1654 72.5462 78.4768 70.1672 75.2362C69.1439 79.564 67.256 83.952 63.1799 86.9223C59.3995 89.6822 54.4134 90.6429 49.4154 90.8261C57.9085 93.5506 62.4905 102.047 59.5894 108.941C63.4756 106.879 68.7875 104.664 73.3544 106.821C76.5575 108.333 78.279 111.306 79.7319 113.971C81.2931 110.969 83.7665 108.036 88.1344 107.896C92.3328 107.764 96.4837 109.65 100.241 111.173C96.7443 104.23 97.9366 94.2929 106.144 90.39C101.36 89.6661 97.9287 87.1312 96.3241 83.2581L96.3245 83.2516Z" fill="#FFC121"/>
<path fill-rule="evenodd" clip-rule="evenodd" d="M106.206 75.4881L95.6347 86.0595L93.9377 84.3624L104.509 73.791L106.206 75.4881ZM57.0633 77.791L66.7776 87.5053L65.0805 89.2024L55.3662 79.4881L57.0633 77.791ZM107.079 83.1196L101.365 86.2624L100.208 84.1595L105.922 81.0167L107.079 83.1196ZM107.966 98.0991L98.5372 96.0991L99.0352 93.7514L108.464 95.7514L107.966 98.0991ZM54.2656 97.5583L61.9799 93.8441L63.0211 96.0065L55.3068 99.7208L54.2656 97.5583Z" fill="#FF573F"/>
<path d="M85.5508 108.824C85.5508 108.824 87.1588 121.236 103.808 119.484L102.2 112.767C102.2 112.767 97.3807 103.272 85.5508 108.824Z" fill="#C1E2F3" fill-opacity="0.16"/>
<path d="M86.7158 107.509C86.7158 107.509 86.4179 110.348 91.829 114.813C97.7615 119.707 106.428 117.81 108.825 114.997C112.185 111.054 110.744 105.743 106.581 104.534C102.178 103.259 100.303 96.9934 95.1896 98.0143C91.2988 98.7942 87.7411 102.102 86.7202 107.509H86.7158Z" fill="url(#paint7_radial_2164_14090)"/>
<path d="M74.1182 108.824C74.1182 108.824 72.5102 121.236 55.8606 119.484L57.4686 112.767C57.4686 112.767 62.2882 103.272 74.1182 108.824Z" fill="#C1E2F3" fill-opacity="0.16"/>
<path d="M72.9531 107.509C72.9531 107.509 73.2511 110.348 67.84 114.813C61.9075 119.707 53.2409 117.81 50.8443 114.997C47.4837 111.054 48.9252 105.743 53.0876 104.534C57.4909 103.259 59.3662 96.9934 64.4794 98.0143C68.3701 98.7942 71.9279 102.102 72.9487 107.509H72.9531Z" fill="url(#paint8_radial_2164_14090)"/>
<path d="M87.4143 99.4935C87.4143 99.4935 85.3379 92.5418 82.7357 94.221C80.129 95.899 83.3493 103.264 85.2056 103.694C87.0572 104.124 87.4143 99.4935 87.4143 99.4935Z" fill="#0078B8"/>
<path d="M85.8362 93.734C85.4368 93.1906 82.2601 84.7169 85.4297 83.7789C88.5993 82.8408 90.5795 90.8935 91.7096 94.3925L85.8362 93.734Z" fill="#0078B8"/>
<path d="M94.1631 97.7346C93.2788 95.5 91.443 91.8498 88.6162 88.1755C86.3557 85.2399 84.4706 90.9935 84.2901 95.9041C84.1096 100.815 83.6888 106.221 87.9467 106.332C92.2047 106.442 95.9652 102.297 94.1631 97.7346Z" fill="#0078B8"/>
<path d="M70.4382 99.4935C70.4382 99.4935 72.5147 92.5418 75.1168 94.221C77.7236 95.899 74.5032 103.264 72.6469 103.694C70.7953 104.124 70.4382 99.4935 70.4382 99.4935Z" fill="#0078B8"/>
<path d="M72.0164 93.734C72.4157 93.1906 75.5925 84.7169 72.4229 83.7789C69.2532 82.8408 67.273 90.8935 66.1429 94.3925L72.0164 93.734Z" fill="#0078B8"/>
<path d="M63.6894 97.7346C64.5737 95.5 66.4095 91.8498 69.2363 88.1755C71.4968 85.2399 73.382 90.9935 73.5625 95.9041C73.743 100.815 74.1638 106.221 69.9058 106.332C65.6479 106.442 61.8873 102.297 63.6894 97.7346Z" fill="#0078B8"/>
</g>
<defs>
<radialGradient id="paint0_radial_2164_14090" cx="0" cy="0" r="1" gradientUnits="userSpaceOnUse" gradientTransform="translate(65.7144 141.643) rotate(107.745) scale(14.9993 11.077)">
<stop offset="0.604024" stop-color="white"/>
<stop offset="1" stop-color="#ECF3F8"/>
</radialGradient>
<radialGradient id="paint1_radial_2164_14090" cx="0" cy="0" r="1" gradientUnits="userSpaceOnUse" gradientTransform="translate(88.2857 143.643) rotate(96.5819) scale(14.9557 9.45706)">
<stop offset="0.691219" stop-color="white"/>
<stop offset="1" stop-color="#ECF3F8"/>
</radialGradient>
<radialGradient id="paint2_radial_2164_14090" cx="0" cy="0" r="1" gradientUnits="userSpaceOnUse" gradientTransform="translate(79.88 115.687) rotate(94.2189) scale(21.1607 24.1515)">
<stop offset="0.751407" stop-color="white"/>
<stop offset="1" stop-color="#ECF3F8"/>
</radialGradient>
<radialGradient id="paint3_radial_2164_14090" cx="0" cy="0" r="1" gradientUnits="userSpaceOnUse" gradientTransform="translate(80.0005 59.6115) rotate(90.1317) scale(46.2523 58.5616)">
<stop offset="0.836294" stop-color="white"/>
<stop offset="1" stop-color="#ECF3F8"/>
</radialGradient>
<linearGradient id="paint4_linear_2164_14090" x1="79.7043" y1="68.3611" x2="79.7043" y2="76.0885" gradientUnits="userSpaceOnUse">
<stop stop-color="#66FFFF"/>
<stop offset="1" stop-color="white"/>
</linearGradient>
<linearGradient id="paint5_linear_2164_14090" x1="66.2685" y1="79.0401" x2="66.2685" y2="51.0234" gradientUnits="userSpaceOnUse">
<stop stop-color="white"/>
<stop offset="1" stop-color="#66FFFF"/>
</linearGradient>
<linearGradient id="paint6_linear_2164_14090" x1="93.4312" y1="79.0404" x2="93.4312" y2="51.0236" gradientUnits="userSpaceOnUse">
<stop stop-color="white"/>
<stop offset="1" stop-color="#66FFFF"/>
</linearGradient>
<radialGradient id="paint7_radial_2164_14090" cx="0" cy="0" r="1" gradientUnits="userSpaceOnUse" gradientTransform="translate(97.3573 108.067) rotate(23.3256) scale(14.0793 9.61463)">
<stop offset="0.657962" stop-color="white"/>
<stop offset="1" stop-color="#ECF3F8"/>
</radialGradient>
<radialGradient id="paint8_radial_2164_14090" cx="0" cy="0" r="1" gradientUnits="userSpaceOnUse" gradientTransform="translate(62.3117 108.067) rotate(157.055) scale(14.2999 9.35192)">
<stop offset="0.657962" stop-color="white"/>
<stop offset="1" stop-color="#ECF3F8"/>
</radialGradient>
<clipPath id="clip0_2164_14090">
<rect width="160" height="160" fill="white" transform="translate(0 0.5)"/>
</clipPath>
</defs>
</svg>
