<svg width="16" height="16" viewBox="0 0 16 16" fill="none" xmlns="http://www.w3.org/2000/svg">
<path d="M7.9502 14.85C4.4627 14.85 0.700195 12.6625 0.700195 7.8625C0.700195 3.0625 4.4627 0.875 7.9502 0.875C9.8877 0.875 11.6752 1.5125 13.0002 2.675C14.4377 3.95 15.2002 5.75 15.2002 7.8625C15.2002 9.975 14.4377 11.7625 13.0002 13.0375C11.6752 14.2 9.8752 14.85 7.9502 14.85Z" fill="url(#paint0_radial_1982_39116)"/>
<path d="M13.9365 3.70898C14.6027 4.78398 14.9502 6.06398 14.9502 7.48773C14.9502 9.60023 14.1877 11.3877 12.7502 12.6627C11.4252 13.8252 9.62523 14.4752 7.70023 14.4752C5.44273 14.4752 3.07523 13.5565 1.67773 11.6077C3.02273 13.8152 5.55273 14.8502 7.95023 14.8502C9.87523 14.8502 11.6752 14.2002 13.0002 13.0377C14.4377 11.7627 15.2002 9.97523 15.2002 7.86273C15.2002 6.27023 14.7665 4.85523 13.9365 3.70898Z" fill="#E38A00"/>
<path d="M8.00008 10.8945C9.35258 10.8945 10.2288 11.8845 10.4563 12.3408C10.5438 12.517 10.5488 12.6633 10.4738 12.732C10.3951 12.7833 10.2926 12.7833 10.2138 12.732C10.1751 12.7133 10.1363 12.692 10.1013 12.667C8.84508 11.767 7.15633 11.767 5.90008 12.667C5.86508 12.692 5.82758 12.7133 5.78758 12.732C5.70883 12.7845 5.60633 12.7845 5.52758 12.732C5.45258 12.6633 5.45758 12.517 5.54508 12.3408C5.77133 11.8858 6.64758 10.8945 8.00008 10.8945Z" fill="#422B0D"/>
<path d="M3.42387 4.97172C3.14887 5.02047 3.13512 5.42047 3.43512 5.43422C4.09762 5.44422 4.73762 5.19922 5.22512 4.75047C5.41012 4.59047 5.56762 4.40172 5.68887 4.18922C5.76137 4.08547 5.73637 3.94297 5.63387 3.86922C5.53137 3.79547 5.38762 3.82172 5.31387 3.92422L5.30137 3.93672C4.81012 4.48547 4.14887 4.84922 3.42387 4.97172Z" fill="#422B0D"/>
<path d="M10.7649 3.94028L10.7524 3.92778C10.6799 3.82403 10.5361 3.79903 10.4324 3.87153C10.3286 3.94403 10.3036 4.08778 10.3774 4.19153C10.4999 4.40278 10.6574 4.59153 10.8436 4.75028C11.3311 5.19903 11.9711 5.44278 12.6336 5.43153C12.9336 5.41778 12.9199 5.01778 12.6436 4.96903C11.9186 4.84778 11.2574 4.48528 10.7649 3.94028Z" fill="#422B0D"/>
<path d="M2.43994 13.3752C1.38244 13.3752 0.564941 12.3489 0.564941 11.4702C0.564941 10.8527 0.841191 10.1364 1.23244 9.14394C1.28119 8.99769 1.34619 8.85019 1.41119 8.68769C1.59744 8.22269 1.76119 7.71894 2.01119 7.28269C2.12994 7.07019 2.39869 6.99519 2.60994 7.11394C2.67994 7.15394 2.73869 7.21144 2.77869 7.28269C3.01119 7.71144 3.17119 8.17519 3.41244 8.71644C4.09619 10.2464 4.28744 10.8652 4.28744 11.4827C4.31119 12.3539 3.48119 13.3752 2.43994 13.3752Z" fill="url(#paint1_radial_1982_39116)"/>
<path d="M3.5835 12.207C3.34475 12.582 2.80225 12.507 2.80225 11.8933C2.80225 11.5008 2.88225 9.48575 3.21975 9.76825C3.76725 10.227 3.9235 11.6845 3.5835 12.207Z" fill="#81D4FA"/>
<path d="M5.5835 6.86816C5.05975 6.86816 4.5835 7.31066 4.5835 8.04566C4.5835 8.78066 5.05975 9.22191 5.5835 9.22191C6.10725 9.22191 6.5835 8.77941 6.5835 8.04566C6.5835 7.31191 6.10725 6.86816 5.5835 6.86816Z" fill="#422B0D"/>
<path d="M5.5348 7.35925C5.3573 7.27425 5.14355 7.34925 5.0573 7.52675C4.99105 7.6655 5.02105 7.83175 5.1323 7.93925C5.3098 8.02425 5.52355 7.94925 5.6098 7.77175C5.67605 7.633 5.64605 7.46675 5.5348 7.35925Z" fill="#896024"/>
<path d="M10.375 6.86816C9.85125 6.86816 9.375 7.31066 9.375 8.04566C9.375 8.78066 9.85125 9.22191 10.375 9.22191C10.8988 9.22191 11.375 8.77941 11.375 8.04566C11.375 7.31191 10.9013 6.86816 10.375 6.86816Z" fill="#422B0D"/>
<path d="M10.3287 7.35925C10.1512 7.27425 9.93749 7.34925 9.85124 7.52675C9.78499 7.6655 9.81499 7.83175 9.92624 7.93925C10.1037 8.02425 10.3175 7.94925 10.4037 7.77175C10.47 7.633 10.44 7.46675 10.3287 7.35925Z" fill="#896024"/>
<defs>
<radialGradient id="paint0_radial_1982_39116" cx="0" cy="0" r="1" gradientUnits="userSpaceOnUse" gradientTransform="translate(7.9502 7.8625) scale(7.11996)">
<stop stop-color="#FFDE1E"/>
<stop offset="0.53" stop-color="#FFDD16"/>
<stop offset="0.795" stop-color="#FEC114"/>
<stop offset="0.955" stop-color="#FEA311"/>
<stop offset="1" stop-color="#F49400"/>
</radialGradient>
<radialGradient id="paint1_radial_1982_39116" cx="0" cy="0" r="1" gradientUnits="userSpaceOnUse" gradientTransform="translate(2.57369 7.86775) scale(4.175 6.4295)">
<stop offset="0.46" stop-color="#29B6F6"/>
<stop offset="1" stop-color="#1E88E5"/>
</radialGradient>
</defs>
</svg>
