<svg width="20" height="20" viewBox="0 0 20 20" fill="none" xmlns="http://www.w3.org/2000/svg">
<path fill-rule="evenodd" clip-rule="evenodd" d="M6.07625 3.98801C3.98999 4.60257 2.53078 6.49763 2.50048 8.68029C2.5 8.71453 2.5 8.75303 2.5 8.83004V10.766C2.58497 10.7659 2.67133 10.7832 2.75399 10.8196C7.36721 12.8561 12.6331 12.8561 17.2463 10.8196C17.3289 10.7832 17.4151 10.766 17.5 10.766V8.83004C17.5 8.75303 17.5 8.71453 17.4995 8.68029C17.4692 6.49764 16.01 4.6026 13.9238 3.98802C13.6924 3.91217 12.991 3.77658 12.6693 3.71826C10.9026 3.41813 9.09741 3.41813 7.33074 3.71825C6.99355 3.78207 6.27059 3.92537 6.07625 3.98801ZM8.33333 9.93827C7.98816 9.93827 7.70833 10.2162 7.70833 10.5591C7.70833 10.9019 7.98816 11.1798 8.33333 11.1798H11.6667C12.0118 11.1798 12.2917 10.9019 12.2917 10.5591C12.2917 10.2162 12.0118 9.93827 11.6667 9.93827H8.33333Z" fill="#46C081"/>
<path d="M7.39427 3.32613C7.64906 2.59675 8.34708 2.07458 9.16628 2.07458H10.8329C11.6521 2.07458 12.3502 2.59675 12.605 3.32613C12.6428 3.43457 12.6613 3.55972 12.6689 3.71787C12.9906 3.77619 13.6919 3.91178 13.9234 3.98763V3.93678C13.9234 3.65468 13.9138 3.28519 13.7859 2.91914C13.362 1.70563 12.2009 0.833008 10.8329 0.833008H9.16628C7.79836 0.833008 6.63726 1.70562 6.21334 2.91914C6.08547 3.28519 6.07584 3.65468 6.07584 3.93678V3.98762C6.27018 3.92498 6.99314 3.78168 7.33033 3.71786C7.33794 3.55971 7.35639 3.43457 7.39427 3.32613Z" fill="#46C081"/>
<path d="M17.5 12.0636C16.75 12.3819 15.9845 12.6503 15.2085 12.8689V13.8695C15.2085 14.2124 14.9287 14.4903 14.5835 14.4903C14.2383 14.4903 13.9585 14.2124 13.9585 13.8695V13.1761C10.1438 13.9791 6.14023 13.6082 2.5 12.0635V13.3521C2.5 15.1052 3.72584 16.623 5.44877 17.0033C8.44636 17.6649 11.5536 17.6649 14.5512 17.0033C16.2742 16.623 17.5 15.1052 17.5 13.3521V12.0636Z" fill="#46C081"/>
</svg>
