<svg width="36" height="36" viewBox="0 0 36 36" fill="none" xmlns="http://www.w3.org/2000/svg">
<g filter="url(#filter0_d_2474_25884)">
<path d="M2 17C2 8.16344 9.16344 1 18 1C26.8366 1 34 8.16344 34 17C34 25.8366 26.8366 33 18 33H2V17Z" fill="#0078B8" shape-rendering="crispEdges"/>
<g filter="url(#filter1_d_2474_25884)">
<path d="M9.66663 17.0003C9.66663 13.072 9.66663 11.1078 10.887 9.88738C12.1074 8.66699 14.0716 8.66699 18 8.66699C21.9283 8.66699 23.8925 8.66699 25.1129 9.88738C26.3333 11.1078 26.3333 13.072 26.3333 17.0003C26.3333 20.9287 26.3333 22.8929 25.1129 24.1133C23.8925 25.3337 21.9283 25.3337 18 25.3337C14.0716 25.3337 12.1074 25.3337 10.887 24.1133C9.66663 22.8929 9.66663 20.9287 9.66663 17.0003Z" fill="#F1EEE4"/>
</g>
<mask id="mask0_2474_25884" style="mask-type:luminance" maskUnits="userSpaceOnUse" x="9" y="8" width="18" height="18">
<path d="M9.66663 17.0003C9.66663 13.072 9.66663 11.1078 10.887 9.88738C12.1074 8.66699 14.0716 8.66699 18 8.66699C21.9283 8.66699 23.8925 8.66699 25.1129 9.88738C26.3333 11.1078 26.3333 13.072 26.3333 17.0003C26.3333 20.9287 26.3333 22.8929 25.1129 24.1133C23.8925 25.3337 21.9283 25.3337 18 25.3337C14.0716 25.3337 12.1074 25.3337 10.887 24.1133C9.66663 22.8929 9.66663 20.9287 9.66663 17.0003Z" fill="white"/>
</mask>
<g mask="url(#mask0_2474_25884)">
<path d="M9 16.5H26.5" stroke="#B6B6B6" stroke-opacity="0.5" stroke-width="0.8"/>
<path d="M9 21.5H26.5" stroke="#B6B6B6" stroke-opacity="0.5" stroke-width="0.8"/>
<g filter="url(#filter2_d_2474_25884)">
<path d="M25.1159 9.89031C23.8955 8.66992 21.9314 8.66992 18.003 8.66992C14.0746 8.66992 12.1104 8.66992 10.89 9.89031C10.1821 10.5983 9.88483 11.5565 9.76001 13.0033H26.246C26.1212 11.5565 25.8239 10.5983 25.1159 9.89031Z" fill="url(#paint0_linear_2474_25884)"/>
<path d="M25.1159 9.89031C23.8955 8.66992 21.9314 8.66992 18.003 8.66992C14.0746 8.66992 12.1104 8.66992 10.89 9.89031C10.1821 10.5983 9.88483 11.5565 9.76001 13.0033H26.246C26.1212 11.5565 25.8239 10.5983 25.1159 9.89031Z" fill="url(#paint1_linear_2474_25884)" fill-opacity="0.8"/>
</g>
</g>
</g>
<defs>
<filter id="filter0_d_2474_25884" x="0" y="0" width="36" height="36" filterUnits="userSpaceOnUse" color-interpolation-filters="sRGB">
<feFlood flood-opacity="0" result="BackgroundImageFix"/>
<feColorMatrix in="SourceAlpha" type="matrix" values="0 0 0 0 0 0 0 0 0 0 0 0 0 0 0 0 0 0 127 0" result="hardAlpha"/>
<feOffset dy="1"/>
<feGaussianBlur stdDeviation="1"/>
<feComposite in2="hardAlpha" operator="out"/>
<feColorMatrix type="matrix" values="0 0 0 0 0 0 0 0 0 0 0 0 0 0 0 0 0 0 0.24 0"/>
<feBlend mode="normal" in2="BackgroundImageFix" result="effect1_dropShadow_2474_25884"/>
<feBlend mode="normal" in="SourceGraphic" in2="effect1_dropShadow_2474_25884" result="shape"/>
</filter>
<filter id="filter1_d_2474_25884" x="8.66663" y="8.16699" width="18.6666" height="18.667" filterUnits="userSpaceOnUse" color-interpolation-filters="sRGB">
<feFlood flood-opacity="0" result="BackgroundImageFix"/>
<feColorMatrix in="SourceAlpha" type="matrix" values="0 0 0 0 0 0 0 0 0 0 0 0 0 0 0 0 0 0 127 0" result="hardAlpha"/>
<feOffset dy="0.5"/>
<feGaussianBlur stdDeviation="0.5"/>
<feComposite in2="hardAlpha" operator="out"/>
<feColorMatrix type="matrix" values="0 0 0 0 0 0 0 0 0 0 0 0 0 0 0 0 0 0 0.25 0"/>
<feBlend mode="normal" in2="BackgroundImageFix" result="effect1_dropShadow_2474_25884"/>
<feBlend mode="normal" in="SourceGraphic" in2="effect1_dropShadow_2474_25884" result="shape"/>
</filter>
<filter id="filter2_d_2474_25884" x="8.76001" y="7.86992" width="18.486" height="6.33301" filterUnits="userSpaceOnUse" color-interpolation-filters="sRGB">
<feFlood flood-opacity="0" result="BackgroundImageFix"/>
<feColorMatrix in="SourceAlpha" type="matrix" values="0 0 0 0 0 0 0 0 0 0 0 0 0 0 0 0 0 0 127 0" result="hardAlpha"/>
<feOffset dy="0.2"/>
<feGaussianBlur stdDeviation="0.5"/>
<feComposite in2="hardAlpha" operator="out"/>
<feColorMatrix type="matrix" values="0 0 0 0 0 0 0 0 0 0 0 0 0 0 0 0 0 0 0.5 0"/>
<feBlend mode="normal" in2="BackgroundImageFix" result="effect1_dropShadow_2474_25884"/>
<feBlend mode="normal" in="SourceGraphic" in2="effect1_dropShadow_2474_25884" result="shape"/>
</filter>
<linearGradient id="paint0_linear_2474_25884" x1="18.003" y1="8.66992" x2="18.003" y2="13.0033" gradientUnits="userSpaceOnUse">
<stop stop-color="#FFC121"/>
<stop offset="1" stop-color="#EEAE0A"/>
</linearGradient>
<linearGradient id="paint1_linear_2474_25884" x1="16" y1="8.49988" x2="17" y2="11.9999" gradientUnits="userSpaceOnUse">
<stop stop-color="white" stop-opacity="0.4"/>
<stop offset="1" stop-color="white" stop-opacity="0"/>
</linearGradient>
</defs>
</svg>
