<svg width="100" height="100" viewBox="0 0 100 100" fill="none" xmlns="http://www.w3.org/2000/svg">
<rect width="100" height="100" fill="white"/>
<path d="M67.083 56.4918C67.2666 56.5705 68.8404 58.9312 68.8404 58.9312C68.8404 58.9312 70.0994 56.3082 71.8043 56.1771C73.5092 56.0459 78.755 55.5214 78.3616 60.1115C78.2304 61.5016 75.0305 63.6524 73.1157 65.4098C69.2338 69.0032 64.5125 67.7179 63.4634 64.8327C62.4142 61.9475 61.4962 58.4066 61.6273 58.3279C61.7585 58.2492 67.083 56.4918 67.083 56.4918Z" fill="url(#paint0_radial_3262_48990)"/>
<path d="M63.4371 64.7794C63.6732 65.4351 64.1191 66.0121 64.6961 66.4843C65.7715 61.5532 68.8141 58.8778 68.8141 58.8778C68.8141 58.8778 67.2404 56.5172 67.0567 56.4385C67.0567 56.4385 61.7322 58.1958 61.6011 58.2745C61.6011 58.2745 61.6011 58.3007 61.6011 58.327C61.6011 58.8253 62.4666 62.0778 63.4371 64.7794Z" fill="#C1E2F3" fill-opacity="0.26"/>
<path d="M36.2899 67.6384C34.6374 67.7433 33.0375 67.6384 31.5162 67.4023C24.9064 66.3007 19.8442 62.2351 20.3163 58.7204C20.8933 54.4188 25.7982 53.868 25.7982 53.868C26.2179 53.6057 27.0834 53.7107 28.1326 53.9992C31.9096 55.0221 38.3882 58.6417 38.6243 58.7729C38.6243 58.7729 45.2603 63.6777 36.2899 67.6384Z" fill="url(#paint1_radial_3262_48990)"/>
<path d="M36.2637 67.5855C34.6112 67.6904 33.0113 67.5855 31.49 67.3494C35.6342 67.1133 36.1588 60.4774 34.5326 59.5331C31.2014 57.6184 29.3654 55.4938 28.1326 53.9463C30.467 54.602 38.3358 58.5364 38.6243 58.72C38.6243 58.72 45.2603 63.6249 36.2899 67.5855H36.2637Z" fill="#C1E2F3" fill-opacity="0.26"/>
<path d="M39.4374 77.1862C39.4374 77.1862 39.7259 90.668 43.7914 92.8975C46.257 94.2614 49.2471 94.3926 50.7684 90.2221C51.7913 87.4156 51.2405 85.3173 51.1881 79.8878C51.1356 72.701 39.4374 77.1862 39.4374 77.1862Z" fill="url(#paint2_radial_3262_48990)"/>
<path d="M51.1618 79.8352C51.2143 84.2154 51.5553 86.4449 51.1618 88.5957C49.2471 82.6941 42.1652 80.4909 39.5423 79.5204C39.4374 78.0778 39.4111 77.1336 39.4111 77.1336C39.4111 77.1336 51.0831 72.6221 51.1618 79.8352Z" fill="#C1E2F3" fill-opacity="0.16"/>
<path d="M40.8538 87.8618C41.5095 90.1699 42.4275 92.1634 43.7652 92.8978C46.2307 94.2617 49.2209 94.3928 50.7422 90.2224C51.0832 89.3044 51.2405 88.465 51.3192 87.5732C47.3324 90.5896 42.8996 88.9372 40.8538 87.8618Z" fill="#0078B8"/>
<path d="M52.893 77.7632C52.893 77.7632 57.4831 90.432 62.0208 91.2451C64.7748 91.7434 67.66 90.9041 67.765 86.4713C67.8436 83.4812 65.4043 78.1829 63.6207 73.042C61.2601 66.2486 52.8668 77.737 52.8668 77.737L52.893 77.7632Z" fill="url(#paint3_radial_3262_48990)"/>
<path d="M67.5814 84.6877C67.3453 83.4812 66.9256 82.0386 66.3748 80.5173C65.6404 78.4714 64.7224 76.1108 63.9617 73.9862C63.9617 73.9862 63.9617 73.96 63.9617 73.9337C63.8568 73.619 63.7257 73.3042 63.6207 72.9895C63.5158 72.6747 63.3847 72.3862 63.2535 72.1502C63.2535 72.0977 63.2011 72.0715 63.1749 72.019C63.1749 71.9928 63.1224 71.9403 63.1224 71.9141C60.3159 67.6387 53.1291 77.3435 52.893 77.6845C52.893 77.6845 53.5225 79.4419 54.5717 81.6976C57.5618 81.4615 63.5945 78.7599 67.6076 84.6615L67.5814 84.6877Z" fill="#C1E2F3" fill-opacity="0.16"/>
<path d="M57.6405 87.3892C58.9782 89.3826 60.4995 90.9563 62.0208 91.2449C64.7748 91.7432 67.6601 90.9039 67.765 86.4711C67.765 85.5007 67.6863 84.6613 67.4502 83.7695C64.6175 87.8875 59.9224 87.7564 57.6405 87.3892Z" fill="#0078B8"/>
<path d="M36.9981 57.7237C36.9981 57.7237 33.0637 68.6876 38.0473 76.2678C40.9587 80.7005 50.1652 80.4645 50.1652 80.4645C50.1652 80.4645 59.3716 80.7005 62.2831 76.2678C67.2666 68.6876 63.3322 57.7237 63.3322 57.7237C63.3322 57.7237 49.457 51.0878 36.9719 57.7237H36.9981Z" fill="url(#paint4_radial_3262_48990)"/>
<path d="M50.7422 61.5532C40.5915 61.5532 37.5489 62.3401 35.7128 63.5991C36.1063 60.1893 36.9981 57.7237 36.9981 57.7237C49.4832 51.0878 63.3584 57.7237 63.3584 57.7237C63.3584 57.7237 65.2994 63.1532 64.7223 69.0023C63.306 65.3302 59.7388 61.5532 50.7159 61.5532H50.7422Z" fill="#EFF7FC"/>
<path d="M22.0474 33.2786C22.0474 37.4491 19.9229 40.8326 17.2737 40.8326C14.6246 40.8326 12.5 37.4491 12.5 33.2786C12.5 29.1082 14.6246 25.7246 17.2737 25.7246C19.9229 25.7246 22.0474 29.1082 22.0474 33.2786Z" fill="#0078B8"/>
<path d="M78.4664 33.2786C78.4664 37.4491 80.591 40.8326 83.2401 40.8326C85.8893 40.8326 88.0139 37.4491 88.0139 33.2786C88.0139 29.1082 85.8893 25.7246 83.2401 25.7246C80.591 25.7246 78.4664 29.1082 78.4664 33.2786Z" fill="#0078B8"/>
<path d="M50.2438 60.3208C66.6109 60.3208 77.6796 53.6848 81.2468 47.7308C84.8402 41.7768 87.3582 24.1245 77.6534 14.8394C67.9486 5.55422 53.5225 6.26241 50.2176 6.26241C46.9127 6.26241 32.5129 5.55422 22.7819 14.8394C13.0771 24.1245 15.6213 41.7768 19.1885 47.7308C22.7819 53.6848 33.8506 60.3208 50.1914 60.3208H50.2438Z" fill="url(#paint5_radial_3262_48990)"/>
<path d="M37.0506 17.2002H63.1224C66.9781 17.2002 70.1256 20.3477 70.1256 24.2034V42.4065C70.1256 46.2622 66.9781 49.4097 63.1224 49.4097H37.0506C33.1949 49.4097 30.0474 46.2622 30.0474 42.4065V24.2034C30.0474 20.3477 33.1949 17.2002 37.0506 17.2002Z" fill="#0F4F72"/>
<path d="M63.0961 18.249H37.0505C33.7622 18.249 31.0965 20.9147 31.0965 24.2031V42.3799C31.0965 45.6682 33.7622 48.3339 37.0505 48.3339H63.0961C66.3845 48.3339 69.0502 45.6682 69.0502 42.3799V24.2031C69.0502 20.9147 66.3845 18.249 63.0961 18.249Z" fill="#0078B8"/>
<path d="M45.7062 33.2786C45.7062 36.9507 43.8964 39.9146 41.6931 39.9146C39.4899 39.9146 37.6801 36.9507 37.6801 33.2786C37.6801 29.6065 39.4899 26.6426 41.6931 26.6426C43.8964 26.6426 45.7062 29.6065 45.7062 33.2786Z" fill="url(#paint6_linear_3262_48990)"/>
<path d="M62.4929 33.2786C62.4929 36.9507 60.6831 39.9146 58.4798 39.9146C56.2766 39.9146 54.4667 36.9507 54.4667 33.2786C54.4667 29.6065 56.2766 26.6426 58.4798 26.6426C60.6831 26.6426 62.4929 29.6065 62.4929 33.2786Z" fill="url(#paint7_linear_3262_48990)"/>
<path d="M47.8045 39.0493C47.8045 39.0493 50.1127 38.8132 52.3422 39.0493C52.3422 39.0493 52.6569 41.0164 50.1914 41.1738C47.3586 41.3837 47.7783 39.0493 47.7783 39.0493H47.8045Z" fill="url(#paint8_linear_3262_48990)"/>
<path d="M36.4211 19.7965C34.2178 20.1375 32.5654 22.1309 32.3293 23.6522C32.067 25.3046 32.5654 27.639 34.4276 26.3276C35.5817 25.5145 36.185 23.0227 39.8046 21.6588C42.6112 20.6096 40.0932 19.2195 36.4211 19.7965Z" fill="white"/>
<path d="M25.5097 35.3252H13.9688C13.2445 35.3252 12.6573 35.9124 12.6573 36.6367V48.1775C12.6573 48.9018 13.2445 49.489 13.9688 49.489H25.5097C26.234 49.489 26.8211 48.9018 26.8211 48.1775V36.6367C26.8211 35.9124 26.234 35.3252 25.5097 35.3252Z" fill="white" stroke="#0B5983" stroke-width="2" stroke-linecap="round" stroke-linejoin="round"/>
<path d="M17.8704 42.0964H21.608C21.6907 42.0964 21.7699 42.1292 21.8283 42.1876C21.8867 42.246 21.9195 42.3252 21.9195 42.4078C21.9195 42.4904 21.8867 42.5697 21.8283 42.6281C21.7699 42.6865 21.6907 42.7193 21.608 42.7193H17.8704C17.7878 42.7193 17.7086 42.6865 17.6501 42.6281C17.5917 42.5697 17.5589 42.4904 17.5589 42.4078C17.5589 42.3252 17.5917 42.246 17.6501 42.1876C17.7086 42.1292 17.7878 42.0964 17.8704 42.0964ZM18.8048 43.9652H17.2474C16.8344 43.9652 16.4383 43.8011 16.1462 43.5091C15.8542 43.217 15.6901 42.8209 15.6901 42.4078C15.6901 41.9948 15.8542 41.5987 16.1462 41.3066C16.4383 41.0146 16.8344 40.8505 17.2474 40.8505H18.8048C18.8874 40.8505 18.9666 40.8177 19.025 40.7593C19.0835 40.7008 19.1163 40.6216 19.1163 40.539C19.1163 40.4564 19.0835 40.3772 19.025 40.3188C18.9666 40.2604 18.8874 40.2275 18.8048 40.2275H17.2474C16.6692 40.2275 16.1146 40.4572 15.7057 40.8661C15.2968 41.275 15.0671 41.8296 15.0671 42.4078C15.0671 42.9861 15.2968 43.5407 15.7057 43.9495C16.1146 44.3584 16.6692 44.5881 17.2474 44.5881H18.8048C18.8874 44.5881 18.9666 44.5553 19.025 44.4969C19.0835 44.4385 19.1163 44.3593 19.1163 44.2767C19.1163 44.1941 19.0835 44.1148 19.025 44.0564C18.9666 43.998 18.8874 43.9652 18.8048 43.9652ZM22.231 40.2275H20.6736C20.591 40.2275 20.5118 40.2604 20.4534 40.3188C20.395 40.3772 20.3622 40.4564 20.3622 40.539C20.3622 40.6216 20.395 40.7008 20.4534 40.7593C20.5118 40.8177 20.591 40.8505 20.6736 40.8505H22.231C22.644 40.8505 23.0401 41.0146 23.3322 41.3066C23.6243 41.5987 23.7884 41.9948 23.7884 42.4078C23.7884 42.8209 23.6243 43.217 23.3322 43.5091C23.0401 43.8011 22.644 43.9652 22.231 43.9652H20.6736C20.591 43.9652 20.5118 43.998 20.4534 44.0564C20.395 44.1148 20.3622 44.1941 20.3622 44.2767C20.3622 44.3593 20.395 44.4385 20.4534 44.4969C20.5118 44.5553 20.591 44.5881 20.6736 44.5881H22.231C22.8092 44.5881 23.3638 44.3584 23.7727 43.9495C24.1816 43.5407 24.4113 42.9861 24.4113 42.4078C24.4113 41.8296 24.1816 41.275 23.7727 40.8661C23.3638 40.4572 22.8092 40.2275 22.231 40.2275Z" fill="#E66A1F"/>
<path d="M25.7195 54.0256C25.7982 53.842 27.5556 53.2912 30.3621 56.3338" stroke="#C1E2F3" stroke-opacity="0.16" stroke-linecap="round" stroke-linejoin="round"/>
<path d="M23.3064 54.8378C23.3064 54.8378 20.4736 51.6378 22.1261 50.851C23.7785 50.0903 26.4539 53.9722 26.0867 55.0476C25.7195 56.0968 23.3064 54.8378 23.3064 54.8378Z" fill="#0078B8"/>
<path d="M18.0606 53.2118C17.7721 52.9758 13.3656 50.4578 12.7361 52.1102C12.0803 53.7626 16.277 55.5987 18.2442 56.4118L18.0606 53.2381V53.2118Z" fill="#0078B8"/>
<path d="M21.1556 58.7463C19.9229 58.1431 17.9557 56.9365 15.9885 55.1792C14.441 53.7628 17.7721 53.0284 20.5524 53.1595C23.3327 53.3169 26.4277 53.3431 26.2966 55.73C26.1654 58.0906 23.6474 59.9791 21.1556 58.7463Z" fill="#0078B8"/>
<path d="M14.9131 53.0291C14.9131 53.0291 12.9983 50.9833 14.8606 50.7472C16.9065 50.4587 21.0245 52.898 21.2343 53.816" fill="#0078B8"/>
<path d="M16.2507 55.3643C14.5458 54.7085 14.1786 53.7118 14.2311 53.2659C14.3098 52.479 18.0343 53.0823 20.0278 55.5741" fill="#0078B8"/>
<path d="M16.2507 55.3643C14.5458 54.7085 14.1786 53.7118 14.2311 53.2659C14.3098 52.479 18.0343 53.0823 20.0278 55.5741" stroke="#0F4F72" stroke-linecap="round" stroke-linejoin="round"/>
<path d="M14.2311 51.5342C14.3623 51.5866 19.3458 52.5571 20.3688 54.1046" stroke="#0F4F72" stroke-linecap="round" stroke-linejoin="round"/>
<path d="M73.7715 51.1409C73.8764 49.9082 74.296 43.5607 75.7911 43.6394C77.2599 43.7181 77.155 46.0787 76.8927 51.2459C76.8927 51.2459 78.4927 49.9082 78.8337 52.5573C78.8337 52.5573 80.3812 52.1639 80.4599 54.3147C80.4599 54.3147 81.9812 55.9671 81.0894 57.7507C79.9091 60.1113 78.073 61.9998 74.2698 60.4261C68.7617 58.3278 69.8895 52.2164 70.4666 50.7213C71.542 49.2262 72.46 51.1672 73.037 53.4754C73.9288 53.5803 73.3518 52.9508 73.7715 51.1147V51.1409Z" fill="#0078B8"/>
<path d="M78.7813 52.6621C78.7813 52.6621 75.2141 55.5998 75.9485 56.6489C75.9485 56.6489 76.8403 57.6194 77.5222 57.0948" stroke="#0F4F72" stroke-linecap="round" stroke-linejoin="round"/>
<path d="M80.4861 54.3145C80.4861 54.3145 76.9714 56.3603 77.6009 57.3308C78.2304 58.3013 79.0698 57.8554 79.8042 57.1734" stroke="#0F4F72" stroke-linecap="round" stroke-linejoin="round"/>
<path d="M75.8435 56.4132C74.3223 56.1772 74.5321 54.5247 74.5321 54.5247C74.5321 54.5247 75.214 52.1641 76.8665 51.2461" stroke="#0F4F72" stroke-linecap="round" stroke-linejoin="round"/>
<path d="M36.7358 58.7994C36.7358 58.7994 42.48 60.3469 50.27 60.3207C58.0601 60.3207 63.7519 58.7207 63.7519 58.7207" stroke="#C1E2F3" stroke-opacity="0.16" stroke-linecap="round" stroke-linejoin="round"/>
<defs>
<radialGradient id="paint0_radial_3262_48990" cx="0" cy="0" r="1" gradientUnits="userSpaceOnUse" gradientTransform="translate(69.9987 61.8453) rotate(90) scale(5.75447 8.38388)">
<stop offset="0.57" stop-color="white"/>
<stop offset="1" stop-color="#E4F2FA"/>
</radialGradient>
<radialGradient id="paint1_radial_3262_48990" cx="0" cy="0" r="1" gradientUnits="userSpaceOnUse" gradientTransform="translate(30.6364 60.6984) rotate(90) scale(6.98063 10.3506)">
<stop offset="0.57" stop-color="white"/>
<stop offset="1" stop-color="#E4F2FA"/>
</radialGradient>
<radialGradient id="paint2_radial_3262_48990" cx="0" cy="0" r="1" gradientUnits="userSpaceOnUse" gradientTransform="translate(45.4102 84.7769) rotate(90) scale(8.97317 5.97278)">
<stop offset="0.55" stop-color="white"/>
<stop offset="1" stop-color="#E2F5FF"/>
</radialGradient>
<radialGradient id="paint3_radial_3262_48990" cx="0" cy="0" r="1" gradientUnits="userSpaceOnUse" gradientTransform="translate(60.3168 81.133) rotate(90) scale(10.2394 7.45003)">
<stop offset="0.55" stop-color="white"/>
<stop offset="1" stop-color="#E2F5FF"/>
</radialGradient>
<radialGradient id="paint4_radial_3262_48990" cx="0" cy="0" r="1" gradientUnits="userSpaceOnUse" gradientTransform="translate(50.4274 67.1928) rotate(91.132) scale(13.2764 15.1323)">
<stop offset="0.88" stop-color="white"/>
<stop offset="1" stop-color="#E6F1F8"/>
</radialGradient>
<radialGradient id="paint5_radial_3262_48990" cx="0" cy="0" r="1" gradientUnits="userSpaceOnUse" gradientTransform="translate(50.2227 33.2854) rotate(90) scale(27.0354 34.2224)">
<stop offset="0.895" stop-color="white"/>
<stop offset="1" stop-color="#E4F2FA"/>
</radialGradient>
<linearGradient id="paint6_linear_3262_48990" x1="41.6931" y1="39.5211" x2="41.6931" y2="26.8786" gradientUnits="userSpaceOnUse">
<stop stop-color="white"/>
<stop offset="1" stop-color="#66FFFF"/>
</linearGradient>
<linearGradient id="paint7_linear_3262_48990" x1="58.4798" y1="39.5211" x2="58.4798" y2="27.6131" gradientUnits="userSpaceOnUse">
<stop stop-color="white"/>
<stop offset="1" stop-color="#66FFFF"/>
</linearGradient>
<linearGradient id="paint8_linear_3262_48990" x1="50.0864" y1="38.4722" x2="50.0864" y2="43.1935" gradientUnits="userSpaceOnUse">
<stop stop-color="#66FFFF"/>
<stop offset="1" stop-color="white"/>
</linearGradient>
</defs>
</svg>
