<svg width="16" height="16" viewBox="0 0 16 16" fill="none" xmlns="http://www.w3.org/2000/svg">
<g id="btn_delete">
<g id="Group 60">
<path id="Vector" d="M12.1695 6.56516C12.1695 6.56516 11.8437 10.8324 11.6545 12.629C11.5646 13.4871 11.0616 13.9901 10.2389 14.0065C8.67308 14.0359 7.10548 14.0376 5.53961 14.003C4.74804 13.9857 4.25374 13.4768 4.16559 12.6333C3.97548 10.8203 3.65141 6.56516 3.65141 6.56516" stroke="white" stroke-linecap="round" stroke-linejoin="round"/>
<path id="Vector_2" d="M13 4.52054H2.821" stroke="white" stroke-linecap="round" stroke-linejoin="round"/>
<path id="Vector_3" d="M7.04773 11.3198V8.05408" stroke="white" stroke-linecap="round" stroke-linejoin="round"/>
<path id="Vector_4" d="M8.77606 11.3198V8.05408" stroke="white" stroke-linecap="round" stroke-linejoin="round"/>
<path id="Vector_5" d="M11.0384 4.52053C10.5674 4.52053 10.1613 4.16882 10.0688 3.68143L9.92362 2.91146C9.83288 2.55628 9.52783 2.31 9.18043 2.31H6.63979C6.29239 2.31 5.98734 2.55628 5.89747 2.91146L5.75142 3.68143C5.65896 4.16882 5.25366 4.52053 4.78183 4.52053" stroke="white" stroke-linecap="round" stroke-linejoin="round"/>
</g>
</g>
</svg>
