<svg width="20" height="20" viewBox="0 0 20 20" fill="none" xmlns="http://www.w3.org/2000/svg">
<g id="icon">
<path id="Vector" fill-rule="evenodd" clip-rule="evenodd" d="M17.113 2.88738C15.8926 1.66699 13.9285 1.66699 10.0001 1.66699C6.07171 1.66699 4.10753 1.66699 2.88714 2.88738C1.66675 4.10777 1.66675 6.07195 1.66675 10.0003C1.66675 13.9287 1.66675 15.8929 2.88714 17.1133C4.10752 18.3337 6.07171 18.3337 10.0001 18.3337C13.9285 18.3337 15.8926 18.3337 17.113 17.1133C18.3334 15.8929 18.3334 13.9287 18.3334 10.0003C18.3334 6.07195 18.3334 4.10777 17.113 2.88738ZM13.9584 10.0003C13.9584 10.3455 13.6786 10.6253 13.3334 10.6253H8.17563L9.60869 12.0584C9.85277 12.3025 9.85277 12.6982 9.60869 12.9423C9.36461 13.1863 8.96888 13.1863 8.72481 12.9423L6.22481 10.4423C6.1076 10.3251 6.04175 10.1661 6.04175 10.0003C6.04175 9.83457 6.1076 9.67559 6.22481 9.55838L8.72481 7.05838C8.96888 6.81431 9.36461 6.81431 9.60869 7.05838C9.85277 7.30246 9.85277 7.69819 9.60869 7.94227L8.17563 9.37533H13.3334C13.6786 9.37533 13.9584 9.65515 13.9584 10.0003Z" fill="#323232"/>
</g>
</svg>
