<svg width="92" height="68" viewBox="0 0 92 68" fill="none" xmlns="http://www.w3.org/2000/svg">
<g id="ai_08" clip-path="url(#clip0_1795_23272)">
<path id="Vector" d="M46.3619 51.1007C46.36 51.1313 46.358 51.1666 46.3557 51.2066C46.3467 51.3707 46.3352 51.6124 46.3257 51.9212C46.3068 52.5388 46.2959 53.4242 46.3282 54.493C46.3928 56.6318 46.6302 59.4994 47.3198 62.4231C48.7026 68.2858 51.8735 74.2735 59.0089 75.2077L59.0109 75.208C59.2976 75.2478 59.5905 75.2771 59.8925 75.2985C67.6209 75.8377 72.3854 73.4986 74.5143 69.5261C76.6541 65.5333 76.1904 59.7897 73.2192 53.3974L46.3619 51.1007ZM46.3619 51.1007C46.3868 51.0888 46.4153 51.0754 46.4471 51.0605C46.5891 50.994 46.7987 50.8976 47.0684 50.7783C47.6077 50.5396 48.3869 50.2095 49.344 49.8449C51.2591 49.1154 53.8824 48.2495 56.7207 47.6999C62.4253 46.5953 68.8649 46.7913 72.2762 51.7397C72.6208 52.2406 72.937 52.793 73.219 53.397L46.3619 51.1007Z" fill="url(#paint0_radial_1795_23272)" stroke="#BBD2E7" stroke-width="0.5"/>
<path id="Vector_2" d="M59.8759 75.5483C59.5692 75.5265 59.2707 75.4967 58.9775 75.456C66.5691 74.8236 67.3426 71.534 67.4295 64.9168C67.5191 58.1314 66.6288 54.9639 66.4795 54.7386C64.3652 51.5305 68.4175 51.0826 72.4833 51.5983C72.8361 52.1113 73.1591 52.6759 73.4468 53.292C79.418 66.1382 75.4363 76.6339 59.8759 75.5483Z" fill="#C1E2F3" fill-opacity="0.24"/>
<path id="Vector_3" d="M44.1191 52.4315C44.1191 52.4315 46.6515 67.8562 66.1936 66.9524L66.104 58.9456L49.9546 52.0244L44.1191 52.4315Z" fill="#C1E2F3" fill-opacity="0.24"/>
<path id="Vector_4" d="M42.8332 53.6879L42.8612 53.4395L42.8592 53.4392C42.6435 53.415 42.4264 53.3905 42.2144 53.3688C34.7838 52.5063 29.506 50.4073 25.9913 45.6918L25.9913 45.6918C24.8703 44.1882 23.9229 42.4104 23.1427 40.3121C21.8362 36.7921 21.07 31.276 21.7018 25.5676C22.3334 19.8602 24.3585 13.9928 28.6006 9.74001L28.6007 9.73995C36.1837 2.13273 47.8717 1.50255 51.2741 1.43201L51.2743 1.43201C52.9669 1.39556 60.5518 1.41994 68.459 2.85368C72.4128 3.57058 76.4364 4.638 79.8412 6.22026C83.2489 7.80389 86.0101 9.89088 87.4782 12.6318L87.6986 12.5138L87.4782 12.6318C91.0263 19.2549 92.2352 26.6925 91.5774 33.4181C90.9192 40.1474 88.3952 46.1395 84.5069 49.8899L84.5069 49.89C80.379 53.8734 75.2474 55.3584 68.9801 55.6013C63.5352 55.8117 57.2634 55.083 50.0726 54.2475C49.5956 54.1921 49.1146 54.1362 48.6296 54.0801L48.6294 54.0801C46.7675 53.8657 44.8419 53.6457 42.8591 53.4392L42.8332 53.6879ZM42.8332 53.6879C44.8146 53.8942 46.7389 54.114 48.6008 54.3284L25.7909 45.8412C29.3654 50.6372 34.726 52.7515 42.1872 53.6173C42.3986 53.639 42.6153 53.6634 42.832 53.6878L42.8332 53.6879Z" fill="url(#paint1_radial_1795_23272)" stroke="#BBD2E7" stroke-width="0.5"/>
<path id="Vector_5" d="M87.6985 12.5135C84.8079 7.11775 77.0752 4.27329 69.4402 2.7832C81.9987 7.2806 81.9987 18.273 81.5916 32.5225C81.3582 40.703 79.5559 50.0289 70.0129 53.362C68.0152 54.5426 62.6683 53.7067 60.7874 51.0115C59.3027 48.8808 55.1555 46.6851 55.1555 46.6851L54.7945 44.2423C54.7945 44.2423 46.3127 41.0993 43.8482 41.9814C41.9157 42.6708 45.4278 47.0243 44.6624 49.4915C44.3585 50.4714 47.9086 53.1313 48.6007 54.3309C54.5339 55.0176 59.8781 55.6717 64.6632 55.8427C64.6632 55.8427 64.6632 55.8427 64.6605 55.8427C64.9537 55.8536 65.2441 55.8617 65.5318 55.8671C65.6105 55.8671 65.6892 55.8699 65.7679 55.8726C66.0475 55.878 66.327 55.8834 66.6039 55.8834C66.6826 55.8834 66.7586 55.8834 66.8373 55.8834C67.1657 55.8834 67.4914 55.8834 67.8144 55.878C67.885 55.878 67.9528 55.878 68.0234 55.8753C68.3084 55.8699 68.5907 55.8617 68.8729 55.8536C68.9136 55.8536 68.9544 55.8536 68.9951 55.8509C75.2974 55.6066 80.4978 54.1111 84.6857 50.0697C92.5704 42.4645 94.8503 25.8564 87.7039 12.5135H87.6985Z" fill="#C1E2F3" fill-opacity="0.16"/>
<path id="Vector_6" d="M88.7516 27.3791C88.7815 31.3119 86.7594 33.9936 84.5039 34.7101C83.6978 35.1281 82.8591 35.3479 82.0965 35.3805C79.3769 35.5026 77.0101 32.1018 76.8147 27.7835C76.6192 23.4625 78.6657 19.8608 81.3853 19.736C82.1399 19.7007 82.9731 19.9341 83.858 20.2055C86.8761 21.1365 88.7272 23.6417 88.7543 27.3764L88.7516 27.3791Z" fill="#0078B8"/>
<path id="Vector_7" d="M67.4311 38.6818C67.2574 42.6771 63.6285 45.6546 59.3889 45.337L32.5023 43.3149C28.7513 43.0327 25.8824 39.8245 26.0425 36.1441L26.7944 18.8195C26.9545 15.139 30.0894 12.1914 33.8485 12.2348L60.8085 12.547C65.0616 12.5958 68.419 15.8773 68.2453 19.8726L67.4311 38.6845V38.6818Z" fill="#004367"/>
<path id="Vector_8" d="M33.1917 42.6271C29.9971 42.391 27.538 39.6524 27.6765 36.5202L28.431 19.1359C28.5667 16.001 31.251 13.4877 34.4565 13.5338L61.4897 13.9192C65.1023 13.9708 67.9603 16.7691 67.8138 20.1591L66.9995 38.9548C66.853 42.3421 63.7642 44.8799 60.1598 44.6166L33.1944 42.6298L33.1917 42.6271Z" fill="#0078B8"/>
<path id="Vector_9" d="M43.2319 27.317C43.1966 31.1168 41.3048 34.1784 39.0059 34.1594C36.707 34.1377 34.8695 31.0408 34.9048 27.241C34.9401 23.4411 36.8319 20.3795 39.1308 20.3985C41.4297 20.4202 43.2672 23.5171 43.2319 27.3143V27.317Z" fill="url(#paint2_linear_1795_23272)"/>
<path id="Vector_10" d="M59.8042 28.3238C59.7689 32.1237 57.8771 35.1853 55.5782 35.1663C53.2793 35.1445 51.4418 32.0477 51.4771 28.2478C51.5123 24.448 53.4041 21.3864 55.703 21.4054C58.002 21.4271 59.8395 24.524 59.8042 28.3211V28.3238Z" fill="url(#paint3_linear_1795_23272)"/>
<path id="Vector_11" d="M42.8704 35.7656C42.8704 35.7656 45.8995 35.9828 48.1414 35.9068C48.1414 35.9068 48.4888 39.9156 45.3566 39.8722C42.5746 39.8315 42.8704 35.7656 42.8704 35.7656Z" fill="url(#paint4_linear_1795_23272)"/>
<path id="Vector_12" d="M33.1187 14.2942C30.8225 14.6362 29.1153 16.6718 28.8574 18.2379C28.5778 19.9424 29.0718 22.3608 31.0043 21.0335C32.2176 20.2003 32.8608 17.6191 36.601 16.2566C39.5079 15.1953 36.9131 13.7297 33.1187 14.2942Z" fill="white"/>
<path id="Vector_13" d="M44.1908 53.0233L44.1908 53.0234C45.2232 53.2436 45.6782 53.4188 45.8705 53.5256C45.9055 53.5451 45.9285 53.5605 45.9431 53.5713L46.7225 58.8323C46.613 58.8704 46.4603 58.9231 46.2723 58.9868C45.8687 59.1234 45.303 59.3104 44.6548 59.5117C43.3557 59.915 41.7357 60.3723 40.4265 60.5988L40.4264 60.5988C37.4321 61.1174 33.2559 61.3044 30.0429 59.7558C28.4444 58.9853 27.0859 57.7864 26.2224 55.9796C25.3584 54.1717 24.9799 51.734 25.3807 48.4701C25.8531 46.3494 27.6545 45.2292 29.5497 44.8645C30.4962 44.6824 31.4485 44.6937 32.2362 44.8587C33.0346 45.0258 33.6179 45.3403 33.8863 45.7216C33.9319 45.7865 33.9778 45.8519 34.024 45.9178C34.8855 47.1454 35.8782 48.56 37.3711 49.8327C38.9487 51.1776 41.0763 52.3581 44.1908 53.0233Z" fill="url(#paint5_radial_1795_23272)" stroke="#BBD2E7" stroke-width="0.5"/>
<path id="Vector_14" d="M42.1514 43.6783C42.1514 43.6783 42.4364 41.9575 44.092 40.9586C45.6282 40.0331 47.0477 42.2343 47.0477 42.2343L48.983 43.4693L50.9562 43.6185C50.9562 43.6185 52.0744 42.3646 52.8208 42.3456C54.813 42.3809 54.984 44.4572 54.984 44.4572L42.1514 43.681V43.6783Z" fill="#004367"/>
<g id="Group">
<path id="Vector_15" d="M50.2098 47.1029C50.2098 47.1029 51.9008 42.4073 53.6216 43.6667C55.3396 44.9261 52.848 49.8605 51.5615 50.0803C50.275 50.3002 50.2098 47.1029 50.2098 47.1029Z" fill="#0078B8"/>
<path id="Vector_16" d="M47.3906 46.1121C47.3499 45.7403 45.9738 40.9905 44.4158 41.6989C42.8606 42.4046 44.7198 45.5747 46.1991 47.5072L47.3906 46.1121Z" fill="#0078B8"/>
<path id="Vector_17" d="M45.4853 46.9722C45.2817 46.6601 41.9216 43.0312 40.8468 44.3612C39.7747 45.6911 42.858 47.6888 45.0456 48.7527L45.4853 46.9722Z" fill="#0078B8"/>
<path id="Vector_18" d="M44.4587 49.2284C44.2117 48.9462 40.3793 45.8221 39.5026 47.2878C38.6259 48.7535 41.959 50.3033 44.2742 51.0524L44.4614 49.2284H44.4587Z" fill="#0078B8"/>
<path id="Vector_19" d="M45.7097 52.116C45.403 51.9016 40.9273 49.8035 40.4306 51.4374C39.9366 53.0714 43.5465 53.7662 45.9729 53.9291L45.7097 52.116Z" fill="#0078B8"/>
<path id="Vector_20" d="M51.2876 51.8092C50.1911 54.2764 47.599 55.5194 45.4955 54.5831C43.3948 53.6494 42.5805 50.8918 43.677 48.4246C44.7736 45.9574 47.3656 44.717 49.4691 45.6507C51.5699 46.5844 52.3841 49.342 51.2876 51.8092Z" fill="#0078B8"/>
</g>
<path id="Vector_21" d="M46.0524 51.7512L46.0806 51.6045C46.482 49.856 48.1638 47.4239 51.7129 47.5783C52.5781 47.616 53.6106 48.1967 54.7729 49.0972C55.6811 49.8007 56.6346 50.6711 57.6132 51.5645C57.877 51.8054 58.1427 52.0479 58.4098 52.2893C59.6599 53.419 60.9399 54.5219 62.178 55.2654C63.4104 56.0056 64.6538 56.4219 65.811 56.0915C66.8207 55.8039 67.6467 55.8666 68.2984 56.1336C68.9515 56.4012 69.4499 56.8822 69.7891 57.4652C70.4734 58.6416 70.4825 60.1782 69.8599 61.0992C66.771 64.6317 62.6998 65.5857 58.729 64.8803C54.7448 64.1726 50.8698 61.7931 48.2343 58.6753L48.2342 58.6752C46.1526 56.2144 45.7599 53.2676 46.0524 51.7512Z" fill="url(#paint6_radial_1795_23272)" stroke="#BBD2E7" stroke-width="0.5"/>
<path id="Vector_22" d="M41.1872 60.4379C42.6068 60.0525 44.9464 59.4418 45.4702 59.1839C45.3915 58.3805 45.1662 55.7478 45.0631 53.7122C45.0631 53.7122 41.9119 53.3132 40.7801 53.0879C40.7611 53.9211 41.0787 57.6857 41.1872 60.4379Z" fill="#C1E2F3" fill-opacity="0.24"/>
<g id="Group_2">
<path id="Vector_23" d="M31.7195 41.414C31.7195 41.414 33.1418 40.407 33.462 41.3C34.4799 44.1499 34.412 46.2995 34.2763 46.6605C34.1406 47.0215 27.6048 48.878 27.1977 47.5643C26.7906 46.2507 31.7223 41.4113 31.7223 41.4113L31.7195 41.414Z" fill="#0078B8"/>
<g id="Group_3">
<path id="Vector_24" d="M26.7695 39.2759C26.7695 39.2759 26.5524 48.0536 27.1685 48.3603C27.7874 48.667 29.9397 49.0578 30.7078 48.2843C31.4759 47.5107 31.9428 39.1104 31.9428 39.1104L26.7695 39.2759Z" fill="#FFBA00"/>
<g id="Group_4">
<path id="Vector_25" d="M38.9906 33.9283C38.9282 33.9174 38.8657 33.9174 38.8033 33.9256L33.6138 33.8197L9.39244 18.8564L4.75391 44.6086L32.539 39.5304L37.3241 41.2864C37.4055 41.3434 37.4924 41.3869 37.5846 41.4031C38.4097 41.5579 39.3923 40.0108 39.7804 37.948C40.1685 35.8852 39.8157 34.0857 38.9906 33.931V33.9283Z" fill="#FFD642"/>
<path id="Vector_26" d="M11.4195 32.6123C10.0625 39.8211 6.62901 45.2278 3.74927 44.6877C0.869524 44.1448 -0.365428 37.8615 0.991662 30.6526C2.34875 23.4411 5.78219 18.0371 8.66194 18.5772C11.5417 19.1174 12.7793 25.4034 11.4223 32.6123H11.4195Z" fill="#FFFF54"/>
<path id="Vector_27" d="M3.73554 43.5553C1.91161 42.8089 0.801506 37.5244 2.05817 30.8502C2.69058 27.4955 3.79525 24.4556 5.17134 22.287C6.31401 20.4875 7.57339 19.4751 8.46092 19.6406C8.53421 19.6542 8.60478 19.6759 8.67534 19.7031C10.4993 20.4495 11.6094 25.734 10.3527 32.4081C9.72302 35.7629 8.61563 38.8055 7.23954 40.9714C6.09687 42.7709 4.83749 43.7833 3.94996 43.6177C3.87667 43.6041 3.8061 43.5824 3.73554 43.5553Z" fill="#FFBA00"/>
</g>
<g id="Group_5">
<path id="Vector_28" d="M25.5804 40.6405C25.5804 40.6405 29.5458 39.5792 29.9882 42.6028C31.0223 43.0615 31.1282 44.5733 29.4943 45.1705C29.7983 47.1762 28.604 47.9389 25.9713 48.3433C24.9697 48.2158 24.093 45.6454 25.0593 45.3469C24.0903 44.823 24.0225 43.7374 24.5192 43.2434C23.9492 42.193 24.4567 40.8251 25.5804 40.6432V40.6405Z" fill="#0078B8"/>
<path id="Vector_29" d="M32.9248 43.0235C32.9248 43.0235 28.9811 42.2879 30.0098 40.1491C30.3056 39.5357 32.3386 39.7366 33.142 40.4314C33.6549 41.3162 33.4188 42.7412 32.9248 43.0235Z" fill="#0078B8"/>
<path id="Vector_30" d="M24.5222 43.2405C24.8208 43.0424 28.0859 41.9486 29.823 42.5375" stroke="#0F4F72" stroke-width="0.271418" stroke-linecap="round" stroke-linejoin="round"/>
<path id="Vector_31" d="M25.0594 45.3446C25.0594 45.3446 26.9594 44.6172 29.4944 45.1682" stroke="#0F4F72" stroke-width="0.271418" stroke-linecap="round" stroke-linejoin="round"/>
</g>
</g>
</g>
</g>
<defs>
<radialGradient id="paint0_radial_1795_23272" cx="0" cy="0" r="1" gradientUnits="userSpaceOnUse" gradientTransform="translate(61.0739 61.2628) rotate(90) scale(14.3624 15.0163)">
<stop offset="0.84" stop-color="white"/>
<stop offset="1" stop-color="#ECF3F8"/>
</radialGradient>
<radialGradient id="paint1_radial_1795_23272" cx="0" cy="0" r="1" gradientUnits="userSpaceOnUse" gradientTransform="translate(52.9458 28.5811) rotate(90.8779) scale(27.3991 35.4404)">
<stop offset="0.807065" stop-color="white"/>
<stop offset="1" stop-color="#ECF3F8"/>
</radialGradient>
<linearGradient id="paint2_linear_1795_23272" x1="39.0136" y1="33.7215" x2="39.1322" y2="20.6506" gradientUnits="userSpaceOnUse">
<stop stop-color="white"/>
<stop offset="1" stop-color="#66FFFF"/>
</linearGradient>
<linearGradient id="paint3_linear_1795_23272" x1="55.5855" y1="34.7295" x2="55.6972" y2="22.4185" gradientUnits="userSpaceOnUse">
<stop stop-color="white"/>
<stop offset="1" stop-color="#66FFFF"/>
</linearGradient>
<linearGradient id="paint4_linear_1795_23272" x1="45.5168" y1="35.7962" x2="45.4104" y2="39.8335" gradientUnits="userSpaceOnUse">
<stop stop-color="#66FFFF"/>
<stop offset="1" stop-color="white"/>
</linearGradient>
<radialGradient id="paint5_radial_1795_23272" cx="0" cy="0" r="1" gradientUnits="userSpaceOnUse" gradientTransform="translate(35.0039 52.8521) rotate(126.937) scale(9.44161 8.82259)">
<stop offset="0.84" stop-color="white"/>
<stop offset="1" stop-color="#ECF3F8"/>
</radialGradient>
<radialGradient id="paint6_radial_1795_23272" cx="0" cy="0" r="1" gradientUnits="userSpaceOnUse" gradientTransform="translate(58.1409 56.3341) rotate(130.849) scale(10.7419 10.3393)">
<stop offset="0.84" stop-color="white"/>
<stop offset="1" stop-color="#ECF3F8"/>
</radialGradient>
<clipPath id="clip0_1795_23272">
<rect width="92" height="68" fill="white"/>
</clipPath>
</defs>
</svg>
