<svg width="48" height="54" viewBox="0 0 48 54" fill="none" xmlns="http://www.w3.org/2000/svg">
<g id="icon" clip-path="url(#clip0_5684_50000)">
<circle id="Ellipse 1778" cx="24" cy="30.5" r="24" fill="url(#paint0_linear_5684_50000)"/>
<g id="Mask group">
<mask id="mask0_5684_50000" style="mask-type:alpha" maskUnits="userSpaceOnUse" x="-1" y="0" width="50" height="55">
<path id="Ellipse 1779" d="M48.0002 30.5C48.0002 43.7548 37.2551 54.5 24.0002 54.5C10.7454 54.5 0.000227045 43.7548 0.000227045 30.5C0.000227045 17.2452 -2.00001 0.5 24.0002 0.5C49 0.5 48.0002 17.2452 48.0002 30.5Z" fill="#FFC121"/>
</mask>
<g mask="url(#mask0_5684_50000)">
<g id="Group">
<g id="Group_2">
<path id="Vector" d="M15.6921 46.8516C16.0025 47.5523 17.1893 58.6822 21.6503 60.262C26.1097 61.8435 25.3249 55.0226 24.8537 53.9634C24.3825 52.9043 23.3195 48.6452 23.3195 48.6452L15.6905 46.8516H15.6921Z" fill="url(#paint1_radial_5684_50000)"/>
<path id="Vector_2" d="M24.8537 53.9633C24.3825 52.9042 23.3195 48.6451 23.3195 48.6451L21.98 48.3301C19.854 48.5599 17.4241 48.7737 17.4241 48.7737C17.6187 48.9585 21.8207 54.7219 25.1705 55.5271C25.0982 54.8039 24.9679 54.2173 24.8537 53.9633Z" fill="#C1E2F3" fill-opacity="0.24"/>
</g>
<path id="Vector_3" d="M10.2242 34.793C10.2242 34.793 6.25694 38.9717 6.9002 41.6509C7.54346 44.3301 14.3507 47.3838 18.5866 40.4728C20.9249 36.6557 10.2242 34.7946 10.2242 34.7946V34.793Z" fill="url(#paint2_radial_5684_50000)"/>
<path id="Vector_4" d="M37.7832 34.793C37.7832 34.793 41.7505 38.9717 41.1072 41.6509C40.4639 44.3301 31.5596 45.6159 29.4208 40.4728C27.7017 36.3391 37.7832 34.7946 37.7832 34.7946V34.793Z" fill="url(#paint3_radial_5684_50000)"/>
<path id="Vector_5" d="M16.0169 37.6311C16.0169 37.6311 13.5983 44.3444 16.6602 48.9956C18.4484 51.7118 24.0978 51.5687 24.0978 51.5687C24.0978 51.5687 29.7473 51.7118 31.5355 48.9956C34.5974 44.3444 32.1788 37.6311 32.1788 37.6311C32.1788 37.6311 23.6685 33.5568 16.0169 37.6311Z" fill="url(#paint4_radial_5684_50000)"/>
<path id="Vector_6" d="M24.4371 39.984C18.2152 39.984 16.3401 40.471 15.2289 41.2328C15.4733 39.1451 16.0185 37.6311 16.0185 37.6311C23.6716 33.5568 32.1803 37.6311 32.1803 37.6311C32.1803 37.6311 33.3768 40.9532 33.0214 44.5437C32.1578 42.2888 29.9595 39.9856 24.4387 39.9856L24.4371 39.984Z" fill="#C1E2F3" fill-opacity="0.16"/>
<path id="Vector_7" d="M6.84562 22.6661C6.84562 25.2263 5.53659 27.3028 3.922 27.3028C2.30742 27.3028 1 25.2263 1 22.6661C1 20.1058 2.30903 18.0293 3.92361 18.0293C5.53819 18.0293 6.84723 20.1058 6.84723 22.6661H6.84562Z" fill="#0078B8"/>
<path id="Vector_8" d="M41.4402 22.6661C41.4402 25.2263 42.7492 27.3028 44.3638 27.3028C45.9784 27.3028 47.2874 25.2263 47.2874 22.6661C47.2874 20.1058 45.9784 18.0293 44.3638 18.0293C42.7492 18.0293 41.4402 20.1058 41.4402 22.6661Z" fill="#0078B8"/>
<path id="Vector_9" d="M24.1429 39.234C34.1729 39.234 40.9577 35.1597 43.156 31.5146C45.3543 27.8695 46.911 17.0418 40.9577 11.3603C35.0043 5.67885 26.1611 6.10798 24.1429 6.10798C22.1247 6.10798 13.2814 5.67885 7.32808 11.3603C1.37472 17.0418 2.93141 27.8695 5.12974 31.5146C7.32808 35.1597 14.1129 39.234 24.1429 39.234Z" fill="url(#paint5_radial_5684_50000)"/>
<path id="Vector_10" d="M16.0442 12.8027H32.0276C34.3964 12.8027 36.3181 14.7249 36.3181 17.0907V28.2399C36.3181 30.6073 34.3947 32.5279 32.0276 32.5279H16.0442C13.6754 32.5279 11.7536 30.6057 11.7536 28.2399V17.0907C11.7536 14.7233 13.677 12.8027 16.0442 12.8027Z" fill="#004367"/>
<path id="Vector_11" d="M32.0276 13.4463H16.0442C14.0299 13.4463 12.3969 15.0783 12.3969 17.0914V28.2406C12.3969 30.2537 14.0299 31.8857 16.0442 31.8857H32.0276C34.0419 31.8857 35.6749 30.2537 35.6749 28.2406V17.0914C35.6749 15.0783 34.0419 13.4463 32.0276 13.4463Z" fill="#0078B8"/>
<path id="Vector_12" d="M22.6408 26.1959C22.6408 26.1959 24.0608 26.0561 25.4293 26.1959C25.4293 26.1959 25.6142 27.3949 24.1138 27.5026C22.3722 27.6263 22.6408 26.1959 22.6408 26.1959Z" fill="url(#paint6_linear_5684_50000)"/>
<path id="Vector_13" d="M15.6598 14.4021C14.3009 14.6158 13.2991 15.8309 13.1559 16.7614C12.9999 17.7724 13.3055 19.2012 14.4424 18.4056C15.1581 17.9058 15.5231 16.3741 17.7327 15.5464C19.4486 14.9035 17.9032 14.0485 15.6598 14.4021Z" fill="white"/>
<path id="Vector_14" d="M22.6795 25.86C22.6795 25.86 24.0995 25.7202 25.468 25.86C25.468 25.86 25.6529 27.059 24.1525 27.1667C22.4109 27.2904 22.6795 25.86 22.6795 25.86Z" fill="url(#paint7_linear_5684_50000)"/>
<path id="Vector_15" d="M21.0857 24.9695C21.0857 24.9695 21.0777 24.9695 21.0729 24.9695L16.9994 24.8618C16.7325 24.8554 16.5234 24.6336 16.5299 24.3668C16.5363 24.1 16.7598 23.8943 17.0252 23.8975L19.6561 23.9666L16.6038 21.5429C16.3948 21.3774 16.361 21.0736 16.5266 20.8647C16.6923 20.6558 16.9962 20.622 17.2053 20.7875L21.3865 24.1096C21.5489 24.2382 21.61 24.4568 21.5392 24.6513C21.4701 24.8425 21.2884 24.9679 21.0857 24.9679V24.9695Z" fill="url(#paint8_linear_5684_50000)"/>
<path id="Vector_16" d="M27.0889 24.9693C26.8863 24.9693 26.7046 24.8424 26.6354 24.6527C26.5647 24.4582 26.6258 24.2397 26.7882 24.1111L30.9694 20.789C31.1784 20.6235 31.4808 20.6588 31.648 20.8661C31.8137 21.0751 31.7799 21.3772 31.5708 21.5444L28.5186 23.968L31.1495 23.8989C31.4148 23.8957 31.6384 24.1014 31.6448 24.3682C31.6512 24.635 31.4422 24.8552 31.1752 24.8632L27.1018 24.9709C27.1018 24.9709 27.0937 24.9709 27.0889 24.9709V24.9693Z" fill="url(#paint9_linear_5684_50000)"/>
<g id="Group_3">
<path id="Vector_17" d="M17.1667 3.98242L15.9605 8.45526C15.9605 8.45526 19.9938 10.678 24.1219 10.678C28.25 10.678 32.2832 8.45526 32.2832 8.45526L31.0771 3.98242H17.1667Z" fill="#303051"/>
<path id="Vector_18" d="M24.027 1.38379L15.0214 2.96367V3.84763L24.027 5.54001L33.0326 3.84763V2.96367L24.027 1.38379Z" fill="#303051"/>
<path id="Vector_19" d="M24.027 0.5L15.0214 2.96384L24.027 4.65622L33.0326 2.96384L24.027 0.5Z" fill="#3C3C68"/>
<path id="Vector (Stroke)" fill-rule="evenodd" clip-rule="evenodd" d="M15.0039 3.74316L15.3572 3.93059L15.3556 3.93369L15.3508 3.94258L15.3324 3.97692C15.3162 4.00697 15.2923 4.0511 15.2612 4.10779C15.199 4.22116 15.1082 4.38478 14.993 4.58645C14.7628 4.98967 14.4351 5.54551 14.0453 6.15614C13.2692 7.37218 12.235 8.82464 11.2265 9.71334L10.962 9.41323C11.9251 8.56454 12.9341 7.15378 13.7082 5.94094C14.0936 5.33712 14.4178 4.78711 14.6457 4.38809C14.7596 4.18863 14.8493 4.02703 14.9105 3.91546C14.9411 3.85968 14.9645 3.81642 14.9803 3.78719L14.998 3.75407L15.0025 3.74576L15.0039 3.74316Z" fill="#3C3C68"/>
<path id="Vector_20" d="M8.95221 10.3701C8.95221 10.3701 11.0283 7.77443 12.2087 8.52339C13.3891 9.27234 10.6585 11.8471 10.6585 11.8471L8.95221 10.3701Z" fill="#3C3C68"/>
</g>
<g id="Group_4">
<path id="Vector_21" d="M39.4347 32.925C39.4347 32.925 41.9836 27.97 39.3977 27.5923C36.8118 27.2146 36.048 32.8896 36.048 32.8896L39.4331 32.925H39.4347Z" fill="#0078B8"/>
<g id="Group_5">
<path id="Vector_22" d="M41.6572 33.748C41.6572 33.748 39.7065 31.485 36.2796 32.4895C34.9914 32.8672 35.3066 34.6432 35.8357 34.8473C35.8357 34.8473 33.528 36.1363 35.0799 37.6872C35.0799 37.6872 33.8513 38.5455 34.8001 39.7509C34.8001 39.7509 34.1681 40.5754 34.9818 41.1411C37.6465 42.991 39.6985 41.395 40.5379 39.3716C41.4385 37.1986 42.6189 35.4066 41.6572 33.748Z" fill="#0078B8"/>
<path id="Vector_23" d="M40.6617 36.8673C40.6022 36.623 39.9558 35.694 38.7561 35.191C37.558 34.6879 35.8357 34.8486 35.8357 34.8486" stroke="#0F4F72" stroke-width="0.3" stroke-linecap="round" stroke-linejoin="round"/>
<path id="Vector_24" d="M39.8915 39.1266C39.832 38.8823 38.4876 37.8472 37.5902 37.6335C36.0625 37.2686 35.0799 37.6881 35.0799 37.6881" stroke="#0F4F72" stroke-width="0.3" stroke-linecap="round" stroke-linejoin="round"/>
<path id="Vector_25" d="M39.0938 40.9102C39.0938 40.9102 36.138 38.7759 34.8 39.7514" stroke="#0F4F72" stroke-width="0.3" stroke-linecap="round" stroke-linejoin="round"/>
</g>
<path id="Vector_26" d="M39.5859 32.6868C39.4862 32.616 37.0965 32.0198 36.2795 32.4891" stroke="#0F4F72" stroke-width="0.3" stroke-linecap="round" stroke-linejoin="round"/>
</g>
<g id="Group_6">
<path id="Vector_27" d="M8.39751 32.925C8.39751 32.925 5.8486 27.97 8.4345 27.5923C11.0204 27.2146 11.7843 32.8896 11.7843 32.8896L8.39912 32.925H8.39751Z" fill="#0078B8"/>
<g id="Group_7">
<path id="Vector_28" d="M6.17504 33.748C6.17504 33.748 8.12572 31.485 11.5527 32.4895C12.8408 32.8672 12.5256 34.6432 11.9965 34.8473C11.9965 34.8473 14.3042 36.1363 12.7524 37.6872C12.7524 37.6872 13.981 38.5455 13.0322 39.7509C13.0322 39.7509 13.6642 40.5754 12.8505 41.1411C10.1858 42.991 8.13376 41.395 7.29431 39.3716C6.39375 37.1986 5.21337 35.4066 6.17504 33.748Z" fill="#0078B8"/>
<path id="Vector_29" d="M7.16885 36.8673C7.22836 36.623 7.87483 35.694 9.07451 35.191C10.2726 34.6879 11.9949 34.8486 11.9949 34.8486" stroke="#0F4F72" stroke-width="0.3" stroke-linecap="round" stroke-linejoin="round"/>
<path id="Vector_30" d="M7.93918 39.1266C7.99868 38.8823 9.34309 37.8472 10.2404 37.6335C11.7682 37.2686 12.7508 37.6881 12.7508 37.6881" stroke="#0F4F72" stroke-width="0.3" stroke-linecap="round" stroke-linejoin="round"/>
<path id="Vector_31" d="M8.7384 40.9102C8.7384 40.9102 11.6942 38.7759 13.0322 39.7514" stroke="#0F4F72" stroke-width="0.3" stroke-linecap="round" stroke-linejoin="round"/>
</g>
<path id="Vector_32" d="M8.24469 32.6868C8.3444 32.616 10.7341 32.0198 11.551 32.4891" stroke="#0F4F72" stroke-width="0.3" stroke-linecap="round" stroke-linejoin="round"/>
</g>
<g id="Group_8">
<path id="Vector_33" d="M32.2302 52.9678C32.4441 52.4181 31.8619 46.2079 28.6875 45.0137C25.5146 43.8196 24.3841 47.0051 24.7427 49.2117C25.3682 53.061 29.8823 59.0012 32.2302 52.9662V52.9678Z" fill="url(#paint10_radial_5684_50000)"/>
<path id="Vector_34" d="M26.8832 53.8264C29.4144 54.1382 31.6192 50.8708 32.0582 50.6152C32.2801 51.8078 32.3091 52.7657 32.2303 52.9666C30.7974 56.6535 28.554 55.8708 26.8832 53.8264Z" fill="#0078B8"/>
<path id="Vector_35" d="M26.5004 53.3238C25.6223 52.083 24.9565 50.5273 24.7427 49.2142C24.5175 47.8272 24.8793 46.056 25.9665 45.2251C26.346 45.0724 26.777 45.0435 27.2594 45.1769C27.4781 45.2364 29.8405 45.6414 30.2329 48.2081C30.5593 50.3441 28.5218 53.2515 26.4988 53.3222L26.5004 53.3238Z" fill="white" fill-opacity="0.8"/>
</g>
<path id="Vector_36" d="M25.2878 51.4818C25.2878 51.2407 23.3516 47.2484 25.968 45.2266" stroke="#417794" stroke-width="0.3" stroke-linecap="round" stroke-linejoin="round"/>
</g>
</g>
</g>
</g>
<defs>
<linearGradient id="paint0_linear_5684_50000" x1="23.9864" y1="111.493" x2="23.9864" y2="-6.14595" gradientUnits="userSpaceOnUse">
<stop stop-color="white"/>
<stop offset="1" stop-color="#66FFFF"/>
</linearGradient>
<radialGradient id="paint1_radial_5684_50000" cx="0" cy="0" r="1" gradientUnits="userSpaceOnUse" gradientTransform="translate(20.4586 52.975) rotate(76.4692) scale(6.52968 4.67065)">
<stop offset="0.489974" stop-color="white"/>
<stop offset="1" stop-color="#ECF3F8"/>
</radialGradient>
<radialGradient id="paint2_radial_5684_50000" cx="0" cy="0" r="1" gradientUnits="userSpaceOnUse" gradientTransform="translate(12.0961 40.1176) rotate(116.579) scale(5.57106 5.23341)">
<stop offset="0.563297" stop-color="white"/>
<stop offset="1" stop-color="#ECF3F8"/>
</radialGradient>
<radialGradient id="paint3_radial_5684_50000" cx="0" cy="0" r="1" gradientUnits="userSpaceOnUse" gradientTransform="translate(36.4597 39.3944) rotate(52.7489) scale(5.0478 4.80905)">
<stop offset="0.623136" stop-color="white"/>
<stop offset="1" stop-color="#ECF3F8"/>
</radialGradient>
<radialGradient id="paint4_radial_5684_50000" cx="0" cy="0" r="1" gradientUnits="userSpaceOnUse" gradientTransform="translate(24.0978 43.6952) rotate(94.2189) scale(7.93525 9.05682)">
<stop offset="0.751407" stop-color="white"/>
<stop offset="1" stop-color="#ECF3F8"/>
</radialGradient>
<radialGradient id="paint5_radial_5684_50000" cx="0" cy="0" r="1" gradientUnits="userSpaceOnUse" gradientTransform="translate(24.1429 22.6673) rotate(90.1317) scale(17.3446 21.9606)">
<stop offset="0.836294" stop-color="white"/>
<stop offset="1" stop-color="#ECF3F8"/>
</radialGradient>
<linearGradient id="paint6_linear_5684_50000" x1="24.0318" y1="25.8407" x2="24.0318" y2="28.7385" gradientUnits="userSpaceOnUse">
<stop stop-color="#66FFFF"/>
<stop offset="1" stop-color="white"/>
</linearGradient>
<linearGradient id="paint7_linear_5684_50000" x1="24.0689" y1="25.5064" x2="24.0689" y2="28.4026" gradientUnits="userSpaceOnUse">
<stop stop-color="#66FFFF"/>
<stop offset="1" stop-color="white"/>
</linearGradient>
<linearGradient id="paint8_linear_5684_50000" x1="18.9935" y1="30.0595" x2="18.9935" y2="19.5532" gradientUnits="userSpaceOnUse">
<stop stop-color="white"/>
<stop offset="1" stop-color="#66FFFF"/>
</linearGradient>
<linearGradient id="paint9_linear_5684_50000" x1="29.1795" y1="30.0593" x2="29.1795" y2="19.5531" gradientUnits="userSpaceOnUse">
<stop stop-color="white"/>
<stop offset="1" stop-color="#66FFFF"/>
</linearGradient>
<radialGradient id="paint10_radial_5684_50000" cx="0" cy="0" r="1" gradientUnits="userSpaceOnUse" gradientTransform="translate(28.4993 50.1616) rotate(69.5394) scale(5.06049 3.63603)">
<stop offset="0.596548" stop-color="white"/>
<stop offset="1" stop-color="#ECF3F8"/>
</radialGradient>
<clipPath id="clip0_5684_50000">
<rect width="48" height="54" fill="white"/>
</clipPath>
</defs>
</svg>
