<svg width="12" height="12" viewBox="0 0 12 12" fill="none" xmlns="http://www.w3.org/2000/svg">
<g id="icon">
<g clip-path="url(#clip0_5658_4228)">
<circle id="Vector" cx="6" cy="6" r="1.5" stroke="#FF0000"/>
<path id="Vector_2" d="M6.88268 1.07612C6.69891 1 6.46594 1 5.99999 1C5.53405 1 5.30108 1 5.11731 1.07612C4.87228 1.17761 4.67761 1.37229 4.57611 1.61732C4.52978 1.72917 4.51165 1.85925 4.50456 2.049C4.49413 2.32784 4.35113 2.58595 4.10947 2.72547C3.86782 2.86498 3.57279 2.85977 3.3261 2.72938C3.15822 2.64065 3.0365 2.59131 2.91647 2.57551C2.65352 2.54089 2.38759 2.61215 2.17718 2.7736C2.01937 2.89469 1.90289 3.09645 1.66992 3.49997C1.43695 3.90348 1.32046 4.10524 1.2945 4.30245C1.25988 4.5654 1.33113 4.83133 1.49259 5.04174C1.56628 5.13778 1.66985 5.21851 1.83059 5.31951C2.0669 5.46799 2.21895 5.72093 2.21893 6.00001C2.21891 6.27906 2.06687 6.53196 1.83059 6.68042C1.66982 6.78144 1.56624 6.86218 1.49254 6.95823C1.33109 7.16864 1.25983 7.43457 1.29445 7.69751C1.32041 7.89472 1.4369 8.09648 1.66987 8.5C1.90284 8.90352 2.01932 9.10528 2.17713 9.22637C2.38754 9.38782 2.65347 9.45907 2.91642 9.42446C3.03645 9.40866 3.15816 9.35932 3.32602 9.2706C3.57274 9.1402 3.86778 9.13499 4.10945 9.27452C4.35112 9.41405 4.49413 9.67217 4.50456 9.95103C4.51165 10.1408 4.52979 10.2708 4.57611 10.3827C4.67761 10.6277 4.87228 10.8224 5.11731 10.9239C5.30108 11 5.53405 11 5.99999 11C6.46594 11 6.69891 11 6.88268 10.9239C7.12771 10.8224 7.32238 10.6277 7.42387 10.3827C7.47021 10.2708 7.48834 10.1407 7.49543 9.95099C7.50586 9.67215 7.64885 9.41405 7.89049 9.27452C8.13216 9.13497 8.42721 9.14018 8.67394 9.27058C8.84179 9.35929 8.9635 9.40862 9.08352 9.42442C9.34647 9.45904 9.6124 9.38778 9.82281 9.22633C9.98062 9.10524 10.0971 8.90348 10.3301 8.49997C10.563 8.09645 10.6795 7.89469 10.7055 7.69748C10.7401 7.43453 10.6689 7.1686 10.5074 6.95819C10.4337 6.86215 10.3301 6.78141 10.1694 6.6804C9.93308 6.53193 9.78104 6.27902 9.78106 5.99996C9.78107 5.72092 9.9331 5.46804 10.1694 5.31959C10.3302 5.21857 10.4337 5.13783 10.5074 5.04177C10.6689 4.83136 10.7402 4.56543 10.7055 4.30249C10.6796 4.10528 10.5631 3.90352 10.3301 3.5C10.0971 3.09648 9.98066 2.89472 9.82286 2.77363C9.61245 2.61218 9.34652 2.54092 9.08357 2.57554C8.96354 2.59134 8.84183 2.64068 8.67397 2.7294C8.42725 2.8598 8.13221 2.86501 7.89054 2.72548C7.64887 2.58595 7.50586 2.32783 7.49543 2.04897C7.48833 1.85924 7.4702 1.72917 7.42387 1.61732C7.32238 1.37229 7.12771 1.17761 6.88268 1.07612Z" stroke="#FF0000"/>
</g>
</g>
<defs>
<clipPath id="clip0_5658_4228">
<rect width="12" height="12" rx="5" fill="white"/>
</clipPath>
</defs>
</svg>
