<svg width="20" height="20" viewBox="0 0 20 20" fill="none" xmlns="http://www.w3.org/2000/svg">
<g id="icon">
<path id="Vector" fill-rule="evenodd" clip-rule="evenodd" d="M17.113 2.88738C15.8926 1.66699 13.9284 1.66699 10 1.66699C6.07165 1.66699 4.10746 1.66699 2.88708 2.88738C1.66669 4.10777 1.66669 6.07195 1.66669 10.0003C1.66669 13.9287 1.66669 15.8929 2.88708 17.1133C4.10746 18.3337 6.07165 18.3337 10 18.3337C13.9284 18.3337 15.8926 18.3337 17.113 17.1133C18.3334 15.8929 18.3334 13.9287 18.3334 10.0003C18.3334 6.07195 18.3334 4.10777 17.113 2.88738ZM13.9584 10.0003C13.9584 10.3455 13.6785 10.6253 13.3334 10.6253H8.17557L9.60863 12.0584C9.85271 12.3025 9.85271 12.6982 9.60863 12.9423C9.36455 13.1863 8.96882 13.1863 8.72474 12.9423L6.22475 10.4423C6.10753 10.3251 6.04169 10.1661 6.04169 10.0003C6.04169 9.83457 6.10753 9.67559 6.22475 9.55838L8.72474 7.05838C8.96882 6.81431 9.36455 6.81431 9.60863 7.05838C9.85271 7.30246 9.85271 7.69819 9.60863 7.94227L8.17557 9.37533H13.3334C13.6785 9.37533 13.9584 9.65515 13.9584 10.0003Z" fill="#C8C8C8"/>
</g>
</svg>
