<svg width="12" height="12" viewBox="0 0 12 12" fill="none" xmlns="http://www.w3.org/2000/svg">
<g id="courseware_icon">
<path id="Vector" fill-rule="evenodd" clip-rule="evenodd" d="M11 6C11 3.23858 8.76142 1 6 1C3.23858 1 1 3.23858 1 6C1 8.76142 3.23858 11 6 11C8.76142 11 11 8.76142 11 6ZM6 3.125C6.20711 3.125 6.375 3.29289 6.375 3.5V6.5C6.375 6.70711 6.20711 6.875 6 6.875C5.79289 6.875 5.625 6.70711 5.625 6.5V3.5C5.625 3.29289 5.79289 3.125 6 3.125ZM6 8.5C6.27614 8.5 6.5 8.27614 6.5 8C6.5 7.72386 6.27614 7.5 6 7.5C5.72386 7.5 5.5 7.72386 5.5 8C5.5 8.27614 5.72386 8.5 6 8.5Z" fill="#555555"/>
</g>
</svg>
