<svg width="20" height="20" viewBox="0 0 20 20" fill="none" xmlns="http://www.w3.org/2000/svg">
<g id="icon">
<path id="Union" fill-rule="evenodd" clip-rule="evenodd" d="M8.66708 1.25C4.57011 1.25 1.25 4.57063 1.25 8.66708C1.25 12.7628 4.57017 16.0833 8.66708 16.0833C10.4513 16.0833 12.0882 15.4533 13.3677 14.4037C13.3964 14.4486 13.4304 14.4911 13.4697 14.5303L17.4697 18.5303C17.7626 18.8232 18.2374 18.8232 18.5303 18.5303C18.8232 18.2374 18.8232 17.7626 18.5303 17.4697L14.5303 13.4697C14.4911 13.4304 14.4486 13.3964 14.4036 13.3677C15.4533 12.0882 16.0833 10.4511 16.0833 8.66708C16.0833 4.57069 12.7633 1.25 8.66708 1.25ZM2.75 8.66708C2.75 5.39899 5.3986 2.75 8.66708 2.75C11.9347 2.75 14.5833 5.39893 14.5833 8.66708C14.5833 11.9343 11.9347 14.5833 8.66708 14.5833C5.39854 14.5833 2.75 11.9343 2.75 8.66708Z" fill="#555555"/>
</g>
</svg>
