<svg width="20" height="20" viewBox="0 0 20 20" fill="none" xmlns="http://www.w3.org/2000/svg">
<g id="icon_switch">
<path id="Vector" d="M10 5C10.3956 5 10.7822 4.8827 11.1111 4.66294C11.44 4.44318 11.6964 4.13082 11.8478 3.76537C11.9991 3.39992 12.0387 2.99778 11.9616 2.60982C11.8844 2.22186 11.6939 1.86549 11.4142 1.58579C11.1345 1.30608 10.7781 1.1156 10.3902 1.03843C10.0022 0.96126 9.60009 1.00087 9.23463 1.15224C8.86918 1.30362 8.55682 1.55996 8.33706 1.88886C8.1173 2.21776 8 2.60444 8 3C8.00188 3.52985 8.2132 4.03747 8.58787 4.41213C8.96253 4.7868 9.47015 4.99812 10 5Z" fill="#999999"/>
<path id="Vector_2" d="M10 12C10.3956 12 10.7822 11.8827 11.1111 11.6629C11.44 11.4432 11.6964 11.1308 11.8478 10.7654C11.9991 10.3999 12.0387 9.99778 11.9616 9.60982C11.8844 9.22186 11.6939 8.86549 11.4142 8.58579C11.1345 8.30608 10.7781 8.1156 10.3902 8.03843C10.0022 7.96126 9.60009 8.00087 9.23463 8.15224C8.86918 8.30362 8.55682 8.55996 8.33706 8.88886C8.1173 9.21776 8 9.60444 8 10C8.00188 10.5299 8.2132 11.0375 8.58787 11.4121C8.96253 11.7868 9.47015 11.9981 10 12Z" fill="#999999"/>
<path id="Vector_3" d="M10 19C10.3956 19 10.7822 18.8827 11.1111 18.6629C11.44 18.4432 11.6964 18.1308 11.8478 17.7654C11.9991 17.3999 12.0387 16.9978 11.9616 16.6098C11.8844 16.2219 11.6939 15.8655 11.4142 15.5858C11.1345 15.3061 10.7781 15.1156 10.3902 15.0384C10.0022 14.9613 9.60009 15.0009 9.23463 15.1522C8.86918 15.3036 8.55682 15.56 8.33706 15.8889C8.1173 16.2178 8 16.6044 8 17C8.00188 17.5299 8.2132 18.0375 8.58787 18.4121C8.96253 18.7868 9.47015 18.9981 10 19Z" fill="#999999"/>
</g>
</svg>
