<svg width="16" height="16" viewBox="0 0 16 16" fill="none" xmlns="http://www.w3.org/2000/svg">
<g id="icon" clip-path="url(#clip0_1836_8196)">
<path id="Vector" d="M13.3332 14.6663V10.6663C13.3332 7.72082 10.9454 5.33301 7.99984 5.33301C5.05432 5.33301 2.6665 7.72082 2.6665 10.6663V14.6663" stroke="#FFC121"/>
<path id="Vector_2" d="M9.52686 7.66699C10.1953 7.93758 10.7291 8.47135 10.9997 9.13982" stroke="#FFC121" stroke-linecap="round"/>
<path id="Vector_3" d="M1.3335 14.667H14.6668" stroke="#FFC121" stroke-linecap="round"/>
<path id="Vector_4" d="M8 1.33301V3.33301" stroke="#FFC121" stroke-linecap="round"/>
<path id="Vector_5" d="M14 4L13 5" stroke="#FFC121" stroke-linecap="round"/>
<path id="Vector_6" d="M2 4L3 5" stroke="#FFC121" stroke-linecap="round"/>
<path id="Vector_7" d="M9 11.667C9 12.2193 8.55228 12.667 8 12.667C7.44772 12.667 7 12.2193 7 11.667C7 11.1147 7.44772 10.667 8 10.667C8.55228 10.667 9 11.1147 9 11.667Z" stroke="#FFC121"/>
<path id="Vector_8" d="M8 12.667V14.667" stroke="#FFC121" stroke-linecap="round"/>
</g>
<defs>
<clipPath id="clip0_1836_8196">
<rect width="16" height="16" fill="white"/>
</clipPath>
</defs>
</svg>
