<svg width="32" height="32" viewBox="0 0 32 32" fill="none" xmlns="http://www.w3.org/2000/svg">
<g id="Group">
<path id="Vector" d="M11.7089 24.0782C11.5249 24.3829 11.0582 24.7802 10.0466 25.233L10.0044 25.2519L9.97178 25.2846C9.0271 26.231 7.75395 26.3241 6.71959 25.7521L6.71956 25.7521C6.6313 25.7033 6.52316 25.6022 6.41141 25.4445C6.30178 25.2897 6.19842 25.0941 6.11407 24.8752C5.94381 24.4332 5.86266 23.9271 5.93718 23.5051L11.7089 24.0782ZM11.7089 24.0782L11.7289 24.0414C11.8286 23.858 11.8269 23.708 11.782 23.578C11.7334 23.4375 11.6268 23.3011 11.4864 23.1762C11.3479 23.053 11.1912 22.954 11.0662 22.885C11.0044 22.8509 10.9519 22.8249 10.9153 22.8077C10.8971 22.7991 10.8829 22.7928 10.8737 22.7887L10.8685 22.7865C10.8588 22.7829 10.8496 22.7788 10.841 22.7744L10.8289 22.7683L10.8291 22.768C10.8085 22.7561 10.7631 22.7259 10.7083 22.6896C10.6944 22.6803 10.6798 22.6706 10.6649 22.6607C10.5843 22.6073 10.4762 22.5362 10.3478 22.4546C10.0906 22.2912 9.75394 22.0869 9.39794 21.9007C9.0399 21.7134 8.67227 21.5497 8.3515 21.4618C8.01429 21.3693 7.79901 21.3803 7.68913 21.4457L7.64916 21.4695L7.60428 21.4772C7.60414 21.4772 7.60397 21.4773 7.60375 21.4773L7.59598 21.4789C7.58818 21.4805 7.57526 21.4835 7.55786 21.488C7.52304 21.497 7.47051 21.5123 7.4053 21.5366C7.27465 21.5853 7.09491 21.6692 6.90486 21.8087C6.5298 22.0841 6.09975 22.5865 5.93719 23.505L11.7089 24.0782Z" fill="url(#paint0_radial_5551_7341)" stroke="#BBD2E7" stroke-width="0.5"/>
<path id="Vector_2" d="M10.9584 22.5532C10.9584 22.5532 10.9573 22.5532 10.9551 22.552C10.8725 22.5275 9.53479 22.1271 8.07492 21.7725C8.64148 22.0167 8.7669 22.7818 8.91871 23.4989C9.09693 24.3331 8.59308 25.7328 6.84387 26.0919C7.922 26.5737 9.19375 26.4187 10.1498 25.4618C11.2136 24.9856 11.7405 24.5462 11.9507 24.1614C11.8913 23.2491 10.9595 22.5532 10.9595 22.5532H10.9584Z" fill="#C1E2F3" fill-opacity="0.24"/>
<path id="Vector_3" d="M20.9714 22.2204C21.0349 22.2473 21.0868 22.2701 21.1265 22.2879C21.1353 22.3153 21.1457 22.3481 21.1574 22.3862C21.1974 22.5162 21.2527 22.7065 21.3127 22.9454C21.4328 23.4236 21.5716 24.0942 21.646 24.863C21.7956 26.4079 21.6819 28.3118 20.6796 29.8562C20.1287 30.705 18.952 31.1368 17.8402 31.3462C17.2946 31.449 16.7848 31.4945 16.411 31.5143C16.2244 31.5241 16.0723 31.5275 15.9674 31.5285C15.915 31.5289 15.8744 31.5288 15.8472 31.5285L15.8168 31.5281L15.8095 31.528L15.8079 31.528L15.8076 31.528L15.8076 31.5276L15.7949 31.528L15.7949 31.528L15.7948 31.528L15.7946 31.528L15.793 31.528L15.7857 31.5281L15.7552 31.5285C15.728 31.5288 15.6874 31.5289 15.635 31.5285C15.5301 31.5275 15.3781 31.5241 15.1914 31.5143C14.8176 31.4945 14.3079 31.449 13.7622 31.3462C12.6504 31.1368 11.4737 30.705 10.9228 29.8562C9.92052 28.3118 9.80686 26.4079 9.95644 24.863C10.0309 24.0942 10.1696 23.4236 10.2897 22.9454C10.3498 22.7065 10.405 22.5162 10.445 22.3862C10.4579 22.3443 10.4692 22.3088 10.4785 22.2799C13.0039 20.9483 15.6681 20.9483 17.7228 21.2925C18.7606 21.4663 19.6378 21.7272 20.2549 21.9444C20.5633 22.0529 20.8063 22.1504 20.9714 22.2204Z" fill="url(#paint1_radial_5551_7341)" stroke="#BBD2E7" stroke-width="0.5"/>
<path id="Vector_4" d="M20.8893 29.9923C21.9663 26.1981 19.4063 23.5003 15.337 23.6687C11.0839 23.8449 10.4942 24.078 9.73291 24.6055C9.90013 23.1568 10.2731 22.1062 10.2731 22.1062C15.5086 19.2789 21.3294 22.1062 21.3294 22.1062C21.3294 22.1062 22.984 26.7647 20.8893 29.9923Z" fill="#C1E2F3" fill-opacity="0.16"/>
<path id="Vector_5" d="M3.99897 11.7215C3.99897 13.4981 3.10346 14.9391 1.99893 14.9391C0.894404 14.9391 0 13.4981 0 11.7215C0 9.94485 0.895504 8.50391 2.00003 8.50391C3.10456 8.50391 4.00007 9.94485 4.00007 11.7215H3.99897Z" fill="#0078B8"/>
<path id="Vector_6" d="M27.6649 11.7215C27.6649 13.4981 28.5604 14.9391 29.6649 14.9391C30.7695 14.9391 31.665 13.4981 31.665 11.7215C31.665 9.94485 30.7695 8.50391 29.6649 8.50391C28.5604 8.50391 27.6649 9.94485 27.6649 11.7215Z" fill="#0078B8"/>
<path id="Vector_7" d="M28.6238 17.7333C27.1801 20.1617 22.6393 22.9678 15.8319 22.9678C9.02447 22.9678 4.48373 20.1617 3.03998 17.7333C2.3186 16.52 1.68154 14.0591 1.73577 11.4033C1.78992 8.75113 2.53212 5.96283 4.50285 4.05508C8.27046 0.408877 13.7759 0.461726 15.5575 0.478828C15.6622 0.479833 15.754 0.480715 15.8319 0.480715C15.9098 0.480715 16.0016 0.479833 16.1063 0.478828C17.888 0.461727 23.3944 0.408876 27.161 4.05508C29.1317 5.96283 29.8739 8.75113 29.928 11.4033C29.9823 14.0591 29.3452 16.52 28.6238 17.7333Z" fill="url(#paint2_radial_5551_7341)" stroke="#BBD2E7" stroke-width="0.5"/>
<path id="Vector_8" d="M21.2259 4.87695H10.2917C8.67068 4.87695 7.35657 6.20916 7.35657 7.85252V15.5892C7.35657 17.2326 8.67068 18.5648 10.2917 18.5648H21.2259C22.8469 18.5648 24.161 17.2326 24.161 15.5892V7.85252C24.161 6.20916 22.8469 4.87695 21.2259 4.87695Z" fill="#004367"/>
<path id="Vector_9" d="M10.6218 5.43457H21.556C22.9333 5.43457 24.0511 6.5677 24.0511 7.96403V15.7007C24.0511 17.0971 22.9333 18.2302 21.556 18.2302H10.6218C9.24444 18.2302 8.12671 17.0971 8.12671 15.7007V7.96403C8.12671 6.5677 9.24444 5.43457 10.6218 5.43457Z" fill="#0078B8"/>
<path id="Vector_10" d="M13.954 11.7218C13.954 13.2832 13.1983 14.549 12.2665 14.549C11.3346 14.549 10.5789 13.2832 10.5789 11.7218C10.5789 10.1604 11.3346 8.89453 12.2665 8.89453C13.1983 8.89453 13.954 10.1604 13.954 11.7218Z" fill="url(#paint3_linear_5551_7341)"/>
<path id="Vector_11" d="M20.9399 11.7218C20.9399 13.2832 20.1841 14.549 19.2523 14.549C18.3205 14.549 17.5647 13.2832 17.5647 11.7218C17.5647 10.1604 18.3205 8.89453 19.2523 8.89453C20.1841 8.89453 20.9399 10.1604 20.9399 11.7218Z" fill="url(#paint4_linear_5551_7341)"/>
<path id="Vector_12" d="M15.0244 15.0073C15.0244 15.0073 16.5404 15.6653 17.5085 14.4697" stroke="#66F3FF" stroke-width="0.8" stroke-linecap="round" stroke-linejoin="round"/>
<g id="Group_2">
<path id="Vector_13" opacity="0.57" d="M15.558 12.1122C15.1059 15.0644 12.3776 17.0853 9.46662 16.6269C6.55458 16.1685 4.56115 13.4037 5.0133 10.4516C5.46545 7.49942 8.19377 5.47853 11.1047 5.93691C14.0167 6.39529 16.0102 9.16007 15.558 12.1122Z" fill="#61FBFF"/>
<path id="Vector_14" d="M11.1564 5.60723C10.866 5.56151 10.5711 5.53809 10.2796 5.53809C7.47098 5.53809 5.12001 7.58351 4.68766 10.4007C4.2223 13.4376 6.20583 16.2983 9.14538 16.9084L8.85714 18.7887L9.40061 18.8746L9.68884 16.9943C9.89016 17.0166 10.0915 17.0277 10.2928 17.0277C13.1014 17.0277 15.4524 14.9823 15.8848 12.1651C16.3644 9.03561 14.2434 6.0935 11.1564 5.60723ZM15.2324 12.0625C14.8506 14.5518 12.7736 16.3585 10.2928 16.3585C10.0354 16.3585 9.77465 16.3385 9.51722 16.2972C6.79 15.8678 4.91538 13.2681 5.34003 10.5033C5.72178 8.01401 7.79882 6.20725 10.2796 6.20725C10.537 6.20725 10.7978 6.22733 11.0552 6.2686C13.7824 6.69798 15.657 9.2977 15.2324 12.0625Z" fill="#D3D3D3"/>
<path id="Vector_15" d="M6.31372 9.69481C6.86268 8.2784 8.11353 7.26349 9.5745 7.01367" stroke="white" stroke-linecap="round" stroke-linejoin="round"/>
<path id="Vector_16" d="M6.20919 12.5685C6.05297 12.0599 5.98696 11.5156 6.02877 10.958" stroke="white" stroke-linecap="round" stroke-linejoin="round"/>
<path id="Vector_17" d="M9.31263 21.6258C9.28513 21.8087 9.11571 21.9336 8.93639 21.9046L8.39293 21.8187C8.21251 21.7909 8.08929 21.6191 8.11789 21.4373L8.59975 18.2967C8.62725 18.1138 8.79667 17.9889 8.97599 18.0179L9.51946 18.1037C9.69988 18.1316 9.82309 18.3034 9.79449 18.4863L9.31263 21.6269V21.6258Z" fill="black"/>
</g>
<g id="Group_3">
<path id="Vector_18" d="M7.63383 19.6685C7.63383 19.6685 8.62394 18.7127 10.042 19.644C10.5745 19.993 10.1927 20.767 9.9254 20.7882C9.9254 20.7882 10.7978 21.6972 9.88579 22.198C9.88579 22.198 10.3269 22.7601 9.73397 23.185C9.73397 23.185 10.24 23.5173 9.46334 23.7995C8.01887 24.3248 7.08046 23.272 7.18278 22.2269C7.28509 21.1808 6.74493 20.4893 7.63383 19.6685Z" fill="#0078B8"/>
<path id="Vector (Stroke)" fill-rule="evenodd" clip-rule="evenodd" d="M9.44429 20.7386C9.18206 20.6706 8.85339 20.6137 8.56568 20.6457C8.27528 20.678 8.03066 20.7744 7.85186 20.875C7.76249 20.9253 7.69045 20.9761 7.63809 21.0196C7.5829 21.0653 7.5569 21.0968 7.55101 21.1071C7.5234 21.1549 7.46224 21.1713 7.41441 21.1437C7.36658 21.1161 7.35018 21.0549 7.37779 21.0071C7.40215 20.9649 7.45109 20.9148 7.51042 20.8656C7.57258 20.8141 7.65462 20.7565 7.75378 20.7007C7.95205 20.5891 8.2223 20.4826 8.54357 20.4469C8.86753 20.4109 9.22423 20.4749 9.49447 20.545C9.63071 20.5803 9.74732 20.6177 9.82999 20.6464C9.87137 20.6608 9.90433 20.673 9.92711 20.6816L9.95344 20.6918L9.96047 20.6946L9.96238 20.6954C10.0135 20.7163 10.0388 20.775 10.018 20.8261C9.99708 20.8772 9.93872 20.9017 9.8876 20.8809C9.88759 20.8809 9.88761 20.8809 9.8876 20.8809L9.88591 20.8802L9.87998 20.8778L9.85604 20.8686C9.83491 20.8605 9.80379 20.849 9.76444 20.8354C9.68567 20.8081 9.57428 20.7723 9.44429 20.7386Z" fill="#0F4F72"/>
<path id="Vector (Stroke)_2" fill-rule="evenodd" clip-rule="evenodd" d="M7.59201 22.2572C7.56308 22.3015 7.50417 22.3158 7.45795 22.2888C7.41025 22.261 7.39414 22.1998 7.42196 22.1521C7.44236 22.1171 7.47885 22.0903 7.50628 22.0722C7.5383 22.0511 7.57839 22.0291 7.62337 22.0072C7.71367 21.9631 7.83081 21.9159 7.95867 21.8733C8.21129 21.7889 8.52208 21.7168 8.75924 21.7301M7.59201 22.2572C7.59201 22.2572 7.59202 22.2572 7.59202 22.2572C7.59222 22.2574 7.5981 22.2512 7.61643 22.2391C7.63867 22.2245 7.67044 22.2067 7.71101 22.1869C7.79181 22.1476 7.90055 22.1035 8.022 22.063C8.26799 21.9809 8.54958 21.9186 8.74806 21.9298L8.74813 21.9298C9.10496 21.9497 9.37553 22.0381 9.55564 22.1204C9.64577 22.1616 9.7133 22.2013 9.75766 22.2301C9.77984 22.2446 9.7962 22.2563 9.80668 22.2641L9.81796 22.2727L9.82027 22.2746L9.82034 22.2746C9.82036 22.2746 9.82038 22.2746 9.8204 22.2747L9.82045 22.2747L9.82053 22.2748C9.82054 22.2748 9.82056 22.2748 9.82057 22.2748C9.86288 22.3101 9.92579 22.3045 9.96122 22.2623C9.99672 22.22 9.9912 22.1569 9.9489 22.1214L9.88462 22.198L9.94883 22.1213L9.94875 22.1213L9.94856 22.1211L9.94808 22.1207L9.94669 22.1196L9.94217 22.1159C9.93838 22.1129 9.93305 22.1088 9.92619 22.1037C9.91248 22.0935 9.89262 22.0793 9.8667 22.0625C9.81487 22.0288 9.7387 21.9842 9.63878 21.9385C9.43881 21.8471 9.14394 21.7515 8.75931 21.7301" fill="#0F4F72"/>
<path id="Vector (Stroke)_3" fill-rule="evenodd" clip-rule="evenodd" d="M7.66393 23.2259L7.66795 23.2245L7.68097 23.22C7.69252 23.2161 7.70973 23.2104 7.7319 23.2033C7.77626 23.1891 7.84042 23.1694 7.91899 23.1476C8.07642 23.104 8.29033 23.0527 8.5179 23.0207C8.74639 22.9886 8.98349 22.9768 9.1892 23.0093C9.39564 23.0418 9.55713 23.1166 9.65405 23.2453C9.68727 23.2894 9.74996 23.2983 9.79408 23.2651C9.83821 23.2318 9.84704 23.1692 9.81383 23.125C9.67312 22.9381 9.45287 22.8484 9.22035 22.8117C8.98711 22.7749 8.72805 22.7892 8.49008 22.8227C8.2512 22.8562 8.02836 22.9098 7.86565 22.9549C7.78415 22.9774 7.7174 22.9979 7.67087 23.0128C7.64759 23.0203 7.62935 23.0264 7.61682 23.0306L7.6024 23.0355L7.59856 23.0369L7.59751 23.0372C7.54546 23.0557 7.51778 23.113 7.53625 23.1651C7.55471 23.2171 7.61189 23.2443 7.66393 23.2259Z" fill="#0F4F72"/>
</g>
<path id="Vector_19" d="M16.1796 23.6103C16.1796 23.6103 16.5833 26.7699 20.7638 26.3238L20.3601 24.6141C20.3601 24.6141 19.1499 22.1972 16.1796 23.6103Z" fill="#C1E2F3" fill-opacity="0.16"/>
<path id="Vector_20" d="M22.0982 22.3373C21.7043 21.9726 20.9573 21.2912 20.4139 20.8596C19.6438 20.2462 18.2554 20.6499 18.2554 20.6499C17.3335 21.8355 17.1795 22.6162 17.1311 23.1827C18.9727 23.0846 20.635 22.7801 22.0982 22.3373Z" fill="#C1E2F3" fill-opacity="0.16"/>
<path id="Vector_21" d="M18.4854 21.4907C18.4304 21.0636 18.3391 20.71 18.3391 20.71C18.3391 20.71 19.2192 19.1118 18.5954 18.8509C17.9716 18.5899 17.1465 19.8178 17.1465 19.8178C16.5965 19.1118 14.2312 18.6657 13.9749 19.1486C13.7185 19.6315 15.3313 20.1892 15.3313 20.1892C15.3313 20.1892 14.7076 20.5238 15.075 21.1561C15.075 21.1561 14.5711 21.6669 15.0112 22.0015C14.8099 22.1878 15.0486 22.5569 15.2862 22.7543C15.4876 22.9216 16.1234 23.2049 16.7164 23.1726C17.3952 23.1358 18.5404 21.9179 18.4854 21.4907Z" fill="#0078B8"/>
<path id="Vector_22" d="M16.7217 23.307C16.965 22.0275 17.7871 21.2789 18.6495 21.1036C19.1586 21.0006 19.5131 21.2484 19.9221 21.648C19.9842 21.7087 20.0491 21.7746 20.1162 21.8426C20.2582 21.9867 20.4097 22.1404 20.5633 22.274C20.7962 22.4766 21.0646 22.6625 21.3895 22.7579L16.7217 23.307ZM16.7217 23.307C16.7223 23.3188 16.7239 23.3382 16.7283 23.3651C16.7387 23.4275 16.7648 23.5315 16.831 23.6728C16.9634 23.9554 17.2585 24.3924 17.9164 24.9428C18.6011 25.5154 19.4493 25.6954 20.2058 25.6442C20.5835 25.6187 20.9323 25.5357 21.2183 25.4197C21.5079 25.3022 21.7168 25.1577 21.832 25.0206L21.8321 25.0205C22.5863 24.1233 22.2239 23.0038 21.3896 22.758L16.7217 23.307Z" fill="url(#paint5_radial_5551_7341)" stroke="#BBD2E7" stroke-width="0.5"/>
</g>
<defs>
<radialGradient id="paint0_radial_5551_7341" cx="0" cy="0" r="1" gradientUnits="userSpaceOnUse" gradientTransform="translate(8.52682 23.4174) rotate(105.906) scale(3.40301 3.19594)">
<stop offset="0.616125" stop-color="white"/>
<stop offset="1" stop-color="#ECF3F8"/>
</radialGradient>
<radialGradient id="paint1_radial_5551_7341" cx="0" cy="0" r="1" gradientUnits="userSpaceOnUse" gradientTransform="translate(15.2703 26.4728) rotate(94.5727) scale(5.399 6.07591)">
<stop offset="0.812397" stop-color="white"/>
<stop offset="1" stop-color="#ECF3F8"/>
</radialGradient>
<radialGradient id="paint2_radial_5551_7341" cx="0" cy="0" r="1" gradientUnits="userSpaceOnUse" gradientTransform="translate(15.8319 11.7217) rotate(90.1299) scale(12.0359 15.0232)">
<stop offset="0.575" stop-color="white"/>
<stop offset="0.805" stop-color="white"/>
<stop offset="1" stop-color="#E1EAF1"/>
</radialGradient>
<linearGradient id="paint3_linear_5551_7341" x1="12.2665" y1="14.3694" x2="12.2665" y2="8.99825" gradientUnits="userSpaceOnUse">
<stop stop-color="white"/>
<stop offset="1" stop-color="#66FFFF"/>
</linearGradient>
<linearGradient id="paint4_linear_5551_7341" x1="19.2523" y1="0.225451" x2="19.2523" y2="0.225451" gradientUnits="userSpaceOnUse">
<stop stop-color="white"/>
<stop offset="1" stop-color="#66FFFF"/>
</linearGradient>
<radialGradient id="paint5_radial_5551_7341" cx="0" cy="0" r="1" gradientUnits="userSpaceOnUse" gradientTransform="translate(19.1441 23.4175) rotate(23.4837) scale(3.28514 3.10198)">
<stop offset="0.657962" stop-color="white"/>
<stop offset="1" stop-color="#ECF3F8"/>
</radialGradient>
</defs>
</svg>
