<svg width="20" height="20" viewBox="0 0 20 20" fill="none" xmlns="http://www.w3.org/2000/svg">
<g id="icon">
<path id="Vector" d="M12.6484 12.6484L7.35156 7.34375" stroke="#0078B8" stroke-width="1.5" stroke-linecap="round" stroke-linejoin="round"/>
<path id="Vector_2" d="M8.67187 13.9766L10.8828 16.1875C11.2311 16.5358 11.6446 16.8121 12.0997 17.0006C12.5548 17.1891 13.0426 17.2861 13.5352 17.2861C14.53 17.2861 15.4841 16.8909 16.1875 16.1875C16.8909 15.4841 17.2861 14.53 17.2861 13.5352C17.2861 12.5403 16.8909 11.5863 16.1875 10.8828L13.9766 8.67188" stroke="#0078B8" stroke-width="1.5" stroke-linecap="round" stroke-linejoin="round"/>
<path id="Vector_3" d="M6.02344 11.3281L3.8125 9.11719C3.10905 8.41375 2.71386 7.45967 2.71386 6.46485C2.71386 5.47003 3.10905 4.51595 3.8125 3.8125C4.51595 3.10906 5.47002 2.71387 6.46484 2.71387C7.45967 2.71387 8.41374 3.10906 9.11719 3.8125L11.3281 6.02344" stroke="#0078B8" stroke-width="1.5" stroke-linecap="round" stroke-linejoin="round"/>
</g>
</svg>
