<svg width="40" height="41" viewBox="0 0 40 41" fill="none" xmlns="http://www.w3.org/2000/svg">
<g id="icon">
<path id="Vector" d="M25.6549 7.25575L24.9859 7.99905L25.6549 7.25575ZM32.2528 13.1939L31.5839 13.9372L32.2528 13.1939ZM36.09 17.4232L35.1765 17.83V17.83L36.09 17.4232ZM5.28593 35.2137L5.99304 34.5066H5.99304L5.28593 35.2137ZM35.642 20.5342C35.6612 21.0861 36.1243 21.5179 36.6763 21.4987C37.2282 21.4794 37.66 21.0163 37.6407 20.4644L35.642 20.5342ZM20 38.1663C20.5523 38.1663 21 37.7186 21 37.1663C21 36.6141 20.5523 36.1663 20 36.1663V38.1663ZM4.33331 23.833V17.1663H2.33331V23.833H4.33331ZM24.9859 7.99905L31.5839 13.9372L32.9218 12.4506L26.3239 6.51246L24.9859 7.99905ZM31.5839 13.9372C33.8232 15.9526 34.7065 16.7747 35.1765 17.83L37.0035 17.0163C36.3201 15.482 35.0298 14.3478 32.9218 12.4506L31.5839 13.9372ZM16.7163 4.83301C19.3337 4.83301 20.3838 4.84845 21.3238 5.20916L22.0403 3.34192C20.6739 2.81757 19.1822 2.83301 16.7163 2.83301V4.83301ZM26.3239 6.51246C24.4999 4.87091 23.4066 3.86621 22.0403 3.34192L21.3238 5.20916C22.2639 5.56993 23.0503 6.25702 24.9859 7.99905L26.3239 6.51246ZM16.6666 36.1663C13.4957 36.1663 11.2181 36.1642 9.48475 35.9312C7.78021 35.702 6.75258 35.2662 5.99304 34.5066L4.57883 35.9208C5.77191 37.1139 7.29194 37.6544 9.21825 37.9133C11.1158 38.1685 13.5522 38.1663 16.6666 38.1663V36.1663ZM2.33331 23.833C2.33331 26.9474 2.33119 29.3839 2.58631 31.2814C2.84529 33.2077 3.38575 34.7277 4.57883 35.9208L5.99304 34.5066C5.2335 33.7471 4.79764 32.7194 4.56847 31.0149C4.33544 29.2816 4.33331 27.004 4.33331 23.833H2.33331ZM4.33331 17.1663C4.33331 13.9954 4.33544 11.7177 4.56847 9.98444C4.79764 8.27991 5.2335 7.25228 5.99304 6.49274L4.57883 5.07852C3.38575 6.2716 2.84529 7.79163 2.58631 9.71795C2.33119 11.6155 2.33331 14.0519 2.33331 17.1663H4.33331ZM16.7163 2.83301C13.5852 2.83301 11.1367 2.8309 9.23126 3.08592C7.29778 3.34469 5.77269 3.88466 4.57883 5.07852L5.99304 6.49274C6.7518 5.73397 7.78264 5.29763 9.49657 5.06825C11.2385 4.83511 13.5289 4.83301 16.7163 4.83301V2.83301ZM37.6407 20.4644C37.5929 19.0954 37.456 18.0323 37.0035 17.0163L35.1765 17.83C35.4706 18.4904 35.5969 19.2439 35.642 20.5342L37.6407 20.4644ZM20 36.1663H16.6666V38.1663H20V36.1663Z" fill="#C8C8C8"/>
<path id="Vector_2" d="M8.75 19.25H21.25" stroke="#C8C8C8" stroke-width="2" stroke-linecap="round"/>
<path id="Vector_3" d="M8.75 24.25H16.25" stroke="#C8C8C8" stroke-width="2" stroke-linecap="round"/>
<path id="Vector_4" d="M8.75 14.25H16.25" stroke="#C8C8C8" stroke-width="2" stroke-linecap="round"/>
<path id="Vector_5" d="M8.75 29.25H16.25" stroke="#C8C8C8" stroke-width="2" stroke-linecap="round"/>
<path id="Vector_6" d="M21.6667 4.66699V8.83366C21.6667 12.762 21.6667 14.7262 22.8871 15.9466C24.1075 17.167 26.0716 17.167 30 17.167H36.6667" stroke="#C8C8C8" stroke-width="2"/>
<circle id="Vector_7" cx="29.5834" cy="30.0827" r="7.91667" stroke="#C8C8C8" stroke-width="2"/>
<path id="Vector_8" d="M35.4167 35.916L38.3334 38.8327" stroke="#C8C8C8" stroke-width="2" stroke-linecap="round"/>
</g>
</svg>
