<svg width="16" height="14" viewBox="0 0 16 14" fill="none" xmlns="http://www.w3.org/2000/svg">
<path fill-rule="evenodd" clip-rule="evenodd" d="M7.99561 14C11.1083 14 13.7464 11.9684 14.6564 9.15888C14.9979 9.0887 15.3108 8.91578 15.5468 8.6549C16.0405 8.12941 16.0182 7.463 15.9843 6.44973L15.9836 6.43068V6.42229C15.9494 5.42349 15.9237 4.73524 15.384 4.21485C15.0658 3.903 14.5547 3.74094 14.1496 3.66124C12.9639 1.48034 10.6526 0 7.99561 0C5.34644 0 3.04099 1.47162 1.85215 3.64197C1.4457 3.72106 0.929551 3.88321 0.609045 4.19727C0.0779956 4.73445 0.0522997 5.42269 0.0180384 6.4131L0.017401 6.43215C-0.0165219 7.44542 -0.0388323 8.11183 0.454869 8.63732C0.689558 8.89678 0.996118 9.07338 1.33 9.14384C2.23541 11.9612 4.87741 14 7.99561 14ZM3.38423 7.78956C3.07588 5.01139 5.12299 2.56055 8.00093 2.56055H8.01806C10.8874 2.56055 12.9346 5.01139 12.6348 7.78956C12.5234 8.83873 11.6155 9.64448 10.5363 9.64448H5.48273C4.39494 9.64448 3.49558 8.83873 3.38423 7.78956ZM10.2177 5.16269C10.2005 5.16269 10.1834 5.16059 10.1663 5.15849C10.1492 5.15639 10.132 5.1543 10.1149 5.1543C9.79797 5.1543 9.54102 5.4061 9.54102 5.71665V6.59794C9.54102 6.90849 9.79797 7.16029 10.1149 7.16029C10.1492 7.16029 10.1834 7.16029 10.2177 7.1519C10.4918 7.09315 10.6973 6.85813 10.6888 6.57276V5.74183C10.6888 5.46485 10.5003 5.22144 10.2177 5.16269ZM5.7819 5.16269C5.81616 5.1543 5.85042 5.1543 5.88468 5.1543C6.2016 5.1543 6.45856 5.4061 6.45856 5.71665V6.59794C6.45856 6.90849 6.2016 7.16029 5.88468 7.16029C5.86755 7.16029 5.85042 7.15819 5.83329 7.1561C5.81616 7.154 5.79903 7.1519 5.7819 7.1519C5.49924 7.09315 5.3108 6.84974 5.3108 6.57276V5.74183C5.30224 5.46485 5.50781 5.22144 5.7819 5.16269Z" fill="white"/>
</svg>
