<svg width="12" height="13" viewBox="0 0 12 13" fill="none" xmlns="http://www.w3.org/2000/svg">
<g id="icon">
<path id="Vector" fill-rule="evenodd" clip-rule="evenodd" d="M11 6.5C11 3.73858 8.76142 1.5 6 1.5C3.23858 1.5 1 3.73858 1 6.5C1 9.26142 3.23858 11.5 6 11.5C8.76142 11.5 11 9.26142 11 6.5ZM6 3.625C6.20711 3.625 6.375 3.79289 6.375 4V7C6.375 7.20711 6.20711 7.375 6 7.375C5.79289 7.375 5.625 7.20711 5.625 7V4C5.625 3.79289 5.79289 3.625 6 3.625ZM6 9C6.27614 9 6.5 8.77614 6.5 8.5C6.5 8.22386 6.27614 8 6 8C5.72386 8 5.5 8.22386 5.5 8.5C5.5 8.77614 5.72386 9 6 9Z" fill="#C8C8C8"/>
</g>
</svg>
