<svg width="40" height="40" viewBox="0 0 40 40" fill="none" xmlns="http://www.w3.org/2000/svg">
<g id="icon">
<path id="Vector" d="M4.843 22.9886C4.13999 17.716 3.78848 15.0797 5.28244 13.3734C6.7764 11.667 9.43603 11.667 14.7553 11.667H25.245C30.5642 11.667 33.2238 11.667 34.7178 13.3734C36.2117 15.0797 35.8602 17.716 35.1572 22.9886L34.4906 27.9886C33.9393 32.1234 33.6636 34.1908 32.2495 35.4289C30.8354 36.667 28.7497 36.667 24.5783 36.667H15.4219C11.2506 36.667 9.16485 36.667 7.75074 35.4289C6.33663 34.1908 6.06097 32.1234 5.50967 27.9886L4.843 22.9886Z" stroke="#555555" stroke-width="1.5"/>
<path id="Vector_2" d="M32.6033 11.6667C32.9843 9.49205 31.311 7.5 29.1032 7.5H10.8969C8.68912 7.5 7.01577 9.49205 7.39681 11.6667" stroke="#555555" stroke-width="1.5"/>
<path id="Vector_3" d="M29.1666 7.49967C29.2138 7.06788 29.2375 6.85192 29.2379 6.67358C29.2416 4.96754 27.9565 3.53408 26.2602 3.35204C26.0829 3.33301 25.8657 3.33301 25.4313 3.33301H14.5683C14.1339 3.33301 13.9167 3.33301 13.7394 3.35204C12.0431 3.53408 10.758 4.96754 10.7617 6.67358C10.7621 6.85193 10.7858 7.06785 10.8331 7.49967" stroke="#555555" stroke-width="1.5"/>
<path id="Vector_4" d="M25 30H15" stroke="#555555" stroke-width="1.5" stroke-linecap="round"/>
<path id="Vector_5" d="M32.5 20C36.6421 20 40 16.6421 40 12.5C40 8.35786 36.6421 5 32.5 5C28.3579 5 25 8.35786 25 12.5C25 16.6421 28.3579 20 32.5 20Z" fill="#0078B8"/>
<path id="Vector_6" d="M35.9375 10.625L31.3516 15L29.0625 12.8125" stroke="white" stroke-width="1.5" stroke-linecap="round" stroke-linejoin="round"/>
</g>
</svg>
