<svg width="20" height="20" viewBox="0 0 20 20" fill="none" xmlns="http://www.w3.org/2000/svg">
<g id="market_icon">
<path id="Vector" d="M1.6665 9.99992C1.6665 6.85722 1.6665 5.28587 2.64281 4.30956C3.61913 3.33325 5.19047 3.33325 8.33317 3.33325H11.6665C14.8092 3.33325 16.3805 3.33325 17.3569 4.30956C18.3332 5.28587 18.3332 6.85722 18.3332 9.99992C18.3332 13.1426 18.3332 14.714 17.3569 15.6903C16.3805 16.6666 14.8092 16.6666 11.6665 16.6666H8.33317C5.19047 16.6666 3.61913 16.6666 2.64281 15.6903C1.6665 14.714 1.6665 13.1426 1.6665 9.99992Z" stroke="#0078B8" stroke-width="1.5"/>
<path id="Vector_2" d="M5 6.66675L6.79908 8.16598C8.32961 9.44142 9.09488 10.0791 10 10.0791C10.9051 10.0791 11.6704 9.44142 13.2009 8.16598L15 6.66675" stroke="#0078B8" stroke-width="1.5" stroke-linecap="round"/>
</g>
</svg>
