<svg width="16" height="16" viewBox="0 0 16 16" fill="none" xmlns="http://www.w3.org/2000/svg">
<g id="market_icon">
<path id="Vector" d="M7.35843 2.87745L7.79111 3.65273C8.18158 4.35239 8.02483 5.27021 7.40985 5.8852C7.40985 5.8852 7.40985 5.8852 7.40985 5.8852C7.40973 5.88532 6.66399 6.63127 8.01638 7.98366C9.36812 9.33539 10.114 8.59101 10.1148 8.5902C10.1149 8.59017 10.1149 8.59018 10.1149 8.59016C10.7299 7.97521 11.6477 7.81847 12.3473 8.20893L13.1226 8.64161C14.1791 9.23122 14.3039 10.7128 13.3752 11.6415C12.8172 12.1995 12.1336 12.6337 11.378 12.6623C10.1059 12.7105 7.94556 12.3886 5.77851 10.2215C3.61146 8.05448 3.28952 5.89415 3.33774 4.62206C3.36639 3.8664 3.80058 3.18282 4.35858 2.62482C5.28721 1.69619 6.76882 1.82096 7.35843 2.87745Z" stroke="black" stroke-linecap="round"/>
</g>
</svg>
