<svg width="16" height="16" viewBox="0 0 16 16" fill="none" xmlns="http://www.w3.org/2000/svg">
<g id="market_icon">
<path id="Vector" d="M1.33337 8.00008C1.33337 5.48592 1.33337 4.22885 2.11442 3.4478C2.89547 2.66675 4.15255 2.66675 6.66671 2.66675H9.33337C11.8475 2.66675 13.1046 2.66675 13.8857 3.4478C14.6667 4.22885 14.6667 5.48592 14.6667 8.00008C14.6667 10.5142 14.6667 11.7713 13.8857 12.5524C13.1046 13.3334 11.8475 13.3334 9.33337 13.3334H6.66671C4.15255 13.3334 2.89547 13.3334 2.11442 12.5524C1.33337 11.7713 1.33337 10.5142 1.33337 8.00008Z" stroke="black"/>
<path id="Vector_2" d="M4 5.33325L5.43926 6.53264C6.66369 7.55299 7.2759 8.06317 8 8.06317C8.7241 8.06317 9.33631 7.55299 10.5607 6.53264L12 5.33325" stroke="black" stroke-linecap="round"/>
</g>
</svg>
