<svg width="48" height="48" viewBox="0 0 48 48" fill="none" xmlns="http://www.w3.org/2000/svg">
<g id="Bold Duotone / Money / Card Recive">
<path id="Vector" d="M20 40H28C29.319 40 30.5226 40 31.6235 39.9875L30.818 39.182C29.0607 37.4246 29.0607 34.5754 30.818 32.818C31.5693 32.0667 32.5202 31.6366 33.5 31.5277V28C33.5 25.5147 35.5147 23.5 38 23.5C40.4853 23.5 42.5 25.5147 42.5 28V31.5277C42.9477 31.5775 43.3894 31.6943 43.8087 31.8782C44 29.8343 44 27.272 44 24C44 23.1161 44 20.7841 43.9962 20H4.00377C4 20.7841 4 23.1161 4 24C4 31.5425 4 35.3137 6.34315 37.6569C8.68629 40 12.4575 40 20 40Z" fill="white"/>
<g id="Vector_2">
<path fill-rule="evenodd" clip-rule="evenodd" d="M36.9393 41.0607C37.5251 41.6464 38.4749 41.6464 39.0607 41.0607L43.0607 37.0607C43.6464 36.4749 43.6464 35.5251 43.0607 34.9393C42.4749 34.3536 41.5251 34.3536 40.9393 34.9393L39.5 36.3787V28C39.5 27.1716 38.8284 26.5 38 26.5C37.1716 26.5 36.5 27.1716 36.5 28V36.3787L35.0607 34.9393C34.4749 34.3536 33.5251 34.3536 32.9393 34.9393C32.3536 35.5251 32.3536 36.4749 32.9393 37.0607L36.9393 41.0607Z" fill="black"/>
</g>
<g id="Vector_3">
<path d="M25 30.5C24.1716 30.5 23.5 31.1716 23.5 32C23.5 32.8284 24.1716 33.5 25 33.5H28C28.8284 33.5 29.5 32.8284 29.5 32C29.5 31.1716 28.8284 30.5 28 30.5H25Z" fill="#FFC121"/>
<path d="M12 30.5C11.1716 30.5 10.5 31.1716 10.5 32C10.5 32.8284 11.1716 33.5 12 33.5H20C20.8284 33.5 21.5 32.8284 21.5 32C21.5 31.1716 20.8284 30.5 20 30.5H12Z" fill="#FFC121"/>
</g>
<g id="Vector_4">
<path d="M19.9897 8H28.0103C35.5722 8 39.3532 8 41.7024 10.2316C43.3938 11.8383 43.8674 14.1501 44 18V20H4V18C4.1326 14.1501 4.60619 11.8383 6.29762 10.2316C8.64681 8 12.4278 8 19.9897 8Z" fill="#FFC121"/>
</g>
</g>
</svg>
