<svg width="36" height="36" viewBox="0 0 36 36" fill="none" xmlns="http://www.w3.org/2000/svg">
<path d="M24 6C27.2625 6.01816 29.0294 6.16284 30.182 7.31541C31.5 8.63343 31.5 10.7548 31.5 14.9974V23.9974C31.5 28.24 31.5 30.3614 30.182 31.6794C28.864 32.9974 26.7426 32.9974 22.5 32.9974H13.5C9.25736 32.9974 7.13604 32.9974 5.81802 31.6794C4.5 30.3614 4.5 28.24 4.5 23.9974V14.9974C4.5 10.7548 4.5 8.63343 5.81802 7.31541C6.9706 6.16284 8.73746 6.01816 12 6" stroke="#323232" stroke-width="1.5"/>
<path d="M12 5.25C12 4.00736 13.0074 3 14.25 3H21.75C22.9926 3 24 4.00736 24 5.25V6.75C24 7.99264 22.9926 9 21.75 9H14.25C13.0074 9 12 7.99264 12 6.75V5.25Z" stroke="#323232" stroke-width="1.5"/>
<path d="M21.75 16.5001L14.2501 24M14.25 16.5L21.75 24" stroke="#E66A1F" stroke-width="1.5" stroke-linecap="round"/>
</svg>
