<svg width="20" height="20" viewBox="0 0 20 20" fill="none" xmlns="http://www.w3.org/2000/svg">
<g id="market_icon" clip-path="url(#clip0_4694_34520)">
<path id="Vector" d="M4.99984 14.9856C3.7053 14.9466 2.93316 14.8022 2.39874 14.2678C1.6665 13.5355 1.6665 12.357 1.6665 10C1.6665 7.64298 1.6665 6.46447 2.39874 5.73223C3.13097 5 4.30948 5 6.6665 5H13.3332C15.6902 5 16.8687 5 17.6009 5.73223C18.3332 6.46447 18.3332 7.64298 18.3332 10C18.3332 12.357 18.3332 13.5355 17.6009 14.2678C17.0665 14.8022 16.2944 14.9466 14.9998 14.9856" stroke="#0078B8" stroke-width="1.5"/>
<path id="Vector_2" d="M7.5 8.33325H5" stroke="#0078B8" stroke-width="1.5" stroke-linecap="round"/>
<path id="Vector_3" d="M15.8335 12.5L4.16683 12.5" stroke="#0078B8" stroke-width="1.5" stroke-linecap="round"/>
<path id="Vector_4" d="M14.2678 2.39898L13.7374 2.92931V2.92931L14.2678 2.39898ZM5.73223 2.39898L6.26256 2.92931L6.26256 2.92931L5.73223 2.39898ZM5.73223 17.6012L6.26256 17.0709H6.26256L5.73223 17.6012ZM15.75 12.5001C15.75 12.0859 15.4142 11.7501 15 11.7501C14.5858 11.7501 14.25 12.0859 14.25 12.5001H15.75ZM5.75 12.5001C5.75 12.0859 5.41421 11.7501 5 11.7501C4.58579 11.7501 4.25 12.0859 4.25 12.5001H5.75ZM14.25 13.3334C14.25 14.5331 14.2484 15.3575 14.1652 15.9767C14.0848 16.5743 13.941 16.8673 13.7374 17.0709L14.7981 18.1315C15.3268 17.6028 15.5491 16.9405 15.6518 16.1765C15.7516 15.4342 15.75 14.4907 15.75 13.3334H14.25ZM10 19.0834C11.1573 19.0834 12.1007 19.085 12.8431 18.9852C13.6071 18.8825 14.2694 18.6602 14.7981 18.1315L13.7374 17.0709C13.5339 17.2744 13.2409 17.4182 12.6432 17.4986C12.0241 17.5818 11.1997 17.5834 10 17.5834V19.0834ZM10 2.41675C11.1997 2.41675 12.0241 2.41834 12.6432 2.50159C13.2409 2.58194 13.5339 2.72577 13.7374 2.92931L14.7981 1.86865C14.2694 1.33996 13.6071 1.11768 12.8431 1.01497C12.1007 0.915155 11.1573 0.916748 10 0.916748V2.41675ZM10 0.916748C8.84269 0.916748 7.89926 0.915155 7.15688 1.01497C6.39293 1.11768 5.7306 1.33996 5.2019 1.86865L6.26256 2.92931C6.4661 2.72577 6.75914 2.58194 7.35676 2.50159C7.97595 2.41834 8.80029 2.41675 10 2.41675V0.916748ZM4.25 13.3334C4.25 14.4907 4.24841 15.4342 4.34822 16.1765C4.45093 16.9405 4.67321 17.6028 5.2019 18.1315L6.26256 17.0709C6.05902 16.8673 5.91519 16.5743 5.83484 15.9767C5.75159 15.3575 5.75 14.5331 5.75 13.3334H4.25ZM10 17.5834C8.80029 17.5834 7.97595 17.5818 7.35676 17.4986C6.75914 17.4182 6.4661 17.2744 6.26256 17.0709L5.2019 18.1315C5.7306 18.6602 6.39293 18.8825 7.15689 18.9852C7.89926 19.085 8.84269 19.0834 10 19.0834V17.5834ZM15.7352 4.97749C15.6966 3.6942 15.5632 2.63379 14.7981 1.86865L13.7374 2.92931C14.0411 3.23301 14.1966 3.71689 14.2359 5.02267L15.7352 4.97749ZM5.7641 5.02267C5.80344 3.71689 5.95886 3.23301 6.26256 2.92931L5.2019 1.86865C4.43677 2.63379 4.30344 3.6942 4.26478 4.97749L5.7641 5.02267ZM15.75 13.3334V12.5001H14.25V13.3334H15.75ZM5.75 13.3334V12.5001H4.25V13.3334H5.75Z" fill="#0078B8"/>
<ellipse id="Vector_5" cx="14.1668" cy="8.33333" rx="0.833333" ry="0.833333" fill="#0078B8"/>
</g>
<defs>
<clipPath id="clip0_4694_34520">
<rect width="20" height="20" fill="white"/>
</clipPath>
</defs>
</svg>
