<svg width="160" height="140" viewBox="0 0 160 140" fill="none" xmlns="http://www.w3.org/2000/svg">
<path d="M58 56L80 12L102 56" stroke="black" stroke-width="0.96"/>
<rect x="77.48" y="7.48" width="5.04" height="13.04" rx="2.52" fill="white" stroke="black" stroke-width="0.96"/>
<circle cx="80" cy="10" r="2.52" fill="white" stroke="black" stroke-width="0.96"/>
<rect x="16.8527" y="37.2111" width="133.04" height="83.04" rx="5.92" transform="rotate(6.78663 16.8527 37.2111)" fill="black" stroke="black" stroke-width="0.96"/>
<rect x="17.6471" y="37.3058" width="127.04" height="79.04" rx="4.32" transform="rotate(6.78663 17.6471 37.3058)" fill="white" stroke="black" stroke-width="0.96"/>
<path d="M33.1164 39.6129L27.4078 38.9336L27.0456 41.9772L35.1945 44.9225L33.1164 39.6129Z" fill="white"/>
<path d="M16.0476 52.1006L143.151 67.2266" stroke="black" stroke-width="0.96"/>
<circle cx="25.764" cy="46.107" r="2.5" transform="rotate(6.78663 25.764 46.107)" fill="#E66A1F"/>
<circle cx="33.7079" cy="47.0523" r="2.5" transform="rotate(6.78663 33.7079 47.0523)" fill="#0078B8"/>
<circle cx="41.6519" cy="47.9976" r="2.5" transform="rotate(6.78663 41.6519 47.9976)" fill="#84BC3C"/>
<circle cx="49.5959" cy="48.943" r="2.5" transform="rotate(6.78663 49.5959 48.943)" fill="#FFC121"/>
<path d="M41.5468 93.3918L42.0652 89.0362L53.3077 75.2454L57.1781 75.706L56.4745 81.6188L54.2289 81.3516L47.6437 89.4712L47.6223 89.6517L61.3323 91.2833L60.8086 95.6841L41.5468 93.3918ZM52.2501 98.5565L52.8652 93.3884L53.2049 91.4948L55.1132 75.4602L60.3377 76.082L57.5875 99.1916L52.2501 98.5565ZM72.7707 101.571C70.7546 101.331 69.0737 100.646 67.728 99.5172C66.3832 98.3807 65.4228 96.8664 64.8469 94.9745C64.2719 93.075 64.139 90.8582 64.4482 88.324C64.7574 85.7897 65.4084 83.6852 66.4011 82.0105C67.4023 80.3291 68.6839 79.1122 70.2459 78.3597C71.8163 77.6006 73.6095 77.341 75.6256 77.5809C77.6417 77.8208 79.3239 78.494 80.6723 79.6005C82.0291 80.7004 82.9968 82.185 83.5754 84.0543C84.154 85.9237 84.2891 88.1217 83.9808 90.6485C83.6782 93.1911 83.0246 95.3182 82.0198 97.0296C81.0151 98.7411 79.7262 99.9876 78.1531 100.769C76.5884 101.544 74.7943 101.812 72.7707 101.571ZM73.3145 97.0007C74.5181 97.1439 75.5653 96.6468 76.456 95.5092C77.3475 94.3641 77.9413 92.516 78.2373 89.9649C78.436 88.2949 78.4306 86.8981 78.221 85.7746C78.0123 84.6435 77.6388 83.7751 77.1005 83.1694C76.5623 82.5636 75.8907 82.2129 75.0858 82.1171C73.8897 81.9747 72.8509 82.4653 71.9696 83.5887C71.0891 84.7046 70.4965 86.5108 70.1918 89.0075C69.9828 90.6992 69.9776 92.1214 70.1761 93.2742C70.3821 94.4278 70.7571 95.3155 71.3011 95.9371C71.846 96.5513 72.5171 96.9058 73.3145 97.0007ZM85.9832 98.68L86.5016 94.3244L97.7442 80.5336L101.615 80.9942L100.911 86.907L98.6654 86.6398L92.0802 94.7594L92.0587 94.9399L105.769 96.5715L105.245 100.972L85.9832 98.68ZM96.6866 103.845L97.3016 98.6766L97.6414 96.783L99.5496 80.7484L104.774 81.3702L102.024 104.48L96.6866 103.845Z" fill="#F64747"/>
</svg>
