<svg width="48" height="48" viewBox="0 0 48 48" fill="none" xmlns="http://www.w3.org/2000/svg">
<g id="Bold Duotone / Notes / Archived Minimalistic">
<path id="Vector" d="M23.9986 4C33.4267 4 38.1407 4 41.0697 6.92893C42.5846 8.44391 43.316 10.4365 43.6691 13.312V20H4.32812V13.312C4.68119 10.4365 5.41256 8.44391 6.92753 6.92893C9.85646 4 14.5705 4 23.9986 4Z" fill="#DDDDDD"/>
<path id="Vector_2" fill-rule="evenodd" clip-rule="evenodd" d="M5.08993 17.4601C4 19.5992 4 22.3995 4 28C4 33.6005 4 36.4008 5.08993 38.5399C6.04867 40.4215 7.57847 41.9513 9.46009 42.9101C11.5992 44 14.3995 44 20 44H28C33.6005 44 36.4008 44 38.5399 42.9101C40.4215 41.9513 41.9513 40.4215 42.9101 38.5399C44 36.4008 44 33.6005 44 28C44 22.3995 44 19.5992 42.9101 17.4601C41.9513 15.5785 40.4215 14.0487 38.5399 13.0899C36.4008 12 33.6005 12 28 12H20C14.3995 12 11.5992 12 9.46009 13.0899C7.57847 14.0487 6.04867 15.5785 5.08993 17.4601ZM30.1189 24.999C30.6707 24.3811 30.617 23.4329 29.999 22.8811C29.3811 22.3294 28.4329 22.383 27.8811 23.001L21.8572 29.7478L20.1189 27.801C19.5672 27.183 18.6189 27.1294 18.001 27.6811C17.383 28.2329 17.3294 29.1811 17.8811 29.799L20.7383 32.999C21.0228 33.3178 21.4299 33.5 21.8572 33.5C22.2845 33.5 22.6915 33.3178 22.9761 32.999L30.1189 24.999Z" fill="black"/>
</g>
</svg>
