<svg width="16" height="16" viewBox="0 0 16 16" fill="none" xmlns="http://www.w3.org/2000/svg">
<g id="market_icon" clip-path="url(#clip0_6306_2843)">
<path id="Vector" d="M4.00004 11.9884C2.96441 11.9572 2.3467 11.8417 1.91916 11.4142C1.33337 10.8284 1.33337 9.88562 1.33337 8C1.33337 6.11438 1.33337 5.17157 1.91916 4.58579C2.50495 4 3.44776 4 5.33337 4H10.6667C12.5523 4 13.4951 4 14.0809 4.58579C14.6667 5.17157 14.6667 6.11438 14.6667 8C14.6667 9.88562 14.6667 10.8284 14.0809 11.4142C13.6534 11.8417 13.0357 11.9572 12 11.9884" stroke="black"/>
<path id="Vector_2" d="M6 6.66675H4" stroke="black" stroke-linecap="round"/>
<path id="Vector_3" d="M12.6666 10L3.33329 10" stroke="black" stroke-linecap="round"/>
<path id="Vector_4" d="M11.4142 1.91904L11.0607 2.27259V2.27259L11.4142 1.91904ZM4.58579 1.91904L4.93934 2.27259L4.93934 2.27259L4.58579 1.91904ZM4.58579 14.0808L4.93934 13.7272H4.93934L4.58579 14.0808ZM12.5 9.99992C12.5 9.72378 12.2761 9.49992 12 9.49992C11.7239 9.49992 11.5 9.72378 11.5 9.99992H12.5ZM4.5 9.99992C4.5 9.72378 4.27614 9.49992 4 9.49992C3.72386 9.49992 3.5 9.72378 3.5 9.99992H4.5ZM11.5 10.6666C11.5 11.6235 11.4989 12.2909 11.4312 12.7945C11.3655 13.2837 11.2452 13.5427 11.0607 13.7272L11.7678 14.4344C12.169 14.0331 12.3416 13.5278 12.4223 12.9278C12.5011 12.3421 12.5 11.5953 12.5 10.6666H11.5ZM8 15.1666C8.92868 15.1666 9.67548 15.1676 10.2612 15.0889C10.8612 15.0082 11.3665 14.8356 11.7678 14.4344L11.0607 13.7272C10.8762 13.9118 10.6171 14.0321 10.1279 14.0978C9.62435 14.1655 8.95694 14.1666 8 14.1666V15.1666ZM8 1.83325C8.95694 1.83325 9.62435 1.83431 10.1279 1.90202C10.6171 1.96779 10.8762 2.08808 11.0607 2.27259L11.7678 1.56548C11.3665 1.16421 10.8612 0.991611 10.2612 0.910934C9.67548 0.83219 8.92867 0.833252 8 0.833252V1.83325ZM8 0.833252C7.07133 0.833252 6.32452 0.83219 5.73883 0.910934C5.13876 0.991611 4.63351 1.16421 4.23223 1.56549L4.93934 2.27259C5.12385 2.08808 5.3829 1.96779 5.87208 1.90202C6.37565 1.83431 7.04306 1.83325 8 1.83325V0.833252ZM3.5 10.6666C3.5 11.5953 3.49894 12.3421 3.57768 12.9278C3.65836 13.5278 3.83096 14.0331 4.23223 14.4344L4.93934 13.7272C4.75483 13.5427 4.63453 13.2837 4.56876 12.7945C4.50106 12.2909 4.5 11.6235 4.5 10.6666H3.5ZM8 14.1666C7.04306 14.1666 6.37565 14.1655 5.87208 14.0978C5.3829 14.0321 5.12385 13.9118 4.93934 13.7272L4.23223 14.4344C4.63351 14.8356 5.13876 15.0082 5.73883 15.0889C6.32452 15.1676 7.07133 15.1666 8 15.1666V14.1666ZM12.4882 3.98486C12.4572 2.95673 12.3491 2.14683 11.7678 1.56548L11.0607 2.27259C11.3344 2.54632 11.4572 2.97185 11.4887 4.01498L12.4882 3.98486ZM4.51132 4.01498C4.54275 2.97185 4.66562 2.54632 4.93934 2.27259L4.23223 1.56549C3.65089 2.14683 3.54275 2.95673 3.51178 3.98486L4.51132 4.01498ZM12.5 10.6666V9.99992H11.5V10.6666H12.5ZM4.5 10.6666V9.99992H3.5V10.6666H4.5Z" fill="black"/>
<ellipse id="Vector_5" cx="11.3333" cy="6.66667" rx="0.666667" ry="0.666667" fill="black"/>
</g>
<defs>
<clipPath id="clip0_6306_2843">
<rect width="16" height="16" fill="white"/>
</clipPath>
</defs>
</svg>
