<svg width="48" height="48" viewBox="0 0 48 48" fill="none" xmlns="http://www.w3.org/2000/svg">
<g id="Bold Duotone / Money / Money Bag">
<path id="Union" d="M6.34315 14.3431C8.03073 12.6556 10.4591 12.1834 14.5036 12.0513L17.5042 12.0038C18.287 12 19.1177 12 20 12H28C28.8823 12 29.713 12 30.4959 12.0038L33.4964 12.0513C37.5409 12.1834 39.9693 12.6556 41.6569 14.3431C44 16.6863 44 20.4575 44 28C44 35.5425 44 39.3137 41.6569 41.6569C39.3137 44 35.5424 44 28 44H20C12.4575 44 8.68629 44 6.34315 41.6569C4 39.3137 4 35.5425 4 28C4 20.4575 4 16.6863 6.34315 14.3431Z" fill="black"/>
<path id="Union_2" d="M25.5 20C25.5 19.1716 24.8284 18.5 24 18.5C23.1716 18.5 22.5 19.1716 22.5 20V20.0205C20.3224 20.5691 18.5 22.286 18.5 24.6667C18.5 27.5805 21.2301 29.5 24 29.5C25.6484 29.5 26.5 30.5653 26.5 31.3333C26.5 32.1014 25.6484 33.1667 24 33.1667C22.3516 33.1667 21.5 32.1014 21.5 31.3333C21.5 30.5049 20.8284 29.8333 20 29.8333C19.1716 29.8333 18.5 30.5049 18.5 31.3333C18.5 33.714 20.3224 35.4309 22.5 35.9795V36C22.5 36.8284 23.1716 37.5 24 37.5C24.8284 37.5 25.5 36.8284 25.5 36V35.9795C27.6776 35.4309 29.5 33.714 29.5 31.3333C29.5 28.4195 26.7699 26.5 24 26.5C22.3516 26.5 21.5 25.4347 21.5 24.6667C21.5 23.8986 22.3516 22.8333 24 22.8333C25.6484 22.8333 26.5 23.8986 26.5 24.6667C26.5 25.4951 27.1716 26.1667 28 26.1667C28.8284 26.1667 29.5 25.4951 29.5 24.6667C29.5 22.286 27.6776 20.5691 25.5 20.0205V20Z" fill="#FFC121"/>
<path id="Union_3" d="M24.1043 2.5H23.8963C22.0994 2.49995 20.6009 2.4999 19.4114 2.65983C18.1558 2.82864 17.0222 3.19998 16.1112 4.11092C15.2003 5.02186 14.829 6.15546 14.6601 7.41105C14.5455 8.26378 14.5131 10.3029 14.5039 12.0513L17.5045 12.0038C17.5135 10.3105 17.5423 8.48815 17.6334 7.81079C17.7575 6.88787 17.9719 6.49287 18.2326 6.23224C18.4932 5.97161 18.8882 5.75716 19.8111 5.63308C20.7772 5.50319 22.0723 5.50001 24.0003 5.50001C25.9283 5.50001 27.2235 5.50319 28.1895 5.63308C29.1125 5.75716 29.5075 5.97161 29.7681 6.23224C30.0287 6.49287 30.2432 6.88787 30.3673 7.81079C30.4583 8.48815 30.4871 10.3105 30.4962 12.0038L33.4967 12.0513C33.4876 10.3029 33.4551 8.26378 33.3405 7.41105C33.1717 6.15546 32.8004 5.02186 31.8894 4.11092C30.9785 3.19998 29.8449 2.82864 28.5893 2.65983C27.3997 2.4999 25.9013 2.49995 24.1043 2.5Z" fill="#FFC121"/>
</g>
</svg>
