<svg width="36" height="37" viewBox="0 0 36 37" fill="none" xmlns="http://www.w3.org/2000/svg">
<path d="M31.5 19.5V15.5C31.5 9.84315 31.5 7.01472 29.7426 5.25736C27.9853 3.5 25.1569 3.5 19.5 3.5H16.5C10.8431 3.5 8.01472 3.5 6.25736 5.25736C4.5 7.01472 4.5 9.84315 4.5 15.5V21.5C4.5 27.1569 4.5 29.9853 6.25736 31.7426C8.01472 33.5 10.8431 33.5 16.5 33.5H19" stroke="#323232" stroke-width="1.5" stroke-linecap="round"/>
<path d="M11 11.5H25" stroke="#323232" stroke-width="1.5" stroke-linecap="round"/>
<path d="M11 16.5H25" stroke="#323232" stroke-width="1.5" stroke-linecap="round"/>
<path d="M11 22.5H18.5" stroke="#323232" stroke-width="1.5" stroke-linecap="round"/>
<circle cx="26.6666" cy="28.1666" r="6.33333" stroke="#0078B8" stroke-width="1.5"/>
<path d="M31.3333 32.8333L33.6666 35.1666" stroke="#0078B8" stroke-width="1.5" stroke-linecap="round"/>
</svg>
