<svg width="20" height="20" viewBox="0 0 20 20" fill="none" xmlns="http://www.w3.org/2000/svg">
<g id="market_icon">
<path id="Vector" d="M9.19783 3.59681L9.73867 4.56592C10.2268 5.44048 10.0308 6.58777 9.2621 7.3565C9.2621 7.3565 9.2621 7.3565 9.26209 7.3565C9.26198 7.35662 8.32975 8.28906 10.0203 9.97957C11.7101 11.6694 12.6425 10.7386 12.6433 10.7377C12.6434 10.7377 12.6433 10.7377 12.6434 10.7377C13.4121 9.96901 14.5594 9.77309 15.4339 10.2612L16.403 10.802C17.7236 11.539 17.8796 13.391 16.7188 14.5518C16.0213 15.2493 15.1668 15.7921 14.2223 15.8279C12.6322 15.8882 9.93174 15.4857 7.22292 12.7769C4.51411 10.0681 4.11168 7.36769 4.17196 5.77757C4.20777 4.833 4.75051 3.97853 5.44801 3.28103C6.6088 2.12023 8.46082 2.2762 9.19783 3.59681Z" stroke="#0078B8" stroke-width="1.5" stroke-linecap="round"/>
</g>
</svg>
