<svg width="112" height="48" viewBox="0 0 112 48" fill="none" xmlns="http://www.w3.org/2000/svg">
<g id="&#236;&#167;&#128;&#237;&#149;&#153;&#236;&#130;&#172;" clip-path="url(#clip0_5837_15006)">
<path id="Vector" d="M29.8754 36.4082C30.8214 36.4082 31.665 35.9764 32.2238 35.2979C34.7366 32.2099 36.2377 28.28 36.2377 23.9982C36.234 14.0593 28.1224 6 18.1188 6C8.11531 6 0 14.0593 0 24.0018C0 29.3142 2.31553 34.0895 5.997 37.3843C6.53388 37.8597 7.24242 38.15 8.02035 38.15H8.83115C11.4023 38.15 13.5973 39.7502 14.4666 42.0036C15.0729 38.8177 17.8887 36.4119 21.2707 36.4119H29.8754V36.4082Z" fill="#FFD900"/>
<path id="Vector_2" d="M72.0261 27.3837V29.6154H83.191V34.5576H86.0617V27.3837H72.0261Z" fill="#231916"/>
<path id="Vector_3" d="M89.3597 19.2592H86.0617V14.9483H83.191V26.7088H86.0617V21.5234H89.3597V19.2592Z" fill="#231916"/>
<path id="Vector_4" d="M79.9296 20.7179C79.9296 19.5821 79.484 18.5407 78.728 17.7061H80.9741V15.4817H75.2291V13.8561H72.3584V15.4817H66.7632V17.7061H68.8304C68.0926 18.5334 67.658 19.564 67.658 20.7179C67.658 23.6099 70.4045 25.7545 73.7938 25.7545C77.1831 25.7545 79.9296 23.5337 79.9296 20.7179ZM70.4337 20.6925C70.4337 18.958 71.9348 17.8113 73.7901 17.8113C75.6455 17.8113 77.1465 18.9761 77.1465 20.6925C77.1465 22.4088 75.6418 23.6208 73.7901 23.6208C71.9384 23.6208 70.4337 22.427 70.4337 20.6925Z" fill="#231916"/>
<path id="Vector_5" d="M63.6697 14.9483H60.7991V34.5576H63.6697V14.9483Z" fill="#231916"/>
<path id="Vector_6" d="M56.3835 15.1733H45.5984V17.4339H52.9869L44.7584 27.1043L46.9315 28.8969L56.3835 17.4339V15.1733Z" fill="#231916"/>
<path id="Vector_7" d="M50.6422 25.5367L55.927 28.8969L57.4573 26.4874L52.4135 23.3885L50.6422 25.5367Z" fill="#231916"/>
<path id="Vector_8" d="M95.269 25.4315L100.722 28.8969L102.248 26.4875L96.8979 23.1926L95.269 25.4315Z" fill="#231916"/>
<path id="Vector_9" d="M98.7569 14.883L89.5021 27.2132L91.814 28.8969L100.879 16.4252L98.7569 14.883Z" fill="#231916"/>
<path id="Vector_10" d="M112 19.749H108.468V14.9483H105.601V34.5576H108.468V22.0097H112V19.749Z" fill="#231916"/>
</g>
<defs>
<clipPath id="clip0_5837_15006">
<rect width="112" height="48" fill="white"/>
</clipPath>
</defs>
</svg>
