<svg width="60" height="48" viewBox="0 0 60 48" fill="none" xmlns="http://www.w3.org/2000/svg">
<g id="&#236;&#176;&#189;&#235;&#185;&#132;">
<path id="&#237;&#140;&#168;&#236;&#138;&#164; 18" d="M20.0826 14.9824V19.9319H16.5366V7.00375H20.0826V11.8802H22.6914V14.9824H20.0826Z" fill="#333333"/>
<path id="&#237;&#140;&#168;&#236;&#138;&#164; 19" d="M24.903 15.7105H28.4201V19.033H31.5692V15.7105H35.0779V28.6256H24.903V15.7105ZM31.5692 22.0874H28.4201V25.5384H31.5692V22.0874Z" fill="#333333"/>
<path id="&#236;&#130;&#172;&#234;&#176;&#129;&#237;&#152;&#149; 23" d="M42.5529 7H39.0442V19.9319H42.5529V7Z" fill="#333333"/>
<path id="&#236;&#130;&#172;&#234;&#176;&#129;&#237;&#152;&#149; 24" d="M48.2493 13.0844V16.6634L60 16.6634V13.0844L48.2493 13.0844Z" fill="#333333"/>
<path id="&#236;&#130;&#172;&#234;&#176;&#129;&#237;&#152;&#149; 25" d="M48.2493 19.1688V22.7478L60 22.7478V19.1688L48.2493 19.1688Z" fill="#333333"/>
<path id="&#236;&#130;&#172;&#234;&#176;&#129;&#237;&#152;&#149; 26" d="M48.2493 25.2531V28.8322L60 28.8322V25.2531L48.2493 25.2531Z" fill="#333333"/>
<path id="&#237;&#140;&#168;&#236;&#138;&#164; 20" d="M18.3431 29.1128C17.175 29.1124 16.0331 29.4607 15.0618 30.1136C14.0905 30.7665 13.3333 31.6947 12.8861 32.7808C12.4389 33.8669 12.3218 35.062 12.5495 36.2151C12.7772 37.3682 13.3395 38.4274 14.1654 39.2588C14.9912 40.0902 16.0435 40.6564 17.1891 40.8858C18.3347 41.1152 19.5221 40.9974 20.6012 40.5475C21.6803 40.0975 22.6026 39.3356 23.2514 38.358C23.9002 37.3804 24.2464 36.2311 24.2463 35.0554C24.2458 33.4797 23.6237 31.9685 22.5168 30.8542C21.4098 29.7399 19.9086 29.1135 18.3431 29.1128ZM18.3431 37.5162C17.8595 37.5162 17.3869 37.3718 16.9848 37.1015C16.5828 36.8311 16.2695 36.4468 16.0844 35.9971C15.8994 35.5475 15.851 35.0527 15.9453 34.5754C16.0396 34.0981 16.2725 33.6596 16.6144 33.3155C16.9563 32.9713 17.3919 32.737 17.8661 32.642C18.3404 32.5471 18.8319 32.5958 19.2786 32.782C19.7254 32.9683 20.1072 33.2837 20.3758 33.6883C20.6444 34.093 20.7878 34.5688 20.7878 35.0554C20.7882 35.3787 20.7252 35.6988 20.6025 35.9976C20.4798 36.2963 20.2997 36.5677 20.0726 36.7963C19.8455 37.0248 19.5759 37.2061 19.2791 37.3296C18.9823 37.4531 18.6642 37.5165 18.3431 37.5162Z" fill="#333333"/>
<path id="&#237;&#140;&#168;&#236;&#138;&#164; 21" d="M6.4091 24.3892L2.79507 29.0659L0 26.8631L4.66404 21.0948V19.947H0.991318V16.8617H4.66404V13.9593H8.1467V16.8617H11.839V19.947H8.1467V21.0948L12.7176 26.8631L10.0287 29.0659L6.4091 24.3892Z" fill="#333333"/>
</g>
</svg>
