<svg width="132" height="48" viewBox="0 0 132 48" fill="none" xmlns="http://www.w3.org/2000/svg">
<g id="&#234;&#181;&#144;&#237;&#149;&#153;&#236;&#130;&#172;">
<path id="Vector" d="M29.9722 28.7776C29.3399 30.1003 28.4903 31.2848 27.3839 32.2719L25.8824 31.1466C26.8505 30.3372 27.6013 29.3304 28.1347 28.1853C28.6682 27.0403 28.9645 25.8163 28.9645 24.4936C28.9645 23.1709 28.7077 21.9469 28.1742 20.7821C27.621 19.6173 26.8702 18.6697 25.8824 17.8406L27.3839 16.7153C28.4903 17.7024 29.3597 18.8671 29.9524 20.1898C30.5846 21.552 30.881 22.9932 30.881 24.4936C30.881 25.994 30.5649 27.4549 29.9722 28.7776ZM22.6421 25.8163C21.1998 25.8163 19.8761 25.3622 18.6511 24.4936C17.4261 23.6249 16.379 22.7168 15.4306 21.8284C14.5218 22.7366 13.4549 23.6249 12.2497 24.4936C11.0247 25.3622 9.68119 25.8163 8.23889 25.8163L7.52762 24.3949C8.41671 24.1975 9.52313 23.6249 10.8074 22.6773C12.1311 21.6902 12.7831 20.6242 12.7831 19.4002H8.0018V17.3668H22.9187V19.4002H18.1374C18.1374 20.6242 18.7894 21.6902 20.0736 22.6576C21.3579 23.6447 22.4643 24.1975 23.3731 24.4146L22.6619 25.836L22.6421 25.8163ZM16.8729 28.7184V31.6007H14.0278V28.7184H7.98204V26.6849H22.899V28.7184H16.8729ZM3.49708 32.2719C2.39066 31.2651 1.54109 30.1003 0.928604 28.7776C0.296363 27.4351 0 26.0137 0 24.4936C0 22.9735 0.31612 21.5323 0.908846 20.1898C1.54109 18.8474 2.39066 17.6826 3.49708 16.7153L5.01841 17.8406C4.05029 18.6697 3.29951 19.6173 2.76605 20.7821C2.2326 21.9469 1.93624 23.1511 1.93624 24.4936C1.93624 25.836 2.19309 27.06 2.72654 28.1853C3.25999 29.3304 4.03053 30.3372 5.01841 31.1466L3.49708 32.2719Z" fill="#2D4285"/>
<path id="Vector_2" d="M56.4274 29.7844V19.3014C56.4274 19.0645 56.3483 18.9066 56.21 18.7684C56.0717 18.6302 55.8742 18.571 55.6766 18.571H38.1714L37.0848 15.4715H58.8575C59.4503 15.4715 59.964 15.6689 60.3789 16.0835C60.7938 16.4981 61.0309 17.0508 61.0309 17.6431V29.7844H56.4669H56.4274ZM35.8005 33.3972V30.2977H40.9177V21.1374H45.5015V30.2779H48.5441V21.1374H53.1081V30.2779H62.8683V33.3774H35.7808L35.8005 33.3972Z" fill="#2D4285"/>
<path id="Vector_3" d="M83.8113 22.3219C83.8113 22.9142 83.4162 23.4472 82.6259 23.8815C81.8553 24.2961 80.8872 24.5133 79.8005 24.5133C78.7139 24.5133 77.7062 24.2763 76.9357 23.8618C76.1651 23.4472 75.8095 22.9339 75.8095 22.3416C75.8095 21.7494 76.2047 21.1966 76.9752 20.782C77.7457 20.3674 78.7139 20.1305 79.8005 20.1305C80.8872 20.1305 81.8356 20.3674 82.6259 20.782C83.4162 21.1966 83.8113 21.7494 83.8113 22.3416M98.827 20.4464H95.1126V15.7478H90.4893V27.6325H95.1126V23.5064H97.7601L98.827 20.4267V20.4464ZM89.6793 19.3014V16.1822H82.0331V14.1882H77.5482V16.1822H69.6649L70.7516 19.2619H74.0116C73.1225 19.6765 72.4507 20.1898 71.9766 20.7623C71.5024 21.2953 71.2653 21.9271 71.2653 22.5588C71.2653 23.8223 72.0753 24.9081 73.7547 25.7767C75.4341 26.6454 77.4494 27.0994 79.8005 27.0994C82.1517 27.0994 84.1669 26.6454 85.8266 25.7767C87.506 24.9081 88.316 23.8223 88.316 22.5588C88.316 21.9271 88.0592 21.3348 87.585 20.7623C87.1108 20.1898 86.4588 19.6962 85.5697 19.2619H89.6793V19.3014ZM95.1126 33.8314V29.6264C95.1126 29.2118 94.9348 28.817 94.6384 28.4616C94.3223 28.1458 93.9667 27.9878 93.5123 27.9878H70.8701V31.1268H89.9361C90.3115 31.1268 90.5091 31.3045 90.5091 31.6598V33.8314H95.1324H95.1126Z" fill="#2D4285"/>
<path id="Vector_4" d="M130.933 23.309H128.305V33.634H123.741V15.7084H128.305V20.2293H132L130.933 23.309ZM118.288 33.4169L113.704 21.7297C113.527 21.4138 113.309 21.2559 112.993 21.2559H111.61L108.251 33.4169H103.964L108.706 16.2217H112.993L112.42 18.2551H115.463C115.937 18.2551 116.332 18.3735 116.668 18.6302C117.024 18.8868 117.281 19.183 117.478 19.5778L122.556 33.4169H118.249H118.288Z" fill="#2D4285"/>
</g>
</svg>
