<svg width="84" height="48" viewBox="0 0 84 48" fill="none" xmlns="http://www.w3.org/2000/svg">
<g id="&#236;&#148;&#168;&#235;&#167;&#136;&#236;&#138;&#164;">
<path id="Vector" d="M69.9246 12.0631H68.5055V14.8994C68.5055 16.2341 68.1685 17.3756 67.4856 18.3503C66.8027 19.3162 65.9778 20.1329 65.0022 20.8178C64.0355 21.4939 63.0244 22.0296 61.9689 22.4423C60.9135 22.8462 60 23.136 59.2284 23.3116L61.2772 27.0523C61.6674 26.9645 62.2705 26.7713 63.0687 26.4903C63.8758 26.2093 64.7361 25.8317 65.6674 25.3488C66.5721 24.8922 67.4678 24.339 68.3725 23.6979C69.2594 23.0569 70.0044 22.3281 70.5987 21.529C71.1929 22.3632 71.9202 23.0921 72.7716 23.7155C73.6319 24.3477 74.51 24.8922 75.4146 25.3576C76.2927 25.8142 77.1352 26.183 77.9512 26.4727C78.7672 26.7537 79.4324 26.9557 79.9645 27.0611L82.0133 23.3204C81.2239 23.1623 80.3015 22.8813 79.2284 22.4862C78.1641 22.0822 77.1441 21.529 76.1685 20.8353C75.2018 20.1592 74.3769 19.3426 73.7117 18.3679C73.0377 17.3932 72.7095 16.2517 72.7095 14.917V14.794C72.7095 14.794 72.9667 12.0807 69.9335 12.0807M84 31.6447H57.1885V35.5172H79.3171C79.3171 35.5172 84 35.7894 84 31.6447ZM52.3725 32.1101V22.3369H57.1264V18.4645H52.3725V10.825H48.204V36.325C52.7273 36.325 52.3725 32.1014 52.3725 32.1014M34.5277 26.2269C34.2528 26.2269 34.0488 26.1391 33.8803 25.9722C33.7206 25.8142 33.6408 25.5244 33.6408 25.1117V15.9619H40.4701V23.6804C40.4701 24.5936 40.2483 25.2522 39.8226 25.6473C39.4058 26.0337 38.8559 26.2357 38.1907 26.2357H34.5366L34.5277 26.2269ZM41.49 12.1246H29.4368V26.8328C29.4368 27.8514 29.7206 28.6504 30.2882 29.2036C30.847 29.7568 31.592 30.0378 32.5233 30.0378H39.0953C40.8071 30.0378 42.1641 29.4144 43.1574 28.1587C44.1508 26.903 44.6474 25.2522 44.6474 23.1974V15.2331C44.6474 12.0456 41.5078 12.1246 41.5078 12.1246M13.6053 11.7997H12.2483V19.8694C12.2483 21.1163 12.1064 22.1701 11.8049 23.0394C11.5122 23.9175 11.0776 24.7078 10.5277 25.4278H10.4035C9.80931 24.6814 9.37472 23.856 9.09978 22.9252C8.82483 21.9944 8.68292 20.8792 8.68292 19.5797V14.5745C8.68292 11.6592 6.00443 11.7997 6.00443 11.7997H4.65632V19.8694C4.65632 21.8978 4.26607 23.6014 3.46785 24.9712C2.67849 26.3322 1.51663 27.3245 0 27.9216L2.34146 30.9686C3.13969 30.7315 3.89357 30.3452 4.6031 29.792C5.32151 29.2475 5.96896 28.5802 6.57206 27.7987H6.7051C7.21064 28.5187 7.76053 29.1158 8.33703 29.59C8.92239 30.0554 9.63193 30.5383 10.4656 31.0476C11.3614 30.4769 12.0621 29.9764 12.5765 29.5373C13.082 29.0983 13.6142 28.5187 14.1552 27.7987H14.2882C14.8825 28.589 15.5477 29.2388 16.2749 29.7744C16.9933 30.31 17.765 30.714 18.5809 30.9686L20.9579 27.9216C19.3703 27.3157 18.1907 26.2971 17.4191 24.8746C16.6474 23.4609 16.2661 21.6959 16.2661 19.5884V14.5833C16.2661 11.8173 13.5787 11.8085 13.5787 11.8085M25.969 32.1101V10.825H21.7738V36.325C26.3681 36.325 25.969 32.1014 25.969 32.1014" fill="#B4008D"/>
</g>
</svg>
