<svg width="102" height="48" viewBox="0 0 102 48" fill="none" xmlns="http://www.w3.org/2000/svg">
<g id="&#235;&#185;&#132;&#236;&#131;&#129;">
<path id="Vector" d="M61.3961 22.0051C61.3961 24.5634 61.3961 27.0293 61.3961 29.5687C59.9253 29.5687 58.5004 29.5687 57.0124 29.5687C57.0124 28.9777 57.0124 28.4036 57.0124 27.816C56.867 27.816 56.7465 27.7787 56.7056 27.8213C53.7684 30.8828 47.5957 30.212 45.3164 25.0513C43.1349 20.1122 45.1595 14.6863 49.905 12.8465C55.4285 10.705 61.2739 14.7555 61.385 20.802C61.3918 21.1722 61.3926 21.5424 61.3961 22.0051ZM52.282 24.7807C52.4925 24.7863 52.7045 24.8108 52.9133 24.7945C54.5053 24.6703 55.6376 23.8582 56.2169 22.3416C56.7869 20.8492 56.447 19.4887 55.4013 18.336C54.4104 17.2438 52.7772 16.9183 51.408 17.4652C49.9538 18.046 48.9503 19.6045 49.0323 21.1546C49.1268 22.9381 50.2368 24.2263 52.282 24.7807Z" fill="#03B6E5"/>
<path id="Vector_2" d="M89.8814 29.7495C86.2744 29.2303 83.7238 27.3666 82.5216 23.907C81.3476 20.5284 82.0296 17.4084 84.4787 14.8557C86.9014 12.3305 89.9182 11.5555 93.2146 12.6608C96.5381 13.7751 98.4888 16.2244 99.0591 19.769C99.8555 24.719 95.9289 30.0741 89.8814 29.7495ZM91.9687 17.416C89.1916 16.5414 86.5233 18.5433 86.8276 21.2732C87.0387 23.1674 88.4103 24.6326 90.1238 24.7944C92.086 24.9798 93.6738 23.8564 94.2068 21.9055C94.6875 20.1465 93.8613 18.4179 91.9687 17.416Z" fill="#03B7E5"/>
<path id="Vector_3" d="M34.4845 29.8335C31.7936 29.5941 29.4025 28.7964 27.3016 26.9807C28.2529 25.8095 29.1677 24.6831 30.0987 23.5369C32.1097 24.925 34.2834 25.5091 36.6476 25.3548C36.798 25.345 36.979 25.3785 37.0925 25.3055C37.475 25.0595 37.8334 24.7744 38.201 24.5043C37.8728 24.1977 37.5908 23.7252 37.2082 23.614C35.7903 23.2016 34.334 22.9295 32.9032 22.5599C32.3222 22.4098 31.7459 22.194 31.2086 21.9229C29.5991 21.1112 28.2653 20.0458 28.2348 17.9884C28.202 15.7749 29.1709 14.1193 31.0644 13.0876C33.5188 11.7503 36.1311 11.9 38.7462 12.4336C40.2708 12.7447 41.6561 13.4054 42.9816 14.4808C42.1252 15.6897 41.287 16.8727 40.4084 18.113C38.9346 17.1366 37.3469 16.6473 35.6373 16.5232C34.5796 16.4463 33.4593 16.7647 33.4969 17.2842C33.5685 18.2733 34.4931 18.3212 35.1725 18.5249C36.8465 19.0267 38.5746 19.356 40.2213 19.9326C42.0277 20.5651 43.2621 21.8184 43.3482 23.9179C43.4403 26.1669 42.531 27.8666 40.5671 28.9132C38.6782 29.92 36.6377 30.0075 34.4845 29.8335Z" fill="#04B7E5"/>
<path id="Vector_4" d="M65.8517 14.928C68.4728 12.3946 71.4819 11.5814 74.8172 12.8183C78.1716 14.0623 80.1931 16.6017 80.4089 20.2847C80.5886 23.3508 80.4457 26.4366 80.4457 29.5785C78.8055 29.5785 77.1616 29.5785 75.3731 29.5785C75.3731 29.259 75.3731 28.9354 75.3731 28.6118C75.3731 26.1744 75.378 23.737 75.3717 21.2997C75.3661 19.1409 73.9872 17.5854 72.0655 17.5536C70.0872 17.5209 68.6062 19.0478 68.5783 21.2233C68.547 23.6603 68.5706 26.098 68.5703 28.5354C68.5703 28.8674 68.5703 29.1995 68.5703 29.5869C66.8374 29.5869 65.192 29.5869 63.4263 29.5869C63.4263 28.9983 63.4262 28.4223 63.4263 27.8464C63.4264 25.6558 63.4383 23.4652 63.4237 21.2747C63.4076 18.8501 64.18 16.7462 65.8517 14.928Z" fill="#04B7E5"/>
<path id="Vector_5" d="M4.47548 12.4801C5.10419 13.2224 5.77622 13.8644 6.23146 14.6394C7.43887 16.695 8.55261 18.808 9.77274 21.0236C10.8568 19.1098 11.862 17.2986 12.9049 15.5104C13.3819 14.6924 13.8675 13.8629 14.4656 13.139C15.5137 11.8703 16.7859 11.6956 18.1917 12.5197C18.656 12.7919 19.0968 13.106 19.6194 13.4474C18.7299 14.9948 17.8816 16.4773 17.0269 17.9559C14.8648 21.6962 12.7033 25.4368 10.5341 29.1728C9.91565 30.2379 9.62593 30.2372 9.00687 29.1672C5.9999 23.9695 3.00015 18.7675 0 13.5708C1.36227 12.0208 2.75935 11.6662 4.47548 12.4801Z" fill="#03B7E5"/>
<path id="Vector_6" d="M91.6557 43.9275C87.9551 44.4632 84.662 41.9735 84.2096 38.3745C83.7514 34.7295 86.3501 31.2783 89.8137 30.9319C93.5493 30.5582 96.7425 33.282 97.0217 37.0804C97.2583 40.2983 94.9275 43.3065 91.6557 43.9275Z" fill="#02B6E5"/>
<path id="Vector_7" d="M20.7926 23.486C20.7926 19.7274 20.7926 16.0614 20.7926 12.2324C21.8013 12.2907 22.7404 12.2425 23.6365 12.4207C24.9662 12.6852 26.0055 13.9433 26.0169 15.3295C26.0557 20.0489 26.0318 24.7689 26.0318 29.5658C24.31 29.5658 22.6102 29.5658 20.7926 29.5658C20.7926 27.5715 20.7926 25.5751 20.7926 23.486Z" fill="#04B7E5"/>
<path id="Vector_8" d="M98.0166 13.7023C97.5937 13.9521 97.148 14.1731 97.1297 13.488C97.0852 11.8266 97.1178 10.1628 97.1356 8.50009C97.137 8.37126 97.2655 8.24386 97.3976 8C98.8575 8.86183 100.304 9.66506 101.693 10.5616C102.226 10.9052 101.999 11.3575 101.518 11.6428C100.372 12.3224 99.2223 12.9944 98.0166 13.7023Z" fill="#0AB8E5"/>
<path id="Vector_9" d="M52.2066 24.7656C50.237 24.2263 49.127 22.9381 49.0325 21.1545C48.9504 19.6045 49.954 18.046 51.4082 17.4652C52.7774 16.9183 54.4106 17.2438 55.4014 18.336C56.4472 19.4887 56.787 20.8491 56.217 22.3416C55.6378 23.8582 54.5055 24.6703 52.9135 24.7945C52.7046 24.8108 52.4927 24.7863 52.2066 24.7656Z" fill="#FCFEFE"/>
</g>
</svg>
