<svg width="148" height="148" viewBox="0 0 148 148" fill="none" xmlns="http://www.w3.org/2000/svg">
<g filter="url(#filter0_d_6306_2614)">
<rect x="24" y="16" width="100" height="100" rx="50" fill="white"/>
<path fill-rule="evenodd" clip-rule="evenodd" d="M70.2751 90.455L70.9169 89.3707C71.9455 87.6329 72.4598 86.764 73.2791 86.2794C74.0984 85.7948 75.167 85.7606 77.3043 85.6922C79.3084 85.6281 80.6553 85.4533 81.807 84.9762C84.2317 83.9719 86.1581 82.0455 87.1624 79.6207C87.9157 77.8022 87.9157 75.4968 87.9157 70.886V68.9069C87.9157 62.4284 87.9157 59.1891 86.4575 56.8095C85.6415 55.478 84.522 54.3585 83.1905 53.5426C80.8109 52.0844 77.5717 52.0844 71.0932 52.0844H65.1558C58.6773 52.0844 55.4381 52.0844 53.0585 53.5426C51.727 54.3585 50.6075 55.478 49.7916 56.8095C48.3333 59.1891 48.3333 62.4284 48.3333 68.9069V70.886C48.3333 75.4968 48.3333 77.8022 49.0866 79.6207C50.0909 82.0455 52.0174 83.9719 54.4421 84.9762C55.5937 85.4533 56.9406 85.6281 58.9446 85.6922C61.0819 85.7606 62.1506 85.7948 62.9698 86.2794C63.7891 86.764 64.3034 87.6329 65.332 89.3707L65.9738 90.455C66.9301 92.0706 69.3189 92.0706 70.2751 90.455ZM76.7831 71.8755C78.1494 71.8755 79.257 70.7679 79.257 69.4016C79.257 68.0353 78.1494 66.9277 76.7831 66.9277C75.4169 66.9277 74.3092 68.0353 74.3092 69.4016C74.3092 70.7679 75.4169 71.8755 76.7831 71.8755ZM70.5984 69.4016C70.5984 70.7679 69.4908 71.8755 68.1245 71.8755C66.7582 71.8755 65.6506 70.7679 65.6506 69.4016C65.6506 68.0353 66.7582 66.9277 68.1245 66.9277C69.4908 66.9277 70.5984 68.0353 70.5984 69.4016ZM59.4659 71.8755C60.8322 71.8755 61.9398 70.7679 61.9398 69.4016C61.9398 68.0353 60.8322 66.9277 59.4659 66.9277C58.0996 66.9277 56.992 68.0353 56.992 69.4016C56.992 70.7679 58.0996 71.8755 59.4659 71.8755Z" fill="#0078B8"/>
<path d="M82.134 40.3334C85.09 40.3334 87.4407 40.3333 89.326 40.5126C91.2591 40.6964 92.8935 41.0817 94.3494 41.9739C95.8474 42.8918 97.1068 44.1513 98.0247 45.6492C98.9169 47.1052 99.3022 48.7396 99.486 50.6726C99.6652 52.5579 99.6652 54.9087 99.6652 57.8647V59.8837C99.6652 61.9874 99.6652 63.6608 99.5726 65.0177C99.4779 66.406 99.2801 67.598 98.8178 68.7142C97.6879 71.442 95.5207 73.6092 92.7929 74.7391C92.7247 74.7674 92.6562 74.7947 92.5872 74.821C92.2581 74.9468 91.9758 75.0547 91.7282 75.1351H87.8779C87.9157 73.9706 87.9157 72.5839 87.9157 70.8838V68.9046C87.9157 62.4261 87.9157 59.1868 86.4574 56.8072C85.6415 55.4757 84.522 54.3562 83.1905 53.5403C80.8109 52.0821 77.5717 52.0821 71.0932 52.0821H65.1558C62.8565 52.0821 60.9653 52.0821 59.3756 52.1473V48.2963C59.452 48.0318 59.5565 47.7287 59.6793 47.3728C59.888 46.7676 60.1519 46.1951 60.4864 45.6492C61.4044 44.1512 62.6638 42.8918 64.1617 41.9739C65.6177 41.0817 67.2521 40.6964 69.1852 40.5126C71.0704 40.3333 73.4212 40.3334 76.3772 40.3334H82.134Z" fill="#84BC3C"/>
</g>
<defs>
<filter id="filter0_d_6306_2614" x="0" y="0" width="148" height="148" filterUnits="userSpaceOnUse" color-interpolation-filters="sRGB">
<feFlood flood-opacity="0" result="BackgroundImageFix"/>
<feColorMatrix in="SourceAlpha" type="matrix" values="0 0 0 0 0 0 0 0 0 0 0 0 0 0 0 0 0 0 127 0" result="hardAlpha"/>
<feOffset dy="8"/>
<feGaussianBlur stdDeviation="12"/>
<feComposite in2="hardAlpha" operator="out"/>
<feColorMatrix type="matrix" values="0 0 0 0 0.713316 0 0 0 0 0.864867 0 0 0 0 0.945833 0 0 0 0.4 0"/>
<feBlend mode="normal" in2="BackgroundImageFix" result="effect1_dropShadow_6306_2614"/>
<feBlend mode="normal" in="SourceGraphic" in2="effect1_dropShadow_6306_2614" result="shape"/>
</filter>
</defs>
</svg>
