<svg width="148" height="148" viewBox="0 0 148 148" fill="none" xmlns="http://www.w3.org/2000/svg">
<g filter="url(#filter0_d_5979_2927)">
<rect x="24" y="16" width="100" height="100" rx="50" fill="#FFC121"/>
<path d="M63.3274 80H92.6668C92.6586 82.1691 92.6164 83.7865 92.4022 85.0646C92.1473 86.5865 91.6809 87.3925 90.9655 87.9665C90.2502 88.5405 89.2459 88.9148 87.3493 89.1194C85.397 89.33 82.8095 89.3333 79.0995 89.3333H68.7609C65.0509 89.3333 62.4634 89.33 60.5111 89.1194C58.6145 88.9148 57.6102 88.5405 56.8949 87.9665C56.1795 87.3925 55.7132 86.5865 55.4582 85.0646C55.439 84.9503 55.4212 84.8333 55.4047 84.7134C55.3112 84.0338 55.2644 83.694 55.5597 82.8927C55.855 82.0915 55.983 81.9658 56.2391 81.7143C56.9983 80.9686 58.0397 80.4166 59.2377 80.159C59.915 80.0134 60.799 80 63.3274 80Z" fill="#0078B8"/>
<path d="M57.0303 44.3777C57.7428 43.6591 58.7433 43.1906 60.6326 42.9345C62.5774 42.6708 65.155 42.6667 68.8507 42.6667H79.1496C82.8454 42.6667 85.4229 42.6708 87.3678 42.9345C89.257 43.1906 90.2575 43.6591 90.9701 44.3777C91.6827 45.0963 92.1472 46.1053 92.4012 48.0105C92.6627 49.9717 92.6668 52.571 92.6668 56.298L92.6668 80H63.3274C60.799 80 59.915 80.0134 59.2377 80.159C58.0397 80.4166 56.9983 80.9686 56.2391 81.7143C55.983 81.9657 55.855 82.0915 55.5597 82.8927C55.3903 83.3524 55.3335 83.6602 55.3335 83.9674V56.298C55.3335 52.571 55.3376 49.9717 55.5991 48.0105C55.8531 46.1053 56.3177 45.0963 57.0303 44.3777Z" fill="white"/>
<path d="M62.9165 54.3333C62.9165 53.3668 63.7 52.5833 64.6665 52.5833H83.3332C84.2997 52.5833 85.0832 53.3668 85.0832 54.3333C85.0832 55.2998 84.2997 56.0833 83.3332 56.0833H64.6665C63.7 56.0833 62.9165 55.2998 62.9165 54.3333Z" fill="#0078B8"/>
<path d="M64.6665 60.75C63.7 60.75 62.9165 61.5335 62.9165 62.5C62.9165 63.4665 63.7 64.25 64.6665 64.25H76.3332C77.2997 64.25 78.0832 63.4665 78.0832 62.5C78.0832 61.5335 77.2997 60.75 76.3332 60.75H64.6665Z" fill="#0078B8"/>
</g>
<defs>
<filter id="filter0_d_5979_2927" x="0" y="0" width="148" height="148" filterUnits="userSpaceOnUse" color-interpolation-filters="sRGB">
<feFlood flood-opacity="0" result="BackgroundImageFix"/>
<feColorMatrix in="SourceAlpha" type="matrix" values="0 0 0 0 0 0 0 0 0 0 0 0 0 0 0 0 0 0 127 0" result="hardAlpha"/>
<feOffset dy="8"/>
<feGaussianBlur stdDeviation="12"/>
<feComposite in2="hardAlpha" operator="out"/>
<feColorMatrix type="matrix" values="0 0 0 0 1 0 0 0 0 0.756863 0 0 0 0 0.129412 0 0 0 0.4 0"/>
<feBlend mode="normal" in2="BackgroundImageFix" result="effect1_dropShadow_5979_2927"/>
<feBlend mode="normal" in="SourceGraphic" in2="effect1_dropShadow_5979_2927" result="shape"/>
</filter>
</defs>
</svg>
