<svg width="120" height="120" viewBox="0 0 120 120" fill="none" xmlns="http://www.w3.org/2000/svg">
<g filter="url(#filter0_d_6306_2618)">
<rect x="24" y="16" width="72" height="72" rx="36" fill="#87C834"/>
<path d="M43.3334 52.2068C43.3334 42.8879 50.7953 35.3334 60 35.3334C69.2047 35.3334 76.6665 42.8879 76.6665 52.2068L76.6666 60.9458C76.6671 62.3073 76.6674 63.241 76.4281 64.0607C75.9601 65.6637 74.841 66.9896 73.35 67.7076C72.5876 68.0748 71.6766 68.2201 70.3481 68.4319L70.1315 68.4665C69.659 68.5421 69.2553 68.6066 68.9204 68.6399C68.5719 68.6745 68.2165 68.6852 67.853 68.6127C66.657 68.3742 65.6706 67.521 65.2514 66.3621C65.124 66.0099 65.079 65.6528 65.0584 65.2989C65.0387 64.9588 65.0387 64.5451 65.0387 64.0609L65.0386 57.1069C65.0377 56.3978 65.037 55.7876 65.1992 55.265C65.5704 54.0694 66.5397 53.1626 67.7461 52.882C68.2735 52.7594 68.8743 52.8081 69.5725 52.8648L69.7279 52.8774L69.9109 52.892C71.2171 52.9959 72.1108 53.067 72.8694 53.3511C73.4025 53.5507 73.8969 53.8255 74.341 54.1627V52.2068C74.341 44.1882 67.9203 37.6878 60 37.6878C52.0796 37.6878 45.6589 44.1882 45.6589 52.2068V54.1627C46.103 53.8255 46.5974 53.5507 47.1305 53.3511C47.8891 53.067 48.7828 52.9959 50.089 52.892L50.272 52.8774L50.4274 52.8648C51.1256 52.8081 51.7264 52.7594 52.2538 52.882C53.4602 53.1626 54.4295 54.0694 54.8007 55.265C54.9629 55.7876 54.9622 56.3978 54.9613 57.1069L54.9612 64.0609C54.9612 64.5451 54.9612 64.9588 54.9415 65.2989C54.9209 65.6528 54.8759 66.0099 54.7485 66.3621C54.3293 67.521 53.3429 68.3742 52.1469 68.6127C51.7834 68.6852 51.428 68.6745 51.0795 68.6399C50.7446 68.6066 50.3409 68.5421 49.8684 68.4665L49.6518 68.4319C48.3234 68.2201 47.4123 68.0748 46.6499 67.7076C45.1589 66.9896 44.0398 65.6637 43.5718 64.0607C43.3745 63.3848 43.3401 62.6314 43.3344 61.6245L43.3334 61.3006V52.2068Z" fill="white"/>
<path fill-rule="evenodd" clip-rule="evenodd" d="M60 41.5834C60.6904 41.5834 61.25 42.143 61.25 42.8334L61.25 51.1667C61.25 51.8571 60.6904 52.4167 60 52.4167C59.3096 52.4167 58.75 51.8571 58.75 51.1667L58.75 42.8334C58.75 42.143 59.3096 41.5834 60 41.5834Z" fill="#FFC121"/>
<path fill-rule="evenodd" clip-rule="evenodd" d="M65 44.0834C65.6904 44.0834 66.25 44.643 66.25 45.3334V48.6667C66.25 49.3571 65.6904 49.9167 65 49.9167C64.3096 49.9167 63.75 49.3571 63.75 48.6667V45.3334C63.75 44.643 64.3096 44.0834 65 44.0834Z" fill="#FFC121"/>
<path fill-rule="evenodd" clip-rule="evenodd" d="M55 44.0834C55.6904 44.0834 56.25 44.643 56.25 45.3334L56.25 48.6667C56.25 49.3571 55.6904 49.9167 55 49.9167C54.3096 49.9167 53.75 49.3571 53.75 48.6667L53.75 45.3334C53.75 44.643 54.3096 44.0834 55 44.0834Z" fill="#FFC121"/>
</g>
<defs>
<filter id="filter0_d_6306_2618" x="0" y="0" width="120" height="120" filterUnits="userSpaceOnUse" color-interpolation-filters="sRGB">
<feFlood flood-opacity="0" result="BackgroundImageFix"/>
<feColorMatrix in="SourceAlpha" type="matrix" values="0 0 0 0 0 0 0 0 0 0 0 0 0 0 0 0 0 0 127 0" result="hardAlpha"/>
<feOffset dy="8"/>
<feGaussianBlur stdDeviation="12"/>
<feComposite in2="hardAlpha" operator="out"/>
<feColorMatrix type="matrix" values="0 0 0 0 0.529412 0 0 0 0 0.784314 0 0 0 0 0.203922 0 0 0 0.4 0"/>
<feBlend mode="normal" in2="BackgroundImageFix" result="effect1_dropShadow_6306_2618"/>
<feBlend mode="normal" in="SourceGraphic" in2="effect1_dropShadow_6306_2618" result="shape"/>
</filter>
</defs>
</svg>
