<svg width="108" height="108" viewBox="0 0 108 108" fill="none" xmlns="http://www.w3.org/2000/svg">
<g filter="url(#filter0_d_6306_2609)">
<rect x="24" y="16" width="60" height="60" rx="30" fill="#FF8439"/>
<path d="M40.5607 31.4386C39.9746 31.2325 39.3323 31.5407 39.1262 32.1268C38.9202 32.713 39.2283 33.3552 39.8144 33.5613L40.2062 33.699C41.2077 34.0511 41.8658 34.2844 42.35 34.522C42.8049 34.7452 43.0054 34.9258 43.1375 35.1191C43.2729 35.3173 43.3774 35.5894 43.4364 36.1344C43.4982 36.7047 43.4997 37.4476 43.4997 38.5575L43.4997 42.46C43.4997 46.8723 43.5945 48.3285 44.8941 49.6993C46.1937 51.07 48.2854 51.07 52.4688 51.07H60.4231C62.7646 51.07 63.9354 51.07 64.763 50.3956C65.5906 49.7212 65.8269 48.5745 66.2996 46.2812L67.0492 42.6441C67.5699 40.0355 67.8302 38.7312 67.1643 37.8656C66.4984 37 64.2232 37 61.6958 37H45.7385C45.7285 36.5945 45.7094 36.2256 45.6734 35.8923C45.5928 35.1477 45.4181 34.4686 44.9952 33.8497C44.5689 33.2259 44.0021 32.8264 43.3412 32.5021C42.723 32.1988 41.9376 31.9227 41.0128 31.5976L40.5607 31.4386Z" fill="white"/>
<path d="M47.25 55C48.4926 55 49.5 56.0074 49.5 57.25C49.5 58.4926 48.4926 59.5 47.25 59.5C46.0074 59.5 45 58.4926 45 57.25C45 56.0074 46.0074 55 47.25 55Z" fill="white"/>
<path d="M60.75 55.0001C61.9926 55.0001 63 56.0075 63 57.2501C63 58.4928 61.9926 59.5001 60.75 59.5001C59.5074 59.5001 58.5 58.4928 58.5 57.2501C58.5 56.0075 59.5074 55.0001 60.75 55.0001Z" fill="white"/>
<path d="M50.0608 40.391C50.6734 40.2872 51.2541 40.6997 51.3579 41.3123L52.1502 45.9891C52.254 46.6016 51.8415 47.1824 51.2289 47.2862C50.6163 47.3899 50.0356 46.9775 49.9318 46.3649L49.1395 41.6881C49.0357 41.0755 49.4482 40.4948 50.0608 40.391Z" fill="#FF8439"/>
<path d="M58.182 41.3123C58.2858 40.6997 58.8665 40.2872 59.4791 40.391C60.0917 40.4948 60.5042 41.0755 60.4004 41.6881L59.6081 46.3649C59.5043 46.9775 58.9236 47.3899 58.311 47.2862C57.6984 47.1824 57.2859 46.6016 57.3897 45.9891L58.182 41.3123Z" fill="#FF8439"/>
</g>
<defs>
<filter id="filter0_d_6306_2609" x="0" y="0" width="108" height="108" filterUnits="userSpaceOnUse" color-interpolation-filters="sRGB">
<feFlood flood-opacity="0" result="BackgroundImageFix"/>
<feColorMatrix in="SourceAlpha" type="matrix" values="0 0 0 0 0 0 0 0 0 0 0 0 0 0 0 0 0 0 127 0" result="hardAlpha"/>
<feOffset dy="8"/>
<feGaussianBlur stdDeviation="12"/>
<feComposite in2="hardAlpha" operator="out"/>
<feColorMatrix type="matrix" values="0 0 0 0 1 0 0 0 0 0.517647 0 0 0 0 0.223529 0 0 0 0.4 0"/>
<feBlend mode="normal" in2="BackgroundImageFix" result="effect1_dropShadow_6306_2609"/>
<feBlend mode="normal" in="SourceGraphic" in2="effect1_dropShadow_6306_2609" result="shape"/>
</filter>
</defs>
</svg>
