<svg width="128" height="128" viewBox="0 0 128 128" fill="none" xmlns="http://www.w3.org/2000/svg">
<g filter="url(#filter0_d_6306_2597)">
<rect x="24" y="16" width="80" height="80" rx="40" fill="#0E92D9"/>
<path fill-rule="evenodd" clip-rule="evenodd" d="M63.9879 75.25C72.5477 75.25 79.8026 69.6631 82.305 61.9369C83.2442 61.7439 84.1047 61.2684 84.7537 60.551C86.1113 59.1059 86.05 57.2732 85.9567 54.4867L85.9549 54.4344V54.4113C85.8607 51.6646 85.7901 49.7719 84.3061 48.3408C83.431 47.4833 82.0254 47.0376 80.9113 46.8184C77.6506 40.8209 71.2947 36.75 63.9879 36.75C56.7027 36.75 50.3627 40.797 47.0934 46.7654C45.9757 46.9829 44.5563 47.4288 43.6749 48.2925C42.2145 49.7697 42.1438 51.6624 42.0496 54.386L42.0479 54.4384C41.9546 57.2249 41.8932 59.0575 43.2509 60.5026C43.8963 61.2162 44.7393 61.7018 45.6575 61.8956C48.1474 69.6432 55.4129 75.25 63.9879 75.25ZM51.3066 58.1713C50.4587 50.5313 56.0882 43.7915 64.0026 43.7915H64.0497C71.9405 43.7915 77.57 50.5313 76.7456 58.1713C76.4394 61.0565 73.9426 63.2723 70.9747 63.2723H57.0775C54.0861 63.2723 51.6128 61.0565 51.3066 58.1713ZM70.0986 50.9474C70.0515 50.9474 70.0044 50.9416 69.9573 50.9359C69.9102 50.9301 69.8631 50.9243 69.816 50.9243C68.9444 50.9243 68.2378 51.6168 68.2378 52.4708V54.8943C68.2378 55.7484 68.9444 56.4408 69.816 56.4408C69.9102 56.4408 70.0044 56.4408 70.0986 56.4177C70.8524 56.2562 71.4177 55.6099 71.3941 54.8251V52.54C71.3941 51.7783 70.8759 51.109 70.0986 50.9474ZM57.9002 50.9474C57.9944 50.9243 58.0887 50.9243 58.1829 50.9243C59.0544 50.9243 59.761 51.6168 59.761 52.4708V54.8943C59.761 55.7484 59.0544 56.4408 58.1829 56.4408C58.1358 56.4408 58.0887 56.435 58.0415 56.4293C57.9944 56.4235 57.9473 56.4177 57.9002 56.4177C57.1229 56.2562 56.6047 55.5868 56.6047 54.8251V52.54C56.5812 51.7783 57.1465 51.109 57.9002 50.9474Z" fill="white"/>
</g>
<defs>
<filter id="filter0_d_6306_2597" x="0" y="0" width="128" height="128" filterUnits="userSpaceOnUse" color-interpolation-filters="sRGB">
<feFlood flood-opacity="0" result="BackgroundImageFix"/>
<feColorMatrix in="SourceAlpha" type="matrix" values="0 0 0 0 0 0 0 0 0 0 0 0 0 0 0 0 0 0 127 0" result="hardAlpha"/>
<feOffset dy="8"/>
<feGaussianBlur stdDeviation="12"/>
<feComposite in2="hardAlpha" operator="out"/>
<feColorMatrix type="matrix" values="0 0 0 0 0.054902 0 0 0 0 0.572549 0 0 0 0 0.85098 0 0 0 0.4 0"/>
<feBlend mode="normal" in2="BackgroundImageFix" result="effect1_dropShadow_6306_2597"/>
<feBlend mode="normal" in="SourceGraphic" in2="effect1_dropShadow_6306_2597" result="shape"/>
</filter>
</defs>
</svg>
