<svg xmlns="http://www.w3.org/2000/svg" width="23.833" height="22.5" viewBox="0 0 23.833 22.5">
  <g id="그룹_767" data-name="그룹 767" transform="translate(-104.041 -772.75)">
    <path id="패스_110" data-name="패스 110" d="M18.667,20h-16A2.632,2.632,0,0,1,.8,19.2,2.632,2.632,0,0,1,0,17.333v-12A2.675,2.675,0,0,1,2.667,2.667H4.8l2-2A2.208,2.208,0,0,1,8.4,0h4.667a2.141,2.141,0,0,1,1.467.667l2,2h2.133a2.675,2.675,0,0,1,2.667,2.667v12A2.675,2.675,0,0,1,18.667,20Z" transform="translate(105.291 774)" fill="none" stroke="#1473e6" stroke-width="2.5" fill-rule="evenodd"/>
    <path id="패스_110-2" data-name="패스 110" d="M6.394,7.869l1.18-1.082a.361.361,0,0,1,.3-.1l.2.1,2.754,1.279c.2.1.2.2.2.393a2.494,2.494,0,0,1-.787,1.771,2.818,2.818,0,0,1-2.066.787,5.994,5.994,0,0,1-2.754-.689A12.9,12.9,0,0,1,2.656,8.361,16.755,16.755,0,0,1,1.18,6.2,13.6,13.6,0,0,1,.2,4.033,6.053,6.053,0,0,1,0,2.164,2.585,2.585,0,0,1,.689.689,2.991,2.991,0,0,1,2.558,0a.511.511,0,0,1,.393.2L4.427,2.951a.343.343,0,0,0,.1.2.361.361,0,0,1-.1.3L3.148,4.623a.439.439,0,0,0,0,.492,9.394,9.394,0,0,0,1.18,1.574A9.932,9.932,0,0,0,5.9,7.968C6.1,8.066,6.3,8.066,6.394,7.869Z" transform="translate(110.449 779.158)" fill="#1473e6"/>
  </g>
</svg>
