<svg xmlns="http://www.w3.org/2000/svg" width="28.5" height="22.021" viewBox="0 0 28.5 22.021">
  <g id="구성_요소_208_5" data-name="구성 요소 208 – 5" transform="translate(1.25 1.25)">
    <path id="패스_178" data-name="패스 178" d="M0,17.754V1.6A1.661,1.661,0,0,1,.5.421,1.6,1.6,0,0,1,1.6,0h9.34a.955.955,0,0,1,.673.252,1.131,1.131,0,0,1,.5.589L12.958,3.2H24.317a1.661,1.661,0,0,1,1.178.5A1.528,1.528,0,0,1,26,4.88V17.838a1.661,1.661,0,0,1-.5,1.178,1.528,1.528,0,0,1-1.178.5H1.6a1.661,1.661,0,0,1-1.178-.5A2.267,2.267,0,0,1,0,17.754Z" fill="#fff" stroke="#717171" stroke-width="2.5"/>
  </g>
</svg>
